<?xml version="1.0" encoding="utf-8"?>
<!-- Generator: Adobe Illustrator 22.1.0, SVG Export Plug-In . SVG Version: 6.00 Build 0)  -->
<svg version="1.1" id="Layer_1" xmlns="http://www.w3.org/2000/svg" xmlns:xlink="http://www.w3.org/1999/xlink" x="0px" y="0px"
	 viewBox="0 0 806 200" style="enable-background:new 0 0 806 200;" xml:space="preserve">
<style type="text/css">
	.st0{fill:#1C3761;}
	.st1{fill:#DBDAE8;}
	.st2{fill:#17191C;stroke:#1D1E1C;stroke-miterlimit:10;}
	.st3{fill:#FFFFFF;stroke:#FFFFFF;stroke-miterlimit:10;}
</style>
<path class="st0" d="M271,103.4c2.9,3.3,4.3,8,4.3,14.1v2.4c0,13-6.5,19.5-19.5,19.5H224c-1.6,0-2.4-0.8-2.4-2.4V73.5
	c0-1.6,0.8-2.4,2.4-2.4h29.3c13,0,19.5,6.5,19.5,19.5V93C272.9,97.1,272.2,100.6,271,103.4z M236.2,85.7v12.2h19.5
	c1.6,0,2.4-0.8,2.4-2.4v-7.3c0-1.6-0.8-2.4-2.4-2.4H236.2z M236.2,112.6v12.2h22c1.6,0,2.4-0.8,2.4-2.4V115c0-1.6-0.8-2.4-2.4-2.4
	H236.2z"/>
<path class="st0" d="M287.5,71.1h9.8c1.6,0,2.4,0.8,2.4,2.4V137c0,1.6-0.8,2.4-2.4,2.4h-9.8c-1.6,0-2.4-0.8-2.4-2.4V73.5
	C285.1,71.9,285.9,71.1,287.5,71.1z"/>
<path class="st0" d="M335.6,122.3h-11.5V137c0,1.6-0.8,2.4-2.4,2.4h-9.8c-1.6,0-2.4-0.8-2.4-2.4V73.5c0-1.6,0.8-2.4,2.4-2.4h31.7
	c13,0,19.5,6.5,19.5,19.5v12.2c0,9.5-3.5,15.5-10.4,18.1l12.8,18.5h-19.5L335.6,122.3z M346.1,107.7c1.6,0,2.4-0.8,2.4-2.4V88.2
	c0-1.6-0.8-2.4-2.4-2.4h-22v22H346.1z"/>
<path class="st0" d="M426.7,119.9c0,13-6.5,19.5-19.5,19.5h-31.7c-1.6,0-2.4-0.8-2.4-2.4V73.5c0-1.6,0.8-2.4,2.4-2.4h31.7
	c13,0,19.5,6.5,19.5,19.5V119.9z M387.6,124.8h22c1.6,0,2.4-0.8,2.4-2.4V88.2c0-1.6-0.8-2.4-2.4-2.4h-22V124.8z"/>
<path class="st0" d="M470.7,97.9c13,0,19.5,6.5,19.5,19.5v2.4c0,13-6.5,19.5-19.5,19.5h-31.7c-1.6,0-2.4-0.8-2.4-2.4v-9.8
	c0-1.6,0.8-2.4,2.4-2.4h34.2c1.6,0,2.4-0.8,2.4-2.4V115c0-1.6-0.8-2.4-2.4-2.4H456c-13,0-19.5-6.5-19.5-19.5v-2.4
	c0-13,6.5-19.5,19.5-19.5h31.7c1.6,0,2.4,0.8,2.4,2.4v9.8c0,1.6-0.8,2.4-2.4,2.4h-34.2c-1.6,0-2.4,0.8-2.4,2.4v7.3
	c0,1.6,0.8,2.4,2.4,2.4H470.7z"/>
<path class="st0" d="M565.9,71.1h9.8c1.6,0,2.4,0.8,2.4,2.4V137c0,1.6-0.8,2.4-2.4,2.4h-9.8c-1.6,0-2.4-0.8-2.4-2.4V73.5
	C563.5,71.9,564.3,71.1,565.9,71.1z"/>
<path class="st0" d="M602.5,97.9h26.9c1.6,0,2.4,0.8,2.4,2.4v9.8c0,1.6-0.8,2.4-2.4,2.4h-26.9v9.8c0,1.6,0.8,2.4,2.4,2.4h34.2
	c1.6,0,2.4,0.8,2.4,2.4v9.8c0,1.6-0.8,2.4-2.4,2.4h-31.7c-13,0-19.5-6.5-19.5-19.5V90.6c0-13,6.5-19.5,19.5-19.5h31.7
	c1.6,0,2.4,0.8,2.4,2.4v9.8c0,1.6-0.8,2.4-2.4,2.4H605c-1.6,0-2.4,0.8-2.4,2.4V97.9z"/>
<path class="st0" d="M688,136.5c-3.1,2-7.2,2.9-12.2,2.9h-4.9c-13,0-19.5-6.5-19.5-19.5V73.5c0-1.6,0.8-2.4,2.4-2.4h9.8
	c1.6,0,2.4,0.8,2.4,2.4v48.8c0,1.6,0.8,2.4,2.4,2.4h9.8c1.6,0,2.4-0.8,2.4-2.4V73.5c0-1.6,0.8-2.4,2.4-2.4h9.8
	c1.6,0,2.4,0.8,2.4,2.4v48.8c0,1.6,0.8,2.4,2.4,2.4h9.8c1.6,0,2.4-0.8,2.4-2.4V73.5c0-1.6,0.8-2.4,2.4-2.4h9.8
	c1.6,0,2.4,0.8,2.4,2.4v46.4c0,13-6.5,19.5-19.5,19.5h-4.9C695.2,139.4,691.1,138.5,688,136.5z"/>
<polygon class="st0" points="505.2,71.1 527.6,120.4 551.1,71.1 "/>
<path class="st0" d="M203.1,139.4l-12.8-21.2c8.2-18.9,6-41.6-7.5-59C163,33.7,126.4,29.2,101,49c-25.4,19.8-30,56.5-10.2,81.9
	c19.8,25.4,56.5,30,81.9,10.2c2.2-1.7,4.2-3.6,6.1-5.5L203.1,139.4z"/>
<path class="st1" d="M112.2,63.4c17.5-13.6,42.7-10.5,56.3,7c13.6,17.5,10.5,42.7-7,56.3s-42.7,10.5-56.3-7
	C91.6,102.2,94.7,77,112.2,63.4z"/>
<path class="st2" d="M121.7,73.6c13.1-10.2,32-7.9,42.2,5.2c10.2,13.1,7.9,32-5.2,42.2c-13.1,10.2-32,7.9-42.2-5.2
	C106.2,102.7,108.6,83.8,121.7,73.6z"/>
<path class="st3" d="M108.1,90.1c1.7-1.3,4.2-1,5.5,0.7c1.3,1.7,1,4.2-0.7,5.5c-1.7,1.3-4.2,1-5.5-0.7
	C106,93.9,106.3,91.4,108.1,90.1z"/>
</svg>
