<?xml version="1.0" encoding="utf-8"?>
<!-- Generator: Adobe Illustrator 22.1.0, SVG Export Plug-In . SVG Version: 6.00 Build 0)  -->
<svg version="1.1" id="Layer_1" xmlns="http://www.w3.org/2000/svg" xmlns:xlink="http://www.w3.org/1999/xlink" x="0px" y="0px"
	 viewBox="0 0 850.4 850.4" style="enable-background:new 0 0 850.4 850.4;" xml:space="preserve">
<style type="text/css">
	.st0{fill:#1B3760;}
	.st1{fill:#DAD9E7;}
	.st2{fill:#17191C;}
	.st3{fill:#FFFFFF;stroke:#FFFFFF;stroke-miterlimit:10;}
</style>
<path class="st0" d="M755.8,670.8l-66.9-111.3c42.8-99.3,31.6-218.3-39.6-309.7C545.4,116.5,353.1,92.7,219.7,196.6
	C86.4,300.5,62.6,492.8,166.5,626.2c103.9,133.3,296.3,157.2,429.6,53.3c11.6-9,22.3-18.8,32.3-29L755.8,670.8z"/>
<path class="st1" d="M278.5,272c91.7-71.4,223.9-55.1,295.3,36.6c71.4,91.7,55.1,223.9-36.6,295.3S313.4,659,241.9,567.4
	C170.5,475.7,186.9,343.5,278.5,272z"/>
<path class="st2" d="M328.4,325.5c68.8-53.6,167.9-41.3,221.5,27.5c53.6,68.8,41.3,167.9-27.4,221.5
	c-68.8,53.6-167.9,41.3-221.5-27.5C247.3,478.3,259.6,379.1,328.4,325.5z"/>
<path class="st3" d="M257.1,412c9-7,22-5.4,29.1,3.6c7,9,5.4,22-3.6,29.1c-9,7-22,5.4-29-3.6C246.4,432.1,248,419.1,257.1,412z"/>
</svg>
