<svg id="Layer_1" data-name="Layer 1" xmlns="http://www.w3.org/2000/svg" viewBox="0 0 1022 469"><defs><style>.cls-1{fill:#1c3761;}.cls-2{fill:#dbdae8;}.cls-3{fill:#17191c;}.cls-4{fill:#1d1e1c;}.cls-5{fill:#fff;}</style></defs><title>Stor Logo med mørk skrift</title><path class="cls-1" d="M563,367.35q4.34,4.89,4.34,14.12v2.44q0,19.53-19.53,19.53H516a2.15,2.15,0,0,1-2.44-2.44V337.51a2.15,2.15,0,0,1,2.44-2.44h29.3q19.54,0,19.54,19.53v2.45A24.87,24.87,0,0,1,563,367.35Zm-34.73-17.63v12.21h19.54a2.16,2.16,0,0,0,2.44-2.44v-7.33a2.16,2.16,0,0,0-2.44-2.44Zm0,26.86v12.21h22a2.15,2.15,0,0,0,2.44-2.44V379a2.16,2.16,0,0,0-2.44-2.44Z"/><path class="cls-1" d="M579.52,335.07h9.77a2.18,2.18,0,0,1,2.44,2.44V401a2.15,2.15,0,0,1-2.44,2.44h-9.77a2.15,2.15,0,0,1-2.44-2.44V337.51A2.15,2.15,0,0,1,579.52,335.07Z"/><path class="cls-1" d="M627.63,386.35H616.15V401a2.15,2.15,0,0,1-2.44,2.44h-9.77A2.15,2.15,0,0,1,601.5,401V337.51a2.15,2.15,0,0,1,2.44-2.44h31.75q19.53,0,19.53,19.53v12.21q0,14.26-10.4,18.12l12.85,18.51H638.13Zm10.5-14.65a2.16,2.16,0,0,0,2.44-2.44v-17.1a2.15,2.15,0,0,0-2.44-2.44h-22v22Z"/><path class="cls-1" d="M718.72,383.91q0,19.53-19.54,19.53H667.43A2.16,2.16,0,0,1,665,401V337.51a2.16,2.16,0,0,1,2.44-2.44h31.75q19.55,0,19.54,19.53Zm-39.07,4.88h22a2.16,2.16,0,0,0,2.45-2.44V352.16a2.16,2.16,0,0,0-2.45-2.44h-22Z"/><path class="cls-1" d="M762.67,361.93q19.55,0,19.54,19.54v2.44q0,19.53-19.54,19.53H730.93a2.15,2.15,0,0,1-2.44-2.44v-9.77a2.16,2.16,0,0,1,2.44-2.44h34.19a2.16,2.16,0,0,0,2.44-2.44V379a2.16,2.16,0,0,0-2.44-2.44H748q-19.53,0-19.53-19.53V354.6q0-19.53,19.53-19.53h31.75a2.15,2.15,0,0,1,2.44,2.44v9.77a2.15,2.15,0,0,1-2.44,2.44H745.58a2.15,2.15,0,0,0-2.44,2.44v7.33a2.15,2.15,0,0,0,2.44,2.44Z"/><path class="cls-1" d="M857.91,335.07h9.77a2.18,2.18,0,0,1,2.44,2.44V401a2.15,2.15,0,0,1-2.44,2.44h-9.77a2.15,2.15,0,0,1-2.44-2.44V337.51A2.15,2.15,0,0,1,857.91,335.07Z"/><path class="cls-1" d="M894.54,361.93H921.4a2.16,2.16,0,0,1,2.45,2.44v9.77a2.16,2.16,0,0,1-2.45,2.44H894.54v9.77a2.16,2.16,0,0,0,2.44,2.44h34.19a2.16,2.16,0,0,1,2.44,2.44V401a2.15,2.15,0,0,1-2.44,2.44H899.43q-19.54,0-19.54-19.53V354.6q0-19.53,19.54-19.53h31.74a2.15,2.15,0,0,1,2.44,2.44v9.77a2.15,2.15,0,0,1-2.44,2.44H897a2.16,2.16,0,0,0-2.44,2.44Z"/><path class="cls-1" d="M980,400.51q-4.63,2.94-12.21,2.93h-4.88q-19.54,0-19.54-19.53v-46.4a2.16,2.16,0,0,1,2.45-2.44h9.76a2.15,2.15,0,0,1,2.44,2.44v48.84a2.16,2.16,0,0,0,2.45,2.44h9.77a2.16,2.16,0,0,0,2.44-2.44V337.51a2.15,2.15,0,0,1,2.44-2.44h9.77a2.16,2.16,0,0,1,2.44,2.44v48.84a2.15,2.15,0,0,0,2.44,2.44h9.77a2.15,2.15,0,0,0,2.44-2.44V337.51a2.15,2.15,0,0,1,2.44-2.44h9.77a2.15,2.15,0,0,1,2.44,2.44v46.4q0,19.53-19.53,19.53h-4.89C987.17,403.44,983.11,402.47,980,400.51Z"/><polygon class="cls-1" points="797.22 335.07 819.62 384.41 843.07 335.07 797.22 335.07"/><path class="cls-1" d="M495.77,403.11,446.58,321.3A225,225,0,0,0,417.5,93.69c-76.39-98-217.77-115.53-315.77-39.14S-13.8,272.31,62.59,370.31s217.76,115.53,315.77,39.15A228.19,228.19,0,0,0,402,388.12Z"/><path class="cls-2" d="M145,110A154.68,154.68,0,1,1,118,327.09,154.7,154.7,0,0,1,145,110Z"/><path class="cls-3" d="M181.59,149.32a116,116,0,1,1-20.18,162.82A116,116,0,0,1,181.59,149.32Z"/><path class="cls-4" d="M253.15,358.78a120.28,120.28,0,0,1-14.75-.91,117.95,117.95,0,0,1-58-210.07h0a117.94,117.94,0,1,1,72.74,211ZM182.78,150.84a114.08,114.08,0,1,0,160.11,19.85,114.22,114.22,0,0,0-160.11-19.85Z"/><path class="cls-5" d="M129.16,212.92a15.21,15.21,0,1,1-2.65,21.35A15.21,15.21,0,0,1,129.16,212.92Z"/><path class="cls-5" d="M138.54,242.06a17.19,17.19,0,0,1-2.14-.13,17.13,17.13,0,1,1,2.14.13Zm-.06-30.43a13.18,13.18,0,0,0-8.14,2.81h0a13.29,13.29,0,1,0,8.14-2.81Z"/></svg>