<svg xmlns="http://www.w3.org/2000/svg" width="170" height="170" viewBox="0 0 170 170">
  <path d="M147.148,128.377,134.39,107.161a58.63,58.63,0,1,0-11.553,17.327Z" fill="#1c3761"/>
  <path d="M56.164,52.36a40.116,40.116,0,1,1-6.979,56.3A40.117,40.117,0,0,1,56.164,52.36Z" fill="#fff"/>
  <path d="M65.667,62.558a30.087,30.087,0,1,1-5.234,42.225A30.087,30.087,0,0,1,65.667,62.558Z" fill="#020519"/>
  <path d="M48.788,74.846a9.279,9.279,0,1,1-1.615,13.022A9.279,9.279,0,0,1,48.788,74.846Z" fill="#fff"/>
</svg>
