<svg xmlns="http://www.w3.org/2000/svg" width="724" height="200" viewBox="0 0 724 200">
  <path d="M229.966,103.352q4.345,4.882,4.346,14.114v2.442q0,19.536-19.536,19.535H183.03A2.157,2.157,0,0,1,180.588,137V73.51a2.158,2.158,0,0,1,2.442-2.442h29.3q19.536,0,19.536,19.536v2.442A24.914,24.914,0,0,1,229.966,103.352ZM195.24,85.72V97.93h19.536a2.159,2.159,0,0,0,2.442-2.442V88.162a2.159,2.159,0,0,0-2.442-2.442Zm0,26.862v12.21h21.978a2.158,2.158,0,0,0,2.442-2.442v-7.327a2.159,2.159,0,0,0-2.442-2.441Z" fill="#1c3761"/>
  <path d="M246.522,71.068h9.768a2.184,2.184,0,0,1,2.442,2.442V137a2.157,2.157,0,0,1-2.442,2.441h-9.768A2.157,2.157,0,0,1,244.08,137V73.51A2.158,2.158,0,0,1,246.522,71.068Z" fill="#1c3761"/>
  <path d="M294.63,122.35H283.152V137a2.157,2.157,0,0,1-2.442,2.441h-9.768A2.156,2.156,0,0,1,268.5,137V73.51a2.157,2.157,0,0,1,2.441-2.442h31.746q19.536,0,19.537,19.536v12.211q0,14.261-10.4,18.119l12.846,18.509H305.131Zm10.5-14.653a2.157,2.157,0,0,0,2.442-2.441V88.162a2.158,2.158,0,0,0-2.442-2.442H283.152V107.7Z" fill="#1c3761"/>
  <path d="M385.718,119.908q0,19.536-19.537,19.535H334.435A2.157,2.157,0,0,1,331.993,137V73.51a2.158,2.158,0,0,1,2.442-2.442h31.746q19.536,0,19.537,19.536Zm-39.073,4.884h21.978a2.158,2.158,0,0,0,2.442-2.442V88.162a2.158,2.158,0,0,0-2.442-2.442H346.645Z" fill="#1c3761"/>
  <path d="M429.674,97.93q19.535,0,19.536,19.536v2.442q0,19.536-19.536,19.535H397.928A2.158,2.158,0,0,1,395.485,137v-9.768a2.159,2.159,0,0,1,2.443-2.442h34.188a2.159,2.159,0,0,0,2.442-2.442v-7.327a2.159,2.159,0,0,0-2.442-2.441H415.021q-19.536,0-19.536-19.536V90.6q0-19.536,19.536-19.536h31.747a2.159,2.159,0,0,1,2.442,2.442v9.768a2.159,2.159,0,0,1-2.442,2.442H412.579a2.158,2.158,0,0,0-2.441,2.442v7.326a2.158,2.158,0,0,0,2.441,2.442Z" fill="#1c3761"/>
  <path d="M524.912,71.068h9.769a2.185,2.185,0,0,1,2.441,2.442V137a2.157,2.157,0,0,1-2.441,2.441h-9.769A2.157,2.157,0,0,1,522.47,137V73.51A2.158,2.158,0,0,1,524.912,71.068Z" fill="#1c3761"/>
  <path d="M561.542,97.93H588.4a2.159,2.159,0,0,1,2.443,2.442v9.769a2.158,2.158,0,0,1-2.443,2.441H561.542v9.768a2.158,2.158,0,0,0,2.442,2.442h34.189a2.158,2.158,0,0,1,2.441,2.442V137a2.157,2.157,0,0,1-2.441,2.441H566.427q-19.539,0-19.537-19.535V90.6q0-19.536,19.537-19.536h31.746a2.158,2.158,0,0,1,2.441,2.442v9.768a2.158,2.158,0,0,1-2.441,2.442H563.984a2.158,2.158,0,0,0-2.442,2.442Z" fill="#1c3761"/>
  <path d="M647.013,136.514q-4.641,2.93-12.21,2.929h-4.884q-19.538,0-19.536-19.535V73.51a2.158,2.158,0,0,1,2.442-2.442h9.768a2.158,2.158,0,0,1,2.441,2.442v48.84a2.159,2.159,0,0,0,2.443,2.442h9.768a2.158,2.158,0,0,0,2.441-2.442V73.51a2.159,2.159,0,0,1,2.443-2.442H651.9a2.159,2.159,0,0,1,2.443,2.442v48.84a2.158,2.158,0,0,0,2.441,2.442h9.769a2.158,2.158,0,0,0,2.442-2.442V73.51a2.158,2.158,0,0,1,2.442-2.442H681.2a2.158,2.158,0,0,1,2.442,2.442v46.4q0,19.536-19.537,19.535h-4.883Q651.651,139.443,647.013,136.514Z" fill="#1c3761"/>
  <polygon points="464.218 71.068 486.616 120.412 510.073 71.068 464.218 71.068" fill="#1c3761"/>
  <path d="M162.148,139.377,149.39,118.161a58.63,58.63,0,1,0-11.553,17.327Z" fill="#1c3761"/>
  <path d="M71.164,63.36a40.116,40.116,0,1,1-6.979,56.3A40.117,40.117,0,0,1,71.164,63.36Z" fill="#fff"/>
  <path d="M80.667,73.558a30.087,30.087,0,1,1-5.234,42.225A30.087,30.087,0,0,1,80.667,73.558Z" fill="#020519"/>
  <path d="M63.788,85.846a9.279,9.279,0,1,1-1.615,13.022A9.279,9.279,0,0,1,63.788,85.846Z" fill="#fff"/>
</svg>
