<svg id="Layer_1" data-name="Layer 1" xmlns="http://www.w3.org/2000/svg" viewBox="0 0 512 200"><defs><style>.cls-1{fill:#1c3761;}</style></defs><title>birdsview_logoskrift</title><path class="cls-1" d="M54,103.35q4.34,4.89,4.34,14.12v2.44q0,19.53-19.53,19.53H7A2.15,2.15,0,0,1,4.59,137V73.51A2.15,2.15,0,0,1,7,71.07h29.3q19.55,0,19.54,19.53v2.45A24.87,24.87,0,0,1,54,103.35ZM19.24,85.72V97.93H38.78a2.16,2.16,0,0,0,2.44-2.44V88.16a2.16,2.16,0,0,0-2.44-2.44Zm0,26.86v12.21h22a2.15,2.15,0,0,0,2.44-2.44V115a2.16,2.16,0,0,0-2.44-2.44Z"/><path class="cls-1" d="M70.52,71.07h9.77a2.18,2.18,0,0,1,2.44,2.44V137a2.15,2.15,0,0,1-2.44,2.44H70.52A2.15,2.15,0,0,1,68.08,137V73.51A2.15,2.15,0,0,1,70.52,71.07Z"/><path class="cls-1" d="M118.63,122.35H107.15V137a2.15,2.15,0,0,1-2.44,2.44H94.94A2.15,2.15,0,0,1,92.5,137V73.51a2.15,2.15,0,0,1,2.44-2.44h31.75q19.53,0,19.53,19.53v12.21q0,14.26-10.4,18.12l12.85,18.51H129.13Zm10.5-14.65a2.16,2.16,0,0,0,2.44-2.44V88.16a2.15,2.15,0,0,0-2.44-2.44h-22v22Z"/><path class="cls-1" d="M209.72,119.91q0,19.53-19.54,19.53H158.43A2.16,2.16,0,0,1,156,137V73.51a2.16,2.16,0,0,1,2.44-2.44h31.75q19.55,0,19.54,19.53Zm-39.07,4.88h22a2.16,2.16,0,0,0,2.45-2.44V88.16a2.16,2.16,0,0,0-2.45-2.44h-22Z"/><path class="cls-1" d="M253.67,97.93q19.54,0,19.54,19.54v2.44q0,19.53-19.54,19.53H221.93a2.15,2.15,0,0,1-2.44-2.44v-9.77a2.16,2.16,0,0,1,2.44-2.44h34.19a2.16,2.16,0,0,0,2.44-2.44V115a2.16,2.16,0,0,0-2.44-2.44H239q-19.53,0-19.53-19.53V90.6q0-19.53,19.53-19.53h31.75a2.15,2.15,0,0,1,2.44,2.44v9.77a2.15,2.15,0,0,1-2.44,2.44H236.58a2.15,2.15,0,0,0-2.44,2.44v7.33a2.15,2.15,0,0,0,2.44,2.44Z"/><path class="cls-1" d="M348.91,71.07h9.77a2.18,2.18,0,0,1,2.44,2.44V137a2.15,2.15,0,0,1-2.44,2.44h-9.77a2.15,2.15,0,0,1-2.44-2.44V73.51A2.15,2.15,0,0,1,348.91,71.07Z"/><path class="cls-1" d="M385.54,97.93H412.4a2.16,2.16,0,0,1,2.45,2.44v9.77a2.16,2.16,0,0,1-2.45,2.44H385.54v9.77a2.16,2.16,0,0,0,2.44,2.44h34.19a2.16,2.16,0,0,1,2.44,2.44V137a2.15,2.15,0,0,1-2.44,2.44H390.43q-19.55,0-19.54-19.53V90.6q0-19.53,19.54-19.53h31.74a2.15,2.15,0,0,1,2.44,2.44v9.77a2.15,2.15,0,0,1-2.44,2.44H388a2.16,2.16,0,0,0-2.44,2.44Z"/><path class="cls-1" d="M471,136.51q-4.63,2.94-12.21,2.93h-4.88q-19.55,0-19.54-19.53V73.51a2.16,2.16,0,0,1,2.45-2.44h9.76A2.15,2.15,0,0,1,449,73.51v48.84a2.16,2.16,0,0,0,2.45,2.44h9.77a2.16,2.16,0,0,0,2.44-2.44V73.51a2.15,2.15,0,0,1,2.44-2.44h9.77a2.16,2.16,0,0,1,2.44,2.44v48.84a2.15,2.15,0,0,0,2.44,2.44h9.77a2.15,2.15,0,0,0,2.44-2.44V73.51a2.15,2.15,0,0,1,2.44-2.44h9.77a2.15,2.15,0,0,1,2.44,2.44v46.4q0,19.53-19.53,19.53h-4.89C478.17,139.44,474.11,138.47,471,136.51Z"/><polygon class="cls-1" points="288.22 71.07 310.62 120.41 334.07 71.07 288.22 71.07"/></svg>