<svg xmlns="http://www.w3.org/2000/svg" width="132.376mm" height="259.179mm" viewBox="0 0 375.238 734.681">
  <g>
    <path d="M167.186,699.8c70.172,0,127.058-35.937,127.058-80.267h.006V152.482h-.067c0-44.33-56.886-80.267-127.058-80.267-68.849,0-124.9,34.6-126.992,77.769V619.8C40.363,664,97.156,699.8,167.186,699.8Z" fill="#a2765b"/>
    <path d="M282.483,592.089c-6.587,3.509-7.11,7.865.909,13.823,2.982,2.215,4.436,4.872,6.864,7.284a24.118,24.118,0,0,0,3.994,3.6V598.667c-3.617-2.241-7.724-4.348-11.464-6.555C282.687,592.106,282.583,592.1,282.483,592.089Z" fill="none"/>
    <path d="M138.785,79.247c9.211,3.094,13.891,8.883,23.308,11.8,2.8.866,5.142,2.916,7.292,4.541,8.869,6.7,15.82,14.145,30.072,18.757-7.395,2.681-9.485,2.648-16.32-.287-4.791-2.058-9.385-4.289-14.134-6.386-19.559-8.637-37.658-18.221-55.278-28.038A159.865,159.865,0,0,0,98.184,85.05q2.392,1.4,4.742,2.814c1.721,1.033,3.283,2.644,3.362,3.751.05.7-2.759.968-4.485,1.489,22.021,6.337,28.959,9.2,32.805,14.835.822-4.483,1.4-10.36,8.1-5.177,7.5,4.57,24.068,13.546,33.315,19.731,8.085,2.8,18.313,11.4,26.568,14.706,15.022,7.54,20.188,12.192,33.977,18.6,12.806,8.017,14.975,11.18,28.541,17.317,4.975,2.251,5.673,5.212,5.772,9.182-4.826-.359-2.309.92-3.45,1.379,8.664.476,17.736,1.651,26.459,6.628.119-.074.242-.14.362-.211V152.482h-.067a52.962,52.962,0,0,0-4.157-20.426c-13.34-2.508-26.684-5.117-39.992-7.93-4.834-1.021-10.43-2.223-14.186-4.218-9.771-5.191-19.208-10.677-27.889-16.388a314.121,314.121,0,0,1-39.885-31.3c-.317,0-.632-.007-.949-.007a198.676,198.676,0,0,0-30.033,2.261C137.168,76.285,137.477,78.808,138.785,79.247Z" fill="none"/>
    <path d="M223.053,88.231a72.357,72.357,0,0,1,7.545,3.494c12.761,6.81,25.787,13.493,38.063,20.55,5.471,3.146,10.711,6.412,16.105,9.842a81.111,81.111,0,0,0-16.14-17.92c-6.576-3.538-14.441-6.761-18.417-12.444a159.513,159.513,0,0,0-47.134-16.274,40.951,40.951,0,0,1,5.051,3.74A47.663,47.663,0,0,0,223.053,88.231Z" fill="none"/>
    <path d="M255.217,667.993c-3.016-3.325-7.294-6.75-8.539-9.979-2.036-5.283-6.789-9.832-13.7-14.242-4.266-2.723-5.537-5.447-5.225-7.263-4.353-2.791-8.443-4.916-11.232-7.327-3.426-2.961-5.748-6.163-8.578-9.257-5.709-6.243-11.383-12.466-23.156-16.851-1.587-.59-3.744-2.284-3.542-2.935,1.162-3.749-4.615-6.471-8.523-9.559-2.605-2.058-31.122-20.453-31.659-22.458,10.873-5.021,15.236-3.01,23.4-3.836-.49-3.64,9.958-.186,17.4.781,8.8,1.142,8.025-3.692,16.122-.251,4.209,1.788,7.677.484,12.206,1.035,20.484,2.493,37.136,8.42,49.283,19.544,3.477,3.183,7.838,6.2,14.172,11.148-2.351-6.5,4.03-4.8,8.84-4.454.046-.025.086-.05.133-.075l.17.1.03,0c-.241-1.588-.481-3.176-.755-4.983,3.134.551,4.75.832,6.366,1.12,1.981.353,3.919.768,5.823,1.231V567.648c-10.314-2.278-20.664-4.365-31.026-6.428-15.469-3.079-27.406-8.488-34.637-17.3-4.018-4.9-9.355-9.683-13.948-14.539-4.99-5.275-10.22-10.539-14.59-15.872-5.3-6.47-9.758-13.011-14.694-19.515-2.294-3.023-7.85-6.894-1.758-8.288,5.572-1.274,10.883,2.521,15.192,5.059,16.86,9.929,36.81,18.151,52.378,28.8,1.958,1.339,4.986,2.278,7.43,3.464,2.079,1.009,4.892,2.021,5.89,3.182,4.558,5.3,11.206,7.788,21.015,7.334a59.651,59.651,0,0,1,4.127,6.323,7.38,7.38,0,0,0,4.621,3.784V503.653c-36.984-11.513-72.7-24.52-105.516-40.767-9.146-4.528-9.263-4.745-7-10.1a40.613,40.613,0,0,1,5.178-8.972c4.243-5.531,5.515-5.456,17.94-2.223,12.871,3.349,25.636,7.194,38.951,8.7,10.047,1.133,20.2,2.694,30.32,4.255a38.916,38.916,0,0,1,7.034,2.288,49.713,49.713,0,0,1,13.1,6.966v-48.41a8.713,8.713,0,0,1-2.4-3.134c-4.589-7.559-9.065-15.12-13.671-22.679-1.1-1.809-2.2-3.6-6.747-4.162-5.662-.7-6.686-3.294-7.387-5.487-2.927-9.156,1.128-16.231,11.57-21.264,4.261-2.054,7.928-1.777,13.822,1.233,1.588.811,3.206,1.607,4.81,2.41V334.92l-1.8-.647-.674.225-1.8.6c.1,1.151.2,2.3.362,4.222-7.091-2.678-12.956-4.656-18.412-7-18.72-8.034-36.968-16.53-56.038-24.2-13.871-5.576-25.914-10.655-31.239-20.1-3.434-6.089-12.063-12.19-18.243-18.3-12.149-12.021-10.344-22.386-7.672-32.9,10.291,3.2,19.553,5.547,27.917,8.843,8.85,3.487,16.618,7.515,22.248,13.292,5.937,6.093,17.054,10.611,27.764,14.737a54.835,54.835,0,0,1,8.839,4.429c5.94,3.644,11.376,7.516,17.41,11.111,10.37,6.178,20.886,12.287,31.341,18.426v-19.3c-11.846-7.2-23.228-14.641-35.635-21.536-19.5-10.839-40.1-21.09-60.118-31.656-1.743-.92-2.705-2.3-3.953-3.4,6.171-2.486,12.082,1.474,17.822,2.425a313.609,313.609,0,0,0,64.322,3.857,136.8,136.8,0,0,0,17.562-1.874V217.253c-34.221,9.89-83.425,4.427-119.831-9.816,1.675-1.182,3.173-2.388,4.935-3.457,9.349-5.672,22.1-8.654,36.893-10.148,3.659-.37,8.377-1.376,8.986-3.055,1.572-4.338,6.727-4.831,14.466-3.78a6.634,6.634,0,0,0,2.075-.391l-3.114-4.214c2.093-.155,4.267-.8,5.543-.33,5.916,2.168,10.141,1.072,15.285,1.283l.746.029c-11.9-1.4-11.826-4.327-26.869-5.227a43.945,43.945,0,0,0-7.963.284c-16.7,2.078-33.322,4.244-49.981,6.369-4.686.6-6.744,2.365-7.2,5.071-.553,3.256-.459,6.983-10.193,5.25-1.219-.217-2.637,1.035-3.661,1.753-5.8,4.067-6.736,4.453-17.546.562-20.089-7.232-40.256-14.5-59.616-22.5q-19.017-7.857-37.068-16.472V187c14.985,11.11,29.794,22.282,43.609,33.684q27.307,22.539,50.595,46.01c5.447,5.5,6.8,10.813,8.078,16.1,1.092,4.508-.671,5.106-9.016,4.369-11.836-1.045-21.568.026-28.981,3.752-5.121,2.574-8.317,1.657-11.913-3.068-1.333-1.752-2.5-4.2-4.815-5.068-5.573-2.095-7.028-4.228-7.884-7.145-.48-1.632-3-3.566-5.15-5.211-6.52-5-13.492-9.873-19.926-14.9-5.083-3.967-10.7-7.955-14.6-12.084v23.245q4.893,4.01,9.615,8.056c21.036,18.063,37.722,36.611,48.964,55.734,2.171,3.692,6.688,7.711.728,10.22-.8.337-.609,1.672.021,2.481,7.462,9.563,2.208,18.207,9.935,27.824,1.515,1.885.987,3.953,1.234,5.913.291,2.321.4,4.617.589,6.92C98,382.2,85.742,376.912,83.346,371.283c-3.728-8.755-6.271-17.451-9.931-26.205a279.37,279.37,0,0,0-12.753-27.42c-5.183-9.424-11.8-18.861-17.733-28.293-.946-1.5-1.873-3-2.8-4.507v38.779q5.376,10.68,9.759,21.343c1.059,2.571,1.212,5.092,1.942,8.338a71.531,71.531,0,0,1-11.7-6.295v48.8c3.825,4.515,7.562,8.95,10.856,13.408a4.7,4.7,0,0,1-.333,5.608,57.261,57.261,0,0,1-10.181,11.28c-.112.089-.229.177-.342.266v29.9c6.909-2.316,12.768-5.251,14.89-10.392,10.741-1.859,11.416-8.663,18.191-12.487,2.25-1.269,3.375-3.147,5.585-5.3,11.859,6.494,21.686,12,31.767,17.353,7.239,3.845,8.519,5.221,5.389,8.836-7.494,8.658-18.814,15.245-35.9,18.411-12.061,2.235-25.677,1.4-39.921-1.225V497.1C46.3,501.15,52.3,505.388,56.762,510.43a54.257,54.257,0,0,1-16.629-2.264v21.385c7.915,3.734,15.861,7.561,23.248,11.688,15.776,8.813,29.731,18.592,45.475,27.425,14.822,8.316,25.434,17.076,30.068,27.187,1.644,3.586,2.592,7.147,4.28,10.733,7.621,16.2,9.535,31.612,6.879,46.448-2.019,11.271-9.252,20.546-23.6,27.07-8.192,3.725-17.976,6.017-30.493,5.918,20.309,8.7,44.812,13.776,71.194,13.776a199.465,199.465,0,0,0,26.714-1.783c-7.447-.787-14.932-1.692-22.391-2.522-3.5-.39-7.032-.907-11.221-1.454,4.019-6.07,7.806-11.5,11.231-17.046,3.481-5.635,6.6-11.387,9.884-17.087l2.654.589c9.363,11.3,18.887,22.585,28,33.9.058.072.1.137.156.207,5.559-1.331,10.933-2.9,16.087-4.69-15.441-18.409-31.212-36.8-41.275-55.528-2.549-4.744-4.883-9.486-7.315-14.229l2.372-.1c6.829,5.12,14.594,10.066,20.32,15.391,16.035,14.908,33.345,29.62,47.937,44.769a117.913,117.913,0,0,0,13.294-8.442,39.281,39.281,0,0,0-5.927-1.988A5.9,5.9,0,0,1,255.217,667.993Zm27.706-142.388,2.084.382q.274,1.665.547,3.33l-3.081-.513ZM216.484,189.234a7.911,7.911,0,0,1,2.014.3c-.049.482-.1.965-.146,1.432l-2.559-.414C216,190.1,216.024,189.562,216.484,189.234Zm-5.956-4.19-6.241,5.052-6.591-3.473-10.244,1.622C192.244,183.937,199.518,182.526,210.528,185.044ZM134.74,236.791c-.034.184-.389.3-1.206.879-7.38-.588-12.7-1.867-15.676-6.749s-8.05-9.6-15.85-13.707a33.989,33.989,0,0,1-8.984-6.758c-1.714-1.875-1.56-3.976-2.793-7.625,7.194,3.018,11.608,4.715,15.721,6.639,3.912,1.83,7.253,4.138,11.287,5.818C143.145,226.077,136.586,226.873,134.74,236.791Zm32.979,214.436-11.706-6.607C164.881,445.139,165.04,445.233,167.719,451.227Zm-.24-18.5-5.84,8.942C156.806,433.641,158.127,431.763,167.479,432.731Zm28.369,90.508a51.67,51.67,0,0,1,5.937,5.873c4.812,5.065,9.651,10.127,14.26,15.217,1.247,1.377,1.711,2.846,3.227,5.47-17.512-4.857-33.031-9.165-48.553-13.467-10.815-3-11.494-3.464-10.883-9.047,1.079-9.871,2.038-19.773,3.7-29.52.791-4.65,2.441-9.18,9.335-12.348.55,2.691,1.2,5.4,1.614,8.069.233,1.5-.859,3.025.261,4.406C181.6,506.351,185.325,515.094,195.848,523.239Zm15.663-110.464c-.8-5.745,4.923-7.882,11.389-10.338,9.283,5.671,16.531,11.015,17.791,19.174Zm53.4-7.328c3.991,4.992,4.809,10.232,7.047,15.361l-2.419.195c-10.6-10.416-21.451-20.795-31.657-31.268-3.62-3.715.05-5.482,5.292-6.7C250.79,390.763,258.97,398.018,264.908,405.447ZM232.259,328.4c8.8,3.738,18.62,6.812,24.387,12.653,3.688,3.734,2.242,6.559-3.433,7.9-5.6,1.324-9.765.107-12.646-3.682-2.548-3.351-5.236-6.7-7.628-10.054-1.382-1.94-2.3-3.9-3.427-5.853Zm-5.16-8.018a12.009,12.009,0,0,1,1.661,2.033l-5.73-2.345C225.681,320.26,226.9,320.212,227.1,320.385Zm-40.992-4.6c11.136,12.163,22.113,24.346,33.341,36.5,5.381,5.824,10.2,11.581,9.377,17.3l3.88,2.947a6.49,6.49,0,0,1-6.884-2.015c-7.828-1.529-9.706-5.356-12.339-8.537-12.212-14.758-22.946-29.59-30.547-44.525a28.669,28.669,0,0,1-1.437-4.174C184.1,314.167,185.338,314.949,186.107,315.788Zm-62.052-5.347c.916-3.137,3.321-5.6,9.42-6.222,3.605-.368,7.07-.9,10.412-1.329,8.815,3.683,8.619,3.692,11.274,7.434,3.644,5.136,7.656,10.256,11.425,15.387a6.758,6.758,0,0,1,1.215,2.636c2.451,12.4,13.071,24.695,22.612,37.017,7.085,9.148,20.022,18.566,12.338,27.133,1.776,7.234-14.064,6.024-16.069,11.456a2.242,2.242,0,0,1-1.133-.023c-7.871-2.323-17.5-3.836-23.162-7.21-7.53-4.485-11.8-10.235-13.739-16.094a175.009,175.009,0,0,0-12.9-29.6c-3.3-5.991-8.3-11.917-10.6-18.051A34.518,34.518,0,0,1,124.055,310.441ZM90.641,409.907a11.7,11.7,0,0,1-3.575-7.785c.049-4.034,4.667-4.262,11.606-.958,5.271,2.511,10.524,5.04,15.656,7.645,11.273,5.721,16.707,14.683,12.222,20.778C116.542,425.934,95.064,414.511,90.641,409.907Zm41.32,136-1.781-.794a9.252,9.252,0,0,1,1.116-.644c.038-.017.867.327.882.441A2.619,2.619,0,0,1,131.961,545.909Zm-7.133-17.893c-8.549-2.919-16.773-5.634-24.855-8.534-3-1.077-6.381-2.39-8.369-3.933-7.255-5.63-14.028-11.395-20.915-17.125-2.9-2.413-1.992-4.077,1.555-4.7,3.364-.6,7.177-.78,10.872-1.043,3.31-.237,7.046-.03,10.046-.544,20.271-3.479,36.949-9.19,45.281-20.049,1.148-1.5,2.271-3.433,7.2-2.363.673.448,1.832.988,1.757,1.2-1.847,5.291,7.011,12.752-1.779,16.672a1.615,1.615,0,0,0-.328,2.4c5.8,8.039,4.558,14.463-4.007,18.907C151.184,519.232,145.555,525.278,124.828,528.016Z" fill="none"/>
    <path d="M63.244,661.611c4.451-1.621,10.623-1.889,8.064-6.178-3.322-5.569-6.5-11.144-9.378-16.709-2.2-4.252-3.848-8.494-5.707-12.739s-3.7-8.483-5.5-12.721c-1.018-2.4-1.783-4.8-2.922-7.2-1.58-3.338-1.669-7.916-5.5-9.761-.816-.393-1.529-.779-2.17-1.161V619.8c0,.78.029,1.557.068,2.332.826,1.975,1.653,3.949,2.467,5.923,3.429,8.311,6.957,16.637,9.749,24.9.2.6.391,1.2.573,1.8a94.218,94.218,0,0,0,24.439,21.588c.009-.126,0-.248.022-.377C78.191,670.189,72.959,666.167,63.244,661.611Z" fill="none"/>
    <path d="M63.924,120.623c6.567,0,13.062-.145,19.713.023,13.64.345,13.675.414,18.895,3.17-2.573-.164-4.519-.332-6.415-.4-1.787-.061-3.522-.013-5.28-.013a19.353,19.353,0,0,0,6.837,2.817c10,2.189,12.768,1.189,13.961-4.133.252-1.122,2.6-2.336,4.667-2.344,6.213-.024,4.737-5.8,10.523-3.121-.116,4.482,2.748,4.189,1.584,9.351,2.927-7.308,2.614-8.278,4.777-10.73-1.579-2.734.411-.193-1.38-3.3,1.037.366,1.654-.191,2.082-1.214l-18.535.556c-2.218,2.174-3.461,3.393-5.115,5.013-6.352-3.628-11.765-7.427-17.824-6.291-8.414,1.577-17.929.956-27.255.875-2.229-.019-4.459-.025-6.7-.026a76.52,76.52,0,0,0-7.98,9.759Z" fill="none"/>
    <path d="M222.9,402.437c-6.466,2.456-12.187,4.593-11.389,10.338l29.18,8.836C239.431,413.452,232.183,408.108,222.9,402.437Z" fill="#0071ce"/>
    <path d="M243.171,383.035c-5.242,1.218-8.912,2.985-5.292,6.7,10.206,10.473,21.059,20.852,31.657,31.268l2.419-.195c-2.238-5.129-3.056-10.369-7.047-15.361C258.97,398.018,250.79,390.763,243.171,383.035Z" fill="#0071ce"/>
    <path d="M174.482,493.486c-.416-2.674-1.064-5.378-1.614-8.069-6.894,3.168-8.544,7.7-9.335,12.348-1.659,9.747-2.618,19.649-3.7,29.52-.611,5.583.068,6.049,10.883,9.047,15.522,4.3,31.041,8.61,48.553,13.467-1.516-2.624-1.98-4.093-3.227-5.47-4.609-5.09-9.448-10.152-14.26-15.217a51.67,51.67,0,0,0-5.937-5.873c-10.523-8.145-14.246-16.888-21.105-25.347C173.623,496.511,174.715,494.985,174.482,493.486Z" fill="#0071ce"/>
    <path d="M161.639,441.673l5.84-8.942C158.127,431.763,156.806,433.641,161.639,441.673Z" fill="#0071ce"/>
    <path d="M135.753,351.024a175.009,175.009,0,0,1,12.9,29.6c1.937,5.859,6.209,11.609,13.739,16.094,5.663,3.374,15.291,4.887,23.162,7.21a2.242,2.242,0,0,0,1.133.023c2.005-5.432,17.845-4.222,16.069-11.456,7.684-8.567-5.253-17.985-12.338-27.133-9.541-12.322-20.161-24.616-22.612-37.017a6.758,6.758,0,0,0-1.215-2.636c-3.769-5.131-7.781-10.251-11.425-15.387-2.655-3.742-2.459-3.751-11.274-7.434-3.342.432-6.807.961-10.412,1.329-6.1.622-8.5,3.085-9.42,6.222a34.518,34.518,0,0,0,1.1,22.532C127.456,339.107,132.452,345.033,135.753,351.024Z" fill="#0071ce"/>
    <path d="M213.482,361.983c2.633,3.181,4.511,7.008,12.339,8.537a6.49,6.49,0,0,0,6.884,2.015l-3.88-2.947c.824-5.722-4-11.479-9.377-17.3-11.228-12.151-22.205-24.334-33.341-36.5-.769-.839-2-1.621-4.609-2.5a28.669,28.669,0,0,0,1.437,4.174C190.536,332.393,201.27,347.225,213.482,361.983Z" fill="#0071ce"/>
    <path d="M227.1,320.385c-.2-.173-1.418-.125-4.069-.312l5.73,2.345A12.009,12.009,0,0,0,227.1,320.385Z" fill="#0071ce"/>
    <path d="M240.567,345.274c2.881,3.789,7.048,5.006,12.646,3.682,5.675-1.341,7.121-4.166,3.433-7.9-5.767-5.841-15.588-8.915-24.387-12.653l-2.747.964c1.127,1.952,2.045,3.913,3.427,5.853C235.331,338.578,238.019,341.923,240.567,345.274Z" fill="#0071ce"/>
    <path d="M126.485,680.1c14.346-6.524,21.579-15.8,23.6-27.07,2.656-14.836.742-30.249-6.879-46.448-1.688-3.586-2.636-7.147-4.28-10.733-4.634-10.111-15.246-18.871-30.068-27.187-15.744-8.833-29.7-18.612-45.475-27.425-7.387-4.127-15.333-7.954-23.248-11.688v65.588c.641.382,1.354.768,2.17,1.161,3.833,1.845,3.922,6.423,5.5,9.761,1.139,2.407,1.9,4.8,2.922,7.2q2.694,6.357,5.5,12.721c1.859,4.245,3.509,8.487,5.707,12.739,2.876,5.565,6.056,11.14,9.378,16.709,2.559,4.289-3.613,4.557-8.064,6.178,9.715,4.556,14.947,8.578,14.207,14.351-.017.129-.013.251-.022.377a132.749,132.749,0,0,0,18.563,9.681C108.509,686.119,118.293,683.827,126.485,680.1Z" fill="#0071ce"/>
    <path d="M167.719,451.227c-2.679-5.994-2.838-6.088-11.706-6.607Z" fill="#0071ce"/>
    <path d="M202.4,635.453c-5.726-5.325-13.491-10.271-20.32-15.391l-2.372.1c2.432,4.743,4.766,9.485,7.315,14.229,10.063,18.729,25.834,37.119,41.275,55.528a145.047,145.047,0,0,0,22.039-9.692C235.746,665.073,218.436,650.361,202.4,635.453Z" fill="#0071ce"/>
    <path d="M184.057,660.493,181.4,659.9c-3.28,5.7-6.4,11.452-9.884,17.087-3.425,5.547-7.212,10.976-11.231,17.046,4.189.547,7.719,1.064,11.221,1.454,7.459.83,14.944,1.735,22.391,2.522a185.026,185.026,0,0,0,18.312-3.409c-.055-.07-.1-.135-.156-.207C202.944,683.078,193.42,671.792,184.057,660.493Z" fill="#0071ce"/>
    <path d="M114.328,408.809c-5.132-2.605-10.385-5.134-15.656-7.645-6.939-3.3-11.557-3.076-11.606.958a11.7,11.7,0,0,0,3.575,7.785c4.423,4.6,25.9,16.027,35.909,19.68C131.035,423.492,125.6,414.53,114.328,408.809Z" fill="#0071ce"/>
    <path d="M204.287,190.1l6.241-5.052c-11.01-2.518-18.284-1.107-23.076,3.2l10.244-1.622Z" fill="#0071ce"/>
    <path d="M285.007,525.987l-2.084-.382-.45,3.2,3.081.513Q285.281,527.652,285.007,525.987Z" fill="#0071ce"/>
    <path d="M117.239,215.288c-4.034-1.68-7.375-3.988-11.287-5.818-4.113-1.924-8.527-3.621-15.721-6.639,1.233,3.649,1.079,5.75,2.793,7.625a33.989,33.989,0,0,0,8.984,6.758c7.8,4.111,12.87,8.827,15.85,13.707s8.3,6.161,15.676,6.749c.817-.582,1.172-.695,1.206-.879C136.586,226.873,143.145,226.077,117.239,215.288Z" fill="#0071ce"/>
    <path d="M218.5,189.532a7.911,7.911,0,0,0-2.014-.3c-.46.328-.489.864-.691,1.316l2.559.414C218.4,190.5,218.449,190.014,218.5,189.532Z" fill="#0071ce"/>
    <path d="M270.879,182.3c-.1-3.97-.8-6.931-5.772-9.182-13.566-6.137-15.735-9.3-28.541-17.317-13.789-6.413-18.955-11.065-33.977-18.6-8.255-3.3-18.483-11.9-26.568-14.706-9.247-6.185-25.815-15.161-33.315-19.731-6.7-5.183-7.276.694-8.1,5.177a21.232,21.232,0,0,1,1.556,2.729l-2.276.069c-.428,1.023-1.045,1.58-2.082,1.214,1.791,3.1-.2.562,1.38,3.3-2.163,2.452-1.85,3.422-4.777,10.73,1.164-5.162-1.7-4.869-1.584-9.351-5.786-2.674-4.31,3.1-10.523,3.121-2.067.008-4.415,1.222-4.667,2.344-1.193,5.322-3.958,6.322-13.961,4.133a19.353,19.353,0,0,1-6.837-2.817c1.758,0,3.493-.048,5.28.013,1.9.064,3.842.232,6.415.4-5.22-2.756-5.255-2.825-18.895-3.17-6.651-.168-13.146-.024-19.713-.023H50.477a56.548,56.548,0,0,0-10.344,29.361v8.477q18.023,8.628,37.068,16.472c19.36,8,39.527,15.271,59.616,22.5,10.81,3.891,11.743,3.5,17.546-.562,1.024-.718,2.442-1.97,3.661-1.753,9.734,1.733,9.64-1.994,10.193-5.25.46-2.706,2.518-4.473,7.2-5.071,16.659-2.125,33.28-4.291,49.981-6.369a43.945,43.945,0,0,1,7.963-.284c15.043.9,14.972,3.83,26.869,5.227,2.355.092,4.758.174,7.195.308C268.57,183.223,266.053,181.944,270.879,182.3Z" fill="#0071ce"/>
    <path d="M245.5,278.125a54.835,54.835,0,0,0-8.839-4.429c-10.71-4.126-21.827-8.644-27.764-14.737-5.63-5.777-13.4-9.805-22.248-13.292-8.364-3.3-17.626-5.638-27.917-8.843-2.672,10.515-4.477,20.88,7.672,32.9,6.18,6.115,14.809,12.216,18.243,18.3,5.325,9.443,17.368,14.522,31.239,20.1,19.07,7.666,37.318,16.162,56.038,24.2,5.456,2.341,11.321,4.319,18.412,7-.165-1.92-.263-3.071-.362-4.222l-.009,0q-1.976-.672-3.932-1.349l2.149-1.534,4.269,2.054-.674.225.674-.225,1.8.647V307.662c-10.455-6.139-20.971-12.248-31.341-18.426C256.875,285.641,251.439,281.769,245.5,278.125Z" fill="#0071ce"/>
    <path d="M212.366,234.186c-5.74-.951-11.651-4.911-17.822-2.425,1.248,1.1,2.21,2.484,3.953,3.4,20.019,10.566,40.614,20.817,60.118,31.656,12.407,6.895,23.789,14.334,35.635,21.536V236.169a136.8,136.8,0,0,1-17.562,1.874A313.609,313.609,0,0,1,212.366,234.186Z" fill="#0071ce"/>
    <path d="M136.164,110.668a21.232,21.232,0,0,0-1.556-2.729,14.436,14.436,0,0,1-.72,2.8Z" fill="#0071ce"/>
    <path d="M274.12,454.54c-10.12-1.561-20.273-3.122-30.32-4.255-13.315-1.5-26.08-5.346-38.951-8.7-12.425-3.233-13.7-3.308-17.94,2.223a40.613,40.613,0,0,0-5.178,8.972c-2.26,5.356-2.143,5.573,7,10.1,32.816,16.247,68.532,29.254,105.516,40.767V463.794a49.713,49.713,0,0,0-13.1-6.966A38.916,38.916,0,0,0,274.12,454.54Z" fill="#0071ce"/>
    <path d="M275.618,358.658c-10.442,5.033-14.5,12.108-11.57,21.264.7,2.193,1.725,4.789,7.387,5.487,4.545.561,5.645,2.353,6.747,4.162,4.606,7.559,9.082,15.12,13.671,22.679a8.713,8.713,0,0,0,2.4,3.134V362.3c-1.6-.8-3.222-1.6-4.81-2.41C283.546,356.881,279.879,356.6,275.618,358.658Z" fill="#0071ce"/>
    <path d="M131.3,544.471a9.252,9.252,0,0,0-1.116.644l1.781.794a2.619,2.619,0,0,0,.217-1C132.163,544.8,131.334,544.454,131.3,544.471Z" fill="#0071ce"/>
    <path d="M92.414,110.015c6.059-1.136,11.472,2.663,17.824,6.291,1.654-1.62,2.9-2.839,5.115-5.013l18.535-.556a14.436,14.436,0,0,0,.72-2.8c-3.846-5.64-10.784-8.5-32.805-14.835,1.726-.521,4.535-.784,4.485-1.489-.079-1.107-1.641-2.718-3.362-3.751q-2.347-1.41-4.742-2.814c-16.126,6.594-29.74,15.43-39.727,25.814,2.243,0,4.473.007,6.7.026C74.485,110.971,84,111.592,92.414,110.015Z" fill="#0071ce"/>
    <path d="M267.429,183.682a6.559,6.559,0,0,1-2.483.115c-1.768-.116-3.318-.26-4.712-.423l-.746-.029c-5.144-.211-9.369.885-15.285-1.283-1.276-.468-3.45.175-5.543.33l3.114,4.214A6.634,6.634,0,0,1,239.7,187c-7.739-1.051-12.894-.558-14.466,3.78-.609,1.679-5.327,2.685-8.986,3.055-14.793,1.494-27.544,4.476-36.893,10.148-1.762,1.069-3.26,2.275-4.935,3.457,36.406,14.243,85.61,19.706,119.831,9.816V190.1c-.12.071-.243.137-.362.211C285.165,185.333,276.093,184.158,267.429,183.682Z" fill="#0071ce"/>
    <path d="M267.429,183.682c-2.437-.134-4.84-.216-7.195-.308,1.394.163,2.944.307,4.712.423A6.559,6.559,0,0,0,267.429,183.682Z" fill="#0071ce"/>
    <path d="M56.762,510.43C52.3,505.388,46.3,501.15,40.133,497.1v11.063A54.257,54.257,0,0,0,56.762,510.43Z" fill="#0071ce"/>
    <path d="M289.629,539.862a59.651,59.651,0,0,0-4.127-6.323c-9.809.454-16.457-2.033-21.015-7.334-1-1.161-3.811-2.173-5.89-3.182-2.444-1.186-5.472-2.125-7.43-3.464-15.568-10.646-35.518-18.868-52.378-28.8-4.309-2.538-9.62-6.333-15.192-5.059-6.092,1.394-.536,5.265,1.758,8.288,4.936,6.5,9.392,13.045,14.694,19.515,4.37,5.333,9.6,10.6,14.59,15.872,4.593,4.856,9.93,9.639,13.948,14.539,7.231,8.815,19.168,14.224,34.637,17.3,10.362,2.063,20.712,4.15,31.026,6.428v-24A7.38,7.38,0,0,1,289.629,539.862Z" fill="#0071ce"/>
    <path d="M294.244,619.529h.006v-2.734a24.118,24.118,0,0,1-3.994-3.6c-2.428-2.412-3.882-5.069-6.864-7.284-8.019-5.958-7.5-10.314-.909-13.823-4.81-.346-11.191-2.041-8.84,4.454-6.334-4.951-10.695-7.965-14.172-11.148-12.147-11.124-28.8-17.051-49.283-19.544-4.529-.551-8,.753-12.206-1.035-8.1-3.441-7.325,1.393-16.122.251-7.437-.967-17.885-4.421-17.4-.781-8.165.826-12.528-1.185-23.4,3.836.537,2,29.054,20.4,31.659,22.458,3.908,3.088,9.685,5.81,8.523,9.559-.2.651,1.955,2.345,3.542,2.935,11.773,4.385,17.447,10.608,23.156,16.851,2.83,3.094,5.152,6.3,8.578,9.257,2.789,2.411,6.879,4.536,11.232,7.327-.312,1.816.959,4.54,5.225,7.263,6.91,4.41,11.663,8.959,13.7,14.242,1.245,3.229,5.523,6.654,8.539,9.979a5.9,5.9,0,0,0,2.488,1.8,39.281,39.281,0,0,1,5.927,1.988C282.711,657.739,294.244,639.485,294.244,619.529Z" fill="#0071ce"/>
    <path d="M141.289,508.9c8.565-4.444,9.808-10.868,4.007-18.907a1.615,1.615,0,0,1,.328-2.4c8.79-3.92-.068-11.381,1.779-16.672.075-.215-1.084-.755-1.757-1.2-4.932-1.07-6.055.867-7.2,2.363-8.332,10.859-25.01,16.57-45.281,20.049-3,.514-6.736.307-10.046.544-3.695.263-7.508.448-10.872,1.043-3.547.627-4.455,2.291-1.555,4.7,6.887,5.73,13.66,11.5,20.915,17.125,1.988,1.543,5.366,2.856,8.369,3.933,8.082,2.9,16.306,5.615,24.855,8.534C145.555,525.278,151.184,519.232,141.289,508.9Z" fill="#0071ce"/>
    <path d="M282.061,587.132c.274,1.807.514,3.4.755,4.983l-.03,0c3.74,2.207,7.847,4.314,11.464,6.555v-9.184c-1.9-.463-3.842-.878-5.823-1.231C286.811,587.964,285.2,587.683,282.061,587.132Z" fill="#0071ce"/>
    <path d="M282.616,592.014c-.047.025-.087.05-.133.075.1.007.2.017.3.023Z" fill="#0071ce"/>
    <path d="M42.668,628.052c-.814-1.974-1.641-3.948-2.467-5.923.589,11.675,5.122,22.72,12.789,32.622-.182-.6-.37-1.2-.573-1.8C49.625,644.689,46.1,636.363,42.668,628.052Z" fill="#0071ce"/>
    <path d="M169,107.671c4.749,2.1,9.343,4.328,14.134,6.386,6.835,2.935,8.925,2.968,16.32.287-14.252-4.612-21.2-12.052-30.072-18.757-2.15-1.625-4.5-3.675-7.292-4.541-9.417-2.916-14.1-8.705-23.308-11.8-1.308-.439-1.617-2.962-1.693-4.771a180.117,180.117,0,0,0-23.367,5.157C131.345,89.45,149.444,99.034,169,107.671Z" fill="#0071ce"/>
    <path d="M235.848,119.908c3.756,2,9.352,3.2,14.186,4.218,13.308,2.813,26.652,5.422,39.992,7.93a62.206,62.206,0,0,0-5.26-9.939c-5.394-3.43-10.634-6.7-16.105-9.842-12.276-7.057-25.3-13.74-38.063-20.55a72.357,72.357,0,0,0-7.545-3.494,47.663,47.663,0,0,1-14.927-9.012,40.951,40.951,0,0,0-5.051-3.74,196.616,196.616,0,0,0-35-3.257,314.121,314.121,0,0,0,39.885,31.3C216.64,109.231,226.077,114.717,235.848,119.908Z" fill="#0071ce"/>
    <path d="M268.626,104.2a113.239,113.239,0,0,0-18.417-12.444C254.185,97.436,262.05,100.659,268.626,104.2Z" fill="#0071ce"/>
    <path d="M54.73,255.528c6.434,5.022,13.406,9.9,19.926,14.9,2.145,1.645,4.67,3.579,5.15,5.211.856,2.917,2.311,5.05,7.884,7.145,2.316.871,3.482,3.316,4.815,5.068,3.6,4.725,6.792,5.642,11.913,3.068,7.413-3.726,17.145-4.8,28.981-3.752,8.345.737,10.108.139,9.016-4.369-1.282-5.289-2.631-10.607-8.078-16.1q-23.212-23.421-50.595-46.01C69.927,209.28,55.118,198.108,40.133,187v56.446C44.028,247.573,49.647,251.561,54.73,255.528Z" fill="#0071ce"/>
    <path d="M49.892,344.98q-4.4-10.664-9.759-21.343v23.386a71.531,71.531,0,0,0,11.7,6.295C51.1,350.072,50.951,347.551,49.892,344.98Z" fill="#0071ce"/>
    <path d="M50.656,414.842a4.7,4.7,0,0,0,.333-5.608c-3.294-4.458-7.031-8.893-10.856-13.408v30.562c.113-.089.23-.177.342-.266A57.261,57.261,0,0,0,50.656,414.842Z" fill="#0071ce"/>
    <path d="M80.054,472.7c17.087-3.166,28.407-9.753,35.9-18.411,3.13-3.615,1.85-4.991-5.389-8.836C100.485,440.1,90.658,434.6,78.8,428.1c-2.21,2.157-3.335,4.035-5.585,5.3-6.775,3.824-7.45,10.628-18.191,12.487-2.122,5.141-7.981,8.076-14.89,10.392v15.192C54.377,474.1,67.993,474.938,80.054,472.7Z" fill="#0071ce"/>
    <path d="M60.662,317.658a279.37,279.37,0,0,1,12.753,27.42c3.66,8.754,6.2,17.45,9.931,26.205,2.4,5.629,14.656,10.912,27.873,12.554-.188-2.3-.3-4.6-.589-6.92-.247-1.96.281-4.028-1.234-5.913-7.727-9.617-2.473-18.261-9.935-27.824-.63-.809-.822-2.144-.021-2.481,5.96-2.509,1.443-6.528-.728-10.22-11.242-19.123-27.928-37.671-48.964-55.734q-4.713-4.048-9.615-8.056v18.169c.923,1.5,1.85,3,2.8,4.507C48.866,298.8,55.479,308.234,60.662,317.658Z" fill="#0071ce"/>
    <path d="M289.973,335.1l1.8-.6-1.8.6Z" fill="#0071ce"/>
    <path d="M288.181,332.219l-2.149,1.534q1.961.677,3.932,1.349l.009,0h0l1.8-.6.674-.225Z" fill="#0071ce"/>
    <path d="M61.975,39.24l.1.013c.005-.016.015-.033.02-.049l-.192-.037C61.929,39.192,61.953,39.216,61.975,39.24Z" fill="#131520"/>
    <path d="M82.334,40.891l-.006,0,1.347,1.048Z" fill="#131520"/>
  </g>
  <g>
    <g>
      <polyline points="135.277 125.812 205.47 166.646 216.967 146.732 147.087 106.435 135.277 125.812" fill="#005a8d" opacity="0.57"/>
      <polygon points="284.232 183.679 282.282 186.44 280.62 188.593 278.577 191.036 276.496 193.334 274.556 195.329 272.439 197.368 281.615 182.162 94.267 73.581 99.696 72.996 286.151 180.646 284.232 183.679" opacity="0.29"/>
      <polyline points="223.209 146.616 148.784 103.649 147.087 106.435 216.967 146.732 223.209 146.616" fill="#2389ca"/>
      <ellipse cx="167.192" cy="152.386" rx="127.058" ry="80.268" fill="#fff" opacity="0.35"/>
      <g>
        <path d="M71.432,332.962c2.134-.589,3.215-2.6,3.215-6.018,0-4.937-2.249-12.121-12.963-18.307l-13.83-7.984v39.314l15.013,8.667c11.815,6.822,13.58.865,13.58-3.294a19.513,19.513,0,0,0-5.015-12.378M56.594,313.449l4.628,2.672c3.005,1.735,4.529,3.858,4.529,6.308,0,2.081-.587,3.87-4.941,1.356l-4.216-2.434Zm6.119,27.4-6.119-3.533V328.74l5.5,3.176c3.62,2.09,5.456,4.671,5.456,7.669,0,1,0,4.054-4.839,1.261" fill="#fff"/>
        <polygon points="169.543 370.909 169.543 378.815 179.163 384.37 179.163 415.778 187.852 420.795 187.852 389.386 197.472 394.94 197.472 387.034 169.543 370.909" fill="#fff"/>
        <polygon points="101.361 339.243 101.361 331.545 79.03 318.652 79.03 326.35 85.82 330.27 85.82 354.188 79.03 350.268 79.03 357.966 101.361 370.859 101.361 363.161 94.571 359.24 94.571 335.322 101.361 339.243" fill="#fff"/>
        <polygon points="166.131 376.638 166.131 368.94 143.801 356.047 143.801 363.745 150.59 367.665 150.59 391.583 143.801 387.663 143.801 395.362 166.131 408.254 166.131 400.556 159.341 396.635 159.341 372.717 166.131 376.638" fill="#fff"/>
        <path d="M139.223,353.4l-9.894-5.712-6.126,7.621a7.77,7.77,0,0,0-.6.852q-.246-.719-.551-1.511l-6.082-14.676-10.13-5.849,11.575,26.34-11.575,12.975,10.13,5.849,6.082-7.653q.306-.44.551-.875c.2.552.4,1.069.6,1.547l6.126,14.695,9.894,5.712L127.6,366.35Z" fill="#fff"/>
        <path d="M191.745,419.225V419.2c0-2.084,1.268-3.108,2.864-2.186a6.835,6.835,0,0,1,2.863,5.471v.021c0,2.085-1.267,3.109-2.863,2.188a6.835,6.835,0,0,1-2.864-5.471m5.4,3.093V422.3a6.022,6.022,0,0,0-2.534-4.864c-1.432-.827-2.534.1-2.534,1.959v.023a6.024,6.024,0,0,0,2.534,4.864c1.431.826,2.534-.095,2.534-1.961m-3.653-4.127,1.316.76a2.189,2.189,0,0,1,1.119,1.875c0,.636-.28.87-.675.795l.774,1.917-.675-.39-.691-1.737-.609-.352V422.4l-.559-.324Zm1.267,2.663c.378.218.592.078.592-.295a1.1,1.1,0,0,0-.592-.978l-.708-.408v1.272Z" fill="#fff"/>
      </g>
      <g>
        <path d="M51.988,381.7v-2.6l1.7.979V364.305l-1.7-.978v-2.586l6.437,3.716a14.465,14.465,0,0,1,3.856,3.1,13.766,13.766,0,0,1,2.313,3.409,17.947,17.947,0,0,1,1.4,4.03,19.213,19.213,0,0,1,.459,4.115,15.228,15.228,0,0,1-.24,2.774,9.538,9.538,0,0,1-.719,2.32,4.913,4.913,0,0,1-1.194,1.647,3.068,3.068,0,0,1-1.619.771q-1.609.32-4.294-1.23Zm4.038-.268,2.92,1.686a3.893,3.893,0,0,0,2.057.619,2.263,2.263,0,0,0,1.609-.67,4.3,4.3,0,0,0,1.034-1.911,10.74,10.74,0,0,0,.362-2.959,16.2,16.2,0,0,0-.634-4.557,12.44,12.44,0,0,0-1.833-3.828,9.005,9.005,0,0,0-2.786-2.576l-2.729-1.574Z" fill="#fff"/>
        <path d="M78.845,393.538a5.178,5.178,0,0,1-1.471,1.515,2.356,2.356,0,0,1-1.625.328,6.1,6.1,0,0,1-2.051-.809,9.909,9.909,0,0,1-2.34-1.883,11.913,11.913,0,0,1-1.794-2.563,13.508,13.508,0,0,1-1.151-3.08,14.5,14.5,0,0,1-.394-3.4A8.159,8.159,0,0,1,68.711,380a2.785,2.785,0,0,1,1.938-1.63,4.129,4.129,0,0,1,2.856.675,8.765,8.765,0,0,1,2.169,1.793,11.672,11.672,0,0,1,1.688,2.5,13.777,13.777,0,0,1,1.1,3.006,13.925,13.925,0,0,1,.385,3.262v.966L70.31,385.64a9.283,9.283,0,0,0,1.065,3.827,6.212,6.212,0,0,0,2.365,2.544,2.911,2.911,0,0,0,1.849.5,2.82,2.82,0,0,0,1.582-1.046Zm-8.492-10.132,6.36,3.673a8.374,8.374,0,0,0-1.63-4.337,5.449,5.449,0,0,0-1.492-1.288,2.177,2.177,0,0,0-2.035-.336Q70.661,381.553,70.353,383.406Z" fill="#fff"/>
        <path d="M80.213,395.464l1.523.879v-9.688l-1.523-.88v-2.544L83.8,385.3v1.778a3.15,3.15,0,0,1,3.41-.035q2.855,1.648,2.855,6.507v7.6l1.481.855v2.529l-3.612-2.085v-9.69q0-2.47-1.331-3.241a2.509,2.509,0,0,0-2.772.176v7.857l1.716.991v2.529l-5.338-3.082Z" fill="#fff"/>
        <path d="M108.41,400.193a13.788,13.788,0,0,1,1.972,3.894,14.035,14.035,0,0,1,.708,4.373,7.562,7.562,0,0,1-.7,3.5,2.81,2.81,0,0,1-1.955,1.584,4.065,4.065,0,0,1-2.845-.663,9.167,9.167,0,0,1-2.243-1.855,12.48,12.48,0,0,1-1.785-2.607,14.433,14.433,0,0,1-1.162-3.094,13.54,13.54,0,0,1-.405-3.274,7.405,7.405,0,0,1,.731-3.543,2.9,2.9,0,0,1,2.013-1.592,4.112,4.112,0,0,1,2.851.65A9.3,9.3,0,0,1,108.41,400.193Zm-4.7-.419a2.05,2.05,0,0,0-1.161,1.235,6.023,6.023,0,0,0-.389,2.3,10,10,0,0,0,.389,2.69,8.87,8.87,0,0,0,1.156,2.55,5.546,5.546,0,0,0,1.844,1.774,2.173,2.173,0,0,0,1.821.335,1.992,1.992,0,0,0,1.152-1.212,5.919,5.919,0,0,0,.382-2.243,10.432,10.432,0,0,0-.382-2.751,8.966,8.966,0,0,0-1.152-2.567,5.468,5.468,0,0,0-1.821-1.777A2.174,2.174,0,0,0,103.711,399.774Z" fill="#fff"/>
        <path d="M112.447,416.6v-2.529l1.556.9v-9.688l-1.556-.9v-2.544l3.474,2v2.714a2.022,2.022,0,0,1,1.449-1.521,3.234,3.234,0,0,1,2.248.531c.2.114.412.251.641.411v3.083a5.409,5.409,0,0,0-.939-.712,1.78,1.78,0,0,0-2.312.072,4.014,4.014,0,0,0-.916,2.98v4.773l2.184,1.261v2.53Z" fill="#fff"/>
        <path d="M121.306,419.188l1.556.9V410.4l-1.556-.9v-2.545l3.687,2.129v12.232l1.534.886v2.529l-5.221-3.014ZM125,402.8a3.716,3.716,0,0,1,.352,1.552,1.5,1.5,0,0,1-.352,1.119c-.228.228-.558.218-.991-.033a2.421,2.421,0,0,1-.981-1.12,3.687,3.687,0,0,1-.351-1.538,1.532,1.532,0,0,1,.357-1.115q.357-.361.975-.006A2.436,2.436,0,0,1,125,402.8Z" fill="#fff"/>
        <path d="M136.676,428.7a2.249,2.249,0,0,1-1.582.8,3.96,3.96,0,0,1-2.041-.646,8.632,8.632,0,0,1-2.7-2.537,12.873,12.873,0,0,1-1.827-3.74,14.463,14.463,0,0,1-.656-4.314,8.487,8.487,0,0,1,.666-3.636,2.8,2.8,0,0,1,1.881-1.677,3.8,3.8,0,0,1,2.76.606,8.174,8.174,0,0,1,3.495,4.078V415.83l3.644,2.1v2.6l-1.609-.929-.011,9.854q0,1.8-.08,2.895a7.846,7.846,0,0,1-.293,1.762,3.124,3.124,0,0,1-.629,1.144,2.515,2.515,0,0,1-1.97.921,4.991,4.991,0,0,1-2.483-.764,11.7,11.7,0,0,1-2.5-2,17.533,17.533,0,0,1-2.253-2.885l1.373-1.1a16.619,16.619,0,0,0,1.6,1.983A7.2,7.2,0,0,0,133,432.6q1.887,1.089,2.781.227a2.779,2.779,0,0,0,.672-1.36A12.614,12.614,0,0,0,136.676,428.7Zm-3.346-12.388a2.125,2.125,0,0,0-1.8-.327,1.991,1.991,0,0,0-1.129,1.232,6.112,6.112,0,0,0-.379,2.259,10.017,10.017,0,0,0,.373,2.632,8.926,8.926,0,0,0,1.125,2.5,5.275,5.275,0,0,0,1.764,1.722,2.081,2.081,0,0,0,1.789.316,2.039,2.039,0,0,0,1.13-1.217,6.067,6.067,0,0,0,.373-2.228,10.112,10.112,0,0,0-.373-2.673,8.763,8.763,0,0,0-1.108-2.493A5.264,5.264,0,0,0,133.33,416.314Z" fill="#fff"/>
        <path d="M141.646,430.931l1.556.9v-9.689l-1.556-.9V418.7l3.687,2.129V433.06l1.534.886v2.529l-5.221-3.014Zm3.7-16.39a3.715,3.715,0,0,1,.351,1.553,1.5,1.5,0,0,1-.351,1.118c-.227.228-.557.218-.99-.033a2.42,2.42,0,0,1-.981-1.12,3.687,3.687,0,0,1-.351-1.538,1.532,1.532,0,0,1,.357-1.115q.356-.361.975-.006A2.435,2.435,0,0,1,145.343,414.541Z" fill="#fff"/>
        <path d="M148.14,434.68l1.523.88v-9.688l-1.523-.88v-2.544l3.59,2.073V426.3a3.152,3.152,0,0,1,3.41-.035Q158,427.912,158,432.77v7.6l1.483.855v2.53l-3.614-2.086v-9.69q0-2.471-1.332-3.24a2.5,2.5,0,0,0-2.769.176v7.856l1.715.99v2.53l-5.338-3.082Z" fill="#fff"/>
        <path d="M164.7,446.985a7.509,7.509,0,0,1-2.653-2.775,7.807,7.807,0,0,1-1.119-4.048,3.747,3.747,0,0,1,.554-2.216,1.834,1.834,0,0,1,1.47-.807,3.535,3.535,0,0,1,1.918.539,8.044,8.044,0,0,1,2.824,2.966V438.4a4.288,4.288,0,0,0-.57-2.219,3.924,3.924,0,0,0-1.4-1.447,2.539,2.539,0,0,0-1.551-.377,1.408,1.408,0,0,0-1.135.717l-1.9-1.82a4.173,4.173,0,0,1,1.107-1.478,1.761,1.761,0,0,1,1.391-.341,5.784,5.784,0,0,1,1.955.781,9.213,9.213,0,0,1,2.392,1.915,6.8,6.8,0,0,1,1.359,2.481,11.185,11.185,0,0,1,.436,3.293v7.273l1.524.88v2.53l-3.59-2.074v-1.377A2.617,2.617,0,0,1,164.7,446.985Zm2.994-3.9a7.072,7.072,0,0,0-1.162-1.707,6.292,6.292,0,0,0-1.5-1.265,1.634,1.634,0,0,0-1.508-.253c-.394.185-.591.692-.591,1.526a3.607,3.607,0,0,0,.587,2.03,4.421,4.421,0,0,0,1.491,1.4,3.9,3.9,0,0,0,1.513.518,1.506,1.506,0,0,0,1.172-.276Z" fill="#fff"/>
        <path d="M172.5,451.272v-2.529l1.557.9v-15.9l-1.557-.9v-2.529l3.688,2.128v18.427l1.534.886v2.529Z" fill="#fff"/>
        <path d="M189.41,457.373a5.14,5.14,0,0,1-1.47,1.515,2.362,2.362,0,0,1-1.625.328,6.1,6.1,0,0,1-2.051-.809,9.864,9.864,0,0,1-2.339-1.883,11.872,11.872,0,0,1-1.8-2.563,13.546,13.546,0,0,1-1.151-3.081,14.535,14.535,0,0,1-.4-3.4,8.17,8.17,0,0,1,.692-3.648,2.788,2.788,0,0,1,1.94-1.63,4.124,4.124,0,0,1,2.855.676,8.756,8.756,0,0,1,2.169,1.791,11.707,11.707,0,0,1,1.689,2.5,13.962,13.962,0,0,1,1.481,6.268v.966l-8.535-4.928a9.328,9.328,0,0,0,1.065,3.827,6.205,6.205,0,0,0,2.366,2.543,2.893,2.893,0,0,0,1.849.5,2.805,2.805,0,0,0,1.582-1.046Zm-8.492-10.132,6.36,3.673a8.373,8.373,0,0,0-1.629-4.337,5.43,5.43,0,0,0-1.492-1.288,2.183,2.183,0,0,0-2.035-.336Q181.225,445.388,180.918,447.241Z" fill="#fff"/>
        <path d="M54.159,420.194v-2.529l1.524.879v-15.9l-1.524-.88v-2.529l3.622,2.092v7.857a3.916,3.916,0,0,1,3.57.172,5.173,5.173,0,0,1,2.227,3,5.269,5.269,0,0,1,.367,1.449q.069.708.07,1.944v7.6l1.481.856v2.529l-3.612-2.086v-9.689q0-2.47-1.289-3.216a2.64,2.64,0,0,0-2.814.151v7.857l1.716.991v2.529Z" fill="#fff"/>
        <path d="M70.264,429.705a7.53,7.53,0,0,1-2.654-2.776,7.8,7.8,0,0,1-1.119-4.047,3.75,3.75,0,0,1,.555-2.217,1.832,1.832,0,0,1,1.47-.807,3.55,3.55,0,0,1,1.919.539,8.051,8.051,0,0,1,2.822,2.967v-2.245a4.3,4.3,0,0,0-.569-2.219,3.909,3.909,0,0,0-1.4-1.448,2.541,2.541,0,0,0-1.551-.376,1.408,1.408,0,0,0-1.134.716l-1.9-1.821a4.186,4.186,0,0,1,1.109-1.476,1.758,1.758,0,0,1,1.39-.341,5.757,5.757,0,0,1,1.955.78,9.181,9.181,0,0,1,2.392,1.914,6.8,6.8,0,0,1,1.359,2.482,11.228,11.228,0,0,1,.437,3.294V429.9l1.524.879v2.529l-3.592-2.072v-1.379A2.612,2.612,0,0,1,70.264,429.705Zm2.993-3.9A7.115,7.115,0,0,0,72.1,424.1a6.351,6.351,0,0,0-1.5-1.264,1.634,1.634,0,0,0-1.508-.252q-.591.274-.591,1.526a3.6,3.6,0,0,0,.586,2.028,4.443,4.443,0,0,0,1.491,1.4,3.887,3.887,0,0,0,1.513.518,1.515,1.515,0,0,0,1.172-.275Z" fill="#fff"/>
        <path d="M76.575,418.374l4.774,2.756v2.545l-1.4-.807,2.333,10.482,2.291-7.812-1.533-.886v-2.544L87.87,424.9v2.544l-1.215-.7-3.41,10.249-2.152-1.243-3.324-14.137-1.194-.689Z" fill="#fff"/>
        <path d="M89.1,440.367v-2.529l1.554.9v-9.688l-1.554-.9v-2.544l3.472,2.006v2.714a2.023,2.023,0,0,1,1.45-1.522,3.239,3.239,0,0,1,2.249.532q.3.171.639.411v3.083a5.364,5.364,0,0,0-.937-.712,1.781,1.781,0,0,0-2.313.071,4.011,4.011,0,0,0-.917,2.981v4.773l2.185,1.261v2.529Z" fill="#fff"/>
        <path d="M108,447.612a5.159,5.159,0,0,1-1.471,1.516,2.361,2.361,0,0,1-1.625.327,6.087,6.087,0,0,1-2.05-.809,9.869,9.869,0,0,1-2.34-1.883,11.893,11.893,0,0,1-1.8-2.563,13.555,13.555,0,0,1-1.151-3.08,14.549,14.549,0,0,1-.394-3.4,8.159,8.159,0,0,1,.692-3.648,2.786,2.786,0,0,1,1.939-1.63,4.131,4.131,0,0,1,2.856.675,8.824,8.824,0,0,1,2.169,1.793,11.787,11.787,0,0,1,1.689,2.5A14,14,0,0,1,108,443.677v.965l-8.535-4.927a9.3,9.3,0,0,0,1.065,3.826,6.2,6.2,0,0,0,2.366,2.544,2.908,2.908,0,0,0,1.848.5,2.815,2.815,0,0,0,1.582-1.046ZM99.505,437.48l6.36,3.673a8.365,8.365,0,0,0-1.63-4.337,5.449,5.449,0,0,0-1.492-1.288,2.18,2.18,0,0,0-2.035-.336Q99.813,435.627,99.505,437.48Z" fill="#fff"/>
        <path d="M109.407,452.091v-2.53l1.524.881v-15.9l-1.524-.879v-2.529l3.623,2.091v13.356l3.964-2.329-1.673-.966v-2.529l5.819,3.359v2.529l-1.483-.855-3.9,2.251,3.708,7.327,1.674.965v2.529l-2.729-1.574-5.381-10.651v5.014l1.811,1.046v2.529Z" fill="#fff"/>
        <path d="M121.015,465.115v-2.657a9.354,9.354,0,0,0,.81.525q1.236.714,1.7.249a3.917,3.917,0,0,0,.464-2.424V448.292l-1.555-.9v-2.529l3.686,2.129v14.762q0,1.164-.048,1.9a6.218,6.218,0,0,1-.2,1.265,2.707,2.707,0,0,1-.49.96q-.99,1.245-3.346-.114Zm4.124-25.564a2.459,2.459,0,0,1,1,1.147,3.711,3.711,0,0,1,.351,1.552,1.548,1.548,0,0,1-.362,1.147q-.363.353-1.033-.035a2.459,2.459,0,0,1-1-1.13,3.535,3.535,0,0,1-.357-1.513,1.528,1.528,0,0,1,.383-1.156Q124.5,439.181,125.139,439.551Z" fill="#fff"/>
        <path d="M138.825,465.411a5.157,5.157,0,0,1-1.47,1.516,2.356,2.356,0,0,1-1.625.326,6.065,6.065,0,0,1-2.051-.808,9.894,9.894,0,0,1-2.34-1.883A11.967,11.967,0,0,1,129.544,462a13.514,13.514,0,0,1-1.15-3.081,14.482,14.482,0,0,1-.4-3.4,8.173,8.173,0,0,1,.692-3.648,2.784,2.784,0,0,1,1.939-1.63,4.125,4.125,0,0,1,2.856.675,8.8,8.8,0,0,1,2.169,1.792,11.756,11.756,0,0,1,1.689,2.5,13.765,13.765,0,0,1,1.1,3,13.934,13.934,0,0,1,.385,3.263v.965l-8.535-4.928a9.275,9.275,0,0,0,1.066,3.827,6.208,6.208,0,0,0,2.365,2.545,2.91,2.91,0,0,0,1.848.5,2.809,2.809,0,0,0,1.582-1.047Zm-8.492-10.132,6.361,3.673a8.383,8.383,0,0,0-1.63-4.337,5.419,5.419,0,0,0-1.493-1.288,2.177,2.177,0,0,0-2.035-.336Q130.642,453.426,130.333,455.279Z" fill="#fff"/>
        <path d="M140.235,469.889V467.36l1.525.881v-15.9l-1.525-.879v-2.53l3.623,2.092v13.356l3.965-2.33-1.674-.965v-2.53l5.819,3.36v2.529l-1.482-.855-3.9,2.251,3.708,7.327,1.673.965v2.529l-2.729-1.574-5.381-10.651v5.014l1.812,1.046v2.529Z" fill="#fff"/>
        <path d="M153.527,477.564v-5.072l1.982,1.144a5.991,5.991,0,0,0,.533,2.339,4.932,4.932,0,0,0,2.067,2.217,1.672,1.672,0,0,0,1.417.306q.513-.216.512-1.139a2.629,2.629,0,0,0-.559-1.552,14.35,14.35,0,0,0-2.04-2.066,15.905,15.905,0,0,1-2.249-2.186,7.165,7.165,0,0,1-1.226-2.107,6.987,6.987,0,0,1-.383-2.367,3.5,3.5,0,0,1,.533-2.093,1.783,1.783,0,0,1,1.4-.8,3.218,3.218,0,0,1,1.806.487,7,7,0,0,1,2.621,2.907v-1.08l1.886,1.088-.011,4.882-1.832-1.058a6.279,6.279,0,0,0-.586-2.185,4.8,4.8,0,0,0-1.96-2.084,1.472,1.472,0,0,0-1.311-.231.957.957,0,0,0-.523.991,2.159,2.159,0,0,0,.175.869,3.728,3.728,0,0,0,.678.944q.478.5,1.588,1.486a24.38,24.38,0,0,1,2.1,2.107,9.184,9.184,0,0,1,1.438,2.265,6.644,6.644,0,0,1,.586,2.782,3.459,3.459,0,0,1-.564,2.147,1.842,1.842,0,0,1-1.46.783,3.53,3.53,0,0,1-1.908-.54,7.229,7.229,0,0,1-2.728-2.952v.908Z" fill="#fff"/>
        <path d="M174.448,485.977a5.15,5.15,0,0,1-1.47,1.517,2.354,2.354,0,0,1-1.625.326,6.044,6.044,0,0,1-2.051-.808,9.955,9.955,0,0,1-2.339-1.882,11.959,11.959,0,0,1-1.8-2.565,13.518,13.518,0,0,1-1.15-3.08,14.526,14.526,0,0,1-.395-3.4,8.165,8.165,0,0,1,.693-3.65,2.778,2.778,0,0,1,1.939-1.629,4.127,4.127,0,0,1,2.856.675,8.779,8.779,0,0,1,2.168,1.792,11.723,11.723,0,0,1,1.69,2.5,13.936,13.936,0,0,1,1.48,6.268v.966l-8.535-4.928a9.256,9.256,0,0,0,1.067,3.826,6.2,6.2,0,0,0,2.365,2.545,2.908,2.908,0,0,0,1.848.5,2.81,2.81,0,0,0,1.581-1.047Zm-8.492-10.131,6.361,3.672a8.37,8.37,0,0,0-1.63-4.336,5.453,5.453,0,0,0-1.492-1.289,2.187,2.187,0,0,0-2.036-.336Q166.267,473.994,165.956,475.846Z" fill="#fff"/>
        <path d="M175.817,487.9l1.524.88v-9.689l-1.524-.879v-2.544l3.59,2.073v1.776a3.154,3.154,0,0,1,3.41-.034q2.858,1.649,2.856,6.507v7.6l1.481.855v2.529l-3.612-2.086V485.2q0-2.472-1.332-3.24a2.5,2.5,0,0,0-2.77.175V490l1.715.99v2.529l-5.338-3.082Z" fill="#fff"/>
      </g>
    </g>
    <g>
      <line x1="285.39" y1="39.174" x2="48.993" y2="39.174" fill="none" stroke="#b1def7" stroke-miterlimit="10"/>
      <polygon points="283.409 36.269 294.25 39.174 283.409 42.079 283.409 36.269" fill="#b1def7"/>
      <polygon points="50.974 36.269 40.133 39.174 50.974 42.079 50.974 36.269" fill="#b1def7"/>
    </g>
    <g>
      <line x1="340.891" y1="163.342" x2="340.891" y2="611.245" fill="none" stroke="#b1def7" stroke-miterlimit="10"/>
      <polygon points="337.986 165.323 340.891 154.482 343.796 165.323 337.986 165.323" fill="#b1def7"/>
      <polygon points="337.986 609.264 340.891 620.105 343.796 609.264 337.986 609.264" fill="#b1def7"/>
    </g>
    <g>
      <path d="M163.324,23.965a4.758,4.758,0,0,0-.99.059,3.964,3.964,0,0,0-3.39,3.465h.045a2.971,2.971,0,0,1,5.294,2.025,3.26,3.26,0,0,1-3.239,3.435c-2.085,0-3.45-1.62-3.45-4.155a6.13,6.13,0,0,1,1.65-4.395,5.3,5.3,0,0,1,3.119-1.439,6.23,6.23,0,0,1,.961-.075Zm-.375,5.624a1.982,1.982,0,0,0-2.01-2.235,2.172,2.172,0,0,0-1.89,1.2,1.124,1.124,0,0,0-.15.585c.03,1.605.765,2.79,2.145,2.79C162.184,31.929,162.949,30.984,162.949,29.589Z" fill="#b1def7"/>
      <path d="M169.533,32.784V30.129H165V29.26l4.351-6.226h1.424v6.06h1.365v1.035h-1.365v2.655Zm0-3.69V25.84q0-.766.045-1.531h-.045c-.3.571-.54.991-.809,1.44l-2.386,3.315v.03Z" fill="#b1def7"/>
      <path d="M173.568,27.489c0-.75-.014-1.365-.059-1.965h1.154l.061,1.17h.045a2.5,2.5,0,0,1,2.28-1.335,2.148,2.148,0,0,1,2.055,1.455h.03a2.988,2.988,0,0,1,.809-.945,2.478,2.478,0,0,1,1.6-.51c.96,0,2.386.63,2.386,3.151v4.274h-1.29V28.675c0-1.4-.511-2.236-1.576-2.236a1.707,1.707,0,0,0-1.559,1.2,2.144,2.144,0,0,0-.106.661v4.484h-1.29v-4.35c0-1.155-.509-2-1.514-2a1.973,1.973,0,0,0-1.741,1.965v4.38h-1.29Z" fill="#b1def7"/>
      <path d="M186.078,27.489c0-.75-.014-1.365-.059-1.965h1.154l.06,1.17h.045a2.506,2.506,0,0,1,2.281-1.335,2.146,2.146,0,0,1,2.054,1.455h.031a2.976,2.976,0,0,1,.809-.945,2.478,2.478,0,0,1,1.6-.51c.96,0,2.385.63,2.385,3.151v4.274h-1.29V28.675c0-1.4-.51-2.236-1.575-2.236a1.707,1.707,0,0,0-1.559,1.2,2.144,2.144,0,0,0-.106.661v4.484h-1.29v-4.35c0-1.155-.51-2-1.515-2a1.973,1.973,0,0,0-1.74,1.965v4.38h-1.29Z" fill="#b1def7"/>
    </g>
    <g>
      <path d="M356.828,366.226V366.2l-.915-1.695,1-.256,1.141,2.131V367.5h-9.75v-1.276Z" fill="#b1def7"/>
      <path d="M356.948,376.877v-3.721l-2.5-.375a5.1,5.1,0,0,1,.06.8,4.13,4.13,0,0,1-.524,2.1,2.781,2.781,0,0,1-2.5,1.394,3.381,3.381,0,0,1-3.33-3.629,4.777,4.777,0,0,1,.6-2.43l1.006.331a4.358,4.358,0,0,0-.54,2.084,2.151,2.151,0,0,0,2.114,2.31c1.26-.016,2.16-.855,2.16-2.805a9.9,9.9,0,0,0-.105-1.349l4.681.629v4.666Z" fill="#b1def7"/>
      <path d="M357.128,384.316a4.7,4.7,0,0,0-.06-.99,3.961,3.961,0,0,0-3.464-3.389v.045a2.972,2.972,0,0,1-2.026,5.295,3.261,3.261,0,0,1-3.434-3.24c0-2.086,1.62-3.451,4.155-3.451a6.132,6.132,0,0,1,4.394,1.65,5.313,5.313,0,0,1,1.44,3.121,6.317,6.317,0,0,1,.075.959Zm-5.624-.375a1.98,1.98,0,0,0,2.234-2.01,2.173,2.173,0,0,0-1.2-1.89,1.121,1.121,0,0,0-.585-.151c-1.6.032-2.79.766-2.79,2.147C349.163,383.176,350.108,383.941,351.5,383.941Z" fill="#b1def7"/>
      <path d="M353.6,386.865c.75,0,1.365-.014,1.964-.059v1.155l-1.169.06v.045a2.5,2.5,0,0,1,1.334,2.279,2.143,2.143,0,0,1-1.455,2.055v.031a3.006,3.006,0,0,1,.946.809,2.481,2.481,0,0,1,.509,1.605c0,.959-.629,2.385-3.15,2.385h-4.274v-1.289h4.109c1.4,0,2.235-.512,2.235-1.576a1.706,1.706,0,0,0-1.2-1.559,2.169,2.169,0,0,0-.66-.1h-4.484V391.41h4.349c1.156,0,2-.51,2-1.514a1.967,1.967,0,0,0-1.964-1.74h-4.38v-1.291Z" fill="#b1def7"/>
      <path d="M353.6,399.377c.75,0,1.365-.016,1.964-.061v1.154l-1.169.061v.045a2.505,2.505,0,0,1,1.334,2.281,2.149,2.149,0,0,1-1.455,2.055v.029a2.985,2.985,0,0,1,.946.811,2.47,2.47,0,0,1,.509,1.6c0,.961-.629,2.387-3.15,2.387h-4.274v-1.291h4.109c1.4,0,2.235-.51,2.235-1.574a1.709,1.709,0,0,0-1.2-1.561,2.169,2.169,0,0,0-.66-.1h-4.484v-1.289h4.349c1.156,0,2-.51,2-1.516a1.806,1.806,0,0,0-1.32-1.635,1.837,1.837,0,0,0-.644-.105h-4.38v-1.289Z" fill="#b1def7"/>
    </g>
    <polygon points="142.347 103.649 90.267 73.581 95.696 72.996 148.784 103.649 142.347 103.649" fill="#d3d3d3"/>
    <polygon points="276.334 181.007 216.967 146.732 223.209 146.616 282.777 181.007 276.334 181.007" fill="#d3d3d3"/>
    <rect x="79.122" y="86.708" width="60.137" height="28.467" transform="translate(65.1 -41.071) rotate(30)" fill="#fff"/>
    <rect x="205.259" y="161.962" width="68.551" height="28.467" transform="translate(120.19 -96.161) rotate(30)" fill="#fff"/>
    <polygon points="262.1 205.66 269.27 203.17 282.777 181.007 276.334 181.007 262.1 205.66" fill="#c6c6c5"/>
    <polygon points="128.108 128.303 135.277 125.812 148.784 103.649 142.342 103.649 128.108 128.303" fill="#c6c6c5"/>
  </g>
</svg>
