<svg xmlns="http://www.w3.org/2000/svg" width="1132.171mm" height="849.128mm" viewBox="0 0 3209.304 2406.978">
  <g>
    <g>
      <rect x="330.078" y="1080.607" width="252.669" height="272.213" fill="#89634f"/>
      <polygon points="332.187 1308.161 332.187 1128.137 336.593 1125.642 336.593 1305.542 332.187 1308.161" fill="#755446"/>
      <polygon points="452.287 1352.561 452.287 1172.537 454.49 1170.042 454.49 1349.943 452.287 1352.561" fill="#755446"/>
      <g>
        <polyline points="800.668 1119.894 800.668 1630.131 791.802 1625.018 765.98 1431.173 576.978 1322.053 577.193 1272.231 331.706 1130.499 331.486 1180.318 108.312 1051.469 108.393 720.209" fill="#a2765b"/>
        <g>
          <path d="M587.99,1318.613l-3.83-2.211v7.676L582,1322.83v-18.976l5.4,3.116a12.07,12.07,0,0,1,4.239,3.907,9.277,9.277,0,0,1,1.484,5.106,3.614,3.614,0,0,1-.824,2.614,2.552,2.552,0,0,1-2.29.646l3.83,10.265v.156l-2.307-1.332Zm-3.83-4.257,3.3,1.907a2.9,2.9,0,0,0,2.548.5q.947-.418.946-2.038a6.02,6.02,0,0,0-.9-3.224,7.328,7.328,0,0,0-2.6-2.457l-3.293-1.9Z" fill="#fff"/>
          <path d="M598.44,1332.323l-2.151-1.243V1312.1l2.151,1.242Z" fill="#fff"/>
          <path d="M607.769,1334.385l4.658-12.964,2.352,1.359-6.047,15.484-1.9-1.1-6.037-22.462,2.341,1.352Z" fill="#fff"/>
          <path d="M635.173,1353.531l-2.161-1.248v-8.772l-8.22-4.746v8.771l-2.151-1.241v-18.976l2.151,1.241v8.159l8.22,4.746v-8.159l2.161,1.248Z" fill="#fff"/>
          <path d="M648.21,1352.286l-7.067-4.081v6.726l8.209,4.739v2.046l-10.36-5.98v-18.977l10.248,5.916v2.046l-8.1-4.675v6.114l7.067,4.08Z" fill="#fff"/>
          <path d="M658.009,1359.037l-3.83-2.21v7.676l-2.162-1.248v-18.976l5.4,3.116a12.052,12.052,0,0,1,4.239,3.907,9.269,9.269,0,0,1,1.484,5.106,3.614,3.614,0,0,1-.823,2.614,2.554,2.554,0,0,1-2.291.645l3.831,10.266v.156l-2.307-1.331Zm-3.83-4.256,3.3,1.907a2.9,2.9,0,0,0,2.548.5q.947-.42.947-2.038a6.021,6.021,0,0,0-.9-3.224,7.311,7.311,0,0,0-2.6-2.457l-3.292-1.9Z" fill="#fff"/>
        </g>
        <g>
          <path d="M251.591,1124.169l-3.83-2.212v7.792L245.6,1128.5V1109.24l5.4,3.116a11.985,11.985,0,0,1,4.239,3.929,9.455,9.455,0,0,1,1.484,5.169,3.742,3.742,0,0,1-.823,2.662,2.545,2.545,0,0,1-2.291.674l3.831,10.387v.159L255.13,1134Zm-3.83-4.289,3.3,1.908a2.853,2.853,0,0,0,2.548.49q.947-.433.946-2.078a6.144,6.144,0,0,0-.9-3.264,7.267,7.267,0,0,0-2.6-2.471l-3.293-1.9Z" fill="#fff"/>
          <path d="M262.041,1137.994l-2.151-1.242V1117.49l2.151,1.241Z" fill="#fff"/>
          <path d="M271.369,1140.006l4.659-13.2,2.352,1.357-6.047,15.772-1.905-1.1-6.036-22.747,2.341,1.352Z" fill="#fff"/>
          <path d="M298.774,1159.2l-2.162-1.248v-8.9l-8.22-4.745v8.9l-2.15-1.242V1132.7l2.15,1.243v8.282l8.22,4.746v-8.283l2.162,1.248Z" fill="#fff"/>
          <path d="M311.81,1157.825l-7.067-4.081v6.827l8.209,4.74v2.077l-10.359-5.981v-19.263l10.247,5.916v2.077l-8.1-4.675v6.2l7.067,4.08Z" fill="#fff"/>
          <path d="M321.609,1164.594l-3.83-2.212v7.792l-2.161-1.248v-19.263l5.4,3.118a11.989,11.989,0,0,1,4.238,3.928,9.452,9.452,0,0,1,1.484,5.17,3.735,3.735,0,0,1-.822,2.66,2.538,2.538,0,0,1-2.291.675l3.83,10.388v.159l-2.307-1.332Zm-3.83-4.289,3.3,1.907a2.849,2.849,0,0,0,2.547.49q.947-.433.947-2.078a6.133,6.133,0,0,0-.9-3.263,7.264,7.264,0,0,0-2.6-2.471l-3.293-1.9Z" fill="#fff"/>
        </g>
        <path d="M366.181,1100.518c-18.962-10.948-34.475.781-34.475,26.062v53.865" fill="none" stroke="#775441" stroke-miterlimit="10"/>
        <path d="M542.718,1202.442c18.961,10.947,34.475,40.589,34.475,65.87v53.865" fill="none" stroke="#775441" stroke-miterlimit="10"/>
        <polygon points="666.757 1370.711 673.467 1365.639 666.757 1352.82 666.757 1370.711" fill="#fff"/>
        <polygon points="242.476 1107.809 235.748 1112.896 242.476 1125.751 242.476 1107.809" fill="#fff"/>
        <line x1="331.706" y1="1155.664" x2="295.186" y2="1134.403" fill="none" stroke="#775441" stroke-miterlimit="10"/>
        <line x1="613.712" y1="1318.481" x2="577.193" y2="1297.22" fill="none" stroke="#775441" stroke-miterlimit="10"/>
      </g>
      <polygon points="800.668 1120.894 108.393 720.209 1185.558 98.307 1877.833 497.992 1877.833 893.564 800.587 1451.154 800.668 1120.894" fill="#a88a76"/>
      <polygon points="1877.833 497.992 800.668 1119.894 800.668 1630.131 810.08 1624.697 1877.833 893.564 1877.833 497.992" fill="#a0816b"/>
      <g>
        <polygon points="793.535 1631.177 104.774 1233.52 104.774 1053.496 793.535 1451.153 793.535 1631.177" fill="#a2765b"/>
        <path d="M668.931,1379.226l.012-.006-22.71-13.112q-1.845.552-3.674,1.12c-11.625,3.621-24.615.295-42.159-13.9-19.247-15.577-38.695-30.63-59.108-42.73a51.158,51.158,0,0,1-15.5-14.025l-23.813-13.749c1.52,2.669,3.048,5.354,4.6,8.082a19.429,19.429,0,0,1-3.471-.663c-9.467-3.925-19.112-8.441-28.38-11.73-8.929-3.169-17.27-8.285-25.593-15.938-6.8-6.258-13.4-12.8-20.346-18.843q-5.092-4.425-10.051-8.965l-41.533-23.98c5.055,3.945,10.006,8.085,13.758,13.733a11.376,11.376,0,0,0,9.656,5.228l0,.044c5.154.734,9.717,3.756,13.754,9.666,2.159,3.16,3.932,5.628,4.257,8.973.321,3.3,4.873,8.776,8.177,14.317-3.089-.467-5.9-.21-9.1-1.5-11.643-4.681-23.448-10.011-35.132-14.844-11.657-4.821-23.384-9.8-34.817-13.856-11.089-3.933-21.843-6.78-33.027-10.19-.666-3.543-.915-6.637-1.96-10.011-1.444-4.66-3.562-9.556-5.24-14.3-.661-1.872-2.548-4.7,1.08-3.716.779.211,1.42-1.288,1.057-2.344-1.365-3.975-2.1-7.5-5.2-12.314-3.31-5.145-5.315-10.042-5.6-14.115l-23.045-13.305c-11.611,10.127-22.536,20.876-31.822,33.22-3.439,4.572-13.866-.145-20.1-8.934-5.726-8.074-13.669-14.336-20.055-21.776-2.863-3.336-8.657-6.672-9.115-4.01-.733,4.262,1.187,10.309,2.092,15.651.063.373.958,1.227,1.548,1.737,7.7,6.668,13.858,14.2,20.064,21.772,1.244,1.518,3.525,2.748,5.352,3.976,5.523,3.711,7.014,5.982,7.823,10.558,1.8,10.221-3.8,14.261-9.816,17.943-1.14.7-3.558-.007-5.285.089-3.152.174-6.327.325-9.3.759-1.6.233-2.749,1.079-4.17,1.564-2.851.972-5.915,1.694-8.592,2.868-4.787,2.1-8.869,5.062-15.768,5.254-1.156-2.2-2.132-3.741-2.675-5.154-3.229-8.412-6.139-16.74-9.624-25.216-1.484-3.609-4.1-7.508-6.952-12.61-.639-7.609,1.861-15.507-11.449-28.952,3.954.776,4.952-.824,3.457-4.748-1.813-4.761-3.223-9.421-4.515-14.015-1.836-6.532-6.335-14.875-1.9-17.722,6.27-4.022,12.4-9,28.7,1.6-6.541-9.519-3.605-12.26.177-14.885,4.491-3.118,8.866-6.493,11.986-10.9l-25.449-14.693a20.749,20.749,0,0,1-13.248,6.182c-6.158.528-9.411-1.586-13.487-9.351a90.123,90.123,0,0,1-4.766-11.527c-.529-1.454-.987-2.887-1.426-4.314l-12.01-6.934c1.094,4.157,1.59,8.138-.41,11.16-4.791-3.854-5.817-4.82-10.321-8.456l0,6.276c6.384,4.266,10.357,6.319,13.438,14.011a74.113,74.113,0,0,1,3.407,11.312c.895,3.943-.384,6.229-4.251,6.107-5.268-.168-6.865,2.646-12.4,1.977l-.168-.023.052,72.448c7.738,9.07,12.868,15.128,20.318,24.279,7.616,9.354,14.38,19.038,21.116,28.627A136.606,136.606,0,0,1,155.9,1243.3c1.258,2.445,1.657,5.378.9,6.826-1.8,3.436-3.6,6.882-5.474,10.269l15.907,9.184c.46-.474.921-.948,1.4-1.409.665,1.119,1.268,2.208,1.826,3.274l35.537,20.517a30.481,30.481,0,0,0-2.512-3.564c-5.9-7.016-9.961-15.646-9.26-20.394,11.635,8.248,20.558,20.738,21.436,29.537l52.144,30.106a8.4,8.4,0,0,1,.215-3.817c.247-.958.391-1.989.582-2.986l-1.425-1.273-4.47,2.121c-3.495-2.811-6.2-5.219-9-7.187-4.516-3.165-7.975-6.471-9.008-10.8l-.171-.089.148,0,0-.013c-3.737-2.483-7.57-5.2-6.593-8.553.791-2.712,6.763-.412,15.4,6.152-1.419.931-2.368,2-3.848,2.395-1.373.363-3.266.059-4.953.019.007.028.016.056.023.084l27.582,14.4c1.139-.879,2.364-2.53,4.369-3.23,4.516-1.576,9.137-2.766,10.617-7.695.775-2.581,4.569-2.776,10.307,1.613.378,2.283.765,4.613,1.249,7.534l11.552,7.633c2.523,6.918,5.13,13.784,7.452,20.558.694,2.026.571,7.678-.443,11.749l24.17,13.955c-1.859-5.932-2.717-12.74-3.621-16.278-1.811-7.086-3.3-14.048-4.743-20.98a5.451,5.451,0,0,1,.581-3.3c1.135-2.871,2.394-5.647,3.879-9.1a14.51,14.51,0,0,1,2.275.348c15.172,3.706,31.787,14.012,47.567,20.47,1.4.572,3.939,2.4,4.484,3.443,3.6,6.913,9.768,12.282,15.809,17.886a25.1,25.1,0,0,1,3.27,4.61c7.917,11.8,15.251,23.708,23.9,35.361,7.461,10.048,8.212,16.041,3.914,20.468a22.1,22.1,0,0,0-1.812,2.205l11.869,6.852a8.657,8.657,0,0,1,3.091-1.618,50.1,50.1,0,0,1,6.434,7.118l21.771,12.569a113.215,113.215,0,0,0-10.921-16.667c-9.288-11.586-10-19.835-3.359-23.985,2.944-1.84,6.32-3.216,8.864-4.485,7.982,5.156,13.939,8.971,19.885,12.867a51.4,51.4,0,0,1,4.724,3.527q14.6,12.21,29.164,24.49c.607.511,1.139,1.14,1.735,1.678,11.236,10.133,21.863,20.816,32.54,31.494,7.812,7.812,13.161,14.883,15.013,23.19q.546,2.448,1.1,4.9l86.126,49.725a21.906,21.906,0,0,1-.976-5.946,9.051,9.051,0,0,1,2.482-5.651c2.295-2.472,5.14-4.429,7.924-6.743l-5.1-3.633-.879-2.047c2.016.334,4.043-.052,6.047,1.122,10.234,5.995,18.969,13.279,24,24.059,7.885,16.89,10.117,18.959,3.123,19.982l33.788,19.507a12.4,12.4,0,0,1,.206-2.126,54.161,54.161,0,0,1,5.938,5.673l47.807,27.6c1.341-1.343,2.7-2.672,4.087-3.967V1607.7c-3.544,5.522-7,9.476-9.587,10.052-15.669-15.828-3.438-34.315,9.587-44.548v-12.429c-3.29,5.353-6.292,1.957-6.963-23.632-.71-2.663,5.987-10.985,6.58-11.954a3.553,3.553,0,0,0,.383-.925v-3c-1.352-7.039-10.1-18.45-8.445-23.774.625-2.009-2.173-6.741-4.063-10.307-1.14-2.154,5.387.633,2.764-3.059-.238-.117-.491-.245-.721-.358,0,.066,0,.13,0,.2-1.244-.789-.758-.569,0-.2-.288-7.306,8.64-8.939,8.163-16.654l2.3,1.948v-17.908l-124.473-71.864ZM142.1,1177.005c-8.485-15.876-16.969-31.752-26.326-49.262,1.4-.445,3.445-1.8,6.341-1.78,1.993.011,6,1.393,7.6,3.107,2.238,2.4,4.6,6.744,4.211,8.366-1,4.2,3.809,9.272,5.561,13.764,1.737,4.452.872,8.178,1.18,12.24a2.6,2.6,0,0,0,.5.923C145.569,1170.483,143.648,1173.493,142.1,1177.005Zm77.317,82.03c-.9,5.693,1.407,13.555-2.2,17.882-8.926-7.317-14.485-15.176-20.538-22.606-1.347-1.653-1.948-5.139-.988-5.737,6.9-4.3,14.446-7.88,26.054-8.27C220.883,1247.363,220.319,1253.312,219.415,1259.035Zm67.6-89.113c2.92,12.542,9.546,25.841,11.017,37.457,1.945,15.355,7.648,18.959-15.926,8.126-6.559-3.014-12.09-4.447-15.871-1.692-2.972,2.165-7.454,2.9-13.516,1.7C256.562,1199.185,274.456,1170.63,287.017,1169.922Zm-31.181,127.87a18.92,18.92,0,0,1-1.9-1.822c.433-.078.806-.354,1.319-.169.376.134.934.871,1.411,1.344C256.384,1297.379,256,1297.915,255.836,1297.792Zm44.14-14.691,5.337-7.913-7.673,2.144c-5.05,1.412-8.414-.877-10.613-7.786-1.521-4.778-4.141-8.339-9.285-11.507.015.039.027.078.041.117-.03-.023-.052-.037-.082-.059.281,1.121,1,2.607.667,3.217-1.765,3.189.861,7.786,3.042,12.729,2.509,5.689,2.671,10.876,3.569,16.149.147.864-.9,1.465-1.847,1.481-6.529.1-12.918.49-19.883-.175-4.3-.41-8.966-2.092-12.03-.016-2.4,1.628-7.426.4-12.482-2.717-4.217-5.047-3.526-8-3.177-11,1.113-9.557,2.177-19.15,3.6-28.5a64.147,64.147,0,0,1,3.344-12.81c1.383-3.7,6.359-2.848,11.617-.131,5.338,2.757,7.271,7.682,9.14,11.951a14.824,14.824,0,0,1,.765,2.978l9.868,8.491c1.1-.825-.854-5.173,3.805-1.65-.008-.033-.019-.069-.027-.1l.068.044c-.886-2.48-1.606-4.921-2.721-7.452-1.726-3.917-4.139-8.028-5.439-11.793-.573-1.659.18-3.737,1.52-3.788a56.806,56.806,0,0,1,15.241.912c7.208,1.617,18.77,12.935,21.113,20.13,2.321,7.125,3.814,13.868,1.447,18.54.8,2.822,2,5.84,2.321,8.426C312.124,1290.152,308.89,1290.093,299.976,1283.1Zm13.078,20.046c-2.313-1.994-6.247-4.573-6.638-5.873-1.189-3.949.533-5.8,6.093-4.3l2.213,9.4Zm201.565,4.52c.851.473,1.78,3.223,2.942,5.43l-21.449-13.99A117.208,117.208,0,0,1,514.619,1307.667Zm-186.588-64.149c8.86,2.76,15.631.179,26.4,7.593,2.022,1.393,4.364.6,6.724,1.233,2.388.638,4.98,1.789,7.483,2.714q.622,1.53,1.246,3.059c-9.319,1.1-18.435,2.493-28.038,3.164-5.086.354-11.119-3.762-15.853-9.874C321.081,1245.07,321.75,1241.562,328.031,1243.518Zm40.212,80.635c-10.618-6.646-19.625-9.013-27.671-9.012-6.584-6.125-9.893-11.869-10.26-17.155-.3-4.393-.457-8.818.473-12.411,1.53-5.907,9.017-3.878,16.554,4.425,5.5,6.065,10.411,12.46,15.635,18.687,4.866,5.8,9.8,11.578,16.028,18.929C374.187,1326.129,371.144,1325.968,368.243,1324.153Zm89.721,70.107c-.159,1.433-2.209,2.251-4.094,1.878-5.784-1.145-10.768-6.157-15.041-11.551-4.394-5.547-2.922-8.187-.851-11.184a48.08,48.08,0,0,1,4.136,4.979c2.515,4.342,5.185,8.033,10.351,9.919C455.291,1389.332,458.219,1391.946,457.964,1394.26ZM570.63,1466.8l-53.678-50.7c2.372.3,3.15.121,3.991.551,13.144,6.739,26.284,13.212,39.453,20.544,4.65,2.59,9.989,7.529,10.957,12.437C572.585,1455.873,573.022,1461.8,570.63,1466.8Zm-5.944-34.294c-5.377-3.521-10.265-6.355-14.908-6.645-.976-.062-2.491-1.053-3.76-1.624-12.771-5.755-25.551-11.559-38.309-17.247-6.355-2.832-12.021-7.37-17.4-12.526.067-4.65,2.377-6.583,6.252-7.376,2.875-.588,6.215-1.407,3.284-8.1-3.958,1.783-7.557,2.805-10.263,4.753-5.087,3.66-11.977,1.658-21.926-4.68-15.443-9.84-30.836-21.292-46.517-28.4a63.423,63.423,0,0,1-21.941-17.312c-3.769-4.562-5.341-10.094-9.28-14.373s-9.61-7.173-13.573-12.5a208.918,208.918,0,0,0-14.185-17.19c-7.527-8.122-11.533-15.224-10.272-21.528-.02.011-.039.024-.058.034-.03-.029-.054-.048-.083-.077l-4.688-.286c.326-2.548,1.908-2.472,4.688.286l.146.009c0,.011,0,.022,0,.034,2.31-1.293,4.232-3.1,7.027-3.754,9.263-2.182,21.307.885,34.3,4.473-1.794,2.75-5.508,3.223-3.563,8.73,2.788.521,5,.917,7.226,1.352,10.4,2.03,19.521,1.67,30.775,5.135a83.581,83.581,0,0,1,28.119,14.251c6.154,4.724,13.147,10.039,18.127,8.131,7.529,9.517,7.515,9.446,17.841,14.1a29.525,29.525,0,0,1,5.6,3.821c12.113,9.713,24.232,19.421,36.267,29.284,3.442,2.822,7.767,5.543,9.176,9.878l-9.958,1.962c3.916,2.863,6.323,5.265,7.91,5.673,7.74,1.988,10.966,7.409,14.808,13.871,8.665,14.575,12.459,28.057,19.361,42.213a9.529,9.529,0,0,1,.619,1.778C577.769,1437.079,574.079,1438.653,564.686,1432.5Zm-15.379-100.167c7.183,1.472,18.448,9.141,27.719,18.829C567.025,1346.9,557.9,1342.768,549.307,1332.334Zm53.214,53.17c-.245,3.367-1.178,6.567-5.446,4.876-5.4-2.137-10.452-7.075-15.48-15.149C589.318,1378.18,594.984,1378.462,602.521,1385.5Zm-17.307,21.8c-5.274-4.32-7.131-7.31-5.267-10.457C584.708,1400.745,588.034,1403.8,585.214,1407.3Zm21.54,100.455c-7.024-8.164-15.014-15.211-16.075-22.455-.959-6.55-.2-12.274-.2-18.363l1.729.549c2.644,6.659,5.608,13.421,7.839,19.947C602.234,1493.84,607.286,1501.268,606.754,1507.759Zm-10.421-70.492c-.411-6.838.741-13.012,6.114-16.308,10.372,8.133,16.214,17.38,23.48,26.039,9.8,11.674,9,18.991,8.117,26.51-.253,2.154-2.193,2.568-5.269.318-6.635-4.853-13.654-9.471-19.66-15.1C601.866,1451.925,596.718,1443.671,596.333,1437.267Zm39.174,93.886c-4.41-7.078-8.111-13.5-9.259-20-1.186-6.715-4.991-14.624-7.484-21.957-1.447-4.255.236-5.007,4.953-2.605,7.966,4.055,12.723,10.1,14.077,17.788,1.2,6.824,2.427,13.66,3.761,20.544C642.516,1529.884,641.149,1532.5,635.507,1531.153ZM644.045,1419c-.575,1.062-.172,2.924-.7,4.033-1.755,3.679-3.732,7.181-6.108,11.665-8.775-8.937-15.5-15.744-22.166-22.588-3.405-3.494-3.965-6.07-2.309-7.752,2.68-2.722,5.168-5.644,8.236-7.972a5.661,5.661,0,0,1,5.664-.344,52.273,52.273,0,0,1,16.216,13.357C646.955,1414.489,645.349,1416.59,644.045,1419Zm8.7,64.065,14.608,20.8C653.9,1495.721,652.175,1493.325,652.745,1483.06Zm28.032,9.9c-1.394-1.526-2.85-2.889-3.918-4.327-7.083-9.541-14.229-19.078-21.015-28.662-1.834-2.592-3.532-5.941-3.523-7.917.044-9.99,3.276-17.678,7.661-24.813,2.337,1.819,4.085,2.857,5.328,4.2,9.476,10.232,19.177,20.383,28.164,30.842,7.6,8.847,7.236,9.148,3.639,13.895-.6.8-.729,2.025-1.356,2.8C691.515,1484.209,689.715,1491.829,680.777,1492.956Zm16.79,12.9c-.982-3.662-2.735-6.814,2.093-6.412C699.992,1502.505,701.185,1505.282,697.567,1505.86Zm33.045,61.265c-10.676-10.993-20.225-21.574-26.3-34.313-4.613-9.673-6.439-16.795-1.687-20.653,4.223-3.428,3.824-9.584,2.874-16.3-.051-.366.636-.372,1.12-.618l4.946,6.2,7.954-6.488c11.506,14.8,21.7,27.841,31.771,40.91,4.007,5.2,7.957,10.452,11.522,15.715,2.843,4.2,4.634,8.382,1.559,9.792-7.735,3.548-15.629,6.915-23.555,10.243C738.062,1572.763,734.764,1571.4,730.612,1567.125Zm-11.421-109.176a9.07,9.07,0,0,1,2.308.517l-1.066,1.87-1.293-1.08C719.14,1458.8,718.9,1457.972,719.191,1457.949Zm8.2,8.99c.614.685,1.228,1.37,1.828,2.041l-1.042.706a14.609,14.609,0,0,1-1.539-2.1C726.5,1467.3,727.12,1467.152,727.394,1466.939Zm36.9,139.467-10.526-14.381c3.416-1.8,6.105-3.271,8.885-4.638a10.16,10.16,0,0,1,2.747-.2C769.522,1594.291,769.205,1600.209,764.291,1606.406Zm-28.273-166.295,4.872,4.514-.982,1.185c-1.6-1.446-3.221-2.871-4.74-4.383C735.06,1441.319,735.717,1440.565,736.018,1440.111Zm-8.1,13.648h0l2.642-2.191,8.351,8.865c4.34-2.053,7.8-9.321,6.57-14.4-1.962-8.092-1.962-8.092,6.943-6.113,12.629,2.806,21.242,11.726,21.593,22.359.242,7.341.535,14.712.723,22.023.458,17.744.858,35.455,1.307,53.194.059,2.34.114,4.622-3.921,3.482-1.034-1.18-2.432-2.568-3.487-4.015-11.049-15.162-21.93-30.355-33.092-45.495-8.187-11.105-8.456-11.53-4.047-17.191,1.678-2.156,3.394-4.278,5.454-6.87-3.724-2.414-6.064-3.931-8.522-5.526-.208-1.8-.361-3.125-.514-4.446l0-3.674h0Zm-49-45.826c5.888-.271,13.414,1.919,20.377,3.358a78.2,78.2,0,0,1,14.071,3.823c4.868,1.968,9.883,4.759,13.066,2.819,3.4,11.548-.284,17.563-3.652,23.977s-3.784,15.378-12.9,17.283l-41.6-45C672.2,1411.692,674.462,1408.138,678.914,1407.933Z" fill="#0071ce"/>
      </g>
      <g>
        <polygon points="807.789 1631.177 1881.935 1013.093 1881.402 833.376 807.789 1451.153 807.789 1631.177" fill="#a0816b"/>
        <path d="M1761.906,911.391c2.735,3.534,4.046,7.388,5.472,11.086,3.321,8.61.809,16.738,6.257,25.551.11.178-.277.4-.605.838l-11.527,1.148,6.584,7.079c-9.877,3.977-22.267-.039-33.056-.423-11.99-.427-25.273-4.78-35.966-1.008-1.445.51-5.687-1.457-8.541-2.483-3.281-1.181-6.873-3.641-9.6-3.685-.442-.008-.877,0-1.314.009L1630.7,977.648c5.611,5.567,11.573,11.613,17.938,17.522a20.981,20.981,0,0,0,7.917,4.321c6.158,1.682,8.827,3.445,6.237,7.132-.691.982-.187,2.854.781,4.15,3.839,5.136,8.079,10.206,12.136,15.256-4.748,2.918-10.3,1.268-15.791-.549-17.4-5.76-35.143-10.333-52.114-17.611q-8.449-3.624-16.656-7.463l-18.8,10.816a118.317,118.317,0,0,0,11.256,5.838c10.318,4.4,20.788,8.635,31.4,12.476,7.552,2.732,15.456,5.439,23.186,6.871a193.654,193.654,0,0,1,46.62,14.866c-5.827,5.935-15.481,10.13-25.089,11.789-3.207.554-5.7,2.042-8.551,3.074-1.063.385-2.261,1.182-3.322.941-5.575-1.263-8.472.73-12.052,2.018-8.395,3.022-17.268,5.625-25.252,8.995-4.416,1.864-7.759.928-12.6-1.582-11.806-6.117-23.6-12.354-35.926-17.791a208.657,208.657,0,0,0-46.758-14.648l-27.354,15.739c9.531,1.032,19.228,2.946,28.848,4.412a9.241,9.241,0,0,1,3.39,1.264c5.079,3.4,10.977,4.343,16.874,6.05,12.86,3.721,25.5,8.3,38.206,12.612,1,.341,1.776,1.283,3.907,2.89-1.834,2.252-2.664,6.142-6.163,6.973-7.412,1.762-10.136,6.409-15.7,9.2-3.522,1.764-5.522,3.992-.179,9.151-14.872-.422-26.96.253-39.376-1.368-16.119-2.1-32.507-5.865-48.762-9.276a65.436,65.436,0,0,1-13.684-4.9c-10.991-5.122-11.727-6.864-7.63-13.127.251-.383.51-.763.766-1.145l-52.684,30.314c-.94,1.105-1.934,2.179-3,3.21-13.469,12.967-27.337,25.719-41.329,38.4-2.771,2.51-6.88,4.255-10.18,6.482-3.1,2.092-5.945,4.354-8.9,6.541l-2.047-1.234c2.565-2.51,5.466-4.862,7.6-7.575,2.209-2.806,3.024-6.308,5.594-8.895,4.035-4.06,6.6-8.869,10.6-12.951l-58.129,33.448c1.792,1.964.8,3.764-1.974,6.989-2.706,3.147-6.9,5.709-8.444,9.239-1.692,3.861-5.284,5.313-12.605,5.962,1.167-3.706,2.161-7.34,3.3-10.843l-58.3,33.548c-.562,2.337-2.541,3.561-5.922,4.253-.782.16-1.523.306-2.235.44l-40.735,23.439a7.484,7.484,0,0,1,2.578,2.1c4.948,8.221,8.094,16.4,6.491,24.213-.784,3.817-3.9,4.508-10.573,2.1-1.821-5.94-10.4-8.856-16.633-13.081q-1.962-1.331-3.95-2.624l-21.541,12.394c3.478,1.823,6.943,3.6,10.211,5.408,1.609-1.26,2.87-3.283,4.157-3.043,2.751.512,6.457,1.9,8.032,3.475,1.949,1.95,2.135,4.456,3.125,6.821l-7.017-.908c3.32,4.4,7.395,7.757,2.206,10.649-12.115,6.753-23.211,14.255-35.2,21.108-10.945,6.258-24.248,10.765-33.256,18.493-1.812,1.555-4.879,2.4-7.468,3.483-14.323,6-28.614,12.031-43.04,17.944-10.716,4.392-21.377,8.844-32.508,12.855-10.218,3.682-21.569,6.206-29.742,11.844-5.609,3.869-12.814,1.686-18.063-4.7-.129-.157-.253-.315-.381-.472l-23.45,13.493c.429.549.881,1.116,1.4,1.722-2.22.418-4.4.832-6.551,1.244l-49.26,28.344a15.855,15.855,0,0,1,4.269,4.162c1.057,1.559,4.155,2.844,6.278,4.284,1.739,1.178,3.838,2.289,5.041,3.62,5.283,5.842,12.071,11.269,16.043,17.5,1.086,1.7,3.712,3.32,5.886,4.814,8.361,5.749,17.252,11.205,25.152,17.192,12.285,9.311,26.53,17.007,40.886,24.415,12.208,6.3,25.579,11.361,39.23,17.318.069.367.731,1.548.372,2.365q-.582,1.328-1.166,2.654l50.915-29.3a15.575,15.575,0,0,1,4.266-4.924c19.2-15.322,37.605-31.169,61.721-43.3,5.664-2.848,11.489-5.572,17.239-8.352l1.969,1.341c-1.567,2.845-2.867,5.821-4.343,8.71l113.893-65.534q-2.735-1.334-5.638-2.934c-1.859-5.781-3.8-11.315-5.329-16.821-.569-2.045-1.047-4.376-.093-5.971,3.483-5.821,7.551-11.4,11.477-17.04,1.653-2.374,5.019-2.333,8.74-.469a116.129,116.129,0,0,1,10,5.972c2.913,1.841,5.441,4.057,8.563,5.638q7.437,3.768,15.028,7.03l22.994-13.23a144.744,144.744,0,0,1-16.87-7c-14.216-7-23.847-16.193-30.7-26.354-2.92-4.327-3.58-8.373,1.044-10.821a10.943,10.943,0,0,1,1.833.182c16.994,5.906,33.144,15.269,51.694,14.766,10.706,5.4,21.622,4.209,32.449,6.532l72.912-41.954c-5.885-6.337-5.687-8.078-1.888-14.733,7.961-13.946,15.466-28.116,24.861-41.436a279.553,279.553,0,0,1,30.895-37.009c12.615-12.586,27.084-24.209,41.625-35.718,4.866-3.851,11.914-6.576,18.949-8.843,5.049-1.626,11.74-1.588,19.29,2.221-1.786,2.126-2.875,4.131-4.814,5.608-8.684,6.618-17.876,12.924-26.379,19.651-9.325,7.378-18.632,14.8-26.972,22.735-10.453,9.95-19.916,20.443-29.8,30.7a27.4,27.4,0,0,0-2.13,2.33c-7.157,9.418-14.787,18.633-21.258,28.348-3.6,5.4-6.78,11.04-7.307,17.471l46.814-26.936a272.766,272.766,0,0,1,36.34-40.953c18.867-17.655,38.659-34.794,60.8-50.557a68.3,68.3,0,0,1,21.947-10.077c1.777,1.564,3.027,2.27,3.291,2.955,2.818,7.322,8.335,14.793,10.644,22.094l23.936-13.773c-2.229-4.9-4.386-9.683-6.484-14.462-1.3-2.956-1.559-5.667,1.752-7.545a27.465,27.465,0,0,1,16.524-3.714c8.037.551,15.961.654,25.372,4.337l66.549-38.292c.65-.759,1.293-1.522,1.945-2.28,1.687-1.958,3.909-3.663,5.382-5.711,3.212-4.466,8.74-6.638,18.454-6.843l63.918-36.778c.695-6.743,5.872-10.781,9.8-15.217,1.746-1.97,5.964-.829,9.517,1.079.9.48,1.791.979,2.692,1.472l13.349-7.7v-4.237c-2.367-1.295-4.744-2.582-7.1-3.882-5.372-2.957,1.466-7.494,4.557-10.153,3.248-2.794-.62-3.545,2.547-6.387V967.111c-6.782.988-10.153,4.826-8.539,10.178-3.175.9,3.206-4.293.652-2.962a78.044,78.044,0,0,0-13,8.177c-3.816,3.1-8.388,1.419-13.5-.69-5.517-2.274-8.907-5.331-8.455-9a11.417,11.417,0,0,1,3.159-6.672c5.726-5.721,9.118-12.184,9-19.983-.022-1.465-.145-3.8,1.109-4.037,7.722-1.428,5.717-6.67,7.115-10.717,2.525-7.315-.413-16.664,9.847-20.846-4.035-9.693.192-21.606,8.237-25.915-.164-3.346-.507-6.128-.371-8.809.137-2.7,1.568-4.953-3.281-8.069-3.2-2.058-1.491-12.232,1.879-13.176,8.208-2.3,2.912-2.773,4.985-9.891.229-.784.4-1.975.627-2.759v-8.565l-32.9,18.95c-1.052,1.58-4.246,2.955-3.49,4.077,2.43,3.606-.145,4.042-3.4,4.692-.872.174-1.824.931-1.713,1.537,1.148,6.24-5.57,10.6-1.824,17.534,1.058,1.957.146,4.031.087,6.041-.238,8.042-4.44,14.9-5.391,22.87-2.226,18.657-13.788,34.308-22.36,50.889-.358.694-1.738,1-2.988,1.666-4.092-6.73-7.856-12.729-11.3-18.752-.679-1.188-.108-2.461-.142-3.7-.063-2.2.288-4.379-.291-6.626a217.213,217.213,0,0,0-15.416-40.968l-22.253,12.8A22.177,22.177,0,0,0,1761.906,911.391ZM1081.354,1331.6l1.7,1.308-4.085,2.19c-.3-.212-.605-.422-.908-.633Zm-106,48.013q.176.669.349,1.339l-1.849.279a4.84,4.84,0,0,1-.372-1.691A8.364,8.364,0,0,1,975.353,1379.614Zm51.887,104.9c-.95,1.151-1.025,2.721-1.527,4.089-2,5.454-4.181,6.075-13.34,2.254-12.346-5.151-24.743-10.385-36.513-16.269-33.244-16.619-58.24-38.1-82.149-60.072-2.73-2.509-4.151-5.5-6.046-8.09,5.678-3.044,11.213-5.261,15.286-8.382,5.223-4,6.071-4.2,13.266.652,6.127.67,10.441.512,14.341,1.715,6.112,1.885,14.7,4.078,17.357,7.224,6.966,8.233,18.025,12.194,27.99,17.517,11.951,6.383,23.027,13.21,26.178,23.155.994,3.138,2.827,5.8,8.521,6.813,4.883.87,7,3.2,7.527,6.231.169.974.755,2.722,1.445,2.92,7.831,2.248,2.43,3.98,2.1,5.825C1032.37,1476.94,1032.685,1477.925,1027.24,1484.513Zm23.07-15.671c-3.8,2.9-7.612,2.284-12.516-2.334-7.183-6.766-13.593-13.807-20.277-20.747-2.055-2.133-3.926-4.321-6.256-6.9,12.819.557,24.432,1.166,35.957,1.533,11.709.373,23.331.505,34.992.743l1.086,1.7C1072.327,1451.526,1061.5,1460.3,1050.31,1468.842Zm132.019-130.254c-2.07,11.661-7.083,22.553-9.209,34.2-2,10.967-7.939,19.634-20.618,25.243-4.5,1.99-9.488,3.57-13.953,5.585-20.165,9.1-43.439,14.68-69.286,17.453a154.953,154.953,0,0,1-61.511-5.758c-12.745-3.793-24.323-9.023-33.977-16.761-8.714-6.983-6.673-11.5,3.086-12.736,9.833-1.249,12.284-5.435,12.16-12.365,6.01,2.1,11.163,5.582,16.089,2.86,6.4-3.533,12.909-6.987,19.639-10.262,5.144-2.5,10.69-4.686,16.08-6.991s10.782-4.6,16.211-6.865c3.078-1.285,6.333-2.421,9.323-3.776,4.149-1.882,11.428-3.262,11.456-6.009.054-5.09,4.722-5.992,9.642-6.353,6.608-.485,8.59-4.841,15.854-5.059,4.537-.135,6.5-4.824,10.67-6.571,8.365-3.507,17.225-6.51,19.832-13.774.375-1.045,2.115-1.746,3.543-2.326,8.64-3.506,17.372-6.932,27.1-10.792,2.927,2.815,4.97,5.384,7.885,7.412,2.756,1.917,6.427,3.266,10.883,5.446C1183.03,1319.563,1183.957,1329.409,1182.329,1338.588Zm30.532-95.446c-.4,2.65-1.4,4.577-8.682,1.879Zm16.236,136.211a11.907,11.907,0,0,1-1.766.164l-.09-1.258c.6.136,1.253.266,1.887.457C1229.185,1378.733,1229.269,1379.311,1229.1,1379.353Zm10.308-77.2c-3.9,7.695-4.584,16.675-12.692,23.669-9.26-6.589-10.439-12.724-11.355-19.04-.427-2.943-2.729-6.11-3.591-9.136-1.243-4.365-1.949-8.693-2.884-13.037,7.345-1.242,2.682-6.14,3.12-9.582.712-5.6-.748-12.233,7.867-15.494,6.527,6.834,7.13,13.162,9.237,19.329,1.983,5.8,2.543,11.466,8.355,17.231C1239.2,1297.815,1240.176,1300.634,1239.405,1302.154Zm145.313-9.039c-1.882,1.3-5.916,1.645-9.255,1.436a249.917,249.917,0,0,1-25.9-2.6c-18.063-3.036-35.882-7.694-52.264-16.242-12.275-6.4-18.658-14.3-19.815-23.325a115.1,115.1,0,0,0-1.993-11.614c-1.593-6.816-1.009-13.121,5.568-17.066,6.206-3.721,13.893-6.384,20.743-9.662,4.436-2.123,10.154-3.531,11.524-7.788l-5.743-2.243c3.229-.847,5.54-2.338,7.642-1.849,8.482,1.976,11.763-1.136,14.779-4.1l18.638,5.2c5.156,6.832,10.083,13.36,15.476,20.5,8.993,2.574,12.084,6,11.286,14.045,1.244.6,2.732,1.721,4.022,1.857,7.392.779,9.707,3.876,11,8.141a13.373,13.373,0,0,0,4.5,6.882c6.1,4.514,6.408,8.538,5.04,12.728-.832,2.554-1.653,5.112-2.524,7.807l6.368,2.977C1397.342,1283.349,1391.424,1288.491,1384.718,1293.115Zm121.509-146.658c-.356.15-1.277-.187-1.952-.312q-.134-.695-.268-1.388l2.59.506C1506.5,1145.681,1506.62,1146.291,1506.227,1146.457Zm2.835-6.743c-5.876-1.316-8.018.132-9.565,2.556-2.3,3.6-4.176,7.378-6.39,11.364-5.284-1.721-8.119-.566-10.085,1.979a29.215,29.215,0,0,1-6.735,6.771c-3.982,2.67-4.44,5.825-2.28,10.263,2.885,5.928-1.632,7.771-11.806,4.773-2.424,2.092-4.911,3.673-6.46,5.691-3.584,4.667-8.186,9.123-9.5,14.487-.86,3.5-.5,6.658-5.906,7.9-1.794.413-2.888,1.847-3.8,3.045-6.208,8.127-12.272,16.32-18.408,24.481a41.447,41.447,0,0,1-4.378,5.431c-2.011,1.916-5.305,1.378-7.958-.835-3.862-3.221-7.813-6.555-10.639-10.059-9.582-11.878-20.325-23.229-34.868-33.454-7.435-5.228-8.271-7.9-2.938-11.722,7.17-5.133,7.723-13.913,18.56-16.941a6.037,6.037,0,0,0,2.546-2.039c7.626-7.661,14.875-15.534,23-22.911,3.194-2.9,5.323-5.648,2.343-9.859,9.387-2.2,10.869-3.584,15.967-9.319,10.581-11.9,10.385-12.4,34.219-5.026,15.094,4.672,30.034,10.929,45.885,11.386,6.329.183,10.465,3.389,13.367,7.408C1516.148,1139.13,1515.074,1141.06,1509.062,1139.714Zm88.9-27.324c-5.6.839-11.946.646-20.073.992,4.176-6.62,13.122-7.107,19.164-10.782C1602.755,1108.974,1603.09,1111.622,1597.96,1112.39Zm218.481-94.915c4.32-6.886,4.624-15.948,17.194-19.365,5.538,6.238-3.4,7.625-1.843,12.286,1.5,4.476.017,8.82-.136,12.739l-11.624,2.063C1814.167,1022.7,1815.044,1019.7,1816.441,1017.475Zm-172.569-32.137c-.894-.387-.883-2.135-1.282-3.267a67.04,67.04,0,0,1,7.094,1.371c.526.153.7,1.677,1.267,3.2C1647.971,986.156,1645.675,986.117,1643.872,985.338Zm31.96,98.028c-9.828,2.765-19.882,5.381-28.829,8.957-6.2,2.478-12.611,2.37-21.517.1,6-7.5,55.5-22.588,70.7-21.9-.426,6.431-13.416,6.1-13.023,12.9C1683.186,1083.787,1677.824,1082.806,1675.832,1083.366Zm33.53,23.789c-1.755,2.455-4.244,4.58-6.024,7.023-4.747,6.516-8.567,6.269-19.03-1.836,6.049-5.622,15.637-8.246,24.576-11.414l2.409,1.259C1710.675,1103.855,1710.415,1105.683,1709.362,1107.155Zm78.93-162.45,2.64.878c-.215.406-.429.812-.648,1.219-.643-.219-1.613-.377-1.848-.674C1788.1,945.708,1788.314,945.184,1788.292,944.705Zm-7.077,44.5c.805,8.7,7.156,19.016-4.191,24.672-.987.492-1.124,1.665-1.6,2.543-2.97,5.468-5.363,11.193-9.025,16.351-4.6,6.477-11.253,11.307-25.866,8.328a186.7,186.7,0,0,0-22.514-3.419c-8.395-.65-12.617-3.8-15.692-8.866a264.5,264.5,0,0,0-38.846-49.243c-3.768-3.791-6.727-7.832-10.738-12.56,11.99.3,22.371.716,32.6.769,8.862.044,10.062-.975,10.826-7.933l8.943,3.837-6.048,4.65c6.663,1.05,11.3,1.74,15.943,2.519,17.869,3,35.736,5.846,53.611,9.112C1777.945,981.667,1780.678,983.4,1781.215,989.2Z" fill="#0071ce"/>
        <path d="M919.411,1547.921c-14.652-1.552-29.35-3.871-43.8-9.263-3.347-1.249-7.492-2.734-9.394-4.678-3.821-3.9-6.429-8.189-9.318-12.347-.376-.541.624-1.236.858-1.9.465-1.317,1.585-2.627,1.135-4-4.27-13.046-8.794-26.105-13.314-39.163a25.451,25.451,0,0,0-1.864-3.159q-8.885-16.362-17.748-32.725l-18.179,10.46v.311q.516.359,1.066.709c3.125,2,6.4,4.066,5.1,6.385-2.406,4.3,2.684,8.621,3.953,13.245,5.6.388,11.244-.567,15.431,5.382-2.062,1.972-4.174,4.554-7.082,6.621-3.135,2.229-2.753,4.3,1.038,7.514a16.955,16.955,0,0,1,5.291,7.281c1.379,4.652,1.739,9.247,2.31,13.837.074.6-1.093,1.026-1.651,1.5-8.366-3.15-17.316-11.794-25.458-22.783v29.229c4.718,4.685,9.082,9.681,14.79,15.754-5.338-1.075-8.824-1.741-12.306-2.482q-1.242-.265-2.484-.538v13c9.012,2.319,18.044,4.1,26.817,3.218,5.529,3.829,8.634,7.829,8.876,12.214.454,8.214.973,16.44,1.149,24.6.172,7.925.54,15.9.183,23.717l24.349-14.01c-2.85-6.2-1.859-11.831-2.106-17.654-.021-.5-.584-1.092-.589-1.584-.02-2.018-.362-4.15.215-5.991,2.006-6.4,3.47-6.709,14.233-3.523,3.916,1.159,7.788,2.734,11.711,3.569a141.969,141.969,0,0,1,13.93,3.666l43.524-25.043A254.333,254.333,0,0,1,919.411,1547.921Z" fill="#0071ce"/>
      </g>
      <polygon points="1881.402 833.376 807.754 1451.154 803.301 1448.658 1877.833 831.352 1881.402 833.376" fill="#b2937f"/>
      <polygon points="807.789 1631.177 807.754 1451.154 803.301 1448.658 803.301 1628.613 807.789 1631.177" fill="#a2765b"/>
      <polygon points="793.535 1631.177 793.535 1451.153 797.941 1448.658 797.941 1628.558 793.535 1631.177" fill="#a0816b"/>
      <polygon points="108.287 1051.468 797.941 1448.658 793.535 1451.153 104.774 1053.496 108.287 1051.468" fill="#7c6658"/>
    </g>
    <g>
      <path d="M2759.886,1771.5c-4.2-5.151-9.684-7.138-21.061-7.408.752,4.663-1.611,9.068,4.231,14.994,5.768-.907,10.9-1.557,15.771-2.533C2762.229,1775.872,2761.76,1773.8,2759.886,1771.5Z" fill="none"/>
      <path d="M2772.638,1797.066q-9.343,1.308-18.736,2.594c2.6,7.479,5.5,13.657,15.8,17.923l17.767-9.523A29.261,29.261,0,0,0,2784.5,1802,11.753,11.753,0,0,0,2772.638,1797.066Z" fill="none"/>
      <path d="M2900.832,1789.536l8.958,1.9c-2.914-1.578-3.686-2.215-4.441-2.349C2904.474,1788.938,2903.616,1789.227,2900.832,1789.536Z" fill="none"/>
      <path d="M2820.894,1826.881c-.491-6.323-6.429-10.166-14.875-15.257-5.043,6.588-9.982,12.245-13.857,18.352-3.227,5.085-2.33,6.32,5.715,11.031a135.781,135.781,0,0,0,15.79,8.161c8.875,3.736,12.459,3.01,11.828-2.943C2824.826,1839.9,2821.382,1833.163,2820.894,1826.881Z" fill="none"/>
      <path d="M2801.827,1771.893c-3.831-1.7-7.639-3.434-11.5-5.088-8.877-3.8-17.9-7.407-26.628-11.408a21.41,21.41,0,0,0-14.31-1.574c5.946,2.906,11.161,5.279,16.077,7.944a17.452,17.452,0,0,1,4.742,4.166c5.473,6.4,6.86,7.253,16.136,7.778,5.2.294,10.211,0,15.307-.034Z" fill="none"/>
      <g>
        <polyline points="1823.443 2041.427 1823.524 2221.341 1814.658 2216.228 1131.249 1765.145 1131.168 1649.732 1131.168 1644.586" fill="#a2765b"/>
        <g>
          <path d="M1610.846,1909.823l-3.83-2.211v7.676l-2.161-1.248v-18.976l5.4,3.116a12.07,12.07,0,0,1,4.239,3.907,9.277,9.277,0,0,1,1.484,5.106,3.615,3.615,0,0,1-.824,2.614,2.549,2.549,0,0,1-2.29.645l3.83,10.266v.156l-2.307-1.332Zm-3.83-4.257,3.3,1.907a2.9,2.9,0,0,0,2.548.5q.947-.418.946-2.038a6.02,6.02,0,0,0-.9-3.224,7.328,7.328,0,0,0-2.6-2.457l-3.293-1.9Z" fill="#fff"/>
          <path d="M1621.3,1923.533l-2.15-1.243v-18.976l2.15,1.242Z" fill="#fff"/>
          <path d="M1630.625,1925.6l4.658-12.964,2.352,1.359-6.048,15.484-1.9-1.1-6.037-22.462,2.341,1.352Z" fill="#fff"/>
          <path d="M1658.029,1944.741l-2.161-1.248v-8.772l-8.22-4.746v8.771l-2.151-1.241v-18.976l2.151,1.241v8.159l8.22,4.746v-8.159l2.161,1.248Z" fill="#fff"/>
          <path d="M1671.066,1943.5l-7.067-4.08v6.726l8.209,4.739v2.046l-10.36-5.98v-18.977l10.248,5.916v2.046l-8.1-4.675v6.113l7.067,4.081Z" fill="#fff"/>
          <path d="M1680.865,1950.247l-3.83-2.211v7.677l-2.162-1.248v-18.976l5.4,3.116a12.052,12.052,0,0,1,4.239,3.907,9.269,9.269,0,0,1,1.484,5.106,3.614,3.614,0,0,1-.823,2.614,2.555,2.555,0,0,1-2.291.645l3.831,10.266v.156l-2.307-1.331Zm-3.83-4.256,3.3,1.907a2.9,2.9,0,0,0,2.548.5q.947-.42.947-2.038a6.021,6.021,0,0,0-.9-3.224,7.311,7.311,0,0,0-2.6-2.457l-3.292-1.9Z" fill="#fff"/>
        </g>
        <g>
          <path d="M1274.447,1715.379l-3.83-2.212v7.792l-2.161-1.247V1700.45l5.4,3.116a11.992,11.992,0,0,1,4.239,3.928,9.46,9.46,0,0,1,1.484,5.17,3.738,3.738,0,0,1-.824,2.662,2.543,2.543,0,0,1-2.29.674l3.831,10.387v.159l-2.308-1.332Zm-3.83-4.289,3.3,1.908a2.854,2.854,0,0,0,2.548.49q.946-.433.946-2.078a6.144,6.144,0,0,0-.9-3.264,7.267,7.267,0,0,0-2.6-2.471l-3.293-1.9Z" fill="#fff"/>
          <path d="M1284.9,1729.2l-2.15-1.241V1708.7l2.15,1.241Z" fill="#fff"/>
          <path d="M1294.225,1731.216l4.659-13.2,2.352,1.357-6.047,15.772-1.9-1.1-6.037-22.747,2.341,1.352Z" fill="#fff"/>
          <path d="M1321.63,1750.411l-2.162-1.247v-8.9l-8.22-4.745v8.9l-2.15-1.242v-19.263l2.15,1.243v8.282l8.22,4.746V1729.9l2.162,1.248Z" fill="#fff"/>
          <path d="M1334.666,1749.035l-7.067-4.081v6.827l8.209,4.74v2.077l-10.359-5.981v-19.263l10.247,5.916v2.077l-8.1-4.675v6.2l7.067,4.08Z" fill="#fff"/>
          <path d="M1344.465,1755.8l-3.83-2.212v7.792l-2.161-1.248v-19.263l5.4,3.118a11.98,11.98,0,0,1,4.238,3.928,9.452,9.452,0,0,1,1.484,5.17,3.735,3.735,0,0,1-.822,2.66,2.538,2.538,0,0,1-2.291.675l3.83,10.388v.159l-2.307-1.332Zm-3.83-4.289,3.3,1.907a2.853,2.853,0,0,0,2.548.49q.946-.433.946-2.078a6.133,6.133,0,0,0-.9-3.263,7.264,7.264,0,0,0-2.6-2.471l-3.293-1.9Z" fill="#fff"/>
        </g>
        <polygon points="1689.614 1961.921 1696.323 1956.849 1689.614 1944.03 1689.614 1961.921" fill="#fff"/>
        <polygon points="1265.333 1699.019 1258.604 1704.106 1265.333 1716.962 1265.333 1699.019" fill="#fff"/>
      </g>
      <polygon points="1823.443 2041.427 1131.249 1643.023 2208.415 1021.122 2900.689 1422.526 1823.443 2041.427" fill="#a88a76"/>
      <polygon points="1823.443 2214.232 1133.697 1824.574 2208.415 1207.02 2903.508 1604.7 1823.443 2214.232" fill="#967a68"/>
      <polygon points="2900.689 1422.526 1823.443 2041.427 1823.524 2221.341 1832.936 2215.907 2900.689 1484.774 2900.689 1422.526" fill="#a0816b"/>
      <g>
        <polygon points="1816.391 2222.387 1127.63 1824.731 1127.63 1644.706 1816.391 2042.363 1816.391 2222.387" fill="#a2765b"/>
        <path d="M1691.787,1970.436l.013-.006-22.71-13.112q-1.845.552-3.675,1.12c-11.624,3.621-24.614.295-42.158-13.9-19.248-15.577-38.7-30.63-59.109-42.73a51.154,51.154,0,0,1-15.5-14.025l-23.814-13.749c1.52,2.67,3.048,5.354,4.6,8.082a19.445,19.445,0,0,1-3.472-.663c-9.467-3.925-19.111-8.441-28.38-11.73-8.929-3.169-17.269-8.285-25.592-15.938-6.805-6.257-13.4-12.8-20.346-18.842q-5.092-4.427-10.052-8.966l-41.533-23.98c5.056,3.946,10.006,8.085,13.758,13.733a11.374,11.374,0,0,0,9.657,5.228V1821c5.154.734,9.717,3.756,13.755,9.666,2.158,3.16,3.931,5.629,4.257,8.973.321,3.3,4.873,8.776,8.176,14.317-3.089-.466-5.9-.209-9.1-1.5-11.644-4.681-23.449-10.011-35.132-14.844-11.657-4.821-23.384-9.8-34.818-13.856-11.088-3.933-21.843-6.78-33.027-10.19-.665-3.543-.914-6.637-1.96-10.011-1.444-4.66-3.561-9.556-5.239-14.3-.662-1.872-2.549-4.7,1.079-3.716.78.211,1.42-1.288,1.058-2.344-1.366-3.974-2.1-7.5-5.2-12.314-3.311-5.144-5.316-10.042-5.605-14.115l-23.045-13.305c-11.61,10.127-22.536,20.876-31.822,33.221-3.438,4.571-13.865-.146-20.1-8.935-5.727-8.074-13.67-14.336-20.055-21.776-2.864-3.336-8.657-6.672-9.115-4.01-.734,4.262,1.186,10.309,2.091,15.652.063.372.959,1.227,1.548,1.737,7.7,6.667,13.858,14.2,20.064,21.771,1.244,1.518,3.526,2.748,5.353,3.976,5.522,3.711,7.014,5.982,7.822,10.558,1.806,10.221-3.8,14.261-9.816,17.943-1.139.7-3.557-.007-5.285.089-3.152.174-6.327.326-9.3.759-1.6.233-2.748,1.079-4.17,1.564-2.851.972-5.914,1.695-8.591,2.868-4.788,2.1-8.87,5.063-15.769,5.254-1.156-2.2-2.132-3.74-2.674-5.154-3.23-8.412-6.139-16.739-9.625-25.216-1.484-3.608-4.1-7.507-6.952-12.61-.639-7.609,1.861-15.507-11.449-28.952,3.954.776,4.952-.824,3.458-4.748-1.814-4.761-3.224-9.421-4.515-14.014-1.837-6.533-6.335-14.876-1.9-17.723,6.271-4.022,12.4-9,28.7,1.605-6.542-9.519-3.605-12.26.176-14.885,4.491-3.118,8.866-6.493,11.986-10.9l-25.449-14.693a20.753,20.753,0,0,1-13.248,6.183c-6.158.527-9.411-1.587-13.487-9.352a90.064,90.064,0,0,1-4.766-11.527c-.528-1.454-.986-2.886-1.425-4.314l-12.01-6.934c1.093,4.157,1.589,8.138-.411,11.16-4.79-3.853-5.816-4.82-10.321-8.456l0,6.276c6.384,4.266,10.357,6.319,13.439,14.011a74.218,74.218,0,0,1,3.406,11.312c.9,3.943-.384,6.229-4.251,6.107-5.267-.167-6.865,2.646-12.4,1.977l-.167-.022.052,72.447c7.737,9.07,12.867,15.129,20.318,24.28,7.615,9.353,14.38,19.037,21.116,28.626a136.594,136.594,0,0,1,9.608,15.889c1.259,2.445,1.657,5.378.9,6.826-1.8,3.436-3.6,6.883-5.473,10.27l15.906,9.183c.461-.474.921-.948,1.4-1.408.665,1.118,1.269,2.207,1.827,3.273l35.536,20.517a30.5,30.5,0,0,0-2.511-3.563c-5.9-7.017-9.961-15.647-9.261-20.395,11.635,8.248,20.559,20.738,21.436,29.537l52.144,30.106a8.385,8.385,0,0,1,.216-3.816c.246-.959.39-1.989.582-2.986l-1.426-1.273-4.47,2.12c-3.495-2.81-6.2-5.219-9-7.187-4.516-3.165-7.975-6.471-9.008-10.8l-.17-.088c.048,0,.1,0,.147,0l0-.012c-3.736-2.484-7.57-5.2-6.593-8.554.792-2.712,6.763-.412,15.4,6.152-1.42.931-2.369,2-3.849,2.395-1.373.363-3.266.059-4.953.019.007.028.016.056.023.084l27.583,14.4c1.138-.88,2.363-2.531,4.368-3.231,4.516-1.576,9.137-2.766,10.617-7.695.775-2.581,4.57-2.776,10.307,1.613.379,2.283.765,4.613,1.249,7.535l11.553,7.632c2.522,6.918,5.13,13.785,7.451,20.558.7,2.026.571,7.678-.442,11.749l24.169,13.955c-1.859-5.932-2.716-12.74-3.62-16.278-1.811-7.086-3.3-14.047-4.743-20.98a5.44,5.44,0,0,1,.581-3.3c1.134-2.872,2.394-5.648,3.878-9.1a14.647,14.647,0,0,1,2.275.348c15.172,3.707,31.788,14.012,47.568,20.47,1.4.573,3.938,2.4,4.483,3.443,3.6,6.913,9.769,12.283,15.81,17.886a25.235,25.235,0,0,1,3.27,4.61c7.917,11.8,15.25,23.709,23.9,35.361,7.461,10.048,8.212,16.041,3.914,20.469a21.967,21.967,0,0,0-1.811,2.2l11.868,6.853a8.666,8.666,0,0,1,3.091-1.619,49.983,49.983,0,0,1,6.434,7.118l21.772,12.57a113.366,113.366,0,0,0-10.922-16.668c-9.288-11.586-10-19.835-3.359-23.985,2.944-1.839,6.321-3.215,8.864-4.485,7.982,5.156,13.94,8.971,19.885,12.867a51.127,51.127,0,0,1,4.724,3.527q14.6,12.21,29.164,24.49c.607.511,1.139,1.14,1.735,1.678,11.236,10.133,21.863,20.817,32.541,31.494,7.811,7.812,13.16,14.883,15.013,23.191q.546,2.447,1.1,4.9l86.126,49.725a21.89,21.89,0,0,1-.975-5.945,9.04,9.04,0,0,1,2.482-5.652c2.294-2.472,5.139-4.429,7.923-6.743l-5.1-3.633-.88-2.047c2.017.334,4.043-.052,6.047,1.122,10.235,5.995,18.97,13.279,24,24.059,7.885,16.89,10.117,18.959,3.124,19.982l33.787,19.507a12.5,12.5,0,0,1,.206-2.126,54.168,54.168,0,0,1,5.938,5.673l47.808,27.6c1.34-1.343,2.7-2.672,4.086-3.967v-17.149c-3.543,5.522-7,9.476-9.587,10.053-15.669-15.829-3.437-34.316,9.587-44.549v-12.429c-3.289,5.353-6.292,1.957-6.962-23.631-.711-2.664,5.986-10.986,6.579-11.955a3.56,3.56,0,0,0,.383-.924v-3c-1.351-7.039-10.1-18.45-8.444-23.774.624-2.008-2.174-6.741-4.063-10.307-1.141-2.153,5.386.633,2.764-3.059-.238-.117-.492-.244-.721-.358,0,.067,0,.13,0,.2-1.244-.789-.758-.569,0-.2-.289-7.3,8.639-8.939,8.163-16.653.8.678,1.56,1.319,2.3,1.947v-17.908L1691.919,1970.5Zm-526.833-202.221-26.326-49.262c1.4-.445,3.445-1.8,6.341-1.78,1.994.012,6,1.394,7.6,3.108,2.238,2.4,4.6,6.744,4.211,8.365-1,4.2,3.81,9.273,5.562,13.765,1.736,4.451.872,8.178,1.18,12.24a2.6,2.6,0,0,0,.5.922C1168.426,1761.694,1166.5,1764.7,1164.954,1768.215Zm77.317,82.031c-.9,5.692,1.407,13.554-2.2,17.881-8.926-7.316-14.485-15.176-20.538-22.606-1.346-1.653-1.948-5.139-.988-5.737,6.9-4.3,14.447-7.879,26.054-8.27C1243.739,1838.573,1243.175,1844.522,1242.271,1850.246Zm67.6-89.113c2.92,12.542,9.545,25.841,11.016,37.456,1.946,15.355,7.649,18.96-15.926,8.126-6.559-3.014-12.089-4.447-15.871-1.692-2.971,2.165-7.453,2.9-13.516,1.7C1279.419,1790.4,1297.313,1761.84,1309.874,1761.133ZM1278.692,1889a19.149,19.149,0,0,1-1.9-1.823c.433-.078.807-.353,1.319-.169.376.134.934.872,1.411,1.344C1279.24,1888.589,1278.857,1889.125,1278.692,1889Zm44.14-14.692,5.337-7.913-7.673,2.144c-5.05,1.412-8.413-.877-10.613-7.786-1.52-4.778-4.141-8.339-9.284-11.507.014.039.026.078.041.117-.03-.023-.053-.037-.082-.059.28,1.121,1,2.607.666,3.217-1.765,3.189.862,7.786,3.042,12.729,2.51,5.689,2.671,10.876,3.569,16.149.147.864-.9,1.466-1.846,1.481-6.53.1-12.919.49-19.883-.175-4.3-.41-8.967-2.092-12.03-.016-2.4,1.628-7.426.4-12.483-2.717-4.217-5.047-3.526-8-3.177-10.995,1.114-9.557,2.177-19.149,3.6-28.5a64.1,64.1,0,0,1,3.343-12.81c1.384-3.7,6.359-2.848,11.618-.131,5.337,2.757,7.27,7.682,9.139,11.952a14.881,14.881,0,0,1,.766,2.977c3.612,3.109,6.749,5.808,9.868,8.491,1.1-.825-.855-5.172,3.805-1.65-.008-.033-.02-.069-.027-.1.023.015.044.03.068.044-.887-2.48-1.606-4.921-2.721-7.452-1.726-3.917-4.139-8.027-5.44-11.792-.573-1.66.18-3.737,1.52-3.788a56.772,56.772,0,0,1,15.242.911c7.208,1.617,18.769,12.935,21.113,20.13,2.32,7.125,3.813,13.868,1.446,18.54.8,2.822,1.995,5.84,2.321,8.426C1334.98,1881.362,1331.746,1881.3,1322.832,1874.311Zm13.079,20.046c-2.314-1.994-6.248-4.573-6.639-5.873-1.188-3.949.534-5.8,6.093-4.3l2.213,9.4Zm201.565,4.52c.85.473,1.78,3.223,2.942,5.43l-21.45-13.99A117.176,117.176,0,0,1,1537.476,1898.877Zm-186.588-64.149c8.859,2.76,15.63.179,26.4,7.593,2.023,1.393,4.365.6,6.725,1.233,2.387.638,4.98,1.789,7.483,2.714l1.245,3.059c-9.318,1.1-18.435,2.493-28.037,3.164-5.086.354-11.119-3.762-15.854-9.874C1343.937,1836.28,1344.607,1832.772,1350.888,1834.728Zm40.211,80.635c-10.618-6.645-19.624-9.013-27.67-9.012-6.585-6.125-9.894-11.869-10.261-17.155-.3-4.393-.457-8.818.474-12.411,1.53-5.906,9.016-3.878,16.553,4.426,5.505,6.065,10.412,12.459,15.635,18.686,4.867,5.8,9.8,11.579,16.029,18.929C1397.043,1917.339,1394,1917.178,1391.1,1915.363Zm89.721,70.107c-.158,1.433-2.208,2.251-4.093,1.878-5.785-1.145-10.769-6.157-15.041-11.551-4.394-5.547-2.923-8.187-.852-11.183a48.02,48.02,0,0,1,4.137,4.978c2.514,4.342,5.184,8.033,10.35,9.919C1478.147,1980.543,1481.076,1983.156,1480.82,1985.47Zm112.666,72.536-53.678-50.7c2.372.3,3.15.121,3.991.552,13.144,6.739,26.285,13.211,39.453,20.544,4.65,2.589,9.99,7.528,10.958,12.436C1595.441,2047.083,1595.878,2053.006,1593.486,2058.006Zm-5.944-34.295c-5.377-3.521-10.265-6.354-14.908-6.645-.976-.061-2.491-1.053-3.759-1.624-12.771-5.755-25.552-11.559-38.31-17.246-6.355-2.833-12.02-7.371-17.4-12.527.066-4.649,2.376-6.583,6.251-7.376,2.875-.588,6.215-1.407,3.285-8.1-3.959,1.783-7.557,2.805-10.264,4.753-5.087,3.66-11.977,1.659-21.926-4.68-15.443-9.84-30.836-21.292-46.517-28.4a63.444,63.444,0,0,1-21.941-17.312c-3.769-4.563-5.341-10.095-9.28-14.374s-9.609-7.172-13.573-12.5a208.715,208.715,0,0,0-14.185-17.19c-7.526-8.122-11.533-15.224-10.272-21.528-.02.011-.038.024-.058.034-.029-.029-.054-.048-.083-.077l-4.688-.286c.326-2.547,1.909-2.472,4.688.286l.146.009c0,.011,0,.023,0,.034,2.311-1.293,4.232-3.1,7.028-3.754,9.262-2.182,21.306.886,34.3,4.473-1.795,2.75-5.509,3.223-3.564,8.73,2.788.521,5,.917,7.226,1.352,10.4,2.03,19.522,1.67,30.776,5.136a83.6,83.6,0,0,1,28.119,14.25c6.153,4.725,13.146,10.039,18.126,8.131,7.529,9.517,7.516,9.446,17.841,14.1a29.572,29.572,0,0,1,5.6,3.821c12.113,9.713,24.232,19.421,36.267,29.284,3.443,2.822,7.768,5.543,9.176,9.878l-9.957,1.962c3.916,2.863,6.322,5.266,7.909,5.673,7.741,1.988,10.966,7.409,14.808,13.872,8.666,14.574,12.46,28.056,19.361,42.212a9.482,9.482,0,0,1,.619,1.778C1600.625,2028.289,1596.935,2029.864,1587.542,2023.711Zm-15.378-100.167c7.182,1.472,18.447,9.141,27.718,18.83C1589.882,1938.11,1580.755,1933.978,1572.164,1923.544Zm53.214,53.17c-.246,3.367-1.179,6.567-5.447,4.876-5.395-2.137-10.452-7.075-15.48-15.148C1612.174,1969.391,1617.84,1969.672,1625.378,1976.714Zm-17.308,21.8c-5.274-4.32-7.13-7.31-5.266-10.457C1607.564,1991.955,1610.891,1995.008,1608.07,1998.514Zm21.54,100.455c-7.023-8.164-15.014-15.211-16.075-22.455-.959-6.55-.2-12.274-.2-18.362l1.729.548c2.643,6.659,5.607,13.422,7.839,19.947C1625.09,2085.05,1630.142,2092.478,1629.61,2098.969Zm-10.42-70.492c-.412-6.838.74-13.012,6.113-16.308,10.373,8.133,16.215,17.38,23.481,26.039,9.8,11.674,9,18.992,8.116,26.51-.253,2.154-2.193,2.568-5.268.318-6.635-4.853-13.654-9.471-19.661-15.1C1624.722,2043.135,1619.575,2034.881,1619.19,2028.477Zm39.174,93.887c-4.41-7.078-8.112-13.5-9.26-20-1.186-6.715-4.99-14.624-7.484-21.957-1.447-4.255.237-5.007,4.954-2.605,7.966,4.055,12.722,10.1,14.076,17.788,1.2,6.824,2.428,13.66,3.762,20.544C1665.373,2121.095,1664.005,2123.711,1658.364,2122.364Zm8.538-112.159c-.576,1.062-.173,2.924-.7,4.033-1.756,3.679-3.733,7.181-6.108,11.665-8.776-8.937-15.5-15.744-22.167-22.588-3.4-3.494-3.964-6.07-2.309-7.752,2.68-2.722,5.169-5.644,8.237-7.971a5.657,5.657,0,0,1,5.663-.345,52.273,52.273,0,0,1,16.216,13.357C1669.811,2005.7,1668.205,2007.8,1666.9,2010.205Zm8.7,64.066,14.608,20.8C1676.759,2086.931,1675.032,2084.535,1675.6,2074.271Zm28.032,9.895c-1.394-1.526-2.85-2.889-3.917-4.327-7.084-9.541-14.23-19.078-21.015-28.662-1.835-2.592-3.532-5.941-3.523-7.917.044-9.99,3.276-17.677,7.661-24.813,2.337,1.82,4.084,2.857,5.328,4.2,9.476,10.232,19.176,20.383,28.163,30.842,7.6,8.848,7.236,9.148,3.639,13.9-.6.8-.729,2.025-1.356,2.8C1714.371,2075.419,1712.572,2083.039,1703.633,2084.166Zm16.79,12.9c-.982-3.663-2.735-6.815,2.093-6.413C1722.848,2093.715,1724.041,2096.492,1720.423,2097.071Zm33.045,61.264c-10.676-10.993-20.224-21.574-26.3-34.313-4.613-9.673-6.439-16.794-1.686-20.653,4.222-3.428,3.824-9.584,2.874-16.3-.052-.366.635-.372,1.119-.618l4.946,6.2,7.955-6.488c11.505,14.8,21.7,27.841,31.771,40.91,4.007,5.2,7.956,10.452,11.521,15.715,2.843,4.2,4.634,8.382,1.559,9.792-7.735,3.548-15.629,6.915-23.555,10.243C1760.918,2163.973,1757.621,2162.61,1753.468,2158.335Zm-11.421-109.176a9.077,9.077,0,0,1,2.309.517l-1.067,1.871-1.293-1.081C1742,2050.005,1741.752,2049.183,1742.047,2049.159Zm8.2,8.99,1.829,2.041-1.043.706a14.737,14.737,0,0,1-1.539-2.1C1749.359,2058.512,1749.976,2058.362,1750.25,2058.149Zm36.9,139.467-10.526-14.381c3.417-1.8,6.105-3.271,8.885-4.638a10.184,10.184,0,0,1,2.748-.2C1792.379,2185.5,1792.062,2191.419,1787.147,2197.616Zm-28.273-166.3,4.872,4.514-.982,1.185c-1.6-1.446-3.221-2.87-4.739-4.383C1757.916,2032.529,1758.573,2031.775,1758.874,2031.321Zm-8.1,13.648h0q1.321-1.1,2.642-2.191l8.351,8.865c4.34-2.053,7.8-9.321,6.57-14.4-1.962-8.092-1.962-8.092,6.944-6.113,12.628,2.806,21.242,11.726,21.592,22.359.242,7.341.535,14.712.724,22.023.457,17.744.858,35.455,1.306,53.194.059,2.34.115,4.623-3.921,3.482-1.033-1.18-2.432-2.568-3.486-4.015-11.05-15.162-21.931-30.354-33.093-45.495-8.187-11.105-8.455-11.529-4.047-17.191,1.678-2.156,3.394-4.277,5.455-6.869l-8.523-5.526c-.208-1.8-.361-3.125-.514-4.447l0-3.674h0Zm-49-45.826c5.888-.271,13.415,1.919,20.377,3.358a78.366,78.366,0,0,1,14.071,3.823c4.869,1.968,9.883,4.759,13.067,2.819,3.4,11.548-.284,17.563-3.652,23.977s-3.784,15.378-12.9,17.283l-41.6-45C1695.052,2002.9,1697.318,1999.349,1701.77,1999.143Z" fill="#0071ce"/>
      </g>
      <g>
        <polygon points="1830.646 2222.387 2904.791 1604.303 2904.258 1424.586 1830.646 2042.363 1830.646 2222.387" fill="#a0816b"/>
        <path d="M2784.763,1502.6c2.734,3.535,4.045,7.388,5.472,11.086,3.321,8.61.808,16.738,6.256,25.551.11.178-.277.4-.605.838l-11.527,1.149,6.585,7.079c-9.878,3.976-22.267-.039-33.057-.424-11.989-.426-25.272-4.78-35.966-1.008-1.444.51-5.686-1.457-8.541-2.483-3.281-1.181-6.872-3.641-9.6-3.685-.442-.007-.876,0-1.314.009l-48.914,28.145c5.612,5.567,11.574,11.614,17.938,17.522a20.967,20.967,0,0,0,7.917,4.321c6.158,1.682,8.827,3.445,6.237,7.132-.69.982-.187,2.854.781,4.15,3.84,5.137,8.08,10.206,12.136,15.256-4.748,2.918-10.3,1.268-15.791-.549-17.4-5.76-35.143-10.333-52.113-17.611q-8.45-3.624-16.656-7.463l-18.8,10.817a118.679,118.679,0,0,0,11.257,5.837c10.318,4.4,20.787,8.635,31.4,12.476,7.552,2.732,15.457,5.439,23.187,6.871a193.668,193.668,0,0,1,46.62,14.866c-5.827,5.935-15.482,10.131-25.09,11.789-3.207.554-5.7,2.042-8.551,3.075-1.063.384-2.261,1.181-3.322.94-5.574-1.263-8.472.73-12.051,2.019-8.4,3.022-17.269,5.625-25.252,8.994-4.417,1.864-7.76.928-12.6-1.581-11.806-6.118-23.6-12.355-35.926-17.791a208.644,208.644,0,0,0-46.758-14.649l-27.354,15.739c9.531,1.032,19.228,2.946,28.848,4.412a9.234,9.234,0,0,1,3.39,1.264c5.08,3.4,10.977,4.343,16.875,6.05,12.859,3.721,25.5,8.3,38.2,12.612,1.006.341,1.777,1.284,3.908,2.89-1.835,2.252-2.665,6.142-6.163,6.974-7.413,1.761-10.137,6.408-15.7,9.2-3.522,1.765-5.521,3.993-.178,9.151-14.872-.422-26.961.253-39.377-1.367-16.119-2.1-32.506-5.866-48.762-9.277a65.436,65.436,0,0,1-13.684-4.9c-10.991-5.122-11.727-6.864-7.629-13.127.25-.383.51-.763.766-1.145l-52.684,30.314c-.94,1.105-1.934,2.179-3.005,3.21-13.469,12.968-27.338,25.719-41.33,38.4-2.77,2.51-6.88,4.255-10.179,6.482-3.1,2.092-5.946,4.354-8.9,6.541l-2.047-1.234c2.564-2.51,5.466-4.862,7.6-7.574,2.208-2.807,3.023-6.309,5.594-8.9,4.034-4.059,6.6-8.869,10.6-12.951l-58.13,33.448c1.792,1.965.8,3.764-1.974,6.989-2.7,3.147-6.9,5.709-8.443,9.239-1.692,3.862-5.285,5.313-12.606,5.963,1.167-3.707,2.162-7.341,3.3-10.844l-58.3,33.548c-.562,2.338-2.541,3.561-5.923,4.253-.782.16-1.522.306-2.234.44l-40.736,23.44a7.477,7.477,0,0,1,2.579,2.1c4.947,8.221,8.093,16.4,6.491,24.214-.784,3.816-3.9,4.507-10.574,2.1-1.821-5.941-10.4-8.857-16.632-13.081q-1.964-1.332-3.951-2.625l-21.541,12.395c3.478,1.822,6.943,3.6,10.211,5.407,1.609-1.259,2.871-3.283,4.158-3.043,2.75.512,6.456,1.9,8.032,3.475,1.949,1.951,2.135,4.456,3.124,6.821l-7.016-.907c3.319,4.4,7.394,7.756,2.206,10.648-12.115,6.753-23.212,14.255-35.2,21.108-10.945,6.259-24.248,10.765-33.255,18.494-1.813,1.554-4.88,2.4-7.469,3.482-14.323,6-28.614,12.031-43.04,17.944-10.715,4.392-21.377,8.844-32.508,12.855-10.217,3.682-21.569,6.206-29.742,11.844-5.609,3.869-12.814,1.687-18.063-4.695-.128-.157-.253-.315-.381-.472l-23.45,13.493c.429.549.881,1.116,1.4,1.722-2.22.418-4.4.832-6.55,1.244l-49.26,28.344a15.865,15.865,0,0,1,4.268,4.162c1.058,1.559,4.156,2.845,6.279,4.284,1.739,1.178,3.837,2.29,5.04,3.62,5.284,5.842,12.072,11.269,16.044,17.5,1.085,1.7,3.711,3.319,5.885,4.814,8.361,5.748,17.253,11.2,25.152,17.191,12.285,9.311,26.53,17.007,40.886,24.416,12.209,6.3,25.579,11.36,39.23,17.317.069.367.731,1.548.372,2.365q-.582,1.327-1.166,2.654l50.915-29.3a15.593,15.593,0,0,1,4.267-4.925c19.2-15.321,37.6-31.169,61.721-43.3,5.664-2.848,11.488-5.571,17.238-8.352l1.97,1.341c-1.568,2.845-2.868,5.821-4.344,8.711l113.894-65.535q-2.736-1.334-5.639-2.934c-1.859-5.781-3.8-11.315-5.328-16.82-.57-2.046-1.048-4.376-.093-5.972,3.482-5.82,7.55-11.4,11.476-17.04,1.653-2.374,5.019-2.333,8.741-.468a116.274,116.274,0,0,1,10,5.971c2.912,1.841,5.44,4.057,8.563,5.638q7.437,3.768,15.028,7.03l22.994-13.23a144.758,144.758,0,0,1-16.871-7c-14.215-7-23.847-16.193-30.7-26.354-2.919-4.327-3.579-8.373,1.044-10.82a11,11,0,0,1,1.834.181c16.993,5.906,33.143,15.269,51.694,14.766,10.7,5.406,21.622,4.209,32.449,6.532l72.912-41.954c-5.885-6.337-5.687-8.078-1.888-14.733,7.961-13.946,15.465-28.116,24.861-41.436a279.545,279.545,0,0,1,30.894-37.009c12.616-12.586,27.085-24.209,41.626-35.718,4.865-3.851,11.914-6.576,18.949-8.842,5.049-1.627,11.74-1.589,19.289,2.22-1.786,2.126-2.875,4.131-4.813,5.608-8.685,6.618-17.877,12.925-26.38,19.652-9.325,7.377-18.631,14.8-26.971,22.734-10.454,9.95-19.917,20.443-29.8,30.7a27.571,27.571,0,0,0-2.13,2.33c-7.156,9.419-14.786,18.633-21.258,28.348-3.6,5.4-6.779,11.04-7.307,17.472l46.814-26.937a272.821,272.821,0,0,1,36.34-40.953c18.867-17.654,38.659-34.794,60.795-50.557a68.329,68.329,0,0,1,21.947-10.077c1.778,1.564,3.027,2.27,3.291,2.955,2.818,7.322,8.335,14.794,10.644,22.094l23.937-13.773c-2.23-4.9-4.386-9.683-6.484-14.461-1.3-2.957-1.56-5.667,1.751-7.545a27.467,27.467,0,0,1,16.524-3.715c8.038.552,15.962.654,25.372,4.338l66.549-38.292c.651-.76,1.293-1.523,1.946-2.281,1.686-1.958,3.908-3.663,5.382-5.711,3.211-4.465,8.74-6.638,18.454-6.843l63.917-36.778c.7-6.743,5.872-10.78,9.8-15.217,1.746-1.97,5.964-.829,9.517,1.079.9.481,1.791.979,2.692,1.472l13.349-7.7v-4.237c-2.366-1.3-4.743-2.582-7.1-3.881-5.371-2.958,2.052-7.426,5.143-10.084,3.249-2.794-1.206-3.615,1.961-6.457v-21.323c-6.782.989-10.153,4.826-8.538,10.178-3.175.9,3.2-4.293.651-2.962a78.109,78.109,0,0,0-13,8.177c-3.816,3.1-8.387,1.419-13.5-.69-5.517-2.274-8.907-5.331-8.454-9a11.415,11.415,0,0,1,3.158-6.672c5.726-5.721,9.119-12.184,9-19.983-.022-1.465-.145-3.8,1.11-4.037,7.721-1.428,5.717-6.67,7.114-10.717,2.525-7.314-.413-16.664,9.847-20.846-4.035-9.692.192-21.606,8.237-25.915-.164-3.346-.506-6.128-.37-8.809.136-2.7,1.568-4.952-3.281-8.069-3.2-2.058-1.492-12.232,1.878-13.176,8.208-2.3,2.912-2.773,4.986-9.89.228-.785.395-1.976.626-2.76v-8.565l-32.9,18.95c-1.051,1.581-4.246,2.955-3.49,4.078,2.43,3.606-.145,4.041-3.4,4.692-.872.173-1.824.93-1.713,1.536,1.149,6.24-5.569,10.6-1.823,17.534,1.057,1.957.145,4.031.086,6.041-.237,8.042-4.44,14.9-5.39,22.87-2.226,18.657-13.789,34.308-22.36,50.89-.359.693-1.739,1-2.989,1.666-4.091-6.731-7.856-12.73-11.3-18.753-.68-1.188-.109-2.461-.143-3.7-.062-2.206.289-4.379-.29-6.627a217.218,217.218,0,0,0-15.417-40.968l-22.252,12.8A22.137,22.137,0,0,0,2784.763,1502.6Zm-680.553,420.21,1.7,1.308-4.086,2.19-.908-.633Zm-106,48.014q.176.667.349,1.338l-1.849.279a4.863,4.863,0,0,1-.372-1.691A8.323,8.323,0,0,1,1998.209,1970.825Zm51.888,104.9c-.951,1.15-1.026,2.72-1.528,4.088-2,5.454-4.18,6.076-13.34,2.254-12.346-5.151-24.743-10.385-36.513-16.269-33.244-16.618-58.24-38.094-82.148-60.072-2.73-2.509-4.152-5.5-6.047-8.09,5.678-3.044,11.214-5.261,15.287-8.382,5.222-4,6.07-4.2,13.265.652,6.127.671,10.442.512,14.342,1.715,6.111,1.885,14.694,4.079,17.356,7.225,6.967,8.233,18.026,12.193,27.991,17.516,11.95,6.384,23.026,13.21,26.177,23.155.994,3.138,2.827,5.8,8.521,6.813,4.883.87,7,3.2,7.528,6.231.168.974.755,2.723,1.445,2.92,7.831,2.248,2.43,3.98,2.1,5.825C2055.226,2068.15,2055.541,2069.136,2050.1,2075.724Zm23.069-15.672c-3.8,2.9-7.612,2.284-12.515-2.334-7.183-6.765-13.594-13.806-20.278-20.746-2.055-2.134-3.926-4.322-6.255-6.9,12.819.557,24.431,1.167,35.956,1.533,11.709.373,23.331.505,34.992.743l1.086,1.7C2095.183,2042.736,2084.36,2051.508,2073.166,2060.052ZM2205.185,1929.8c-2.07,11.661-7.082,22.553-9.208,34.2-2,10.967-7.939,19.634-20.619,25.244-4.5,1.989-9.488,3.569-13.953,5.585-20.164,9.1-43.439,14.679-69.285,17.453a154.959,154.959,0,0,1-61.512-5.759c-12.744-3.793-24.323-9.023-33.977-16.76-8.714-6.984-6.673-11.5,3.086-12.737,9.833-1.249,12.285-5.435,12.16-12.364,6.01,2.1,11.164,5.581,16.09,2.859,6.395-3.533,12.909-6.986,19.639-10.262,5.143-2.5,10.689-4.686,16.079-6.991s10.783-4.6,16.211-6.865c3.078-1.284,6.334-2.421,9.324-3.776,4.148-1.882,11.427-3.262,11.456-6.009.053-5.09,4.722-5.992,9.642-6.352,6.607-.485,8.589-4.842,15.854-5.06,4.537-.135,6.5-4.824,10.67-6.57,8.365-3.508,17.224-6.511,19.832-13.775.375-1.045,2.115-1.746,3.543-2.325,8.639-3.507,17.372-6.933,27.1-10.793,2.926,2.815,4.969,5.384,7.885,7.412,2.755,1.917,6.426,3.266,10.882,5.446C2205.886,1910.773,2206.814,1920.619,2205.185,1929.8Zm30.533-95.446c-.4,2.65-1.4,4.578-8.683,1.879Zm16.235,136.211a11.75,11.75,0,0,1-1.766.164l-.09-1.257c.6.135,1.254.265,1.887.456C2252.041,1969.943,2252.125,1970.521,2251.953,1970.563Zm10.308-77.2c-3.9,7.695-4.584,16.675-12.692,23.67-9.259-6.59-10.438-12.725-11.354-19.041-.427-2.943-2.73-6.11-3.592-9.136-1.243-4.364-1.949-8.693-2.884-13.037,7.345-1.242,2.683-6.14,3.12-9.581.712-5.6-.748-12.234,7.868-15.5,6.526,6.834,7.129,13.163,9.237,19.33,1.983,5.8,2.542,11.465,8.354,17.231C2262.052,1889.025,2263.032,1891.845,2262.261,1893.364Zm145.313-9.038c-1.881,1.3-5.915,1.645-9.254,1.435a249.642,249.642,0,0,1-25.9-2.6c-18.063-3.036-35.883-7.694-52.265-16.242-12.275-6.4-18.658-14.3-19.815-23.325a115.088,115.088,0,0,0-1.992-11.614c-1.594-6.816-1.009-13.121,5.567-17.066,6.206-3.721,13.894-6.384,20.743-9.662,4.437-2.123,10.154-3.53,11.524-7.788l-5.742-2.243c3.229-.847,5.539-2.338,7.641-1.849,8.482,1.976,11.763-1.136,14.779-4.1l18.638,5.2,15.476,20.5c8.994,2.574,12.084,6,11.286,14.045,1.244.595,2.732,1.721,4.022,1.857,7.392.78,9.707,3.876,11,8.141a13.385,13.385,0,0,0,4.5,6.882c6.1,4.514,6.408,8.538,5.041,12.728-.833,2.554-1.654,5.112-2.525,7.807l6.368,2.977C2420.2,1874.559,2414.281,1879.7,2407.574,1884.326Zm121.509-146.659c-.355.15-1.277-.187-1.951-.312q-.135-.695-.268-1.388l2.59.507C2529.352,1736.891,2529.477,1737.5,2529.083,1737.667Zm2.835-6.743c-5.876-1.316-8.017.132-9.565,2.556-2.3,3.6-4.176,7.378-6.389,11.364-5.284-1.721-8.119-.566-10.086,1.98a29.234,29.234,0,0,1-6.735,6.771c-3.982,2.669-4.439,5.824-2.279,10.262,2.885,5.928-1.632,7.771-11.807,4.773-2.424,2.093-4.91,3.674-6.46,5.691-3.584,4.667-8.186,9.123-9.5,14.487-.86,3.5-.5,6.658-5.9,7.9-1.8.413-2.889,1.847-3.8,3.045-6.208,8.127-12.272,16.321-18.407,24.481a41.538,41.538,0,0,1-4.379,5.431c-2.011,1.916-5.3,1.378-7.958-.835-3.861-3.221-7.813-6.555-10.638-10.059-9.582-11.878-20.326-23.229-34.869-33.454-7.435-5.228-8.271-7.9-2.938-11.721,7.171-5.134,7.723-13.914,18.561-16.942a6.032,6.032,0,0,0,2.545-2.038c7.626-7.662,14.875-15.535,23-22.912,3.194-2.9,5.324-5.648,2.343-9.859,9.387-2.2,10.869-3.584,15.967-9.319,10.581-11.9,10.386-12.4,34.22-5.026,15.093,4.673,30.033,10.929,45.884,11.387,6.329.183,10.466,3.388,13.367,7.407C2539,1730.34,2537.93,1732.27,2531.918,1730.924Zm88.9-27.324c-5.6.839-11.945.646-20.073.992,4.176-6.619,13.123-7.107,19.164-10.782C2625.611,1700.184,2625.946,1702.832,2620.816,1703.6Zm218.481-94.915c4.32-6.886,4.625-15.948,17.194-19.365,5.539,6.238-3.4,7.625-1.842,12.286,1.5,4.476.017,8.82-.137,12.74l-11.623,2.062C2837.023,1613.913,2837.9,1610.912,2839.3,1608.685Zm-172.569-32.137c-.893-.386-.883-2.135-1.281-3.266a66.785,66.785,0,0,1,7.094,1.37c.525.153.7,1.677,1.266,3.2C2670.827,1577.366,2668.531,1577.327,2666.728,1576.548Zm31.961,98.029c-9.829,2.764-19.883,5.38-28.83,8.956-6.2,2.478-12.611,2.37-21.516.105,6-7.5,55.5-22.589,70.7-21.9-.426,6.431-13.415,6.1-13.023,12.895C2706.042,1675,2700.681,1674.016,2698.689,1674.577Zm33.529,23.789c-1.755,2.454-4.243,4.579-6.024,7.023-4.747,6.515-8.567,6.268-19.03-1.836,6.049-5.622,15.638-8.246,24.576-11.415l2.409,1.259C2733.532,1695.065,2733.271,1696.893,2732.218,1698.366Zm78.931-162.451,2.64.878q-.323.609-.648,1.22c-.643-.22-1.613-.377-1.849-.675C2810.96,1536.918,2811.17,1536.394,2811.149,1535.915Zm-7.078,44.5c.805,8.7,7.157,19.016-4.191,24.672-.987.493-1.124,1.665-1.6,2.543-2.969,5.468-5.363,11.193-9.025,16.351-4.6,6.477-11.253,11.308-25.866,8.329a186.3,186.3,0,0,0-22.514-3.419c-8.394-.651-12.616-3.8-15.692-8.867a264.5,264.5,0,0,0-38.846-49.243c-3.768-3.79-6.727-7.832-10.738-12.56,11.991.3,22.371.716,32.6.769,8.863.045,10.062-.974,10.826-7.933l8.943,3.837-6.048,4.65c6.664,1.05,11.3,1.74,15.943,2.519,17.87,3,35.736,5.847,53.611,9.112C2800.8,1572.877,2803.534,1574.614,2804.071,1580.413Z" fill="#0071ce"/>
        <path d="M1942.267,2139.131c-14.651-1.552-29.35-3.871-43.8-9.262-3.346-1.249-7.492-2.735-9.394-4.679-3.821-3.905-6.428-8.189-9.317-12.347-.376-.541.623-1.236.858-1.9.464-1.317,1.584-2.627,1.135-4-4.271-13.046-8.8-26.105-13.315-39.163a25.451,25.451,0,0,0-1.864-3.159q-8.884-16.362-17.748-32.725l-18.178,10.46v.311q.516.359,1.065.71c3.126,2,6.4,4.065,5.1,6.384-2.406,4.3,2.683,8.621,3.953,13.245,5.6.388,11.244-.567,15.431,5.382-2.063,1.972-4.175,4.554-7.082,6.621-3.135,2.229-2.754,4.305,1.037,7.514a16.952,16.952,0,0,1,5.291,7.281c1.38,4.653,1.739,9.247,2.31,13.837.075.6-1.092,1.027-1.65,1.5-8.367-3.15-17.316-11.793-25.458-22.783v29.229c4.718,4.685,9.082,9.681,14.79,15.754-5.339-1.074-8.825-1.741-12.307-2.482-.828-.176-1.655-.358-2.483-.538v13c9.011,2.319,18.043,4.1,26.816,3.219,5.529,3.828,8.634,7.828,8.877,12.213.453,8.214.972,16.44,1.149,24.6.172,7.925.539,15.9.183,23.717l24.349-14.01c-2.851-6.2-1.86-11.831-2.107-17.654-.02-.5-.584-1.092-.589-1.584-.02-2.017-.362-4.15.215-5.991,2.006-6.4,3.471-6.708,14.233-3.523,3.916,1.159,7.789,2.734,11.712,3.569a142.4,142.4,0,0,1,13.93,3.666l43.523-25.043A254.333,254.333,0,0,1,1942.267,2139.131Z" fill="#0071ce"/>
      </g>
      <polygon points="2904.258 1424.586 1830.611 2042.364 1826.158 2039.868 2900.689 1422.562 2904.258 1424.586" fill="#b2937f"/>
      <polygon points="1830.646 2222.387 1830.611 2042.364 1826.158 2039.868 1826.158 2219.823 1830.646 2222.387" fill="#a2765b"/>
      <polygon points="1816.391 2222.387 1816.391 2042.363 1820.798 2039.868 1820.798 2219.768 1816.391 2222.387" fill="#a0816b"/>
      <polygon points="1131.144 1642.678 1820.798 2039.868 1816.391 2042.363 1127.63 1644.706 1131.144 1642.678" fill="#b2937f"/>
      <path d="M2897.675,1420.816l-685.729-397.654.028-.017-2.518-1.427-1.028-.6-.011.006-.012-.006-1073.717,619.53-.006,0-3.514,2.029,692.339,398.749,1077.182-618.9Zm-1074.2,615.577-684.4-393.22L2208.43,1025.194l684.352,397.8Z" fill="#be9d8a"/>
      <polygon points="2208.415 1207.02 2208.43 1025.194 2892.782 1422.99 2735.997 1512.93 2208.415 1207.02" fill="#a07964"/>
    </g>
  </g>
  <g>
    <g>
      <line x1="3012.058" y1="1363.951" x2="3012.058" y2="1521.13" fill="none" stroke="#b1def7" stroke-miterlimit="10" stroke-width="3"/>
      <polygon points="3003.342 1369.895 3012.058 1337.373 3020.774 1369.895 3003.342 1369.895" fill="#b1def7"/>
      <polygon points="3003.342 1515.185 3012.058 1547.708 3020.774 1515.185 3003.342 1515.185" fill="#b1def7"/>
    </g>
    <g>
      <path d="M3042.282,1431.783h-9.718l-.979,6.544a13.5,13.5,0,0,1,2.077-.158,10.766,10.766,0,0,1,5.485,1.372,7.26,7.26,0,0,1,3.645,6.544c0,4.977-3.958,8.7-9.483,8.7a12.463,12.463,0,0,1-6.348-1.568l.862-2.625a11.4,11.4,0,0,0,5.446,1.41c3.253,0,6.035-2.115,6.035-5.524-.04-3.292-2.233-5.643-7.328-5.643a26.254,26.254,0,0,0-3.526.275l1.645-12.226h12.187Z" fill="#b1def7"/>
      <path d="M3062.382,1431.783h-9.717l-.98,6.544a13.521,13.521,0,0,1,2.077-.158,10.772,10.772,0,0,1,5.486,1.372,7.258,7.258,0,0,1,3.644,6.544c0,4.977-3.958,8.7-9.483,8.7a12.469,12.469,0,0,1-6.348-1.568l.862-2.625a11.407,11.407,0,0,0,5.447,1.41c3.253,0,6.035-2.115,6.035-5.524-.039-3.292-2.235-5.643-7.328-5.643a26.285,26.285,0,0,0-3.527.275l1.646-12.226h12.186Z" fill="#b1def7"/>
      <path d="M3068.377,1440.521c0-1.959-.04-3.567-.157-5.133h3.017l.157,3.056h.117a6.539,6.539,0,0,1,5.956-3.488,5.608,5.608,0,0,1,5.369,3.8h.079a7.825,7.825,0,0,1,2.115-2.469,6.479,6.479,0,0,1,4.193-1.332c2.508,0,6.231,1.646,6.231,8.229v11.168h-3.37v-10.736c0-3.645-1.333-5.839-4.115-5.839a4.463,4.463,0,0,0-4.075,3.134,5.681,5.681,0,0,0-.274,1.725v11.716h-3.37V1442.99c0-3.018-1.332-5.212-3.958-5.212a5.138,5.138,0,0,0-4.545,5.133v11.442h-3.37Z" fill="#b1def7"/>
      <path d="M3101.056,1440.521c0-1.959-.039-3.567-.156-5.133h3.017l.157,3.056h.117a6.538,6.538,0,0,1,5.956-3.488,5.606,5.606,0,0,1,5.368,3.8h.079a7.814,7.814,0,0,1,2.116-2.469,6.477,6.477,0,0,1,4.193-1.332c2.508,0,6.23,1.646,6.23,8.229v11.168h-3.37v-10.736c0-3.645-1.333-5.839-4.114-5.839a4.463,4.463,0,0,0-4.075,3.134,5.679,5.679,0,0,0-.275,1.725v11.716h-3.37V1442.99c0-3.018-1.332-5.212-3.958-5.212a5.142,5.142,0,0,0-4.545,5.133v11.442h-3.37Z" fill="#b1def7"/>
    </g>
    <g>
      <line x1="1975.417" y1="469.189" x2="1975.417" y2="934.224" fill="none" stroke="#b1def7" stroke-miterlimit="10" stroke-width="3"/>
      <polygon points="1966.702 475.133 1975.417 442.611 1984.133 475.133 1966.702 475.133" fill="#b1def7"/>
      <polygon points="1966.702 928.28 1975.417 960.803 1984.133 928.28 1966.702 928.28" fill="#b1def7"/>
    </g>
    <g>
      <path d="M1997.922,679.45h-.079l-4.428,2.39-.666-2.626,5.565-2.977h2.938v25.469h-3.33Z" fill="#b1def7"/>
      <path d="M2025.075,678.665a12.388,12.388,0,0,0-2.586.158,10.352,10.352,0,0,0-8.856,9.051h.118a7.592,7.592,0,0,1,6.151-2.939c4.507,0,7.681,3.253,7.681,8.229,0,4.663-3.174,8.973-8.464,8.973-5.446,0-9.012-4.231-9.012-10.853a16.015,16.015,0,0,1,4.31-11.482,13.874,13.874,0,0,1,8.15-3.762,16.636,16.636,0,0,1,2.508-.195Zm-.979,14.7c0-3.644-2.077-5.838-5.251-5.838a5.676,5.676,0,0,0-4.938,3.135,2.943,2.943,0,0,0-.391,1.528c.078,4.192,2,7.288,5.6,7.288C2022.1,699.473,2024.1,697,2024.1,693.36Z" fill="#b1def7"/>
      <path d="M2030.639,701.706V699.59l2.7-2.625c6.5-6.191,9.443-9.482,9.482-13.323,0-2.586-1.254-4.977-5.054-4.977a8.674,8.674,0,0,0-5.408,2.156l-1.1-2.429a11.171,11.171,0,0,1,7.21-2.587c5.485,0,7.8,3.762,7.8,7.406,0,4.7-3.41,8.5-8.778,13.676l-2.038,1.881v.078H2046.9v2.86Z" fill="#b1def7"/>
      <path d="M2051.836,687.874c0-1.959-.039-3.566-.156-5.132h3.016l.158,3.055h.117a6.537,6.537,0,0,1,5.956-3.487,5.6,5.6,0,0,1,5.368,3.8h.078a7.828,7.828,0,0,1,2.116-2.469,6.482,6.482,0,0,1,4.194-1.332c2.508,0,6.229,1.645,6.229,8.228v11.168h-3.369V690.97c0-3.644-1.332-5.839-4.114-5.839a4.463,4.463,0,0,0-4.075,3.135,5.649,5.649,0,0,0-.275,1.725v11.715h-3.37V690.343c0-3.017-1.332-5.212-3.958-5.212a5.142,5.142,0,0,0-4.545,5.134v11.441h-3.37Z" fill="#b1def7"/>
      <path d="M2084.516,687.874c0-1.959-.039-3.566-.157-5.132h3.017l.157,3.055h.117a6.54,6.54,0,0,1,5.957-3.487,5.607,5.607,0,0,1,5.368,3.8h.078a7.828,7.828,0,0,1,2.116-2.469,6.481,6.481,0,0,1,4.193-1.332c2.508,0,6.23,1.645,6.23,8.228v11.168h-3.369V690.97c0-3.644-1.332-5.839-4.115-5.839a4.465,4.465,0,0,0-4.075,3.135,5.681,5.681,0,0,0-.274,1.725v11.715h-3.37V690.343c0-3.017-1.332-5.212-3.958-5.212a5.138,5.138,0,0,0-4.545,5.134v11.441h-3.37Z" fill="#b1def7"/>
    </g>
    <g>
      <line x1="1067.992" y1="1896.701" x2="1701.966" y2="2262.726" fill="none" stroke="#b1def7" stroke-miterlimit="10" stroke-width="3"/>
      <polygon points="1068.782 1907.221 1044.975 1883.412 1077.498 1892.125 1068.782 1907.221" fill="#b1def7"/>
      <polygon points="1692.46 2267.302 1724.983 2276.015 1701.176 2252.205 1692.46 2267.302" fill="#b1def7"/>
    </g>
    <g>
      <path d="M1286.284,2008.188v-2.444l2.342-1.678c5.633-3.9,8.178-6.227,8.212-10.641a9.17,9.17,0,0,0-4.378-8.273,4.631,4.631,0,0,0-4.683-.216l-.95-3.354c1.527-.838,3.7-.85,6.244.62,4.751,2.743,6.753,8.242,6.753,12.449,0,5.429-2.952,8.113-7.6,11.4l-1.765,1.152v.091l9.909,5.721v3.3Z" fill="#b1def7"/>
      <path d="M1305.422,2016.433a13.507,13.507,0,0,0,2.41,1.256,4.838,4.838,0,0,0,4.615-.187c1.459-.922,2.512-2.892,2.919-6.142l-.1-.059c-1.222,1.286-2.987,1.443-5.192.17-3.971-2.293-6.516-7.743-6.516-12.765,0-5.564,3.02-8.708,7.534-6.1s7.3,9.1,7.3,16.608c0,6.47-1.629,10.054-3.8,11.605-1.7,1.237-4.038,1.243-6.414.233a14.53,14.53,0,0,1-2.749-1.361Zm1.086-16.294c0,3.665,1.663,7.2,4.243,8.692,2,1.157,3.563.746,4.343-.568a2.364,2.364,0,0,0,.272-1.292c0-5.021-1.392-9.67-4.514-11.473C1308.307,1994.029,1306.508,1995.977,1306.508,2000.139Z" fill="#b1def7"/>
      <path d="M1327.582,2006.333l-.069-.039-3.834.546-.577-3.364,4.818-.656,2.546,1.469V2033.7l-2.884-1.666Z" fill="#b1def7"/>
      <path d="M1339.458,2022.917c0-2.261-.034-4.136-.136-6l2.613,1.508.136,3.609.1.058c.917-1.551,2.444-2.616,5.159-1.049,2.239,1.293,3.936,4.083,4.649,7.073l.068.039a3.878,3.878,0,0,1,1.832-1.792c.984-.427,2.07-.343,3.631.558,2.172,1.254,5.4,5.015,5.4,12.616v12.894l-2.919-1.684v-12.4c0-4.207-1.153-7.407-3.563-8.8-1.7-.979-3.02-.069-3.529,1.582a6.9,6.9,0,0,0-.237,1.854v13.527l-2.919-1.684V2031.7c0-3.483-1.154-6.683-3.427-8-1.867-1.077-3.224.131-3.7,1.847a5.743,5.743,0,0,0-.238,1.808v13.211l-2.918-1.685Z" fill="#b1def7"/>
      <path d="M1367.759,2039.257c0-2.262-.034-4.137-.135-6.006l2.612,1.509.136,3.609.1.058c.916-1.553,2.443-2.616,5.158-1.049,2.24,1.293,3.936,4.082,4.649,7.073l.068.039a3.875,3.875,0,0,1,1.833-1.792c.984-.427,2.07-.343,3.631.558,2.171,1.254,5.395,5.015,5.395,12.615v12.895l-2.918-1.685v-12.4c0-4.207-1.154-7.408-3.563-8.8-1.7-.979-3.02-.07-3.53,1.581a6.959,6.959,0,0,0-.237,1.855v13.527l-2.918-1.685v-13.12c0-3.483-1.154-6.683-3.428-8-1.866-1.077-3.224.13-3.7,1.847a5.772,5.772,0,0,0-.238,1.808v13.21l-2.918-1.684Z" fill="#b1def7"/>
    </g>
    <g>
      <line x1="2989.002" y1="1662.426" x2="1944.488" y2="2261.415" fill="none" stroke="#b1def7" stroke-miterlimit="10" stroke-width="3"/>
      <polygon points="2979.51 1657.823 3012.058 1649.204 2988.181 1672.944 2979.51 1657.823" fill="#b1def7"/>
      <polygon points="1945.309 2250.897 1921.432 2274.637 1953.98 2266.019 1945.309 2250.897" fill="#b1def7"/>
    </g>
    <g>
      <path d="M2489.306,1927.679a7,7,0,0,0,4.888-.968,10.02,10.02,0,0,0,4.988-8.58c-.034-4.1-2.816-4.256-5.7-2.59l-1.663.96v-2.985l1.663-.96c2.172-1.254,4.921-4.334,4.921-7.817,0-2.354-1.12-3.788-3.869-2.2a15.089,15.089,0,0,0-4.411,4.494l-.781-2.446a18.782,18.782,0,0,1,5.769-5.592c4.344-2.508,6.312-.207,6.312,3.368a13.84,13.84,0,0,1-4.073,9.273v.091c2.715-.844,4.921.6,4.921,4.715a16.173,16.173,0,0,1-8.041,13.465c-2.478,1.43-4.65,1.643-5.736,1.32Z" fill="#b1def7"/>
      <path d="M2507.732,1918.805a15.361,15.361,0,0,0,2.409-1.526,17.375,17.375,0,0,0,4.616-5.516,24.912,24.912,0,0,0,2.917-9.512l-.1.059a13.259,13.259,0,0,1-5.191,6.164c-3.971,2.293-6.515-.22-6.515-5.241,0-5.565,3.019-12.195,7.532-14.8s7.3.674,7.3,8.184a34,34,0,0,1-3.8,15.993,22.919,22.919,0,0,1-6.414,7.639,17.619,17.619,0,0,1-2.749,1.813Zm1.086-17.548c0,3.665,1.663,5.283,4.242,3.794a10.63,10.63,0,0,0,4.344-5.584,4.531,4.531,0,0,0,.27-1.6c0-5.022-1.389-8.065-4.512-6.262C2510.616,1893.071,2508.818,1897.1,2508.818,1901.257Z" fill="#b1def7"/>
      <path d="M2523.411,1912.558v-2.443l2.341-4.383c5.633-10.4,8.177-15.67,8.211-20.123,0-2.987-1.085-5.119-4.377-3.219a14.9,14.9,0,0,0-4.682,5.191l-.95-2.255a18.378,18.378,0,0,1,6.243-6.591c4.751-2.743,6.754.444,6.754,4.651,0,5.43-2.953,11.523-7.6,20.179l-1.765,3.19v.091l9.91-5.722v3.3Z" fill="#b1def7"/>
      <path d="M2541.768,1885.989c0-2.262-.034-4.1-.137-5.848l2.614-1.509.134,3.451.1-.059c.915-2.61,2.442-5.437,5.157-7,2.239-1.293,3.936-.463,4.65,1.7l.068-.039a18.157,18.157,0,0,1,1.831-3.907,10.194,10.194,0,0,1,3.632-3.635c2.172-1.254,5.395-1.216,5.395,6.385v12.894l-2.919,1.686v-12.4c0-4.207-1.153-6.075-3.562-4.684-1.7.979-3.021,3.418-3.53,5.657a10.515,10.515,0,0,0-.237,2.128v13.527l-2.92,1.686V1882.9c0-3.484-1.153-5.352-3.426-4.039-1.866,1.077-3.224,3.852-3.7,6.117a8.781,8.781,0,0,0-.236,2.082v13.211l-2.918,1.684Z" fill="#b1def7"/>
      <path d="M2570.07,1869.649c0-2.262-.034-4.1-.138-5.848l2.613-1.509.136,3.452.1-.06c.915-2.609,2.442-5.437,5.157-7,2.239-1.293,3.936-.463,4.649,1.7l.068-.039a18.2,18.2,0,0,1,1.832-3.907,10.194,10.194,0,0,1,3.632-3.635c2.172-1.254,5.395-1.216,5.395,6.385v12.894l-2.919,1.686v-12.4c0-4.207-1.154-6.075-3.562-4.684-1.7.979-3.022,3.418-3.531,5.657a10.589,10.589,0,0,0-.236,2.128V1878l-2.92,1.686v-13.12c0-3.484-1.153-5.352-3.427-4.039-1.865,1.077-3.223,3.852-3.7,6.117a8.782,8.782,0,0,0-.237,2.082v13.211l-2.917,1.684Z" fill="#b1def7"/>
    </g>
  </g>
  <g>
    <g>
      <path d="M1333.507,1859.951c5.553.959,8.387-.665,8.433-4.858.067-6.064-5.677-16.663-33.42-32.706l-35.815-20.711-.533,48.294,38.878,22.483c30.6,17.693,35.26,11.767,35.316,6.658.057-5.144-4.472-11.855-12.859-19.16m-38.274-35.666,11.984,6.93c7.782,4.5,11.712,8.31,11.678,11.32-.028,2.556-1.576,4.291-12.851-2.229l-10.918-6.314Zm15.522,38.478-15.845-9.163.116-10.531,14.247,8.239c9.374,5.421,14.108,10.038,14.067,13.722-.013,1.232-.055,4.98-12.585-2.267" fill="#fff"/>
      <polygon points="1587.826 1983.907 1587.719 1993.619 1612.631 2008.025 1612.205 2046.609 1634.707 2059.621 1635.133 2021.038 1660.044 2035.443 1660.151 2025.732 1587.826 1983.907" fill="#fff"/>
      <polygon points="1411.161 1891.26 1411.265 1881.803 1353.438 1848.362 1353.334 1857.819 1370.917 1867.987 1370.592 1897.369 1353.009 1887.201 1352.905 1896.658 1410.732 1930.099 1410.837 1920.642 1393.253 1910.473 1393.578 1881.092 1411.161 1891.26" fill="#fff"/>
      <polygon points="1578.888 1988.255 1578.993 1978.798 1521.166 1945.358 1521.062 1954.814 1538.643 1964.981 1538.319 1994.363 1520.737 1984.196 1520.633 1993.653 1578.46 2027.094 1578.564 2017.637 1560.98 2007.468 1561.304 1978.086 1578.888 1988.255" fill="#fff"/>
      <path d="M1509.312,1938.5l-25.621-14.816-16.015,4.532a10.056,10.056,0,0,0-1.575.572c-.421-.718-.889-1.48-1.411-2.29l-15.6-22.823-26.234-15.17,29.709,41.481-30.242,6.814,26.233,15.17,15.9-4.606a12.4,12.4,0,0,0,1.443-.641q.766,1.254,1.542,2.375l15.713,22.881,25.62,14.816-29.832-41.554Z" fill="#fff"/>
      <path d="M1644.841,2060.761v-.027c.028-2.56,3.334-2.819,7.468-.429,4.174,2.415,7.39,6.417,7.362,8.978v.027c-.029,2.56-3.334,2.82-7.467.43-4.176-2.416-7.391-6.418-7.363-8.979m13.977,8.055v-.026c.026-2.291-2.766-5.8-6.515-7.972-3.709-2.145-6.584-1.881-6.609.409v.027c-.026,2.291,2.766,5.8,6.516,7.973,3.707,2.144,6.583,1.881,6.608-.411m-9.433-7.95,3.409,1.972c1.663.961,2.892,2.188,2.881,3.185-.008.781-.738.848-1.763.445l1.983,2.964-1.747-1.01-1.771-2.679-1.577-.912-.018,1.644-1.449-.838Zm3.256,4.27c.98.567,1.537.564,1.542.105.006-.512-.545-1.1-1.525-1.668l-1.832-1.059-.018,1.563Z" fill="#fff"/>
    </g>
    <g>
      <path d="M310.6,1269.352c5.553.959,8.387-.665,8.433-4.858.067-6.065-5.677-16.663-33.42-32.706L249.8,1211.076l-.534,48.3,38.878,22.483c30.6,17.693,35.26,11.767,35.316,6.658.057-5.145-4.472-11.855-12.859-19.16m-38.273-35.666,11.983,6.93c7.782,4.5,11.712,8.31,11.679,11.319-.028,2.557-1.576,4.292-12.852-2.229l-10.917-6.313Zm15.521,38.478L272,1263l.116-10.531,14.247,8.238c9.374,5.421,14.108,10.039,14.068,13.722-.014,1.232-.055,4.98-12.586-2.266" fill="#fff"/>
      <polygon points="564.916 1393.308 564.808 1403.019 589.721 1417.426 589.295 1456.01 611.797 1469.022 612.223 1430.439 637.133 1444.844 637.241 1435.132 564.916 1393.308" fill="#fff"/>
      <polygon points="388.25 1300.661 388.355 1291.204 330.527 1257.763 330.423 1267.22 348.006 1277.388 347.682 1306.769 330.098 1296.601 329.994 1306.058 387.822 1339.499 387.926 1330.042 370.343 1319.874 370.667 1290.492 388.25 1300.661" fill="#fff"/>
      <polygon points="555.978 1397.656 556.082 1388.199 498.255 1354.759 498.151 1364.215 515.732 1374.382 515.408 1403.764 497.827 1393.597 497.722 1403.054 555.549 1436.494 555.653 1427.037 538.069 1416.869 538.394 1387.487 555.978 1397.656" fill="#fff"/>
      <path d="M486.4,1347.9l-25.62-14.816-16.016,4.533a9.858,9.858,0,0,0-1.575.572q-.63-1.077-1.41-2.29l-15.6-22.823-26.233-15.171,29.708,41.482-30.241,6.814,26.233,15.17,15.9-4.606a12.492,12.492,0,0,0,1.443-.641q.766,1.253,1.542,2.375l15.713,22.881,25.621,14.816-29.833-41.555Z" fill="#fff"/>
      <path d="M621.93,1470.162v-.028c.028-2.559,3.333-2.818,7.467-.428,4.175,2.414,7.391,6.417,7.362,8.978v.026c-.028,2.561-3.333,2.82-7.466.43-4.177-2.415-7.392-6.418-7.364-8.978m13.977,8.055v-.026c.025-2.291-2.767-5.8-6.516-7.972-3.708-2.145-6.584-1.882-6.609.409v.027c-.025,2.291,2.766,5.8,6.516,7.973,3.707,2.143,6.583,1.88,6.608-.411m-9.432-7.95,3.409,1.971c1.662.962,2.892,2.188,2.88,3.186-.008.781-.738.848-1.763.445l1.984,2.964-1.747-1.01-1.772-2.68-1.577-.911-.018,1.644-1.449-.838Zm3.255,4.27c.98.567,1.538.564,1.543.105,0-.512-.546-1.1-1.526-1.668l-1.832-1.059-.017,1.563Z" fill="#fff"/>
    </g>
  </g>
</svg>
