<?xml version="1.0" encoding="UTF-8" standalone="no"?><!DOCTYPE svg PUBLIC "-//W3C//DTD SVG 1.1//EN" "http://www.w3.org/Graphics/SVG/1.1/DTD/svg11.dtd"><svg width="100%" height="100%" viewBox="0 0 555 851" version="1.1" xmlns="http://www.w3.org/2000/svg" xmlns:xlink="http://www.w3.org/1999/xlink" xml:space="preserve" xmlns:serif="http://www.serif.com/" style="fill-rule:evenodd;clip-rule:evenodd;stroke-linejoin:round;stroke-miterlimit:2;"><rect id="Artboard1" x="0" y="0" width="554.559" height="850" style="fill:none;"/><path d="M404.921,698.649c0,0 21.261,12.747 0,25.022c-21.262,12.275 -54.174,31.278 -54.174,31.278l-86.679,50.044c0,0 -43.478,24.942 -86.679,0c-43.201,-24.943 0,-50.044 0,-50.044c0,0 21.6,-12.552 0,-25.022c-21.6,-12.471 -43.339,0 -43.339,0l-21.67,12.511c0,0 -22.075,12.276 -43.339,0c-21.265,-12.277 0,-25.022 0,-25.022c0,0 21.721,-12.482 0,-25.022c-21.721,-12.541 0,-25.022 0,-25.022c0,0 21.559,-12.575 43.339,0c21.78,12.574 65.009,-12.511 65.009,-12.511l42.611,-24.666l10.835,-6.255c0,0 21.454,-12.636 43.339,0c21.886,12.635 130.747,74.709 130.747,74.709Z" style="fill:url(#_Linear1);"/><path d="M339.912,110.632l130.018,-75.066l0,200.176l-130.018,75.066l0,-200.176Z" style="fill:url(#_Linear2);"/><path d="M209.894,160.676l-130.018,75.066l0,175.154l130.018,75.066l0,-325.286Z" style="fill:url(#_Linear3);"/><path d="M144.885,198.209l130.018,-75.066l21.67,12.511l-108.349,62.555c0,0 -21.67,12.891 -21.67,37.533c0,24.642 21.67,37.533 21.67,37.533c0,0 21.67,13.957 21.67,37.533l0,25.022l21.669,12.511c0,0 20.633,13.11 0,25.022c-20.632,11.912 -65.009,37.533 -65.009,37.533c0,0 -22.751,11.886 -43.339,0c-20.588,-11.886 -86.679,-50.044 -86.679,-50.044c0,0 -20.109,-13.412 0,-25.022c20.11,-11.61 43.34,-25.022 43.34,-25.022l0,50.044l43.339,25.022c0,0 22.578,11.987 43.339,0c20.762,-11.987 21.67,-12.511 21.67,-12.511c0,0 20.678,-13.084 0,-25.022c-20.677,-11.938 -21.67,-14.509 -21.67,-37.533c0,-23.024 -21.669,-37.533 -21.669,-37.533c0,0 -21.67,-12.975 -21.67,-37.533c0,-24.558 21.67,-37.533 21.67,-37.533Z" style="fill:url(#_Linear4);"/><path d="M188.224,348.341l21.67,-12.511l21.669,12.511c0,0 20.633,13.11 0,25.022c-20.632,11.912 -65.009,37.533 -65.009,37.533c0,0 -22.751,11.886 -43.339,0c-20.588,-11.886 -86.679,-50.044 -86.679,-50.044c0,0 -20.109,-13.412 0,-25.022c20.11,-11.61 43.34,-25.022 43.34,-25.022l0,50.044l43.339,25.022c0,0 22.578,11.987 43.339,0c20.762,-11.987 21.67,-12.511 21.67,-12.511c0,0 20.678,-13.084 0,-25.022Z" style="fill:url(#_Linear5);"/><path d="M123.215,385.874c0,0 20.588,36.908 0,25.022c-20.588,-11.886 -86.679,-50.044 -86.679,-50.044c0,0 -20.109,-13.412 0,-25.022c20.11,-11.61 43.34,-25.022 43.34,-25.022l0,50.044l43.339,25.022Z" style="fill:url(#_Linear6);"/><path d="M188.224,373.363c0,0 63.972,-11.912 43.339,0c-20.632,11.912 -65.009,37.533 -65.009,37.533c0,0 -22.751,11.886 -43.339,0c-20.588,-11.886 -86.679,-50.044 -86.679,-50.044l43.34,0l43.339,25.022c0,0 22.578,11.987 43.339,0c20.762,-11.987 21.67,-12.511 21.67,-12.511Z" style="fill:url(#_Linear7);"/><path d="M296.573,335.83l-43.34,-25.022l0,-150.132l43.34,-25.022l0,200.176Z" style="fill:url(#_Linear8);"/><path d="M253.233,611.072l-65.009,-37.533l-43.339,25.022l65.009,37.533l43.339,-25.022Z" style="fill:url(#_Linear9);"/><path d="M144.885,673.627l65.009,-37.533l-65.009,-37.533l-65.009,37.533l65.009,37.533Z" style="fill:url(#_Linear10);"/><path d="M210.894,556.517c0,0 21.901,-12.377 43.339,0c21.438,12.377 0,25.022 0,25.022l-21.67,12.511c0,0 -21.669,13.121 -21.669,37.533c0,24.958 -21.67,37.533 -21.67,37.533c0,0 -21.677,12.507 -43.339,0c-21.282,-12.287 0,-25.022 0,-25.022c0,0 21.669,-12.217 21.669,-37.533c0,-25.315 21.67,-37.533 21.67,-37.533l21.67,-12.511Z" style="fill:url(#_Linear11);"/><path d="M253.233,310.808l43.34,25.022c0,0 43.339,25.611 43.339,75.066l0,50.044l21.67,12.511c0,0 21.107,12.836 0,25.022c-21.108,12.186 -21.656,38.521 -21.67,37.533c-0.014,-0.988 -0.297,25.193 -21.67,37.533c-21.373,12.34 -21.669,-12.511 -21.669,-12.511c0,0 0.034,-25.042 -43.34,0c0,0 -21.892,12.383 -43.339,0c-21.448,-12.383 0,-25.022 0,-25.022l65.009,-37.533c0,0 21.67,-12.944 21.67,-37.533l0,-25.022c0,0 0.289,-49.877 -43.34,-75.066l0,-50.044Z" style="fill:url(#_Linear12);"/><path d="M274.903,498.473l65.009,-37.533l21.67,12.511c0,0 21.107,12.836 0,25.022c-21.108,12.186 -21.656,38.521 -21.67,37.533c-0.014,-0.988 -0.297,25.193 -21.67,37.533c-21.373,12.34 -21.669,-12.511 -21.669,-12.511c0,0 0.034,-25.042 -43.34,0c0,0 -21.892,12.383 -43.339,0c-21.448,-12.383 0,-25.022 0,-25.022l65.009,-37.533Z" style="fill:url(#_Linear13);"/><path d="M253.233,611.072l-108.348,62.555l-65.009,-37.533l0,50.044l65.009,37.533l108.348,-62.555l0,-50.044Z" style="fill:#002146;"/><path d="M79.876,561.028l130.018,-75.066l-130.018,-75.066l0,150.132Z" style="fill:url(#_Linear14);"/><path d="M339.912,160.676l130.018,75.066c0,0 43.339,25.649 43.339,75.066l0,50.044c0,0 -0.541,25.335 -21.669,37.533c-21.128,12.198 -21.67,-12.511 -21.67,-12.511l0,-25.022c0,0 0.132,-25.098 -21.67,-12.511c-20.734,11.971 -21.669,37.533 -21.669,37.533c0,0 1.058,25.633 21.669,37.533c20.612,11.9 21.67,37.533 21.67,37.533c0,0 -0.518,25.321 -21.67,37.533c-21.152,12.212 -21.669,-12.511 -21.669,-12.511c0,0 -0.909,-25.547 -21.67,-37.533c-20.761,-11.986 -21.67,-37.533 -21.67,-37.533l0,-25.022c0,0 -0.925,-50.578 -43.339,-75.066" style="fill:url(#_Linear15);"/><path d="M513.269,435.918l0,25.022" style="fill:none;"/><path d="M449.525,510.254c0,0 21.669,-12.354 21.669,12.511l0,25.022c0,0 0.129,24.948 -21.669,37.533c-21.799,12.586 -21.67,-12.511 -21.67,-12.511l0,-25.022c0,0 0.436,-25.274 21.67,-37.533Z" style="fill:url(#_Linear16);"/><path d="M339.912,110.632l-21.67,-12.511l130.018,-75.066l21.67,12.511l-130.018,75.066Z" style="fill:url(#_Linear17);"/><path d="M350.748,617.327c0,0 -21.4,12.666 0,25.022c21.4,12.355 21.67,12.511 21.67,12.511c0,0 22.213,12.197 0,25.022c-22.214,12.825 0,25.022 0,25.022c0,0 21.173,12.797 43.339,0c22.166,-12.797 43.339,-25.022 43.339,-25.022c0,0 21.217,-12.772 0,-25.022c-21.217,-12.25 -65.009,-37.533 -65.009,-37.533c0,0 -22.109,-12.257 -43.339,0Z" style="fill:url(#_Linear18);"/><path d="M318.242,586.05c0,0 -21.669,11.377 -21.669,37.533c0,24.429 21.669,37.533 21.669,37.533c0,0 21.329,12.708 43.34,0c22.011,-12.708 0,-25.022 0,-25.022c0,0 -21.67,-13.318 -21.67,-37.533c0,-25.966 -21.67,-12.511 -21.67,-12.511Z" style="fill:url(#_Linear19);"/><defs><linearGradient id="_Linear1" x1="0" y1="0" x2="1" y2="0" gradientUnits="userSpaceOnUse" gradientTransform="matrix(86.6819,175.152,-175.152,86.6819,69.0376,667.373)"><stop offset="0" style="stop-color:#ffb185;stop-opacity:1"/><stop offset="0.54" style="stop-color:#bd7a76;stop-opacity:1"/><stop offset="1" style="stop-color:#645573;stop-opacity:1"/></linearGradient><linearGradient id="_Linear2" x1="0" y1="0" x2="1" y2="0" gradientUnits="userSpaceOnUse" gradientTransform="matrix(-198.929,2.43618e-14,-2.43618e-14,-198.929,487.43,130.994)"><stop offset="0" style="stop-color:#024475;stop-opacity:1"/><stop offset="1" style="stop-color:#002141;stop-opacity:1"/></linearGradient><linearGradient id="_Linear3" x1="0" y1="0" x2="1" y2="0" gradientUnits="userSpaceOnUse" gradientTransform="matrix(-111.464,1.36504e-14,-1.36504e-14,-111.464,181.318,392.386)"><stop offset="0" style="stop-color:#024475;stop-opacity:1"/><stop offset="1" style="stop-color:#001f49;stop-opacity:1"/></linearGradient><linearGradient id="_Linear4" x1="0" y1="0" x2="1" y2="0" gradientUnits="userSpaceOnUse" gradientTransform="matrix(-171.081,224.962,-224.962,-171.081,264.265,143.573)"><stop offset="0" style="stop-color:#ffb185;stop-opacity:1"/><stop offset="0.46" style="stop-color:#f48777;stop-opacity:1"/><stop offset="0.61" style="stop-color:#d0837d;stop-opacity:1"/><stop offset="1" style="stop-color:#615473;stop-opacity:1"/></linearGradient><linearGradient id="_Linear5" x1="0" y1="0" x2="1" y2="0" gradientUnits="userSpaceOnUse" gradientTransform="matrix(127.712,-33.4987,33.4987,127.712,188.224,348.341)"><stop offset="0" style="stop-color:#b1777d;stop-opacity:1"/><stop offset="0.64" style="stop-color:#a5727c;stop-opacity:1"/><stop offset="0.84" style="stop-color:#866478;stop-opacity:1"/><stop offset="1" style="stop-color:#615473;stop-opacity:1"/></linearGradient><linearGradient id="_Linear6" x1="0" y1="0" x2="1" y2="0" gradientUnits="userSpaceOnUse" gradientTransform="matrix(11.1429,-51.4821,51.4821,11.1429,58.6512,354.955)"><stop offset="0" style="stop-color:#615473;stop-opacity:1"/><stop offset="1" style="stop-color:#b0777d;stop-opacity:1"/></linearGradient><linearGradient id="_Linear7" x1="0" y1="0" x2="1" y2="0" gradientUnits="userSpaceOnUse" gradientTransform="matrix(-117.693,-4.07497,4.07497,-117.693,185.515,374.927)"><stop offset="0" style="stop-color:#b1777d;stop-opacity:1"/><stop offset="0.18" style="stop-color:#b2797c;stop-opacity:1"/><stop offset="0.36" style="stop-color:#b37e79;stop-opacity:1"/><stop offset="0.69" style="stop-color:#775f75;stop-opacity:1"/><stop offset="1" style="stop-color:#615473;stop-opacity:1"/></linearGradient><linearGradient id="_Linear8" x1="0" y1="0" x2="1" y2="0" gradientUnits="userSpaceOnUse" gradientTransform="matrix(-82.4161,1.00931e-14,-1.00931e-14,-82.4161,318.649,247.494)"><stop offset="0" style="stop-color:#024475;stop-opacity:1"/><stop offset="1" style="stop-color:#002141;stop-opacity:1"/></linearGradient><linearGradient id="_Linear9" x1="0" y1="0" x2="1" y2="0" gradientUnits="userSpaceOnUse" gradientTransform="matrix(84.3433,47.8629,-47.8629,84.3433,168.89,584.702)"><stop offset="0" style="stop-color:#002451;stop-opacity:1"/><stop offset="1" style="stop-color:#024475;stop-opacity:1"/></linearGradient><linearGradient id="_Linear10" x1="0" y1="0" x2="1" y2="0" gradientUnits="userSpaceOnUse" gradientTransform="matrix(-97.9626,-103.965,103.965,-97.9626,144.885,698.965)"><stop offset="0" style="stop-color:#615473;stop-opacity:1"/><stop offset="0.34" style="stop-color:#cf7f76;stop-opacity:1"/><stop offset="1" style="stop-color:#ffb185;stop-opacity:1"/></linearGradient><linearGradient id="_Linear11" x1="0" y1="0" x2="1" y2="0" gradientUnits="userSpaceOnUse" gradientTransform="matrix(-72,87.25,-87.25,-72,241.28,563.263)"><stop offset="0" style="stop-color:#ffb185;stop-opacity:1"/><stop offset="0.54" style="stop-color:#cf7f76;stop-opacity:1"/><stop offset="1" style="stop-color:#615473;stop-opacity:1"/></linearGradient><linearGradient id="_Linear12" x1="0" y1="0" x2="1" y2="0" gradientUnits="userSpaceOnUse" gradientTransform="matrix(53.4577,117.593,-117.593,53.4577,258.33,359.585)"><stop offset="0" style="stop-color:#ffb185;stop-opacity:1"/><stop offset="0.43" style="stop-color:#d08076;stop-opacity:1"/><stop offset="1" style="stop-color:#615473;stop-opacity:1"/></linearGradient><linearGradient id="_Linear13" x1="0" y1="0" x2="1" y2="0" gradientUnits="userSpaceOnUse" gradientTransform="matrix(-108.648,-187.595,187.595,-108.648,390.796,681.885)"><stop offset="0" style="stop-color:#ffb185;stop-opacity:1"/><stop offset="0.69" style="stop-color:#d08076;stop-opacity:1"/><stop offset="1" style="stop-color:#615473;stop-opacity:1"/></linearGradient><linearGradient id="_Linear14" x1="0" y1="0" x2="1" y2="0" gradientUnits="userSpaceOnUse" gradientTransform="matrix(-93.2443,-155.715,155.715,-93.2443,91.0771,554.561)"><stop offset="0" style="stop-color:#615473;stop-opacity:1"/><stop offset="0.38" style="stop-color:#cf7f76;stop-opacity:1"/><stop offset="1" style="stop-color:#ffb185;stop-opacity:1"/></linearGradient><linearGradient id="_Linear15" x1="0" y1="0" x2="1" y2="0" gradientUnits="userSpaceOnUse" gradientTransform="matrix(152.065,275.024,-275.024,152.065,344.304,208.184)"><stop offset="0" style="stop-color:#ffb185;stop-opacity:1"/><stop offset="0.36" style="stop-color:#fda983;stop-opacity:1"/><stop offset="0.72" style="stop-color:#f78f7b;stop-opacity:1"/><stop offset="0.87" style="stop-color:#cb8579;stop-opacity:1"/><stop offset="1" style="stop-color:#6b5874;stop-opacity:1"/></linearGradient><linearGradient id="_Linear16" x1="0" y1="0" x2="1" y2="0" gradientUnits="userSpaceOnUse" gradientTransform="matrix(-0.872125,-74.5489,74.5489,-0.872125,450.397,584.803)"><stop offset="0" style="stop-color:#f7917c;stop-opacity:1"/><stop offset="1" style="stop-color:#665573;stop-opacity:1"/></linearGradient><linearGradient id="_Linear17" x1="0" y1="0" x2="1" y2="0" gradientUnits="userSpaceOnUse" gradientTransform="matrix(173.358,-100.088,100.088,173.358,307.407,116.888)"><stop offset="0" style="stop-color:#ffb185;stop-opacity:1"/><stop offset="0.52" style="stop-color:#e39387;stop-opacity:1"/><stop offset="1" style="stop-color:#615473;stop-opacity:1"/></linearGradient><linearGradient id="_Linear18" x1="0" y1="0" x2="1" y2="0" gradientUnits="userSpaceOnUse" gradientTransform="matrix(-65.0091,-125.11,125.11,-65.0091,426.591,723.671)"><stop offset="0" style="stop-color:#6e5974;stop-opacity:1"/><stop offset="0.42" style="stop-color:#b97876;stop-opacity:1"/><stop offset="1" style="stop-color:#ffb185;stop-opacity:1"/></linearGradient><linearGradient id="_Linear19" x1="0" y1="0" x2="1" y2="0" gradientUnits="userSpaceOnUse" gradientTransform="matrix(40.5497,64.1656,-64.1656,40.5497,321.032,596.95)"><stop offset="0" style="stop-color:#d58578;stop-opacity:1"/><stop offset="1" style="stop-color:#685773;stop-opacity:1"/></linearGradient></defs></svg>