<?xml version="1.0" encoding="UTF-8" standalone="no"?><!DOCTYPE svg PUBLIC "-//W3C//DTD SVG 1.1//EN" "http://www.w3.org/Graphics/SVG/1.1/DTD/svg11.dtd"><svg width="100%" height="100%" viewBox="0 0 534 665" version="1.1" xmlns="http://www.w3.org/2000/svg" xmlns:xlink="http://www.w3.org/1999/xlink" xml:space="preserve" xmlns:serif="http://www.serif.com/" style="fill-rule:evenodd;clip-rule:evenodd;stroke-linejoin:round;stroke-miterlimit:2;"><rect id="Artboard1" x="0" y="0" width="533.892" height="664.667" style="fill:none;"/><path d="M433.106,192.02l0,291.642l21.669,-12.511l0,-291.642l-21.669,12.511Z" style="fill:url(#_Linear1);"/><path d="M433.106,542.328l21.669,-12.511l0,-25.022l-21.669,-12.511l0,50.044Z" style="fill:url(#_Linear2);"/><path d="M389.766,217.042l0,75.066l21.67,12.511l0,-100.088l-21.67,12.511Z" style="fill:url(#_Linear3);"/><path d="M411.436,454.751l0,100.088l-21.67,12.511l0,-125.11l21.67,12.511Z" style="fill:url(#_Linear4);"/><path d="M368.097,454.751l0,125.11l-21.67,12.511l0,-150.132l21.67,12.511Z" style="fill:url(#_Linear5);"/><path d="M108.06,154.487l0,-25.022l-21.669,12.511l21.669,12.511Z" style="fill:#d5948f;"/><path d="M324.757,229.553l21.67,-12.511l0,25.022l-21.67,-12.511Z" style="fill:#d5948f;"/><path d="M129.73,116.954l21.67,-12.511l0,25.022l-21.67,-12.511Z" style="fill:#d5948f;"/><path d="M173.069,91.932l21.67,-12.511l0,25.022l-21.67,-12.511Z" style="fill:#d5948f;"/><path d="M216.409,66.91l21.67,-12.511l0,25.022l-21.67,-12.511Z" style="fill:#d5948f;"/><path d="M368.097,204.531l21.669,-12.511l0,25.022l-21.669,-12.511Z" style="fill:#d5948f;"/><path d="M411.436,179.509l21.67,-12.511l0,25.022l-21.67,-12.511Z" style="fill:#d5948f;"/><path d="M173.069,91.932l0,350.308l21.67,12.511l0,-350.308l-21.67,-12.511Z" style="fill:url(#_Linear6);"/><path d="M86.391,492.284l0,-50.044l21.669,-12.511l0,75.066l-21.669,-12.511Z" style="fill:url(#_Linear7);"/><path d="M216.409,66.91l0,350.308l21.67,12.511l0,-350.308l-21.67,-12.511Z" style="fill:url(#_Linear8);"/><path d="M411.436,429.729l0,100.088l21.67,12.511l0,-100.088l-21.67,-12.511Z" style="fill:url(#_Linear9);"/><path d="M411.436,179.509l0,212.687l21.67,12.511l0,-212.687l-21.67,-12.511Z" style="fill:url(#_Linear10);"/><path d="M368.097,417.218l0,137.621l21.669,12.511l0,-137.621l-21.669,-12.511Z" style="fill:url(#_Linear11);"/><path d="M368.097,204.531l0,162.643l21.669,12.511l0,-162.643l-21.669,-12.511Z" style="fill:url(#_Linear12);"/><path d="M324.757,404.707l0,175.154l21.67,12.511l0,-175.154l-21.67,-12.511Z" style="fill:url(#_Linear13);"/><path d="M216.409,91.932l0,350.308l-21.67,12.511l0,-350.308l21.67,-12.511Z" style="fill:url(#_Linear14);"/><path d="M238.079,79.421l0,350.308l21.669,-12.511l0,-350.308l-21.669,12.511Z" style="fill:url(#_Linear15);"/><path d="M129.73,417.218l0,75.066l-21.67,12.511l0,-75.066l21.67,-12.511Z" style="fill:#dfe7bc;"/><path d="M433.106,417.218l-86.679,-50.044l0,-125.11l21.67,-12.511l0,125.11l86.678,50.044l-21.669,12.511Z" style="fill:url(#_Linear16);"/><path d="M454.775,404.707l0,25.022l-21.669,-12.511l21.669,-12.511Z" style="fill:#d5948f;"/><path d="M498.115,479.773l0,25.022l-21.67,-12.511l21.67,-12.511Z" style="fill:#d5948f;"/><path d="M433.106,442.24l21.669,-12.511l-21.669,-12.511l0,25.022Z" style="fill:#816267;"/><path d="M476.445,517.306l21.67,-12.511l-21.67,-12.511l0,25.022Z" style="fill:#816267;"/><path d="M86.391,141.976l0,250.22l21.669,12.511l0,-250.22l-21.669,-12.511Z" style="fill:url(#_Linear17);"/><path d="M303.088,267.086l-21.67,87.577l-65.009,-37.533l-21.67,12.511l-21.67,-12.511l0,-150.132l151.688,87.577l0,125.11l108.349,62.555l21.669,-12.511l0,-25.022l-21.669,-12.511l-65.009,-37.533l0,-75.066l108.348,62.555l0,151.132l-173.357,-101.088l0,-125.11Z" style="fill:url(#_Linear18);"/><path d="M108.06,129.465l-86.678,-50.044l21.669,12.511l0,175.154l43.34,25.022l0,-150.132l21.669,-12.511Z" style="fill:url(#_Linear19);"/><path d="M173.069,342.152l-21.669,-12.511l0,150.132l-21.67,-12.511l0,-350.308l21.67,12.511l0,175.154l43.339,25.022l-21.67,12.511Z" style="fill:url(#_Linear20);"/><path d="M151.4,479.773l21.669,-12.511l0,-125.11l-21.669,-12.511l0,150.132Z" style="fill:#dfe7bc;"/><path d="M216.409,342.152l0,25.022l-151.688,87.577l0,-25.022l151.688,-87.577Z" style="fill:url(#_Linear21);"/><path d="M281.418,403.707l0,201.176l21.67,12.511l0,-201.176l-21.67,-12.511Z" style="fill:url(#_Linear22);"/><path d="M476.445,492.284l0,25.022l-260.036,-150.132l0,-25.022l260.036,150.132Z" style="fill:url(#_Linear23);"/><path d="M194.739,329.641l-43.339,-25.022l0,-175.154l21.669,-12.511l0,175.154l108.349,62.555l0,-100.088l21.67,12.511l0,125.11l-86.679,-50.044l-108.349,62.555l0,-250.22l21.67,-12.511l0,225.198l65.009,-37.533Z" style="fill:url(#_Linear24);"/><path d="M108.06,404.707l-21.669,-12.511l-43.34,25.022l21.67,12.511l43.339,-25.022Z" style="fill:#dfe7bc;"/><path d="M43.051,442.24l21.67,-12.511l0,25.022l-21.67,-12.511Z" style="fill:url(#_Linear25);"/><path d="M43.051,417.218l0,25.022l21.67,-12.511l-21.67,-12.511" style="fill:url(#_Linear26);"/><path d="M498.115,479.773l-21.67,-12.511l0,25.022l21.67,-12.511Z" style="fill:#dfe7bc;"/><path d="M324.757,604.883l0,-175.154l-21.669,-12.511l0,200.176l21.669,-12.511Z" style="fill:url(#_Linear27);"/><path d="M216.409,317.13l65.009,-37.533l0,25.022l-43.339,25.022l-21.67,-12.511Z" style="fill:url(#_Linear28);"/><path d="M259.748,342.152l21.67,-12.511l0,-25.022l-43.339,25.022l21.669,12.511Z" style="fill:url(#_Linear29);"/><path d="M454.775,179.509l-21.669,-12.511l0,25.022l21.669,-12.511Z" style="fill:#816367;"/><path d="M389.766,192.02l0,25.022l21.67,-12.511l-21.67,-12.511Z" style="fill:#816367;"/><path d="M346.427,217.042l21.67,12.511l-21.67,12.511l0,-25.022Z" style="fill:#816367;"/><path d="M303.088,242.064l21.669,12.511l-21.669,12.511l0,-25.022Z" style="fill:#816367;"/><path d="M238.079,54.399l21.669,12.511l-21.669,12.511l0,-25.022Z" style="fill:#816367;"/><path d="M194.739,79.421l21.67,12.511l-21.67,12.511l0,-25.022Z" style="fill:#816367;"/><path d="M151.4,104.443l21.669,12.511l-21.669,12.511l0,-25.022Z" style="fill:#816367;"/><path d="M108.06,129.465l21.67,12.511l-21.67,12.511l0,-25.022Z" style="fill:#816367;"/><path d="M303.088,267.086l0,-25.022l-21.67,12.511l21.67,12.511Z" style="fill:#d5948f;"/><path d="M303.088,267.086l0,-25.022l21.669,12.511l-21.669,12.511Z" style="fill:url(#_Linear30);"/><path d="M346.427,242.064l0,-25.022l21.67,12.511l-21.67,12.511Z" style="fill:url(#_Linear31);"/><path d="M389.766,217.042l0,-25.022l21.67,12.511l-21.67,12.511Z" style="fill:url(#_Linear32);"/><path d="M281.418,254.575l21.67,12.511l0,-25.022l-21.67,12.511" style="fill:url(#_Linear33);"/><path d="M324.757,229.553l21.67,12.511l0,-25.022l-21.67,12.511" style="fill:url(#_Linear34);"/><path d="M368.097,204.531l21.669,12.511l0,-25.022l-21.669,12.511" style="fill:url(#_Linear35);"/><path d="M64.721,429.729l-21.67,12.511l0,-25.022l21.67,12.511Z" style="fill:url(#_Linear36);"/><path d="M433.106,417.218l21.669,12.511l-21.669,12.511l0,-25.022Z" style="fill:url(#_Linear37);"/><path d="M476.445,492.284l21.67,12.511l-21.67,12.511l0,-25.022Z" style="fill:url(#_Linear38);"/><path d="M64.721,454.751l0,-25.022l-21.67,12.511l21.67,12.511" style="fill:url(#_Linear39);"/><path d="M454.775,404.707l-21.669,12.511l21.669,12.511l0,-25.022" style="fill:url(#_Linear40);"/><path d="M498.115,479.773l-21.67,12.511l21.67,12.511l0,-25.022" style="fill:url(#_Linear41);"/><path d="M238.079,79.421l0,-25.022l21.669,12.511l-21.669,12.511Z" style="fill:url(#_Linear42);"/><path d="M389.766,217.042l0,-25.022l21.67,12.511l-21.67,12.511Z" style="fill:url(#_Linear43);"/><path d="M194.739,104.443l0,-25.022l21.67,12.511l-21.67,12.511Z" style="fill:url(#_Linear44);"/><path d="M346.427,242.064l0,-25.022l21.67,12.511l-21.67,12.511Z" style="fill:url(#_Linear45);"/><path d="M151.4,129.465l0,-25.022l21.669,12.511l-21.669,12.511Z" style="fill:url(#_Linear46);"/><path d="M303.088,267.086l0,-25.022l21.669,12.511l-21.669,12.511Z" style="fill:url(#_Linear47);"/><path d="M108.06,154.487l0,-25.022l21.67,12.511l-21.67,12.511Z" style="fill:url(#_Linear48);"/><path d="M216.409,66.91l21.67,12.511l0,-25.022l-21.67,12.511" style="fill:url(#_Linear49);"/><path d="M368.097,204.531l21.669,12.511l0,-25.022l-21.669,12.511" style="fill:url(#_Linear50);"/><path d="M173.069,91.932l21.67,12.511l0,-25.022l-21.67,12.511" style="fill:url(#_Linear51);"/><path d="M324.757,229.553l21.67,12.511l0,-25.022l-21.67,12.511" style="fill:url(#_Linear52);"/><path d="M129.73,116.954l21.67,12.511l0,-25.022l-21.67,12.511" style="fill:url(#_Linear53);"/><path d="M281.418,254.575l21.67,12.511l0,-25.022l-21.67,12.511" style="fill:url(#_Linear54);"/><path d="M86.391,141.976l21.669,12.511l0,-25.022l-21.669,12.511" style="fill:url(#_Linear55);"/><path d="M433.106,192.02l0,-25.022l21.669,12.511l-21.669,12.511Z" style="fill:url(#_Linear56);"/><path d="M238.079,79.421l0,-25.022l21.669,12.511l-21.669,12.511Z" style="fill:url(#_Linear57);"/><path d="M389.766,217.042l0,-25.022l21.67,12.511l-21.67,12.511Z" style="fill:url(#_Linear58);"/><path d="M194.739,104.443l0,-25.022l21.67,12.511l-21.67,12.511Z" style="fill:url(#_Linear59);"/><path d="M346.427,242.064l0,-25.022l21.67,12.511l-21.67,12.511Z" style="fill:url(#_Linear60);"/><path d="M151.4,129.465l0,-25.022l21.669,12.511l-21.669,12.511Z" style="fill:url(#_Linear61);"/><path d="M303.088,267.086l0,-25.022l21.669,12.511l-21.669,12.511Z" style="fill:url(#_Linear62);"/><path d="M433.106,417.218l21.669,12.511l-21.669,12.511l0,-25.022Z" style="fill:url(#_Linear63);"/><path d="M476.445,492.284l21.67,12.511l-21.67,12.511l0,-25.022Z" style="fill:url(#_Linear64);"/><path d="M64.721,429.729l-21.67,12.511l0,-25.022l21.67,12.511Z" style="fill:url(#_Linear65);"/><path d="M108.06,154.487l0,-25.022l21.67,12.511l-21.67,12.511Z" style="fill:url(#_Linear66);"/><path d="M411.436,179.509l21.67,12.511l0,-25.022l-21.67,12.511" style="fill:url(#_Linear67);"/><path d="M216.409,66.91l21.67,12.511l0,-25.022l-21.67,12.511" style="fill:url(#_Linear68);"/><path d="M368.097,204.531l21.669,12.511l0,-25.022l-21.669,12.511" style="fill:url(#_Linear69);"/><path d="M173.069,91.932l21.67,12.511l0,-25.022l-21.67,12.511" style="fill:url(#_Linear70);"/><path d="M324.757,229.553l21.67,12.511l0,-25.022l-21.67,12.511" style="fill:url(#_Linear71);"/><path d="M129.73,116.954l21.67,12.511l0,-25.022l-21.67,12.511" style="fill:url(#_Linear72);"/><path d="M281.418,254.575l21.67,12.511l0,-25.022l-21.67,12.511" style="fill:url(#_Linear73);"/><path d="M454.775,404.707l-21.669,12.511l21.669,12.511l0,-25.022" style="fill:url(#_Linear74);"/><path d="M498.115,479.773l-21.67,12.511l21.67,12.511l0,-25.022" style="fill:url(#_Linear75);"/><path d="M64.721,454.751l0,-25.022l-21.67,12.511l21.67,12.511" style="fill:url(#_Linear76);"/><path d="M86.391,141.976l21.669,12.511l0,-25.022l-21.669,12.511" style="fill:url(#_Linear77);"/><defs><linearGradient id="_Linear1" x1="0" y1="0" x2="1" y2="0" gradientUnits="userSpaceOnUse" gradientTransform="matrix(12.3974,-342.161,342.161,12.3974,442.378,521.671)"><stop offset="0" style="stop-color:#dfe7bc;stop-opacity:1"/><stop offset="1" style="stop-color:#72b2ad;stop-opacity:1"/></linearGradient><linearGradient id="_Linear2" x1="0" y1="0" x2="1" y2="0" gradientUnits="userSpaceOnUse" gradientTransform="matrix(0.532789,137.313,-137.313,0.532789,439.45,413.556)"><stop offset="0" style="stop-color:#72b2ad;stop-opacity:1"/><stop offset="1" style="stop-color:#dbe5bc;stop-opacity:1"/></linearGradient><linearGradient id="_Linear3" x1="0" y1="0" x2="1" y2="0" gradientUnits="userSpaceOnUse" gradientTransform="matrix(3.06305,-320.266,320.266,3.06305,397.045,531.337)"><stop offset="0" style="stop-color:#dfe7bc;stop-opacity:1"/><stop offset="1" style="stop-color:#72b2ad;stop-opacity:1"/></linearGradient><linearGradient id="_Linear4" x1="0" y1="0" x2="1" y2="0" gradientUnits="userSpaceOnUse" gradientTransform="matrix(3.75,-240.5,240.5,3.75,351.589,572.091)"><stop offset="0" style="stop-color:#dfe7bc;stop-opacity:1"/><stop offset="1" style="stop-color:#72b2ad;stop-opacity:1"/></linearGradient><linearGradient id="_Linear5" x1="0" y1="0" x2="1" y2="0" gradientUnits="userSpaceOnUse" gradientTransform="matrix(3.75,-240.5,240.5,3.75,351.589,572.091)"><stop offset="0" style="stop-color:#dfe7bc;stop-opacity:1"/><stop offset="1" style="stop-color:#72b2ad;stop-opacity:1"/></linearGradient><linearGradient id="_Linear6" x1="0" y1="0" x2="1" y2="0" gradientUnits="userSpaceOnUse" gradientTransform="matrix(-4.33333,-318.333,318.333,-4.33333,185.859,415.747)"><stop offset="0" style="stop-color:#554d50;stop-opacity:1"/><stop offset="1" style="stop-color:#71b1ad;stop-opacity:1"/></linearGradient><linearGradient id="_Linear7" x1="0" y1="0" x2="1" y2="0" gradientUnits="userSpaceOnUse" gradientTransform="matrix(-2.3541,-335.273,335.273,-2.3541,98.7114,483.004)"><stop offset="0" style="stop-color:#554d50;stop-opacity:1"/><stop offset="1" style="stop-color:#71b1ad;stop-opacity:1"/></linearGradient><linearGradient id="_Linear8" x1="0" y1="0" x2="1" y2="0" gradientUnits="userSpaceOnUse" gradientTransform="matrix(1.65177,-333.284,333.284,1.65177,228.68,408.232)"><stop offset="0" style="stop-color:#554d50;stop-opacity:1"/><stop offset="0.1" style="stop-color:#627577;stop-opacity:1"/><stop offset="1" style="stop-color:#71b2ae;stop-opacity:1"/></linearGradient><linearGradient id="_Linear9" x1="0" y1="0" x2="1" y2="0" gradientUnits="userSpaceOnUse" gradientTransform="matrix(-11.3398,343.761,-343.761,-11.3398,433.106,192.02)"><stop offset="0" style="stop-color:#71b2ae;stop-opacity:1"/><stop offset="0.17" style="stop-color:#678888;stop-opacity:1"/><stop offset="0.33" style="stop-color:#63797b;stop-opacity:1"/><stop offset="0.72" style="stop-color:#607173;stop-opacity:1"/><stop offset="0.87" style="stop-color:#5a5f61;stop-opacity:1"/><stop offset="1" style="stop-color:#554d50;stop-opacity:1"/></linearGradient><linearGradient id="_Linear10" x1="0" y1="0" x2="1" y2="0" gradientUnits="userSpaceOnUse" gradientTransform="matrix(-11.3398,343.761,-343.761,-11.3398,433.106,192.02)"><stop offset="0" style="stop-color:#71b2ae;stop-opacity:1"/><stop offset="0.17" style="stop-color:#678888;stop-opacity:1"/><stop offset="0.33" style="stop-color:#63797b;stop-opacity:1"/><stop offset="0.72" style="stop-color:#607173;stop-opacity:1"/><stop offset="0.87" style="stop-color:#5a5f61;stop-opacity:1"/><stop offset="1" style="stop-color:#554d50;stop-opacity:1"/></linearGradient><linearGradient id="_Linear11" x1="0" y1="0" x2="1" y2="0" gradientUnits="userSpaceOnUse" gradientTransform="matrix(9.6,-339.2,339.2,9.6,377.711,559.928)"><stop offset="0" style="stop-color:#554d50;stop-opacity:1"/><stop offset="0.4" style="stop-color:#617274;stop-opacity:1"/><stop offset="0.74" style="stop-color:#668082;stop-opacity:1"/><stop offset="1" style="stop-color:#71b2ae;stop-opacity:1"/></linearGradient><linearGradient id="_Linear12" x1="0" y1="0" x2="1" y2="0" gradientUnits="userSpaceOnUse" gradientTransform="matrix(9.6,-339.2,339.2,9.6,377.711,559.928)"><stop offset="0" style="stop-color:#554d50;stop-opacity:1"/><stop offset="0.4" style="stop-color:#617274;stop-opacity:1"/><stop offset="0.74" style="stop-color:#668082;stop-opacity:1"/><stop offset="1" style="stop-color:#71b2ae;stop-opacity:1"/></linearGradient><linearGradient id="_Linear13" x1="0" y1="0" x2="1" y2="0" gradientUnits="userSpaceOnUse" gradientTransform="matrix(9.6,-339.2,339.2,9.6,334.372,584.95)"><stop offset="0" style="stop-color:#554d50;stop-opacity:1"/><stop offset="0.43" style="stop-color:#5e6d6d;stop-opacity:1"/><stop offset="1" style="stop-color:#71b2ae;stop-opacity:1"/></linearGradient><linearGradient id="_Linear14" x1="0" y1="0" x2="1" y2="0" gradientUnits="userSpaceOnUse" gradientTransform="matrix(0.540954,-326.331,326.331,0.540954,207.525,423.08)"><stop offset="0" style="stop-color:#dfe7bc;stop-opacity:1"/><stop offset="1" style="stop-color:#94c3b3;stop-opacity:1"/></linearGradient><linearGradient id="_Linear15" x1="0" y1="0" x2="1" y2="0" gradientUnits="userSpaceOnUse" gradientTransform="matrix(6.94228,-316.05,316.05,6.94228,249.711,342.671)"><stop offset="0" style="stop-color:#dfe7bc;stop-opacity:1"/><stop offset="1" style="stop-color:#71b1ad;stop-opacity:1"/></linearGradient><linearGradient id="_Linear16" x1="0" y1="0" x2="1" y2="0" gradientUnits="userSpaceOnUse" gradientTransform="matrix(6.02192,-126.629,126.629,6.02192,354.898,360.326)"><stop offset="0" style="stop-color:#dfe7bc;stop-opacity:1"/><stop offset="1" style="stop-color:#72b2ad;stop-opacity:1"/></linearGradient><linearGradient id="_Linear17" x1="0" y1="0" x2="1" y2="0" gradientUnits="userSpaceOnUse" gradientTransform="matrix(-2.3541,-335.273,335.273,-2.3541,98.7114,483.004)"><stop offset="0" style="stop-color:#554d50;stop-opacity:1"/><stop offset="1" style="stop-color:#71b1ad;stop-opacity:1"/></linearGradient><linearGradient id="_Linear18" x1="0" y1="0" x2="1" y2="0" gradientUnits="userSpaceOnUse" gradientTransform="matrix(-163.744,-214.789,214.789,-163.744,407.974,438.522)"><stop offset="0" style="stop-color:#363334;stop-opacity:1"/><stop offset="1" style="stop-color:#71b1ad;stop-opacity:1"/></linearGradient><linearGradient id="_Linear19" x1="0" y1="0" x2="1" y2="0" gradientUnits="userSpaceOnUse" gradientTransform="matrix(-49.4921,-134.894,134.894,-49.4921,76.7943,230.245)"><stop offset="0" style="stop-color:#71b1ad;stop-opacity:1"/><stop offset="1" style="stop-color:#8cbebb;stop-opacity:1"/></linearGradient><linearGradient id="_Linear20" x1="0" y1="0" x2="1" y2="0" gradientUnits="userSpaceOnUse" gradientTransform="matrix(-6.8857,-347.71,347.71,-6.8857,145.078,476.123)"><stop offset="0" style="stop-color:#554d50;stop-opacity:1"/><stop offset="1" style="stop-color:#71b1ad;stop-opacity:1"/></linearGradient><linearGradient id="_Linear21" x1="0" y1="0" x2="1" y2="0" gradientUnits="userSpaceOnUse" gradientTransform="matrix(259.527,-145.2,145.2,259.527,65.23,439.782)"><stop offset="0" style="stop-color:#dfe7bc;stop-opacity:1"/><stop offset="1" style="stop-color:#37616a;stop-opacity:1"/></linearGradient><linearGradient id="_Linear22" x1="0" y1="0" x2="1" y2="0" gradientUnits="userSpaceOnUse" gradientTransform="matrix(-17,-451.828,451.828,-17,281.418,550.653)"><stop offset="0" style="stop-color:#554d50;stop-opacity:1"/><stop offset="1" style="stop-color:#72b0ac;stop-opacity:1"/></linearGradient><linearGradient id="_Linear23" x1="0" y1="0" x2="1" y2="0" gradientUnits="userSpaceOnUse" gradientTransform="matrix(50.0964,-43.2263,43.2263,50.0964,303.088,439.324)"><stop offset="0" style="stop-color:#627577;stop-opacity:1"/><stop offset="1" style="stop-color:#363334;stop-opacity:1"/></linearGradient><linearGradient id="_Linear24" x1="0" y1="0" x2="1" y2="0" gradientUnits="userSpaceOnUse" gradientTransform="matrix(-195.027,107.429,-107.429,-195.027,303.088,267.086)"><stop offset="0" style="stop-color:#71b2ae;stop-opacity:1"/><stop offset="1" style="stop-color:#dfe7bc;stop-opacity:1"/></linearGradient><linearGradient id="_Linear25" x1="0" y1="0" x2="1" y2="0" gradientUnits="userSpaceOnUse" gradientTransform="matrix(18.9395,-24.241,24.241,18.9395,45.7815,453.97)"><stop offset="0" style="stop-color:#000004;stop-opacity:1"/><stop offset="1" style="stop-color:#005f8f;stop-opacity:1"/></linearGradient><linearGradient id="_Linear26" x1="0" y1="0" x2="1" y2="0" gradientUnits="userSpaceOnUse" gradientTransform="matrix(23.7146,2.03421,-2.03421,23.7146,41.0065,427.695)"><stop offset="0" style="stop-color:#28282e;stop-opacity:1"/><stop offset="1" style="stop-color:#005f8f;stop-opacity:1"/></linearGradient><linearGradient id="_Linear27" x1="0" y1="0" x2="1" y2="0" gradientUnits="userSpaceOnUse" gradientTransform="matrix(3.75,-240.5,240.5,3.75,351.589,572.091)"><stop offset="0" style="stop-color:#dfe7bc;stop-opacity:1"/><stop offset="1" style="stop-color:#72b2ad;stop-opacity:1"/></linearGradient><linearGradient id="_Linear28" x1="0" y1="0" x2="1" y2="0" gradientUnits="userSpaceOnUse" gradientTransform="matrix(-104.067,35.7667,-35.7667,-104.067,292.564,286.326)"><stop offset="0" style="stop-color:#dfe7bc;stop-opacity:1"/><stop offset="1" style="stop-color:#72b2ad;stop-opacity:1"/></linearGradient><linearGradient id="_Linear29" x1="0" y1="0" x2="1" y2="0" gradientUnits="userSpaceOnUse" gradientTransform="matrix(259.527,-179.436,179.436,259.527,65.23,439.782)"><stop offset="0" style="stop-color:#dfe7bc;stop-opacity:1"/><stop offset="1" style="stop-color:#37616a;stop-opacity:1"/></linearGradient><linearGradient id="_Linear30" x1="0" y1="0" x2="1" y2="0" gradientUnits="userSpaceOnUse" gradientTransform="matrix(-11.5235,-28.5226,28.5226,-11.5235,314.611,270.587)"><stop offset="0" style="stop-color:#000004;stop-opacity:1"/><stop offset="1" style="stop-color:#005f8f;stop-opacity:1"/></linearGradient><linearGradient id="_Linear31" x1="0" y1="0" x2="1" y2="0" gradientUnits="userSpaceOnUse" gradientTransform="matrix(-11.5235,-28.5226,28.5226,-11.5235,357.951,245.565)"><stop offset="0" style="stop-color:#000004;stop-opacity:1"/><stop offset="1" style="stop-color:#005f8f;stop-opacity:1"/></linearGradient><linearGradient id="_Linear32" x1="0" y1="0" x2="1" y2="0" gradientUnits="userSpaceOnUse" gradientTransform="matrix(-11.5235,-28.5226,28.5226,-11.5235,401.29,220.543)"><stop offset="0" style="stop-color:#000004;stop-opacity:1"/><stop offset="1" style="stop-color:#005f8f;stop-opacity:1"/></linearGradient><linearGradient id="_Linear33" x1="0" y1="0" x2="1" y2="0" gradientUnits="userSpaceOnUse" gradientTransform="matrix(13.619,-19.5203,19.5203,13.619,289.469,261.585)"><stop offset="0" style="stop-color:#28282e;stop-opacity:1"/><stop offset="1" style="stop-color:#005f8f;stop-opacity:1"/></linearGradient><linearGradient id="_Linear34" x1="0" y1="0" x2="1" y2="0" gradientUnits="userSpaceOnUse" gradientTransform="matrix(13.619,-19.5203,19.5203,13.619,332.808,236.563)"><stop offset="0" style="stop-color:#28282e;stop-opacity:1"/><stop offset="1" style="stop-color:#005f8f;stop-opacity:1"/></linearGradient><linearGradient id="_Linear35" x1="0" y1="0" x2="1" y2="0" gradientUnits="userSpaceOnUse" gradientTransform="matrix(13.619,-19.5203,19.5203,13.619,376.147,211.541)"><stop offset="0" style="stop-color:#28282e;stop-opacity:1"/><stop offset="1" style="stop-color:#005f8f;stop-opacity:1"/></linearGradient><linearGradient id="_Linear36" x1="0" y1="0" x2="1" y2="0" gradientUnits="userSpaceOnUse" gradientTransform="matrix(-42.5997,24.5949,-24.5949,-42.5997,85.6511,417.645)"><stop offset="0" style="stop-color:#000004;stop-opacity:1"/><stop offset="1" style="stop-color:#dfe7bc;stop-opacity:1"/></linearGradient><linearGradient id="_Linear37" x1="0" y1="0" x2="1" y2="0" gradientUnits="userSpaceOnUse" gradientTransform="matrix(42.5997,24.5949,-24.5949,42.5997,412.176,405.134)"><stop offset="0" style="stop-color:#000004;stop-opacity:1"/><stop offset="1" style="stop-color:#dfe7bc;stop-opacity:1"/></linearGradient><linearGradient id="_Linear38" x1="0" y1="0" x2="1" y2="0" gradientUnits="userSpaceOnUse" gradientTransform="matrix(55.0107,18.2836,-18.2836,55.0107,443.104,486.512)"><stop offset="0" style="stop-color:#000004;stop-opacity:1"/><stop offset="1" style="stop-color:#dfe7bc;stop-opacity:1"/></linearGradient><linearGradient id="_Linear39" x1="0" y1="0" x2="1" y2="0" gradientUnits="userSpaceOnUse" gradientTransform="matrix(-38.8674,22.4401,-22.4401,-38.8674,81.9188,419.8)"><stop offset="0" style="stop-color:#28282e;stop-opacity:1"/><stop offset="1" style="stop-color:#dfe7bc;stop-opacity:1"/></linearGradient><linearGradient id="_Linear40" x1="0" y1="0" x2="1" y2="0" gradientUnits="userSpaceOnUse" gradientTransform="matrix(38.8674,22.4401,-22.4401,38.8674,415.908,407.289)"><stop offset="0" style="stop-color:#28282e;stop-opacity:1"/><stop offset="1" style="stop-color:#dfe7bc;stop-opacity:1"/></linearGradient><linearGradient id="_Linear41" x1="0" y1="0" x2="1" y2="0" gradientUnits="userSpaceOnUse" gradientTransform="matrix(47.1677,19.6733,-19.6733,47.1677,450.947,485.122)"><stop offset="0" style="stop-color:#28282e;stop-opacity:1"/><stop offset="1" style="stop-color:#dfe7bc;stop-opacity:1"/></linearGradient><linearGradient id="_Linear42" x1="0" y1="0" x2="1" y2="0" gradientUnits="userSpaceOnUse" gradientTransform="matrix(0.220301,-21.9918,21.9918,0.220301,247.991,78.282)"><stop offset="0" style="stop-color:#3f4346;stop-opacity:1"/><stop offset="1" style="stop-color:#71b2ae;stop-opacity:1"/></linearGradient><linearGradient id="_Linear43" x1="0" y1="0" x2="1" y2="0" gradientUnits="userSpaceOnUse" gradientTransform="matrix(1.77636e-15,-22.2512,22.2512,1.77636e-15,399.679,216.739)"><stop offset="0" style="stop-color:#3f4346;stop-opacity:1"/><stop offset="1" style="stop-color:#71b2ae;stop-opacity:1"/></linearGradient><linearGradient id="_Linear44" x1="0" y1="0" x2="1" y2="0" gradientUnits="userSpaceOnUse" gradientTransform="matrix(-0.11015,-25.6268,25.6268,-0.11015,204.762,106.498)"><stop offset="0" style="stop-color:#3f4346;stop-opacity:1"/><stop offset="1" style="stop-color:#71b2ae;stop-opacity:1"/></linearGradient><linearGradient id="_Linear45" x1="0" y1="0" x2="1" y2="0" gradientUnits="userSpaceOnUse" gradientTransform="matrix(1.77636e-15,-25.6512,25.6512,1.77636e-15,356.339,242.861)"><stop offset="0" style="stop-color:#3f4346;stop-opacity:1"/><stop offset="1" style="stop-color:#71b2ae;stop-opacity:1"/></linearGradient><linearGradient id="_Linear46" x1="0" y1="0" x2="1" y2="0" gradientUnits="userSpaceOnUse" gradientTransform="matrix(1.77636e-15,-25.2963,25.2963,1.77636e-15,161.312,129.207)"><stop offset="0" style="stop-color:#3f4346;stop-opacity:1"/><stop offset="1" style="stop-color:#71b2ae;stop-opacity:1"/></linearGradient><linearGradient id="_Linear47" x1="0" y1="0" x2="1" y2="0" gradientUnits="userSpaceOnUse" gradientTransform="matrix(1.77636e-15,-21.5512,21.5512,1.77636e-15,313,263.083)"><stop offset="0" style="stop-color:#3f4346;stop-opacity:1"/><stop offset="1" style="stop-color:#71b2ae;stop-opacity:1"/></linearGradient><linearGradient id="_Linear48" x1="0" y1="0" x2="1" y2="0" gradientUnits="userSpaceOnUse" gradientTransform="matrix(0,-28.1602,28.1602,0,117.973,155.221)"><stop offset="0" style="stop-color:#3f4346;stop-opacity:1"/><stop offset="1" style="stop-color:#71b2ae;stop-opacity:1"/></linearGradient><linearGradient id="_Linear49" x1="0" y1="0" x2="1" y2="0" gradientUnits="userSpaceOnUse" gradientTransform="matrix(-0.11015,-26.2904,26.2904,-0.11015,225.524,81.9072)"><stop offset="0" style="stop-color:#3f4244;stop-opacity:1"/><stop offset="1" style="stop-color:#71b2ae;stop-opacity:1"/></linearGradient><linearGradient id="_Linear50" x1="0" y1="0" x2="1" y2="0" gradientUnits="userSpaceOnUse" gradientTransform="matrix(0,-30.3718,30.3718,0,377.322,224.227)"><stop offset="0" style="stop-color:#3f4244;stop-opacity:1"/><stop offset="1" style="stop-color:#71b2ae;stop-opacity:1"/></linearGradient><linearGradient id="_Linear51" x1="0" y1="0" x2="1" y2="0" gradientUnits="userSpaceOnUse" gradientTransform="matrix(-0.660902,-28.4934,28.4934,-0.660902,182.956,107.15)"><stop offset="0" style="stop-color:#3f4244;stop-opacity:1"/><stop offset="1" style="stop-color:#71b2ae;stop-opacity:1"/></linearGradient><linearGradient id="_Linear52" x1="0" y1="0" x2="1" y2="0" gradientUnits="userSpaceOnUse" gradientTransform="matrix(1.77636e-15,-29.1136,29.1136,1.77636e-15,333.983,247.391)"><stop offset="0" style="stop-color:#3f4244;stop-opacity:1"/><stop offset="1" style="stop-color:#71b2ae;stop-opacity:1"/></linearGradient><linearGradient id="_Linear53" x1="0" y1="0" x2="1" y2="0" gradientUnits="userSpaceOnUse" gradientTransform="matrix(-0.11015,-24.3077,24.3077,-0.11015,138.956,125.342)"><stop offset="0" style="stop-color:#3f4244;stop-opacity:1"/><stop offset="1" style="stop-color:#71b2ae;stop-opacity:1"/></linearGradient><linearGradient id="_Linear54" x1="0" y1="0" x2="1" y2="0" gradientUnits="userSpaceOnUse" gradientTransform="matrix(0,-25.299,25.299,0,290.644,266.598)"><stop offset="0" style="stop-color:#3f4244;stop-opacity:1"/><stop offset="1" style="stop-color:#71b2ae;stop-opacity:1"/></linearGradient><linearGradient id="_Linear55" x1="0" y1="0" x2="1" y2="0" gradientUnits="userSpaceOnUse" gradientTransform="matrix(0,-28.1629,28.1629,0,95.6164,153.999)"><stop offset="0" style="stop-color:#3f4244;stop-opacity:1"/><stop offset="1" style="stop-color:#71b2ae;stop-opacity:1"/></linearGradient><linearGradient id="_Linear56" x1="0" y1="0" x2="1" y2="0" gradientUnits="userSpaceOnUse" gradientTransform="matrix(2.4576,-25.0304,25.0304,2.4576,443.018,191.953)"><stop offset="0" style="stop-color:#3f4346;stop-opacity:1"/><stop offset="1" style="stop-color:#da9ac1;stop-opacity:1"/></linearGradient><linearGradient id="_Linear57" x1="0" y1="0" x2="1" y2="0" gradientUnits="userSpaceOnUse" gradientTransform="matrix(2.4576,-25.0304,25.0304,2.4576,247.991,79.3541)"><stop offset="0" style="stop-color:#3f4346;stop-opacity:1"/><stop offset="1" style="stop-color:#da9ac1;stop-opacity:1"/></linearGradient><linearGradient id="_Linear58" x1="0" y1="0" x2="1" y2="0" gradientUnits="userSpaceOnUse" gradientTransform="matrix(2.4576,-25.0304,25.0304,2.4576,399.679,216.975)"><stop offset="0" style="stop-color:#3f4346;stop-opacity:1"/><stop offset="1" style="stop-color:#da9ac1;stop-opacity:1"/></linearGradient><linearGradient id="_Linear59" x1="0" y1="0" x2="1" y2="0" gradientUnits="userSpaceOnUse" gradientTransform="matrix(2.4576,-25.0304,25.0304,2.4576,204.651,104.376)"><stop offset="0" style="stop-color:#3f4346;stop-opacity:1"/><stop offset="1" style="stop-color:#da9ac1;stop-opacity:1"/></linearGradient><linearGradient id="_Linear60" x1="0" y1="0" x2="1" y2="0" gradientUnits="userSpaceOnUse" gradientTransform="matrix(2.4576,-25.0304,25.0304,2.4576,356.339,241.997)"><stop offset="0" style="stop-color:#3f4346;stop-opacity:1"/><stop offset="1" style="stop-color:#da9ac1;stop-opacity:1"/></linearGradient><linearGradient id="_Linear61" x1="0" y1="0" x2="1" y2="0" gradientUnits="userSpaceOnUse" gradientTransform="matrix(2.4576,-25.0304,25.0304,2.4576,161.312,129.398)"><stop offset="0" style="stop-color:#3f4346;stop-opacity:1"/><stop offset="1" style="stop-color:#da9ac1;stop-opacity:1"/></linearGradient><linearGradient id="_Linear62" x1="0" y1="0" x2="1" y2="0" gradientUnits="userSpaceOnUse" gradientTransform="matrix(2.4576,-25.0304,25.0304,2.4576,313,267.019)"><stop offset="0" style="stop-color:#3f4346;stop-opacity:1"/><stop offset="1" style="stop-color:#da9ac1;stop-opacity:1"/></linearGradient><linearGradient id="_Linear63" x1="0" y1="0" x2="1" y2="0" gradientUnits="userSpaceOnUse" gradientTransform="matrix(20.4482,14.6435,-14.6435,20.4482,428.208,425.836)"><stop offset="0" style="stop-color:#3f4346;stop-opacity:1"/><stop offset="1" style="stop-color:#da9ac1;stop-opacity:1"/></linearGradient><linearGradient id="_Linear64" x1="0" y1="0" x2="1" y2="0" gradientUnits="userSpaceOnUse" gradientTransform="matrix(20.4482,14.6435,-14.6435,20.4482,471.547,500.902)"><stop offset="0" style="stop-color:#3f4346;stop-opacity:1"/><stop offset="1" style="stop-color:#da9ac1;stop-opacity:1"/></linearGradient><linearGradient id="_Linear65" x1="0" y1="0" x2="1" y2="0" gradientUnits="userSpaceOnUse" gradientTransform="matrix(-22.9058,10.3869,-10.3869,-22.9058,59.7066,421.179)"><stop offset="0" style="stop-color:#3f4346;stop-opacity:1"/><stop offset="1" style="stop-color:#da9ac1;stop-opacity:1"/></linearGradient><linearGradient id="_Linear66" x1="0" y1="0" x2="1" y2="0" gradientUnits="userSpaceOnUse" gradientTransform="matrix(2.4576,-25.0304,25.0304,2.4576,117.973,154.42)"><stop offset="0" style="stop-color:#3f4346;stop-opacity:1"/><stop offset="1" style="stop-color:#da9ac1;stop-opacity:1"/></linearGradient><linearGradient id="_Linear67" x1="0" y1="0" x2="1" y2="0" gradientUnits="userSpaceOnUse" gradientTransform="matrix(-5.11165,-26.4259,26.4259,-5.11165,426.221,195.995)"><stop offset="0" style="stop-color:#3f4244;stop-opacity:1"/><stop offset="1" style="stop-color:#d799c0;stop-opacity:1"/></linearGradient><linearGradient id="_Linear68" x1="0" y1="0" x2="1" y2="0" gradientUnits="userSpaceOnUse" gradientTransform="matrix(-5.11165,-26.4259,26.4259,-5.11165,231.194,83.396)"><stop offset="0" style="stop-color:#3f4244;stop-opacity:1"/><stop offset="1" style="stop-color:#d799c0;stop-opacity:1"/></linearGradient><linearGradient id="_Linear69" x1="0" y1="0" x2="1" y2="0" gradientUnits="userSpaceOnUse" gradientTransform="matrix(-5.11165,-26.4259,26.4259,-5.11165,382.882,221.017)"><stop offset="0" style="stop-color:#3f4244;stop-opacity:1"/><stop offset="1" style="stop-color:#d799c0;stop-opacity:1"/></linearGradient><linearGradient id="_Linear70" x1="0" y1="0" x2="1" y2="0" gradientUnits="userSpaceOnUse" gradientTransform="matrix(-5.11165,-26.4259,26.4259,-5.11165,187.855,108.418)"><stop offset="0" style="stop-color:#3f4244;stop-opacity:1"/><stop offset="1" style="stop-color:#d799c0;stop-opacity:1"/></linearGradient><linearGradient id="_Linear71" x1="0" y1="0" x2="1" y2="0" gradientUnits="userSpaceOnUse" gradientTransform="matrix(-5.11165,-26.4259,26.4259,-5.11165,339.543,246.039)"><stop offset="0" style="stop-color:#3f4244;stop-opacity:1"/><stop offset="1" style="stop-color:#d799c0;stop-opacity:1"/></linearGradient><linearGradient id="_Linear72" x1="0" y1="0" x2="1" y2="0" gradientUnits="userSpaceOnUse" gradientTransform="matrix(-5.11165,-26.4259,26.4259,-5.11165,144.515,133.44)"><stop offset="0" style="stop-color:#3f4244;stop-opacity:1"/><stop offset="1" style="stop-color:#d799c0;stop-opacity:1"/></linearGradient><linearGradient id="_Linear73" x1="0" y1="0" x2="1" y2="0" gradientUnits="userSpaceOnUse" gradientTransform="matrix(-5.11165,-26.4259,26.4259,-5.11165,296.203,271.061)"><stop offset="0" style="stop-color:#3f4244;stop-opacity:1"/><stop offset="1" style="stop-color:#d799c0;stop-opacity:1"/></linearGradient><linearGradient id="_Linear74" x1="0" y1="0" x2="1" y2="0" gradientUnits="userSpaceOnUse" gradientTransform="matrix(25.4413,8.78613,-8.78613,25.4413,433.106,409.269)"><stop offset="0" style="stop-color:#3f4244;stop-opacity:1"/><stop offset="1" style="stop-color:#d799c0;stop-opacity:1"/></linearGradient><linearGradient id="_Linear75" x1="0" y1="0" x2="1" y2="0" gradientUnits="userSpaceOnUse" gradientTransform="matrix(25.4413,8.78613,-8.78613,25.4413,476.445,484.335)"><stop offset="0" style="stop-color:#3f4244;stop-opacity:1"/><stop offset="1" style="stop-color:#d799c0;stop-opacity:1"/></linearGradient><linearGradient id="_Linear76" x1="0" y1="0" x2="1" y2="0" gradientUnits="userSpaceOnUse" gradientTransform="matrix(-20.3297,17.6398,-17.6398,-20.3297,71.6055,433.704)"><stop offset="0" style="stop-color:#3f4244;stop-opacity:1"/><stop offset="1" style="stop-color:#d799c0;stop-opacity:1"/></linearGradient><linearGradient id="_Linear77" x1="0" y1="0" x2="1" y2="0" gradientUnits="userSpaceOnUse" gradientTransform="matrix(-5.11165,-26.4259,26.4259,-5.11165,101.176,158.462)"><stop offset="0" style="stop-color:#3f4244;stop-opacity:1"/><stop offset="1" style="stop-color:#d799c0;stop-opacity:1"/></linearGradient></defs></svg>