<?xml version="1.0" encoding="UTF-8" standalone="no"?><!DOCTYPE svg PUBLIC "-//W3C//DTD SVG 1.1//EN" "http://www.w3.org/Graphics/SVG/1.1/DTD/svg11.dtd"><svg width="100%" height="100%" viewBox="0 0 1041 1070" version="1.1" xmlns="http://www.w3.org/2000/svg" xmlns:xlink="http://www.w3.org/1999/xlink" xml:space="preserve" xmlns:serif="http://www.serif.com/" style="fill-rule:evenodd;clip-rule:evenodd;stroke-linecap:round;stroke-linejoin:round;stroke-miterlimit:1.5;"><rect id="Artboard1" x="0" y="0" width="1040.56" height="1069.27" style="fill:none;"/><path d="M244.322,702.202l-151.687,-87.577l0,200.176l151.687,87.577l0,-200.176Z" style="fill:#fff;stroke:#000004;stroke-width:3px;"/><path d="M287.662,376.916l-195.027,-112.599l0,125.11l195.027,112.599l0,-125.11Z" style="fill:#fff;stroke:#000004;stroke-width:3px;"/><path d="M92.635,614.625l574.256,-331.547l151.688,87.577l-574.257,331.547l-151.687,-87.577Z" style="fill:#fff;stroke:#000004;stroke-width:3px;"/><path d="M92.635,264.317l379.229,-218.948l195.027,112.599l-379.229,218.948l-195.027,-112.599Z" style="fill:#fff;stroke:#000004;stroke-width:3px;"/><path d="M818.579,370.655l0,200.176l-574.257,331.547l0,-200.176l574.257,-331.547Z" style="fill:#fff;stroke:#000004;stroke-width:3px;"/><path d="M666.891,157.968l0,125.11l-379.229,218.948l0,-125.11l379.229,-218.948Z" style="fill:#fff;stroke:#000004;stroke-width:3px;"/><path d="M440.855,290.198l-39.054,16.68l-67.238,44.687l-45.396,26.21l0,125.11l24.586,-8.672l33.41,-24.812l7.014,-4.049l0,-50.044c0,0 0.005,-25.026 21.669,-37.533c21.664,-12.508 21.67,12.511 21.67,12.511l0,50.044l29.234,-9.823l14.105,-15.199l0,-125.11Z" style="fill:url(#_Linear1);"/><path d="M332.507,853.193l-34.111,31.339l-52.568,18.705l0,-200.176c41.094,-23.726 66.521,-65.784 107.614,-89.51c31.139,-17.978 77.944,-17.622 109.083,-35.6l0,100.088c0,0 -0.249,50.187 21.67,37.533c42.856,-24.743 43.338,24.943 43.339,25.022l-53.086,47.32l-98.602,40.257l0,-12.511l0,-37.533c0,0 0.14,-25.103 -21.669,-12.511c-21.81,12.591 -21.67,37.533 -21.67,37.533l0,50.044Zm216.697,-133.857l0,-191.429l9.347,-31.144l33.992,6.122l0,200.176l-9.484,19.558l-33.855,5.464l0,-8.747Z" style="fill:url(#_Linear2);"/><path d="M700.922,440.336l-0.03,-0.006l-21.67,-12.511c-22.586,-13.04 -43.34,0 -43.34,0c0,0 -54.795,30.918 -97.513,6.255c0,0 -54.114,-31.312 0,-62.555c0.137,-0.079 54.383,-18.646 10.835,-43.788c-43.548,-25.143 -43.34,-25.022 -43.34,-25.022c0,0 -86.531,-50.13 -21.669,-87.577c0,0 43.48,-24.941 21.669,-37.533c-21.81,-12.593 -43.339,0 -43.339,0c-43.311,25.005 -86.679,0 -86.679,0l-43.339,-25.022l10.835,-6.256l43.339,25.022c0,0 32.683,18.664 65.009,0c43.381,-25.046 75.844,-6.255 75.844,-6.255c0,0 43.417,24.977 -21.67,62.555c-42.914,24.776 0,50.044 0,50.044l65.009,37.533c65.179,37.631 21.67,62.555 21.67,62.555l-10.835,6.255c0,0 -32.314,18.876 -10.835,31.278c21.48,12.401 43.34,0 43.34,0c43.314,-25.008 86.679,0 86.679,0c0,0 65.241,37.398 130.018,0l0.126,-0.071c2.596,-1.436 44.795,-24.038 86.552,0.071c43.105,24.886 0,50.044 0,50.044l-21.669,12.511c-21.461,12.391 0,25.022 0,25.022c0,0 64.995,37.541 0,75.066c-43.374,25.041 -86.679,0 -86.679,0c-43.526,-25.13 -21.804,-87.499 -108.348,-37.533c0,0 -43.098,25.161 21.669,62.555c64.768,37.393 21.67,62.555 21.67,62.555l-43.339,25.022c-64.581,37.285 -21.761,62.501 -21.67,62.555l43.339,25.022c0,0 65.159,37.446 0,75.066c-65.159,37.619 -108.348,12.511 -108.348,12.511c0,0 -22.111,-12.257 -43.34,0c-21.228,12.256 0,25.022 0,25.022c0,0 64.133,38.039 0,75.066c-64.132,37.026 -108.348,12.511 -108.348,12.511c-43.16,-24.919 -86.907,0.132 -130.018,25.022c-43.111,24.89 -86.679,0 -86.679,0c0,0 -42.452,-25.144 -0.497,-49.755l0.995,-0.579c41.954,-24.61 -0.498,-49.754 -0.498,-49.754l86.679,-50.044c0,0 43.226,25.087 21.67,37.533c-43.411,25.063 0,50.044 0,50.044c0,0 43.856,24.723 86.678,0c42.823,-24.724 0,-50.044 0,-50.044c0,0 -21.522,-12.596 0,-25.022c43.6,-25.173 21.67,-37.533 21.67,-37.533c0,0 -21.647,-12.525 -43.339,0c-21.663,12.506 -43.279,0.035 -43.34,0l151.688,-87.577c0,0 42.991,25.223 0,50.044c-42.991,24.82 -10.835,43.788 -10.835,43.788c0,0 32.18,18.954 75.844,-6.255c65.712,-37.939 0,-75.066 0,-75.066l-43.339,-25.022l151.688,-87.577c0,0 21.47,-12.627 0,-25.022c-86.925,-50.186 -43.34,-75.066 -43.34,-75.066l54.174,-31.278l0.157,-0.089c3.221,-1.809 55.418,-30.38 97.357,-6.166c43.291,24.994 21.67,37.533 21.67,37.533c0,0 -21.642,12.484 0,25.022c0,0 27.127,9.359 43.339,0c43.539,-25.137 0,-50.044 0,-50.044c-43.712,-25.238 0,-50.044 0,-50.044l21.67,-12.511c0,0 21.432,-12.648 0,-25.022c-21.433,-12.374 -43.34,0 -43.34,0l-21.669,12.511c0,0 -64.79,37.659 -129.979,0.022l-0.009,-0.016Z" style="fill:url(#_Linear3);"/><path d="M700.922,440.336l-0.03,-0.006l-21.67,-12.511c-22.586,-13.04 -43.34,0 -43.34,0c0,0 -54.795,30.918 -97.513,6.255c0,0 11.025,-31.168 32.504,-18.766c21.48,12.401 43.34,0 43.34,0c43.314,-25.008 86.679,0 86.679,0c0,0 65.241,37.398 130.018,0l0.126,-0.071c2.596,-1.436 44.795,-24.038 86.552,0.071c43.105,24.886 0,50.044 0,50.044l-21.669,-12.511c0,0 21.432,-12.648 0,-25.022c-21.433,-12.374 -43.34,0 -43.34,0l-21.669,12.511c0,0 -64.79,37.659 -129.979,0.022l-0.009,-0.016Z" style="fill:url(#_Linear4);"/><path d="M570.873,415.308l-32.504,18.766c0,0 -54.114,-31.312 0,-62.555c0.137,-0.079 54.383,-18.646 10.835,-43.788c-43.548,-25.143 -43.34,-25.022 -43.34,-25.022c0,0 -86.531,-50.13 -21.669,-87.577c0,0 43.48,-24.941 21.669,-37.533c-21.81,-12.593 -43.339,0 -43.339,0c-43.311,25.005 -86.679,0 -86.679,0l-43.339,-25.022l10.835,-6.256l43.339,25.022c0,0 32.683,18.664 65.009,0c43.381,-25.046 75.844,-6.255 75.844,-6.255c0,0 43.417,24.977 -21.67,62.555c-42.914,24.776 0,50.044 0,50.044l65.009,37.533c65.179,37.631 21.67,62.555 21.67,62.555l-10.835,6.255c0,0 -32.314,18.876 -10.835,31.278Z" style="fill:url(#_Linear5);"/><path d="M397.516,440.33c0,0 65.221,37.41 0,75.066c-43.486,25.106 0,50.044 0,50.044c0,0 21.799,12.436 0,25.022c-21.8,12.586 -43.339,0 -43.339,0c0,0 -43.131,-25.143 0,-50.044c43.13,-24.902 0,-50.044 0,-50.044c0,0 -21.512,-12.603 0,-25.022l-43.34,25.022l-21.67,12.511c0,0 -64.903,37.594 -21.669,62.555c64.593,37.292 -21.772,86.972 -21.67,87.577c0.102,0.604 -43.063,25.181 0,50.044l216.697,-125.11c0,0 -43.644,-24.847 0,-50.044c43.644,-25.198 86.679,0 86.679,0l43.339,-25.022c0,0 -21.266,-12.745 0,-25.022c0,0 43.084,-25.17 0,-50.044c-64.994,-37.525 -108.348,-12.511 -108.348,-12.511c0,0 -22.226,12.19 -43.34,0c-20.462,11.814 -43.339,25.022 -43.339,25.022Z" style="fill:url(#_Linear6);"/><path d="M375.846,177.599l-43.339,-25.022l4.074,-4.534l6.761,-1.722l43.339,25.022c0,0 0.957,0.547 2.706,1.359c-4.391,0.749 -8.977,2.262 -13.541,4.897Z" style="fill:url(#_Linear7);"/><path d="M289.075,177.544c-1.881,-1.115 -31.482,-19.249 0.092,-37.478c21.76,-12.563 54.175,6.255 54.175,6.255l-4.462,2.576l-6.373,3.68c0,0 -10.789,-6.282 -21.67,0c-10.881,6.282 0,12.511 0,12.511l21.67,12.511c0,0 21.909,12.372 43.339,0c21.431,-12.373 43.34,0 43.34,0c0,0 43.345,25.018 0,50.044c-43.346,25.025 0,50.044 0,50.044l21.669,12.511l-130.018,75.066c0,0 -21.67,12.511 -21.67,12.511l21.67,-12.511c64.89,-37.465 0,-75.066 0,-75.066c0,0 -43.569,-24.889 0,-50.044c43.57,-25.155 0,-50.044 0,-50.044l-21.67,-12.511l-0.092,-0.055Z" style="fill:url(#_Linear8);"/><path d="M818.579,370.655l-173.358,100.088l173.358,-100.088Z" style="fill:none;stroke:#000004;stroke-width:3px;"/><path d="M633.044,177.51l-173.358,100.088l173.358,-100.088Z" style="fill:none;stroke:#000004;stroke-width:3px;"/><defs><linearGradient id="_Linear1" x1="0" y1="0" x2="1" y2="0" gradientUnits="userSpaceOnUse" gradientTransform="matrix(238.679,-268.779,598.551,531.52,273.322,512.033)"><stop offset="0" style="stop-color:#ac009a;stop-opacity:1"/><stop offset="1" style="stop-color:#ff8e00;stop-opacity:1"/></linearGradient><linearGradient id="_Linear2" x1="0" y1="0" x2="1" y2="0" gradientUnits="userSpaceOnUse" gradientTransform="matrix(231.448,-554.742,540.78,225.623,245.828,903.237)"><stop offset="0" style="stop-color:#ac009a;stop-opacity:1"/><stop offset="1" style="stop-color:#ff8700;stop-opacity:1"/></linearGradient><linearGradient id="_Linear3" x1="0" y1="0" x2="1" y2="0" gradientUnits="userSpaceOnUse" gradientTransform="matrix(-736.769,437.885,-426.864,-718.226,928.423,584.206)"><stop offset="0" style="stop-color:#ff8e00;stop-opacity:1"/><stop offset="1" style="stop-color:#ac009a;stop-opacity:1"/></linearGradient><linearGradient id="_Linear4" x1="0" y1="0" x2="1" y2="0" gradientUnits="userSpaceOnUse" gradientTransform="matrix(352.132,52.354,-52.354,352.132,565.456,412.998)"><stop offset="0" style="stop-color:#ac009a;stop-opacity:1"/><stop offset="1" style="stop-color:#ff8e00;stop-opacity:1"/></linearGradient><linearGradient id="_Linear5" x1="0" y1="0" x2="1" y2="0" gradientUnits="userSpaceOnUse" gradientTransform="matrix(-14.4627,261.299,-261.299,-14.4627,583.432,155.107)"><stop offset="0" style="stop-color:#ff8e00;stop-opacity:1"/><stop offset="1" style="stop-color:#ac009a;stop-opacity:1"/></linearGradient><linearGradient id="_Linear6" x1="0" y1="0" x2="1" y2="0" gradientUnits="userSpaceOnUse" gradientTransform="matrix(-397.156,79.1659,-84.7749,-425.294,611.692,466.807)"><stop offset="0" style="stop-color:#ff8e00;stop-opacity:1"/><stop offset="1" style="stop-color:#ac009a;stop-opacity:1"/></linearGradient><linearGradient id="_Linear7" x1="0" y1="0" x2="1" y2="0" gradientUnits="userSpaceOnUse" gradientTransform="matrix(-47.567,-32.3507,32.3507,-47.567,389.387,179.059)"><stop offset="0" style="stop-color:#ff8e00;stop-opacity:1"/><stop offset="1" style="stop-color:#c5387f;stop-opacity:1"/></linearGradient><linearGradient id="_Linear8" x1="0" y1="0" x2="1" y2="0" gradientUnits="userSpaceOnUse" gradientTransform="matrix(259.603,98.9943,-220.453,578.116,210.033,185.754)"><stop offset="0" style="stop-color:#a5008e;stop-opacity:1"/><stop offset="1" style="stop-color:#ff8e00;stop-opacity:1"/></linearGradient></defs></svg>