<?xml version="1.0" encoding="UTF-8" standalone="no"?>
<!DOCTYPE svg PUBLIC "-//W3C//DTD SVG 1.1//EN" "http://www.w3.org/Graphics/SVG/1.1/DTD/svg11.dtd">
<svg width="100%" height="100%" viewBox="0 0 541 668" version="1.1" xmlns="http://www.w3.org/2000/svg" xmlns:xlink="http://www.w3.org/1999/xlink" xml:space="preserve" xmlns:serif="http://www.serif.com/" style="fill-rule:evenodd;clip-rule:evenodd;stroke-linecap:square;stroke-miterlimit:1.5;">
    <g transform="matrix(1,0,0,1,-1202.3,-876)">
        <g id="export-svg" serif:id="export svg" transform="matrix(0.422507,0,0,0.83378,1202.3,876)">
            <rect x="0" y="0" width="1280" height="800" style="fill:none;"/>
            <g transform="matrix(2.36683,0,0,1.19936,-254.039,45.0155)">
                <path d="M530.907,356.563L530.907,81.321L455.963,124.59L442.075,124.122L433.394,137.621L281.706,50.044L281.706,325.286L433.394,412.863L530.907,356.563Z" style="fill:white;stroke:rgb(0,0,4);stroke-width:1.53px;"/>
            </g>
            <g transform="matrix(2.36683,0,0,1.19936,-254.039,45.0155)">
                <path d="M530.907,81.321L379.22,-6.255L281.706,50.044L433.394,137.621L438.778,122.813L462.738,120.679L530.907,81.321Z" style="fill:white;stroke:rgb(0,0,4);stroke-width:1.53px;"/>
            </g>
            <g transform="matrix(2.36683,0,0,1.19936,-151.463,-45.0155)">
                <path d="M357.55,243.964L335.88,231.453L368.385,212.687L380.772,216.887L390.054,225.198L357.55,243.964Z" style="fill:url(#_Linear1);"/>
            </g>
            <g transform="matrix(2.36683,0,0,1.19936,-228.395,-7.50258)">
                <path d="M357.55,243.964L335.88,231.453L368.385,212.687L390.054,225.198L357.55,243.964Z" style="fill:url(#_Linear2);"/>
            </g>
            <g transform="matrix(2.36683,0,0,1.19936,-305.328,30.0103)">
                <path d="M357.55,243.964L335.88,231.453L368.385,212.687L390.054,225.198L357.55,243.964Z" style="fill:url(#_Linear3);"/>
            </g>
            <g transform="matrix(2.36683,0,0,1.19936,-382.26,67.5232)">
                <path d="M357.55,243.964L335.88,231.453L368.385,212.687L390.054,225.198L357.55,243.964Z" style="fill:url(#_Linear4);"/>
            </g>
            <g transform="matrix(2.36683,0,0,1.19936,-151.463,-45.0155)">
                <path d="M357.55,256.475L357.55,243.964L335.88,231.453L335.88,243.964L357.55,256.475Z" style="fill:url(#_Linear5);"/>
            </g>
            <g transform="matrix(2.36683,0,0,1.19936,-228.395,-7.50258)">
                <path d="M357.55,256.475L357.55,243.964L335.88,231.453L335.88,243.964L357.55,256.475Z" style="fill:url(#_Linear6);"/>
            </g>
            <g transform="matrix(2.36683,0,0,1.19936,-305.328,30.0103)">
                <path d="M357.55,256.475L357.55,243.964L335.88,231.453L335.88,243.964L357.55,256.475Z" style="fill:url(#_Linear7);"/>
            </g>
            <g transform="matrix(2.36683,0,0,1.19936,-382.26,67.5232)">
                <path d="M487.568,394.097L498.403,250.22L487.568,163.487L465.898,150.976L465.898,369.075L357.55,306.52L357.55,243.964L335.88,231.453L335.88,306.519L487.568,394.097Z" style="fill:url(#_Linear8);"/>
            </g>
            <g transform="matrix(-2.36683,0,0,1.19936,1925.72,67.5232)">
                <path d="M487.568,394.097L487.568,163.487L476.733,157.231L476.733,375.33L411.724,337.797L411.724,325.286L390.054,312.775L390.054,337.797L487.568,394.097Z" style="fill:url(#_Linear9);"/>
            </g>
            <g transform="matrix(2.36683,0,0,1.19936,-254.039,45.0155)">
                <path d="M411.724,212.687L411.724,212.687L411.724,162.643L433.394,150.132L440.121,175.032L433.394,225.198L433.394,225.198C433.394,225.198 433.555,250.22 411.724,250.22C389.893,250.22 390.055,262.731 390.055,262.731C390.055,262.731 390.376,275.145 368.642,275.242L368.128,275.243C346.394,275.339 346.715,287.753 346.715,287.753C346.715,287.753 346.698,300.167 325.298,300.264L324.793,300.265C303.393,300.361 303.376,312.775 303.376,312.775L303.376,287.753C303.376,287.753 324.959,288.168 325.045,275.318L325.046,275.167C325.132,262.316 346.715,262.731 346.715,262.731C346.715,262.731 368.298,262.958 368.385,250.295L368.385,250.146C368.471,237.482 390.055,237.709 390.055,237.709C390.055,237.709 411.724,237.915 411.724,225.198L411.724,212.687Z" style="fill:url(#_Linear10);"/>
            </g>
            <g transform="matrix(2.36683,-1.46879e-16,-2.89853e-16,-1.19936,-23.2416,541.171)">
                <path d="M411.724,207.254L411.724,207.253L411.724,69.632L433.394,82.143L433.394,225.959C433.394,225.959 433.555,250.982 411.724,250.982C387.521,250.982 390.055,307.341 390.055,307.341C390.055,307.341 391.889,333.274 368.642,319.852L314.21,288.575L323.549,279.098L336.041,266.785L342.594,275.644L346.715,282.319C346.715,282.319 368.385,294.816 368.385,269.883L368.385,269.734C368.471,257.07 390.055,257.297 390.055,257.297C390.055,257.297 411.724,258.24 411.724,219.764L411.724,207.254Z" style="fill:url(#_Linear11);"/>
            </g>
            <g transform="matrix(-2.36683,0,0,1.19936,1797.5,128.278)">
                <path d="M422.559,61.943L435.858,69.621L433.394,80.71L433.394,225.198L433.394,225.198C433.394,225.198 433.555,250.22 411.724,250.22C389.893,250.22 390.055,262.731 390.055,262.731C390.055,262.731 390.376,275.145 368.642,275.242L357.55,274.63L335.88,262.119L346.715,262.731C346.715,262.731 368.298,262.958 368.385,250.295L368.385,250.146C368.471,237.482 390.055,237.709 390.055,237.709C390.055,237.709 422.559,237.129 422.559,212.075L422.559,61.943Z" style="fill:url(#_Linear12);"/>
            </g>
            <g transform="matrix(2.36683,0,0,1.19936,-254.039,45.0155)">
                <path d="M433.394,150.132L433.394,137.621L411.724,125.11L411.724,137.621L433.394,150.132Z" style="fill:url(#_Linear13);"/>
            </g>
            <g transform="matrix(2.36683,0,0,1.19936,-254.039,45.0155)">
                <path d="M530.907,356.563L530.907,81.321L379.22,-6.255L281.706,50.044L281.706,325.286L433.394,412.863L530.907,356.563Z" style="fill:none;stroke:rgb(0,0,4);stroke-width:1.53px;"/>
            </g>
            <g transform="matrix(2.36683,0,0,1.19936,-254.039,-2.27374e-13)">
                <path d="M433.394,450.396L520.073,500.44L617.586,444.14L530.907,394.096L433.394,450.396Z" style="fill:white;stroke:rgb(0,0,4);stroke-width:1.53px;"/>
            </g>
            <g transform="matrix(2.36683,0,0,1.19936,-254.039,-2.27374e-13)">
                <path d="M433.394,450.396L346.715,513.94L281.706,537.973L130.018,450.396L281.706,362.819L433.394,450.396Z" style="fill:white;stroke:rgb(0,0,4);stroke-width:1.53px;"/>
            </g>
            <g transform="matrix(2.36683,0,0,1.19936,-254.039,-2.27374e-13)">
                <path d="M520.073,500.44L520.073,525.462L433.394,475.418L433.394,450.396L520.073,500.44Z" style="fill:rgb(0,0,4);"/>
            </g>
            <g transform="matrix(2.36683,0,0,1.19936,-433.549,82.5284)">
                <path d="M520.073,500.44L520.073,525.462L433.394,475.418L433.394,450.396L520.073,500.44Z" style="fill:rgb(0,0,4);stroke:rgb(0,0,4);stroke-width:1.53px;"/>
            </g>
            <g transform="matrix(2.36683,0,0,1.19936,-254.039,-2.27374e-13)">
                <path d="M281.706,537.973L281.706,588.017L130.018,500.44L130.018,450.396L281.706,537.973Z" style="fill:rgb(0,0,4);stroke:rgb(0,0,4);stroke-width:1.53px;"/>
            </g>
            <g transform="matrix(2.36683,0,0,1.19936,-254.039,-2.27374e-13)">
                <path d="M444.229,569.25L357.55,519.206L433.394,475.418L520.073,525.462L444.229,569.25Z" style="fill:white;stroke:rgb(0,0,4);stroke-width:1.53px;"/>
            </g>
            <g transform="matrix(2.36683,0,0,1.19936,-433.549,82.5284)">
                <path d="M444.229,569.251L357.55,519.207L433.394,475.418L520.073,525.462L444.229,569.251Z" style="fill:white;stroke:rgb(0,0,4);stroke-width:1.53px;"/>
            </g>
            <g transform="matrix(2.36683,0,0,1.19936,-254.039,-2.27374e-13)">
                <path d="M617.586,444.14L617.586,494.184L444.229,594.272L444.229,569.25L520.073,525.462L520.073,500.44L617.586,444.14Z" style="fill:rgb(0,0,4);stroke:rgb(0,0,4);stroke-width:1.53px;"/>
            </g>
        </g>
    </g>
    <defs>
        <linearGradient id="_Linear1" x1="0" y1="0" x2="1" y2="0" gradientUnits="userSpaceOnUse" gradientTransform="matrix(-170.452,151.726,-151.726,-170.452,374.321,199.816)"><stop offset="0" style="stop-color:rgb(130,215,205);stop-opacity:1"/><stop offset="1" style="stop-color:rgb(232,0,60);stop-opacity:1"/></linearGradient>
        <linearGradient id="_Linear2" x1="0" y1="0" x2="1" y2="0" gradientUnits="userSpaceOnUse" gradientTransform="matrix(-170.452,151.726,-151.726,-170.452,406.825,168.538)"><stop offset="0" style="stop-color:rgb(130,215,205);stop-opacity:1"/><stop offset="1" style="stop-color:rgb(232,0,60);stop-opacity:1"/></linearGradient>
        <linearGradient id="_Linear3" x1="0" y1="0" x2="1" y2="0" gradientUnits="userSpaceOnUse" gradientTransform="matrix(-170.452,151.726,-151.726,-170.452,439.33,137.261)"><stop offset="0" style="stop-color:rgb(130,215,205);stop-opacity:1"/><stop offset="1" style="stop-color:rgb(232,0,60);stop-opacity:1"/></linearGradient>
        <linearGradient id="_Linear4" x1="0" y1="0" x2="1" y2="0" gradientUnits="userSpaceOnUse" gradientTransform="matrix(-170.452,151.726,-151.726,-170.452,471.834,105.983)"><stop offset="0" style="stop-color:rgb(130,215,205);stop-opacity:1"/><stop offset="1" style="stop-color:rgb(232,0,60);stop-opacity:1"/></linearGradient>
        <linearGradient id="_Linear5" x1="0" y1="0" x2="1" y2="0" gradientUnits="userSpaceOnUse" gradientTransform="matrix(200.333,-173.333,173.333,200.333,220.305,357.636)"><stop offset="0" style="stop-color:rgb(232,0,60);stop-opacity:1"/><stop offset="1" style="stop-color:rgb(130,215,205);stop-opacity:1"/></linearGradient>
        <linearGradient id="_Linear6" x1="0" y1="0" x2="1" y2="0" gradientUnits="userSpaceOnUse" gradientTransform="matrix(200.333,-173.333,173.333,200.333,252.809,326.359)"><stop offset="0" style="stop-color:rgb(232,0,60);stop-opacity:1"/><stop offset="1" style="stop-color:rgb(130,215,205);stop-opacity:1"/></linearGradient>
        <linearGradient id="_Linear7" x1="0" y1="0" x2="1" y2="0" gradientUnits="userSpaceOnUse" gradientTransform="matrix(200.333,-173.333,173.333,200.333,285.314,295.081)"><stop offset="0" style="stop-color:rgb(232,0,60);stop-opacity:1"/><stop offset="1" style="stop-color:rgb(130,215,205);stop-opacity:1"/></linearGradient>
        <linearGradient id="_Linear8" x1="0" y1="0" x2="1" y2="0" gradientUnits="userSpaceOnUse" gradientTransform="matrix(-237.114,160.146,-160.146,-237.114,475.548,162.126)"><stop offset="0" style="stop-color:rgb(232,0,60);stop-opacity:1"/><stop offset="1" style="stop-color:rgb(130,215,205);stop-opacity:1"/></linearGradient>
        <linearGradient id="_Linear9" x1="0" y1="0" x2="1" y2="0" gradientUnits="userSpaceOnUse" gradientTransform="matrix(51.6649,125.78,-125.78,51.6649,439.461,282.881)"><stop offset="0" style="stop-color:rgb(130,215,205);stop-opacity:1"/><stop offset="1" style="stop-color:rgb(232,0,60);stop-opacity:1"/></linearGradient>
        <linearGradient id="_Linear10" x1="0" y1="0" x2="1" y2="0" gradientUnits="userSpaceOnUse" gradientTransform="matrix(-157.147,158.844,-158.844,-157.147,432.371,151.964)"><stop offset="0" style="stop-color:rgb(43,197,183);stop-opacity:1"/><stop offset="1" style="stop-color:rgb(232,0,60);stop-opacity:1"/></linearGradient>
        <linearGradient id="_Linear11" x1="0" y1="0" x2="1" y2="0" gradientUnits="userSpaceOnUse" gradientTransform="matrix(210.664,-80.3286,80.3286,210.664,309.409,287.582)"><stop offset="0" style="stop-color:rgb(130,215,205);stop-opacity:1"/><stop offset="1" style="stop-color:rgb(232,0,60);stop-opacity:1"/></linearGradient>
        <linearGradient id="_Linear12" x1="0" y1="0" x2="1" y2="0" gradientUnits="userSpaceOnUse" gradientTransform="matrix(110.836,21.0324,-21.0324,110.836,360.888,164.942)"><stop offset="0" style="stop-color:rgb(43,197,183);stop-opacity:1"/><stop offset="1" style="stop-color:rgb(232,0,60);stop-opacity:1"/></linearGradient>
        <linearGradient id="_Linear13" x1="0" y1="0" x2="1" y2="0" gradientUnits="userSpaceOnUse" gradientTransform="matrix(150.833,-156.583,156.583,150.833,263.644,282.57)"><stop offset="0" style="stop-color:rgb(232,0,60);stop-opacity:1"/><stop offset="1" style="stop-color:rgb(130,215,205);stop-opacity:1"/></linearGradient>
    </defs>
</svg>
