<?xml version="1.0" encoding="UTF-8" standalone="no"?><!DOCTYPE svg PUBLIC "-//W3C//DTD SVG 1.1//EN" "http://www.w3.org/Graphics/SVG/1.1/DTD/svg11.dtd"><svg width="100%" height="100%" viewBox="0 0 656 560" version="1.1" xmlns="http://www.w3.org/2000/svg" xmlns:xlink="http://www.w3.org/1999/xlink" xml:space="preserve" xmlns:serif="http://www.serif.com/" style="fill-rule:evenodd;clip-rule:evenodd;stroke-linejoin:round;stroke-miterlimit:2;"><rect id="Artboard1" x="0" y="0" width="655.816" height="559.31" style="fill:none;"/><path d="M242.856,313.775l10.835,6.256c0,0 43.543,24.904 86.679,0c10.673,-6.163 21.67,12.511 21.67,12.511l-18.018,14.619l-46.991,10.403l-21.67,0c0,0 -26.136,-6.462 -36.041,-15.169c-21.194,-18.628 -31.862,-44.637 -1.881,-19.237l5.417,-9.383Z" style="fill:url(#_Linear1);"/><path d="M232.156,357.641c0,0 64.544,37.647 129.884,-0.077l0,-25.022c0,0 -64.717,37.701 -130.018,0c-19.035,-10.99 0.134,25.099 0.134,25.099Z" style="fill:url(#_Linear2);"/><path d="M167.012,332.542c0,0 -44.062,24.604 -86.678,0c-13.908,-8.03 -18.739,-16.149 -18.935,-23.443l0,0l0,-0.002c-0.008,-0.311 -0.008,-0.621 0,-0.93l0,-24.09l9.762,5.636c4.634,-4.506 9.173,-7.215 9.173,-7.215l21.669,12.511c0,0 -24.896,2.017 -3.205,14.541c21.691,12.523 68.214,-2.03 68.214,-2.03l0.032,-0.018c0.652,-0.359 11.218,-5.998 21.638,0.018c10.757,6.21 21.67,12.511 21.67,12.511l10.835,31.277l-32.505,-18.766c0,0 -10.824,-6.262 -21.67,0Zm68.269,-64.437l61.75,-35.651l0,25.022l-61.75,35.651l0,-25.022Z" style="fill:url(#_Linear3);"/><path d="M167.012,307.52c0,0 -44.062,24.604 -86.678,0c-42.617,-24.605 0,-50.044 0,-50.044l21.669,12.511c0,0 -21.691,12.498 0,25.022c21.692,12.523 43.34,0 43.34,0l54.174,-31.278l17.122,57.531c0.854,2.434 -9.807,-3.264 -27.957,-13.742c-6.967,-3.249 -14.172,-3.478 -21.67,0Z" style="fill:url(#_Linear4);"/><path d="M61.399,259.055c0.196,7.294 5.027,15.413 18.935,23.443c42.616,24.604 86.678,0 86.678,0l18.447,-10.651l-18.447,-14.371c0,0 -46.523,14.553 -68.214,2.03c-21.691,-12.524 3.205,-14.541 3.205,-14.541l-21.669,-12.511c0,0 -4.539,2.709 -9.173,7.215l-9.762,-5.636l0,24.09c-0.008,0.309 -0.008,0.619 0,0.93l0,0.002l0,0Z" style="fill:url(#_Linear5);"/><path d="M134.502,151.136c-6.416,-3.477 -15.862,-3.354 -29.77,4.676c-42.616,24.605 -43.339,75.066 -43.339,75.066l21.67,12.511c0,0 10.658,-47.567 32.349,-60.09c21.691,-12.524 10.99,10.046 10.99,10.046l21.67,-12.511c0,0 -0.077,-5.285 -1.662,-11.551l9.761,-5.636l-20.863,-12.045c-0.262,-0.162 -0.531,-0.317 -0.805,-0.465l-0.001,-0.001l0,0Z" style="fill:url(#_Linear6);"/><path d="M167.012,257.476c0,0 -44.062,24.604 -86.678,0c-42.617,-24.605 0,-50.044 0,-50.044l21.669,12.511c0,0 -21.691,12.498 0,25.022c21.692,12.523 43.34,0 43.34,0l21.669,12.511Z" style="fill:url(#_Linear7);"/><path d="M83.063,243.389c0,0 0.722,-50.461 43.339,-75.066c42.617,-24.605 43.339,25.022 43.339,25.022l-6.564,16.301l-15.105,-3.79c0,0 0.021,-25.034 -21.67,-12.511c-21.691,12.523 -21.67,37.533 -21.67,37.533l-21.669,12.511Z" style="fill:url(#_Linear8);"/><path d="M554.003,359.333l-7.536,-24.763c0,0 0.344,-9.172 10.12,-14.816c17.575,10.146 19.089,27.065 19.089,27.065l5.051,6.255l1.209,7.722l-13.509,6.865l-19.201,-5.57l4.777,-2.758Z" style="fill:url(#_Linear9);"/><path d="M241.184,423.167c-6.674,-13.35 12.31,4.373 55.847,-6.319c6.271,-1.541 17.229,-12.95 23.866,-19.869c8.513,-8.874 30.112,-36.826 35.286,-48.545c17.524,-39.69 27.526,-78.447 27.526,-78.447l21.67,12.511c0,0 -0.107,100.149 -86.679,150.132c-28.253,16.311 -47.296,16.646 -60.133,9.696l0,0l-0.001,-0.001c-0.55,-0.298 -1.089,-0.609 -1.616,-0.933l-21.672,-12.512l3.254,-4.967l2.652,-0.746Z" style="fill:url(#_Linear10);"/><path d="M80.335,207.431c23.514,-13.575 58.425,-16.311 86.677,0.001c86.572,49.982 86.679,150.132 86.679,150.132l0,12.511c0,0 -0.197,57.465 43.34,46.773c6.271,-1.541 -61.753,12.032 -61.753,12.032l3.254,-4.967l2.652,-0.746c-6.674,-13.35 -8.487,-42.174 -8.979,-56.75c-2.981,-9.767 -13.116,-41.736 -27.71,-74.79c-5.174,-11.719 -26.772,-39.671 -35.286,-48.545c-6.637,-6.918 -17.594,-18.328 -23.866,-19.868c-43.536,-10.693 -74.326,12.975 -65.187,-5.306l-4.521,-4.962l4.7,-5.515Zm-0.001,0.001l-1.618,0.933c0.528,-0.324 1.066,-0.635 1.616,-0.933l0.002,0l0,0Zm0.001,-0.001l-0.001,0.001c0,0 0.001,-0.001 0.001,-0.001l0,0Z" style="fill:url(#_Linear11);"/><path d="M38.073,194.652c3.151,-23.069 15.504,-71.86 63.93,-99.819c21.395,-12.353 35.749,-12.49 45.379,-7.121l0,0l0.002,0.001c0.224,0.125 0.444,0.252 0.662,0.383l21.672,12.512l-8.863,2.812c6.142,13.402 6.157,28.946 6.157,28.946c0,0 -21.887,-18.758 -43.339,-19.43c-5.632,-0.176 -1.894,13.586 -10.835,18.748c-22.266,12.855 -36,36.069 -44.066,55.463c3.217,2.251 5.329,4.175 5.329,4.175l6.233,41.132c0,0 -5.279,3.03 -12.152,4.854l1.54,6.115l0.083,5.131l-21.533,-12.432c-0.026,-0.015 -0.052,-0.03 -0.078,-0.045l-0.008,-0.005l0,0c-6.398,-3.72 -11.192,-12.045 -11.192,-28.64c0,-5.089 0.386,-9.308 1.079,-12.78Z" style="fill:url(#_Linear12);"/><path d="M123.673,112.936c-5.632,-0.176 43.339,19.43 43.339,19.43l4.965,21.585c0,0 22.444,51.22 49.21,66.674c8.94,5.161 5.202,18.923 10.835,18.747c21.452,-0.672 21.669,-31.94 21.669,-31.94l21.67,-12.511l0,25.022c0,0 -0.016,15.544 -6.157,28.945l8.863,2.812l-21.672,12.513c-0.218,0.13 -0.439,0.257 -0.662,0.382l-0.003,0.001l0,0c-9.63,5.369 -23.983,5.232 -45.378,-7.12c-66.02,-38.117 -65.009,-112.48 -65.009,-112.599c0,0 -0.218,-31.269 -21.67,-31.941Z" style="fill:url(#_Linear13);"/><path d="M62.732,191.569c6.179,-25.251 21.742,-61.594 60.941,-84.225c64.932,-37.489 65.009,37.533 65.009,37.533c0,0 0.347,50.244 43.34,75.066c42.992,24.821 43.339,-25.022 43.339,-25.022l21.67,12.511c0,0 -0.077,75.021 -65.009,37.533c-41.892,-24.186 -65.01,-66.087 -65.01,-87.577c0,0 -0.346,-49.844 -43.339,-25.022c-42.992,24.821 -43.339,75.066 -43.339,75.066l0,0.003c-0.089,0.378 -0.046,25.045 21.669,12.508c19.897,-11.488 39.503,-2.049 42.842,-0.274l0.034,0.02c0.154,0.079 0.309,0.164 0.464,0.254c86.266,49.806 87.821,149.8 87.821,149.8c0,0 -1.4,63.035 63.867,25.354c65.266,-37.682 65.009,-112.599 65.009,-112.599l21.669,-12.511c0,0 -0.107,100.149 -86.678,150.132c-86.572,49.982 -86.679,-50.044 -86.679,-50.044c0,0 0.206,-87.458 -65.009,-125.11c-21.627,-12.486 -43.293,-0.027 -43.34,0c0,0 -43.339,25.193 -43.339,-25.022c0,-13.913 1.663,-23.018 4.068,-28.374Z" style="fill:url(#_Linear14);"/><path d="M433.958,366.086c-0.072,-0.042 -32.787,-15.9 -38.997,-80.127c-0.48,-4.971 23.927,-4.168 24.398,-2.095c5.744,25.284 10.491,50.295 51.029,73.7l0.143,0.081c2.573,1.456 39.252,21.616 56.286,-1.953c3.711,-8.551 6.391,-14.49 5.747,-12.275c-1.457,5.015 -3.418,9.054 -5.747,12.275c-6.68,15.393 -16.703,39.249 -16.703,39.249c-20.384,-1.225 -64.274,-20.307 -64.339,-20.344l-2.971,-4.507l-8.846,-4.004Z" style="fill:url(#_Linear15);"/><path d="M275.361,169.899c86.503,-49.943 173.22,-0.08 173.357,0c0,0 21.67,12.511 21.67,12.511c0,0 86.679,50.167 86.679,150.132c0,32.623 -9.232,49.283 -21.67,56.924l0,0.001l-0.001,0c-0.533,0.328 -1.072,0.638 -1.616,0.933l-21.672,12.512l-2.674,-5.301l0.68,-2.67c-20.401,-1.226 9.942,-8.474 22.45,-51.524c1.802,-6.202 -2.6,-21.396 -5.273,-30.603c-3.429,-11.81 -16.836,-44.49 -24.398,-54.831c-25.584,-34.984 -54.114,-63.003 -54.175,-63.062c-0.108,-0.031 -38.627,-10.723 -81.7,-15.386c-12.737,-1.378 -47.743,3.351 -59.684,6.286c-9.311,2.289 -24.67,6.074 -29.14,10.735c-31.028,32.357 -25.131,55.937 -36.393,38.883l1.024,8.246l-5.928,0.334l0,-5.794c-7.754,17.644 -6.155,27.577 -13.769,16.047l-1.972,1.924l-5.928,0.334l0,-25.024c-0.017,-0.619 -0.017,-1.241 0,-1.866l0,-0.001l0,0c0.398,-14.593 10.21,-30.918 38.463,-47.229l21.67,-12.511Z" style="fill:url(#_Linear16);"/><path d="M448.998,370.233c4.616,2.579 64.729,34.779 64.729,-37.691c0,-75.364 -65.009,-112.599 -65.009,-112.599l0,-25.022c0,0 86.679,50.167 86.679,150.132c0,99.964 -86.679,50.044 -86.679,50.044c0,0 -75.125,-38.471 -75.125,-96.793c0,-6.409 1.239,-12.151 0.356,-18.874c-0.387,-2.947 21.219,-0.979 21.721,1.951c0.736,4.301 8.366,6.6 8.366,12.852c0,25.11 7.518,54.375 44.962,76Z" style="fill:url(#_Linear17);"/><path d="M303.75,231.581c7.384,-7.26 14.95,-11.638 14.95,-11.638l21.67,-12.511c0,0 43.174,-25.118 86.652,-0.016l0.053,0.129l0,-0.098c0,0 15.692,9.07 30.318,20.026l2.16,11.236l-1.705,18.334l-4.016,3.482c-6.649,-16.279 -25.973,-27.602 -26.758,-28.057c-0.326,-0.186 -43.663,-24.864 -86.704,-0.014c-0.064,0.037 -19.114,11.238 -19.108,26.045l-2.562,-1.023l-14.95,-25.895Z" style="fill:url(#_Linear18);"/><path d="M311.823,224.634l-3.007,7.643l3.913,16.135l8.749,7.334c-0.563,3.598 -0.075,7.452 2.066,11.444c1.574,2.936 5.73,0.6 10.712,-0.734l21.467,5.801c6.274,2.469 12.765,4.143 19.266,5.207l0.002,0l0.001,0c28.31,4.629 56.811,-2.332 68.366,-5.757l10.072,6.278c-29.784,19.132 -74.159,39.012 -88.703,32.633c-14.744,-1.902 -30.39,-6.581 -46.027,-15.609c-21.394,-12.353 -28.69,-24.715 -28.856,-35.739l0,-0.003c-0.003,-0.255 -0.003,-0.51 0,-0.764l0,-25.025l6.867,6.27c4.568,-6.432 10.543,-11.651 15.112,-15.114Zm149.173,5.596c7.634,5.975 14.573,12.316 18.285,17.939c8.711,3.387 -4.991,16.418 -25.85,29.816l14.442,-31.569l-6.877,-16.186Z" style="fill:url(#_Linear19);"/><path d="M445.886,268.351l2.832,1.636c0,0 -65.086,37.488 -130.018,0c-64.932,-37.489 0,-75.066 0,-75.066c65.03,-37.545 130.018,0 130.018,0l-10.834,6.255l-10.809,6.369c-42.694,-24.65 -85.351,-0.88 -86.673,-0.131l-0.032,0.018c0,0 -42.993,25.222 0,50.044c42.992,24.821 86.679,0 86.679,0l0.061,-0.037c1.255,-0.743 21.007,-12.822 -0.061,-24.985c13.421,7.749 21.367,17.586 26.038,25.972c-1.907,3.847 -4.377,7.079 -7.201,9.925Z" style="fill:url(#_Linear20);"/><path d="M275.361,320.031l-21.67,-12.511c0,0 -86.571,-50.106 0,-100.088c4.685,-2.705 14.152,-8.163 20.173,-11.637c0.493,-0.292 0.992,-0.583 1.497,-0.874c0.534,-0.309 1.068,-0.613 1.602,-0.914l0.011,-0.006c0.029,-0.017 0.059,-0.034 0.09,-0.051c31.507,-17.715 62.966,-22.321 90.184,-21.044c15.023,0.704 16.602,19.095 1.596,18.086c-21.379,-1.438 -46.558,1.858 -71.813,16.44c-11.684,6.745 -21.126,12.366 -28.685,16.89c-53.289,36.145 7.015,70.687 7.015,70.687c0,0 38.566,10.716 81.7,15.385c2.044,0.221 4.662,0.285 7.666,0.224c-14.744,-1.902 56.462,4.995 114.554,-62.449l1.973,-1.924l5.928,-0.335l0,25.024c0.017,0.619 0.017,1.241 0,1.866l0,0.002l0,0c-0.399,14.592 -10.211,30.917 -38.464,47.229c-86.571,49.982 -173.357,0 -173.357,0Z" style="fill:url(#_Linear21);"/><path d="M369.02,191.003c14.817,0.855 13.192,-17.395 -1.772,-18.097l0.551,0.026c46.759,2.334 80.865,21.957 80.919,21.989c0.078,0.044 86.533,50.128 0,100.088c-86.571,49.982 -173.357,0 -173.357,0l0.05,-0.03l-0.077,0.014c-1.163,-0.674 -39.989,-23.448 -25.909,-51.166c7.462,15.578 25.936,26.16 25.936,26.16l21.67,12.511c0,0 64.751,37.681 130.018,0c65.215,-37.652 0.103,-75.007 0,-75.066c0,0 -24.335,-14.162 -58.205,-16.44l0.176,0.011Zm-153.792,65.527l0,0l0,0l0,0Z" style="fill:url(#_Linear22);"/><path d="M369.02,191.003c14.817,0.855 13.192,-17.395 -1.772,-18.097l0.551,0.026c17.135,0.856 32.571,4.033 45.255,7.717c21.928,6.368 4.175,21.068 -11.672,16.315c-9.098,-2.729 -20.184,-5.141 -32.538,-5.972l0.176,0.011Z" style="fill:url(#_Linear23);"/><path d="M443.507,167.202c12.571,-9.402 26.877,-20.266 26.877,-20.266c17.041,11.253 45.51,49.723 45.548,49.788l0.319,5.388l13.938,39.846l-0.001,0l-0.072,-0.113l-0.31,-0.481l-0.058,-0.089l-0.015,-0.023l-0.092,-0.143l-0.261,-0.399l-0.074,-0.114l-0.029,-0.045l-0.113,-0.173l-0.225,-0.342l-0.076,-0.115l-0.044,-0.065l-0.134,-0.204l-0.197,-0.295l-0.07,-0.106l-0.057,-0.085l-0.157,-0.236l-0.171,-0.254l-0.062,-0.092l-0.068,-0.101l-0.182,-0.27l-0.147,-0.217l-0.051,-0.075l-0.077,-0.113l-0.209,-0.307l-0.125,-0.183l-0.039,-0.057l-0.081,-0.118l-0.241,-0.351l-0.104,-0.15l-0.025,-0.036l-0.077,-0.111l-0.282,-0.406l-0.083,-0.119l-0.011,-0.015l-0.052,-0.075c-0.723,-1.034 -1.45,-2.053 -2.182,-3.058l-0.047,-0.064l-0.008,-0.011l-0.078,-0.107l-0.292,-0.399l-0.082,-0.111l-0.024,-0.032l-0.098,-0.134l-0.249,-0.337l-0.089,-0.121l-0.04,-0.053l-0.119,-0.16l-0.217,-0.291l-0.086,-0.115l-0.054,-0.073l-0.141,-0.188l-0.189,-0.251l-0.079,-0.104l-0.068,-0.09l-0.164,-0.217l-0.164,-0.216l-0.067,-0.089l-0.081,-0.105l-0.188,-0.248l-0.141,-0.184l-0.055,-0.071l-0.09,-0.117l-0.216,-0.281l-0.118,-0.153l-0.041,-0.053l-0.095,-0.122l-0.248,-0.321l-0.097,-0.124l-0.026,-0.033l-0.09,-0.116l-0.29,-0.371l-0.076,-0.096l-0.01,-0.014l-0.061,-0.077c-0.731,-0.929 -1.465,-1.845 -2.199,-2.745l-0.081,-0.1l-0.017,-0.02l-0.081,-0.099l-0.272,-0.332l-0.1,-0.121l-0.033,-0.04l-0.101,-0.124l-0.236,-0.284l-0.1,-0.121l-0.049,-0.059l-0.122,-0.148l-0.205,-0.245l-0.094,-0.113l-0.064,-0.076l-0.145,-0.173l-0.178,-0.212l-0.083,-0.099l-0.079,-0.093l-0.167,-0.199l-0.155,-0.182l-0.07,-0.083l-0.091,-0.107l-0.192,-0.226l-0.132,-0.154l-0.056,-0.066l-0.101,-0.118l-0.219,-0.256l-0.11,-0.127l-0.041,-0.048l-0.106,-0.123l-0.251,-0.291l-0.088,-0.102l-0.025,-0.029l-0.101,-0.116l-0.293,-0.338l-0.068,-0.077l-0.009,-0.01l-0.064,-0.074c-0.588,-0.672 -1.175,-1.334 -1.762,-1.988l-0.057,-0.064l-0.007,-0.008l-0.064,-0.071l-0.297,-0.33l-0.102,-0.112l-0.024,-0.027l-0.084,-0.093l-0.253,-0.278l-0.108,-0.12l-0.041,-0.044l-0.104,-0.115l-0.22,-0.24l-0.105,-0.114l-0.056,-0.061l-0.125,-0.137l-0.193,-0.208l-0.095,-0.104l-0.071,-0.077l-0.147,-0.159l-0.167,-0.18l-0.083,-0.09l-0.086,-0.091l-0.169,-0.182l-0.144,-0.154l-0.069,-0.074l-0.098,-0.104l-0.193,-0.207l-0.123,-0.13l-0.054,-0.057l-0.107,-0.113l-0.22,-0.234l-0.101,-0.107l-0.039,-0.04l-0.11,-0.116l-0.253,-0.267l-0.081,-0.084l-0.022,-0.023l-0.101,-0.106l-0.299,-0.312l-0.06,-0.062l-0.005,-0.006l-0.05,-0.052c-0.577,-0.6 -1.152,-1.191 -1.725,-1.773l-0.079,-0.08l-0.013,-0.013l-0.067,-0.068l-0.277,-0.279l-0.105,-0.107l-0.028,-0.028l-0.087,-0.088l-0.238,-0.239l-0.107,-0.107l-0.044,-0.044l-0.108,-0.108l-0.207,-0.206l-0.1,-0.1l-0.059,-0.059l-0.128,-0.128l-0.182,-0.179l-0.089,-0.089l-0.073,-0.072l-0.15,-0.148l-0.158,-0.155l-0.076,-0.076l-0.086,-0.084l-0.172,-0.169l-0.136,-0.133l-0.062,-0.06l-0.096,-0.094l-0.197,-0.192l-0.114,-0.111l-0.047,-0.046l-0.103,-0.099l-0.225,-0.219l-0.094,-0.091l-0.032,-0.03l-0.101,-0.098l-0.261,-0.251l-0.074,-0.071l-0.015,-0.015l-0.082,-0.078c-0.701,-0.672 -1.396,-1.329 -2.086,-1.972l-0.07,-0.065l-0.013,-0.012l-0.073,-0.069l-0.267,-0.247l-0.089,-0.084l-0.028,-0.025l-0.093,-0.086l-0.23,-0.212l-0.091,-0.084l-0.041,-0.038l-0.113,-0.104l-0.201,-0.184l-0.084,-0.077l-0.054,-0.05l-0.134,-0.123l-0.176,-0.16l-0.073,-0.067l-0.066,-0.059l-0.156,-0.143l-0.153,-0.138l-0.061,-0.055l-0.075,-0.068l-0.18,-0.163l-0.131,-0.118l-0.048,-0.043l-0.081,-0.072l-0.207,-0.187l-0.11,-0.099l-0.034,-0.03l-0.08,-0.071l-0.24,-0.215l-0.091,-0.081l-0.019,-0.016l-0.068,-0.061l-0.284,-0.252l-0.072,-0.064l-0.003,-0.003l-0.023,-0.02c-0.694,-0.614 -1.379,-1.212 -2.055,-1.794l-0.029,-0.026l-0.007,-0.005l-0.083,-0.072l-0.272,-0.233l-0.053,-0.046l-0.018,-0.016l-0.104,-0.088l-0.233,-0.199l-0.057,-0.049l-0.029,-0.025l-0.124,-0.106l-0.203,-0.172l-0.054,-0.045l-0.037,-0.032l-0.147,-0.125l-0.177,-0.149l-0.046,-0.039l-0.044,-0.037l-0.171,-0.144l-0.154,-0.129l-0.036,-0.03l-0.047,-0.04l-0.198,-0.166l-0.133,-0.111l-0.024,-0.02l-0.044,-0.036l-0.231,-0.193l-0.113,-0.094l-0.011,-0.009l-0.031,-0.026c-1.316,-1.091 -2.587,-2.118 -3.807,-3.081l-0.002,-0.002l-0.002,-0.001l-0.173,-0.136l-0.336,-0.264l-0.221,-0.173l-0.084,-0.066l-0.144,-0.112l-0.298,-0.232l-0.192,-0.149l-0.106,-0.081l-0.173,-0.135l-0.264,-0.202l-0.162,-0.125l-0.124,-0.094l-0.204,-0.157l-0.23,-0.175l-0.133,-0.101l-0.139,-0.105l-0.236,-0.179l-0.198,-0.149l-0.103,-0.078l-0.15,-0.112l-0.269,-0.202l-0.168,-0.125l-0.075,-0.057l-0.152,-0.112l-0.308,-0.229l-0.14,-0.103l-0.047,-0.035l-0.141,-0.104l-0.358,-0.263l-0.112,-0.082l-0.021,-0.016l-0.1,-0.073c-1.209,-0.883 -2.327,-1.676 -3.342,-2.38c-6.596,-7.371 -16.233,-15.404 -27.436,-16.306l-0.602,-0.347l-0.069,-0.04l-0.009,-0.005l-0.013,-0.007l-0.043,-0.024l-0.129,-0.073l-0.043,-0.024l-0.043,-0.023l-0.078,-0.044l-0.154,-0.084l-0.101,-0.055l-0.087,-0.048l-0.214,-0.116l-0.036,-0.019l-0.011,-0.006c-0.144,-0.077 -0.302,-0.162 -0.474,-0.253l-0.072,-0.038l-0.085,-0.045l-0.038,-0.02l-0.052,-0.028l-0.147,-0.077l-0.139,-0.072l-0.051,-0.027l-0.04,-0.021l-0.122,-0.063l-0.217,-0.112l-0.047,-0.025l-0.021,-0.011c-0.739,-0.38 -1.634,-0.831 -2.676,-1.337Z" style="fill:url(#_Linear24);"/><path d="M376.461,268.337l0,-0.004c-1.13,-27.467 3.777,-59.165 22.061,-90.834c16.312,-28.253 32.637,-38.065 47.229,-38.463l0,-0.001l0.002,0c0.625,-0.017 1.246,-0.016 1.866,0l25.024,0l-0.335,5.929l-1.924,1.972c17.055,11.262 -12.847,2.368 -45.204,33.396c-4.662,4.47 -8.447,19.83 -10.735,29.14c-2.653,10.793 -6.771,40.426 -6.521,55.431c-8.582,2.357 -19.475,4.183 -31.463,3.434Z" style="fill:url(#_Linear25);"/><path d="M524.987,234.281l-0.003,-0.011c-3.909,-13.348 -8.552,-25.894 -14.026,-35.378c-2.708,-4.542 -38.668,-62.484 -74.903,0.277c-12.381,21.445 -16.626,42.834 -16.745,61.889l0,0.005c-4.437,1.792 -10.581,3.893 -17.894,5.406c-0.835,-27.033 4.256,-58.015 22.128,-88.97c49.982,-86.572 100.088,0 100.088,0c0,0 27.076,45.565 24.813,102.175l-0.001,0.011c-5.918,-17.49 -14.329,-32.626 -23.457,-45.404Z" style="fill:url(#_Linear26);"/><path d="M383.701,257.43c-0.349,-1.927 -11.845,-63.779 -54.166,-88.213c-8.941,-5.162 -5.202,-18.924 -10.835,-18.748c-21.452,0.672 -43.339,19.43 -43.339,19.43c0,0 0.016,-15.544 6.157,-28.946l-8.863,-2.812l21.672,-12.512c0.218,-0.131 0.439,-0.258 0.662,-0.383l0.003,-0.001l0,0c9.63,-5.369 23.983,-5.232 45.378,7.121c64.903,37.471 65.009,112.532 65.009,112.599l0.153,20.591c-7.969,2.064 -16.309,2.89 -22.957,2.949c-0.239,-3.56 1.134,-7.26 1.134,-11.029l-0.008,-0.046Z" style="fill:url(#_Linear27);"/><path d="M362.04,244.965c0,0 -2.586,-51.537 -43.34,-75.066c-21.956,-12.677 -36.44,-3.775 -36.44,-3.775c-9.855,5.381 -19.251,10.828 -28.569,16.286c0,0 0.077,-75.022 65.009,-37.533c64.903,37.471 65.009,112.532 65.009,112.599l0,11.014c-7.797,0.153 -14.993,-0.674 -21.669,-2.317l0,-21.208Z" style="fill:url(#_Linear28);"/><path d="M524.562,501.44c-39.73,-22.938 -54.179,-50.717 -55.994,-53.582c-14.713,-23.223 -26.312,-53.127 -26.312,-89.695c0,-32.624 9.232,-49.284 21.67,-56.925l0,0l0.001,-0.001c0.533,-0.327 1.072,-0.638 1.616,-0.933l21.672,-12.512l2.674,5.301l-0.68,2.67c20.4,1.226 -9.942,8.475 -22.451,51.524c-1.802,6.202 2.601,21.396 5.274,30.604c3.428,11.809 16.836,44.49 24.398,54.831c5.169,7.067 8.152,13.54 9.413,19.038c4.398,3.533 18.719,24.658 18.719,24.658l0,25.022Z" style="fill:url(#_Linear29);"/><path d="M503.642,283.322c3.018,7.004 5.533,14.593 7.297,22.768c-2.586,3.589 -6.068,7.066 -10.256,9.966c-8.734,6.049 -15.088,18.546 -15.088,42.107c0,22.622 5.858,41.808 14.056,57.583c0.255,0.488 16.932,31.043 46.581,48.161c-7.384,4.263 -21.67,12.511 -21.67,12.511c0,0 -20.61,-11.939 -37.773,-43.611c-13.611,-22.669 -22.863,-52.502 -22.863,-87.155c0,-44.296 17.019,-59.162 35.975,-61.982c1.336,-0.198 2.582,-0.313 3.741,-0.348Z" style="fill:url(#_Linear30);"/><path d="M498.923,273.54c7.049,13.164 12.5,28.768 14.228,46.824c0.096,1.003 2.934,4.413 6.554,8.391c4.112,14.676 11.451,33.078 23.439,40c21.873,12.628 10.859,-9.422 10.859,-9.422l21.669,12.511c0,0 -0.089,9.777 -3.922,18.511l7.623,-3.863l4.517,2.607l-20.861,12.045c-0.263,0.161 -0.533,0.317 -0.808,0.466l0,0l0,0c-6.417,3.477 -15.893,3.336 -29.888,-4.744c-42.883,-24.759 -42.339,-75.066 -42.339,-75.066c0,0 -0.69,-21.765 8.929,-48.26Z" style="fill:url(#_Linear31);"/><path d="M575.683,346.828l-0.007,-0.009c0,0 -1.514,-16.919 -19.089,-27.065l0,0c-0.594,-7.86 -1.723,-15.383 -3.289,-22.569l0,0c44.394,25.63 44.066,61.022 44.045,62.121l-0.001,0.027c0,0 -0.456,49.78 -43.339,25.022c-42.884,-24.759 -40.922,-64.698 -40.922,-64.698l21.836,12.608c0,0 0.068,16.088 19.086,27.068c21.873,12.628 21.669,-12.511 21.669,-12.511l0.011,0.006Z" style="fill:url(#_Linear32);"/><path d="M546.232,463.907l0,25.022l-21.67,12.511l0,-25.022l21.67,-12.511Z" style="fill:url(#_Linear33);"/><path d="M578.737,482.674l0,25.022l-21.67,12.511l0,-25.022l21.67,-12.511Z" style="fill:url(#_Linear34);"/><path d="M535.397,507.696l0,-25.022l21.67,12.511l0,25.022l-21.67,-12.511Z" style="fill:url(#_Linear35);"/><path d="M557.067,470.163l21.67,12.511l-21.67,12.511l-21.67,-12.511l21.67,-12.511Z" style="fill:url(#_Linear36);"/><defs><linearGradient id="_Linear1" x1="0" y1="0" x2="1" y2="0" gradientUnits="userSpaceOnUse" gradientTransform="matrix(99.4848,-4.19238,1.41194,33.5052,232.022,335.669)"><stop offset="0" style="stop-color:#ffe500;stop-opacity:1"/><stop offset="1" style="stop-color:#fb5200;stop-opacity:1"/></linearGradient><linearGradient id="_Linear2" x1="0" y1="0" x2="1" y2="0" gradientUnits="userSpaceOnUse" gradientTransform="matrix(112.014,-15.5534,4.93088,35.512,250.025,367.958)"><stop offset="0" style="stop-color:#ffe500;stop-opacity:1"/><stop offset="1" style="stop-color:#fb5200;stop-opacity:1"/></linearGradient><linearGradient id="_Linear3" x1="0" y1="0" x2="1" y2="0" gradientUnits="userSpaceOnUse" gradientTransform="matrix(285.104,-76.1276,76.1276,285.104,48.9921,303.528)"><stop offset="0" style="stop-color:#fff53b;stop-opacity:1"/><stop offset="0.54" style="stop-color:#ffa017;stop-opacity:1"/><stop offset="1" style="stop-color:#fb5200;stop-opacity:1"/></linearGradient><linearGradient id="_Linear4" x1="0" y1="0" x2="1" y2="0" gradientUnits="userSpaceOnUse" gradientTransform="matrix(157.418,18.9544,17.9121,-148.761,46.8408,272.536)"><stop offset="0" style="stop-color:#ffe500;stop-opacity:1"/><stop offset="1" style="stop-color:#fff;stop-opacity:1"/></linearGradient><linearGradient id="_Linear5" x1="0" y1="0" x2="1" y2="0" gradientUnits="userSpaceOnUse" gradientTransform="matrix(-235.631,0.647532,-0.647532,-235.631,297.031,257.476)"><stop offset="0" style="stop-color:#fb5200;stop-opacity:1"/><stop offset="1" style="stop-color:#fff53b;stop-opacity:1"/></linearGradient><linearGradient id="_Linear6" x1="0" y1="0" x2="1" y2="0" gradientUnits="userSpaceOnUse" gradientTransform="matrix(25.4576,14.698,-14.698,25.4576,98.2738,155.234)"><stop offset="0" style="stop-color:#fff;stop-opacity:1"/><stop offset="1" style="stop-color:#fff53b;stop-opacity:1"/></linearGradient><linearGradient id="_Linear7" x1="0" y1="0" x2="1" y2="0" gradientUnits="userSpaceOnUse" gradientTransform="matrix(-101.305,-10.5971,-10.0144,95.7337,172.336,261.623)"><stop offset="0" style="stop-color:#fff;stop-opacity:1"/><stop offset="1" style="stop-color:#fff53b;stop-opacity:1"/></linearGradient><linearGradient id="_Linear8" x1="0" y1="0" x2="1" y2="0" gradientUnits="userSpaceOnUse" gradientTransform="matrix(-56.1558,-48.1035,-45.4583,53.0678,155.063,207.61)"><stop offset="0" style="stop-color:#ffe500;stop-opacity:1"/><stop offset="1" style="stop-color:#fff;stop-opacity:1"/></linearGradient><linearGradient id="_Linear9" x1="0" y1="0" x2="1" y2="0" gradientUnits="userSpaceOnUse" gradientTransform="matrix(30.6368,28.6816,-28.6816,30.6368,546.467,334.57)"><stop offset="0" style="stop-color:#ffe500;stop-opacity:1"/><stop offset="1" style="stop-color:#fb5200;stop-opacity:1"/></linearGradient><linearGradient id="_Linear10" x1="0" y1="0" x2="1" y2="0" gradientUnits="userSpaceOnUse" gradientTransform="matrix(-140.296,163.59,-163.59,-140.296,397.245,277.802)"><stop offset="0" style="stop-color:#fb5200;stop-opacity:1"/><stop offset="1" style="stop-color:#ffe500;stop-opacity:1"/></linearGradient><linearGradient id="_Linear11" x1="0" y1="0" x2="1" y2="0" gradientUnits="userSpaceOnUse" gradientTransform="matrix(-167.946,-206.592,206.592,-167.946,264.375,407)"><stop offset="0" style="stop-color:#fb5200;stop-opacity:1"/><stop offset="1" style="stop-color:#ffe500;stop-opacity:1"/></linearGradient><linearGradient id="_Linear12" x1="0" y1="0" x2="1" y2="0" gradientUnits="userSpaceOnUse" gradientTransform="matrix(-84.5897,-51.5873,51.5873,-84.5897,116.346,174.555)"><stop offset="0" style="stop-color:#ffe500;stop-opacity:1"/><stop offset="1" style="stop-color:#fff;stop-opacity:1"/></linearGradient><linearGradient id="_Linear13" x1="0" y1="0" x2="1" y2="0" gradientUnits="userSpaceOnUse" gradientTransform="matrix(109.19,142.256,-142.256,109.19,137.959,120.317)"><stop offset="0" style="stop-color:#fff;stop-opacity:1"/><stop offset="1" style="stop-color:#ffe500;stop-opacity:1"/></linearGradient><linearGradient id="_Linear14" x1="0" y1="0" x2="1" y2="0" gradientUnits="userSpaceOnUse" gradientTransform="matrix(-285.367,-147.397,147.397,-285.367,358.147,310.485)"><stop offset="0" style="stop-color:#fb5200;stop-opacity:1"/><stop offset="0.61" style="stop-color:#ffe500;stop-opacity:1"/><stop offset="1" style="stop-color:#fff;stop-opacity:1"/></linearGradient><linearGradient id="_Linear15" x1="0" y1="0" x2="1" y2="0" gradientUnits="userSpaceOnUse" gradientTransform="matrix(102.13,71.6808,-71.6808,102.13,410.417,309.114)"><stop offset="0" style="stop-color:#ffe500;stop-opacity:1"/><stop offset="1" style="stop-color:#fb5200;stop-opacity:1"/></linearGradient><linearGradient id="_Linear16" x1="0" y1="0" x2="1" y2="0" gradientUnits="userSpaceOnUse" gradientTransform="matrix(326.34,190.54,-190.54,326.34,229.242,162.659)"><stop offset="0" style="stop-color:#ffd22b;stop-opacity:1"/><stop offset="1" style="stop-color:#fb5200;stop-opacity:1"/></linearGradient><linearGradient id="_Linear17" x1="0" y1="0" x2="1" y2="0" gradientUnits="userSpaceOnUse" gradientTransform="matrix(-107.465,-87.0671,87.0671,-107.465,508.519,404.601)"><stop offset="0" style="stop-color:#ffe500;stop-opacity:1"/><stop offset="1" style="stop-color:#fb5200;stop-opacity:1"/></linearGradient><linearGradient id="_Linear18" x1="0" y1="0" x2="1" y2="0" gradientUnits="userSpaceOnUse" gradientTransform="matrix(-132.289,-19.9405,19.9405,-132.289,459.553,238.709)"><stop offset="0" style="stop-color:#ffe500;stop-opacity:1"/><stop offset="1" style="stop-color:#fb5200;stop-opacity:1"/></linearGradient><linearGradient id="_Linear19" x1="0" y1="0" x2="1" y2="0" gradientUnits="userSpaceOnUse" gradientTransform="matrix(124.521,49.6739,-49.6739,124.521,293.832,247.897)"><stop offset="0" style="stop-color:#ffe500;stop-opacity:1"/><stop offset="1" style="stop-color:#fb5200;stop-opacity:1"/></linearGradient><linearGradient id="_Linear20" x1="0" y1="0" x2="1" y2="0" gradientUnits="userSpaceOnUse" gradientTransform="matrix(-157.817,-22.2019,22.2019,-157.817,448.293,250.316)"><stop offset="0" style="stop-color:#ffe500;stop-opacity:1"/><stop offset="1" style="stop-color:#fb5200;stop-opacity:1"/></linearGradient><linearGradient id="_Linear21" x1="0" y1="0" x2="1" y2="0" gradientUnits="userSpaceOnUse" gradientTransform="matrix(171.49,157.728,-157.728,171.49,253.691,194.921)"><stop offset="0" style="stop-color:#fff;stop-opacity:1"/><stop offset="1" style="stop-color:#ffe500;stop-opacity:1"/></linearGradient><linearGradient id="_Linear22" x1="0" y1="0" x2="1" y2="0" gradientUnits="userSpaceOnUse" gradientTransform="matrix(239.893,1.21723,-1.21723,239.893,246.7,252.012)"><stop offset="0" style="stop-color:#fb5200;stop-opacity:1"/><stop offset="1" style="stop-color:#ffd22b;stop-opacity:1"/></linearGradient><linearGradient id="_Linear23" x1="0" y1="0" x2="1" y2="0" gradientUnits="userSpaceOnUse" gradientTransform="matrix(42.7122,11.5749,-11.5749,42.7122,379.02,181.013)"><stop offset="0" style="stop-color:#fffdc0;stop-opacity:1"/><stop offset="1" style="stop-color:#ffb61a;stop-opacity:1"/></linearGradient><linearGradient id="_Linear24" x1="0" y1="0" x2="1" y2="0" gradientUnits="userSpaceOnUse" gradientTransform="matrix(54.9085,97.3409,-97.3409,54.9085,453.254,155.68)"><stop offset="0" style="stop-color:#ffe500;stop-opacity:1"/><stop offset="1" style="stop-color:#fb5200;stop-opacity:1"/></linearGradient><linearGradient id="_Linear25" x1="0" y1="0" x2="1" y2="0" gradientUnits="userSpaceOnUse" gradientTransform="matrix(-86.2272,155.058,-155.058,-86.2272,469.937,102.418)"><stop offset="0" style="stop-color:#ffe500;stop-opacity:1"/><stop offset="1" style="stop-color:#fb5200;stop-opacity:1"/></linearGradient><linearGradient id="_Linear26" x1="0" y1="0" x2="1" y2="0" gradientUnits="userSpaceOnUse" gradientTransform="matrix(-173.934,-193.052,193.052,-173.934,508.519,404.601)"><stop offset="0" style="stop-color:#ffd22b;stop-opacity:1"/><stop offset="1" style="stop-color:#fb5200;stop-opacity:1"/></linearGradient><linearGradient id="_Linear27" x1="0" y1="0" x2="1" y2="0" gradientUnits="userSpaceOnUse" gradientTransform="matrix(92.8639,191.254,-191.254,92.8639,309.664,121.887)"><stop offset="0" style="stop-color:#ffe500;stop-opacity:1"/><stop offset="1" style="stop-color:#fb5200;stop-opacity:1"/></linearGradient><linearGradient id="_Linear28" x1="0" y1="0" x2="1" y2="0" gradientUnits="userSpaceOnUse" gradientTransform="matrix(92.5807,133.421,-133.421,92.5807,279.01,134.472)"><stop offset="0" style="stop-color:#ffe500;stop-opacity:1"/><stop offset="1" style="stop-color:#fb5200;stop-opacity:1"/></linearGradient><linearGradient id="_Linear29" x1="0" y1="0" x2="1" y2="0" gradientUnits="userSpaceOnUse" gradientTransform="matrix(126.492,148.945,-148.945,126.492,398.07,327.473)"><stop offset="0" style="stop-color:#ffe500;stop-opacity:1"/><stop offset="1" style="stop-color:#fb5200;stop-opacity:1"/></linearGradient><linearGradient id="_Linear30" x1="0" y1="0" x2="1" y2="0" gradientUnits="userSpaceOnUse" gradientTransform="matrix(-62.7769,-183.267,183.267,-62.7769,540.649,467.13)"><stop offset="0" style="stop-color:#ffe500;stop-opacity:1"/><stop offset="1" style="stop-color:#fb5200;stop-opacity:1"/></linearGradient><linearGradient id="_Linear31" x1="0" y1="0" x2="1" y2="0" gradientUnits="userSpaceOnUse" gradientTransform="matrix(63.4196,110.873,-110.873,63.4196,493.394,292.599)"><stop offset="0" style="stop-color:#ffe500;stop-opacity:1"/><stop offset="1" style="stop-color:#fb5200;stop-opacity:1"/></linearGradient><linearGradient id="_Linear32" x1="0" y1="0" x2="1" y2="0" gradientUnits="userSpaceOnUse" gradientTransform="matrix(72.7104,-32.3016,32.3016,72.7104,516.266,339.251)"><stop offset="0" style="stop-color:#ffd22b;stop-opacity:1"/><stop offset="1" style="stop-color:#fb5200;stop-opacity:1"/></linearGradient><linearGradient id="_Linear33" x1="0" y1="0" x2="1" y2="0" gradientUnits="userSpaceOnUse" gradientTransform="matrix(-21.6697,37.533,-37.533,-21.6697,546.232,463.907)"><stop offset="0" style="stop-color:#fff;stop-opacity:1"/><stop offset="1" style="stop-color:#ffe500;stop-opacity:1"/></linearGradient><linearGradient id="_Linear34" x1="0" y1="0" x2="1" y2="0" gradientUnits="userSpaceOnUse" gradientTransform="matrix(-21.6697,25.9723,-25.9723,-21.6697,578.737,489.116)"><stop offset="0" style="stop-color:#fff;stop-opacity:1"/><stop offset="1" style="stop-color:#ffe500;stop-opacity:1"/></linearGradient><linearGradient id="_Linear35" x1="0" y1="0" x2="1" y2="0" gradientUnits="userSpaceOnUse" gradientTransform="matrix(54.3062,31.68,-31.68,54.3062,531.621,487.313)"><stop offset="0" style="stop-color:#fb5200;stop-opacity:1"/><stop offset="1" style="stop-color:#ffe500;stop-opacity:1"/></linearGradient><linearGradient id="_Linear36" x1="0" y1="0" x2="1" y2="0" gradientUnits="userSpaceOnUse" gradientTransform="matrix(81.4159,19.2257,-19.2257,81.4159,540.443,464.44)"><stop offset="0" style="stop-color:#ffe500;stop-opacity:1"/><stop offset="1" style="stop-color:#fb5200;stop-opacity:1"/></linearGradient></defs></svg>