<?xml version="1.0" encoding="UTF-8" standalone="no"?><!DOCTYPE svg PUBLIC "-//W3C//DTD SVG 1.1//EN" "http://www.w3.org/Graphics/SVG/1.1/DTD/svg11.dtd"><svg width="100%" height="100%" viewBox="0 0 1566 1266" version="1.1" xmlns="http://www.w3.org/2000/svg" xmlns:xlink="http://www.w3.org/1999/xlink" xml:space="preserve" xmlns:serif="http://www.serif.com/" style="fill-rule:evenodd;clip-rule:evenodd;stroke-linejoin:round;stroke-miterlimit:2;"><rect id="expo-uten-bakgrunn" serif:id="expo uten bakgrunn" x="0" y="0" width="1565.01" height="1265.09" style="fill:none;"/><g id="bakgrunn"></g><g id="expo-talks" serif:id="expo talks"></g><g id="real-deal" serif:id="real deal"><path d="M1470.62,251.025l0,48.321l-189.106,-109.181l41.846,-24.16l147.26,85.02Z" style="fill:#fce7a9;"/><path d="M1192.72,235.542l-77.8,-44.918l-512.624,295.964l83.693,48.321l-156.925,90.601l-41.847,-24.16l-41.847,24.16l-41.847,-24.16l41.847,-24.161l-146.464,-84.561l177.849,-102.681l-387.083,-223.483l41.846,-24.16l491.701,283.883l491.701,-283.883l272.004,157.042l-41.847,24.16l-152.357,-87.964Z" style="fill:url(#_Linear1);"/><path d="M1512.46,420.147l-41.847,24.161l0,-217.443l41.847,-24.16" style="fill:url(#_Linear2);"/><path d="M1470.62,444.308l-115.079,-78.521l31.385,-18.121l0,-48.32l-115.874,-66.9l10.462,-42.281l147.259,85.021l0,-72.481l41.847,24.16l0,217.443Zm-230.158,-132.882l41.847,24.16l20.924,-12.08l41.846,24.16l0,-24.16l-62.77,-36.24l-41.847,24.16Zm0,0l-125.54,-72.481l0,-48.321l167.34,96.615l-41.8,24.187Z" style="fill:url(#_Linear3);"/><path d="M1362.54,563.111l112.925,-67.684l-19.232,-71.504l-106.846,-61.688l-150.775,9.592l-89.388,39.528l-4.767,26.913l0,48.32l41.847,-24.16l216.236,100.683Z" style="fill:url(#_Linear4);"/><path d="M602.293,486.588l512.624,-295.964l0,48.321l-198.773,114.761l0,120.802l-104.617,60.401l-1.387,515.247l-41.847,24.161l1.387,-636.049l-125.54,72.48l-41.847,-24.16Z" style="fill:url(#_Linear5);"/><path d="M726.446,1050.16l1.387,-587.728l41.847,-24.16l-1.387,636.049l-41.847,-24.161Z" style="fill:url(#_Linear6);"/><path d="M685.986,534.909l0,96.641l-156.925,90.601l0,-96.641l156.925,-90.601Z" style="fill:url(#_Linear7);"/><path d="M1428.77,154.384l0,48.321l-408.007,235.563l0,-48.321l408.007,-235.563Z" style="fill:url(#_Linear8);"/><path d="M978.914,414.107l41.847,-24.16l0,48.321l-41.847,-24.161Z" style="fill:url(#_Linear9);"/><path d="M978.914,365.787l0,48.32l41.847,-24.16l-41.847,-24.16Z" style="fill:url(#_Linear10);"/><path d="M403.52,975.834l125.541,36.24l156.925,18.121l156.926,-42.281l156.926,-90.601l-5.231,-111.741l-68.001,-63.421c0,0 84.998,48.612 109.97,118.451l6.774,-8.768l0,43.51c0.061,2.043 0.062,4.098 0,6.164l0,0l0,0c-1.32,43.969 -31.155,93.232 -116.744,142.647c-262.779,151.715 -523.086,0 -523.086,0l0,0l0,0l-31.385,-18.121l0,-48.32l31.385,18.12l0,0Z" style="fill:#fbbf9f;"/><path d="M884.759,746.311l-32.385,-17.543l1,-48.898l31.385,18.121l0,0l0,0c50.159,4.017 120.31,87.581 120.31,87.581l5.827,105.356l-63.367,48.666l-41.4,39.837l10.05,-3.783c20.252,-11.692 5.355,0.965 18.664,-10.622c131.239,-114.257 -49.95,-218.638 -50.084,-218.715Z" style="fill:#9c72d0;"/><path d="M1020.76,389.947l-41.847,-24.16l406.935,-236.183l42.919,24.78l-408.007,235.563Z" style="fill:url(#_Linear11);"/><path d="M884.759,697.991l0,0l-31.385,-18.121l42.316,-23.889l30.916,17.849l0,0c0.166,0.095 248.324,142.227 20.532,289.475c-0.062,0.04 -0.121,0.08 -0.178,0.12l124.621,71.95l-41.847,24.16l-124.626,-71.952c-255.081,131.681 -501.362,-11.617 -501.588,-11.749l0,0l-31.385,-18.12l41.847,-24.16l31.385,18.12l0.16,0.091c6.697,3.814 222.736,124.903 439.232,-0.091c219.858,-126.935 0.147,-253.599 0,-253.683Z" style="fill:url(#_Linear12);"/><path d="M1198.61,577.189l0,84.561l-49.718,28.705l7.871,-89.106l41.847,-24.16Zm-132.836,92.659l42.046,-24.275c0,0 5.483,-3.079 5.483,-13.867l0,-25.769l-47.529,-20.88l0,84.791Zm-83.205,-65.867l42.046,-24.275c0,0 5.483,-3.079 5.483,-13.866l0,-49.701l-47.529,-20.879l0,108.721Z" style="fill:url(#_Linear13);"/><path d="M947.529,480.548l0,84.561c0,0 -0.078,24.115 20.923,36.24c21.002,12.126 20.924,-12.08 20.924,-12.08l0,-12.08c0,0 -0.503,-24.451 20.923,-12.08c21.427,12.37 20.924,36.24 20.924,36.24l0,29.717c0,0 0.654,24.538 20.923,36.241c20.269,11.702 20.924,-12.08 20.924,-12.08l0,-36.471c0,0 0.175,-24.059 20.923,-12.08c20.748,11.979 20.924,36.241 20.924,36.241l0,8.198c0,0 0.199,24.276 20.923,36.24c20.724,11.965 20.923,-12.08 20.923,-12.08l0,-73.926l-209.234,-120.801Z" style="fill:url(#_Linear14);"/><path d="M1198.61,577.189l-209.234,-120.801l-41.847,24.16l209.234,120.801l41.847,-24.16Z" style="fill:url(#_Linear15);"/><path d="M904.99,1035.84l124.744,72.021l0,-48.321l-124.677,-71.982l-0.067,48.282Z" style="fill:#aed9b0;"/><path d="M1181.36,585.87l42.046,-24.275c0,0 5.484,-3.078 5.484,-13.866l0,-49.7l-47.53,-20.88l0,108.721Z" style="fill:#b3aad6;"/><path d="M199.065,1044.18l42.046,-24.275c0,0 5.483,-3.079 5.483,-13.867l0,-108.721l-41.847,-24.16l-5.682,171.023Zm-104.617,-84.561l42.046,-24.275c0,0 5.483,-3.079 5.483,-13.867l0,-108.721l-41.847,-24.16l-5.682,171.023Z" style="fill:url(#_Linear16);"/><path d="M330.288,740.271l156.926,-90.601l-230.158,-132.882l-198.773,114.762l146.464,84.561l156.926,-90.601l41.847,24.16l-115.079,66.441l41.847,24.16Z" style="fill:url(#_Linear17);"/><path d="M487.214,649.67l0,193.283l-156.926,90.601l-41.847,24.19l0,-144.992l41.847,-24.16l0,-48.321l115.079,-66.441l0,-48.32l41.847,-24.16l0,48.32Z" style="fill:url(#_Linear18);"/><path d="M204.747,848.993l41.847,-24.161l0,-84.561l156.926,-90.601l-41.847,-24.16l-156.926,90.601l0,132.882Z" style="fill:#eab184;"/><path d="M445.367,673.83l-41.847,-24.16l0,-48.32l41.847,24.16l0,48.32Z" style="fill:url(#_Linear19);"/><path d="M372.186,812.761l41.796,-24.178l-41.847,-24.16l0.051,48.338Z" style="fill:url(#_Linear20);"/><path d="M372.135,812.752l41.847,-24.16l542.436,313.176l-41.847,24.16l-542.436,-313.176Z" style="fill:url(#_Linear21);"/><path d="M759.815,733.887l-0.597,254.029l-41.846,24.161l0,-302.091l42.443,23.901Zm-0.597,-144.618l0,-350.324l-41.846,24.16l0,350.325l41.846,-24.161Z" style="fill:url(#_Linear22);"/><path d="M372.135,861.073l0,-48.321l542.436,313.176l0,48.321l-542.436,-313.176Z" style="fill:url(#_Linear23);"/><path d="M717.372,263.084l-41.847,-24.139l0,748.951l41.847,24.179l0,-748.991Z" style="fill:url(#_Linear24);"/><path d="M1367.06,479.935l0,157.042c0,0 -1.015,12.72 9.4,18.733c10.414,6.013 115.078,66.441 115.078,66.441c0,0 3.604,2.053 10.462,6.04c0.215,96.799 0,88.875 0,96.641c0,0 0.37,10.812 -11.375,17.593c-11.745,6.781 -56.922,32.864 -56.922,32.864l0,-71.426l-173.941,-100.425l33.005,-156.449l74.293,-67.054Z" style="fill:url(#_Linear25);"/><path d="M1439.37,764.353l62.731,-36.107l0,96.641c0,0 0.553,10.596 -11.471,17.538c-12.024,6.942 -56.922,32.864 -56.922,32.864l5.662,-110.936Zm-90.761,63.038l42.046,-24.275c0,0 5.483,-3.078 5.483,-13.866l0,-49.7l-47.529,-20.88l0,108.721Zm-83.903,-12.201l42.045,-24.275c0,0 5.484,-3.078 5.484,-13.866l0,-49.701l-47.529,-20.879l0,108.721Z" style="fill:url(#_Linear26);"/><path d="M1069.87,768.626l0,64.092c0,0 -1.218,19.766 55.505,52.515c10.768,6.216 144.946,83.684 144.946,83.684l0,-48.32l-200.451,-151.971Z" style="fill:#aed9b0;"/><path d="M1146.3,462.428l0,84.561c0,0 -0.079,24.115 20.923,36.24c21.002,12.126 20.924,-12.08 20.924,-12.08l0,-12.08c0,0 -0.503,-24.451 20.923,-12.08c21.427,12.37 20.924,36.24 20.924,36.24l0,193.283c0,0 0.654,24.538 20.923,36.24c20.269,11.702 20.923,-12.08 20.923,-12.08l0,-60.401c0,0 0.176,-24.059 20.924,-12.08c20.748,11.979 20.923,36.241 20.923,36.241l0,24.16c0,0 0.2,24.275 20.924,36.24c20.723,11.965 20.923,-12.08 20.923,-12.08l0,-24.16c0,0 -0.109,-24.223 20.924,-12.08c21.032,12.143 20.923,36.24 20.923,36.24l0,24.16c0,0 -0.56,23.837 20.923,36.241c21.484,12.404 20.924,-12.08 20.924,-12.08l0,-24.161c0,0 0.305,-0.485 0,-72.48c-20.787,-12.002 -125.541,-72.481 -125.541,-72.481c0,0 -20.923,-12.644 -20.923,-36.241l0,-108.721l-146.464,-84.561Z" style="fill:url(#_Linear27);"/><path d="M999.838,450.348l41.847,24.16l-282.467,163.082l-41.846,-24.16l282.466,-163.082Z" style="fill:url(#_Linear28);"/><path d="M1041.68,522.829l-292.928,169.122l0,-48.321l292.928,-169.122l0,48.321Z" style="fill:url(#_Linear29);"/><path d="M1260.56,927.041l-532.729,-307.571l-41.847,24.16l532.729,307.571l41.847,-24.16Z" style="fill:url(#_Linear30);"/><path d="M685.986,691.951l532.729,306.882l0,-47.631l-532.729,-307.572l0,48.321Z" style="fill:url(#_Linear31);"/><path d="M717.372,613.43l41.846,24.16l-303.414,175.176l-41.846,-24.16l303.414,-175.176Z" style="fill:url(#_Linear32);"/><path d="M413.958,836.912l41.846,-24.16l-41.846,-24.16l0,48.32Z" style="fill:url(#_Linear33);"/><path d="M455.804,861.073l-41.846,-24.161l41.846,-24.16l0,48.321Z" style="fill:url(#_Linear34);"/><path d="M759.218,685.911l-303.414,175.176l0.025,-48.335l303.389,-175.162l0,48.321Z" style="fill:url(#_Linear35);"/><path d="M717.372,613.43l-356.892,-206.052l-41.847,24.16l356.892,206.052l41.847,-24.16Z" style="fill:url(#_Linear36);"/><path d="M717.372,661.75l-41.847,-24.16l41.847,-24.16l0,48.32Z" style="fill:#d66edb;"/><path d="M675.525,685.221l41.847,-23.471l-41.847,-24.16l0,47.631Z" style="fill:#aa40b0;"/><path d="M318.633,479.859l356.892,206.052l0,-48.321l-356.892,-206.052l0,48.321Z" style="fill:url(#_Linear37);"/><path d="M403.52,601.35l0,48.32l41.847,-24.16l-41.847,-24.16Z" style="fill:url(#_Linear38);"/><path d="M1512.46,202.705l-41.847,-24.161l0,48.321l41.847,-24.16Z" style="fill:url(#_Linear39);"/><path d="M1428.77,202.705l41.847,24.16l0,-48.321l-41.847,24.161Z" style="fill:url(#_Linear40);"/><path d="M257.056,637.59l62.77,-36.24l-62.77,-36.241l0,72.481Z" style="fill:url(#_Linear41);"/><path d="M204.747,667.79l52.309,-30.2l0,-72.481l-115.079,66.441l62.77,36.24Z" style="fill:url(#_Linear42);"/><path d="M1104.45,438.268l-41.847,24.16l41.847,24.16l0,-48.32Z" style="fill:url(#_Linear43);"/><path d="M1062.61,414.107l0,48.321l41.847,-24.16l-41.847,-24.161Z" style="fill:url(#_Linear44);"/><path d="M1292.77,546.988l41.846,-24.159c0,0 73.005,-42.412 0,-84.561c-73.006,-42.15 -146.464,0 -146.464,0l-41.847,24.16l146.465,84.56Z" style="fill:url(#_Linear45);"/><path d="M1405.7,578.424c0.647,-13.68 25.05,-19.079 22.821,-28.615l59.601,-64.213l0,49.231c0,0 -0.756,44.768 -69.821,84.643c0,0 -251.081,144.962 -251.081,144.962c0,0 -41.848,24.159 -31.385,30.2c41.843,24.158 41.847,48.32 41.847,48.32l-74.103,-53.857l3.768,-22.991l-13.359,-7.713l16.15,-9.324l0.826,-5.035l56.256,-27.921l238.48,-137.687Z" style="fill:url(#_Linear46);"/><path d="M1386.92,299.346l0,48.32l41.847,-24.16l-41.847,-24.16Z" style="fill:url(#_Linear47);"/><path d="M1428.77,371.827l-41.847,-24.161l41.847,-24.16l0,48.321Z" style="fill:url(#_Linear48);"/><path d="M1418.31,571.149c0,0 -167.098,96.474 -251.081,144.962c-83.982,48.487 0,96.641 0,96.641l144.946,83.684l-41.847,24.161c0,0 -19.331,-11.161 -144.946,-83.685c-125.614,-72.523 0,-144.961 0,-144.961l251.082,-144.962c0,0 114.707,-66.655 0,-132.882c-114.708,-66.226 -230.158,0 -230.158,0l-41.847,24.161l-41.847,-24.161l198.773,-114.761l156.925,90.601c83.524,48.721 103.96,121.77 0,181.202Z" style="fill:url(#_Linear49);"/><path d="M1270.32,968.917l41.847,-24.16l-41.847,-24.16l0,48.32Z" style="fill:url(#_Linear50);"/><path d="M1029.64,1107.86l41.847,-24.16l-41.847,-24.161l0,48.321Z" style="fill:url(#_Linear51);"/><path d="M1312.17,896.436l0,48.321l-41.847,-24.16l41.847,-24.161Z" style="fill:url(#_Linear52);"/><path d="M1218.71,998.833l41.847,-24.16l-41.847,-23.472l0,47.632Z" style="fill:url(#_Linear53);"/><path d="M1260.56,927.041l0,47.62l-41.847,-23.46l41.847,-24.16Z" style="fill:url(#_Linear54);"/><path d="M675.525,685.911l41.847,-24.161l-41.847,-24.16l0,48.321Z" style="fill:url(#_Linear55);"/><path d="M717.372,613.43l0,48.32l-41.847,-24.16l41.847,-24.16Z" style="fill:url(#_Linear56);"/><path d="M914.571,1174.25l41.847,-24.161l-41.847,-24.16l0,48.321Z" style="fill:url(#_Linear57);"/><path d="M956.418,1101.77l0,48.32l-41.847,-24.16l41.847,-24.16Z" style="fill:url(#_Linear58);"/><path d="M1071.49,1035.38l0,48.321l-41.847,-24.161l41.847,-24.16Z" style="fill:url(#_Linear59);"/><path d="M1230,462.428l62.77,36.24c0,0 31.425,-18.097 0,-36.24c-31.425,-18.143 -62.77,0 -62.77,0Z" style="fill:url(#_Linear60);"/><path d="M288.441,716.111l41.847,24.16l0,48.321l-83.694,-48.321l41.847,-24.16Z" style="fill:url(#_Linear61);"/><path d="M246.594,740.271l83.694,48.321l-41.847,24.16l-41.847,-24.16l0,-48.321Z" style="fill:url(#_Linear62);"/><path d="M204.747,848.993l41.847,-24.161l0,-84.561l156.926,-90.601l-41.847,-24.16l-156.926,90.601l0,132.882Z" style="fill:url(#_Linear63);"/><path d="M246.594,873.153l0,-48.321l-41.847,24.161l41.847,24.16Z" style="fill:#fcdda9;"/><path d="M717.372,214.785l0,48.32l41.846,-24.16l-41.846,-24.16Z" style="fill:#a16d33;"/><path d="M675.525,238.945l41.847,24.16l0,-48.32l-41.847,24.16Z" style="fill:#805728;"/><path d="M58.283,631.55l146.464,84.561l0,132.882l41.847,24.16l0,-84.561l41.847,24.16l0,144.992l-83.694,-48.321l0,120.772c0,0 -0.044,24.134 -20.923,12.08c-20.879,-12.055 -20.923,-36.241 -20.923,-36.241l0,-108.721c0,0 -0.134,-24.237 -31.386,-42.28c-31.251,-18.043 -31.385,6.04 -31.385,6.04l0,84.561c0,0 0.181,24.264 -21.521,11.735c-21.701,-12.529 -21.519,-36.585 -21.519,-36.585l0,-108.721l1.193,-180.513Z" style="fill:url(#_Linear64);"/><path d="M529.061,625.51l0,96.641l-41.847,24.16l0,-144.961l-41.847,-24.161l-41.847,24.161l-104.617,-60.401l0,-48.321" style="fill:url(#_Linear65);"/><path d="M1020.76,389.947l-41.847,24.16l0,36.241" style="fill:none;"/><path d="M330.288,836.912l0,48.321l41.847,-24.16l-41.847,-24.161Z" style="fill:url(#_Linear66);"/><path d="M372.487,813.048l-42.199,23.864l41.847,24.161l0.352,-48.025Z" style="fill:url(#_Linear67);"/><path d="M1386.92,347.666l0,-48.32l-41.847,24.16l41.847,24.16Z" style="fill:url(#_Linear68);"/><path d="M1366,359.747l-20.924,-12.081l0,-24.16l41.847,24.16l-20.923,12.081Z" style="fill:url(#_Linear69);"/><path d="M89.669,166.464l0,48.321l345.236,199.322l41.847,-24.16l-387.083,-223.483Z" style="fill:url(#_Linear70);"/><path d="M518.599,414.107l-62.77,36.241l62.77,36.24l0,-72.481Z" style="fill:url(#_Linear71);"/><path d="M581.369,450.348l-62.77,36.24l0,-72.481l62.77,36.241Z" style="fill:url(#_Linear72);"/><path d="M874.297,450.348l0,-72.481l-62.77,36.24l62.77,36.241Z" style="fill:url(#_Linear73);"/><path d="M811.527,486.588l0,-72.481l62.77,36.241l-62.77,36.24Z" style="fill:url(#_Linear74);"/><path d="M100.13,704.031l0,84.561l62.771,36.24l0,-84.561l-62.771,-36.24Z" style="fill:url(#_Linear75);"/><path d="M100.13,788.592l62.771,-36.241l0,72.481l-62.771,-36.24Z" style="fill:url(#_Linear76);"/><path d="M372.135,764.432l41.847,-24.161l0,48.321l-41.847,-24.16Zm-10.462,-138.922l0,48.32l41.847,-24.16l-41.847,-24.16Z" style="fill:url(#_Linear77);"/><path d="M445.367,673.83l0,-48.32l-41.847,24.16l41.847,24.16Z" style="fill:url(#_Linear78);"/><path d="M759.218,238.945l-41.846,-24.16l0,48.32l41.846,-24.16Z" style="fill:url(#_Linear79);"/><path d="M675.525,238.945l41.847,24.16l0,-48.32l-41.847,24.16Z" style="fill:url(#_Linear80);"/></g><g id="Layer-1" serif:id="Layer 1"></g><g id="eggs"><g><g id="Layer-2" serif:id="Layer 2"></g><g id="Layer-21" serif:id="Layer 2"></g></g></g><g id="idean"></g><defs><linearGradient id="_Linear1" x1="0" y1="0" x2="1" y2="0" gradientUnits="userSpaceOnUse" gradientTransform="matrix(1155.73,-179.817,179.817,1155.73,231.187,516.788)"><stop offset="0" style="stop-color:#fce7a9;stop-opacity:1"/><stop offset="0.26" style="stop-color:#f8e4a0;stop-opacity:1"/><stop offset="0.48" style="stop-color:#faca94;stop-opacity:1"/><stop offset="0.78" style="stop-color:#e9a591;stop-opacity:1"/><stop offset="1" style="stop-color:#f1d686;stop-opacity:1"/></linearGradient><linearGradient id="_Linear2" x1="0" y1="0" x2="1" y2="0" gradientUnits="userSpaceOnUse" gradientTransform="matrix(136.002,-18.1202,18.1202,136.002,1439.23,244.985)"><stop offset="0" style="stop-color:#d9c480;stop-opacity:1"/><stop offset="1" style="stop-color:#ffd6c0;stop-opacity:1"/></linearGradient><linearGradient id="_Linear3" x1="0" y1="0" x2="1" y2="0" gradientUnits="userSpaceOnUse" gradientTransform="matrix(355.698,205.363,-205.363,355.698,1114.92,202.705)"><stop offset="0" style="stop-color:#b2d2b4;stop-opacity:1"/><stop offset="0.56" style="stop-color:#9cdab4;stop-opacity:1"/><stop offset="1" style="stop-color:#d8c876;stop-opacity:1"/></linearGradient><linearGradient id="_Linear4" x1="0" y1="0" x2="1" y2="0" gradientUnits="userSpaceOnUse" gradientTransform="matrix(303.39,66.4408,-66.4408,303.39,1135.84,420.147)"><stop offset="0" style="stop-color:#aed9b0;stop-opacity:1"/><stop offset="0.43" style="stop-color:#93cbae;stop-opacity:1"/><stop offset="1" style="stop-color:#4f7e86;stop-opacity:1"/></linearGradient><linearGradient id="_Linear5" x1="0" y1="0" x2="1" y2="0" gradientUnits="userSpaceOnUse" gradientTransform="matrix(206.95,-1281.14,1281.14,206.95,907.967,1471.76)"><stop offset="0" style="stop-color:#fbbf9f;stop-opacity:0"/><stop offset="0.12" style="stop-color:#fff;stop-opacity:1"/><stop offset="0.3" style="stop-color:#e6b1c3;stop-opacity:1"/><stop offset="0.5" style="stop-color:#ebb8db;stop-opacity:1"/><stop offset="0.79" style="stop-color:#f2c7b0;stop-opacity:1"/><stop offset="1" style="stop-color:#95b9a5;stop-opacity:1"/></linearGradient><linearGradient id="_Linear6" x1="0" y1="0" x2="1" y2="0" gradientUnits="userSpaceOnUse" gradientTransform="matrix(209.234,1026.71,-1026.71,209.234,769.68,377.529)"><stop offset="0" style="stop-color:#aed9b0;stop-opacity:1"/><stop offset="0.33" style="stop-color:#87d68a;stop-opacity:1"/><stop offset="0.54" style="stop-color:#b6e7e0;stop-opacity:1"/><stop offset="0.88" style="stop-color:#a4b6c9;stop-opacity:1"/><stop offset="1" style="stop-color:#9b9dbe;stop-opacity:0"/></linearGradient><linearGradient id="_Linear7" x1="0" y1="0" x2="1" y2="0" gradientUnits="userSpaceOnUse" gradientTransform="matrix(146.464,-48.3206,48.3206,146.464,529.061,673.83)"><stop offset="0" style="stop-color:#fbbf9f;stop-opacity:1"/><stop offset="1" style="stop-color:#e28350;stop-opacity:1"/></linearGradient><linearGradient id="_Linear8" x1="0" y1="0" x2="1" y2="0" gradientUnits="userSpaceOnUse" gradientTransform="matrix(-376.622,241.603,-241.603,-376.622,1418.31,160.424)"><stop offset="0" style="stop-color:#e5e096;stop-opacity:0.91"/><stop offset="1" style="stop-color:#d48a98;stop-opacity:0.91"/></linearGradient><linearGradient id="_Linear9" x1="0" y1="0" x2="1" y2="0" gradientUnits="userSpaceOnUse" gradientTransform="matrix(35.3486,-27.912,27.912,35.3486,989.376,420.147)"><stop offset="0" style="stop-color:#8021f3;stop-opacity:1"/><stop offset="1" style="stop-color:#6cc9c5;stop-opacity:1"/></linearGradient><linearGradient id="_Linear10" x1="0" y1="0" x2="1" y2="0" gradientUnits="userSpaceOnUse" gradientTransform="matrix(41.8469,7.54207,-7.54207,41.8469,978.914,382.405)"><stop offset="0" style="stop-color:#a66fe8;stop-opacity:1"/><stop offset="1" style="stop-color:#6cc9c5;stop-opacity:1"/></linearGradient><linearGradient id="_Linear11" x1="0" y1="0" x2="1" y2="0" gradientUnits="userSpaceOnUse" gradientTransform="matrix(-376.622,253.683,-253.683,-376.622,1386.92,142.304)"><stop offset="0" style="stop-color:#fce7a9;stop-opacity:0.87"/><stop offset="1" style="stop-color:#cfd787;stop-opacity:1"/></linearGradient><linearGradient id="_Linear12" x1="0" y1="0" x2="1" y2="0" gradientUnits="userSpaceOnUse" gradientTransform="matrix(638.165,-199.322,199.322,638.165,393.058,957.714)"><stop offset="0" style="stop-color:#fce7a9;stop-opacity:1"/><stop offset="0.42" style="stop-color:#edd48d;stop-opacity:1"/><stop offset="0.73" style="stop-color:#ede3b0;stop-opacity:1"/><stop offset="1" style="stop-color:#fcbaa9;stop-opacity:1"/></linearGradient><linearGradient id="_Linear13" x1="0" y1="0" x2="1" y2="0" gradientUnits="userSpaceOnUse" gradientTransform="matrix(83.6937,-217.443,217.443,83.6937,1083.53,667.79)"><stop offset="0" style="stop-color:#fbbf9f;stop-opacity:1"/><stop offset="1" style="stop-color:#621fb5;stop-opacity:1"/></linearGradient><linearGradient id="_Linear14" x1="0" y1="0" x2="1" y2="0" gradientUnits="userSpaceOnUse" gradientTransform="matrix(-10.4615,114.762,-114.762,-10.4615,1052.15,540.949)"><stop offset="0" style="stop-color:#aed9b0;stop-opacity:1"/><stop offset="1" style="stop-color:#99c5b2;stop-opacity:1"/></linearGradient><linearGradient id="_Linear15" x1="0" y1="0" x2="1" y2="0" gradientUnits="userSpaceOnUse" gradientTransform="matrix(146.464,72.4809,-72.4809,146.464,1031.22,516.788)"><stop offset="0" style="stop-color:#fce7a9;stop-opacity:1"/><stop offset="1" style="stop-color:#cce366;stop-opacity:1"/></linearGradient><linearGradient id="_Linear16" x1="0" y1="0" x2="1" y2="0" gradientUnits="userSpaceOnUse" gradientTransform="matrix(62.7703,-96.6412,96.6412,62.7703,131.515,975.834)"><stop offset="0" style="stop-color:#fbbf9f;stop-opacity:1"/><stop offset="1" style="stop-color:#c09ddc;stop-opacity:1"/></linearGradient><linearGradient id="_Linear17" x1="0" y1="0" x2="1" y2="0" gradientUnits="userSpaceOnUse" gradientTransform="matrix(-428.93,-18.1202,18.1202,-428.93,487.214,649.67)"><stop offset="0" style="stop-color:#fce7a9;stop-opacity:1"/><stop offset="0.26" style="stop-color:#f5e3a1;stop-opacity:1"/><stop offset="0.47" style="stop-color:#dbd385;stop-opacity:1"/><stop offset="0.71" style="stop-color:#cfd8a5;stop-opacity:1"/><stop offset="1" style="stop-color:#ccd9ae;stop-opacity:1"/></linearGradient><linearGradient id="_Linear18" x1="0" y1="0" x2="1" y2="0" gradientUnits="userSpaceOnUse" gradientTransform="matrix(-199.966,403.996,-403.996,-199.966,488.407,602.039)"><stop offset="0" style="stop-color:#fbbf9f;stop-opacity:1"/><stop offset="0.23" style="stop-color:#f7be93;stop-opacity:1"/><stop offset="0.47" style="stop-color:#eabc72;stop-opacity:1"/><stop offset="1" style="stop-color:#e4a685;stop-opacity:1"/></linearGradient><linearGradient id="_Linear19" x1="0" y1="0" x2="1" y2="0" gradientUnits="userSpaceOnUse" gradientTransform="matrix(37.5424,-26.6455,26.6455,37.5424,407.825,652.155)"><stop offset="0" style="stop-color:#7ed0ab;stop-opacity:1"/><stop offset="1" style="stop-color:#76b670;stop-opacity:1"/></linearGradient><linearGradient id="_Linear20" x1="0" y1="0" x2="1" y2="0" gradientUnits="userSpaceOnUse" gradientTransform="matrix(50.1268,31.46,-31.46,50.1268,305.492,814.979)"><stop offset="0" style="stop-color:#00b5ff;stop-opacity:1"/><stop offset="1" style="stop-color:#bfb68c;stop-opacity:1"/></linearGradient><linearGradient id="_Linear21" x1="0" y1="0" x2="1" y2="0" gradientUnits="userSpaceOnUse" gradientTransform="matrix(323.962,181.194,-181.194,323.962,372.487,782.56)"><stop offset="0" style="stop-color:#fce7a9;stop-opacity:0.77"/><stop offset="1" style="stop-color:#e9ceab;stop-opacity:1"/></linearGradient><linearGradient id="_Linear22" x1="0" y1="0" x2="1" y2="0" gradientUnits="userSpaceOnUse" gradientTransform="matrix(4.97911e-14,813.151,-813.151,4.97911e-14,738.593,257.065)"><stop offset="0" style="stop-color:#fbd19f;stop-opacity:0.58"/><stop offset="0.43" style="stop-color:#e99c85;stop-opacity:1"/><stop offset="0.72" style="stop-color:#e3ae7d;stop-opacity:1"/><stop offset="1" style="stop-color:#dcc572;stop-opacity:0.76"/></linearGradient><linearGradient id="_Linear23" x1="0" y1="0" x2="1" y2="0" gradientUnits="userSpaceOnUse" gradientTransform="matrix(324.313,190.641,-190.641,324.313,351.212,815.393)"><stop offset="0" style="stop-color:#aed9b0;stop-opacity:0.76"/><stop offset="1" style="stop-color:#8fdbab;stop-opacity:1"/></linearGradient><linearGradient id="_Linear24" x1="0" y1="0" x2="1" y2="0" gradientUnits="userSpaceOnUse" gradientTransform="matrix(-0.113467,745.514,-745.514,-0.113467,696.448,254.415)"><stop offset="0" style="stop-color:#b7d3dd;stop-opacity:0.78"/><stop offset="0.25" style="stop-color:#98d7b7;stop-opacity:0.93"/><stop offset="0.52" style="stop-color:#8aabda;stop-opacity:1"/><stop offset="1" style="stop-color:#95d0a7;stop-opacity:0.77"/></linearGradient><linearGradient id="_Linear25" x1="0" y1="0" x2="1" y2="0" gradientUnits="userSpaceOnUse" gradientTransform="matrix(-167.387,-308.149,308.149,-167.387,1470.62,824.937)"><stop offset="0" style="stop-color:#b286c0;stop-opacity:1"/><stop offset="0.15" style="stop-color:#e9ceb1;stop-opacity:1"/><stop offset="0.34" style="stop-color:#f8e1ad;stop-opacity:1"/><stop offset="0.49" style="stop-color:#e5c8bc;stop-opacity:1"/><stop offset="0.68" style="stop-color:#b98ddf;stop-opacity:1"/><stop offset="0.86" style="stop-color:#dbb2a9;stop-opacity:1"/><stop offset="1" style="stop-color:#ebc390;stop-opacity:1"/></linearGradient><linearGradient id="_Linear26" x1="0" y1="0" x2="1" y2="0" gradientUnits="userSpaceOnUse" gradientTransform="matrix(41.8469,-157.042,157.042,41.8469,1386.92,806.712)"><stop offset="0" style="stop-color:#fbbf9f;stop-opacity:1"/><stop offset="1" style="stop-color:#e685cb;stop-opacity:1"/></linearGradient><linearGradient id="_Linear27" x1="0" y1="0" x2="1" y2="0" gradientUnits="userSpaceOnUse" gradientTransform="matrix(-117.886,294.343,-294.343,-117.886,1407.84,504.708)"><stop offset="0" style="stop-color:#bbc8bb;stop-opacity:1"/><stop offset="0.64" style="stop-color:#6bd3b3;stop-opacity:1"/><stop offset="1" style="stop-color:#a8c7b2;stop-opacity:1"/></linearGradient><linearGradient id="_Linear28" x1="0" y1="0" x2="1" y2="0" gradientUnits="userSpaceOnUse" gradientTransform="matrix(287.187,-160.357,160.357,287.187,733.575,622.785)"><stop offset="0" style="stop-color:#fcd4a9;stop-opacity:1"/><stop offset="1" style="stop-color:#dbe191;stop-opacity:0.88"/></linearGradient><linearGradient id="_Linear29" x1="0" y1="0" x2="1" y2="0" gradientUnits="userSpaceOnUse" gradientTransform="matrix(292.928,-169.122,169.122,292.928,748.757,655.71)"><stop offset="0" style="stop-color:#fb9fa7;stop-opacity:0.89"/><stop offset="1" style="stop-color:#deb95d;stop-opacity:0.89"/></linearGradient><linearGradient id="_Linear30" x1="0" y1="0" x2="1" y2="0" gradientUnits="userSpaceOnUse" gradientTransform="matrix(193.576,123.841,-123.841,193.576,764.415,652.67)"><stop offset="0" style="stop-color:#e7e99e;stop-opacity:1"/><stop offset="1" style="stop-color:#dda47d;stop-opacity:0.86"/></linearGradient><linearGradient id="_Linear31" x1="0" y1="0" x2="1" y2="0" gradientUnits="userSpaceOnUse" gradientTransform="matrix(251.081,132.882,-132.882,251.081,685.986,679.87)"><stop offset="0" style="stop-color:#b2d2b4;stop-opacity:1"/><stop offset="1" style="stop-color:#b6cd90;stop-opacity:0.76"/></linearGradient><linearGradient id="_Linear32" x1="0" y1="0" x2="1" y2="0" gradientUnits="userSpaceOnUse" gradientTransform="matrix(299.208,-145.998,145.998,299.208,449.549,772.886)"><stop offset="0" style="stop-color:#fce7a9;stop-opacity:0.89"/><stop offset="1" style="stop-color:#e8a46a;stop-opacity:1"/></linearGradient><linearGradient id="_Linear33" x1="0" y1="0" x2="1" y2="0" gradientUnits="userSpaceOnUse" gradientTransform="matrix(41.8469,6.81282,-6.81282,41.8469,413.958,805.939)"><stop offset="0" style="stop-color:#df97d8;stop-opacity:1"/><stop offset="1" style="stop-color:#adff00;stop-opacity:1"/></linearGradient><linearGradient id="_Linear34" x1="0" y1="0" x2="1" y2="0" gradientUnits="userSpaceOnUse" gradientTransform="matrix(38.2697,-35.1522,35.1522,38.2697,422.447,841.814)"><stop offset="0" style="stop-color:#b18aad;stop-opacity:1"/><stop offset="1" style="stop-color:#05ff00;stop-opacity:1"/></linearGradient><linearGradient id="_Linear35" x1="0" y1="0" x2="1" y2="0" gradientUnits="userSpaceOnUse" gradientTransform="matrix(282.466,-163.082,163.082,282.466,434.905,788.592)"><stop offset="0" style="stop-color:#fbd19f;stop-opacity:0.92"/><stop offset="0.47" style="stop-color:#f4baad;stop-opacity:0.92"/><stop offset="1" style="stop-color:#e07dd1;stop-opacity:0.92"/></linearGradient><linearGradient id="_Linear36" x1="0" y1="0" x2="1" y2="0" gradientUnits="userSpaceOnUse" gradientTransform="matrix(10.4617,308.044,-308.044,10.4617,518.599,365.787)"><stop offset="0" style="stop-color:#fce7a9;stop-opacity:0.72"/><stop offset="1" style="stop-color:#e8a894;stop-opacity:1"/></linearGradient><linearGradient id="_Linear37" x1="0" y1="0" x2="1" y2="0" gradientUnits="userSpaceOnUse" gradientTransform="matrix(304.583,246.954,-246.954,304.583,318.633,432.917)"><stop offset="0" style="stop-color:#aed9b0;stop-opacity:0.92"/><stop offset="0.44" style="stop-color:#addcbc;stop-opacity:0.91"/><stop offset="1" style="stop-color:#abe2d6;stop-opacity:0.9"/></linearGradient><linearGradient id="_Linear38" x1="0" y1="0" x2="1" y2="0" gradientUnits="userSpaceOnUse" gradientTransform="matrix(41.8469,-12.0801,12.0801,41.8469,403.52,637.59)"><stop offset="0" style="stop-color:#b25bd4;stop-opacity:1"/><stop offset="1" style="stop-color:#6cc9c5;stop-opacity:1"/></linearGradient><linearGradient id="_Linear39" x1="0" y1="0" x2="1" y2="0" gradientUnits="userSpaceOnUse" gradientTransform="matrix(-10.4617,42.2805,-42.2805,-10.4617,1481.08,184.584)"><stop offset="0" style="stop-color:#b25bd4;stop-opacity:1"/><stop offset="1" style="stop-color:#6cc9c5;stop-opacity:1"/></linearGradient><linearGradient id="_Linear40" x1="0" y1="0" x2="1" y2="0" gradientUnits="userSpaceOnUse" gradientTransform="matrix(20.3266,48.6652,-48.6652,20.3266,1450.29,178.2)"><stop offset="0" style="stop-color:#97abd6;stop-opacity:1"/><stop offset="1" style="stop-color:#6cc9c5;stop-opacity:1"/></linearGradient><linearGradient id="_Linear41" x1="0" y1="0" x2="1" y2="0" gradientUnits="userSpaceOnUse" gradientTransform="matrix(-20.9234,60.4007,-60.4007,-20.9234,288.441,583.229)"><stop offset="0" style="stop-color:#727ce2;stop-opacity:1"/><stop offset="1" style="stop-color:#ff0018;stop-opacity:1"/></linearGradient><linearGradient id="_Linear42" x1="0" y1="0" x2="1" y2="0" gradientUnits="userSpaceOnUse" gradientTransform="matrix(42.1098,65.4583,-65.4583,42.1098,235.15,577.756)"><stop offset="0" style="stop-color:#a1a8ee;stop-opacity:1"/><stop offset="1" style="stop-color:#ff0018;stop-opacity:1"/></linearGradient><linearGradient id="_Linear43" x1="0" y1="0" x2="1" y2="0" gradientUnits="userSpaceOnUse" gradientTransform="matrix(62.7703,-72.4809,72.4809,62.7703,1073.07,492.628)"><stop offset="0" style="stop-color:#8021f3;stop-opacity:1"/><stop offset="1" style="stop-color:#ff006f;stop-opacity:1"/></linearGradient><linearGradient id="_Linear44" x1="0" y1="0" x2="1" y2="0" gradientUnits="userSpaceOnUse" gradientTransform="matrix(120.978,-9.44605,9.44605,120.978,1041.68,438.268)"><stop offset="0" style="stop-color:#a66fe8;stop-opacity:1"/><stop offset="1" style="stop-color:#ff006f;stop-opacity:1"/></linearGradient><linearGradient id="_Linear45" x1="0" y1="0" x2="1" y2="0" gradientUnits="userSpaceOnUse" gradientTransform="matrix(87.1946,-94.62,94.62,87.1946,1209.07,546.989)"><stop offset="0" style="stop-color:#f4cb55;stop-opacity:1"/><stop offset="1" style="stop-color:#f5d9a3;stop-opacity:1"/></linearGradient><linearGradient id="_Linear46" x1="0" y1="0" x2="1" y2="0" gradientUnits="userSpaceOnUse" gradientTransform="matrix(-366.16,259.723,-259.723,-366.16,1491.54,528.869)"><stop offset="0" style="stop-color:#fbbf9f;stop-opacity:1"/><stop offset="0.44" style="stop-color:#cf9cd2;stop-opacity:1"/><stop offset="1" style="stop-color:#e178a0;stop-opacity:1"/></linearGradient><linearGradient id="_Linear47" x1="0" y1="0" x2="1" y2="0" gradientUnits="userSpaceOnUse" gradientTransform="matrix(62.7703,-24.1603,24.1603,62.7703,1376.46,329.546)"><stop offset="0" style="stop-color:#5da099;stop-opacity:1"/><stop offset="1" style="stop-color:#ff006f;stop-opacity:1"/></linearGradient><linearGradient id="_Linear48" x1="0" y1="0" x2="1" y2="0" gradientUnits="userSpaceOnUse" gradientTransform="matrix(26.7512,-32.8758,32.8758,26.7512,1391.56,350.342)"><stop offset="0" style="stop-color:#0b9c85;stop-opacity:1"/><stop offset="1" style="stop-color:#ff006f;stop-opacity:1"/></linearGradient><linearGradient id="_Linear49" x1="0" y1="0" x2="1" y2="0" gradientUnits="userSpaceOnUse" gradientTransform="matrix(-62.7703,652.328,-652.328,-62.7703,1271.84,353.706)"><stop offset="0" style="stop-color:#f6d496;stop-opacity:1"/><stop offset="0.33" style="stop-color:#fdde84;stop-opacity:1"/><stop offset="0.61" style="stop-color:#ecb976;stop-opacity:1"/><stop offset="1" style="stop-color:#dce3ae;stop-opacity:1"/></linearGradient><linearGradient id="_Linear50" x1="0" y1="0" x2="1" y2="0" gradientUnits="userSpaceOnUse" gradientTransform="matrix(-41.8469,-36.2404,36.2404,-41.8469,1291.25,956.837)"><stop offset="0" style="stop-color:#865ec7;stop-opacity:1"/><stop offset="1" style="stop-color:#ff006f;stop-opacity:1"/></linearGradient><linearGradient id="_Linear51" x1="0" y1="0" x2="1" y2="0" gradientUnits="userSpaceOnUse" gradientTransform="matrix(-41.8469,-36.2404,36.2404,-41.8469,1050.56,1095.78)"><stop offset="0" style="stop-color:#865ec7;stop-opacity:1"/><stop offset="1" style="stop-color:#6cc9c5;stop-opacity:1"/></linearGradient><linearGradient id="_Linear52" x1="0" y1="0" x2="1" y2="0" gradientUnits="userSpaceOnUse" gradientTransform="matrix(-65.1305,-22.7977,22.7977,-65.1305,1322.63,926.637)"><stop offset="0" style="stop-color:#a384cb;stop-opacity:1"/><stop offset="1" style="stop-color:#ff006f;stop-opacity:1"/></linearGradient><linearGradient id="_Linear53" x1="0" y1="0" x2="1" y2="0" gradientUnits="userSpaceOnUse" gradientTransform="matrix(-41.8469,-36.2404,36.2404,-41.8469,1239.64,986.753)"><stop offset="0" style="stop-color:#865ec7;stop-opacity:1"/><stop offset="1" style="stop-color:#ff6100;stop-opacity:1"/></linearGradient><linearGradient id="_Linear54" x1="0" y1="0" x2="1" y2="0" gradientUnits="userSpaceOnUse" gradientTransform="matrix(-65.1305,-22.7977,22.7977,-65.1305,1271.02,957.377)"><stop offset="0" style="stop-color:#a384cb;stop-opacity:1"/><stop offset="1" style="stop-color:#ff4a00;stop-opacity:1"/></linearGradient><linearGradient id="_Linear55" x1="0" y1="0" x2="1" y2="0" gradientUnits="userSpaceOnUse" gradientTransform="matrix(-26.1519,-45.3019,45.3019,-26.1519,685.986,679.87)"><stop offset="0" style="stop-color:#b18fe9;stop-opacity:1"/><stop offset="1" style="stop-color:#05ff00;stop-opacity:1"/></linearGradient><linearGradient id="_Linear56" x1="0" y1="0" x2="1" y2="0" gradientUnits="userSpaceOnUse" gradientTransform="matrix(-61.4186,-21.3438,21.3438,-61.4186,724.718,641.832)"><stop offset="0" style="stop-color:#caacf0;stop-opacity:1"/><stop offset="1" style="stop-color:#05ff00;stop-opacity:1"/></linearGradient><linearGradient id="_Linear57" x1="0" y1="0" x2="1" y2="0" gradientUnits="userSpaceOnUse" gradientTransform="matrix(-26.1519,-45.3019,45.3019,-26.1519,925.033,1168.21)"><stop offset="0" style="stop-color:#865ec7;stop-opacity:1"/><stop offset="1" style="stop-color:#05ff00;stop-opacity:1"/></linearGradient><linearGradient id="_Linear58" x1="0" y1="0" x2="1" y2="0" gradientUnits="userSpaceOnUse" gradientTransform="matrix(-61.4186,-21.3438,21.3438,-61.4186,963.765,1130.17)"><stop offset="0" style="stop-color:#a384cb;stop-opacity:1"/><stop offset="1" style="stop-color:#05ff00;stop-opacity:1"/></linearGradient><linearGradient id="_Linear59" x1="0" y1="0" x2="1" y2="0" gradientUnits="userSpaceOnUse" gradientTransform="matrix(-65.1305,-22.7977,22.7977,-65.1305,1081.95,1065.58)"><stop offset="0" style="stop-color:#a384cb;stop-opacity:1"/><stop offset="1" style="stop-color:#6cc9c5;stop-opacity:1"/></linearGradient><linearGradient id="_Linear60" x1="0" y1="0" x2="1" y2="0" gradientUnits="userSpaceOnUse" gradientTransform="matrix(-5.61833,51.1169,-51.1169,-5.61833,1262.3,462.958)"><stop offset="0" style="stop-color:#bf9bec;stop-opacity:1"/><stop offset="1" style="stop-color:#00fdff;stop-opacity:1"/></linearGradient><linearGradient id="_Linear61" x1="0" y1="0" x2="1" y2="0" gradientUnits="userSpaceOnUse" gradientTransform="matrix(76.3593,44.0861,-44.0861,76.3593,257.056,722.151)"><stop offset="0" style="stop-color:#00b5ff;stop-opacity:1"/><stop offset="0.46" style="stop-color:#a4d1c0;stop-opacity:1"/><stop offset="1" style="stop-color:#d3d9ae;stop-opacity:1"/></linearGradient><linearGradient id="_Linear62" x1="0" y1="0" x2="1" y2="0" gradientUnits="userSpaceOnUse" gradientTransform="matrix(-41.8469,-72.4809,72.4809,-41.8469,277.98,782.552)"><stop offset="0" style="stop-color:#fce7a9;stop-opacity:1"/><stop offset="1" style="stop-color:#00b5ff;stop-opacity:1"/></linearGradient><linearGradient id="_Linear63" x1="0" y1="0" x2="1" y2="0" gradientUnits="userSpaceOnUse" gradientTransform="matrix(-183.08,196.302,-196.302,-183.08,387.828,640.61)"><stop offset="0" style="stop-color:#fba49f;stop-opacity:1"/><stop offset="0.43" style="stop-color:#eabf6d;stop-opacity:1"/><stop offset="1" style="stop-color:#eab184;stop-opacity:1"/></linearGradient><linearGradient id="_Linear64" x1="0" y1="0" x2="1" y2="0" gradientUnits="userSpaceOnUse" gradientTransform="matrix(-136.002,211.403,-211.403,-136.002,173.362,782.552)"><stop offset="0" style="stop-color:#aed9b0;stop-opacity:1"/><stop offset="0.32" style="stop-color:#a4efd2;stop-opacity:1"/><stop offset="1" style="stop-color:#ccddcd;stop-opacity:1"/></linearGradient><linearGradient id="_Linear65" x1="0" y1="0" x2="1" y2="0" gradientUnits="userSpaceOnUse" gradientTransform="matrix(-187.714,-180.858,180.858,-187.714,518.002,739.927)"><stop offset="0" style="stop-color:#aed9d5;stop-opacity:1"/><stop offset="1" style="stop-color:#a5f6c0;stop-opacity:1"/></linearGradient><linearGradient id="_Linear66" x1="0" y1="0" x2="1" y2="0" gradientUnits="userSpaceOnUse" gradientTransform="matrix(50.1268,31.46,-31.46,50.1268,315.954,808.948)"><stop offset="0" style="stop-color:#00b5ff;stop-opacity:1"/><stop offset="1" style="stop-color:#bfb68c;stop-opacity:1"/></linearGradient><linearGradient id="_Linear67" x1="0" y1="0" x2="1" y2="0" gradientUnits="userSpaceOnUse" gradientTransform="matrix(73.232,102.681,-102.681,73.232,288.441,764.432)"><stop offset="0" style="stop-color:#004fff;stop-opacity:1"/><stop offset="1" style="stop-color:#bfb68c;stop-opacity:1"/></linearGradient><linearGradient id="_Linear68" x1="0" y1="0" x2="1" y2="0" gradientUnits="userSpaceOnUse" gradientTransform="matrix(-41.8469,-12.0801,12.0801,-41.8469,1386.92,323.506)"><stop offset="0" style="stop-color:#6c4daf;stop-opacity:1"/><stop offset="1" style="stop-color:#6cc9c5;stop-opacity:1"/></linearGradient><linearGradient id="_Linear69" x1="0" y1="0" x2="1" y2="0" gradientUnits="userSpaceOnUse" gradientTransform="matrix(-31.3851,-30.2004,30.2004,-31.3851,1376.46,353.706)"><stop offset="0" style="stop-color:#a68be2;stop-opacity:1"/><stop offset="1" style="stop-color:#6cc9c5;stop-opacity:1"/></linearGradient><linearGradient id="_Linear70" x1="0" y1="0" x2="1" y2="0" gradientUnits="userSpaceOnUse" gradientTransform="matrix(334.775,217.443,-217.443,334.775,89.6686,190.624)"><stop offset="0" style="stop-color:#aed9b0;stop-opacity:1"/><stop offset="1" style="stop-color:#9ed9c5;stop-opacity:1"/></linearGradient><linearGradient id="_Linear71" x1="0" y1="0" x2="1" y2="0" gradientUnits="userSpaceOnUse" gradientTransform="matrix(24.7182,106.53,-106.53,24.7182,504.342,422.338)"><stop offset="0" style="stop-color:#a1a8ee;stop-opacity:1"/><stop offset="1" style="stop-color:#ff006f;stop-opacity:1"/></linearGradient><linearGradient id="_Linear72" x1="0" y1="0" x2="1" y2="0" gradientUnits="userSpaceOnUse" gradientTransform="matrix(-10.4617,66.4408,-66.4408,-10.4617,539.522,426.187)"><stop offset="0" style="stop-color:#727ce2;stop-opacity:1"/><stop offset="1" style="stop-color:#ff00e6;stop-opacity:1"/></linearGradient><linearGradient id="_Linear73" x1="0" y1="0" x2="1" y2="0" gradientUnits="userSpaceOnUse" gradientTransform="matrix(-73.232,-6.04007,6.04007,-73.232,874.297,414.107)"><stop offset="0" style="stop-color:#6f48c5;stop-opacity:1"/><stop offset="1" style="stop-color:#ff006f;stop-opacity:1"/></linearGradient><linearGradient id="_Linear74" x1="0" y1="0" x2="1" y2="0" gradientUnits="userSpaceOnUse" gradientTransform="matrix(-52.3086,-54.3607,54.3607,-52.3086,842.912,468.468)"><stop offset="0" style="stop-color:#a1a8ee;stop-opacity:1"/><stop offset="1" style="stop-color:#ff006f;stop-opacity:1"/></linearGradient><linearGradient id="_Linear75" x1="0" y1="0" x2="1" y2="0" gradientUnits="userSpaceOnUse" gradientTransform="matrix(83.6937,0,0,83.6937,100.13,716.111)"><stop offset="0" style="stop-color:#a1a8ee;stop-opacity:1"/><stop offset="1" style="stop-color:#ff0300;stop-opacity:1"/></linearGradient><linearGradient id="_Linear76" x1="0" y1="0" x2="1" y2="0" gradientUnits="userSpaceOnUse" gradientTransform="matrix(51.9043,-60.3213,60.3213,51.9043,115.956,809.809)"><stop offset="0" style="stop-color:#639ad2;stop-opacity:1"/><stop offset="1" style="stop-color:#ff0018;stop-opacity:1"/></linearGradient><linearGradient id="_Linear77" x1="0" y1="0" x2="1" y2="0" gradientUnits="userSpaceOnUse" gradientTransform="matrix(-5.2308,183.533,-183.533,-5.2308,393.058,602.039)"><stop offset="0" style="stop-color:#727ce2;stop-opacity:1"/><stop offset="0.32" style="stop-color:#d277e2;stop-opacity:1"/><stop offset="0.66" style="stop-color:#b974e2;stop-opacity:1"/><stop offset="1" style="stop-color:#bfb68c;stop-opacity:1"/></linearGradient><linearGradient id="_Linear78" x1="0" y1="0" x2="1" y2="0" gradientUnits="userSpaceOnUse" gradientTransform="matrix(31.982,-41.9359,41.9359,31.982,413.385,667.446)"><stop offset="0" style="stop-color:#97abd6;stop-opacity:1"/><stop offset="1" style="stop-color:#6cc9c5;stop-opacity:1"/></linearGradient><linearGradient id="_Linear79" x1="0" y1="0" x2="1" y2="0" gradientUnits="userSpaceOnUse" gradientTransform="matrix(-10.4617,42.2805,-42.2805,-10.4617,727.833,220.825)"><stop offset="0" style="stop-color:#b25bd4;stop-opacity:1"/><stop offset="1" style="stop-color:#6cc9c5;stop-opacity:1"/></linearGradient><linearGradient id="_Linear80" x1="0" y1="0" x2="1" y2="0" gradientUnits="userSpaceOnUse" gradientTransform="matrix(20.3266,48.6652,-48.6652,20.3266,697.045,214.44)"><stop offset="0" style="stop-color:#97abd6;stop-opacity:1"/><stop offset="1" style="stop-color:#6cc9c5;stop-opacity:1"/></linearGradient></defs></svg>