<?xml version="1.0" encoding="UTF-8" standalone="no"?><!DOCTYPE svg PUBLIC "-//W3C//DTD SVG 1.1//EN" "http://www.w3.org/Graphics/SVG/1.1/DTD/svg11.dtd"><svg width="100%" height="100%" viewBox="0 0 519 487" version="1.1" xmlns="http://www.w3.org/2000/svg" xmlns:xlink="http://www.w3.org/1999/xlink" xml:space="preserve" xmlns:serif="http://www.serif.com/" style="fill-rule:evenodd;clip-rule:evenodd;stroke-linejoin:round;stroke-miterlimit:2;"><rect id="Artboard1" x="0" y="0" width="518.559" height="486" style="fill:none;"/><path d="M257.421,128.709l65.009,37.533l0,125.11l-94.056,-54.303l0,-125.11l0,-22.603l29.047,39.373Z" style="fill:url(#_Linear1);"/><path d="M149.073,191.264l43.339,-25.022c0,0 65.047,-37.511 130.018,0c64.971,37.511 151.688,87.577 151.688,87.577l0,100.088l-258.08,-147.239l-23.626,9.618l-43.339,-25.022Z" style="fill:url(#_Linear2);"/><path d="M202.041,203.412l0,12.019l-9.596,0.874l9.596,-12.893Z" style="fill:url(#_Linear3);"/><path d="M341.632,214.861l0,42.712l-19.202,0l0,-16.265l19.202,-26.447Z" style="fill:url(#_Linear4);"/><path d="M168.548,164.975l0,15.045l-19.336,11.163l19.336,-26.208Z" style="fill:url(#_Linear5);"/><path d="M149.073,191.264c0,0 43.834,-24.736 0,-50.044c-43.835,-25.308 -86.679,0 -86.679,0l0,50.044l86.679,0Z" style="fill:url(#_Linear6);"/><path d="M322.43,241.308c0,0 43.218,-25.092 86.679,0c43.461,25.092 43.339,25.022 43.339,25.022l0,100.088l-130.018,-75.066l0,-50.044Z" style="fill:url(#_Linear7);"/><path d="M279.091,316.374l0,100.088c0,0 43.332,25.026 86.678,0c19.419,-11.211 19.469,-23.751 19.469,-23.751l-0.158,-99.997l-105.989,23.66Z" style="fill:url(#_Linear8);"/><path d="M192.445,216.305l43.306,-25.041c0,0 43.461,-24.952 86.679,0c43.218,24.952 0,50.044 0,50.044l0,37.533l-32.505,18.766l-97.48,-81.302Z" style="fill:url(#_Linear9);"/><path d="M192.412,266.33c0,0 43.366,25.007 86.679,0c43.313,-25.007 0,-50.044 0,-50.044c0,0 -21.502,-12.608 -43.34,0c-21.837,12.608 -43.339,0 -43.339,0l-43.339,-25.022l0,50.044l43.339,25.022" style="fill:url(#_Linear10);"/><path d="M279.091,316.374l0,25.022c0,0 -43.288,25.052 -86.679,0c-43.391,-25.052 -43.339,-25.022 -43.339,-25.022l0,-75.066l43.339,25.022c0,0 43.632,24.853 87.165,-0.281l0,0.002c43.133,-24.531 86.192,0.279 86.192,0.279c0,0 43.463,24.951 0,50.044c-40.772,23.54 -81.814,2.644 -86.678,0Z" style="fill:url(#_Linear11);"/><path d="M149.28,191.384c0,0 -43.622,-25.099 -86.886,-0.12c-14.12,8.152 -19.267,17.779 -19.466,25.075c-0.411,15.061 19.466,24.969 19.466,24.969l87.679,50.044l-0.793,-99.968Z" style="fill:url(#_Linear12);"/><path d="M149.073,241.308c0,0 -43.067,25.18 -86.679,0c-10.692,-6.173 -19.134,-14.866 -19.377,-23.698c-0.415,-15.063 -0.823,77.769 -0.823,77.769c0,3.466 7.105,13.435 20.2,20.995c0,0 43.189,25.109 86.679,0l0,-75.066Z" style="fill:url(#_Linear13);"/><path d="M149.073,291.352l0,100.088c0,0 19.407,-10.642 19.407,-28.503c0,-5.18 -0.377,-95.083 -0.377,-95.083" style="fill:url(#_Linear14);"/><path d="M149.028,241.334c0,0 43.209,25.097 0.045,50.018l-0.045,-50.018Z" style="fill:url(#_Linear15);"/><path d="M303.233,139.792l0,15.367l25.795,14.892l-25.795,-30.259Z" style="fill:url(#_Linear16);"/><path d="M322.43,166.242c0,0 -43.207,-25.099 0,-50.044c43.207,-24.945 86.679,0 86.679,0l0,100.088l-86.679,-50.044Z" style="fill:url(#_Linear17);"/><path d="M257.421,128.709c0,0 -65.37,-37.325 0,-75.066l0,75.066Z" style="fill:url(#_Linear18);"/><path d="M192.445,216.305c0,0 21.614,-12.543 -0.033,-25.041c-21.647,-12.498 -43.32,0.011 -43.32,0.011l43.353,25.03Z" style="fill:url(#_Linear19);"/><defs><linearGradient id="_Linear1" x1="0" y1="0" x2="1" y2="0" gradientUnits="userSpaceOnUse" gradientTransform="matrix(-94.0564,1.15186e-14,-1.15186e-14,-94.0564,322.43,141.22)"><stop offset="0" style="stop-color:#003790;stop-opacity:1"/><stop offset="1" style="stop-color:#fe734a;stop-opacity:1"/></linearGradient><linearGradient id="_Linear2" x1="0" y1="0" x2="1" y2="0" gradientUnits="userSpaceOnUse" gradientTransform="matrix(325.045,0,0,325.045,149.073,191.264)"><stop offset="0" style="stop-color:#fe734a;stop-opacity:1"/><stop offset="1" style="stop-color:#003790;stop-opacity:1"/></linearGradient><linearGradient id="_Linear3" x1="0" y1="0" x2="1" y2="0" gradientUnits="userSpaceOnUse" gradientTransform="matrix(9.00531,0,0,9.00531,196.394,210.999)"><stop offset="0" style="stop-color:#fe734a;stop-opacity:1"/><stop offset="1" style="stop-color:#003790;stop-opacity:1"/></linearGradient><linearGradient id="_Linear4" x1="0" y1="0" x2="1" y2="0" gradientUnits="userSpaceOnUse" gradientTransform="matrix(34.3703,0,0,34.3703,325.963,236.442)"><stop offset="0" style="stop-color:#fe734a;stop-opacity:1"/><stop offset="1" style="stop-color:#003790;stop-opacity:1"/></linearGradient><linearGradient id="_Linear5" x1="0" y1="0" x2="1" y2="0" gradientUnits="userSpaceOnUse" gradientTransform="matrix(-14.1418,1.73187e-15,-1.73187e-15,-14.1418,168.548,176.418)"><stop offset="0" style="stop-color:#fe734a;stop-opacity:1"/><stop offset="1" style="stop-color:#003790;stop-opacity:1"/></linearGradient><linearGradient id="_Linear6" x1="0" y1="0" x2="1" y2="0" gradientUnits="userSpaceOnUse" gradientTransform="matrix(105.764,0,0,105.764,62.3938,161.802)"><stop offset="0" style="stop-color:#fe734a;stop-opacity:1"/><stop offset="1" style="stop-color:#003790;stop-opacity:1"/></linearGradient><linearGradient id="_Linear7" x1="0" y1="0" x2="1" y2="0" gradientUnits="userSpaceOnUse" gradientTransform="matrix(130.018,0,0,130.018,322.43,266.33)"><stop offset="0" style="stop-color:#fe734a;stop-opacity:1"/><stop offset="1" style="stop-color:#003790;stop-opacity:1"/></linearGradient><linearGradient id="_Linear8" x1="0" y1="0" x2="1" y2="0" gradientUnits="userSpaceOnUse" gradientTransform="matrix(106.106,0,0,106.106,279.091,366.418)"><stop offset="0" style="stop-color:#fc7351;stop-opacity:1"/><stop offset="1" style="stop-color:#003790;stop-opacity:1"/></linearGradient><linearGradient id="_Linear9" x1="0" y1="0" x2="1" y2="0" gradientUnits="userSpaceOnUse" gradientTransform="matrix(-149.166,1.82675e-14,-1.82675e-14,-149.166,341.611,216.305)"><stop offset="0" style="stop-color:#003790;stop-opacity:1"/><stop offset="1" style="stop-color:#fe734a;stop-opacity:1"/></linearGradient><linearGradient id="_Linear10" x1="0" y1="0" x2="1" y2="0" gradientUnits="userSpaceOnUse" gradientTransform="matrix(-147.233,1.80308e-14,-1.80308e-14,-147.233,296.305,238.736)"><stop offset="0" style="stop-color:#003790;stop-opacity:1"/><stop offset="0.55" style="stop-color:#fe734a;stop-opacity:1"/><stop offset="1" style="stop-color:#003790;stop-opacity:1"/></linearGradient><linearGradient id="_Linear11" x1="0" y1="0" x2="1" y2="0" gradientUnits="userSpaceOnUse" gradientTransform="matrix(228.757,0,0,228.757,155.578,287.136)"><stop offset="0" style="stop-color:#fe734a;stop-opacity:1"/><stop offset="0.34" style="stop-color:#003790;stop-opacity:1"/><stop offset="1" style="stop-color:#fe734a;stop-opacity:1"/></linearGradient><linearGradient id="_Linear12" x1="0" y1="0" x2="1" y2="0" gradientUnits="userSpaceOnUse" gradientTransform="matrix(-106.108,1.29945e-14,-1.29945e-14,-106.108,149.073,216.286)"><stop offset="0" style="stop-color:#003790;stop-opacity:1"/><stop offset="1" style="stop-color:#fe734a;stop-opacity:1"/></linearGradient><linearGradient id="_Linear13" x1="0" y1="0" x2="1" y2="0" gradientUnits="userSpaceOnUse" gradientTransform="matrix(-106.737,1.30715e-14,-1.30715e-14,-106.737,149.073,271.2)"><stop offset="0" style="stop-color:#fe734a;stop-opacity:1"/><stop offset="1" style="stop-color:#003790;stop-opacity:1"/></linearGradient><linearGradient id="_Linear14" x1="0" y1="0" x2="1" y2="0" gradientUnits="userSpaceOnUse" gradientTransform="matrix(24.2575,0,0,24.2575,144.112,332.802)"><stop offset="0" style="stop-color:#fe734a;stop-opacity:1"/><stop offset="1" style="stop-color:#003790;stop-opacity:1"/></linearGradient><linearGradient id="_Linear15" x1="0" y1="0" x2="1" y2="0" gradientUnits="userSpaceOnUse" gradientTransform="matrix(19.0326,0,0,19.0326,149.073,268.302)"><stop offset="0" style="stop-color:#003790;stop-opacity:1"/><stop offset="1" style="stop-color:#fe734a;stop-opacity:1"/></linearGradient><linearGradient id="_Linear16" x1="0" y1="0" x2="1" y2="0" gradientUnits="userSpaceOnUse" gradientTransform="matrix(17.4,0,0,17.4,302.962,151.618)"><stop offset="0" style="stop-color:#fe734a;stop-opacity:1"/><stop offset="1" style="stop-color:#003790;stop-opacity:1"/></linearGradient><linearGradient id="_Linear17" x1="0" y1="0" x2="1" y2="0" gradientUnits="userSpaceOnUse" gradientTransform="matrix(-108.348,1.32689e-14,-1.32689e-14,-108.348,409.109,153.731)"><stop offset="0" style="stop-color:#fe734a;stop-opacity:1"/><stop offset="1" style="stop-color:#003790;stop-opacity:1"/></linearGradient><linearGradient id="_Linear18" x1="0" y1="0" x2="1" y2="0" gradientUnits="userSpaceOnUse" gradientTransform="matrix(28.8591,0,0,28.8591,228.562,93.0373)"><stop offset="0" style="stop-color:#003790;stop-opacity:1"/><stop offset="1" style="stop-color:#fe734a;stop-opacity:1"/></linearGradient><linearGradient id="_Linear19" x1="0" y1="0" x2="1" y2="0" gradientUnits="userSpaceOnUse" gradientTransform="matrix(49.7098,0,0,49.7098,149.092,191.275)"><stop offset="0" style="stop-color:#fe734a;stop-opacity:1"/><stop offset="1" style="stop-color:#003790;stop-opacity:1"/></linearGradient></defs></svg>