<?xml version="1.0" encoding="UTF-8" standalone="no"?><!DOCTYPE svg PUBLIC "-//W3C//DTD SVG 1.1//EN" "http://www.w3.org/Graphics/SVG/1.1/DTD/svg11.dtd"><svg width="100%" height="100%" viewBox="0 0 682 599" version="1.1" xmlns="http://www.w3.org/2000/svg" xmlns:xlink="http://www.w3.org/1999/xlink" xml:space="preserve" xmlns:serif="http://www.serif.com/" style="fill-rule:evenodd;clip-rule:evenodd;stroke-linejoin:round;stroke-miterlimit:2;"><rect id="Artboard1" x="0" y="0" width="681.95" height="598.939" style="fill:none;"/><path d="M281.706,100.088l65.009,-37.533l0,75.066l-65.009,37.533l0,-75.066Z" style="fill:url(#_Linear1);"/><path d="M346.715,137.621l65.009,37.533l0,-75.066l-65.009,-37.533l0,75.066Z" style="fill:url(#_Linear2);"/><path d="M281.706,175.154l65.009,37.533l65.009,-37.533l-65.009,-37.533l-65.009,37.533Z" style="fill:url(#_Linear3);"/><path d="M281.706,175.154l0,75.066l65.009,37.533l0,-75.066l-65.009,-37.533Z" style="fill:url(#_Linear4);"/><path d="M411.724,175.154l0,-75.066l86.679,50.044l0,50.044l-86.679,50.044l-65.009,37.533l0,-75.066l65.009,-37.533l0,0Z" style="fill:url(#_Linear5);"/><path d="M368.385,225.198l0,25.022l21.669,-12.511l-21.669,-12.511Z" style="fill:url(#_Linear6);"/><path d="M390.054,212.687l0,25.022l-21.669,-12.511l21.669,-12.511Z" style="fill:url(#_Linear7);"/><path d="M303.376,112.599l0,25.022l21.669,-12.511l-21.669,-12.511Z" style="fill:url(#_Linear8);"/><path d="M325.045,100.088l0,25.022l-21.669,-12.511l21.669,-12.511Z" style="fill:url(#_Linear9);"/><path d="M476.733,162.643l0,25.022l-21.67,-12.511l21.67,-12.511Z" style="fill:url(#_Linear10);"/><path d="M455.063,150.132l0,25.022l21.67,-12.511l-21.67,-12.511Z" style="fill:url(#_Linear11);"/><path d="M411.724,100.088l65.009,-37.533l86.679,50.044l-65.009,37.533l-86.679,-50.044Z" style="fill:url(#_Linear12);"/><path d="M563.412,162.643l0,-50.044l-65.009,37.533l0,50.044l65.009,-37.533Z" style="fill:url(#_Linear13);"/><path d="M281.706,175.154l-65.009,37.533l0,75.066l65.009,-37.533l0,-75.066Z" style="fill:url(#_Linear14);"/><path d="M281.706,175.154l0,-75.066l-130.018,75.066l65.009,37.533l65.009,-37.533Z" style="fill:url(#_Linear15);"/><path d="M216.697,287.753l-65.009,37.533l0,-150.132l65.009,37.533l0,75.066Z" style="fill:url(#_Linear16);"/><path d="M195.027,250.22l-21.669,-12.511l21.669,-12.511l0,25.022Z" style="fill:url(#_Linear17);"/><path d="M173.358,212.687l21.669,12.511l-21.669,12.511l0,-25.022Z" style="fill:url(#_Linear18);"/><path d="M216.697,362.819l0,75.066l65.009,-37.533l0,-75.066l-65.009,37.533Z" style="fill:url(#_Linear19);"/><path d="M86.679,212.687l0,150.132l130.018,75.066l0,-75.066l-65.009,-37.533l0,-75.066l-65.009,-37.533Z" style="fill:url(#_Linear20);"/><path d="M205.862,356.564l-54.174,-31.278l65.009,-37.533l65.009,37.533l-65.009,37.533l-10.835,6.255l0,-12.511l0,0.001Z" style="fill:url(#_Linear21);"/><path d="M216.697,312.775l0,25.022l-21.67,-12.511l21.67,-12.511" style="fill:url(#_Linear22);"/><path d="M238.367,325.286l-21.67,-12.511l0,25.022l21.67,-12.511Z" style="fill:url(#_Linear23);"/><path d="M498.403,200.176l65.009,37.533l65.009,-37.533l-65.009,-37.533l-65.009,37.533Z" style="fill:url(#_Linear24);"/><path d="M628.421,200.176l0,150.132l-65.009,-37.533l0,-75.066l65.009,-37.533Z" style="fill:url(#_Linear25);"/><path d="M498.403,200.176l0,150.132l65.009,-37.533l0,-75.066l-65.009,-37.533Z" style="fill:url(#_Linear26);"/><path d="M563.412,387.841l65.009,-37.533l-65.009,-37.533l-65.009,37.533l65.009,37.533Z" style="fill:url(#_Linear27);"/><path d="M520.073,312.775l21.669,-12.511l-21.669,-12.511l0,25.022Z" style="fill:url(#_Linear28);"/><path d="M541.742,275.242l-21.669,12.511l21.669,12.511l0,-25.022Z" style="fill:url(#_Linear29);"/><path d="M585.082,275.242l0,-25.022l21.669,12.511l-21.669,12.511Z" style="fill:url(#_Linear30);"/><path d="M606.751,237.709l0,25.022l-21.669,-12.511l21.669,-12.511Z" style="fill:url(#_Linear31);"/><path d="M563.412,387.841l0,75.066l-65.009,-37.533l0,-75.066l65.009,37.533Z" style="fill:url(#_Linear32);"/><path d="M628.421,350.308l0,75.066l-65.009,37.533l0,-75.066l65.009,-37.533Z" style="fill:url(#_Linear33);"/><path d="M541.742,400.352l0,25.022l-21.669,-12.511l21.669,-12.511Z" style="fill:url(#_Linear34);"/><path d="M520.073,387.841l0,25.022l21.669,-12.511l-21.669,-12.511Z" style="fill:url(#_Linear35);"/><path d="M325.045,350.308l65.009,-37.533l65.009,37.533l-65.009,37.533l-65.009,-37.533Z" style="fill:url(#_Linear36);"/><path d="M390.054,387.841l0,75.066l-65.009,37.533l0,-150.132l65.009,37.533Z" style="fill:url(#_Linear37);"/><path d="M455.063,350.308l0,75.066l-65.009,37.533l0,-75.066l65.009,-37.533Z" style="fill:url(#_Linear38);"/><path d="M368.385,450.396l0,-25.022l-21.67,12.511l21.67,12.511Z" style="fill:url(#_Linear39);"/><path d="M346.715,437.885l0,25.022l21.67,-12.511l-21.67,-12.511Z" style="fill:url(#_Linear40);"/><path d="M281.706,400.352l10.835,-6.256l10.835,6.256l-10.835,6.255l10.835,6.256l-65.009,37.533l-10.835,-6.256l-10.835,6.256l-10.835,-6.256l75.844,-43.788Z" style="fill:url(#_Linear41);"/><path d="M238.367,475.418l0,-25.022l65.009,-37.533l0,25.022l-65.009,37.533Z" style="fill:url(#_Linear42);"/><path d="M346.715,337.797l0,-12.511l0,-12.511l75.844,-43.788l10.835,-6.256l0,25.022l-86.679,50.044Z" style="fill:url(#_Linear43);"/><path d="M325.045,450.396l-21.669,-12.511l-65.009,37.533l21.669,12.511l65.009,-37.533Z" style="fill:url(#_Linear44);"/><path d="M455.063,300.264l-21.669,-12.511l-43.34,25.022l21.67,12.511l43.339,-25.022Z" style="fill:url(#_Linear45);"/><path d="M260.036,487.929l0,25.022l65.009,-37.533l0,-25.022l-65.009,37.533Z" style="fill:url(#_Linear46);"/><path d="M411.724,325.286l21.67,12.511l21.669,-12.511l0,-25.022l-43.339,25.022Z" style="fill:url(#_Linear47);"/><path d="M455.063,350.308l-21.669,-12.511l21.669,-12.511l21.67,12.511l-21.67,12.511Z" style="fill:url(#_Linear48);"/><path d="M346.715,287.753l-21.67,12.511l-65.009,-37.533l21.67,-12.511l65.009,37.533Z" style="fill:url(#_Linear49);"/><path d="M303.376,337.797l21.669,-12.511l-65.009,-37.533l-21.669,12.511l65.009,37.533Z" style="fill:url(#_Linear50);"/><path d="M303.376,362.819l-21.67,-12.511l0,-25.022l21.67,12.511l0,25.022Z" style="fill:url(#_Linear51);"/><path d="M281.706,375.33l21.67,-12.511l-21.67,-12.511l0,25.022Z" style="fill:url(#_Linear52);"/><path d="M455.063,350.308l21.67,-12.511l0,25.022l-21.67,12.511l0,-25.022Z" style="fill:url(#_Linear53);"/><path d="M498.403,375.33l-43.34,25.022l0,-25.022l21.67,-12.511l21.67,12.511Z" style="fill:url(#_Linear54);"/><path d="M455.063,427.471l0,-27.119l43.34,-25.022l0,27.119l-43.34,25.022Z" style="fill:url(#_Linear55);"/><path d="M281.706,525.462l216.697,-125.11l0,25.022l-216.697,125.11l-10.835,6.255l0,-12.511l10.835,-6.255l0,-12.511Z" style="fill:url(#_Linear56);"/><path d="M260.036,512.951l21.67,12.511l43.339,-25.022l0,-25.022l-65.009,37.533Z" style="fill:url(#_Linear57);"/><path d="M303.376,375.33l-10.835,6.255l10.835,6.256l10.834,-6.256l-10.834,-6.255Z" style="fill:url(#_Linear58);"/><path d="M119.183,281.497l0,12.511l10.835,-6.255l0,-12.511l-10.835,6.255Z" style="fill:url(#_Linear59);"/><path d="M86.679,212.687c0,0 65.009,-37.533 65.009,-37.533l0,75.066l-54.174,-31.278l-10.835,6.256l-10.835,-6.255l10.835,-6.256l0,0Z" style="fill:url(#_Linear60);"/><path d="M119.183,256.476l-10.835,-6.256l-10.834,6.256l10.834,6.255l10.835,-6.255Z" style="fill:url(#_Linear61);"/><path d="M108.348,237.709l-10.834,-6.256l-10.835,6.256l10.835,6.256l10.834,-6.256Z" style="fill:url(#_Linear62);"/><path d="M140.853,294.008l-10.835,-6.255l-10.835,6.255l10.835,6.256l10.835,-6.256Z" style="fill:url(#_Linear63);"/><path d="M97.514,231.454l-10.835,6.255l0,-12.511l10.835,-6.256l0,12.512Z" style="fill:url(#_Linear64);"/><path d="M108.348,250.22l-10.834,6.256l0,-12.512l10.834,-6.255l0,12.511Z" style="fill:url(#_Linear65);"/><path d="M119.183,268.987l-10.835,6.255l0,-12.511l10.835,-6.255l0,12.511Z" style="fill:url(#_Linear66);"/><path d="M140.853,306.519l-10.835,6.256l0,-12.511l10.835,-6.256l0,12.511Z" style="fill:url(#_Linear67);"/><path d="M130.018,275.242l-10.835,-6.256l-10.835,6.256l10.835,6.256l10.835,-6.256Z" style="fill:url(#_Linear68);"/><path d="M216.697,450.396l0,12.511l10.835,-6.256l0,-12.511l-10.835,6.256Z" style="fill:url(#_Linear69);"/><path d="M260.036,525.462l0,12.511l10.835,-6.256l0,-12.511l-10.835,6.256Z" style="fill:url(#_Linear70);"/><path d="M238.367,487.929l0,12.511l10.834,-6.255l0,-12.511l-10.834,6.255Z" style="fill:url(#_Linear71);"/><path d="M151.688,312.775l-10.835,-6.256l-10.835,6.256l10.835,6.256l10.835,-6.256Z" style="fill:url(#_Linear72);"/><path d="M162.523,331.541l-10.835,-6.255l-10.835,6.255l10.835,6.256l10.835,-6.256Z" style="fill:url(#_Linear73);"/><path d="M238.367,462.907l-10.835,-6.256l-10.835,6.256l10.835,6.255l10.835,-6.255Z" style="fill:url(#_Linear74);"/><path d="M281.706,537.973l-10.835,-6.256l-10.835,6.256l10.835,6.255l10.835,-6.255Z" style="fill:url(#_Linear75);"/><path d="M260.036,500.44l-10.835,-6.256l-10.834,6.256l10.834,6.256l10.835,-6.256Z" style="fill:url(#_Linear76);"/><path d="M151.688,325.286l-10.835,6.256l0,-12.511l10.835,-6.256l0,12.511Z" style="fill:url(#_Linear77);"/><path d="M238.367,475.418l-10.835,6.255l0,-12.511l10.835,-6.255l0,12.511Z" style="fill:url(#_Linear78);"/><path d="M260.036,512.951l-10.835,6.255l0,-12.51l10.835,-6.256l0,12.511Z" style="fill:url(#_Linear79);"/><path d="M270.871,519.206l-10.835,-6.255l-10.835,6.255l10.835,6.256l10.835,-6.256Z" style="fill:url(#_Linear80);"/><path d="M249.201,481.674l-10.834,-6.256l-10.835,6.256l10.835,6.255l10.834,-6.255Z" style="fill:url(#_Linear81);"/><path d="M346.715,337.797l-21.67,-12.511l-65.009,-37.533l0,-25.022l86.679,50.044l0,25.022Z" style="fill:url(#_Linear82);"/><path d="M325.045,362.819l0,-12.511l-10.835,-6.256l0,12.511l10.835,6.256Z" style="fill:url(#_Linear83);"/><path d="M335.88,344.052l0,-12.511l-10.835,-6.255l0,12.511l10.835,6.255Z" style="fill:url(#_Linear84);"/><path d="M303.376,400.352l0,-12.511l-10.835,-6.256l0,12.511l10.835,6.256Z" style="fill:url(#_Linear85);"/><path d="M335.88,331.541l-10.835,-6.255l10.835,-6.256l10.835,6.256l-10.835,6.255Z" style="fill:url(#_Linear86);"/><path d="M325.045,350.308l-10.835,-6.256l10.835,-6.255l10.835,6.255l-10.835,6.256Z" style="fill:url(#_Linear87);"/><path d="M314.21,369.074l-10.834,-6.255l10.834,-6.256l10.835,6.256l-10.835,6.255Z" style="fill:url(#_Linear88);"/><path d="M314.21,381.585l0,-12.511l-10.834,-6.255l0,12.511l10.834,6.255Z" style="fill:url(#_Linear89);"/><path d="M411.724,250.22l21.67,12.511l-86.679,50.044l-21.67,-12.511l10.616,-7.115l11.054,-5.396l65.009,-37.533Z" style="fill:url(#_Linear90);"/><path d="M455.063,287.753l0,-12.511l-10.834,6.256l10.834,6.255Z" style="fill:url(#_Linear91);"/><path d="M444.229,281.497l0,-12.511l-10.835,6.256l10.835,6.255Z" style="fill:url(#_Linear92);"/><path d="M173.358,350.308l0,-12.511l-10.835,6.255l10.835,6.256Z" style="fill:url(#_Linear93);"/><path d="M162.523,344.052l0,-12.511l-10.835,6.256l10.835,6.255Z" style="fill:url(#_Linear94);"/><path d="M476.733,300.264l0,-12.511l-10.835,6.256l10.835,6.255Z" style="fill:url(#_Linear95);"/><path d="M195.027,362.819l0,-12.511l-10.835,6.255l10.835,6.256Z" style="fill:url(#_Linear96);"/><path d="M444.229,268.987l-10.835,6.255l0,-12.511l10.835,6.256Z" style="fill:url(#_Linear97);"/><path d="M465.898,281.498l-10.835,6.255l0,-12.511l10.835,6.256Z" style="fill:url(#_Linear98);"/><path d="M184.192,344.052l-10.834,6.256l0,-12.511l10.834,6.255Z" style="fill:url(#_Linear99);"/><path d="M487.568,294.008l-10.835,6.256l0,-12.511l10.835,6.255Z" style="fill:url(#_Linear100);"/><path d="M498.403,300.264l-10.835,6.255l0,-12.511l10.835,6.256Z" style="fill:url(#_Linear101);"/><path d="M205.862,356.563l-10.835,6.256l0,-12.511l10.835,6.255Z" style="fill:url(#_Linear102);"/><path d="M465.898,294.009l0,-12.511l-10.835,6.255l10.835,6.256Z" style="fill:url(#_Linear103);"/><path d="M184.192,356.563l0,-12.511l-10.834,6.256l10.834,6.255Z" style="fill:url(#_Linear104);"/><path d="M487.568,306.519l0,-12.511l-10.835,6.256l10.835,6.255Z" style="fill:url(#_Linear105);"/><path d="M498.403,312.775l0,-12.511l-10.835,6.255l10.835,6.256Z" style="fill:url(#_Linear106);"/><path d="M205.862,369.074l0,-12.511l-10.835,6.256l10.835,6.255Z" style="fill:url(#_Linear107);"/><path d="M455.063,275.242l-10.834,6.256l0,-12.511l10.834,6.255Z" style="fill:url(#_Linear108);"/><path d="M173.358,337.797l-10.835,6.255l0,-12.51l10.835,6.255Z" style="fill:url(#_Linear109);"/><path d="M476.733,287.753l-10.835,6.256l0,-12.511l10.835,6.255Z" style="fill:url(#_Linear110);"/><path d="M195.027,350.308l-10.835,6.255l0,-12.51l10.835,6.255Z" style="fill:url(#_Linear111);"/><defs><linearGradient id="_Linear1" x1="0" y1="0" x2="1" y2="0" gradientUnits="userSpaceOnUse" gradientTransform="matrix(133.942,-246.9,246.9,133.942,281.706,175.154)"><stop offset="0" style="stop-color:#a7689f;stop-opacity:1"/><stop offset="1" style="stop-color:#2b2d4b;stop-opacity:1"/></linearGradient><linearGradient id="_Linear2" x1="0" y1="0" x2="1" y2="0" gradientUnits="userSpaceOnUse" gradientTransform="matrix(65.0091,112.599,-112.599,65.0091,346.715,62.555)"><stop offset="0" style="stop-color:#a7689f;stop-opacity:1"/><stop offset="1" style="stop-color:#2b2d4b;stop-opacity:1"/></linearGradient><linearGradient id="_Linear3" x1="0" y1="0" x2="1" y2="0" gradientUnits="userSpaceOnUse" gradientTransform="matrix(-1.37171e-12,-78.4715,78.4715,-1.37171e-12,346.715,212.687)"><stop offset="0" style="stop-color:#2b2d4b;stop-opacity:1"/><stop offset="1" style="stop-color:#af64a4;stop-opacity:1"/></linearGradient><linearGradient id="_Linear4" x1="0" y1="0" x2="1" y2="0" gradientUnits="userSpaceOnUse" gradientTransform="matrix(-65.0091,-35.5353,35.5353,-65.0091,346.715,248.222)"><stop offset="0" style="stop-color:#a7689f;stop-opacity:1"/><stop offset="1" style="stop-color:#2b2d4b;stop-opacity:1"/></linearGradient><linearGradient id="_Linear5" x1="0" y1="0" x2="1" y2="0" gradientUnits="userSpaceOnUse" gradientTransform="matrix(-139.315,134.062,-134.062,-139.315,507.699,170.097)"><stop offset="0" style="stop-color:#a7689f;stop-opacity:1"/><stop offset="1" style="stop-color:#2b2d4b;stop-opacity:1"/></linearGradient><linearGradient id="_Linear6" x1="0" y1="0" x2="1" y2="0" gradientUnits="userSpaceOnUse" gradientTransform="matrix(-7.74998,-17.5,17.5,-7.74998,379.222,243.434)"><stop offset="0" style="stop-color:#b4c5b3;stop-opacity:1"/><stop offset="1" style="stop-color:#00a24f;stop-opacity:1"/></linearGradient><linearGradient id="_Linear7" x1="0" y1="0" x2="1" y2="0" gradientUnits="userSpaceOnUse" gradientTransform="matrix(-23.3372,1.01403,-1.01403,-23.3372,391.722,224.184)"><stop offset="0" style="stop-color:#094b36;stop-opacity:1"/><stop offset="1" style="stop-color:#04291b;stop-opacity:1"/></linearGradient><linearGradient id="_Linear8" x1="0" y1="0" x2="1" y2="0" gradientUnits="userSpaceOnUse" gradientTransform="matrix(-20.5,-8.49998,8.49998,-20.5,319.885,126.632)"><stop offset="0" style="stop-color:#b4c5b3;stop-opacity:1"/><stop offset="1" style="stop-color:#00a24f;stop-opacity:1"/></linearGradient><linearGradient id="_Linear9" x1="0" y1="0" x2="1" y2="0" gradientUnits="userSpaceOnUse" gradientTransform="matrix(-25.7499,1.25,-1.25,-25.7499,325.135,110.632)"><stop offset="0" style="stop-color:#094b36;stop-opacity:1"/><stop offset="1" style="stop-color:#04291b;stop-opacity:1"/></linearGradient><linearGradient id="_Linear10" x1="0" y1="0" x2="1" y2="0" gradientUnits="userSpaceOnUse" gradientTransform="matrix(38.5536,-22.9581,22.9581,38.5536,455.063,175.154)"><stop offset="0" style="stop-color:#b4c5b3;stop-opacity:1"/><stop offset="1" style="stop-color:#00a24f;stop-opacity:1"/></linearGradient><linearGradient id="_Linear11" x1="0" y1="0" x2="1" y2="0" gradientUnits="userSpaceOnUse" gradientTransform="matrix(21.6697,-2.35285,2.35285,21.6697,455.063,164.996)"><stop offset="0" style="stop-color:#094b36;stop-opacity:1"/><stop offset="1" style="stop-color:#04291b;stop-opacity:1"/></linearGradient><linearGradient id="_Linear12" x1="0" y1="0" x2="1" y2="0" gradientUnits="userSpaceOnUse" gradientTransform="matrix(151.178,0,0,151.178,411.724,100.088)"><stop offset="0" style="stop-color:#af64a4;stop-opacity:1"/><stop offset="1" style="stop-color:#2b2d4b;stop-opacity:1"/></linearGradient><linearGradient id="_Linear13" x1="0" y1="0" x2="1" y2="0" gradientUnits="userSpaceOnUse" gradientTransform="matrix(89.1195,-74.8465,74.8465,89.1195,498.403,200.176)"><stop offset="0" style="stop-color:#af64a4;stop-opacity:1"/><stop offset="1" style="stop-color:#303050;stop-opacity:1"/></linearGradient><linearGradient id="_Linear14" x1="0" y1="0" x2="1" y2="0" gradientUnits="userSpaceOnUse" gradientTransform="matrix(-70.6415,-12.4371,12.4371,-70.6415,287.338,253.472)"><stop offset="0" style="stop-color:#a7689f;stop-opacity:1"/><stop offset="1" style="stop-color:#2b2d4b;stop-opacity:1"/></linearGradient><linearGradient id="_Linear15" x1="0" y1="0" x2="1" y2="0" gradientUnits="userSpaceOnUse" gradientTransform="matrix(130.018,0,0,130.018,151.688,175.154)"><stop offset="0" style="stop-color:#af64a4;stop-opacity:1"/><stop offset="1" style="stop-color:#2b2d4b;stop-opacity:1"/></linearGradient><linearGradient id="_Linear16" x1="0" y1="0" x2="1" y2="0" gradientUnits="userSpaceOnUse" gradientTransform="matrix(62.4346,104.218,-104.218,62.4346,154.262,183.535)"><stop offset="0" style="stop-color:#a7689f;stop-opacity:1"/><stop offset="1" style="stop-color:#2b2d4b;stop-opacity:1"/></linearGradient><linearGradient id="_Linear17" x1="0" y1="0" x2="1" y2="0" gradientUnits="userSpaceOnUse" gradientTransform="matrix(21.5,-15.25,15.25,21.5,186.972,246.684)"><stop offset="0" style="stop-color:#b4c5b3;stop-opacity:1"/><stop offset="1" style="stop-color:#00a24f;stop-opacity:1"/></linearGradient><linearGradient id="_Linear18" x1="0" y1="0" x2="1" y2="0" gradientUnits="userSpaceOnUse" gradientTransform="matrix(21.6697,-1.23597,1.23597,21.6697,173.358,226.434)"><stop offset="0" style="stop-color:#094b36;stop-opacity:1"/><stop offset="1" style="stop-color:#04291b;stop-opacity:1"/></linearGradient><linearGradient id="_Linear19" x1="0" y1="0" x2="1" y2="0" gradientUnits="userSpaceOnUse" gradientTransform="matrix(-65.0091,7.96131e-15,-7.96131e-15,-65.0091,281.706,375.33)"><stop offset="0" style="stop-color:#a7689f;stop-opacity:1"/><stop offset="1" style="stop-color:#2b2d4b;stop-opacity:1"/></linearGradient><linearGradient id="_Linear20" x1="0" y1="0" x2="1" y2="0" gradientUnits="userSpaceOnUse" gradientTransform="matrix(-130.247,1.59507e-14,-1.59507e-14,-130.247,216.697,391.035)"><stop offset="0" style="stop-color:#a7689f;stop-opacity:1"/><stop offset="1" style="stop-color:#2b2d4b;stop-opacity:1"/></linearGradient><linearGradient id="_Linear21" x1="0" y1="0" x2="1" y2="0" gradientUnits="userSpaceOnUse" gradientTransform="matrix(-21.9125,74.9258,-74.9258,-21.9125,227.775,294.149)"><stop offset="0" style="stop-color:#af64a4;stop-opacity:1"/><stop offset="1" style="stop-color:#2b2d4b;stop-opacity:1"/></linearGradient><linearGradient id="_Linear22" x1="0" y1="0" x2="1" y2="0" gradientUnits="userSpaceOnUse" gradientTransform="matrix(-0.249999,27.7499,-27.7499,-0.249999,211.222,315.434)"><stop offset="0" style="stop-color:#b4c5b3;stop-opacity:1"/><stop offset="1" style="stop-color:#00a24f;stop-opacity:1"/></linearGradient><linearGradient id="_Linear23" x1="0" y1="0" x2="1" y2="0" gradientUnits="userSpaceOnUse" gradientTransform="matrix(-7.24999,24.7499,-24.7499,-7.24999,227.972,317.184)"><stop offset="0" style="stop-color:#094b36;stop-opacity:1"/><stop offset="1" style="stop-color:#04291b;stop-opacity:1"/></linearGradient><linearGradient id="_Linear24" x1="0" y1="0" x2="1" y2="0" gradientUnits="userSpaceOnUse" gradientTransform="matrix(130.018,0,0,130.018,498.403,200.176)"><stop offset="0" style="stop-color:#af64a4;stop-opacity:1"/><stop offset="1" style="stop-color:#2b2d4b;stop-opacity:1"/></linearGradient><linearGradient id="_Linear25" x1="0" y1="0" x2="1" y2="0" gradientUnits="userSpaceOnUse" gradientTransform="matrix(-64.9123,46.7402,-46.7402,-64.9123,628.324,266.035)"><stop offset="0" style="stop-color:#af64a4;stop-opacity:1"/><stop offset="1" style="stop-color:#2b2d4b;stop-opacity:1"/></linearGradient><linearGradient id="_Linear26" x1="0" y1="0" x2="1" y2="0" gradientUnits="userSpaceOnUse" gradientTransform="matrix(97.9427,86.9168,-86.9168,97.9427,483.637,236.347)"><stop offset="0" style="stop-color:#a7689f;stop-opacity:1"/><stop offset="1" style="stop-color:#2b2d4b;stop-opacity:1"/></linearGradient><linearGradient id="_Linear27" x1="0" y1="0" x2="1" y2="0" gradientUnits="userSpaceOnUse" gradientTransform="matrix(138.672,0,0,138.672,496.008,373.784)"><stop offset="0" style="stop-color:#2b2d4b;stop-opacity:1"/><stop offset="1" style="stop-color:#af64a4;stop-opacity:1"/></linearGradient><linearGradient id="_Linear28" x1="0" y1="0" x2="1" y2="0" gradientUnits="userSpaceOnUse" gradientTransform="matrix(-21,-12,12,-21,533.272,304.484)"><stop offset="0" style="stop-color:#b4c5b3;stop-opacity:1"/><stop offset="1" style="stop-color:#00a24f;stop-opacity:1"/></linearGradient><linearGradient id="_Linear29" x1="0" y1="0" x2="1" y2="0" gradientUnits="userSpaceOnUse" gradientTransform="matrix(-14.5342,-2.88601,2.88601,-14.5342,540.072,287.484)"><stop offset="0" style="stop-color:#094b36;stop-opacity:1"/><stop offset="1" style="stop-color:#04291b;stop-opacity:1"/></linearGradient><linearGradient id="_Linear30" x1="0" y1="0" x2="1" y2="0" gradientUnits="userSpaceOnUse" gradientTransform="matrix(-20,-10.8,10.8,-20,598.071,267.684)"><stop offset="0" style="stop-color:#b4c5b3;stop-opacity:1"/><stop offset="1" style="stop-color:#00a24f;stop-opacity:1"/></linearGradient><linearGradient id="_Linear31" x1="0" y1="0" x2="1" y2="0" gradientUnits="userSpaceOnUse" gradientTransform="matrix(-20.4,-12.8,12.8,-20.4,606.871,258.084)"><stop offset="0" style="stop-color:#094b36;stop-opacity:1"/><stop offset="1" style="stop-color:#04291b;stop-opacity:1"/></linearGradient><linearGradient id="_Linear32" x1="0" y1="0" x2="1" y2="0" gradientUnits="userSpaceOnUse" gradientTransform="matrix(-70.0875,8.58325e-15,-8.58325e-15,-70.0875,563.412,414.16)"><stop offset="0" style="stop-color:#a7689f;stop-opacity:1"/><stop offset="1" style="stop-color:#2b2d4b;stop-opacity:1"/></linearGradient><linearGradient id="_Linear33" x1="0" y1="0" x2="1" y2="0" gradientUnits="userSpaceOnUse" gradientTransform="matrix(-65.0091,7.96131e-15,-7.96131e-15,-65.0091,628.421,396.347)"><stop offset="0" style="stop-color:#af64a4;stop-opacity:1"/><stop offset="1" style="stop-color:#2b2d4b;stop-opacity:1"/></linearGradient><linearGradient id="_Linear34" x1="0" y1="0" x2="1" y2="0" gradientUnits="userSpaceOnUse" gradientTransform="matrix(23.9525,-11.4378,11.4378,23.9525,528.994,418.014)"><stop offset="0" style="stop-color:#b4c5b3;stop-opacity:1"/><stop offset="1" style="stop-color:#00a24f;stop-opacity:1"/></linearGradient><linearGradient id="_Linear35" x1="0" y1="0" x2="1" y2="0" gradientUnits="userSpaceOnUse" gradientTransform="matrix(16.9984,-14.9504,14.9504,16.9984,520.003,409.138)"><stop offset="0" style="stop-color:#094b36;stop-opacity:1"/><stop offset="1" style="stop-color:#04291b;stop-opacity:1"/></linearGradient><linearGradient id="_Linear36" x1="0" y1="0" x2="1" y2="0" gradientUnits="userSpaceOnUse" gradientTransform="matrix(130.018,0,0,130.018,325.045,350.308)"><stop offset="0" style="stop-color:#af64a4;stop-opacity:1"/><stop offset="1" style="stop-color:#2b2d4b;stop-opacity:1"/></linearGradient><linearGradient id="_Linear37" x1="0" y1="0" x2="1" y2="0" gradientUnits="userSpaceOnUse" gradientTransform="matrix(-86.6788,1.06151e-14,-1.06151e-14,-86.6788,390.054,418.339)"><stop offset="0" style="stop-color:#af64a4;stop-opacity:1"/><stop offset="1" style="stop-color:#2b2d4b;stop-opacity:1"/></linearGradient><linearGradient id="_Linear38" x1="0" y1="0" x2="1" y2="0" gradientUnits="userSpaceOnUse" gradientTransform="matrix(100.676,0,0,100.676,390.11,429.772)"><stop offset="0" style="stop-color:#2b2d4b;stop-opacity:1"/><stop offset="1" style="stop-color:#af64a4;stop-opacity:1"/></linearGradient><linearGradient id="_Linear39" x1="0" y1="0" x2="1" y2="0" gradientUnits="userSpaceOnUse" gradientTransform="matrix(-20.5,-2.49999,2.49999,-20.5,367.222,436.184)"><stop offset="0" style="stop-color:#094b36;stop-opacity:1"/><stop offset="1" style="stop-color:#04291b;stop-opacity:1"/></linearGradient><linearGradient id="_Linear40" x1="0" y1="0" x2="1" y2="0" gradientUnits="userSpaceOnUse" gradientTransform="matrix(-14,-16.25,16.25,-14,354.722,457.184)"><stop offset="0" style="stop-color:#b4c5b3;stop-opacity:1"/><stop offset="1" style="stop-color:#00a24f;stop-opacity:1"/></linearGradient><linearGradient id="_Linear41" x1="0" y1="0" x2="1" y2="0" gradientUnits="userSpaceOnUse" gradientTransform="matrix(77.0559,-38.7839,38.7839,77.0559,231.825,444.746)"><stop offset="0" style="stop-color:#af64a4;stop-opacity:1"/><stop offset="1" style="stop-color:#2b2d4b;stop-opacity:1"/></linearGradient><linearGradient id="_Linear42" x1="0" y1="0" x2="1" y2="0" gradientUnits="userSpaceOnUse" gradientTransform="matrix(-38.5475,-37.5759,37.5759,-38.5475,290.493,450.381)"><stop offset="0" style="stop-color:#2b2d4b;stop-opacity:1"/><stop offset="1" style="stop-color:#af64a4;stop-opacity:1"/></linearGradient><linearGradient id="_Linear43" x1="0" y1="0" x2="1" y2="0" gradientUnits="userSpaceOnUse" gradientTransform="matrix(-28.6335,-33.5574,33.5574,-28.6335,409.874,312.313)"><stop offset="0" style="stop-color:#2b2d4b;stop-opacity:1"/><stop offset="1" style="stop-color:#af64a4;stop-opacity:1"/></linearGradient><linearGradient id="_Linear44" x1="0" y1="0" x2="1" y2="0" gradientUnits="userSpaceOnUse" gradientTransform="matrix(73.3402,-45.0816,45.0816,73.3402,251.705,483.119)"><stop offset="0" style="stop-color:#af64a4;stop-opacity:1"/><stop offset="1" style="stop-color:#2b2d4b;stop-opacity:1"/></linearGradient><linearGradient id="_Linear45" x1="0" y1="0" x2="1" y2="0" gradientUnits="userSpaceOnUse" gradientTransform="matrix(37.5466,-69.9021,69.9021,37.5466,397.879,331.506)"><stop offset="0" style="stop-color:#af64a4;stop-opacity:1"/><stop offset="1" style="stop-color:#2b2d4b;stop-opacity:1"/></linearGradient><linearGradient id="_Linear46" x1="0" y1="0" x2="1" y2="0" gradientUnits="userSpaceOnUse" gradientTransform="matrix(-33.8115,-32.456,32.456,-33.8115,314.045,486.989)"><stop offset="0" style="stop-color:#2b2d4b;stop-opacity:1"/><stop offset="1" style="stop-color:#af64a4;stop-opacity:1"/></linearGradient><linearGradient id="_Linear47" x1="0" y1="0" x2="1" y2="0" gradientUnits="userSpaceOnUse" gradientTransform="matrix(-18.6503,-24.6792,24.6792,-18.6503,444.691,331.274)"><stop offset="0" style="stop-color:#2b2d4b;stop-opacity:1"/><stop offset="1" style="stop-color:#af64a4;stop-opacity:1"/></linearGradient><linearGradient id="_Linear48" x1="0" y1="0" x2="1" y2="0" gradientUnits="userSpaceOnUse" gradientTransform="matrix(31.668,-52.4062,52.4062,31.668,441.446,358.17)"><stop offset="0" style="stop-color:#af64a4;stop-opacity:1"/><stop offset="1" style="stop-color:#2b2d4b;stop-opacity:1"/></linearGradient><linearGradient id="_Linear49" x1="0" y1="0" x2="1" y2="0" gradientUnits="userSpaceOnUse" gradientTransform="matrix(-54.8496,-43.3986,43.3986,-54.8496,325.045,300.264)"><stop offset="0" style="stop-color:#af64a4;stop-opacity:1"/><stop offset="1" style="stop-color:#2b2d4b;stop-opacity:1"/></linearGradient><linearGradient id="_Linear50" x1="0" y1="0" x2="1" y2="0" gradientUnits="userSpaceOnUse" gradientTransform="matrix(-75.0079,-37.6319,37.6319,-75.0079,313.694,328.176)"><stop offset="0" style="stop-color:#af64a4;stop-opacity:1"/><stop offset="1" style="stop-color:#2b2d4b;stop-opacity:1"/></linearGradient><linearGradient id="_Linear51" x1="0" y1="0" x2="1" y2="0" gradientUnits="userSpaceOnUse" gradientTransform="matrix(-6.66739,-50.8159,50.8159,-6.66739,281.706,367.984)"><stop offset="0" style="stop-color:#2b2d4b;stop-opacity:1"/><stop offset="1" style="stop-color:#af64a4;stop-opacity:1"/></linearGradient><linearGradient id="_Linear52" x1="0" y1="0" x2="1" y2="0" gradientUnits="userSpaceOnUse" gradientTransform="matrix(-54.1999,-23,23,-54.1999,310.958,369.56)"><stop offset="0" style="stop-color:#af64a4;stop-opacity:1"/><stop offset="1" style="stop-color:#2b2d4b;stop-opacity:1"/></linearGradient><linearGradient id="_Linear53" x1="0" y1="0" x2="1" y2="0" gradientUnits="userSpaceOnUse" gradientTransform="matrix(-16,-21.92,21.92,-16,472.601,365.955)"><stop offset="0" style="stop-color:#2b2d4b;stop-opacity:1"/><stop offset="1" style="stop-color:#af64a4;stop-opacity:1"/></linearGradient><linearGradient id="_Linear54" x1="0" y1="0" x2="1" y2="0" gradientUnits="userSpaceOnUse" gradientTransform="matrix(54.1866,-60.3022,60.3022,54.1866,442.821,409.942)"><stop offset="0" style="stop-color:#af64a4;stop-opacity:1"/><stop offset="1" style="stop-color:#2b2d4b;stop-opacity:1"/></linearGradient><linearGradient id="_Linear55" x1="0" y1="0" x2="1" y2="0" gradientUnits="userSpaceOnUse" gradientTransform="matrix(-25.0484,-41.5894,41.5894,-25.0484,474.345,414.242)"><stop offset="0" style="stop-color:#2b2d4b;stop-opacity:1"/><stop offset="1" style="stop-color:#af64a4;stop-opacity:1"/></linearGradient><linearGradient id="_Linear56" x1="0" y1="0" x2="1" y2="0" gradientUnits="userSpaceOnUse" gradientTransform="matrix(-173.449,92.7874,-92.7874,-173.449,437.153,450.318)"><stop offset="0" style="stop-color:#2b2d4b;stop-opacity:1"/><stop offset="1" style="stop-color:#af64a4;stop-opacity:1"/></linearGradient><linearGradient id="_Linear57" x1="0" y1="0" x2="1" y2="0" gradientUnits="userSpaceOnUse" gradientTransform="matrix(37.0674,-57.852,57.852,37.0674,281.706,525.462)"><stop offset="0" style="stop-color:#af64a4;stop-opacity:1"/><stop offset="1" style="stop-color:#2b2d4b;stop-opacity:1"/></linearGradient><linearGradient id="_Linear58" x1="0" y1="0" x2="1" y2="0" gradientUnits="userSpaceOnUse" gradientTransform="matrix(-2.99194,-22.2933,22.2933,-2.99194,307.408,395.789)"><stop offset="0" style="stop-color:#af64a4;stop-opacity:1"/><stop offset="1" style="stop-color:#2b2d4b;stop-opacity:1"/></linearGradient><linearGradient id="_Linear59" x1="0" y1="0" x2="1" y2="0" gradientUnits="userSpaceOnUse" gradientTransform="matrix(-12.5407,-12.2985,12.2985,-12.5407,130.112,289.11)"><stop offset="0" style="stop-color:#af64a4;stop-opacity:1"/><stop offset="1" style="stop-color:#2b2d4b;stop-opacity:1"/></linearGradient><linearGradient id="_Linear60" x1="0" y1="0" x2="1" y2="0" gradientUnits="userSpaceOnUse" gradientTransform="matrix(87.1153,-27.3585,27.3585,87.1153,84.7533,220.709)"><stop offset="0" style="stop-color:#af64a4;stop-opacity:1"/><stop offset="1" style="stop-color:#2b2d4b;stop-opacity:1"/></linearGradient><linearGradient id="_Linear61" x1="0" y1="0" x2="1" y2="0" gradientUnits="userSpaceOnUse" gradientTransform="matrix(-25.5159,-4.12267,4.12267,-25.5159,120.546,259.446)"><stop offset="0" style="stop-color:#66447b;stop-opacity:1"/><stop offset="1" style="stop-color:#af64a4;stop-opacity:1"/></linearGradient><linearGradient id="_Linear62" x1="0" y1="0" x2="1" y2="0" gradientUnits="userSpaceOnUse" gradientTransform="matrix(-28.3236,-9.05749,9.05749,-28.3236,112.424,240.531)"><stop offset="0" style="stop-color:#66447b;stop-opacity:1"/><stop offset="1" style="stop-color:#af64a4;stop-opacity:1"/></linearGradient><linearGradient id="_Linear63" x1="0" y1="0" x2="1" y2="0" gradientUnits="userSpaceOnUse" gradientTransform="matrix(-23.8793,-14.0495,14.0495,-23.8793,139.451,297.852)"><stop offset="0" style="stop-color:#66447b;stop-opacity:1"/><stop offset="1" style="stop-color:#af64a4;stop-opacity:1"/></linearGradient><linearGradient id="_Linear64" x1="0" y1="0" x2="1" y2="0" gradientUnits="userSpaceOnUse" gradientTransform="matrix(-17.3991,-7.62798,7.62798,-17.3991,97.2667,231.653)"><stop offset="0" style="stop-color:#af64a4;stop-opacity:1"/><stop offset="1" style="stop-color:#2b2d4b;stop-opacity:1"/></linearGradient><linearGradient id="_Linear65" x1="0" y1="0" x2="1" y2="0" gradientUnits="userSpaceOnUse" gradientTransform="matrix(-12.269,-8.33162,8.33162,-12.269,108.304,250.309)"><stop offset="0" style="stop-color:#af64a4;stop-opacity:1"/><stop offset="1" style="stop-color:#2b2d4b;stop-opacity:1"/></linearGradient><linearGradient id="_Linear66" x1="0" y1="0" x2="1" y2="0" gradientUnits="userSpaceOnUse" gradientTransform="matrix(-13.4092,-10.5665,10.5665,-13.4092,119.577,270.152)"><stop offset="0" style="stop-color:#af64a4;stop-opacity:1"/><stop offset="1" style="stop-color:#2b2d4b;stop-opacity:1"/></linearGradient><linearGradient id="_Linear67" x1="0" y1="0" x2="1" y2="0" gradientUnits="userSpaceOnUse" gradientTransform="matrix(-13.0759,-15.6949,15.6949,-13.0759,141.695,308.869)"><stop offset="0" style="stop-color:#af64a4;stop-opacity:1"/><stop offset="1" style="stop-color:#2b2d4b;stop-opacity:1"/></linearGradient><linearGradient id="_Linear68" x1="0" y1="0" x2="1" y2="0" gradientUnits="userSpaceOnUse" gradientTransform="matrix(-25.1879,-5.41141,5.41141,-25.1879,129.166,276.411)"><stop offset="0" style="stop-color:#66447b;stop-opacity:1"/><stop offset="1" style="stop-color:#af64a4;stop-opacity:1"/></linearGradient><linearGradient id="_Linear69" x1="0" y1="0" x2="1" y2="0" gradientUnits="userSpaceOnUse" gradientTransform="matrix(-12.5407,-12.2985,12.2985,-12.5407,227.625,458.008)"><stop offset="0" style="stop-color:#af64a4;stop-opacity:1"/><stop offset="1" style="stop-color:#2b2d4b;stop-opacity:1"/></linearGradient><linearGradient id="_Linear70" x1="0" y1="0" x2="1" y2="0" gradientUnits="userSpaceOnUse" gradientTransform="matrix(-12.5407,-12.2985,12.2985,-12.5407,270.965,533.074)"><stop offset="0" style="stop-color:#af64a4;stop-opacity:1"/><stop offset="1" style="stop-color:#2b2d4b;stop-opacity:1"/></linearGradient><linearGradient id="_Linear71" x1="0" y1="0" x2="1" y2="0" gradientUnits="userSpaceOnUse" gradientTransform="matrix(-12.5407,-12.2985,12.2985,-12.5407,249.295,495.541)"><stop offset="0" style="stop-color:#af64a4;stop-opacity:1"/><stop offset="1" style="stop-color:#2b2d4b;stop-opacity:1"/></linearGradient><linearGradient id="_Linear72" x1="0" y1="0" x2="1" y2="0" gradientUnits="userSpaceOnUse" gradientTransform="matrix(-19.8441,-9.09215,9.09215,-19.8441,146.644,318.774)"><stop offset="0" style="stop-color:#66447b;stop-opacity:1"/><stop offset="1" style="stop-color:#af64a4;stop-opacity:1"/></linearGradient><linearGradient id="_Linear73" x1="0" y1="0" x2="1" y2="0" gradientUnits="userSpaceOnUse" gradientTransform="matrix(-22.1185,-8.566,8.566,-22.1185,160.393,333.872)"><stop offset="0" style="stop-color:#66447b;stop-opacity:1"/><stop offset="1" style="stop-color:#af64a4;stop-opacity:1"/></linearGradient><linearGradient id="_Linear74" x1="0" y1="0" x2="1" y2="0" gradientUnits="userSpaceOnUse" gradientTransform="matrix(-23.8793,-14.0495,14.0495,-23.8793,236.964,466.75)"><stop offset="0" style="stop-color:#66447b;stop-opacity:1"/><stop offset="1" style="stop-color:#af64a4;stop-opacity:1"/></linearGradient><linearGradient id="_Linear75" x1="0" y1="0" x2="1" y2="0" gradientUnits="userSpaceOnUse" gradientTransform="matrix(-23.8793,-14.0495,14.0495,-23.8793,280.304,541.816)"><stop offset="0" style="stop-color:#66447b;stop-opacity:1"/><stop offset="1" style="stop-color:#af64a4;stop-opacity:1"/></linearGradient><linearGradient id="_Linear76" x1="0" y1="0" x2="1" y2="0" gradientUnits="userSpaceOnUse" gradientTransform="matrix(-23.8793,-14.0495,14.0495,-23.8793,258.634,504.283)"><stop offset="0" style="stop-color:#66447b;stop-opacity:1"/><stop offset="1" style="stop-color:#af64a4;stop-opacity:1"/></linearGradient><linearGradient id="_Linear77" x1="0" y1="0" x2="1" y2="0" gradientUnits="userSpaceOnUse" gradientTransform="matrix(-17.3991,-7.62798,7.62798,-17.3991,151.441,325.485)"><stop offset="0" style="stop-color:#af64a4;stop-opacity:1"/><stop offset="1" style="stop-color:#2b2d4b;stop-opacity:1"/></linearGradient><linearGradient id="_Linear78" x1="0" y1="0" x2="1" y2="0" gradientUnits="userSpaceOnUse" gradientTransform="matrix(-13.0759,-15.6949,15.6949,-13.0759,239.208,477.768)"><stop offset="0" style="stop-color:#af64a4;stop-opacity:1"/><stop offset="1" style="stop-color:#2b2d4b;stop-opacity:1"/></linearGradient><linearGradient id="_Linear79" x1="0" y1="0" x2="1" y2="0" gradientUnits="userSpaceOnUse" gradientTransform="matrix(-13.0759,-15.6949,15.6949,-13.0759,260.878,515.301)"><stop offset="0" style="stop-color:#af64a4;stop-opacity:1"/><stop offset="1" style="stop-color:#2b2d4b;stop-opacity:1"/></linearGradient><linearGradient id="_Linear80" x1="0" y1="0" x2="1" y2="0" gradientUnits="userSpaceOnUse" gradientTransform="matrix(-25.1879,-5.41141,5.41141,-25.1879,270.019,520.376)"><stop offset="0" style="stop-color:#66447b;stop-opacity:1"/><stop offset="1" style="stop-color:#af64a4;stop-opacity:1"/></linearGradient><linearGradient id="_Linear81" x1="0" y1="0" x2="1" y2="0" gradientUnits="userSpaceOnUse" gradientTransform="matrix(-25.1879,-5.41141,5.41141,-25.1879,248.35,482.843)"><stop offset="0" style="stop-color:#66447b;stop-opacity:1"/><stop offset="1" style="stop-color:#af64a4;stop-opacity:1"/></linearGradient><linearGradient id="_Linear82" x1="0" y1="0" x2="1" y2="0" gradientUnits="userSpaceOnUse" gradientTransform="matrix(31.3945,-30.0969,30.0969,31.3945,291.336,313.513)"><stop offset="0" style="stop-color:#2b2d4b;stop-opacity:1"/><stop offset="1" style="stop-color:#af64a4;stop-opacity:1"/></linearGradient><linearGradient id="_Linear83" x1="0" y1="0" x2="1" y2="0" gradientUnits="userSpaceOnUse" gradientTransform="matrix(-8.02132,-18.944,18.944,-8.02132,321.988,360.27)"><stop offset="0" style="stop-color:#66447b;stop-opacity:1"/><stop offset="1" style="stop-color:#af64a4;stop-opacity:1"/></linearGradient><linearGradient id="_Linear84" x1="0" y1="0" x2="1" y2="0" gradientUnits="userSpaceOnUse" gradientTransform="matrix(-3.64088,-23.4382,23.4382,-3.64088,332.797,343.374)"><stop offset="0" style="stop-color:#66447b;stop-opacity:1"/><stop offset="1" style="stop-color:#af64a4;stop-opacity:1"/></linearGradient><linearGradient id="_Linear85" x1="0" y1="0" x2="1" y2="0" gradientUnits="userSpaceOnUse" gradientTransform="matrix(0.227555,-27.7049,27.7049,0.227555,299.346,401.059)"><stop offset="0" style="stop-color:#66447b;stop-opacity:1"/><stop offset="1" style="stop-color:#af64a4;stop-opacity:1"/></linearGradient><linearGradient id="_Linear86" x1="0" y1="0" x2="1" y2="0" gradientUnits="userSpaceOnUse" gradientTransform="matrix(-2.09353,-18.8821,18.8821,-2.09353,335.584,331.427)"><stop offset="0" style="stop-color:#af64a4;stop-opacity:1"/><stop offset="1" style="stop-color:#2b2d4b;stop-opacity:1"/></linearGradient><linearGradient id="_Linear87" x1="0" y1="0" x2="1" y2="0" gradientUnits="userSpaceOnUse" gradientTransform="matrix(1.08089,-14.7911,14.7911,1.08089,324.946,350.314)"><stop offset="0" style="stop-color:#af64a4;stop-opacity:1"/><stop offset="1" style="stop-color:#2b2d4b;stop-opacity:1"/></linearGradient><linearGradient id="_Linear88" x1="0" y1="0" x2="1" y2="0" gradientUnits="userSpaceOnUse" gradientTransform="matrix(1.12065e-13,-14.7245,14.7245,1.12065e-13,314.21,371.288)"><stop offset="0" style="stop-color:#af64a4;stop-opacity:1"/><stop offset="1" style="stop-color:#2b2d4b;stop-opacity:1"/></linearGradient><linearGradient id="_Linear89" x1="0" y1="0" x2="1" y2="0" gradientUnits="userSpaceOnUse" gradientTransform="matrix(-7.90755,-24.5191,24.5191,-7.90755,312.772,381.433)"><stop offset="0" style="stop-color:#66447b;stop-opacity:1"/><stop offset="1" style="stop-color:#af64a4;stop-opacity:1"/></linearGradient><linearGradient id="_Linear90" x1="0" y1="0" x2="1" y2="0" gradientUnits="userSpaceOnUse" gradientTransform="matrix(48.2056,-73.2709,73.2709,48.2056,368.385,300.264)"><stop offset="0" style="stop-color:#af64a4;stop-opacity:1"/><stop offset="1" style="stop-color:#2b2d4b;stop-opacity:1"/></linearGradient><linearGradient id="_Linear91" x1="0" y1="0" x2="1" y2="0" gradientUnits="userSpaceOnUse" gradientTransform="matrix(-9.34929,-10.0912,10.0912,-9.34929,455.063,287.753)"><stop offset="0" style="stop-color:#4a3d64;stop-opacity:1"/><stop offset="1" style="stop-color:#251e36;stop-opacity:1"/></linearGradient><linearGradient id="_Linear92" x1="0" y1="0" x2="1" y2="0" gradientUnits="userSpaceOnUse" gradientTransform="matrix(-9.34929,-10.0912,10.0912,-9.34929,444.229,281.497)"><stop offset="0" style="stop-color:#4a3d64;stop-opacity:1"/><stop offset="1" style="stop-color:#251e36;stop-opacity:1"/></linearGradient><linearGradient id="_Linear93" x1="0" y1="0" x2="1" y2="0" gradientUnits="userSpaceOnUse" gradientTransform="matrix(-9.34929,-10.0912,10.0912,-9.34929,173.358,350.308)"><stop offset="0" style="stop-color:#4a3d64;stop-opacity:1"/><stop offset="1" style="stop-color:#251e36;stop-opacity:1"/></linearGradient><linearGradient id="_Linear94" x1="0" y1="0" x2="1" y2="0" gradientUnits="userSpaceOnUse" gradientTransform="matrix(-9.34929,-10.0912,10.0912,-9.34929,162.523,344.052)"><stop offset="0" style="stop-color:#4a3d64;stop-opacity:1"/><stop offset="1" style="stop-color:#251e36;stop-opacity:1"/></linearGradient><linearGradient id="_Linear95" x1="0" y1="0" x2="1" y2="0" gradientUnits="userSpaceOnUse" gradientTransform="matrix(-9.34929,-10.0912,10.0912,-9.34929,476.733,300.264)"><stop offset="0" style="stop-color:#4a3d64;stop-opacity:1"/><stop offset="1" style="stop-color:#251e36;stop-opacity:1"/></linearGradient><linearGradient id="_Linear96" x1="0" y1="0" x2="1" y2="0" gradientUnits="userSpaceOnUse" gradientTransform="matrix(-9.34929,-10.0912,10.0912,-9.34929,195.027,362.819)"><stop offset="0" style="stop-color:#4a3d64;stop-opacity:1"/><stop offset="1" style="stop-color:#251e36;stop-opacity:1"/></linearGradient><linearGradient id="_Linear97" x1="0" y1="0" x2="1" y2="0" gradientUnits="userSpaceOnUse" gradientTransform="matrix(8.46237,-13.9047,13.9047,8.46237,433.394,275.242)"><stop offset="0" style="stop-color:#66447b;stop-opacity:1"/><stop offset="1" style="stop-color:#2b2d4b;stop-opacity:1"/></linearGradient><linearGradient id="_Linear98" x1="0" y1="0" x2="1" y2="0" gradientUnits="userSpaceOnUse" gradientTransform="matrix(8.46237,-13.9047,13.9047,8.46237,455.063,287.753)"><stop offset="0" style="stop-color:#66447b;stop-opacity:1"/><stop offset="1" style="stop-color:#2b2d4b;stop-opacity:1"/></linearGradient><linearGradient id="_Linear99" x1="0" y1="0" x2="1" y2="0" gradientUnits="userSpaceOnUse" gradientTransform="matrix(5.99073,-9.86021,9.86021,5.99073,173.358,350.308)"><stop offset="0" style="stop-color:#4f3f68;stop-opacity:1"/><stop offset="1" style="stop-color:#a7689f;stop-opacity:1"/></linearGradient><linearGradient id="_Linear100" x1="0" y1="0" x2="1" y2="0" gradientUnits="userSpaceOnUse" gradientTransform="matrix(8.46237,-13.9047,13.9047,8.46237,476.733,300.264)"><stop offset="0" style="stop-color:#66447b;stop-opacity:1"/><stop offset="1" style="stop-color:#2b2d4b;stop-opacity:1"/></linearGradient><linearGradient id="_Linear101" x1="0" y1="0" x2="1" y2="0" gradientUnits="userSpaceOnUse" gradientTransform="matrix(8.46237,-13.9047,13.9047,8.46237,487.568,306.519)"><stop offset="0" style="stop-color:#66447b;stop-opacity:1"/><stop offset="1" style="stop-color:#2b2d4b;stop-opacity:1"/></linearGradient><linearGradient id="_Linear102" x1="0" y1="0" x2="1" y2="0" gradientUnits="userSpaceOnUse" gradientTransform="matrix(6.62736,-10.6466,10.6466,6.62736,195.027,362.819)"><stop offset="0" style="stop-color:#4f3f68;stop-opacity:1"/><stop offset="1" style="stop-color:#a7689f;stop-opacity:1"/></linearGradient><linearGradient id="_Linear103" x1="0" y1="0" x2="1" y2="0" gradientUnits="userSpaceOnUse" gradientTransform="matrix(-10.8348,-11.2859,11.2859,-10.8348,465.898,294.009)"><stop offset="0" style="stop-color:#4a3d64;stop-opacity:1"/><stop offset="1" style="stop-color:#251e36;stop-opacity:1"/></linearGradient><linearGradient id="_Linear104" x1="0" y1="0" x2="1" y2="0" gradientUnits="userSpaceOnUse" gradientTransform="matrix(-10.8348,-11.2859,11.2859,-10.8348,184.192,356.563)"><stop offset="0" style="stop-color:#4a3d64;stop-opacity:1"/><stop offset="1" style="stop-color:#251e36;stop-opacity:1"/></linearGradient><linearGradient id="_Linear105" x1="0" y1="0" x2="1" y2="0" gradientUnits="userSpaceOnUse" gradientTransform="matrix(-10.8348,-11.2859,11.2859,-10.8348,487.568,306.519)"><stop offset="0" style="stop-color:#4a3d64;stop-opacity:1"/><stop offset="1" style="stop-color:#251e36;stop-opacity:1"/></linearGradient><linearGradient id="_Linear106" x1="0" y1="0" x2="1" y2="0" gradientUnits="userSpaceOnUse" gradientTransform="matrix(-10.8348,-11.2859,11.2859,-10.8348,498.403,312.775)"><stop offset="0" style="stop-color:#4a3d64;stop-opacity:1"/><stop offset="1" style="stop-color:#251e36;stop-opacity:1"/></linearGradient><linearGradient id="_Linear107" x1="0" y1="0" x2="1" y2="0" gradientUnits="userSpaceOnUse" gradientTransform="matrix(-10.8348,-11.2859,11.2859,-10.8348,205.862,369.074)"><stop offset="0" style="stop-color:#4a3d64;stop-opacity:1"/><stop offset="1" style="stop-color:#251e36;stop-opacity:1"/></linearGradient><linearGradient id="_Linear108" x1="0" y1="0" x2="1" y2="0" gradientUnits="userSpaceOnUse" gradientTransform="matrix(7.77648,-12.0137,12.0137,7.77648,444.229,281.498)"><stop offset="0" style="stop-color:#66447b;stop-opacity:1"/><stop offset="1" style="stop-color:#2b2d4b;stop-opacity:1"/></linearGradient><linearGradient id="_Linear109" x1="0" y1="0" x2="1" y2="0" gradientUnits="userSpaceOnUse" gradientTransform="matrix(6.09569,-8.99165,8.99165,6.09569,162.523,344.052)"><stop offset="0" style="stop-color:#4f3f68;stop-opacity:1"/><stop offset="1" style="stop-color:#a7689f;stop-opacity:1"/></linearGradient><linearGradient id="_Linear110" x1="0" y1="0" x2="1" y2="0" gradientUnits="userSpaceOnUse" gradientTransform="matrix(7.77648,-12.0137,12.0137,7.77648,465.898,294.009)"><stop offset="0" style="stop-color:#66447b;stop-opacity:1"/><stop offset="1" style="stop-color:#2b2d4b;stop-opacity:1"/></linearGradient><linearGradient id="_Linear111" x1="0" y1="0" x2="1" y2="0" gradientUnits="userSpaceOnUse" gradientTransform="matrix(5.63368,-9.2584,9.2584,5.63368,184.192,356.563)"><stop offset="0" style="stop-color:#4f3f68;stop-opacity:1"/><stop offset="1" style="stop-color:#a7689f;stop-opacity:1"/></linearGradient></defs></svg>