<?xml version="1.0" encoding="UTF-8" standalone="no"?><!DOCTYPE svg PUBLIC "-//W3C//DTD SVG 1.1//EN" "http://www.w3.org/Graphics/SVG/1.1/DTD/svg11.dtd"><svg width="100%" height="100%" viewBox="0 0 683 585" version="1.1" xmlns="http://www.w3.org/2000/svg" xmlns:xlink="http://www.w3.org/1999/xlink" xml:space="preserve" xmlns:serif="http://www.serif.com/" style="fill-rule:evenodd;clip-rule:evenodd;stroke-linejoin:round;stroke-miterlimit:2;"><rect id="Artboard1" x="0" y="0" width="682.015" height="584.164" style="fill:none;"/><path d="M287.536,497.984l0,-375.33l368.385,212.687l-325.045,187.665l-43.34,-25.022Z" style="fill:url(#_Linear1);"/><path d="M157.518,172.698l-21.669,12.511l21.669,12.511l21.67,-12.511l-21.67,-12.511Z" style="fill:url(#_Linear2);"/><path d="M352.545,460.451l43.34,-25.022c0,0 43.339,-24.895 43.339,-75.066c0,-50.171 -43.339,-25.022 -43.339,-25.022c0,0 -21.67,12.361 -21.67,-12.511c0,-24.872 21.67,-37.533 21.67,-37.533l21.67,-12.511c0,0 43.339,-24.59 43.339,-75.066c0,-50.475 -43.339,-25.022 -43.339,-25.022l-65.01,37.533l-60.55,24.224l-4.459,13.309l43.34,25.022l-43.34,100.088l21.67,12.511l43.339,50.044l0,25.022Z" style="fill:url(#_Linear3);"/><path d="M135.849,185.209l0,50.044c0,0 -0.197,49.931 -43.34,25.022c-43.143,-24.908 -43.339,25.022 -43.339,25.022c0,0 0.359,50.252 43.339,75.066c42.98,24.815 43.34,74.608 43.34,75.066c0,0.39 -0.982,24.455 -21.67,12.511c-20.688,-11.944 -21.67,11.077 -21.67,12.511c0,1.031 0.706,25.43 21.67,37.533c20.964,12.104 43.339,25.022 43.339,25.022l0,-25.022l-21.669,-12.511l86.678,-50.044l-65.009,-37.533l0,-50.044l-43.339,-25.022l43.339,-25.022l0,-100.088l-21.669,-12.511Z" style="fill:url(#_Linear4);"/><path d="M157.518,347.852l65.009,-37.533l-43.339,-25.022l-65.009,37.533l43.339,25.022Z" style="fill:url(#_Linear5);"/><path d="M179.188,185.209l0,100.088l-21.67,12.511l0,-100.088l21.67,-12.511Z" style="fill:url(#_Linear6);"/><path d="M157.518,497.984l86.679,-50.044l0,25.022l-86.679,50.044l0,-25.022Z" style="fill:url(#_Linear7);"/><path d="M222.527,435.429l-86.678,50.044l21.669,12.511l86.679,-50.044l-21.67,-12.511Z" style="fill:url(#_Linear8);"/><path d="M157.518,347.852l0,50.044l65.009,-37.533l0,-50.044l-65.009,37.533Z" style="fill:url(#_Linear9);"/><path d="M222.527,435.429l0,-75.066l-65.009,37.533l65.009,37.533Z" style="fill:url(#_Linear10);"/><path d="M222.527,435.429l0,-125.11l-43.339,-25.022l0,-225.198l21.67,12.511l0,75.066l86.678,50.044l0,50.044l43.34,25.022l-43.34,25.022l0,75.066l21.67,12.511l0.041,25.046l43.298,24.998l0,25.022l-65.009,-37.533l0,75.066l-43.339,-25.022l0,-25.022l-21.67,-12.511Z" style="fill:url(#_Linear11);"/><path d="M352.545,210.231l-65.009,37.533l43.34,25.022l65.009,-37.533l-43.34,-25.022Z" style="fill:url(#_Linear12);"/><path d="M330.876,347.852l0,-75.066l-43.34,25.022l0,75.066l43.34,-25.022Z" style="fill:url(#_Linear13);"/><path d="M352.545,360.363l-43.339,25.022l-21.67,-12.511l43.34,-25.022l21.669,12.511Z" style="fill:url(#_Linear14);"/><path d="M352.545,435.429l-43.298,-24.998l-21.711,-12.535l21.67,-12.511l21.67,-12.511l65.009,37.533l-43.34,25.022Z" style="fill:url(#_Linear15);"/><path d="M352.545,210.231l0,-50.044l-65.009,37.533l0,50.044l65.009,-37.533Z" style="fill:url(#_Linear16);"/><path d="M352.545,160.187l-86.678,-50.044l-65.009,37.533l86.678,50.044l65.009,-37.533Z" style="fill:url(#_Linear17);"/><path d="M179.188,60.099l21.67,12.511l21.669,-12.511l-21.669,-12.511l-21.67,12.511Z" style="fill:url(#_Linear18);"/><path d="M222.527,60.099l0,25.022l43.34,25.022l-65.009,37.533l0,-75.066l21.669,-12.511Z" style="fill:url(#_Linear19);"/><path d="M352.545,460.451l-65.009,37.533l0,-75.066l65.009,37.533Z" style="fill:url(#_Linear20);"/><defs><linearGradient id="_Linear1" x1="0" y1="0" x2="1" y2="0" gradientUnits="userSpaceOnUse" gradientTransform="matrix(-390.054,175.154,-175.154,-390.054,677.591,322.83)"><stop offset="0" style="stop-color:#374c4a;stop-opacity:1"/><stop offset="1" style="stop-color:#152824;stop-opacity:1"/></linearGradient><linearGradient id="_Linear2" x1="0" y1="0" x2="1" y2="0" gradientUnits="userSpaceOnUse" gradientTransform="matrix(-44.1697,2.22797,-2.22797,-44.1697,179.188,188.22)"><stop offset="0" style="stop-color:#b55b38;stop-opacity:1"/><stop offset="1" style="stop-color:#ff8b00;stop-opacity:1"/></linearGradient><linearGradient id="_Linear3" x1="0" y1="0" x2="1" y2="0" gradientUnits="userSpaceOnUse" gradientTransform="matrix(67.023,-272.552,272.552,67.023,384.048,442.264)"><stop offset="0" style="stop-color:#ffc700;stop-opacity:1"/><stop offset="1" style="stop-color:#ff8400;stop-opacity:1"/></linearGradient><linearGradient id="_Linear4" x1="0" y1="0" x2="1" y2="0" gradientUnits="userSpaceOnUse" gradientTransform="matrix(21.6697,330.58,-330.58,21.6697,135.849,192.426)"><stop offset="0" style="stop-color:#374c4a;stop-opacity:1"/><stop offset="1" style="stop-color:#152824;stop-opacity:1"/></linearGradient><linearGradient id="_Linear5" x1="0" y1="0" x2="1" y2="0" gradientUnits="userSpaceOnUse" gradientTransform="matrix(21.6697,-62.555,62.555,21.6697,157.518,347.852)"><stop offset="0" style="stop-color:#b55b38;stop-opacity:1"/><stop offset="1" style="stop-color:#ff8b00;stop-opacity:1"/></linearGradient><linearGradient id="_Linear6" x1="0" y1="0" x2="1" y2="0" gradientUnits="userSpaceOnUse" gradientTransform="matrix(-27.8697,140.399,-140.399,-27.8697,179.188,185.209)"><stop offset="0" style="stop-color:#ffc700;stop-opacity:1"/><stop offset="1" style="stop-color:#ff8b00;stop-opacity:1"/></linearGradient><linearGradient id="_Linear7" x1="0" y1="0" x2="1" y2="0" gradientUnits="userSpaceOnUse" gradientTransform="matrix(119.491,-24.7095,24.7095,119.491,157.518,497.984)"><stop offset="0" style="stop-color:#ffc700;stop-opacity:1"/><stop offset="1" style="stop-color:#ff8b00;stop-opacity:1"/></linearGradient><linearGradient id="_Linear8" x1="0" y1="0" x2="1" y2="0" gradientUnits="userSpaceOnUse" gradientTransform="matrix(133.417,-123.357,123.357,133.417,148.282,492.652)"><stop offset="0" style="stop-color:#b55b38;stop-opacity:1"/><stop offset="1" style="stop-color:#ff8b00;stop-opacity:1"/></linearGradient><linearGradient id="_Linear9" x1="0" y1="0" x2="1" y2="0" gradientUnits="userSpaceOnUse" gradientTransform="matrix(65.0091,12.4589,-12.4589,65.0091,157.518,347.852)"><stop offset="0" style="stop-color:#ffc700;stop-opacity:1"/><stop offset="1" style="stop-color:#ff8b00;stop-opacity:1"/></linearGradient><linearGradient id="_Linear10" x1="0" y1="0" x2="1" y2="0" gradientUnits="userSpaceOnUse" gradientTransform="matrix(102.869,28.5358,-28.5358,102.869,170.499,400.699)"><stop offset="0" style="stop-color:#b55b38;stop-opacity:1"/><stop offset="1" style="stop-color:#ff8b00;stop-opacity:1"/></linearGradient><linearGradient id="_Linear11" x1="0" y1="0" x2="1" y2="0" gradientUnits="userSpaceOnUse" gradientTransform="matrix(101.106,433.704,-433.704,101.106,186.43,64.2807)"><stop offset="0" style="stop-color:#374c4a;stop-opacity:1"/><stop offset="1" style="stop-color:#152824;stop-opacity:1"/></linearGradient><linearGradient id="_Linear12" x1="0" y1="0" x2="1" y2="0" gradientUnits="userSpaceOnUse" gradientTransform="matrix(-188.9,-0.489053,0.489053,-188.9,395.885,235.253)"><stop offset="0" style="stop-color:#b55b38;stop-opacity:1"/><stop offset="1" style="stop-color:#ff8b00;stop-opacity:1"/></linearGradient><linearGradient id="_Linear13" x1="0" y1="0" x2="1" y2="0" gradientUnits="userSpaceOnUse" gradientTransform="matrix(48.618,11.535,-11.535,48.618,282.258,299.129)"><stop offset="0" style="stop-color:#ffbd00;stop-opacity:1"/><stop offset="1" style="stop-color:#ff8400;stop-opacity:1"/></linearGradient><linearGradient id="_Linear14" x1="0" y1="0" x2="1" y2="0" gradientUnits="userSpaceOnUse" gradientTransform="matrix(65.0091,-12.511,12.511,65.0091,287.536,372.874)"><stop offset="0" style="stop-color:#ff8b00;stop-opacity:1"/><stop offset="1" style="stop-color:#b55b38;stop-opacity:1"/></linearGradient><linearGradient id="_Linear15" x1="0" y1="0" x2="1" y2="0" gradientUnits="userSpaceOnUse" gradientTransform="matrix(-43.3394,-75.066,75.066,-43.3394,374.215,422.918)"><stop offset="0" style="stop-color:#b55b38;stop-opacity:1"/><stop offset="1" style="stop-color:#ffc700;stop-opacity:1"/></linearGradient><linearGradient id="_Linear16" x1="0" y1="0" x2="1" y2="0" gradientUnits="userSpaceOnUse" gradientTransform="matrix(39.5801,-89.5608,89.5608,39.5801,312.965,249.748)"><stop offset="0" style="stop-color:#ffc700;stop-opacity:1"/><stop offset="1" style="stop-color:#ff8b00;stop-opacity:1"/></linearGradient><linearGradient id="_Linear17" x1="0" y1="0" x2="1" y2="0" gradientUnits="userSpaceOnUse" gradientTransform="matrix(-234.486,-28.8882,28.8882,-234.486,338.344,168.565)"><stop offset="0" style="stop-color:#b55b38;stop-opacity:1"/><stop offset="1" style="stop-color:#ff8b00;stop-opacity:1"/></linearGradient><linearGradient id="_Linear18" x1="0" y1="0" x2="1" y2="0" gradientUnits="userSpaceOnUse" gradientTransform="matrix(-8.86754,24.6832,-24.6832,-8.86754,207.418,46.5951)"><stop offset="0" style="stop-color:#b55b38;stop-opacity:1"/><stop offset="1" style="stop-color:#ff8b00;stop-opacity:1"/></linearGradient><linearGradient id="_Linear19" x1="0" y1="0" x2="1" y2="0" gradientUnits="userSpaceOnUse" gradientTransform="matrix(49.4363,-46.5239,46.5239,49.4363,200.858,147.676)"><stop offset="0" style="stop-color:#ffc700;stop-opacity:1"/><stop offset="1" style="stop-color:#ff8b00;stop-opacity:1"/></linearGradient><linearGradient id="_Linear20" x1="0" y1="0" x2="1" y2="0" gradientUnits="userSpaceOnUse" gradientTransform="matrix(85.5231,-74.7841,74.7841,85.5231,287.536,498.37)"><stop offset="0" style="stop-color:#ffc700;stop-opacity:1"/><stop offset="1" style="stop-color:#ff8b00;stop-opacity:1"/></linearGradient></defs></svg>