<?xml version="1.0" encoding="UTF-8" standalone="no"?><!DOCTYPE svg PUBLIC "-//W3C//DTD SVG 1.1//EN" "http://www.w3.org/Graphics/SVG/1.1/DTD/svg11.dtd"><svg width="100%" height="100%" viewBox="0 0 718 668" version="1.1" xmlns="http://www.w3.org/2000/svg" xmlns:xlink="http://www.w3.org/1999/xlink" xml:space="preserve" xmlns:serif="http://www.serif.com/" style="fill-rule:evenodd;clip-rule:evenodd;stroke-linecap:round;stroke-linejoin:round;stroke-miterlimit:1.5;"><rect id="Artboard1" x="0" y="0" width="717.475" height="667.024" style="fill:none;"/><path d="M260.036,125.11l0,37.533l-21.669,12.511l0,-62.555l108.348,-62.555l108.348,62.555l0,25.022l-97.513,-56.3l-21.67,0l-75.844,43.789Z" style="fill:url(#_Linear1);"/><path d="M303.719,112.476c4.095,-2.2 44.15,-22.591 84.177,-1.016l13.402,-2.333l7.839,1.803l0,25.263l0,0c0.409,15.058 -19.083,26.515 -19.083,26.515c0,0 -43.643,24.847 -86.678,0c-14.801,-8.545 -19.421,-17.131 -19.113,-24.72l0,-25.088l7.84,-0.803l11.616,0.379Z" style="fill:#fff;stroke:#000004;stroke-width:1.5px;"/><path id="_6" serif:id="6" d="M390.054,137.621c0,0 -43.643,24.847 -86.678,0c-43.036,-24.847 0,-50.044 0,-50.044c0,0 43.728,-24.798 86.678,0c42.951,24.798 0,50.044 0,50.044Z" style="fill:#fff;stroke:#000004;stroke-width:1.5px;"/><path d="M325.062,126.119c-0.011,-0.006 -0.017,-0.009 -0.017,-0.009c0,0 -21.886,-12.386 0,-25.022c21.887,-12.636 43.34,0 43.34,0c0,0 21.297,12.726 0,25.022c-10.887,6.285 -21.968,6.145 -30.201,4.506c8.232,1.639 19.314,1.779 30.201,-4.506c-0.046,-0.027 -21.476,-12.623 -43.34,0l0.017,0.009Zm13.028,4.478l0.094,0.019l-0.026,-0.006l-0.068,-0.013Zm-0.093,-0.019l0.093,0.019l-0.026,-0.005l-0.067,-0.014Zm-0.094,-0.019l0.093,0.019l-0.026,-0.005l-0.067,-0.014Zm-0.093,-0.019l0.092,0.019l-0.026,-0.006l-0.066,-0.013Zm-0.093,-0.02l0.092,0.019l-0.026,-0.005l-0.066,-0.014Zm-0.092,-0.019l0.091,0.019l-0.026,-0.005l-0.065,-0.014Zm-0.093,-0.02l0.091,0.02l-0.026,-0.006l-0.065,-0.014Zm-0.092,-0.019l0.09,0.019l-0.026,-0.005l-0.064,-0.014Zm-0.092,-0.02l0.089,0.019l-0.025,-0.005l-0.064,-0.014Zm-0.092,-0.02l0.089,0.019l-0.025,-0.005l-0.064,-0.014Zm-0.091,-0.02l0.088,0.019l-0.025,-0.005l-0.063,-0.014Zm-0.091,-0.02l0.088,0.019l-0.026,-0.005l-0.062,-0.014Zm-0.136,-0.03l0.133,0.029l-0.026,-0.005l-0.107,-0.024Zm-0.181,-0.041l0.124,0.028l-0.018,-0.004l-0.106,-0.024Zm-0.179,-0.042l0.122,0.029l-0.018,-0.004l-0.104,-0.025Zm-0.179,-0.041l0.121,0.028l-0.018,-0.004l-0.103,-0.024Zm-0.177,-0.042l0.12,0.028l-0.018,-0.004l-0.102,-0.024Zm-0.177,-0.043l0.119,0.029l-0.018,-0.005l-0.101,-0.024Zm-0.175,-0.043l0.117,0.029l-0.018,-0.004l-0.099,-0.025Zm-0.175,-0.043l0.117,0.029l-0.018,-0.004l-0.099,-0.025Zm-0.173,-0.044l0.115,0.029l-0.017,-0.004l-0.098,-0.025Zm-0.172,-0.044l0.114,0.03l-0.018,-0.005l-0.096,-0.025Zm-0.171,-0.044l0.113,0.029l-0.018,-0.004l-0.095,-0.025Zm-0.17,-0.044l0.112,0.029l-0.018,-0.004l-0.094,-0.025Zm-0.168,-0.045l0.11,0.029l-0.018,-0.004l-0.092,-0.025Zm-0.168,-0.045l0.109,0.029l-0.017,-0.004l-0.092,-0.025Zm-0.166,-0.046l0.107,0.03l-0.017,-0.005l-0.09,-0.025Zm-0.166,-0.045l0.107,0.029l-0.017,-0.004l-0.09,-0.025Zm-0.164,-0.046l0.106,0.03l-0.017,-0.005l-0.089,-0.025Zm-0.163,-0.046l0.105,0.03l-0.017,-0.005l-0.088,-0.025Zm-0.161,-0.046l0.103,0.029l-0.017,-0.005l-0.086,-0.024Zm-0.161,-0.047l0.102,0.03l-0.017,-0.005l-0.085,-0.025Zm-0.159,-0.046l0.1,0.029l-0.016,-0.005l-0.084,-0.024Zm-0.158,-0.047l0.099,0.029l-0.017,-0.005l-0.082,-0.024Zm-0.157,-0.047l0.098,0.029l-0.017,-0.005l-0.081,-0.024Zm-0.156,-0.047l0.097,0.029l-0.016,-0.005l-0.081,-0.024Zm-0.154,-0.048l0.095,0.03l-0.016,-0.005l-0.079,-0.025Zm-0.154,-0.047l0.095,0.029l-0.016,-0.005l-0.079,-0.024Zm-0.152,-0.048l0.094,0.03l-0.016,-0.005l-0.078,-0.025Zm-0.15,-0.047l0.092,0.029l-0.016,-0.005l-0.076,-0.024Zm-0.15,-0.048l0.091,0.029l-0.016,-0.005l-0.075,-0.024Zm-0.148,-0.048l0.09,0.029l-0.016,-0.005l-0.074,-0.024Zm-0.147,-0.048l0.089,0.029l-0.016,-0.005l-0.073,-0.024Zm-0.146,-0.047l0.088,0.029l-0.016,-0.006l-0.072,-0.023Zm-0.144,-0.048l0.087,0.029l-0.016,-0.006l-0.071,-0.023Zm-0.143,-0.048l0.085,0.029l-0.015,-0.006l-0.07,-0.023Zm-0.142,-0.048l0.085,0.029l-0.016,-0.006l-0.069,-0.023Zm-0.14,-0.048l0.083,0.029l-0.015,-0.006l-0.068,-0.023Zm-0.139,-0.048l0.082,0.028l-0.015,-0.005l-0.067,-0.023Zm-0.138,-0.048l0.081,0.029l-0.015,-0.006l-0.066,-0.023Zm-0.137,-0.048l0.08,0.029l-0.014,-0.006l-0.066,-0.023Zm-0.135,-0.047l0.079,0.028l-0.014,-0.005l-0.065,-0.023Zm-0.133,-0.048l0.077,0.028l-0.014,-0.005l-0.063,-0.023Zm-0.133,-0.047l0.077,0.027l-0.014,-0.005l-0.063,-0.022Zm-0.131,-0.048l0.076,0.028l-0.014,-0.006l-0.062,-0.022Zm-0.129,-0.047l0.074,0.027l-0.014,-0.005l-0.06,-0.022Zm-0.128,-0.048l0.073,0.028l-0.014,-0.006l-0.059,-0.022Zm-0.127,-0.047l0.072,0.027l-0.014,-0.005l-0.058,-0.022Zm-0.126,-0.047l0.072,0.027l-0.014,-0.005l-0.058,-0.022Zm-0.124,-0.046l0.071,0.026l-0.014,-0.005l-0.057,-0.021Zm-0.122,-0.047l0.069,0.027l-0.013,-0.006l-0.056,-0.021Zm-0.121,-0.046l0.068,0.026l-0.013,-0.005l-0.055,-0.021Zm-0.12,-0.046l0.067,0.026l-0.013,-0.006l-0.054,-0.02Zm-0.118,-0.046l0.066,0.025l-0.013,-0.005l-0.053,-0.02Zm-0.117,-0.046l0.065,0.025l-0.013,-0.005l-0.052,-0.02Zm-0.115,-0.046l0.064,0.026l-0.013,-0.005l-0.051,-0.021Zm-0.114,-0.045l0.063,0.025l-0.013,-0.005l-0.05,-0.02Zm-0.112,-0.045l0.062,0.025l-0.013,-0.005l-0.049,-0.02Zm-0.111,-0.044l0.061,0.024l-0.013,-0.005l-0.048,-0.019Zm-0.109,-0.045l0.06,0.025l-0.013,-0.005l-0.047,-0.02Zm-0.108,-0.044l0.059,0.024l-0.012,-0.005l-0.047,-0.019Zm-0.107,-0.044l0.058,0.024l-0.012,-0.005l-0.046,-0.019Zm-0.104,-0.043l0.057,0.024l-0.012,-0.005l-0.045,-0.019Zm-0.104,-0.043l0.056,0.023l-0.011,-0.005l-0.045,-0.018Zm-0.101,-0.043l0.055,0.023l-0.012,-0.005l-0.043,-0.018Zm-0.101,-0.042l0.054,0.023l-0.011,-0.005l-0.043,-0.018Zm-0.098,-0.042l0.053,0.023l-0.011,-0.005l-0.042,-0.018Zm-0.097,-0.042l0.052,0.023l-0.011,-0.005l-0.041,-0.018Zm-0.096,-0.041l0.051,0.022l-0.011,-0.004l-0.04,-0.018Zm-0.094,-0.04l0.05,0.021l-0.01,-0.004l-0.04,-0.017Zm-0.092,-0.041l0.049,0.022l-0.01,-0.005l-0.039,-0.017Zm-0.091,-0.039l0.049,0.021l-0.011,-0.005l-0.038,-0.016Zm-0.089,-0.04l0.047,0.021l-0.01,-0.004l-0.037,-0.017Zm-0.087,-0.038l0.046,0.02l-0.01,-0.004l-0.036,-0.016Zm-0.086,-0.039l0.045,0.02l-0.01,-0.004l-0.035,-0.016Zm-0.084,-0.038l0.044,0.02l-0.01,-0.004l-0.034,-0.016Zm-0.083,-0.037l0.043,0.02l-0.009,-0.005l-0.034,-0.015Zm-0.081,-0.037l0.043,0.02l-0.01,-0.005l-0.033,-0.015Zm-0.079,-0.036l0.041,0.019l-0.009,-0.004l-0.032,-0.015Zm-0.078,-0.036l0.041,0.019l-0.009,-0.004l-0.032,-0.015Zm-0.076,-0.035l0.04,0.019l-0.009,-0.004l-0.031,-0.015Zm-0.074,-0.034l0.039,0.018l-0.009,-0.004l-0.03,-0.014Zm-0.073,-0.034l0.038,0.018l-0.009,-0.004l-0.029,-0.014Zm-0.105,-0.05l0.074,0.035l-0.011,-0.005l-0.063,-0.03Zm-0.135,-0.064l0.068,0.033l-0.008,-0.004l-0.06,-0.029Zm-0.128,-0.061l0.064,0.031l-0.008,-0.004l-0.056,-0.027Zm-0.122,-0.059l0.061,0.03l-0.007,-0.004l-0.054,-0.026Zm-0.114,-0.056l0.058,0.028l-0.007,-0.003l-0.051,-0.025Zm-0.107,-0.052l0.054,0.026l-0.006,-0.003l-0.048,-0.023Zm-0.099,-0.05l0.05,0.025l-0.006,-0.003l-0.044,-0.022Zm-0.093,-0.047l0.046,0.024l-0.005,-0.003l-0.041,-0.021Zm-0.085,-0.043l0.042,0.022l-0.005,-0.003l-0.037,-0.019Zm-0.078,-0.04l0.039,0.02l-0.005,-0.003l-0.034,-0.017Zm-0.071,-0.037l0.036,0.019l-0.005,-0.003l-0.031,-0.016Zm-0.063,-0.033l0.032,0.017l-0.004,-0.002l-0.028,-0.015Zm-0.055,-0.029l0.028,0.015l-0.004,-0.002l-0.024,-0.013Zm-0.048,-0.025l0.024,0.013l-0.003,-0.002l-0.021,-0.011Zm-0.04,-0.022l0.021,0.011l-0.003,-0.001l-0.018,-0.01Zm-0.047,-0.025l0.032,0.017l-0.003,-0.001l-0.029,-0.016Z" style="fill:#fff;stroke:#000004;stroke-width:1.5px;"/><path d="M390.054,387.841c0,0 21.511,-12.607 43.343,-0.002c9.557,5.518 18.83,-1.635 18.83,-1.635l2.157,-17.235l-16.638,-16.148l-33.592,-3.296l-18.777,8.292l4.677,30.024Z" style="fill:url(#_Linear2);"/><path d="M303.719,562.807c2.734,-1.469 30.215,36.195 53.831,31.465c33.701,-6.748 17.044,-39.651 30.346,-32.481l13.402,-2.333l7.839,1.803l0,25.262l0,0.001c0.418,15.424 -19.083,26.515 -19.083,26.515c0,0 -42.125,25.723 -86.678,0c-14.801,-8.545 -19.421,-17.132 -19.113,-24.72l0,-25.088l7.84,-0.803l11.616,0.379Z" style="fill:#fff;stroke:#000004;stroke-width:1.5px;"/><path id="_1" serif:id="1" d="M390.054,587.952c0,0 -42.463,25.528 -86.678,0c-43.036,-24.847 0,-50.044 0,-50.044c0,0 43.728,-24.798 86.678,0c42.951,24.798 0,50.044 0,50.044Zm-65.009,-12.446c21.864,-12.623 43.294,-0.027 43.34,0c-21.276,12.283 -43.293,0.026 -43.34,0Z" style="fill:#fff;stroke:#000004;stroke-width:1.5px;"/><path d="M325.062,575.515c-0.011,-0.006 -0.017,-0.009 -0.017,-0.009c0,0 -21.886,-12.386 0,-25.022c21.887,-12.636 43.34,0 43.34,0c0,0 21.297,12.726 0,25.022c-10.887,6.286 -21.968,6.145 -30.201,4.506c8.232,1.639 19.314,1.779 30.201,-4.506c-0.046,-0.027 -21.476,-12.623 -43.34,0l0.017,0.009Zm13.028,4.478l0.094,0.019l-0.026,-0.005l-0.068,-0.014Zm-0.093,-0.019l0.093,0.019l-0.026,-0.005l-0.067,-0.014Zm-0.094,-0.019l0.093,0.019l-0.026,-0.005l-0.067,-0.014Zm-0.093,-0.019l0.092,0.019l-0.026,-0.006l-0.066,-0.013Zm-0.093,-0.02l0.092,0.019l-0.026,-0.005l-0.066,-0.014Zm-0.092,-0.019l0.091,0.019l-0.026,-0.005l-0.065,-0.014Zm-0.093,-0.019l0.091,0.019l-0.026,-0.006l-0.065,-0.013Zm-0.092,-0.02l0.09,0.019l-0.026,-0.005l-0.064,-0.014Zm-0.092,-0.02l0.089,0.019l-0.025,-0.005l-0.064,-0.014Zm-0.092,-0.02l0.089,0.019l-0.025,-0.005l-0.064,-0.014Zm-0.091,-0.02l0.088,0.02l-0.025,-0.006l-0.063,-0.014Zm-0.091,-0.02l0.088,0.019l-0.026,-0.005l-0.062,-0.014Zm-0.136,-0.03l0.133,0.029l-0.026,-0.005l-0.107,-0.024Zm-0.181,-0.041l0.124,0.028l-0.018,-0.004l-0.106,-0.024Zm-0.179,-0.042l0.122,0.029l-0.018,-0.004l-0.104,-0.025Zm-0.179,-0.041l0.121,0.028l-0.018,-0.004l-0.103,-0.024Zm-0.177,-0.042l0.12,0.028l-0.018,-0.004l-0.102,-0.024Zm-0.177,-0.043l0.119,0.029l-0.018,-0.004l-0.101,-0.025Zm-0.175,-0.043l0.117,0.029l-0.018,-0.004l-0.099,-0.025Zm-0.175,-0.043l0.117,0.029l-0.018,-0.004l-0.099,-0.025Zm-0.173,-0.044l0.115,0.03l-0.017,-0.005l-0.098,-0.025Zm-0.172,-0.043l0.114,0.029l-0.018,-0.005l-0.096,-0.024Zm-0.171,-0.045l0.113,0.03l-0.018,-0.005l-0.095,-0.025Zm-0.17,-0.044l0.112,0.029l-0.018,-0.004l-0.094,-0.025Zm-0.168,-0.045l0.11,0.029l-0.018,-0.004l-0.092,-0.025Zm-0.168,-0.045l0.109,0.029l-0.017,-0.004l-0.092,-0.025Zm-0.166,-0.045l0.107,0.029l-0.017,-0.005l-0.09,-0.024Zm-0.166,-0.046l0.107,0.029l-0.017,-0.004l-0.09,-0.025Zm-0.164,-0.046l0.106,0.03l-0.017,-0.005l-0.089,-0.025Zm-0.163,-0.046l0.105,0.03l-0.017,-0.005l-0.088,-0.025Zm-0.161,-0.046l0.103,0.029l-0.017,-0.004l-0.086,-0.025Zm-0.161,-0.047l0.102,0.03l-0.017,-0.005l-0.085,-0.025Zm-0.159,-0.046l0.1,0.029l-0.016,-0.005l-0.084,-0.024Zm-0.158,-0.047l0.099,0.029l-0.017,-0.005l-0.082,-0.024Zm-0.157,-0.047l0.098,0.029l-0.017,-0.005l-0.081,-0.024Zm-0.156,-0.047l0.097,0.029l-0.016,-0.005l-0.081,-0.024Zm-0.154,-0.048l0.095,0.03l-0.016,-0.005l-0.079,-0.025Zm-0.154,-0.047l0.095,0.029l-0.016,-0.005l-0.079,-0.024Zm-0.152,-0.048l0.094,0.03l-0.016,-0.005l-0.078,-0.025Zm-0.15,-0.047l0.092,0.029l-0.016,-0.005l-0.076,-0.024Zm-0.15,-0.048l0.091,0.029l-0.016,-0.005l-0.075,-0.024Zm-0.148,-0.048l0.09,0.029l-0.016,-0.005l-0.074,-0.024Zm-0.147,-0.047l0.089,0.029l-0.016,-0.006l-0.073,-0.023Zm-0.146,-0.048l0.088,0.029l-0.016,-0.005l-0.072,-0.024Zm-0.144,-0.048l0.087,0.029l-0.016,-0.005l-0.071,-0.024Zm-0.143,-0.048l0.085,0.029l-0.015,-0.006l-0.07,-0.023Zm-0.142,-0.048l0.085,0.029l-0.016,-0.006l-0.069,-0.023Zm-0.14,-0.048l0.083,0.029l-0.015,-0.006l-0.068,-0.023Zm-0.139,-0.048l0.082,0.029l-0.015,-0.006l-0.067,-0.023Zm-0.138,-0.048l0.081,0.029l-0.015,-0.006l-0.066,-0.023Zm-0.137,-0.047l0.08,0.028l-0.014,-0.005l-0.066,-0.023Zm-0.135,-0.048l0.079,0.028l-0.014,-0.005l-0.065,-0.023Zm-0.133,-0.048l0.077,0.028l-0.014,-0.005l-0.063,-0.023Zm-0.133,-0.047l0.077,0.027l-0.014,-0.005l-0.063,-0.022Zm-0.131,-0.048l0.076,0.028l-0.014,-0.006l-0.062,-0.022Zm-0.129,-0.047l0.074,0.027l-0.014,-0.005l-0.06,-0.022Zm-0.128,-0.047l0.073,0.027l-0.014,-0.005l-0.059,-0.022Zm-0.127,-0.047l0.072,0.026l-0.014,-0.005l-0.058,-0.021Zm-0.126,-0.047l0.072,0.026l-0.014,-0.005l-0.058,-0.021Zm-0.124,-0.047l0.071,0.026l-0.014,-0.005l-0.057,-0.021Zm-0.122,-0.047l0.069,0.027l-0.013,-0.006l-0.056,-0.021Zm-0.121,-0.046l0.068,0.026l-0.013,-0.005l-0.055,-0.021Zm-0.12,-0.046l0.067,0.026l-0.013,-0.005l-0.054,-0.021Zm-0.118,-0.046l0.066,0.025l-0.013,-0.005l-0.053,-0.02Zm-0.117,-0.046l0.065,0.026l-0.013,-0.006l-0.052,-0.02Zm-0.115,-0.046l0.064,0.026l-0.013,-0.005l-0.051,-0.021Zm-0.114,-0.045l0.063,0.025l-0.013,-0.005l-0.05,-0.02Zm-0.112,-0.045l0.062,0.025l-0.013,-0.005l-0.049,-0.02Zm-0.111,-0.044l0.061,0.024l-0.013,-0.005l-0.048,-0.019Zm-0.109,-0.045l0.06,0.025l-0.013,-0.005l-0.047,-0.02Zm-0.108,-0.044l0.059,0.024l-0.012,-0.005l-0.047,-0.019Zm-0.107,-0.044l0.058,0.024l-0.012,-0.005l-0.046,-0.019Zm-0.104,-0.043l0.057,0.024l-0.012,-0.005l-0.045,-0.019Zm-0.104,-0.043l0.056,0.023l-0.011,-0.004l-0.045,-0.019Zm-0.101,-0.043l0.055,0.023l-0.012,-0.004l-0.043,-0.019Zm-0.101,-0.042l0.054,0.023l-0.011,-0.005l-0.043,-0.018Zm-0.098,-0.042l0.053,0.023l-0.011,-0.005l-0.042,-0.018Zm-0.097,-0.041l0.052,0.022l-0.011,-0.005l-0.041,-0.017Zm-0.096,-0.042l0.051,0.022l-0.011,-0.004l-0.04,-0.018Zm-0.094,-0.04l0.05,0.022l-0.01,-0.005l-0.04,-0.017Zm-0.092,-0.04l0.049,0.021l-0.01,-0.005l-0.039,-0.016Zm-0.091,-0.04l0.049,0.021l-0.011,-0.005l-0.038,-0.016Zm-0.089,-0.04l0.047,0.021l-0.01,-0.004l-0.037,-0.017Zm-0.087,-0.038l0.046,0.02l-0.01,-0.004l-0.036,-0.016Zm-0.086,-0.039l0.045,0.021l-0.01,-0.005l-0.035,-0.016Zm-0.084,-0.037l0.044,0.019l-0.01,-0.004l-0.034,-0.015Zm-0.083,-0.038l0.043,0.02l-0.009,-0.005l-0.034,-0.015Zm-0.081,-0.037l0.043,0.02l-0.01,-0.005l-0.033,-0.015Zm-0.079,-0.036l0.041,0.019l-0.009,-0.004l-0.032,-0.015Zm-0.078,-0.035l0.041,0.018l-0.009,-0.004l-0.032,-0.014Zm-0.076,-0.036l0.04,0.019l-0.009,-0.004l-0.031,-0.015Zm-0.074,-0.034l0.039,0.018l-0.009,-0.004l-0.03,-0.014Zm-0.073,-0.034l0.038,0.018l-0.009,-0.004l-0.029,-0.014Zm-0.105,-0.05l0.074,0.036l-0.011,-0.006l-0.063,-0.03Zm-0.135,-0.064l0.068,0.033l-0.008,-0.004l-0.06,-0.029Zm-0.128,-0.061l0.064,0.031l-0.008,-0.004l-0.056,-0.027Zm-0.122,-0.059l0.061,0.03l-0.007,-0.004l-0.054,-0.026Zm-0.114,-0.056l0.058,0.029l-0.007,-0.004l-0.051,-0.025Zm-0.107,-0.052l0.054,0.026l-0.006,-0.003l-0.048,-0.023Zm-0.099,-0.05l0.05,0.025l-0.006,-0.003l-0.044,-0.022Zm-0.093,-0.047l0.046,0.024l-0.005,-0.003l-0.041,-0.021Zm-0.085,-0.043l0.042,0.022l-0.005,-0.003l-0.037,-0.019Zm-0.078,-0.04l0.039,0.02l-0.005,-0.002l-0.034,-0.018Zm-0.071,-0.037l0.036,0.019l-0.005,-0.002l-0.031,-0.017Zm-0.063,-0.032l0.032,0.016l-0.004,-0.002l-0.028,-0.014Zm-0.055,-0.03l0.028,0.015l-0.004,-0.002l-0.024,-0.013Zm-0.048,-0.025l0.024,0.013l-0.003,-0.002l-0.021,-0.011Zm-0.04,-0.022l0.021,0.012l-0.003,-0.002l-0.018,-0.01Zm-0.047,-0.025l0.032,0.017l-0.003,-0.001l-0.029,-0.016Z" style="fill:#fff;stroke:#000004;stroke-width:1.5px;"/><path d="M325.045,500.44c4.096,-2.201 18.253,-3.507 50.509,0.353l25.744,-28.847l7.839,1.803l0,25.263l0,0c0.409,15.058 -19.083,26.515 -19.083,26.515c0,0 -43.643,24.847 -86.678,0c-14.801,-8.545 -19.421,-17.131 -19.113,-24.72l0,-25.088l7.84,-0.803l32.942,25.524Z" style="fill:#fff;stroke:#000004;stroke-width:1.5px;"/><path d="M368.385,475.418l-35.135,20.285l10.486,6.457l25.311,-2.103l10.183,-9.768l-10.845,-14.871Z" style="fill:url(#_Linear3);"/><path id="_2" serif:id="2" d="M390.054,500.44c0,0 -42.494,25.51 -86.678,0c-43.036,-24.847 0,-50.044 0,-50.044c0,0 43.728,-24.798 86.678,0c42.951,24.798 0,50.044 0,50.044Zm-65.009,-12.511c21.864,-12.623 43.294,-0.027 43.34,0c-21.276,12.283 -43.293,0.026 -43.34,0Z" style="fill:#fff;stroke:#000004;stroke-width:1.5px;"/><path d="M325.062,487.938c-0.011,-0.006 -0.017,-0.009 -0.017,-0.009c0,0 -21.886,-12.386 0,-25.022c21.887,-12.636 43.34,0 43.34,0c0,0 21.297,12.726 0,25.022c-10.887,6.286 -21.968,6.145 -30.201,4.506c8.232,1.639 19.314,1.78 30.201,-4.506c-0.046,-0.026 -21.476,-12.623 -43.34,0l0.017,0.009Zm13.028,4.478l0.094,0.019l-0.026,-0.005l-0.068,-0.014Zm-0.093,-0.019l0.093,0.019l-0.026,-0.005l-0.067,-0.014Zm-0.094,-0.019l0.093,0.019l-0.026,-0.005l-0.067,-0.014Zm-0.093,-0.019l0.092,0.019l-0.026,-0.005l-0.066,-0.014Zm-0.093,-0.019l0.092,0.019l-0.026,-0.006l-0.066,-0.013Zm-0.092,-0.02l0.091,0.019l-0.026,-0.005l-0.065,-0.014Zm-0.093,-0.019l0.091,0.019l-0.026,-0.006l-0.065,-0.013Zm-0.092,-0.02l0.09,0.019l-0.026,-0.005l-0.064,-0.014Zm-0.092,-0.02l0.089,0.019l-0.025,-0.005l-0.064,-0.014Zm-0.092,-0.02l0.089,0.02l-0.025,-0.006l-0.064,-0.014Zm-0.091,-0.02l0.088,0.02l-0.025,-0.006l-0.063,-0.014Zm-0.091,-0.02l0.088,0.02l-0.026,-0.006l-0.062,-0.014Zm-0.136,-0.03l0.133,0.029l-0.026,-0.005l-0.107,-0.024Zm-0.181,-0.041l0.124,0.028l-0.018,-0.004l-0.106,-0.024Zm-0.179,-0.041l0.122,0.028l-0.018,-0.004l-0.104,-0.024Zm-0.179,-0.042l0.121,0.028l-0.018,-0.004l-0.103,-0.024Zm-0.177,-0.042l0.12,0.028l-0.018,-0.004l-0.102,-0.024Zm-0.177,-0.043l0.119,0.029l-0.018,-0.004l-0.101,-0.025Zm-0.175,-0.043l0.117,0.029l-0.018,-0.004l-0.099,-0.025Zm-0.175,-0.043l0.117,0.029l-0.018,-0.004l-0.099,-0.025Zm-0.173,-0.043l0.115,0.029l-0.017,-0.005l-0.098,-0.024Zm-0.172,-0.044l0.114,0.029l-0.018,-0.005l-0.096,-0.024Zm-0.171,-0.045l0.113,0.03l-0.018,-0.005l-0.095,-0.025Zm-0.17,-0.044l0.112,0.029l-0.018,-0.004l-0.094,-0.025Zm-0.168,-0.045l0.11,0.029l-0.018,-0.004l-0.092,-0.025Zm-0.168,-0.045l0.109,0.029l-0.017,-0.004l-0.092,-0.025Zm-0.166,-0.045l0.107,0.029l-0.017,-0.005l-0.09,-0.024Zm-0.166,-0.046l0.107,0.03l-0.017,-0.005l-0.09,-0.025Zm-0.164,-0.046l0.106,0.03l-0.017,-0.005l-0.089,-0.025Zm-0.163,-0.046l0.105,0.03l-0.017,-0.005l-0.088,-0.025Zm-0.161,-0.046l0.103,0.029l-0.017,-0.004l-0.086,-0.025Zm-0.161,-0.047l0.102,0.03l-0.017,-0.005l-0.085,-0.025Zm-0.159,-0.046l0.1,0.029l-0.016,-0.005l-0.084,-0.024Zm-0.158,-0.047l0.099,0.029l-0.017,-0.004l-0.082,-0.025Zm-0.157,-0.047l0.098,0.029l-0.017,-0.005l-0.081,-0.024Zm-0.156,-0.047l0.097,0.029l-0.016,-0.005l-0.081,-0.024Zm-0.154,-0.048l0.095,0.03l-0.016,-0.005l-0.079,-0.025Zm-0.154,-0.047l0.095,0.029l-0.016,-0.005l-0.079,-0.024Zm-0.152,-0.047l0.094,0.029l-0.016,-0.005l-0.078,-0.024Zm-0.15,-0.048l0.092,0.029l-0.016,-0.005l-0.076,-0.024Zm-0.15,-0.048l0.091,0.029l-0.016,-0.005l-0.075,-0.024Zm-0.148,-0.048l0.09,0.03l-0.016,-0.006l-0.074,-0.024Zm-0.147,-0.047l0.089,0.029l-0.016,-0.005l-0.073,-0.024Zm-0.146,-0.048l0.088,0.029l-0.016,-0.005l-0.072,-0.024Zm-0.144,-0.048l0.087,0.029l-0.016,-0.005l-0.071,-0.024Zm-0.143,-0.048l0.085,0.029l-0.015,-0.005l-0.07,-0.024Zm-0.142,-0.048l0.085,0.029l-0.016,-0.005l-0.069,-0.024Zm-0.14,-0.048l0.083,0.029l-0.015,-0.005l-0.068,-0.024Zm-0.139,-0.048l0.082,0.029l-0.015,-0.005l-0.067,-0.024Zm-0.138,-0.048l0.081,0.029l-0.015,-0.005l-0.066,-0.024Zm-0.137,-0.047l0.08,0.028l-0.014,-0.005l-0.066,-0.023Zm-0.135,-0.048l0.079,0.028l-0.014,-0.005l-0.065,-0.023Zm-0.133,-0.048l0.077,0.028l-0.014,-0.005l-0.063,-0.023Zm-0.133,-0.047l0.077,0.027l-0.014,-0.005l-0.063,-0.022Zm-0.131,-0.048l0.076,0.028l-0.014,-0.005l-0.062,-0.023Zm-0.129,-0.047l0.074,0.027l-0.014,-0.005l-0.06,-0.022Zm-0.128,-0.047l0.073,0.027l-0.014,-0.005l-0.059,-0.022Zm-0.127,-0.047l0.072,0.027l-0.014,-0.006l-0.058,-0.021Zm-0.126,-0.047l0.072,0.026l-0.014,-0.005l-0.058,-0.021Zm-0.124,-0.047l0.071,0.027l-0.014,-0.006l-0.057,-0.021Zm-0.122,-0.047l0.069,0.027l-0.013,-0.005l-0.056,-0.022Zm-0.121,-0.046l0.068,0.026l-0.013,-0.005l-0.055,-0.021Zm-0.12,-0.046l0.067,0.026l-0.013,-0.005l-0.054,-0.021Zm-0.118,-0.046l0.066,0.026l-0.013,-0.006l-0.053,-0.02Zm-0.117,-0.046l0.065,0.026l-0.013,-0.005l-0.052,-0.021Zm-0.115,-0.045l0.064,0.025l-0.013,-0.005l-0.051,-0.02Zm-0.114,-0.046l0.063,0.025l-0.013,-0.005l-0.05,-0.02Zm-0.112,-0.045l0.062,0.025l-0.013,-0.005l-0.049,-0.02Zm-0.111,-0.044l0.061,0.024l-0.013,-0.005l-0.048,-0.019Zm-0.109,-0.045l0.06,0.025l-0.013,-0.005l-0.047,-0.02Zm-0.108,-0.044l0.059,0.024l-0.012,-0.005l-0.047,-0.019Zm-0.107,-0.043l0.058,0.023l-0.012,-0.004l-0.046,-0.019Zm-0.104,-0.044l0.057,0.024l-0.012,-0.005l-0.045,-0.019Zm-0.104,-0.043l0.056,0.023l-0.011,-0.004l-0.045,-0.019Zm-0.101,-0.043l0.055,0.024l-0.012,-0.005l-0.043,-0.019Zm-0.101,-0.042l0.054,0.023l-0.011,-0.005l-0.043,-0.018Zm-0.098,-0.042l0.053,0.023l-0.011,-0.005l-0.042,-0.018Zm-0.097,-0.041l0.052,0.022l-0.011,-0.005l-0.041,-0.017Zm-0.096,-0.041l0.051,0.022l-0.011,-0.005l-0.04,-0.017Zm-0.094,-0.041l0.05,0.022l-0.01,-0.005l-0.04,-0.017Zm-0.092,-0.04l0.049,0.021l-0.01,-0.005l-0.039,-0.016Zm-0.091,-0.04l0.049,0.021l-0.011,-0.005l-0.038,-0.016Zm-0.089,-0.039l0.047,0.02l-0.01,-0.004l-0.037,-0.016Zm-0.087,-0.039l0.046,0.02l-0.01,-0.004l-0.036,-0.016Zm-0.086,-0.039l0.045,0.021l-0.01,-0.005l-0.035,-0.016Zm-0.084,-0.037l0.044,0.02l-0.01,-0.005l-0.034,-0.015Zm-0.083,-0.038l0.043,0.02l-0.009,-0.004l-0.034,-0.016Zm-0.081,-0.036l0.043,0.019l-0.01,-0.004l-0.033,-0.015Zm-0.079,-0.037l0.041,0.019l-0.009,-0.004l-0.032,-0.015Zm-0.078,-0.035l0.041,0.018l-0.009,-0.004l-0.032,-0.014Zm-0.076,-0.035l0.04,0.018l-0.009,-0.004l-0.031,-0.014Zm-0.074,-0.035l0.039,0.018l-0.009,-0.004l-0.03,-0.014Zm-0.073,-0.034l0.038,0.018l-0.009,-0.004l-0.029,-0.014Zm-0.105,-0.05l0.074,0.036l-0.011,-0.006l-0.063,-0.03Zm-0.135,-0.064l0.068,0.033l-0.008,-0.004l-0.06,-0.029Zm-0.128,-0.061l0.064,0.031l-0.008,-0.004l-0.056,-0.027Zm-0.122,-0.059l0.061,0.03l-0.007,-0.004l-0.054,-0.026Zm-0.114,-0.055l0.058,0.028l-0.007,-0.004l-0.051,-0.024Zm-0.107,-0.053l0.054,0.026l-0.006,-0.003l-0.048,-0.023Zm-0.099,-0.05l0.05,0.025l-0.006,-0.003l-0.044,-0.022Zm-0.093,-0.047l0.046,0.024l-0.005,-0.003l-0.041,-0.021Zm-0.085,-0.043l0.042,0.022l-0.005,-0.003l-0.037,-0.019Zm-0.078,-0.04l0.039,0.02l-0.005,-0.002l-0.034,-0.018Zm-0.071,-0.036l0.036,0.018l-0.005,-0.002l-0.031,-0.016Zm-0.063,-0.033l0.032,0.016l-0.004,-0.002l-0.028,-0.014Zm-0.055,-0.03l0.028,0.015l-0.004,-0.002l-0.024,-0.013Zm-0.048,-0.025l0.024,0.013l-0.003,-0.002l-0.021,-0.011Zm-0.04,-0.021l0.021,0.011l-0.003,-0.002l-0.018,-0.009Zm-0.047,-0.026l0.032,0.018l-0.003,-0.002l-0.029,-0.016Z" style="fill:#fff;stroke:#000004;stroke-width:1.5px;"/><path d="M303.719,387.718c4.095,-2.2 17.876,31.403 72.188,16.977l25.391,-20.326l7.839,1.803l0,25.263l0,0c0.424,15.615 -19.083,26.515 -19.083,26.515c0,0 -42.589,25.455 -86.678,0c-14.801,-8.545 -19.421,-17.131 -19.113,-24.72l0,-25.088l7.84,-0.803l11.616,0.379Z" style="fill:#fff;stroke:#000004;stroke-width:1.5px;"/><path id="_3" serif:id="3" d="M390.054,412.863c0,0 -42.266,25.641 -86.678,0c-43.036,-24.847 0,-50.044 0,-50.044c0,0 43.728,-24.798 86.678,0c42.951,24.798 0,50.044 0,50.044Zm-65.009,-12.511c21.864,-12.623 43.294,-0.027 43.34,0c-21.276,12.283 -43.293,0.026 -43.34,0Z" style="fill:#fff;stroke:#000004;stroke-width:1.5px;"/><path d="M325.062,400.361c-0.011,-0.006 -0.017,-0.009 -0.017,-0.009c0,0 -21.886,-12.386 0,-25.022c21.887,-12.636 43.34,0 43.34,0c0,0 21.297,12.726 0,25.022c-10.887,6.285 -21.968,6.145 -30.201,4.506c8.232,1.639 19.314,1.779 30.201,-4.506c-0.046,-0.027 -21.476,-12.623 -43.34,0l0.017,0.009Zm13.028,4.478l0.094,0.019l-0.026,-0.006l-0.068,-0.013Zm-0.093,-0.019l0.093,0.019l-0.026,-0.005l-0.067,-0.014Zm-0.094,-0.019l0.093,0.019l-0.026,-0.005l-0.067,-0.014Zm-0.093,-0.019l0.092,0.019l-0.026,-0.006l-0.066,-0.013Zm-0.093,-0.02l0.092,0.019l-0.026,-0.005l-0.066,-0.014Zm-0.092,-0.019l0.091,0.019l-0.026,-0.005l-0.065,-0.014Zm-0.093,-0.02l0.091,0.02l-0.026,-0.006l-0.065,-0.014Zm-0.092,-0.019l0.09,0.019l-0.026,-0.005l-0.064,-0.014Zm-0.092,-0.02l0.089,0.019l-0.025,-0.005l-0.064,-0.014Zm-0.092,-0.02l0.089,0.019l-0.025,-0.005l-0.064,-0.014Zm-0.091,-0.02l0.088,0.019l-0.025,-0.005l-0.063,-0.014Zm-0.091,-0.02l0.088,0.019l-0.026,-0.005l-0.062,-0.014Zm-0.136,-0.03l0.133,0.029l-0.026,-0.005l-0.107,-0.024Zm-0.181,-0.041l0.124,0.028l-0.018,-0.004l-0.106,-0.024Zm-0.179,-0.042l0.122,0.029l-0.018,-0.004l-0.104,-0.025Zm-0.179,-0.041l0.121,0.028l-0.018,-0.004l-0.103,-0.024Zm-0.177,-0.042l0.12,0.028l-0.018,-0.004l-0.102,-0.024Zm-0.177,-0.043l0.119,0.029l-0.018,-0.005l-0.101,-0.024Zm-0.175,-0.043l0.117,0.029l-0.018,-0.004l-0.099,-0.025Zm-0.175,-0.043l0.117,0.029l-0.018,-0.004l-0.099,-0.025Zm-0.173,-0.044l0.115,0.029l-0.017,-0.004l-0.098,-0.025Zm-0.172,-0.044l0.114,0.03l-0.018,-0.005l-0.096,-0.025Zm-0.171,-0.044l0.113,0.029l-0.018,-0.004l-0.095,-0.025Zm-0.17,-0.044l0.112,0.029l-0.018,-0.004l-0.094,-0.025Zm-0.168,-0.045l0.11,0.029l-0.018,-0.004l-0.092,-0.025Zm-0.168,-0.045l0.109,0.029l-0.017,-0.004l-0.092,-0.025Zm-0.166,-0.046l0.107,0.03l-0.017,-0.005l-0.09,-0.025Zm-0.166,-0.045l0.107,0.029l-0.017,-0.004l-0.09,-0.025Zm-0.164,-0.046l0.106,0.03l-0.017,-0.005l-0.089,-0.025Zm-0.163,-0.046l0.105,0.03l-0.017,-0.005l-0.088,-0.025Zm-0.161,-0.046l0.103,0.029l-0.017,-0.005l-0.086,-0.024Zm-0.161,-0.047l0.102,0.03l-0.017,-0.005l-0.085,-0.025Zm-0.159,-0.046l0.1,0.029l-0.016,-0.005l-0.084,-0.024Zm-0.158,-0.047l0.099,0.029l-0.017,-0.005l-0.082,-0.024Zm-0.157,-0.047l0.098,0.029l-0.017,-0.005l-0.081,-0.024Zm-0.156,-0.047l0.097,0.029l-0.016,-0.005l-0.081,-0.024Zm-0.154,-0.048l0.095,0.03l-0.016,-0.005l-0.079,-0.025Zm-0.154,-0.047l0.095,0.029l-0.016,-0.005l-0.079,-0.024Zm-0.152,-0.048l0.094,0.03l-0.016,-0.005l-0.078,-0.025Zm-0.15,-0.047l0.092,0.029l-0.016,-0.005l-0.076,-0.024Zm-0.15,-0.048l0.091,0.029l-0.016,-0.005l-0.075,-0.024Zm-0.148,-0.048l0.09,0.029l-0.016,-0.005l-0.074,-0.024Zm-0.147,-0.048l0.089,0.029l-0.016,-0.005l-0.073,-0.024Zm-0.146,-0.047l0.088,0.029l-0.016,-0.006l-0.072,-0.023Zm-0.144,-0.048l0.087,0.029l-0.016,-0.006l-0.071,-0.023Zm-0.143,-0.048l0.085,0.029l-0.015,-0.006l-0.07,-0.023Zm-0.142,-0.048l0.085,0.029l-0.016,-0.006l-0.069,-0.023Zm-0.14,-0.048l0.083,0.029l-0.015,-0.006l-0.068,-0.023Zm-0.139,-0.048l0.082,0.028l-0.015,-0.005l-0.067,-0.023Zm-0.138,-0.048l0.081,0.029l-0.015,-0.006l-0.066,-0.023Zm-0.137,-0.048l0.08,0.029l-0.014,-0.006l-0.066,-0.023Zm-0.135,-0.047l0.079,0.028l-0.014,-0.005l-0.065,-0.023Zm-0.133,-0.048l0.077,0.028l-0.014,-0.005l-0.063,-0.023Zm-0.133,-0.047l0.077,0.027l-0.014,-0.005l-0.063,-0.022Zm-0.131,-0.048l0.076,0.028l-0.014,-0.006l-0.062,-0.022Zm-0.129,-0.047l0.074,0.027l-0.014,-0.005l-0.06,-0.022Zm-0.128,-0.048l0.073,0.028l-0.014,-0.006l-0.059,-0.022Zm-0.127,-0.047l0.072,0.027l-0.014,-0.005l-0.058,-0.022Zm-0.126,-0.047l0.072,0.027l-0.014,-0.005l-0.058,-0.022Zm-0.124,-0.046l0.071,0.026l-0.014,-0.005l-0.057,-0.021Zm-0.122,-0.047l0.069,0.027l-0.013,-0.006l-0.056,-0.021Zm-0.121,-0.046l0.068,0.026l-0.013,-0.005l-0.055,-0.021Zm-0.12,-0.046l0.067,0.026l-0.013,-0.006l-0.054,-0.02Zm-0.118,-0.046l0.066,0.025l-0.013,-0.005l-0.053,-0.02Zm-0.117,-0.046l0.065,0.025l-0.013,-0.005l-0.052,-0.02Zm-0.115,-0.046l0.064,0.026l-0.013,-0.005l-0.051,-0.021Zm-0.114,-0.045l0.063,0.025l-0.013,-0.005l-0.05,-0.02Zm-0.112,-0.045l0.062,0.025l-0.013,-0.005l-0.049,-0.02Zm-0.111,-0.044l0.061,0.024l-0.013,-0.005l-0.048,-0.019Zm-0.109,-0.045l0.06,0.025l-0.013,-0.005l-0.047,-0.02Zm-0.108,-0.044l0.059,0.024l-0.012,-0.005l-0.047,-0.019Zm-0.107,-0.044l0.058,0.024l-0.012,-0.005l-0.046,-0.019Zm-0.104,-0.043l0.057,0.024l-0.012,-0.005l-0.045,-0.019Zm-0.104,-0.043l0.056,0.023l-0.011,-0.005l-0.045,-0.018Zm-0.101,-0.043l0.055,0.023l-0.012,-0.005l-0.043,-0.018Zm-0.101,-0.042l0.054,0.023l-0.011,-0.005l-0.043,-0.018Zm-0.098,-0.042l0.053,0.023l-0.011,-0.005l-0.042,-0.018Zm-0.097,-0.042l0.052,0.023l-0.011,-0.005l-0.041,-0.018Zm-0.096,-0.041l0.051,0.022l-0.011,-0.004l-0.04,-0.018Zm-0.094,-0.04l0.05,0.021l-0.01,-0.004l-0.04,-0.017Zm-0.092,-0.041l0.049,0.022l-0.01,-0.005l-0.039,-0.017Zm-0.091,-0.039l0.049,0.021l-0.011,-0.005l-0.038,-0.016Zm-0.089,-0.04l0.047,0.021l-0.01,-0.004l-0.037,-0.017Zm-0.087,-0.038l0.046,0.02l-0.01,-0.004l-0.036,-0.016Zm-0.086,-0.039l0.045,0.02l-0.01,-0.004l-0.035,-0.016Zm-0.084,-0.038l0.044,0.02l-0.01,-0.004l-0.034,-0.016Zm-0.083,-0.037l0.043,0.02l-0.009,-0.005l-0.034,-0.015Zm-0.081,-0.037l0.043,0.02l-0.01,-0.005l-0.033,-0.015Zm-0.079,-0.036l0.041,0.019l-0.009,-0.004l-0.032,-0.015Zm-0.078,-0.036l0.041,0.019l-0.009,-0.004l-0.032,-0.015Zm-0.076,-0.035l0.04,0.019l-0.009,-0.004l-0.031,-0.015Zm-0.074,-0.034l0.039,0.018l-0.009,-0.004l-0.03,-0.014Zm-0.073,-0.034l0.038,0.018l-0.009,-0.004l-0.029,-0.014Zm-0.105,-0.05l0.074,0.035l-0.011,-0.005l-0.063,-0.03Zm-0.135,-0.064l0.068,0.033l-0.008,-0.004l-0.06,-0.029Zm-0.128,-0.061l0.064,0.031l-0.008,-0.004l-0.056,-0.027Zm-0.122,-0.059l0.061,0.03l-0.007,-0.004l-0.054,-0.026Zm-0.114,-0.056l0.058,0.028l-0.007,-0.003l-0.051,-0.025Zm-0.107,-0.052l0.054,0.026l-0.006,-0.003l-0.048,-0.023Zm-0.099,-0.05l0.05,0.025l-0.006,-0.003l-0.044,-0.022Zm-0.093,-0.047l0.046,0.024l-0.005,-0.003l-0.041,-0.021Zm-0.085,-0.043l0.042,0.022l-0.005,-0.003l-0.037,-0.019Zm-0.078,-0.04l0.039,0.02l-0.005,-0.003l-0.034,-0.017Zm-0.071,-0.037l0.036,0.019l-0.005,-0.003l-0.031,-0.016Zm-0.063,-0.033l0.032,0.017l-0.004,-0.002l-0.028,-0.015Zm-0.055,-0.029l0.028,0.015l-0.004,-0.002l-0.024,-0.013Zm-0.048,-0.025l0.024,0.013l-0.003,-0.002l-0.021,-0.011Zm-0.04,-0.022l0.021,0.011l-0.003,-0.001l-0.018,-0.01Zm-0.047,-0.025l0.032,0.017l-0.003,-0.001l-0.029,-0.016Z" style="fill:#fff;stroke:#000004;stroke-width:1.5px;"/><path d="M303.607,293.623c4.095,-2.201 4.831,30.016 59.058,21.695l38.521,-25.044l7.915,1.923l0,25.263c0.408,15.059 -19.159,26.394 -19.159,26.394c0,0 -43.643,24.847 -86.678,0c-14.801,-8.545 -19.323,-17.115 -19.015,-24.703l0,-22.896l7.742,-3.011l11.616,0.379Z" style="fill:#fff;stroke:#000004;stroke-width:1.5px;"/><path id="_4" serif:id="4" d="M390.054,319.462c0,0 -42.323,25.608 -86.678,0c-43.036,-24.847 0,-50.044 0,-50.044c0,0 43.728,-24.798 86.678,0c42.951,24.797 0,50.044 0,50.044Zm-65.009,-12.198c21.864,-12.623 43.294,-0.027 43.34,0c-21.276,12.283 -43.293,0.026 -43.34,0Z" style="fill:#fff;stroke:#000004;stroke-width:1.5px;"/><path d="M325.062,307.482c-0.011,-0.007 -0.017,-0.01 -0.017,-0.01c0,0 -21.886,-12.385 0,-25.022c21.887,-12.636 43.34,0 43.34,0c0,0 21.297,12.726 0,25.022c-10.887,6.286 -21.968,6.145 -30.201,4.506c8.232,1.639 19.314,1.78 30.201,-4.506c-0.046,-0.026 -21.476,-12.622 -43.34,0l0.017,0.01Zm13.028,4.477l0.094,0.019l-0.026,-0.005l-0.068,-0.014Zm-0.093,-0.019l0.093,0.019l-0.026,-0.005l-0.067,-0.014Zm-0.094,-0.019l0.093,0.019l-0.026,-0.005l-0.067,-0.014Zm-0.093,-0.019l0.092,0.019l-0.026,-0.005l-0.066,-0.014Zm-0.093,-0.019l0.092,0.019l-0.026,-0.006l-0.066,-0.013Zm-0.092,-0.02l0.091,0.019l-0.026,-0.005l-0.065,-0.014Zm-0.093,-0.019l0.091,0.019l-0.026,-0.006l-0.065,-0.013Zm-0.092,-0.02l0.09,0.019l-0.026,-0.005l-0.064,-0.014Zm-0.092,-0.02l0.089,0.02l-0.025,-0.006l-0.064,-0.014Zm-0.092,-0.02l0.089,0.02l-0.025,-0.006l-0.064,-0.014Zm-0.091,-0.02l0.088,0.02l-0.025,-0.006l-0.063,-0.014Zm-0.091,-0.02l0.088,0.02l-0.026,-0.006l-0.062,-0.014Zm-0.136,-0.03l0.133,0.03l-0.026,-0.006l-0.107,-0.024Zm-0.181,-0.041l0.124,0.028l-0.018,-0.004l-0.106,-0.024Zm-0.179,-0.041l0.122,0.028l-0.018,-0.004l-0.104,-0.024Zm-0.179,-0.042l0.121,0.028l-0.018,-0.004l-0.103,-0.024Zm-0.177,-0.042l0.12,0.028l-0.018,-0.004l-0.102,-0.024Zm-0.177,-0.043l0.119,0.029l-0.018,-0.004l-0.101,-0.025Zm-0.175,-0.043l0.117,0.029l-0.018,-0.004l-0.099,-0.025Zm-0.175,-0.043l0.117,0.029l-0.018,-0.004l-0.099,-0.025Zm-0.173,-0.043l0.115,0.029l-0.017,-0.005l-0.098,-0.024Zm-0.172,-0.044l0.114,0.029l-0.018,-0.005l-0.096,-0.024Zm-0.171,-0.044l0.113,0.029l-0.018,-0.005l-0.095,-0.024Zm-0.17,-0.045l0.112,0.029l-0.018,-0.004l-0.094,-0.025Zm-0.168,-0.045l0.11,0.03l-0.018,-0.005l-0.092,-0.025Zm-0.168,-0.045l0.109,0.03l-0.017,-0.005l-0.092,-0.025Zm-0.166,-0.045l0.107,0.029l-0.017,-0.004l-0.09,-0.025Zm-0.166,-0.046l0.107,0.03l-0.017,-0.005l-0.09,-0.025Zm-0.164,-0.046l0.106,0.03l-0.017,-0.005l-0.089,-0.025Zm-0.163,-0.046l0.105,0.03l-0.017,-0.005l-0.088,-0.025Zm-0.161,-0.046l0.103,0.03l-0.017,-0.005l-0.086,-0.025Zm-0.161,-0.046l0.102,0.029l-0.017,-0.005l-0.085,-0.024Zm-0.159,-0.047l0.1,0.029l-0.016,-0.004l-0.084,-0.025Zm-0.158,-0.047l0.099,0.03l-0.017,-0.005l-0.082,-0.025Zm-0.157,-0.047l0.098,0.03l-0.017,-0.005l-0.081,-0.025Zm-0.156,-0.047l0.097,0.029l-0.016,-0.005l-0.081,-0.024Zm-0.154,-0.047l0.095,0.029l-0.016,-0.005l-0.079,-0.024Zm-0.154,-0.048l0.095,0.03l-0.016,-0.005l-0.079,-0.025Zm-0.152,-0.047l0.094,0.029l-0.016,-0.005l-0.078,-0.024Zm-0.15,-0.048l0.092,0.029l-0.016,-0.005l-0.076,-0.024Zm-0.15,-0.048l0.091,0.03l-0.016,-0.006l-0.075,-0.024Zm-0.148,-0.047l0.09,0.029l-0.016,-0.005l-0.074,-0.024Zm-0.147,-0.048l0.089,0.029l-0.016,-0.005l-0.073,-0.024Zm-0.146,-0.048l0.088,0.029l-0.016,-0.005l-0.072,-0.024Zm-0.144,-0.048l0.087,0.029l-0.016,-0.005l-0.071,-0.024Zm-0.143,-0.048l0.085,0.029l-0.015,-0.005l-0.07,-0.024Zm-0.142,-0.048l0.085,0.029l-0.016,-0.005l-0.069,-0.024Zm-0.14,-0.048l0.083,0.029l-0.015,-0.005l-0.068,-0.024Zm-0.139,-0.048l0.082,0.029l-0.015,-0.005l-0.067,-0.024Zm-0.138,-0.047l0.081,0.028l-0.015,-0.005l-0.066,-0.023Zm-0.137,-0.048l0.08,0.028l-0.014,-0.005l-0.066,-0.023Zm-0.135,-0.048l0.079,0.028l-0.014,-0.005l-0.065,-0.023Zm-0.133,-0.048l0.077,0.028l-0.014,-0.005l-0.063,-0.023Zm-0.133,-0.047l0.077,0.028l-0.014,-0.006l-0.063,-0.022Zm-0.131,-0.048l0.076,0.028l-0.014,-0.005l-0.062,-0.023Zm-0.129,-0.047l0.074,0.027l-0.014,-0.005l-0.06,-0.022Zm-0.128,-0.047l0.073,0.027l-0.014,-0.005l-0.059,-0.022Zm-0.127,-0.047l0.072,0.027l-0.014,-0.005l-0.058,-0.022Zm-0.126,-0.047l0.072,0.027l-0.014,-0.006l-0.058,-0.021Zm-0.124,-0.047l0.071,0.027l-0.014,-0.006l-0.057,-0.021Zm-0.122,-0.047l0.069,0.027l-0.013,-0.005l-0.056,-0.022Zm-0.121,-0.046l0.068,0.026l-0.013,-0.005l-0.055,-0.021Zm-0.12,-0.046l0.067,0.026l-0.013,-0.005l-0.054,-0.021Zm-0.118,-0.046l0.066,0.026l-0.013,-0.005l-0.053,-0.021Zm-0.117,-0.046l0.065,0.026l-0.013,-0.005l-0.052,-0.021Zm-0.115,-0.045l0.064,0.025l-0.013,-0.005l-0.051,-0.02Zm-0.114,-0.046l0.063,0.026l-0.013,-0.005l-0.05,-0.021Zm-0.112,-0.044l0.062,0.024l-0.013,-0.005l-0.049,-0.019Zm-0.111,-0.045l0.061,0.024l-0.013,-0.005l-0.048,-0.019Zm-0.109,-0.045l0.06,0.025l-0.013,-0.005l-0.047,-0.02Zm-0.108,-0.044l0.059,0.025l-0.012,-0.005l-0.047,-0.02Zm-0.107,-0.043l0.058,0.024l-0.012,-0.005l-0.046,-0.019Zm-0.104,-0.044l0.057,0.024l-0.012,-0.005l-0.045,-0.019Zm-0.104,-0.043l0.056,0.024l-0.011,-0.005l-0.045,-0.019Zm-0.101,-0.042l0.055,0.023l-0.012,-0.005l-0.043,-0.018Zm-0.101,-0.043l0.054,0.023l-0.011,-0.005l-0.043,-0.018Zm-0.098,-0.042l0.053,0.023l-0.011,-0.005l-0.042,-0.018Zm-0.097,-0.041l0.052,0.022l-0.011,-0.005l-0.041,-0.017Zm-0.096,-0.041l0.051,0.022l-0.011,-0.005l-0.04,-0.017Zm-0.094,-0.041l0.05,0.022l-0.01,-0.005l-0.04,-0.017Zm-0.092,-0.04l0.049,0.021l-0.01,-0.004l-0.039,-0.017Zm-0.091,-0.04l0.049,0.021l-0.011,-0.004l-0.038,-0.017Zm-0.089,-0.039l0.047,0.021l-0.01,-0.005l-0.037,-0.016Zm-0.087,-0.039l0.046,0.02l-0.01,-0.004l-0.036,-0.016Zm-0.086,-0.038l0.045,0.02l-0.01,-0.005l-0.035,-0.015Zm-0.084,-0.038l0.044,0.02l-0.01,-0.005l-0.034,-0.015Zm-0.083,-0.038l0.043,0.02l-0.009,-0.004l-0.034,-0.016Zm-0.081,-0.036l0.043,0.019l-0.01,-0.004l-0.033,-0.015Zm-0.079,-0.037l0.041,0.019l-0.009,-0.004l-0.032,-0.015Zm-0.078,-0.035l0.041,0.018l-0.009,-0.004l-0.032,-0.014Zm-0.076,-0.035l0.04,0.018l-0.009,-0.004l-0.031,-0.014Zm-0.074,-0.035l0.039,0.018l-0.009,-0.004l-0.03,-0.014Zm-0.073,-0.034l0.038,0.018l-0.009,-0.004l-0.029,-0.014Zm-0.105,-0.049l0.074,0.035l-0.011,-0.006l-0.063,-0.029Zm-0.135,-0.064l0.068,0.032l-0.008,-0.004l-0.06,-0.028Zm-0.128,-0.062l0.064,0.031l-0.008,-0.004l-0.056,-0.027Zm-0.122,-0.059l0.061,0.03l-0.007,-0.003l-0.054,-0.027Zm-0.114,-0.055l0.058,0.028l-0.007,-0.004l-0.051,-0.024Zm-0.107,-0.053l0.054,0.026l-0.006,-0.003l-0.048,-0.023Zm-0.099,-0.05l0.05,0.025l-0.006,-0.003l-0.044,-0.022Zm-0.093,-0.047l0.046,0.024l-0.005,-0.003l-0.041,-0.021Zm-0.085,-0.043l0.042,0.022l-0.005,-0.003l-0.037,-0.019Zm-0.078,-0.04l0.039,0.02l-0.005,-0.002l-0.034,-0.018Zm-0.071,-0.036l0.036,0.018l-0.005,-0.002l-0.031,-0.016Zm-0.063,-0.033l0.032,0.016l-0.004,-0.002l-0.028,-0.014Zm-0.055,-0.029l0.028,0.014l-0.004,-0.001l-0.024,-0.013Zm-0.048,-0.026l0.024,0.013l-0.003,-0.002l-0.021,-0.011Zm-0.04,-0.021l0.021,0.011l-0.003,-0.002l-0.018,-0.009Zm-0.047,-0.026l0.032,0.018l-0.003,-0.002l-0.029,-0.016Z" style="fill:#fff;stroke:#000004;stroke-width:1.5px;"/><path d="M235.478,357.976c0,19.097 -18.75,29.847 -18.75,29.847l-0.031,0.018c0,0 -21.67,12.241 -21.67,37.533c0,10.876 4.007,14.712 8.575,15.551c11.507,-10.485 33.927,-23.82 63.177,-6.933c43.39,25.051 22.392,37.086 0.748,24.59c-21.627,-12.486 -50.784,4.298 -50.83,4.325c0,0 -43.339,25.193 -43.339,-25.022c0,-43.71 32.837,-68.201 41.345,-73.814l20.775,-27.523l0,21.428l0,0Z" style="fill:url(#_Linear4);"/><path d="M216.697,437.885c-21.692,12.524 -21.67,-8.857 -21.67,-12.511c0,0 43.289,-25.051 86.679,0c23.051,13.308 21.61,26.6 15.195,36.137c-5.661,8.415 -12.652,16.688 -12.652,16.688l-24.213,9.73l0,-25.022c0,0 21.644,-12.526 0,-25.022c-21.644,-12.496 -43.339,0 -43.339,0l0,0Z" style="fill:url(#_Linear5);"/><path d="M216.697,361.43l0,-123.721l21.67,-12.511l0,300.264l-21.67,-12.511l0,-125.11l0.031,-0.018c0,0 18.75,-10.75 18.75,-29.847l0,0l0,-21.428l-18.781,24.882Z" style="fill:url(#_Linear6);"/><path d="M97.871,341.415c-6.399,-3.719 -11.192,-12.044 -11.192,-28.64c0,-49.902 43.339,-75.066 43.339,-75.066l216.697,-125.11l108.348,62.555l-21.669,12.511l-65.009,-33.56l-21.67,-16.484l-16.37,12.463l-178.657,100.136l-27.902,46.446l6.232,41.131c0,0 -5.278,3.03 -12.151,4.855l1.54,6.114l0.083,5.131l-21.533,-12.432c-0.026,-0.015 -0.052,-0.03 -0.078,-0.045l-0.009,-0.005l0.001,0Z" style="fill:url(#_Linear7);"/><path d="M314.343,531.641c11.977,4.584 23.066,5.99 33.593,5.627l-109.569,63.26l0,-25.022l60.58,-38.389l15.396,-5.476Zm-75.976,-6.232l0,-300.211l-86.679,50.044c0,0 -21.67,12.241 -21.67,37.533c0,10.876 4.007,14.712 8.575,15.551c11.507,-10.485 33.927,-23.82 63.177,-6.933c43.39,25.051 22.392,37.086 0.748,24.59c-21.627,-12.486 -50.784,4.298 -50.83,4.325c0,0 -43.34,25.193 -43.34,-25.022c0,-50.215 43.34,-75.066 43.34,-75.066l195.027,-112.599l3.392,12.838l-3.392,13.691l-17.88,8.816l-68.799,39.721l0,275.242l21.67,-12.511c0,0 18.812,-10.836 19.275,-25.39l-0.056,23.975l0,0c0.281,10.29 -8.794,18.861 -14.571,23.257c-1.422,1.082 -8.911,5.53 -15.539,9.415l-32.448,18.734Zm62.617,-76.392l0,-0.002l0,0l0,0.002Z" style="fill:url(#_Linear8);"/><path d="M238.367,225.198l21.669,-12.511l0,275.242l-21.669,12.511l0,-275.242Z" style="fill:url(#_Linear9);"/><path d="M195.027,350.308c0,0 21.644,-12.526 0,-25.022c-21.644,-12.496 -43.339,0 -43.339,0c-21.692,12.524 -21.67,-8.857 -21.67,-12.511c0,0 43.289,-25.051 86.679,0c37.775,21.81 8.265,44.524 -0.005,50.037l0.005,0.007l-0.279,0.175c-0.788,0.519 -1.347,0.859 -1.586,1.001l-0.129,0.076c-8.508,5.613 -41.345,30.104 -41.345,73.814c0,15.235 3.989,23.529 9.547,27.691l-19.939,-11.512c-0.026,-0.015 -0.052,-0.03 -0.078,-0.045l-0.008,-0.005l0,0c-6.399,-3.719 -11.192,-12.044 -11.192,-28.64c0,-49.863 43.27,-75.026 43.339,-75.066Z" style="fill:url(#_Linear10);"/><path d="M303.719,200.053c4.095,-2.2 7.948,20.703 59.072,28.375l38.507,-31.724l7.839,1.803l0,25.263l0,0c0.409,15.058 -19.083,26.515 -19.083,26.515c0,0 -43.643,24.847 -86.678,0c-14.801,-8.545 -19.421,-17.131 -19.113,-24.72l0,-25.088l7.84,-0.803l11.616,0.379Z" style="fill:#fff;stroke:#000004;stroke-width:1.5px;"/><path d="M361.923,354.039l-19.431,15.402l-28.282,12.144c0,0 -4.31,2.486 -10.213,4.32l3.616,4.383l-3.674,7.592l-21.672,-12.513c-0.105,-0.059 -0.209,-0.119 -0.312,-0.18l-0.009,-0.005l0,0c-6.34,-3.753 -11.075,-12.089 -11.075,-28.619c0,-50.007 43.339,-75.066 43.339,-75.066l32.505,-18.766c0,0 21.639,-12.493 43.339,-25.022c21.701,-12.529 21.67,-37.533 21.67,-37.533l-54.174,-31.278l-10.835,-4.748l0,-26.529l86.679,50.044l6.127,53.582l-47.233,27.737l-32.108,20.584l-29.313,19.846c0,0 -30.445,17.787 -30.445,42.599c0,24.813 13.788,4.55 13.788,4.55l7.225,-4.154c14.772,4.285 28.975,3.714 40.488,1.63Z" style="fill:url(#_Linear11);"/><path id="_5" serif:id="5" d="M390.054,225.198c0,0 -41.218,26.247 -86.678,0c-43.036,-24.847 0,-50.044 0,-50.044c0,0 43.728,-24.798 86.678,0c42.951,24.798 0,50.044 0,50.044Zm-65.009,-12.511c21.864,-12.623 43.294,-0.027 43.34,0c-21.276,12.283 -43.293,0.026 -43.34,0Z" style="fill:#fff;stroke:#000004;stroke-width:1.5px;"/><path d="M325.062,212.696c-0.011,-0.006 -0.017,-0.009 -0.017,-0.009c0,0 -21.886,-12.386 0,-25.022c21.887,-12.636 43.34,0 43.34,0c0,0 21.297,12.726 0,25.022c-10.887,6.285 -21.968,6.145 -30.201,4.506c8.232,1.639 19.314,1.779 30.201,-4.506c-0.046,-0.027 -21.476,-12.623 -43.34,0l0.017,0.009Zm13.028,4.478l0.094,0.019l-0.026,-0.006l-0.068,-0.013Zm-0.093,-0.019l0.093,0.019l-0.026,-0.005l-0.067,-0.014Zm-0.094,-0.019l0.093,0.019l-0.026,-0.005l-0.067,-0.014Zm-0.093,-0.019l0.092,0.019l-0.026,-0.006l-0.066,-0.013Zm-0.093,-0.02l0.092,0.019l-0.026,-0.005l-0.066,-0.014Zm-0.092,-0.019l0.091,0.019l-0.026,-0.005l-0.065,-0.014Zm-0.093,-0.02l0.091,0.02l-0.026,-0.006l-0.065,-0.014Zm-0.092,-0.019l0.09,0.019l-0.026,-0.005l-0.064,-0.014Zm-0.092,-0.02l0.089,0.019l-0.025,-0.005l-0.064,-0.014Zm-0.092,-0.02l0.089,0.019l-0.025,-0.005l-0.064,-0.014Zm-0.091,-0.02l0.088,0.019l-0.025,-0.005l-0.063,-0.014Zm-0.091,-0.02l0.088,0.019l-0.026,-0.005l-0.062,-0.014Zm-0.136,-0.03l0.133,0.029l-0.026,-0.005l-0.107,-0.024Zm-0.181,-0.041l0.124,0.028l-0.018,-0.004l-0.106,-0.024Zm-0.179,-0.042l0.122,0.029l-0.018,-0.004l-0.104,-0.025Zm-0.179,-0.041l0.121,0.028l-0.018,-0.004l-0.103,-0.024Zm-0.177,-0.042l0.12,0.028l-0.018,-0.004l-0.102,-0.024Zm-0.177,-0.043l0.119,0.029l-0.018,-0.005l-0.101,-0.024Zm-0.175,-0.043l0.117,0.029l-0.018,-0.004l-0.099,-0.025Zm-0.175,-0.043l0.117,0.029l-0.018,-0.004l-0.099,-0.025Zm-0.173,-0.044l0.115,0.029l-0.017,-0.004l-0.098,-0.025Zm-0.172,-0.044l0.114,0.03l-0.018,-0.005l-0.096,-0.025Zm-0.171,-0.044l0.113,0.029l-0.018,-0.004l-0.095,-0.025Zm-0.17,-0.044l0.112,0.029l-0.018,-0.004l-0.094,-0.025Zm-0.168,-0.045l0.11,0.029l-0.018,-0.004l-0.092,-0.025Zm-0.168,-0.045l0.109,0.029l-0.017,-0.004l-0.092,-0.025Zm-0.166,-0.046l0.107,0.03l-0.017,-0.005l-0.09,-0.025Zm-0.166,-0.045l0.107,0.029l-0.017,-0.004l-0.09,-0.025Zm-0.164,-0.046l0.106,0.03l-0.017,-0.005l-0.089,-0.025Zm-0.163,-0.046l0.105,0.03l-0.017,-0.005l-0.088,-0.025Zm-0.161,-0.046l0.103,0.029l-0.017,-0.005l-0.086,-0.024Zm-0.161,-0.047l0.102,0.03l-0.017,-0.005l-0.085,-0.025Zm-0.159,-0.046l0.1,0.029l-0.016,-0.005l-0.084,-0.024Zm-0.158,-0.047l0.099,0.029l-0.017,-0.005l-0.082,-0.024Zm-0.157,-0.047l0.098,0.029l-0.017,-0.005l-0.081,-0.024Zm-0.156,-0.047l0.097,0.029l-0.016,-0.005l-0.081,-0.024Zm-0.154,-0.048l0.095,0.03l-0.016,-0.005l-0.079,-0.025Zm-0.154,-0.047l0.095,0.029l-0.016,-0.005l-0.079,-0.024Zm-0.152,-0.048l0.094,0.03l-0.016,-0.005l-0.078,-0.025Zm-0.15,-0.047l0.092,0.029l-0.016,-0.005l-0.076,-0.024Zm-0.15,-0.048l0.091,0.029l-0.016,-0.005l-0.075,-0.024Zm-0.148,-0.048l0.09,0.029l-0.016,-0.005l-0.074,-0.024Zm-0.147,-0.048l0.089,0.029l-0.016,-0.005l-0.073,-0.024Zm-0.146,-0.047l0.088,0.029l-0.016,-0.006l-0.072,-0.023Zm-0.144,-0.048l0.087,0.029l-0.016,-0.006l-0.071,-0.023Zm-0.143,-0.048l0.085,0.029l-0.015,-0.006l-0.07,-0.023Zm-0.142,-0.048l0.085,0.029l-0.016,-0.006l-0.069,-0.023Zm-0.14,-0.048l0.083,0.029l-0.015,-0.006l-0.068,-0.023Zm-0.139,-0.048l0.082,0.028l-0.015,-0.005l-0.067,-0.023Zm-0.138,-0.048l0.081,0.029l-0.015,-0.006l-0.066,-0.023Zm-0.137,-0.048l0.08,0.029l-0.014,-0.006l-0.066,-0.023Zm-0.135,-0.047l0.079,0.028l-0.014,-0.005l-0.065,-0.023Zm-0.133,-0.048l0.077,0.028l-0.014,-0.005l-0.063,-0.023Zm-0.133,-0.047l0.077,0.027l-0.014,-0.005l-0.063,-0.022Zm-0.131,-0.048l0.076,0.028l-0.014,-0.006l-0.062,-0.022Zm-0.129,-0.047l0.074,0.027l-0.014,-0.005l-0.06,-0.022Zm-0.128,-0.048l0.073,0.028l-0.014,-0.006l-0.059,-0.022Zm-0.127,-0.047l0.072,0.027l-0.014,-0.005l-0.058,-0.022Zm-0.126,-0.047l0.072,0.027l-0.014,-0.005l-0.058,-0.022Zm-0.124,-0.046l0.071,0.026l-0.014,-0.005l-0.057,-0.021Zm-0.122,-0.047l0.069,0.027l-0.013,-0.006l-0.056,-0.021Zm-0.121,-0.046l0.068,0.026l-0.013,-0.005l-0.055,-0.021Zm-0.12,-0.046l0.067,0.026l-0.013,-0.006l-0.054,-0.02Zm-0.118,-0.046l0.066,0.025l-0.013,-0.005l-0.053,-0.02Zm-0.117,-0.046l0.065,0.025l-0.013,-0.005l-0.052,-0.02Zm-0.115,-0.046l0.064,0.026l-0.013,-0.005l-0.051,-0.021Zm-0.114,-0.045l0.063,0.025l-0.013,-0.005l-0.05,-0.02Zm-0.112,-0.045l0.062,0.025l-0.013,-0.005l-0.049,-0.02Zm-0.111,-0.044l0.061,0.024l-0.013,-0.005l-0.048,-0.019Zm-0.109,-0.045l0.06,0.025l-0.013,-0.005l-0.047,-0.02Zm-0.108,-0.044l0.059,0.024l-0.012,-0.005l-0.047,-0.019Zm-0.107,-0.044l0.058,0.024l-0.012,-0.005l-0.046,-0.019Zm-0.104,-0.043l0.057,0.024l-0.012,-0.005l-0.045,-0.019Zm-0.104,-0.043l0.056,0.023l-0.011,-0.005l-0.045,-0.018Zm-0.101,-0.043l0.055,0.023l-0.012,-0.005l-0.043,-0.018Zm-0.101,-0.042l0.054,0.023l-0.011,-0.005l-0.043,-0.018Zm-0.098,-0.042l0.053,0.023l-0.011,-0.005l-0.042,-0.018Zm-0.097,-0.042l0.052,0.023l-0.011,-0.005l-0.041,-0.018Zm-0.096,-0.041l0.051,0.022l-0.011,-0.004l-0.04,-0.018Zm-0.094,-0.04l0.05,0.021l-0.01,-0.004l-0.04,-0.017Zm-0.092,-0.041l0.049,0.022l-0.01,-0.005l-0.039,-0.017Zm-0.091,-0.039l0.049,0.021l-0.011,-0.005l-0.038,-0.016Zm-0.089,-0.04l0.047,0.021l-0.01,-0.004l-0.037,-0.017Zm-0.087,-0.038l0.046,0.02l-0.01,-0.004l-0.036,-0.016Zm-0.086,-0.039l0.045,0.02l-0.01,-0.004l-0.035,-0.016Zm-0.084,-0.038l0.044,0.02l-0.01,-0.004l-0.034,-0.016Zm-0.083,-0.037l0.043,0.02l-0.009,-0.005l-0.034,-0.015Zm-0.081,-0.037l0.043,0.02l-0.01,-0.005l-0.033,-0.015Zm-0.079,-0.036l0.041,0.019l-0.009,-0.004l-0.032,-0.015Zm-0.078,-0.036l0.041,0.019l-0.009,-0.004l-0.032,-0.015Zm-0.076,-0.035l0.04,0.019l-0.009,-0.004l-0.031,-0.015Zm-0.074,-0.034l0.039,0.018l-0.009,-0.004l-0.03,-0.014Zm-0.073,-0.034l0.038,0.018l-0.009,-0.004l-0.029,-0.014Zm-0.105,-0.05l0.074,0.035l-0.011,-0.005l-0.063,-0.03Zm-0.135,-0.064l0.068,0.033l-0.008,-0.004l-0.06,-0.029Zm-0.128,-0.061l0.064,0.031l-0.008,-0.004l-0.056,-0.027Zm-0.122,-0.059l0.061,0.03l-0.007,-0.004l-0.054,-0.026Zm-0.114,-0.056l0.058,0.028l-0.007,-0.003l-0.051,-0.025Zm-0.107,-0.052l0.054,0.026l-0.006,-0.003l-0.048,-0.023Zm-0.099,-0.05l0.05,0.025l-0.006,-0.003l-0.044,-0.022Zm-0.093,-0.047l0.046,0.024l-0.005,-0.003l-0.041,-0.021Zm-0.085,-0.043l0.042,0.022l-0.005,-0.003l-0.037,-0.019Zm-0.078,-0.04l0.039,0.02l-0.005,-0.003l-0.034,-0.017Zm-0.071,-0.037l0.036,0.019l-0.005,-0.003l-0.031,-0.016Zm-0.063,-0.033l0.032,0.017l-0.004,-0.002l-0.028,-0.015Zm-0.055,-0.029l0.028,0.015l-0.004,-0.002l-0.024,-0.013Zm-0.048,-0.025l0.024,0.013l-0.003,-0.002l-0.021,-0.011Zm-0.04,-0.022l0.021,0.011l-0.003,-0.001l-0.018,-0.01Zm-0.047,-0.025l0.032,0.017l-0.003,-0.001l-0.029,-0.016Z" style="fill:#fff;stroke:#000004;stroke-width:1.5px;"/><path d="M474.307,373.929l0,40.335l-40.913,23.621l0,-25.022l6.089,-13.404l34.824,-25.53Z" style="fill:url(#_Linear12);"/><path d="M498.403,500.44l21.67,-12.511l0,-50.044l3.304,-15.574l-3.304,-9.448l0,-175.154l-21.67,-12.511l0,275.242Z" style="fill:url(#_Linear13);"/><path d="M433.394,437.885l-7.585,8.132l-14.085,4.379l0,-25.022c0,-24.658 21.67,-37.533 21.67,-37.533c0,0 21.723,-12.48 0,-25.022c-21.723,-12.542 -43.34,0 -43.34,0l0,0l-54.174,31.277c0,0 -43.339,24.986 -43.339,-25.022c0,-50.007 43.339,-75.066 43.339,-75.066l32.505,-18.766c0,0 21.638,-12.493 43.339,-25.022c21.701,-12.529 21.67,-37.533 21.67,-37.533l0,-25.022l21.669,-12.511l0,25.022c0,49.885 -43.339,75.066 -43.339,75.066l-43.339,25.022l-32.505,18.766c0,0 -21.67,12.721 -21.67,37.533c0,24.813 21.67,12.511 21.67,12.511l26.043,-15.035l0.001,0c1.933,-0.35 1.828,-0.349 1.828,-0.349c15.792,-3.157 26.302,-9.141 26.302,-9.141c0,0 3.238,-1.809 6.52,-4.484c32.468,-5.486 58.489,10.243 58.489,10.243c43.312,25.006 0,50.044 0,50.044c-21.774,12.572 -21.669,37.533 -21.669,37.533Z" style="fill:url(#_Linear14);"/><path d="M563.422,287.759l-65.019,-37.539l0,250.22l-65.009,-37.533l43.339,0l0,-250.22l21.67,12.511l0,0l86.679,50.044l0.029,0.017l32.475,18.749l3.428,9.895l0.345,0.438c1.543,1.975 2.222,4.411 2.255,7.069l4.807,13.876l-6.988,-4.034c-5.263,12.729 -18.333,24.33 -19.829,13.573c-3.747,-26.943 -37.515,-46.679 -38.182,-47.066Z" style="fill:url(#_Linear15);"/><path d="M409.793,476.533l66.94,-38.648l0,25.022l-66.959,38.659c0.145,-0.991 0.047,-1.907 0.019,-2.933l0,0l0,-22.1Z" style="fill:url(#_Linear16);"/><path d="M292.85,519.028c2.611,2.287 5.705,4.68 9.691,6.981c3.94,2.275 7.885,4.133 11.802,5.632l-75.976,43.865l-21.67,-12.511l76.153,-43.967Zm107.685,-62.172l76.198,-43.993l0,25.022l-66.94,38.648l0,-2.059c0.008,-0.302 0.008,-0.606 0,-0.91l0,-0.194l-0.006,-0.001c-0.193,-5.184 -2.726,-10.805 -9.252,-16.513Z" style="fill:url(#_Linear17);"/><path d="M216.697,588.017l21.67,12.511l0,-25.022l-21.67,-12.511l0,25.022Z" style="fill:url(#_Linear18);"/><path d="M633.503,335.984c-0.295,35.982 -46.072,63.004 -48.334,64.318l0,0l-0.006,0.003c-0.054,0.031 -0.081,0.047 -0.081,0.047l-65.009,37.533l0,-28.351l42.145,-25.674c86.62,-50.01 48.811,-73.396 48.673,-73.475l-19.528,-38.77c20.41,11.784 26.892,27.17 34.157,38.501l7.983,0.148l0,25.026c0.002,0.23 0.002,0.46 0,0.689l0,0.005l0,0Z" style="fill:url(#_Linear19);"/><path d="M563.412,262.731l-86.679,-50.044l21.67,-12.511l86.679,50.044c107.162,61.871 3.52,123.066 0.087,125.06l0,0l-0.006,0.003c-0.054,0.031 -0.081,0.047 -0.081,0.047l-65.009,37.533l0,-25.022l43.339,-25.022c86.62,-50.011 0.137,-100.009 0,-100.088Z" style="fill:url(#_Linear20);"/><path d="M216.697,100.088l0,87.577l21.67,-12.511l0,-62.555l-21.67,-12.511Z" style="fill:url(#_Linear21);"/><path d="M270.871,68.81c0.068,-0.038 75.723,-43.516 151.244,-0.255l0.444,0.255l54.174,31.278l-21.67,12.511l-54.174,-31.278c0,0 -54.696,-30.976 -108.348,0l-54.174,31.278l-21.67,-12.511l54.174,-31.278Z" style="fill:url(#_Linear22);"/><path d="M455.063,137.621l21.67,-12.511l0,-25.022l-21.67,12.511l0,25.022Z" style="fill:url(#_Linear23);"/><defs><linearGradient id="_Linear1" x1="0" y1="0" x2="1" y2="0" gradientUnits="userSpaceOnUse" gradientTransform="matrix(254.665,-91.6771,91.6771,254.665,238.367,151.355)"><stop offset="0" style="stop-color:#009786;stop-opacity:1"/><stop offset="1" style="stop-color:#53b9e4;stop-opacity:1"/></linearGradient><linearGradient id="_Linear2" x1="0" y1="0" x2="1" y2="0" gradientUnits="userSpaceOnUse" gradientTransform="matrix(-60.3956,3.20469,-3.20469,-60.3956,446.873,361.679)"><stop offset="0" style="stop-color:#009786;stop-opacity:1"/><stop offset="1" style="stop-color:#08b3e7;stop-opacity:1"/></linearGradient><linearGradient id="_Linear3" x1="0" y1="0" x2="1" y2="0" gradientUnits="userSpaceOnUse" gradientTransform="matrix(-49.6317,25.521,-25.521,-49.6317,374.3,483.529)"><stop offset="0" style="stop-color:#2db99e;stop-opacity:1"/><stop offset="1" style="stop-color:#9bce64;stop-opacity:1"/></linearGradient><linearGradient id="_Linear4" x1="0" y1="0" x2="1" y2="0" gradientUnits="userSpaceOnUse" gradientTransform="matrix(-84.5906,112.757,-112.757,-84.5906,260.036,341.374)"><stop offset="0" style="stop-color:#53b8af;stop-opacity:1"/><stop offset="1" style="stop-color:#009786;stop-opacity:1"/></linearGradient><linearGradient id="_Linear5" x1="0" y1="0" x2="1" y2="0" gradientUnits="userSpaceOnUse" gradientTransform="matrix(-40.8489,76.4496,-76.4496,-40.8489,279.215,423.99)"><stop offset="0" style="stop-color:#99cf65;stop-opacity:1"/><stop offset="1" style="stop-color:#009786;stop-opacity:1"/></linearGradient><linearGradient id="_Linear6" x1="0" y1="0" x2="1" y2="0" gradientUnits="userSpaceOnUse" gradientTransform="matrix(179.122,-440.384,440.384,179.122,102.851,527.807)"><stop offset="0" style="stop-color:#53b9e4;stop-opacity:1"/><stop offset="1" style="stop-color:#2fb995;stop-opacity:1"/></linearGradient><linearGradient id="_Linear7" x1="0" y1="0" x2="1" y2="0" gradientUnits="userSpaceOnUse" gradientTransform="matrix(308.485,-195.826,195.826,308.485,59.9001,320.936)"><stop offset="0" style="stop-color:#53b9e4;stop-opacity:1"/><stop offset="0.52" style="stop-color:#2fb995;stop-opacity:1"/><stop offset="1" style="stop-color:#9bce64;stop-opacity:1"/></linearGradient><linearGradient id="_Linear8" x1="0" y1="0" x2="1" y2="0" gradientUnits="userSpaceOnUse" gradientTransform="matrix(216.697,-200.176,200.176,216.697,130.018,350.308)"><stop offset="0" style="stop-color:#2fb995;stop-opacity:1"/><stop offset="0.5" style="stop-color:#53b8af;stop-opacity:1"/><stop offset="1" style="stop-color:#00a896;stop-opacity:1"/></linearGradient><linearGradient id="_Linear9" x1="0" y1="0" x2="1" y2="0" gradientUnits="userSpaceOnUse" gradientTransform="matrix(1.39086e-13,275.242,-275.242,1.39086e-13,249.201,218.942)"><stop offset="0" style="stop-color:#009786;stop-opacity:1"/><stop offset="1" style="stop-color:#606069;stop-opacity:0"/></linearGradient><linearGradient id="_Linear10" x1="0" y1="0" x2="1" y2="0" gradientUnits="userSpaceOnUse" gradientTransform="matrix(-18.5126,174.585,-174.585,-18.5126,182.57,300.164)"><stop offset="0" style="stop-color:#99cf65;stop-opacity:1"/><stop offset="1" style="stop-color:#53b9e4;stop-opacity:1"/></linearGradient><linearGradient id="_Linear11" x1="0" y1="0" x2="1" y2="0" gradientUnits="userSpaceOnUse" gradientTransform="matrix(2.97424,-211.167,211.167,2.97424,284.263,402.025)"><stop offset="0" style="stop-color:#08b3e7;stop-opacity:1"/><stop offset="0.5" style="stop-color:#00a896;stop-opacity:1"/><stop offset="1" style="stop-color:#3bb6e6;stop-opacity:1"/></linearGradient><linearGradient id="_Linear12" x1="0" y1="0" x2="1" y2="0" gradientUnits="userSpaceOnUse" gradientTransform="matrix(-43.3394,54.9918,-54.9918,-43.3394,476.733,382.893)"><stop offset="0" style="stop-color:#9bce64;stop-opacity:1"/><stop offset="1" style="stop-color:#009786;stop-opacity:1"/></linearGradient><linearGradient id="_Linear13" x1="0" y1="0" x2="1" y2="0" gradientUnits="userSpaceOnUse" gradientTransform="matrix(17.7721,256.711,-256.711,17.7721,499.693,225.943)"><stop offset="0" style="stop-color:#2fb995;stop-opacity:1"/><stop offset="1" style="stop-color:#009786;stop-opacity:1"/></linearGradient><linearGradient id="_Linear14" x1="0" y1="0" x2="1" y2="0" gradientUnits="userSpaceOnUse" gradientTransform="matrix(32.5045,256.476,-256.475,32.5045,422.559,181.409)"><stop offset="0" style="stop-color:#00a896;stop-opacity:1"/><stop offset="0.61" style="stop-color:#9bce64;stop-opacity:1"/><stop offset="1" style="stop-color:#53b9e4;stop-opacity:1"/></linearGradient><linearGradient id="_Linear15" x1="0" y1="0" x2="1" y2="0" gradientUnits="userSpaceOnUse" gradientTransform="matrix(160.973,-180.515,180.515,160.973,456.613,474.523)"><stop offset="0" style="stop-color:#53b9e4;stop-opacity:1"/><stop offset="1" style="stop-color:#78cfd2;stop-opacity:1"/></linearGradient><linearGradient id="_Linear16" x1="0" y1="0" x2="1" y2="0" gradientUnits="userSpaceOnUse" gradientTransform="matrix(-216.391,134.194,-134.194,-216.391,625.529,350.674)"><stop offset="0" style="stop-color:#78cfd2;stop-opacity:1"/><stop offset="1" style="stop-color:#009786;stop-opacity:1"/></linearGradient><linearGradient id="_Linear17" x1="0" y1="0" x2="1" y2="0" gradientUnits="userSpaceOnUse" gradientTransform="matrix(-260.036,137.621,-137.621,-260.036,476.733,425.374)"><stop offset="0" style="stop-color:#2fb995;stop-opacity:1"/><stop offset="1" style="stop-color:#9bce64;stop-opacity:1"/></linearGradient><linearGradient id="_Linear18" x1="0" y1="0" x2="1" y2="0" gradientUnits="userSpaceOnUse" gradientTransform="matrix(-22.5503,-33.8179,33.8179,-22.5503,239.247,612.724)"><stop offset="0" style="stop-color:#9bce64;stop-opacity:1"/><stop offset="1" style="stop-color:#53b9e4;stop-opacity:1"/></linearGradient><linearGradient id="_Linear19" x1="0" y1="0" x2="1" y2="0" gradientUnits="userSpaceOnUse" gradientTransform="matrix(-216.391,134.194,-134.194,-216.391,625.529,350.674)"><stop offset="0" style="stop-color:#78cfd2;stop-opacity:1"/><stop offset="1" style="stop-color:#009786;stop-opacity:1"/></linearGradient><linearGradient id="_Linear20" x1="0" y1="0" x2="1" y2="0" gradientUnits="userSpaceOnUse" gradientTransform="matrix(-131.507,113.459,-113.459,-131.507,574.247,231.453)"><stop offset="0" style="stop-color:#9bce64;stop-opacity:1"/><stop offset="1" style="stop-color:#2fb995;stop-opacity:1"/></linearGradient><linearGradient id="_Linear21" x1="0" y1="0" x2="1" y2="0" gradientUnits="userSpaceOnUse" gradientTransform="matrix(179.122,-440.384,440.384,179.122,102.851,527.807)"><stop offset="0" style="stop-color:#08b3e7;stop-opacity:1"/><stop offset="1" style="stop-color:#2fb995;stop-opacity:1"/></linearGradient><linearGradient id="_Linear22" x1="0" y1="0" x2="1" y2="0" gradientUnits="userSpaceOnUse" gradientTransform="matrix(205.862,-56.2995,56.2995,205.862,205.862,118.854)"><stop offset="0" style="stop-color:#2fb995;stop-opacity:1"/><stop offset="1" style="stop-color:#9bce64;stop-opacity:1"/></linearGradient><linearGradient id="_Linear23" x1="0" y1="0" x2="1" y2="0" gradientUnits="userSpaceOnUse" gradientTransform="matrix(28.3446,40.3025,-40.3025,28.3446,446.851,94.1326)"><stop offset="0" style="stop-color:#a0d8f4;stop-opacity:1"/><stop offset="1" style="stop-color:#009786;stop-opacity:1"/></linearGradient></defs></svg>