<?xml version="1.0" encoding="UTF-8" standalone="no"?><!DOCTYPE svg PUBLIC "-//W3C//DTD SVG 1.1//EN" "http://www.w3.org/Graphics/SVG/1.1/DTD/svg11.dtd"><svg width="100%" height="100%" viewBox="0 0 628 668" version="1.1" xmlns="http://www.w3.org/2000/svg" xmlns:xlink="http://www.w3.org/1999/xlink" xml:space="preserve" xmlns:serif="http://www.serif.com/" style="fill-rule:evenodd;clip-rule:evenodd;stroke-linejoin:round;stroke-miterlimit:2;"><rect id="Artboard1" x="0" y="0" width="627.892" height="667.024" style="fill:none;"/><path d="M215.806,123.884l0,37.533l-21.67,12.511l0,-62.555l108.348,-62.555l108.349,62.555l0,25.022l-97.514,-56.299l-21.669,0l-75.844,43.788Z" style="fill:url(#_Linear1);"/><path d="M259.489,111.251c4.095,-2.201 44.15,-22.591 84.177,-1.017l13.401,-2.332l7.84,1.802l0,25.263l0,0c0.408,15.059 -19.083,26.516 -19.083,26.516c0,0 -43.643,24.846 -86.679,0c-14.8,-8.545 -19.421,-17.132 -19.112,-24.721l0,-25.088l7.839,-0.802l11.617,0.379Z" style="fill:url(#_Linear2);"/><path id="_6" serif:id="6" d="M345.824,136.395c0,0 -43.643,24.847 -86.679,0c-43.035,-24.846 0,-50.044 0,-50.044c0,0 43.728,-24.797 86.679,0c42.95,24.798 0,50.044 0,50.044Z" style="fill:url(#_Linear3);"/><path d="M280.832,123.894c-0.012,-0.006 -0.017,-0.01 -0.017,-0.01c0,0 -21.887,-12.385 0,-25.022c21.886,-12.636 43.339,0 43.339,0c0,0 21.298,12.726 0,25.022c-10.887,6.286 -21.968,6.145 -30.2,4.506c8.232,1.639 19.313,1.78 30.2,-4.506c-0.045,-0.026 -21.476,-12.622 -43.339,0l0.017,0.01Zm13.028,4.477l0.094,0.019l-0.026,-0.005l-0.068,-0.014Zm-0.094,-0.019l0.093,0.019l-0.026,-0.005l-0.067,-0.014Zm-0.093,-0.019l0.092,0.019l-0.025,-0.005l-0.067,-0.014Zm-0.093,-0.019l0.092,0.019l-0.026,-0.005l-0.066,-0.014Zm-0.093,-0.019l0.091,0.019l-0.026,-0.005l-0.065,-0.014Zm-0.093,-0.02l0.091,0.02l-0.026,-0.006l-0.065,-0.014Zm-0.092,-0.019l0.09,0.019l-0.026,-0.005l-0.064,-0.014Zm-0.093,-0.02l0.09,0.019l-0.025,-0.005l-0.065,-0.014Zm-0.091,-0.02l0.089,0.02l-0.026,-0.006l-0.063,-0.014Zm-0.092,-0.019l0.089,0.019l-0.026,-0.006l-0.063,-0.013Zm-0.091,-0.02l0.088,0.019l-0.026,-0.006l-0.062,-0.013Zm-0.092,-0.021l0.088,0.02l-0.025,-0.006l-0.063,-0.014Zm-0.136,-0.03l0.133,0.03l-0.026,-0.006l-0.107,-0.024Zm-0.18,-0.041l0.124,0.028l-0.018,-0.004l-0.106,-0.024Zm-0.18,-0.041l0.123,0.028l-0.018,-0.004l-0.105,-0.024Zm-0.179,-0.042l0.122,0.029l-0.018,-0.005l-0.104,-0.024Zm-0.177,-0.042l0.12,0.029l-0.018,-0.005l-0.102,-0.024Zm-0.176,-0.042l0.118,0.028l-0.018,-0.004l-0.1,-0.024Zm-0.176,-0.043l0.118,0.029l-0.018,-0.005l-0.1,-0.024Zm-0.174,-0.044l0.116,0.029l-0.018,-0.004l-0.098,-0.025Zm-0.173,-0.043l0.115,0.029l-0.018,-0.004l-0.097,-0.025Zm-0.172,-0.044l0.113,0.029l-0.017,-0.004l-0.096,-0.025Zm-0.171,-0.044l0.112,0.029l-0.017,-0.005l-0.095,-0.024Zm-0.17,-0.045l0.111,0.03l-0.017,-0.005l-0.094,-0.025Zm-0.169,-0.045l0.11,0.03l-0.017,-0.005l-0.093,-0.025Zm-0.167,-0.045l0.109,0.03l-0.018,-0.005l-0.091,-0.025Zm-0.167,-0.045l0.108,0.029l-0.017,-0.004l-0.091,-0.025Zm-0.165,-0.046l0.106,0.03l-0.017,-0.005l-0.089,-0.025Zm-0.164,-0.045l0.105,0.029l-0.017,-0.005l-0.088,-0.024Zm-0.163,-0.047l0.104,0.03l-0.017,-0.005l-0.087,-0.025Zm-0.162,-0.046l0.103,0.03l-0.017,-0.005l-0.086,-0.025Zm-0.16,-0.046l0.101,0.029l-0.016,-0.005l-0.085,-0.024Zm-0.16,-0.047l0.101,0.03l-0.017,-0.005l-0.084,-0.025Zm-0.158,-0.047l0.099,0.03l-0.016,-0.005l-0.083,-0.025Zm-0.157,-0.047l0.098,0.03l-0.016,-0.005l-0.082,-0.025Zm-0.156,-0.047l0.097,0.029l-0.016,-0.004l-0.081,-0.025Zm-0.154,-0.047l0.096,0.029l-0.017,-0.005l-0.079,-0.024Zm-0.153,-0.048l0.094,0.03l-0.016,-0.005l-0.078,-0.025Zm-0.152,-0.047l0.093,0.029l-0.016,-0.005l-0.077,-0.024Zm-0.151,-0.048l0.092,0.029l-0.016,-0.005l-0.076,-0.024Zm-0.149,-0.047l0.091,0.029l-0.016,-0.005l-0.075,-0.024Zm-0.149,-0.048l0.09,0.029l-0.015,-0.005l-0.075,-0.024Zm-0.147,-0.048l0.089,0.029l-0.015,-0.005l-0.074,-0.024Zm-0.145,-0.048l0.087,0.029l-0.015,-0.005l-0.072,-0.024Zm-0.145,-0.048l0.087,0.029l-0.016,-0.005l-0.071,-0.024Zm-0.143,-0.048l0.086,0.029l-0.016,-0.005l-0.07,-0.024Zm-0.141,-0.048l0.084,0.029l-0.015,-0.005l-0.069,-0.024Zm-0.141,-0.048l0.083,0.029l-0.015,-0.005l-0.068,-0.024Zm-0.139,-0.047l0.082,0.028l-0.015,-0.005l-0.067,-0.023Zm-0.138,-0.048l0.081,0.028l-0.015,-0.005l-0.066,-0.023Zm-0.136,-0.048l0.08,0.028l-0.015,-0.005l-0.065,-0.023Zm-0.135,-0.048l0.079,0.028l-0.015,-0.005l-0.064,-0.023Zm-0.134,-0.047l0.078,0.027l-0.015,-0.005l-0.063,-0.022Zm-0.132,-0.048l0.076,0.028l-0.014,-0.005l-0.062,-0.023Zm-0.131,-0.047l0.075,0.027l-0.014,-0.005l-0.061,-0.022Zm-0.13,-0.048l0.075,0.028l-0.014,-0.006l-0.061,-0.022Zm-0.128,-0.047l0.073,0.027l-0.014,-0.005l-0.059,-0.022Zm-0.127,-0.047l0.073,0.027l-0.014,-0.005l-0.059,-0.022Zm-0.125,-0.047l0.071,0.027l-0.014,-0.005l-0.057,-0.022Zm-0.124,-0.047l0.07,0.027l-0.014,-0.005l-0.056,-0.022Zm-0.123,-0.046l0.07,0.026l-0.014,-0.005l-0.056,-0.021Zm-0.121,-0.047l0.068,0.026l-0.013,-0.005l-0.055,-0.021Zm-0.119,-0.046l0.067,0.026l-0.014,-0.005l-0.053,-0.021Zm-0.119,-0.046l0.066,0.026l-0.013,-0.005l-0.053,-0.021Zm-0.116,-0.046l0.065,0.026l-0.013,-0.005l-0.052,-0.021Zm-0.116,-0.045l0.064,0.025l-0.013,-0.005l-0.051,-0.02Zm-0.114,-0.045l0.064,0.025l-0.013,-0.005l-0.051,-0.02Zm-0.112,-0.045l0.062,0.025l-0.012,-0.005l-0.05,-0.02Zm-0.111,-0.045l0.061,0.025l-0.012,-0.005l-0.049,-0.02Zm-0.109,-0.044l0.06,0.024l-0.012,-0.005l-0.048,-0.019Zm-0.108,-0.044l0.059,0.024l-0.012,-0.005l-0.047,-0.019Zm-0.106,-0.044l0.058,0.024l-0.012,-0.005l-0.046,-0.019Zm-0.105,-0.044l0.057,0.024l-0.012,-0.005l-0.045,-0.019Zm-0.103,-0.043l0.056,0.024l-0.012,-0.005l-0.044,-0.019Zm-0.102,-0.042l0.055,0.023l-0.012,-0.005l-0.043,-0.018Zm-0.1,-0.043l0.054,0.023l-0.012,-0.005l-0.042,-0.018Zm-0.099,-0.042l0.053,0.023l-0.011,-0.005l-0.042,-0.018Zm-0.097,-0.041l0.052,0.022l-0.011,-0.004l-0.041,-0.018Zm-0.095,-0.041l0.051,0.022l-0.011,-0.005l-0.04,-0.017Zm-0.094,-0.041l0.05,0.022l-0.011,-0.005l-0.039,-0.017Zm-0.092,-0.04l0.049,0.021l-0.011,-0.004l-0.038,-0.017Zm-0.091,-0.04l0.048,0.021l-0.011,-0.004l-0.037,-0.017Zm-0.089,-0.039l0.047,0.021l-0.01,-0.005l-0.037,-0.016Zm-0.088,-0.039l0.046,0.021l-0.01,-0.005l-0.036,-0.016Zm-0.086,-0.038l0.046,0.02l-0.01,-0.005l-0.036,-0.015Zm-0.084,-0.038l0.044,0.02l-0.009,-0.005l-0.035,-0.015Zm-0.082,-0.037l0.043,0.019l-0.01,-0.004l-0.033,-0.015Zm-0.081,-0.037l0.042,0.019l-0.01,-0.004l-0.032,-0.015Zm-0.08,-0.036l0.042,0.019l-0.01,-0.005l-0.032,-0.014Zm-0.077,-0.036l0.04,0.019l-0.009,-0.005l-0.031,-0.014Zm-0.076,-0.035l0.039,0.018l-0.009,-0.004l-0.03,-0.014Zm-0.075,-0.035l0.039,0.018l-0.009,-0.004l-0.03,-0.014Zm-0.072,-0.034l0.038,0.018l-0.009,-0.004l-0.029,-0.014Zm-0.106,-0.049l0.075,0.035l-0.012,-0.005l-0.063,-0.03Zm-0.135,-0.064l0.068,0.032l-0.008,-0.004l-0.06,-0.028Zm-0.128,-0.062l0.064,0.031l-0.007,-0.003l-0.057,-0.028Zm-0.121,-0.058l0.061,0.029l-0.008,-0.003l-0.053,-0.026Zm-0.114,-0.056l0.057,0.028l-0.007,-0.003l-0.05,-0.025Zm-0.107,-0.053l0.053,0.027l-0.006,-0.004l-0.047,-0.023Zm-0.1,-0.05l0.05,0.025l-0.006,-0.003l-0.044,-0.022Zm-0.092,-0.046l0.046,0.023l-0.006,-0.003l-0.04,-0.02Zm-0.086,-0.044l0.043,0.022l-0.005,-0.003l-0.038,-0.019Zm-0.078,-0.04l0.039,0.02l-0.005,-0.002l-0.034,-0.018Zm-0.07,-0.036l0.035,0.018l-0.004,-0.002l-0.031,-0.016Zm-0.063,-0.033l0.032,0.017l-0.005,-0.003l-0.027,-0.014Zm-0.056,-0.029l0.028,0.015l-0.003,-0.002l-0.025,-0.013Zm-0.047,-0.026l0.024,0.013l-0.003,-0.001l-0.021,-0.012Zm-0.041,-0.021l0.021,0.011l-0.003,-0.002l-0.018,-0.009Zm-0.046,-0.025l0.031,0.017l-0.002,-0.002l-0.029,-0.015Z" style="fill:#fff;"/><path d="M345.824,386.615c0,0 21.51,-12.606 43.343,-0.002c9.556,5.518 18.83,-1.635 18.83,-1.635l2.157,-17.235l-16.639,-16.148l-33.592,-3.296l-18.777,8.292l4.678,30.024Z" style="fill:url(#_Linear4);"/><path d="M259.489,561.582c2.734,-1.47 30.214,36.194 53.83,31.465c33.702,-6.749 17.045,-39.651 30.347,-32.482l13.401,-2.332l7.84,1.802l0,25.263l0,0c0.408,15.059 -19.083,26.515 -19.083,26.515c0,0 -43.643,24.847 -86.679,0c-14.8,-8.545 -19.421,-17.131 -19.112,-24.72l0,-25.088l7.839,-0.802l11.617,0.379Z" style="fill:url(#_Linear5);"/><path id="_1" serif:id="1" d="M345.824,586.726c0,0 -43.643,24.847 -86.679,0c-43.035,-24.846 0,-50.044 0,-50.044c0,0 43.728,-24.797 86.679,0c42.95,24.798 0,50.044 0,50.044Zm-65.009,-12.445c21.863,-12.623 43.294,-0.027 43.339,0c-21.275,12.283 -43.293,0.025 -43.339,0Z" style="fill:url(#_Linear6);"/><path d="M280.832,574.29c-0.012,-0.006 -0.017,-0.01 -0.017,-0.01c0,0 -21.887,-12.385 0,-25.022c21.886,-12.636 43.339,0 43.339,0c0,0 21.298,12.726 0,25.022c-10.887,6.286 -21.968,6.145 -30.2,4.506c8.232,1.639 19.313,1.78 30.2,-4.505c-0.045,-0.027 -21.476,-12.623 -43.339,0l0.017,0.009Zm13.028,4.477l0.094,0.019l-0.026,-0.005l-0.068,-0.014Zm-0.094,-0.019l0.093,0.019l-0.026,-0.005l-0.067,-0.014Zm-0.093,-0.019l0.092,0.019l-0.025,-0.005l-0.067,-0.014Zm-0.093,-0.019l0.092,0.019l-0.026,-0.005l-0.066,-0.014Zm-0.093,-0.019l0.091,0.019l-0.026,-0.005l-0.065,-0.014Zm-0.093,-0.019l0.091,0.019l-0.026,-0.006l-0.065,-0.013Zm-0.092,-0.02l0.09,0.019l-0.026,-0.005l-0.064,-0.014Zm-0.093,-0.02l0.09,0.02l-0.025,-0.006l-0.065,-0.014Zm-0.091,-0.019l0.089,0.019l-0.026,-0.006l-0.063,-0.013Zm-0.092,-0.02l0.089,0.019l-0.026,-0.006l-0.063,-0.013Zm-0.091,-0.02l0.088,0.019l-0.026,-0.006l-0.062,-0.013Zm-0.092,-0.02l0.088,0.019l-0.025,-0.006l-0.063,-0.013Zm-0.136,-0.031l0.133,0.03l-0.026,-0.006l-0.107,-0.024Zm-0.18,-0.041l0.124,0.028l-0.018,-0.004l-0.106,-0.024Zm-0.18,-0.041l0.123,0.028l-0.018,-0.004l-0.105,-0.024Zm-0.179,-0.042l0.122,0.029l-0.018,-0.004l-0.104,-0.025Zm-0.177,-0.042l0.12,0.029l-0.018,-0.005l-0.102,-0.024Zm-0.176,-0.042l0.118,0.028l-0.018,-0.004l-0.1,-0.024Zm-0.176,-0.043l0.118,0.029l-0.018,-0.005l-0.1,-0.024Zm-0.174,-0.043l0.116,0.028l-0.018,-0.004l-0.098,-0.024Zm-0.173,-0.044l0.115,0.029l-0.018,-0.004l-0.097,-0.025Zm-0.172,-0.044l0.113,0.029l-0.017,-0.004l-0.096,-0.025Zm-0.171,-0.044l0.112,0.029l-0.017,-0.004l-0.095,-0.025Zm-0.17,-0.045l0.111,0.03l-0.017,-0.005l-0.094,-0.025Zm-0.169,-0.045l0.11,0.03l-0.017,-0.005l-0.093,-0.025Zm-0.167,-0.045l0.109,0.03l-0.018,-0.005l-0.091,-0.025Zm-0.167,-0.045l0.108,0.03l-0.017,-0.005l-0.091,-0.025Zm-0.165,-0.046l0.106,0.03l-0.017,-0.005l-0.089,-0.025Zm-0.164,-0.045l0.105,0.029l-0.017,-0.005l-0.088,-0.024Zm-0.163,-0.046l0.104,0.029l-0.017,-0.005l-0.087,-0.024Zm-0.162,-0.047l0.103,0.03l-0.017,-0.005l-0.086,-0.025Zm-0.16,-0.046l0.101,0.029l-0.016,-0.005l-0.085,-0.024Zm-0.16,-0.047l0.101,0.03l-0.017,-0.005l-0.084,-0.025Zm-0.158,-0.047l0.099,0.03l-0.016,-0.005l-0.083,-0.025Zm-0.157,-0.047l0.098,0.03l-0.016,-0.005l-0.082,-0.025Zm-0.156,-0.047l0.097,0.03l-0.016,-0.005l-0.081,-0.025Zm-0.154,-0.047l0.096,0.029l-0.017,-0.005l-0.079,-0.024Zm-0.153,-0.048l0.094,0.03l-0.016,-0.005l-0.078,-0.025Zm-0.152,-0.047l0.093,0.029l-0.016,-0.005l-0.077,-0.024Zm-0.151,-0.048l0.092,0.03l-0.016,-0.005l-0.076,-0.025Zm-0.149,-0.047l0.091,0.029l-0.016,-0.005l-0.075,-0.024Zm-0.149,-0.048l0.09,0.029l-0.015,-0.005l-0.075,-0.024Zm-0.147,-0.048l0.089,0.029l-0.015,-0.005l-0.074,-0.024Zm-0.145,-0.048l0.087,0.029l-0.015,-0.005l-0.072,-0.024Zm-0.145,-0.048l0.087,0.029l-0.016,-0.005l-0.071,-0.024Zm-0.143,-0.048l0.086,0.029l-0.016,-0.005l-0.07,-0.024Zm-0.141,-0.048l0.084,0.029l-0.015,-0.005l-0.069,-0.024Zm-0.141,-0.047l0.083,0.028l-0.015,-0.005l-0.068,-0.023Zm-0.139,-0.048l0.082,0.028l-0.015,-0.005l-0.067,-0.023Zm-0.138,-0.048l0.081,0.028l-0.015,-0.005l-0.066,-0.023Zm-0.136,-0.048l0.08,0.028l-0.015,-0.005l-0.065,-0.023Zm-0.135,-0.048l0.079,0.028l-0.015,-0.005l-0.064,-0.023Zm-0.134,-0.047l0.078,0.027l-0.015,-0.005l-0.063,-0.022Zm-0.132,-0.048l0.076,0.028l-0.014,-0.005l-0.062,-0.023Zm-0.131,-0.047l0.075,0.027l-0.014,-0.005l-0.061,-0.022Zm-0.13,-0.048l0.075,0.028l-0.014,-0.006l-0.061,-0.022Zm-0.128,-0.047l0.073,0.027l-0.014,-0.005l-0.059,-0.022Zm-0.127,-0.047l0.073,0.027l-0.014,-0.005l-0.059,-0.022Zm-0.125,-0.047l0.071,0.027l-0.014,-0.005l-0.057,-0.022Zm-0.124,-0.047l0.07,0.027l-0.014,-0.005l-0.056,-0.022Zm-0.123,-0.046l0.07,0.026l-0.014,-0.005l-0.056,-0.021Zm-0.121,-0.047l0.068,0.027l-0.013,-0.006l-0.055,-0.021Zm-0.119,-0.046l0.067,0.026l-0.014,-0.005l-0.053,-0.021Zm-0.119,-0.046l0.066,0.026l-0.013,-0.005l-0.053,-0.021Zm-0.116,-0.046l0.065,0.026l-0.013,-0.005l-0.052,-0.021Zm-0.116,-0.045l0.064,0.025l-0.013,-0.005l-0.051,-0.02Zm-0.114,-0.045l0.064,0.025l-0.013,-0.005l-0.051,-0.02Zm-0.112,-0.045l0.062,0.025l-0.012,-0.005l-0.05,-0.02Zm-0.111,-0.045l0.061,0.025l-0.012,-0.005l-0.049,-0.02Zm-0.109,-0.044l0.06,0.024l-0.012,-0.005l-0.048,-0.019Zm-0.108,-0.044l0.059,0.024l-0.012,-0.005l-0.047,-0.019Zm-0.106,-0.044l0.058,0.024l-0.012,-0.005l-0.046,-0.019Zm-0.105,-0.043l0.057,0.023l-0.012,-0.005l-0.045,-0.018Zm-0.103,-0.044l0.056,0.024l-0.012,-0.005l-0.044,-0.019Zm-0.102,-0.042l0.055,0.023l-0.012,-0.005l-0.043,-0.018Zm-0.1,-0.043l0.054,0.023l-0.012,-0.004l-0.042,-0.019Zm-0.099,-0.041l0.053,0.022l-0.011,-0.005l-0.042,-0.017Zm-0.097,-0.042l0.052,0.022l-0.011,-0.004l-0.041,-0.018Zm-0.095,-0.041l0.051,0.022l-0.011,-0.005l-0.04,-0.017Zm-0.094,-0.041l0.05,0.022l-0.011,-0.005l-0.039,-0.017Zm-0.092,-0.04l0.049,0.021l-0.011,-0.004l-0.038,-0.017Zm-0.091,-0.04l0.048,0.021l-0.011,-0.004l-0.037,-0.017Zm-0.089,-0.039l0.047,0.021l-0.01,-0.005l-0.037,-0.016Zm-0.088,-0.039l0.046,0.021l-0.01,-0.005l-0.036,-0.016Zm-0.086,-0.038l0.046,0.02l-0.01,-0.004l-0.036,-0.016Zm-0.084,-0.038l0.044,0.02l-0.009,-0.004l-0.035,-0.016Zm-0.082,-0.037l0.043,0.019l-0.01,-0.004l-0.033,-0.015Zm-0.081,-0.037l0.042,0.019l-0.01,-0.004l-0.032,-0.015Zm-0.08,-0.036l0.042,0.019l-0.01,-0.005l-0.032,-0.014Zm-0.077,-0.036l0.04,0.019l-0.009,-0.005l-0.031,-0.014Zm-0.076,-0.035l0.039,0.018l-0.009,-0.004l-0.03,-0.014Zm-0.075,-0.035l0.039,0.018l-0.009,-0.004l-0.03,-0.014Zm-0.072,-0.033l0.038,0.017l-0.009,-0.004l-0.029,-0.013Zm-0.106,-0.05l0.075,0.035l-0.012,-0.005l-0.063,-0.03Zm-0.135,-0.064l0.068,0.032l-0.008,-0.004l-0.06,-0.028Zm-0.128,-0.062l0.064,0.031l-0.007,-0.003l-0.057,-0.028Zm-0.121,-0.058l0.061,0.029l-0.008,-0.003l-0.053,-0.026Zm-0.114,-0.056l0.057,0.028l-0.007,-0.003l-0.05,-0.025Zm-0.107,-0.053l0.053,0.027l-0.006,-0.003l-0.047,-0.024Zm-0.1,-0.05l0.05,0.025l-0.006,-0.003l-0.044,-0.022Zm-0.092,-0.046l0.046,0.023l-0.006,-0.003l-0.04,-0.02Zm-0.086,-0.044l0.043,0.022l-0.005,-0.002l-0.038,-0.02Zm-0.078,-0.04l0.039,0.021l-0.005,-0.003l-0.034,-0.018Zm-0.07,-0.036l0.035,0.018l-0.004,-0.002l-0.031,-0.016Zm-0.063,-0.033l0.032,0.017l-0.005,-0.002l-0.027,-0.015Zm-0.056,-0.029l0.028,0.015l-0.003,-0.002l-0.025,-0.013Zm-0.047,-0.026l0.024,0.013l-0.003,-0.001l-0.021,-0.012Zm-0.041,-0.021l0.021,0.011l-0.003,-0.001l-0.018,-0.01Zm-0.046,-0.025l0.031,0.017l-0.002,-0.002l-0.029,-0.015Z" style="fill:#fff;"/><path d="M280.815,499.214c4.095,-2.2 18.252,-3.507 50.508,0.354l25.744,-28.847l7.84,1.802l0,25.263l0,0c0.408,15.059 -19.083,26.516 -19.083,26.516c0,0 -43.643,24.846 -86.679,0c-14.8,-8.545 -19.421,-17.132 -19.112,-24.721l0,-25.088l7.839,-0.802l32.943,25.523Z" style="fill:url(#_Linear7);"/><path d="M324.154,474.192l-35.135,20.286l10.487,6.456l25.311,-2.102l10.183,-9.769l-10.846,-14.871Z" style="fill:url(#_Linear8);"/><path id="_2" serif:id="2" d="M345.824,499.214c0,0 -43.643,24.847 -86.679,0c-43.035,-24.846 0,-50.044 0,-50.044c0,0 43.728,-24.797 86.679,0c42.95,24.798 0,50.044 0,50.044Zm-65.009,-12.51c21.863,-12.623 43.294,-0.027 43.339,0c-21.275,12.283 -43.293,0.025 -43.339,0Z" style="fill:url(#_Linear9);"/><path d="M280.832,486.713c-0.012,-0.006 -0.017,-0.009 -0.017,-0.009c0,0 -21.887,-12.386 0,-25.022c21.886,-12.637 43.339,0 43.339,0c0,0 21.298,12.725 0,25.022c-10.887,6.285 -21.968,6.145 -30.2,4.505c8.232,1.64 19.313,1.78 30.2,-4.505c-0.045,-0.027 -21.476,-12.623 -43.339,0l0.017,0.009Zm13.028,4.477l0.094,0.019l-0.026,-0.005l-0.068,-0.014Zm-0.094,-0.018l0.093,0.018l-0.026,-0.005l-0.067,-0.013Zm-0.093,-0.019l0.092,0.018l-0.025,-0.005l-0.067,-0.013Zm-0.093,-0.02l0.092,0.019l-0.026,-0.005l-0.066,-0.014Zm-0.093,-0.019l0.091,0.019l-0.026,-0.005l-0.065,-0.014Zm-0.093,-0.019l0.091,0.019l-0.026,-0.006l-0.065,-0.013Zm-0.092,-0.02l0.09,0.019l-0.026,-0.005l-0.064,-0.014Zm-0.093,-0.02l0.09,0.02l-0.025,-0.006l-0.065,-0.014Zm-0.091,-0.019l0.089,0.019l-0.026,-0.006l-0.063,-0.013Zm-0.092,-0.02l0.089,0.019l-0.026,-0.005l-0.063,-0.014Zm-0.091,-0.02l0.088,0.019l-0.026,-0.005l-0.062,-0.014Zm-0.092,-0.02l0.088,0.019l-0.025,-0.006l-0.063,-0.013Zm-0.136,-0.031l0.133,0.03l-0.026,-0.006l-0.107,-0.024Zm-0.18,-0.041l0.124,0.029l-0.018,-0.005l-0.106,-0.024Zm-0.18,-0.041l0.123,0.028l-0.018,-0.004l-0.105,-0.024Zm-0.179,-0.042l0.122,0.029l-0.018,-0.004l-0.104,-0.025Zm-0.177,-0.042l0.12,0.029l-0.018,-0.004l-0.102,-0.025Zm-0.176,-0.042l0.118,0.028l-0.018,-0.004l-0.1,-0.024Zm-0.176,-0.043l0.118,0.029l-0.018,-0.005l-0.1,-0.024Zm-0.174,-0.043l0.116,0.029l-0.018,-0.005l-0.098,-0.024Zm-0.173,-0.044l0.115,0.029l-0.018,-0.004l-0.097,-0.025Zm-0.172,-0.044l0.113,0.029l-0.017,-0.004l-0.096,-0.025Zm-0.171,-0.044l0.112,0.029l-0.017,-0.004l-0.095,-0.025Zm-0.17,-0.045l0.111,0.03l-0.017,-0.005l-0.094,-0.025Zm-0.169,-0.044l0.11,0.029l-0.017,-0.005l-0.093,-0.024Zm-0.167,-0.045l0.109,0.029l-0.018,-0.005l-0.091,-0.024Zm-0.167,-0.046l0.108,0.03l-0.017,-0.005l-0.091,-0.025Zm-0.165,-0.045l0.106,0.029l-0.017,-0.005l-0.089,-0.024Zm-0.164,-0.046l0.105,0.029l-0.017,-0.005l-0.088,-0.024Zm-0.163,-0.046l0.104,0.029l-0.017,-0.005l-0.087,-0.024Zm-0.162,-0.047l0.103,0.03l-0.017,-0.005l-0.086,-0.025Zm-0.16,-0.046l0.101,0.029l-0.016,-0.004l-0.085,-0.025Zm-0.16,-0.047l0.101,0.03l-0.017,-0.005l-0.084,-0.025Zm-0.158,-0.047l0.099,0.03l-0.016,-0.005l-0.083,-0.025Zm-0.157,-0.047l0.098,0.03l-0.016,-0.005l-0.082,-0.025Zm-0.156,-0.047l0.097,0.03l-0.016,-0.005l-0.081,-0.025Zm-0.154,-0.047l0.096,0.029l-0.017,-0.005l-0.079,-0.024Zm-0.153,-0.047l0.094,0.029l-0.016,-0.005l-0.078,-0.024Zm-0.152,-0.048l0.093,0.029l-0.016,-0.005l-0.077,-0.024Zm-0.151,-0.048l0.092,0.03l-0.016,-0.005l-0.076,-0.025Zm-0.149,-0.047l0.091,0.029l-0.016,-0.005l-0.075,-0.024Zm-0.149,-0.048l0.09,0.029l-0.015,-0.005l-0.075,-0.024Zm-0.147,-0.048l0.089,0.029l-0.015,-0.005l-0.074,-0.024Zm-0.145,-0.048l0.087,0.029l-0.015,-0.005l-0.072,-0.024Zm-0.145,-0.048l0.087,0.029l-0.016,-0.005l-0.071,-0.024Zm-0.143,-0.048l0.086,0.029l-0.016,-0.005l-0.07,-0.024Zm-0.141,-0.047l0.084,0.028l-0.015,-0.005l-0.069,-0.023Zm-0.141,-0.048l0.083,0.028l-0.015,-0.005l-0.068,-0.023Zm-0.139,-0.048l0.082,0.028l-0.015,-0.005l-0.067,-0.023Zm-0.138,-0.048l0.081,0.028l-0.015,-0.005l-0.066,-0.023Zm-0.136,-0.048l0.08,0.028l-0.015,-0.005l-0.065,-0.023Zm-0.135,-0.048l0.079,0.028l-0.015,-0.005l-0.064,-0.023Zm-0.134,-0.047l0.078,0.028l-0.015,-0.006l-0.063,-0.022Zm-0.132,-0.048l0.076,0.028l-0.014,-0.005l-0.062,-0.023Zm-0.131,-0.047l0.075,0.027l-0.014,-0.005l-0.061,-0.022Zm-0.13,-0.048l0.075,0.028l-0.014,-0.005l-0.061,-0.023Zm-0.128,-0.047l0.073,0.027l-0.014,-0.005l-0.059,-0.022Zm-0.127,-0.047l0.073,0.027l-0.014,-0.005l-0.059,-0.022Zm-0.125,-0.047l0.071,0.027l-0.014,-0.005l-0.057,-0.022Zm-0.124,-0.047l0.07,0.027l-0.014,-0.005l-0.056,-0.022Zm-0.123,-0.046l0.07,0.026l-0.014,-0.005l-0.056,-0.021Zm-0.121,-0.047l0.068,0.027l-0.013,-0.006l-0.055,-0.021Zm-0.119,-0.046l0.067,0.026l-0.014,-0.005l-0.053,-0.021Zm-0.119,-0.046l0.066,0.026l-0.013,-0.005l-0.053,-0.021Zm-0.116,-0.045l0.065,0.025l-0.013,-0.005l-0.052,-0.02Zm-0.116,-0.046l0.064,0.025l-0.013,-0.005l-0.051,-0.02Zm-0.114,-0.045l0.064,0.025l-0.013,-0.005l-0.051,-0.02Zm-0.112,-0.045l0.062,0.025l-0.012,-0.005l-0.05,-0.02Zm-0.111,-0.045l0.061,0.025l-0.012,-0.005l-0.049,-0.02Zm-0.109,-0.044l0.06,0.024l-0.012,-0.005l-0.048,-0.019Zm-0.108,-0.044l0.059,0.024l-0.012,-0.005l-0.047,-0.019Zm-0.106,-0.044l0.058,0.024l-0.012,-0.005l-0.046,-0.019Zm-0.105,-0.043l0.057,0.023l-0.012,-0.005l-0.045,-0.018Zm-0.103,-0.043l0.056,0.023l-0.012,-0.005l-0.044,-0.018Zm-0.102,-0.043l0.055,0.023l-0.012,-0.005l-0.043,-0.018Zm-0.1,-0.042l0.054,0.022l-0.012,-0.004l-0.042,-0.018Zm-0.099,-0.042l0.053,0.022l-0.011,-0.005l-0.042,-0.017Zm-0.097,-0.042l0.052,0.022l-0.011,-0.004l-0.041,-0.018Zm-0.095,-0.041l0.051,0.022l-0.011,-0.005l-0.04,-0.017Zm-0.094,-0.041l0.05,0.022l-0.011,-0.005l-0.039,-0.017Zm-0.092,-0.04l0.049,0.022l-0.011,-0.005l-0.038,-0.017Zm-0.091,-0.04l0.048,0.022l-0.011,-0.005l-0.037,-0.017Zm-0.089,-0.039l0.047,0.021l-0.01,-0.005l-0.037,-0.016Zm-0.088,-0.039l0.046,0.021l-0.01,-0.005l-0.036,-0.016Zm-0.086,-0.038l0.046,0.02l-0.01,-0.004l-0.036,-0.016Zm-0.084,-0.038l0.044,0.02l-0.009,-0.004l-0.035,-0.016Zm-0.082,-0.037l0.043,0.019l-0.01,-0.004l-0.033,-0.015Zm-0.081,-0.037l0.042,0.019l-0.01,-0.004l-0.032,-0.015Zm-0.08,-0.036l0.042,0.019l-0.01,-0.004l-0.032,-0.015Zm-0.077,-0.036l0.04,0.019l-0.009,-0.004l-0.031,-0.015Zm-0.076,-0.035l0.039,0.018l-0.009,-0.004l-0.03,-0.014Zm-0.075,-0.034l0.039,0.018l-0.009,-0.005l-0.03,-0.013Zm-0.072,-0.034l0.038,0.017l-0.009,-0.004l-0.029,-0.013Zm-0.106,-0.05l0.075,0.035l-0.012,-0.005l-0.063,-0.03Zm-0.135,-0.064l0.068,0.032l-0.008,-0.004l-0.06,-0.028Zm-0.128,-0.062l0.064,0.031l-0.007,-0.003l-0.057,-0.028Zm-0.121,-0.058l0.061,0.029l-0.008,-0.003l-0.053,-0.026Zm-0.114,-0.056l0.057,0.028l-0.007,-0.003l-0.05,-0.025Zm-0.107,-0.053l0.053,0.027l-0.006,-0.003l-0.047,-0.024Zm-0.1,-0.05l0.05,0.025l-0.006,-0.003l-0.044,-0.022Zm-0.092,-0.046l0.046,0.023l-0.006,-0.003l-0.04,-0.02Zm-0.086,-0.044l0.043,0.022l-0.005,-0.002l-0.038,-0.02Zm-0.078,-0.039l0.039,0.02l-0.005,-0.003l-0.034,-0.017Zm-0.07,-0.037l0.035,0.018l-0.004,-0.002l-0.031,-0.016Zm-0.063,-0.033l0.032,0.017l-0.005,-0.002l-0.027,-0.015Zm-0.056,-0.029l0.028,0.015l-0.003,-0.002l-0.025,-0.013Zm-0.047,-0.025l0.024,0.012l-0.003,-0.001l-0.021,-0.011Zm-0.041,-0.022l0.021,0.011l-0.003,-0.001l-0.018,-0.01Zm-0.046,-0.025l0.031,0.017l-0.002,-0.002l-0.029,-0.015Z" style="fill:#fff;"/><path d="M259.489,386.493c4.095,-2.201 17.875,31.402 72.188,16.977l25.39,-20.326l7.84,1.802l0,25.263l0,0c0.408,15.059 -19.083,26.516 -19.083,26.516c0,0 -43.643,24.846 -86.679,0c-14.8,-8.545 -19.421,-17.132 -19.112,-24.721l0,-25.088l7.839,-0.802l11.617,0.379Z" style="fill:url(#_Linear10);"/><path id="_3" serif:id="3" d="M345.824,411.637c0,0 -43.643,24.847 -86.679,0c-43.035,-24.846 0,-50.044 0,-50.044c0,0 43.728,-24.797 86.679,0c42.95,24.798 0,50.044 0,50.044Zm-65.009,-12.51c21.863,-12.623 43.294,-0.027 43.339,0c-21.275,12.283 -43.293,0.025 -43.339,0Z" style="fill:url(#_Linear11);"/><path d="M280.832,399.136c-0.012,-0.006 -0.017,-0.01 -0.017,-0.01c0,0 -21.887,-12.385 0,-25.022c21.886,-12.636 43.339,0 43.339,0c0,0 21.298,12.726 0,25.022c-10.887,6.286 -21.968,6.145 -30.2,4.506c8.232,1.639 19.313,1.78 30.2,-4.506c-0.045,-0.026 -21.476,-12.622 -43.339,0l0.017,0.01Zm13.028,4.477l0.094,0.019l-0.026,-0.005l-0.068,-0.014Zm-0.094,-0.019l0.093,0.019l-0.026,-0.005l-0.067,-0.014Zm-0.093,-0.019l0.092,0.019l-0.025,-0.005l-0.067,-0.014Zm-0.093,-0.019l0.092,0.019l-0.026,-0.005l-0.066,-0.014Zm-0.093,-0.019l0.091,0.019l-0.026,-0.005l-0.065,-0.014Zm-0.093,-0.02l0.091,0.02l-0.026,-0.006l-0.065,-0.014Zm-0.092,-0.019l0.09,0.019l-0.026,-0.005l-0.064,-0.014Zm-0.093,-0.02l0.09,0.019l-0.025,-0.005l-0.065,-0.014Zm-0.091,-0.02l0.089,0.02l-0.026,-0.006l-0.063,-0.014Zm-0.092,-0.019l0.089,0.019l-0.026,-0.006l-0.063,-0.013Zm-0.091,-0.02l0.088,0.019l-0.026,-0.006l-0.062,-0.013Zm-0.092,-0.021l0.088,0.02l-0.025,-0.006l-0.063,-0.014Zm-0.136,-0.03l0.133,0.03l-0.026,-0.006l-0.107,-0.024Zm-0.18,-0.041l0.124,0.028l-0.018,-0.004l-0.106,-0.024Zm-0.18,-0.041l0.123,0.028l-0.018,-0.004l-0.105,-0.024Zm-0.179,-0.042l0.122,0.029l-0.018,-0.005l-0.104,-0.024Zm-0.177,-0.042l0.12,0.029l-0.018,-0.005l-0.102,-0.024Zm-0.176,-0.042l0.118,0.028l-0.018,-0.004l-0.1,-0.024Zm-0.176,-0.043l0.118,0.029l-0.018,-0.005l-0.1,-0.024Zm-0.174,-0.044l0.116,0.029l-0.018,-0.004l-0.098,-0.025Zm-0.173,-0.043l0.115,0.029l-0.018,-0.004l-0.097,-0.025Zm-0.172,-0.044l0.113,0.029l-0.017,-0.004l-0.096,-0.025Zm-0.171,-0.044l0.112,0.029l-0.017,-0.005l-0.095,-0.024Zm-0.17,-0.045l0.111,0.03l-0.017,-0.005l-0.094,-0.025Zm-0.169,-0.045l0.11,0.03l-0.017,-0.005l-0.093,-0.025Zm-0.167,-0.045l0.109,0.03l-0.018,-0.005l-0.091,-0.025Zm-0.167,-0.045l0.108,0.029l-0.017,-0.004l-0.091,-0.025Zm-0.165,-0.046l0.106,0.03l-0.017,-0.005l-0.089,-0.025Zm-0.164,-0.045l0.105,0.029l-0.017,-0.005l-0.088,-0.024Zm-0.163,-0.047l0.104,0.03l-0.017,-0.005l-0.087,-0.025Zm-0.162,-0.046l0.103,0.03l-0.017,-0.005l-0.086,-0.025Zm-0.16,-0.046l0.101,0.029l-0.016,-0.005l-0.085,-0.024Zm-0.16,-0.047l0.101,0.03l-0.017,-0.005l-0.084,-0.025Zm-0.158,-0.047l0.099,0.03l-0.016,-0.005l-0.083,-0.025Zm-0.157,-0.047l0.098,0.03l-0.016,-0.005l-0.082,-0.025Zm-0.156,-0.047l0.097,0.029l-0.016,-0.004l-0.081,-0.025Zm-0.154,-0.047l0.096,0.029l-0.017,-0.005l-0.079,-0.024Zm-0.153,-0.048l0.094,0.03l-0.016,-0.005l-0.078,-0.025Zm-0.152,-0.047l0.093,0.029l-0.016,-0.005l-0.077,-0.024Zm-0.151,-0.048l0.092,0.029l-0.016,-0.005l-0.076,-0.024Zm-0.149,-0.047l0.091,0.029l-0.016,-0.005l-0.075,-0.024Zm-0.149,-0.048l0.09,0.029l-0.015,-0.005l-0.075,-0.024Zm-0.147,-0.048l0.089,0.029l-0.015,-0.005l-0.074,-0.024Zm-0.145,-0.048l0.087,0.029l-0.015,-0.005l-0.072,-0.024Zm-0.145,-0.048l0.087,0.029l-0.016,-0.005l-0.071,-0.024Zm-0.143,-0.048l0.086,0.029l-0.016,-0.005l-0.07,-0.024Zm-0.141,-0.048l0.084,0.029l-0.015,-0.005l-0.069,-0.024Zm-0.141,-0.048l0.083,0.029l-0.015,-0.005l-0.068,-0.024Zm-0.139,-0.047l0.082,0.028l-0.015,-0.005l-0.067,-0.023Zm-0.138,-0.048l0.081,0.028l-0.015,-0.005l-0.066,-0.023Zm-0.136,-0.048l0.08,0.028l-0.015,-0.005l-0.065,-0.023Zm-0.135,-0.048l0.079,0.028l-0.015,-0.005l-0.064,-0.023Zm-0.134,-0.047l0.078,0.027l-0.015,-0.005l-0.063,-0.022Zm-0.132,-0.048l0.076,0.028l-0.014,-0.005l-0.062,-0.023Zm-0.131,-0.047l0.075,0.027l-0.014,-0.005l-0.061,-0.022Zm-0.13,-0.048l0.075,0.028l-0.014,-0.006l-0.061,-0.022Zm-0.128,-0.047l0.073,0.027l-0.014,-0.005l-0.059,-0.022Zm-0.127,-0.047l0.073,0.027l-0.014,-0.005l-0.059,-0.022Zm-0.125,-0.047l0.071,0.027l-0.014,-0.005l-0.057,-0.022Zm-0.124,-0.047l0.07,0.027l-0.014,-0.005l-0.056,-0.022Zm-0.123,-0.046l0.07,0.026l-0.014,-0.005l-0.056,-0.021Zm-0.121,-0.047l0.068,0.026l-0.013,-0.005l-0.055,-0.021Zm-0.119,-0.046l0.067,0.026l-0.014,-0.005l-0.053,-0.021Zm-0.119,-0.046l0.066,0.026l-0.013,-0.005l-0.053,-0.021Zm-0.116,-0.046l0.065,0.026l-0.013,-0.005l-0.052,-0.021Zm-0.116,-0.045l0.064,0.025l-0.013,-0.005l-0.051,-0.02Zm-0.114,-0.045l0.064,0.025l-0.013,-0.005l-0.051,-0.02Zm-0.112,-0.045l0.062,0.025l-0.012,-0.005l-0.05,-0.02Zm-0.111,-0.045l0.061,0.025l-0.012,-0.005l-0.049,-0.02Zm-0.109,-0.044l0.06,0.024l-0.012,-0.005l-0.048,-0.019Zm-0.108,-0.044l0.059,0.024l-0.012,-0.005l-0.047,-0.019Zm-0.106,-0.044l0.058,0.024l-0.012,-0.005l-0.046,-0.019Zm-0.105,-0.044l0.057,0.024l-0.012,-0.005l-0.045,-0.019Zm-0.103,-0.043l0.056,0.024l-0.012,-0.005l-0.044,-0.019Zm-0.102,-0.042l0.055,0.023l-0.012,-0.005l-0.043,-0.018Zm-0.1,-0.043l0.054,0.023l-0.012,-0.005l-0.042,-0.018Zm-0.099,-0.042l0.053,0.023l-0.011,-0.005l-0.042,-0.018Zm-0.097,-0.041l0.052,0.022l-0.011,-0.004l-0.041,-0.018Zm-0.095,-0.041l0.051,0.022l-0.011,-0.005l-0.04,-0.017Zm-0.094,-0.041l0.05,0.022l-0.011,-0.005l-0.039,-0.017Zm-0.092,-0.04l0.049,0.021l-0.011,-0.004l-0.038,-0.017Zm-0.091,-0.04l0.048,0.021l-0.011,-0.004l-0.037,-0.017Zm-0.089,-0.039l0.047,0.021l-0.01,-0.005l-0.037,-0.016Zm-0.088,-0.039l0.046,0.021l-0.01,-0.005l-0.036,-0.016Zm-0.086,-0.038l0.046,0.02l-0.01,-0.005l-0.036,-0.015Zm-0.084,-0.038l0.044,0.02l-0.009,-0.005l-0.035,-0.015Zm-0.082,-0.037l0.043,0.019l-0.01,-0.004l-0.033,-0.015Zm-0.081,-0.037l0.042,0.019l-0.01,-0.004l-0.032,-0.015Zm-0.08,-0.036l0.042,0.019l-0.01,-0.005l-0.032,-0.014Zm-0.077,-0.036l0.04,0.019l-0.009,-0.005l-0.031,-0.014Zm-0.076,-0.035l0.039,0.018l-0.009,-0.004l-0.03,-0.014Zm-0.075,-0.035l0.039,0.018l-0.009,-0.004l-0.03,-0.014Zm-0.072,-0.034l0.038,0.018l-0.009,-0.004l-0.029,-0.014Zm-0.106,-0.049l0.075,0.035l-0.012,-0.005l-0.063,-0.03Zm-0.135,-0.064l0.068,0.032l-0.008,-0.004l-0.06,-0.028Zm-0.128,-0.062l0.064,0.031l-0.007,-0.003l-0.057,-0.028Zm-0.121,-0.058l0.061,0.029l-0.008,-0.003l-0.053,-0.026Zm-0.114,-0.056l0.057,0.028l-0.007,-0.003l-0.05,-0.025Zm-0.107,-0.053l0.053,0.027l-0.006,-0.004l-0.047,-0.023Zm-0.1,-0.05l0.05,0.025l-0.006,-0.003l-0.044,-0.022Zm-0.092,-0.046l0.046,0.023l-0.006,-0.003l-0.04,-0.02Zm-0.086,-0.044l0.043,0.022l-0.005,-0.003l-0.038,-0.019Zm-0.078,-0.04l0.039,0.02l-0.005,-0.002l-0.034,-0.018Zm-0.07,-0.036l0.035,0.018l-0.004,-0.002l-0.031,-0.016Zm-0.063,-0.033l0.032,0.017l-0.005,-0.003l-0.027,-0.014Zm-0.056,-0.029l0.028,0.015l-0.003,-0.002l-0.025,-0.013Zm-0.047,-0.026l0.024,0.013l-0.003,-0.001l-0.021,-0.012Zm-0.041,-0.021l0.021,0.011l-0.003,-0.002l-0.018,-0.009Zm-0.046,-0.025l0.031,0.017l-0.002,-0.002l-0.029,-0.015Z" style="fill:#fff;"/><path d="M259.489,293.091c4.095,-2.2 4.831,30.016 59.057,21.696l38.521,-25.045l7.84,1.803l0,25.263l0,0c0.408,15.058 -19.083,26.515 -19.083,26.515c0,0 -43.643,24.847 -86.679,0c-14.8,-8.545 -19.421,-17.131 -19.112,-24.72l0,-25.088l7.839,-0.803l11.617,0.379Z" style="fill:url(#_Linear12);"/><path id="_4" serif:id="4" d="M345.824,318.236c0,0 -43.643,24.847 -86.679,0c-43.035,-24.846 0,-50.044 0,-50.044c0,0 43.728,-24.798 86.679,0c42.95,24.798 0,50.044 0,50.044Zm-65.009,-12.197c21.863,-12.623 43.294,-0.027 43.339,0c-21.275,12.283 -43.293,0.025 -43.339,0Z" style="fill:url(#_Linear13);"/><path d="M280.832,306.256c-0.012,-0.006 -0.017,-0.009 -0.017,-0.009c0,0 -21.887,-12.386 0,-25.022c21.886,-12.637 43.339,0 43.339,0c0,0 21.298,12.726 0,25.022c-10.887,6.285 -21.968,6.145 -30.2,4.505c8.232,1.64 19.313,1.78 30.2,-4.505c-0.045,-0.027 -21.476,-12.623 -43.339,0l0.017,0.009Zm13.028,4.478l0.094,0.018l-0.026,-0.005l-0.068,-0.013Zm-0.094,-0.019l0.093,0.019l-0.026,-0.006l-0.067,-0.013Zm-0.093,-0.019l0.092,0.019l-0.025,-0.006l-0.067,-0.013Zm-0.093,-0.02l0.092,0.019l-0.026,-0.005l-0.066,-0.014Zm-0.093,-0.019l0.091,0.019l-0.026,-0.005l-0.065,-0.014Zm-0.093,-0.019l0.091,0.019l-0.026,-0.006l-0.065,-0.013Zm-0.092,-0.02l0.09,0.019l-0.026,-0.005l-0.064,-0.014Zm-0.093,-0.019l0.09,0.019l-0.025,-0.006l-0.065,-0.013Zm-0.091,-0.02l0.089,0.019l-0.026,-0.005l-0.063,-0.014Zm-0.092,-0.02l0.089,0.019l-0.026,-0.005l-0.063,-0.014Zm-0.091,-0.02l0.088,0.019l-0.026,-0.005l-0.062,-0.014Zm-0.092,-0.02l0.088,0.019l-0.025,-0.005l-0.063,-0.014Zm-0.136,-0.031l0.133,0.03l-0.026,-0.006l-0.107,-0.024Zm-0.18,-0.041l0.124,0.029l-0.018,-0.004l-0.106,-0.025Zm-0.18,-0.041l0.123,0.028l-0.018,-0.004l-0.105,-0.024Zm-0.179,-0.042l0.122,0.029l-0.018,-0.004l-0.104,-0.025Zm-0.177,-0.042l0.12,0.029l-0.018,-0.004l-0.102,-0.025Zm-0.176,-0.042l0.118,0.029l-0.018,-0.005l-0.1,-0.024Zm-0.176,-0.043l0.118,0.029l-0.018,-0.004l-0.1,-0.025Zm-0.174,-0.043l0.116,0.029l-0.018,-0.005l-0.098,-0.024Zm-0.173,-0.044l0.115,0.029l-0.018,-0.004l-0.097,-0.025Zm-0.172,-0.044l0.113,0.029l-0.017,-0.004l-0.096,-0.025Zm-0.171,-0.044l0.112,0.029l-0.017,-0.004l-0.095,-0.025Zm-0.17,-0.044l0.111,0.029l-0.017,-0.005l-0.094,-0.024Zm-0.169,-0.045l0.11,0.029l-0.017,-0.004l-0.093,-0.025Zm-0.167,-0.045l0.109,0.029l-0.018,-0.005l-0.091,-0.024Zm-0.167,-0.046l0.108,0.03l-0.017,-0.005l-0.091,-0.025Zm-0.165,-0.045l0.106,0.029l-0.017,-0.005l-0.089,-0.024Zm-0.164,-0.046l0.105,0.029l-0.017,-0.004l-0.088,-0.025Zm-0.163,-0.046l0.104,0.029l-0.017,-0.004l-0.087,-0.025Zm-0.162,-0.047l0.103,0.03l-0.017,-0.005l-0.086,-0.025Zm-0.16,-0.046l0.101,0.03l-0.016,-0.005l-0.085,-0.025Zm-0.16,-0.047l0.101,0.03l-0.017,-0.005l-0.084,-0.025Zm-0.158,-0.047l0.099,0.03l-0.016,-0.005l-0.083,-0.025Zm-0.157,-0.047l0.098,0.03l-0.016,-0.005l-0.082,-0.025Zm-0.156,-0.047l0.097,0.03l-0.016,-0.005l-0.081,-0.025Zm-0.154,-0.047l0.096,0.029l-0.017,-0.004l-0.079,-0.025Zm-0.153,-0.047l0.094,0.029l-0.016,-0.005l-0.078,-0.024Zm-0.152,-0.048l0.093,0.029l-0.016,-0.005l-0.077,-0.024Zm-0.151,-0.047l0.092,0.029l-0.016,-0.005l-0.076,-0.024Zm-0.149,-0.048l0.091,0.029l-0.016,-0.005l-0.075,-0.024Zm-0.149,-0.048l0.09,0.029l-0.015,-0.005l-0.075,-0.024Zm-0.147,-0.048l0.089,0.029l-0.015,-0.005l-0.074,-0.024Zm-0.145,-0.048l0.087,0.029l-0.015,-0.005l-0.072,-0.024Zm-0.145,-0.047l0.087,0.028l-0.016,-0.005l-0.071,-0.023Zm-0.143,-0.048l0.086,0.028l-0.016,-0.005l-0.07,-0.023Zm-0.141,-0.048l0.084,0.028l-0.015,-0.005l-0.069,-0.023Zm-0.141,-0.048l0.083,0.028l-0.015,-0.005l-0.068,-0.023Zm-0.139,-0.048l0.082,0.028l-0.015,-0.005l-0.067,-0.023Zm-0.138,-0.048l0.081,0.028l-0.015,-0.005l-0.066,-0.023Zm-0.136,-0.048l0.08,0.028l-0.015,-0.005l-0.065,-0.023Zm-0.135,-0.047l0.079,0.028l-0.015,-0.006l-0.064,-0.022Zm-0.134,-0.048l0.078,0.028l-0.015,-0.005l-0.063,-0.023Zm-0.132,-0.048l0.076,0.028l-0.014,-0.005l-0.062,-0.023Zm-0.131,-0.047l0.075,0.027l-0.014,-0.005l-0.061,-0.022Zm-0.13,-0.047l0.075,0.027l-0.014,-0.005l-0.061,-0.022Zm-0.128,-0.048l0.073,0.027l-0.014,-0.005l-0.059,-0.022Zm-0.127,-0.047l0.073,0.027l-0.014,-0.005l-0.059,-0.022Zm-0.125,-0.047l0.071,0.027l-0.014,-0.005l-0.057,-0.022Zm-0.124,-0.046l0.07,0.026l-0.014,-0.005l-0.056,-0.021Zm-0.123,-0.047l0.07,0.026l-0.014,-0.005l-0.056,-0.021Zm-0.121,-0.046l0.068,0.026l-0.013,-0.005l-0.055,-0.021Zm-0.119,-0.047l0.067,0.026l-0.014,-0.005l-0.053,-0.021Zm-0.119,-0.046l0.066,0.026l-0.013,-0.005l-0.053,-0.021Zm-0.116,-0.045l0.065,0.025l-0.013,-0.005l-0.052,-0.02Zm-0.116,-0.046l0.064,0.026l-0.013,-0.006l-0.051,-0.02Zm-0.114,-0.045l0.064,0.025l-0.013,-0.005l-0.051,-0.02Zm-0.112,-0.045l0.062,0.025l-0.012,-0.005l-0.05,-0.02Zm-0.111,-0.045l0.061,0.025l-0.012,-0.005l-0.049,-0.02Zm-0.109,-0.044l0.06,0.024l-0.012,-0.005l-0.048,-0.019Zm-0.108,-0.044l0.059,0.024l-0.012,-0.005l-0.047,-0.019Zm-0.106,-0.044l0.058,0.024l-0.012,-0.005l-0.046,-0.019Zm-0.105,-0.043l0.057,0.023l-0.012,-0.005l-0.045,-0.018Zm-0.103,-0.043l0.056,0.023l-0.012,-0.005l-0.044,-0.018Zm-0.102,-0.043l0.055,0.023l-0.012,-0.005l-0.043,-0.018Zm-0.1,-0.042l0.054,0.023l-0.012,-0.005l-0.042,-0.018Zm-0.099,-0.042l0.053,0.022l-0.011,-0.004l-0.042,-0.018Zm-0.097,-0.042l0.052,0.023l-0.011,-0.005l-0.041,-0.018Zm-0.095,-0.041l0.051,0.022l-0.011,-0.005l-0.04,-0.017Zm-0.094,-0.041l0.05,0.022l-0.011,-0.004l-0.039,-0.018Zm-0.092,-0.04l0.049,0.022l-0.011,-0.005l-0.038,-0.017Zm-0.091,-0.04l0.048,0.022l-0.011,-0.005l-0.037,-0.017Zm-0.089,-0.039l0.047,0.021l-0.01,-0.005l-0.037,-0.016Zm-0.088,-0.039l0.046,0.021l-0.01,-0.005l-0.036,-0.016Zm-0.086,-0.038l0.046,0.02l-0.01,-0.004l-0.036,-0.016Zm-0.084,-0.038l0.044,0.02l-0.009,-0.004l-0.035,-0.016Zm-0.082,-0.037l0.043,0.02l-0.01,-0.005l-0.033,-0.015Zm-0.081,-0.037l0.042,0.019l-0.01,-0.004l-0.032,-0.015Zm-0.08,-0.036l0.042,0.019l-0.01,-0.004l-0.032,-0.015Zm-0.077,-0.036l0.04,0.019l-0.009,-0.004l-0.031,-0.015Zm-0.076,-0.035l0.039,0.019l-0.009,-0.005l-0.03,-0.014Zm-0.075,-0.034l0.039,0.018l-0.009,-0.004l-0.03,-0.014Zm-0.072,-0.034l0.038,0.017l-0.009,-0.004l-0.029,-0.013Zm-0.106,-0.05l0.075,0.035l-0.012,-0.005l-0.063,-0.03Zm-0.135,-0.064l0.068,0.032l-0.008,-0.003l-0.06,-0.029Zm-0.128,-0.061l0.064,0.031l-0.007,-0.004l-0.057,-0.027Zm-0.121,-0.059l0.061,0.03l-0.008,-0.004l-0.053,-0.026Zm-0.114,-0.056l0.057,0.028l-0.007,-0.003l-0.05,-0.025Zm-0.107,-0.053l0.053,0.027l-0.006,-0.003l-0.047,-0.024Zm-0.1,-0.049l0.05,0.025l-0.006,-0.003l-0.044,-0.022Zm-0.092,-0.047l0.046,0.023l-0.006,-0.002l-0.04,-0.021Zm-0.086,-0.043l0.043,0.021l-0.005,-0.002l-0.038,-0.019Zm-0.078,-0.04l0.039,0.02l-0.005,-0.003l-0.034,-0.017Zm-0.07,-0.037l0.035,0.019l-0.004,-0.003l-0.031,-0.016Zm-0.063,-0.033l0.032,0.017l-0.005,-0.002l-0.027,-0.015Zm-0.056,-0.029l0.028,0.015l-0.003,-0.002l-0.025,-0.013Zm-0.047,-0.025l0.024,0.013l-0.003,-0.002l-0.021,-0.011Zm-0.041,-0.022l0.021,0.011l-0.003,-0.001l-0.018,-0.01Zm-0.046,-0.025l0.031,0.017l-0.002,-0.001l-0.029,-0.016Z" style="fill:#fff;"/><path d="M191.247,356.75c0,19.097 -18.749,29.847 -18.749,29.847l-0.032,0.018c0,0 -21.669,12.241 -21.669,37.533c0,10.877 4.007,14.712 8.574,15.552c11.507,-10.486 33.928,-23.821 63.178,-6.934c43.389,25.052 22.392,37.087 0.748,24.591c-21.627,-12.487 -50.784,4.298 -50.831,4.324c0,0 -43.339,25.194 -43.339,-25.022c0,-43.709 32.837,-68.201 41.346,-73.813l20.774,-27.523l0,21.427l0,0Z" style="fill:url(#_Linear14);"/><path d="M172.466,436.659c-21.692,12.525 -21.669,-8.856 -21.669,-12.511c0,0 43.289,-25.051 86.678,0c43.39,25.052 0,50.044 0,50.044l-21.669,12.511l0,-25.022c0,0 21.644,-12.525 0,-25.022c-21.644,-12.496 -43.34,0 -43.34,0l0,0Z" style="fill:url(#_Linear15);"/><path d="M172.466,360.205l0,-123.722l21.67,-12.511l0,300.264l-21.67,-12.511l0,-125.11l0.032,-0.018c0,0 18.749,-10.75 18.749,-29.847l0,0l0,-21.427l-18.781,24.882Z" style="fill:url(#_Linear16);"/><path d="M53.64,340.19c-6.398,-3.72 -11.192,-12.045 -11.192,-28.641c0,-49.902 43.34,-75.066 43.34,-75.066l216.696,-125.11l108.349,62.555l-21.67,12.511l-86.679,-50.044l-195.027,112.599l-27.902,46.446l6.233,41.131c0,0 -5.279,3.031 -12.152,4.855l1.54,6.115l0.083,5.131l-21.533,-12.432c-0.026,-0.015 -0.052,-0.03 -0.078,-0.045l-0.008,-0.005l0,0Z" style="fill:url(#_Linear17);"/><path d="M270.947,529.933c11.977,4.584 23.683,5.808 34.149,5.307l-110.96,64.062l0,-25.022l76.811,-44.347Zm-76.811,-5.749l0,-300.212l-86.679,50.044c0,0 -21.669,12.241 -21.669,37.533c0,10.877 4.007,14.712 8.574,15.552c11.507,-10.486 33.928,-23.821 63.178,-6.934c43.389,25.052 22.392,37.087 0.748,24.591c-21.627,-12.487 -50.784,4.298 -50.831,4.324c0,0 -43.339,25.194 -43.339,-25.022c0,-50.215 43.339,-75.066 43.339,-75.066l195.027,-112.599l0,25.022l-86.678,50.044l0,275.242l21.669,-12.511c0,0 18.813,-10.836 19.276,-25.389l-0.056,23.975l0,0c0.281,10.29 -8.795,18.86 -14.572,23.257c-1.421,1.081 -8.911,5.529 -15.538,9.414l-32.449,18.735Zm62.617,-76.393l0,-0.001l0,0l0,0.001Z" style="fill:url(#_Linear18);"/><path d="M194.136,223.972l21.67,-12.511l0,275.242l-21.67,12.511l0,-275.242Z" style="fill:url(#_Linear19);"/><path d="M150.797,349.082c0,0 21.644,-12.525 0,-25.022c-21.644,-12.496 -43.34,0 -43.34,0c-21.692,12.525 -21.669,-8.856 -21.669,-12.511c0,0 43.289,-25.051 86.678,0c37.776,21.81 8.265,44.525 -0.004,50.038l0.004,0.006l-0.279,0.176c-0.787,0.518 -1.346,0.858 -1.585,1.001l-0.129,0.076c-8.509,5.612 -41.346,30.104 -41.346,73.813c0,15.236 3.989,23.53 9.548,27.691l-19.94,-11.511c-0.026,-0.015 -0.052,-0.03 -0.078,-0.045l-0.008,-0.005l0,0c-6.398,-3.72 -11.192,-12.045 -11.192,-28.641c0,-49.862 43.271,-75.026 43.34,-75.066Z" style="fill:url(#_Linear20);"/><path d="M259.489,198.828c4.095,-2.201 7.947,20.703 59.071,28.374l38.507,-31.723l7.84,1.802l0,25.263l0,0c0.408,15.059 -19.083,26.516 -19.083,26.516c0,0 -43.643,24.846 -86.679,0c-14.8,-8.545 -19.421,-17.132 -19.112,-24.721l0,-25.088l7.839,-0.802l11.617,0.379Z" style="fill:url(#_Linear21);"/><path d="M317.692,352.813l-47.712,27.547c0,0 -4.311,2.485 -10.213,4.319l3.616,4.383l-3.674,7.592l-21.673,-12.512c-0.104,-0.059 -0.208,-0.119 -0.312,-0.18l-0.009,-0.005l0.001,-0.001c-6.34,-3.753 -11.075,-12.089 -11.075,-28.618c0,-50.008 43.339,-75.066 43.339,-75.066l32.504,-18.767c0,0 21.639,-12.493 43.34,-25.022c21.7,-12.528 21.67,-37.533 21.67,-37.533l-65.01,-37.533l0,-25.022l86.679,50.044l6.128,53.582l-49.467,21.484l-43.34,25.022l-15.848,21.662c0,0 -30.445,17.787 -30.445,42.599c0,24.812 13.789,4.55 13.789,4.55l7.346,-4.241c14.771,4.284 28.854,3.8 40.366,1.716Z" style="fill:url(#_Linear22);"/><path id="_5" serif:id="5" d="M345.824,223.972c0,0 -43.643,24.847 -86.679,0c-43.035,-24.846 0,-50.044 0,-50.044c0,0 43.728,-24.797 86.679,0c42.95,24.798 0,50.044 0,50.044Zm-65.009,-12.511c21.863,-12.622 43.294,-0.026 43.339,0c-21.275,12.283 -43.293,0.026 -43.339,0Z" style="fill:url(#_Linear23);"/><path d="M280.832,211.471c-0.012,-0.006 -0.017,-0.01 -0.017,-0.01c0,0 -21.887,-12.385 0,-25.022c21.886,-12.636 43.339,0 43.339,0c0,0 21.298,12.726 0,25.022c-10.887,6.286 -21.968,6.145 -30.2,4.506c8.232,1.639 19.313,1.78 30.2,-4.506c-0.045,-0.026 -21.476,-12.622 -43.339,0l0.017,0.01Zm13.028,4.477l0.094,0.019l-0.026,-0.005l-0.068,-0.014Zm-0.094,-0.019l0.093,0.019l-0.026,-0.005l-0.067,-0.014Zm-0.093,-0.019l0.092,0.019l-0.025,-0.005l-0.067,-0.014Zm-0.093,-0.019l0.092,0.019l-0.026,-0.005l-0.066,-0.014Zm-0.093,-0.019l0.091,0.019l-0.026,-0.005l-0.065,-0.014Zm-0.093,-0.02l0.091,0.02l-0.026,-0.006l-0.065,-0.014Zm-0.092,-0.019l0.09,0.019l-0.026,-0.005l-0.064,-0.014Zm-0.093,-0.02l0.09,0.019l-0.025,-0.005l-0.065,-0.014Zm-0.091,-0.02l0.089,0.02l-0.026,-0.006l-0.063,-0.014Zm-0.092,-0.019l0.089,0.019l-0.026,-0.006l-0.063,-0.013Zm-0.091,-0.02l0.088,0.019l-0.026,-0.006l-0.062,-0.013Zm-0.092,-0.021l0.088,0.02l-0.025,-0.006l-0.063,-0.014Zm-0.136,-0.03l0.133,0.03l-0.026,-0.006l-0.107,-0.024Zm-0.18,-0.041l0.124,0.028l-0.018,-0.004l-0.106,-0.024Zm-0.18,-0.041l0.123,0.028l-0.018,-0.004l-0.105,-0.024Zm-0.179,-0.042l0.122,0.029l-0.018,-0.005l-0.104,-0.024Zm-0.177,-0.042l0.12,0.029l-0.018,-0.005l-0.102,-0.024Zm-0.176,-0.042l0.118,0.028l-0.018,-0.004l-0.1,-0.024Zm-0.176,-0.043l0.118,0.029l-0.018,-0.005l-0.1,-0.024Zm-0.174,-0.044l0.116,0.029l-0.018,-0.004l-0.098,-0.025Zm-0.173,-0.043l0.115,0.029l-0.018,-0.004l-0.097,-0.025Zm-0.172,-0.044l0.113,0.029l-0.017,-0.004l-0.096,-0.025Zm-0.171,-0.044l0.112,0.029l-0.017,-0.005l-0.095,-0.024Zm-0.17,-0.045l0.111,0.03l-0.017,-0.005l-0.094,-0.025Zm-0.169,-0.045l0.11,0.03l-0.017,-0.005l-0.093,-0.025Zm-0.167,-0.045l0.109,0.03l-0.018,-0.005l-0.091,-0.025Zm-0.167,-0.045l0.108,0.029l-0.017,-0.004l-0.091,-0.025Zm-0.165,-0.046l0.106,0.03l-0.017,-0.005l-0.089,-0.025Zm-0.164,-0.045l0.105,0.029l-0.017,-0.005l-0.088,-0.024Zm-0.163,-0.047l0.104,0.03l-0.017,-0.005l-0.087,-0.025Zm-0.162,-0.046l0.103,0.03l-0.017,-0.005l-0.086,-0.025Zm-0.16,-0.046l0.101,0.029l-0.016,-0.005l-0.085,-0.024Zm-0.16,-0.047l0.101,0.03l-0.017,-0.005l-0.084,-0.025Zm-0.158,-0.047l0.099,0.03l-0.016,-0.005l-0.083,-0.025Zm-0.157,-0.047l0.098,0.03l-0.016,-0.005l-0.082,-0.025Zm-0.156,-0.047l0.097,0.029l-0.016,-0.004l-0.081,-0.025Zm-0.154,-0.047l0.096,0.029l-0.017,-0.005l-0.079,-0.024Zm-0.153,-0.048l0.094,0.03l-0.016,-0.005l-0.078,-0.025Zm-0.152,-0.047l0.093,0.029l-0.016,-0.005l-0.077,-0.024Zm-0.151,-0.048l0.092,0.029l-0.016,-0.005l-0.076,-0.024Zm-0.149,-0.047l0.091,0.029l-0.016,-0.005l-0.075,-0.024Zm-0.149,-0.048l0.09,0.029l-0.015,-0.005l-0.075,-0.024Zm-0.147,-0.048l0.089,0.029l-0.015,-0.005l-0.074,-0.024Zm-0.145,-0.048l0.087,0.029l-0.015,-0.005l-0.072,-0.024Zm-0.145,-0.048l0.087,0.029l-0.016,-0.005l-0.071,-0.024Zm-0.143,-0.048l0.086,0.029l-0.016,-0.005l-0.07,-0.024Zm-0.141,-0.048l0.084,0.029l-0.015,-0.005l-0.069,-0.024Zm-0.141,-0.048l0.083,0.029l-0.015,-0.005l-0.068,-0.024Zm-0.139,-0.047l0.082,0.028l-0.015,-0.005l-0.067,-0.023Zm-0.138,-0.048l0.081,0.028l-0.015,-0.005l-0.066,-0.023Zm-0.136,-0.048l0.08,0.028l-0.015,-0.005l-0.065,-0.023Zm-0.135,-0.048l0.079,0.028l-0.015,-0.005l-0.064,-0.023Zm-0.134,-0.047l0.078,0.027l-0.015,-0.005l-0.063,-0.022Zm-0.132,-0.048l0.076,0.028l-0.014,-0.005l-0.062,-0.023Zm-0.131,-0.047l0.075,0.027l-0.014,-0.005l-0.061,-0.022Zm-0.13,-0.048l0.075,0.028l-0.014,-0.006l-0.061,-0.022Zm-0.128,-0.047l0.073,0.027l-0.014,-0.005l-0.059,-0.022Zm-0.127,-0.047l0.073,0.027l-0.014,-0.005l-0.059,-0.022Zm-0.125,-0.047l0.071,0.027l-0.014,-0.005l-0.057,-0.022Zm-0.124,-0.047l0.07,0.027l-0.014,-0.005l-0.056,-0.022Zm-0.123,-0.046l0.07,0.026l-0.014,-0.005l-0.056,-0.021Zm-0.121,-0.047l0.068,0.026l-0.013,-0.005l-0.055,-0.021Zm-0.119,-0.046l0.067,0.026l-0.014,-0.005l-0.053,-0.021Zm-0.119,-0.046l0.066,0.026l-0.013,-0.005l-0.053,-0.021Zm-0.116,-0.046l0.065,0.026l-0.013,-0.005l-0.052,-0.021Zm-0.116,-0.045l0.064,0.025l-0.013,-0.005l-0.051,-0.02Zm-0.114,-0.045l0.064,0.025l-0.013,-0.005l-0.051,-0.02Zm-0.112,-0.045l0.062,0.025l-0.012,-0.005l-0.05,-0.02Zm-0.111,-0.045l0.061,0.025l-0.012,-0.005l-0.049,-0.02Zm-0.109,-0.044l0.06,0.024l-0.012,-0.005l-0.048,-0.019Zm-0.108,-0.044l0.059,0.024l-0.012,-0.005l-0.047,-0.019Zm-0.106,-0.044l0.058,0.024l-0.012,-0.005l-0.046,-0.019Zm-0.105,-0.044l0.057,0.024l-0.012,-0.005l-0.045,-0.019Zm-0.103,-0.043l0.056,0.024l-0.012,-0.005l-0.044,-0.019Zm-0.102,-0.042l0.055,0.023l-0.012,-0.005l-0.043,-0.018Zm-0.1,-0.043l0.054,0.023l-0.012,-0.005l-0.042,-0.018Zm-0.099,-0.042l0.053,0.023l-0.011,-0.005l-0.042,-0.018Zm-0.097,-0.041l0.052,0.022l-0.011,-0.004l-0.041,-0.018Zm-0.095,-0.041l0.051,0.022l-0.011,-0.005l-0.04,-0.017Zm-0.094,-0.041l0.05,0.022l-0.011,-0.005l-0.039,-0.017Zm-0.092,-0.04l0.049,0.021l-0.011,-0.004l-0.038,-0.017Zm-0.091,-0.04l0.048,0.021l-0.011,-0.004l-0.037,-0.017Zm-0.089,-0.039l0.047,0.021l-0.01,-0.005l-0.037,-0.016Zm-0.088,-0.039l0.046,0.021l-0.01,-0.005l-0.036,-0.016Zm-0.086,-0.038l0.046,0.02l-0.01,-0.005l-0.036,-0.015Zm-0.084,-0.038l0.044,0.02l-0.009,-0.005l-0.035,-0.015Zm-0.082,-0.037l0.043,0.019l-0.01,-0.004l-0.033,-0.015Zm-0.081,-0.037l0.042,0.019l-0.01,-0.004l-0.032,-0.015Zm-0.08,-0.036l0.042,0.019l-0.01,-0.005l-0.032,-0.014Zm-0.077,-0.036l0.04,0.019l-0.009,-0.005l-0.031,-0.014Zm-0.076,-0.035l0.039,0.018l-0.009,-0.004l-0.03,-0.014Zm-0.075,-0.035l0.039,0.018l-0.009,-0.004l-0.03,-0.014Zm-0.072,-0.034l0.038,0.018l-0.009,-0.004l-0.029,-0.014Zm-0.106,-0.049l0.075,0.035l-0.012,-0.005l-0.063,-0.03Zm-0.135,-0.064l0.068,0.032l-0.008,-0.004l-0.06,-0.028Zm-0.128,-0.062l0.064,0.031l-0.007,-0.003l-0.057,-0.028Zm-0.121,-0.058l0.061,0.029l-0.008,-0.003l-0.053,-0.026Zm-0.114,-0.056l0.057,0.028l-0.007,-0.003l-0.05,-0.025Zm-0.107,-0.053l0.053,0.027l-0.006,-0.004l-0.047,-0.023Zm-0.1,-0.05l0.05,0.025l-0.006,-0.003l-0.044,-0.022Zm-0.092,-0.046l0.046,0.023l-0.006,-0.003l-0.04,-0.02Zm-0.086,-0.044l0.043,0.022l-0.005,-0.003l-0.038,-0.019Zm-0.078,-0.04l0.039,0.02l-0.005,-0.002l-0.034,-0.018Zm-0.07,-0.036l0.035,0.018l-0.004,-0.002l-0.031,-0.016Zm-0.063,-0.033l0.032,0.017l-0.005,-0.003l-0.027,-0.014Zm-0.056,-0.029l0.028,0.015l-0.003,-0.002l-0.025,-0.013Zm-0.047,-0.026l0.024,0.013l-0.003,-0.001l-0.021,-0.012Zm-0.041,-0.021l0.021,0.011l-0.003,-0.002l-0.018,-0.009Zm-0.046,-0.025l0.031,0.017l-0.002,-0.002l-0.029,-0.015Z" style="fill:#fff;"/><path d="M430.076,372.704l0,40.334l-40.913,23.621l0,-25.022l6.09,-13.404l34.823,-25.529Z" style="fill:url(#_Linear24);"/><path d="M454.172,499.214l21.67,-12.511l0,-50.044l3.304,-15.574l-3.304,-9.448l0,-175.154l-21.67,-12.511l0,275.242Z" style="fill:url(#_Linear25);"/><path d="M389.163,436.659l-7.584,8.133l-14.085,4.378l0,-25.022c0,-24.657 21.669,-37.533 21.669,-37.533c0,0 21.723,-12.48 0,-25.022c-21.723,-12.541 -43.339,0 -43.339,0l0,0l-54.174,31.278c0,0 -43.34,24.986 -43.34,-25.022c0,-50.008 43.34,-75.066 43.34,-75.066l32.504,-18.767c0,0 21.639,-12.493 43.34,-25.022c21.7,-12.528 21.669,-37.533 21.669,-37.533l0,-25.022l21.67,-12.511l0,25.022c0,49.886 -43.339,75.066 -43.339,75.066l-43.34,25.022l-32.504,18.767c0,0 -21.67,12.721 -21.67,37.533c0,24.812 21.67,12.511 21.67,12.511l26.042,-15.036l0.001,0c1.933,-0.35 1.828,-0.205 1.828,-0.348c15.792,-3.158 26.303,-9.142 26.303,-9.142c0,0 2.601,-1.529 5.883,-4.204c32.468,-5.486 59.126,9.963 59.126,9.963c43.312,25.007 0,50.044 0,50.044c-21.775,12.572 -21.67,37.533 -21.67,37.533Z" style="fill:url(#_Linear26);"/><path d="M519.191,286.533l-65.019,-37.539l0,250.22l-65.009,-37.533l43.34,0l0,-250.22l21.669,12.511l0,0l86.679,50.044l0.03,0.018l32.475,18.749l3.427,9.895l0.345,0.438c1.544,1.975 2.223,4.411 2.256,7.069l4.806,13.875l-6.987,-4.034c-5.264,12.729 -18.334,24.331 -19.83,13.573c-3.747,-26.942 -37.515,-46.679 -38.182,-47.066Z" style="fill:url(#_Linear27);"/><path d="M364.907,475.686l67.596,-39.027l0,25.022l-67.778,39.132c0.145,-0.991 0.209,-2 0.182,-3.027l0,0l0,-22.1Z" style="fill:url(#_Linear28);"/><path d="M249.3,517.409c2.612,2.287 5.859,4.591 9.845,6.893c3.94,2.274 7.886,4.133 11.802,5.631l-76.811,44.347l-21.67,-12.511l76.834,-44.36Zm106.32,-61.383l76.883,-44.389l0,25.022l-67.596,39.027l0,-2.059c0.007,-0.302 0.008,-0.605 0,-0.91l0,-0.194l-0.006,-0.001c-0.194,-5.183 -2.755,-10.788 -9.281,-16.496Z" style="fill:url(#_Linear29);"/><path d="M172.466,586.791l21.67,12.511l0,-25.022l-21.67,-12.511l0,25.022Z" style="fill:url(#_Linear30);"/><path d="M589.273,334.759c-0.295,35.982 -46.072,63.004 -48.335,64.317l0,0l-0.005,0.003c-0.054,0.032 -0.082,0.047 -0.082,0.047l-65.009,37.533l0,-28.35l42.145,-25.674c86.62,-50.011 48.811,-73.396 48.674,-73.476l-19.529,-38.769c20.411,11.784 26.893,27.17 34.158,38.501l7.983,0.148l0,25.026c0.002,0.23 0.002,0.459 0,0.688l0,0.006l0,0Z" style="fill:url(#_Linear31);"/><path d="M519.181,261.505l-86.678,-50.044l21.669,-12.511l86.679,50.044c107.162,61.871 3.52,123.067 0.087,125.06l0,0l-0.005,0.003c-0.054,0.032 -0.082,0.047 -0.082,0.047l-65.009,37.533l0,-25.022l43.339,-25.022c86.621,-50.01 0.138,-100.008 0,-100.088Z" style="fill:url(#_Linear32);"/><path d="M172.466,98.862l0,87.577l21.67,-12.511l0,-62.555l-21.67,-12.511Z" style="fill:url(#_Linear33);"/><path d="M226.641,67.585c0.067,-0.039 75.723,-43.517 151.244,-0.255l0.443,0.255l54.175,31.277l-21.67,12.511l-54.174,-31.277c0,0 -54.697,-30.976 -108.349,0l-54.174,31.277l-21.67,-12.511l54.175,-31.277Z" style="fill:url(#_Linear34);"/><path d="M410.833,136.395l21.67,-12.511l0,-25.022l-21.67,12.511l0,25.022Z" style="fill:url(#_Linear35);"/><defs><linearGradient id="_Linear1" x1="0" y1="0" x2="1" y2="0" gradientUnits="userSpaceOnUse" gradientTransform="matrix(254.665,-91.6771,91.6771,254.665,194.136,150.13)"><stop offset="0" style="stop-color:#009786;stop-opacity:1"/><stop offset="1" style="stop-color:#53b9e4;stop-opacity:1"/></linearGradient><linearGradient id="_Linear2" x1="0" y1="0" x2="1" y2="0" gradientUnits="userSpaceOnUse" gradientTransform="matrix(50.0525,80.8261,-80.8261,50.0525,278.807,85.6985)"><stop offset="0" style="stop-color:#78cfd2;stop-opacity:1"/><stop offset="1" style="stop-color:#2db99e;stop-opacity:1"/></linearGradient><linearGradient id="_Linear3" x1="0" y1="0" x2="1" y2="0" gradientUnits="userSpaceOnUse" gradientTransform="matrix(139.243,75.8218,-75.8218,139.243,246.565,74.7149)"><stop offset="0" style="stop-color:#2db99e;stop-opacity:1"/><stop offset="1" style="stop-color:#9bce64;stop-opacity:1"/></linearGradient><linearGradient id="_Linear4" x1="0" y1="0" x2="1" y2="0" gradientUnits="userSpaceOnUse" gradientTransform="matrix(-60.3956,3.20469,-3.20469,-60.3956,402.643,360.454)"><stop offset="0" style="stop-color:#009786;stop-opacity:1"/><stop offset="1" style="stop-color:#08b3e7;stop-opacity:1"/></linearGradient><linearGradient id="_Linear5" x1="0" y1="0" x2="1" y2="0" gradientUnits="userSpaceOnUse" gradientTransform="matrix(68.7356,-88.5769,88.5769,68.7356,276.681,640.544)"><stop offset="0" style="stop-color:#9bce64;stop-opacity:1"/><stop offset="1" style="stop-color:#2db99e;stop-opacity:1"/></linearGradient><linearGradient id="_Linear6" x1="0" y1="0" x2="1" y2="0" gradientUnits="userSpaceOnUse" gradientTransform="matrix(-105.229,63.0667,-63.0667,-105.229,360.298,531.772)"><stop offset="0" style="stop-color:#a0d8f4;stop-opacity:1"/><stop offset="1" style="stop-color:#9bce64;stop-opacity:1"/></linearGradient><linearGradient id="_Linear7" x1="0" y1="0" x2="1" y2="0" gradientUnits="userSpaceOnUse" gradientTransform="matrix(-92.1199,30.4704,-30.4704,-92.1199,363.486,483.586)"><stop offset="0" style="stop-color:#2db99e;stop-opacity:1"/><stop offset="1" style="stop-color:#7bccba;stop-opacity:1"/></linearGradient><linearGradient id="_Linear8" x1="0" y1="0" x2="1" y2="0" gradientUnits="userSpaceOnUse" gradientTransform="matrix(-49.6317,25.521,-25.521,-49.6317,330.07,482.303)"><stop offset="0" style="stop-color:#2db99e;stop-opacity:1"/><stop offset="1" style="stop-color:#9bce64;stop-opacity:1"/></linearGradient><linearGradient id="_Linear9" x1="0" y1="0" x2="1" y2="0" gradientUnits="userSpaceOnUse" gradientTransform="matrix(-130.104,16.0682,-16.0682,-130.104,370.573,463.036)"><stop offset="0" style="stop-color:#b9dd8f;stop-opacity:1"/><stop offset="1" style="stop-color:#78cfd2;stop-opacity:1"/></linearGradient><linearGradient id="_Linear10" x1="0" y1="0" x2="1" y2="0" gradientUnits="userSpaceOnUse" gradientTransform="matrix(127.173,2.01576,-2.01576,127.173,245.942,401.438)"><stop offset="0" style="stop-color:#78cfd2;stop-opacity:1"/><stop offset="1" style="stop-color:#9bce64;stop-opacity:1"/></linearGradient><linearGradient id="_Linear11" x1="0" y1="0" x2="1" y2="0" gradientUnits="userSpaceOnUse" gradientTransform="matrix(-71.5701,-87.8682,87.8682,-71.5701,335.142,436.463)"><stop offset="0" style="stop-color:#a0d8f4;stop-opacity:1"/><stop offset="1" style="stop-color:#9bce64;stop-opacity:1"/></linearGradient><linearGradient id="_Linear12" x1="0" y1="0" x2="1" y2="0" gradientUnits="userSpaceOnUse" gradientTransform="matrix(79.7192,60.2323,-60.2323,79.7192,259.32,288.717)"><stop offset="0" style="stop-color:#9bce64;stop-opacity:1"/><stop offset="1" style="stop-color:#2db99e;stop-opacity:1"/></linearGradient><linearGradient id="_Linear13" x1="0" y1="0" x2="1" y2="0" gradientUnits="userSpaceOnUse" gradientTransform="matrix(-140.306,25.1558,-25.1558,-140.306,370.927,284.111)"><stop offset="0" style="stop-color:#b9dd8f;stop-opacity:1"/><stop offset="1" style="stop-color:#2db99e;stop-opacity:1"/></linearGradient><linearGradient id="_Linear14" x1="0" y1="0" x2="1" y2="0" gradientUnits="userSpaceOnUse" gradientTransform="matrix(-84.5906,112.757,-112.757,-84.5906,215.806,340.148)"><stop offset="0" style="stop-color:#53b8af;stop-opacity:1"/><stop offset="1" style="stop-color:#009786;stop-opacity:1"/></linearGradient><linearGradient id="_Linear15" x1="0" y1="0" x2="1" y2="0" gradientUnits="userSpaceOnUse" gradientTransform="matrix(-40.8489,76.4496,-76.4496,-40.8489,234.985,422.765)"><stop offset="0" style="stop-color:#99cf65;stop-opacity:1"/><stop offset="1" style="stop-color:#009786;stop-opacity:1"/></linearGradient><linearGradient id="_Linear16" x1="0" y1="0" x2="1" y2="0" gradientUnits="userSpaceOnUse" gradientTransform="matrix(179.122,-440.384,440.384,179.122,58.62,526.581)"><stop offset="0" style="stop-color:#53b9e4;stop-opacity:1"/><stop offset="1" style="stop-color:#2fb995;stop-opacity:1"/></linearGradient><linearGradient id="_Linear17" x1="0" y1="0" x2="1" y2="0" gradientUnits="userSpaceOnUse" gradientTransform="matrix(308.485,-195.826,195.826,308.485,15.6695,319.71)"><stop offset="0" style="stop-color:#53b9e4;stop-opacity:1"/><stop offset="0.52" style="stop-color:#2fb995;stop-opacity:1"/><stop offset="1" style="stop-color:#9bce64;stop-opacity:1"/></linearGradient><linearGradient id="_Linear18" x1="0" y1="0" x2="1" y2="0" gradientUnits="userSpaceOnUse" gradientTransform="matrix(216.697,-200.176,200.176,216.697,85.7876,349.082)"><stop offset="0" style="stop-color:#2fb995;stop-opacity:1"/><stop offset="0.5" style="stop-color:#53b8af;stop-opacity:1"/><stop offset="1" style="stop-color:#00a896;stop-opacity:1"/></linearGradient><linearGradient id="_Linear19" x1="0" y1="0" x2="1" y2="0" gradientUnits="userSpaceOnUse" gradientTransform="matrix(1.39086e-13,275.242,-275.242,1.39086e-13,204.971,217.717)"><stop offset="0" style="stop-color:#009786;stop-opacity:1"/><stop offset="1" style="stop-color:#606069;stop-opacity:0"/></linearGradient><linearGradient id="_Linear20" x1="0" y1="0" x2="1" y2="0" gradientUnits="userSpaceOnUse" gradientTransform="matrix(-18.5126,174.585,-174.585,-18.5126,138.339,298.939)"><stop offset="0" style="stop-color:#99cf65;stop-opacity:1"/><stop offset="1" style="stop-color:#53b9e4;stop-opacity:1"/></linearGradient><linearGradient id="_Linear21" x1="0" y1="0" x2="1" y2="0" gradientUnits="userSpaceOnUse" gradientTransform="matrix(-97.0658,71.7696,-71.7696,-97.0658,362.763,206.672)"><stop offset="0" style="stop-color:#78cfd2;stop-opacity:1"/><stop offset="1" style="stop-color:#9bce64;stop-opacity:1"/></linearGradient><linearGradient id="_Linear22" x1="0" y1="0" x2="1" y2="0" gradientUnits="userSpaceOnUse" gradientTransform="matrix(2.97424,-211.167,211.167,2.97424,240.033,400.8)"><stop offset="0" style="stop-color:#08b3e7;stop-opacity:1"/><stop offset="0.5" style="stop-color:#00a896;stop-opacity:1"/><stop offset="1" style="stop-color:#3bb6e6;stop-opacity:1"/></linearGradient><linearGradient id="_Linear23" x1="0" y1="0" x2="1" y2="0" gradientUnits="userSpaceOnUse" gradientTransform="matrix(121.085,57.9748,-57.9748,121.085,242.668,171.441)"><stop offset="0" style="stop-color:#9bce64;stop-opacity:1"/><stop offset="1" style="stop-color:#2db99e;stop-opacity:1"/></linearGradient><linearGradient id="_Linear24" x1="0" y1="0" x2="1" y2="0" gradientUnits="userSpaceOnUse" gradientTransform="matrix(-43.3394,54.9918,-54.9918,-43.3394,432.503,381.668)"><stop offset="0" style="stop-color:#9bce64;stop-opacity:1"/><stop offset="1" style="stop-color:#009786;stop-opacity:1"/></linearGradient><linearGradient id="_Linear25" x1="0" y1="0" x2="1" y2="0" gradientUnits="userSpaceOnUse" gradientTransform="matrix(17.7721,256.711,-256.711,17.7721,455.462,224.717)"><stop offset="0" style="stop-color:#2fb995;stop-opacity:1"/><stop offset="1" style="stop-color:#009786;stop-opacity:1"/></linearGradient><linearGradient id="_Linear26" x1="0" y1="0" x2="1" y2="0" gradientUnits="userSpaceOnUse" gradientTransform="matrix(32.5045,256.476,-256.475,32.5045,378.328,180.184)"><stop offset="0" style="stop-color:#00a896;stop-opacity:1"/><stop offset="0.61" style="stop-color:#9bce64;stop-opacity:1"/><stop offset="1" style="stop-color:#53b9e4;stop-opacity:1"/></linearGradient><linearGradient id="_Linear27" x1="0" y1="0" x2="1" y2="0" gradientUnits="userSpaceOnUse" gradientTransform="matrix(160.973,-180.515,180.515,160.973,412.383,473.298)"><stop offset="0" style="stop-color:#53b9e4;stop-opacity:1"/><stop offset="1" style="stop-color:#78cfd2;stop-opacity:1"/></linearGradient><linearGradient id="_Linear28" x1="0" y1="0" x2="1" y2="0" gradientUnits="userSpaceOnUse" gradientTransform="matrix(-216.391,134.194,-134.194,-216.391,581.298,349.449)"><stop offset="0" style="stop-color:#78cfd2;stop-opacity:1"/><stop offset="1" style="stop-color:#009786;stop-opacity:1"/></linearGradient><linearGradient id="_Linear29" x1="0" y1="0" x2="1" y2="0" gradientUnits="userSpaceOnUse" gradientTransform="matrix(-260.036,137.621,-137.621,-260.036,432.503,424.148)"><stop offset="0" style="stop-color:#2fb995;stop-opacity:1"/><stop offset="1" style="stop-color:#9bce64;stop-opacity:1"/></linearGradient><linearGradient id="_Linear30" x1="0" y1="0" x2="1" y2="0" gradientUnits="userSpaceOnUse" gradientTransform="matrix(-22.5503,-33.8179,33.8179,-22.5503,195.017,611.499)"><stop offset="0" style="stop-color:#9bce64;stop-opacity:1"/><stop offset="1" style="stop-color:#53b9e4;stop-opacity:1"/></linearGradient><linearGradient id="_Linear31" x1="0" y1="0" x2="1" y2="0" gradientUnits="userSpaceOnUse" gradientTransform="matrix(-216.391,134.194,-134.194,-216.391,581.298,349.449)"><stop offset="0" style="stop-color:#78cfd2;stop-opacity:1"/><stop offset="1" style="stop-color:#009786;stop-opacity:1"/></linearGradient><linearGradient id="_Linear32" x1="0" y1="0" x2="1" y2="0" gradientUnits="userSpaceOnUse" gradientTransform="matrix(-131.507,113.459,-113.459,-131.507,530.016,230.228)"><stop offset="0" style="stop-color:#9bce64;stop-opacity:1"/><stop offset="1" style="stop-color:#2fb995;stop-opacity:1"/></linearGradient><linearGradient id="_Linear33" x1="0" y1="0" x2="1" y2="0" gradientUnits="userSpaceOnUse" gradientTransform="matrix(179.122,-440.384,440.384,179.122,58.62,526.581)"><stop offset="0" style="stop-color:#08b3e7;stop-opacity:1"/><stop offset="1" style="stop-color:#2fb995;stop-opacity:1"/></linearGradient><linearGradient id="_Linear34" x1="0" y1="0" x2="1" y2="0" gradientUnits="userSpaceOnUse" gradientTransform="matrix(205.862,-56.2995,56.2995,205.862,161.631,117.629)"><stop offset="0" style="stop-color:#2fb995;stop-opacity:1"/><stop offset="1" style="stop-color:#9bce64;stop-opacity:1"/></linearGradient><linearGradient id="_Linear35" x1="0" y1="0" x2="1" y2="0" gradientUnits="userSpaceOnUse" gradientTransform="matrix(28.3446,40.3025,-40.3025,28.3446,402.621,92.9071)"><stop offset="0" style="stop-color:#a0d8f4;stop-opacity:1"/><stop offset="1" style="stop-color:#009786;stop-opacity:1"/></linearGradient></defs></svg>