<svg id="Layer_1" data-name="Layer 1" xmlns="http://www.w3.org/2000/svg" viewBox="0 0 481.89 293.52"><defs><style>.cls-1{fill:#fff;}.cls-1,.cls-2{stroke:#231f20;stroke-miterlimit:10;}.cls-2{fill:none;}.cls-3{fill:#231f20;}</style></defs><title>flatestudie</title><rect class="cls-1" width="481.89" height="293.52"/><line class="cls-2" x1="481.58" y1="177.4" x2="481.58" y2="0.02"/><line class="cls-2" x1="472.65" y1="177.4" x2="472.65" y2="0.02"/><line class="cls-2" x1="463.73" y1="177.4" x2="463.73" y2="0.02"/><line class="cls-2" x1="454.81" y1="177.4" x2="454.81" y2="0.02"/><line class="cls-2" x1="445.89" y1="177.4" x2="445.89" y2="0.02"/><line class="cls-2" x1="436.96" y1="177.4" x2="436.96" y2="0.02"/><line class="cls-2" x1="428.04" y1="177.4" x2="428.04" y2="0.02"/><line class="cls-2" x1="419.12" y1="177.4" x2="419.12" y2="0.02"/><line class="cls-2" x1="410.2" y1="177.4" x2="410.2" y2="0.02"/><line class="cls-2" x1="401.27" y1="177.4" x2="401.27" y2="0.02"/><line class="cls-2" x1="392.35" y1="177.4" x2="392.35" y2="0.02"/><line class="cls-2" x1="383.43" y1="177.4" x2="383.43" y2="0.02"/><line class="cls-2" x1="374.51" y1="177.4" x2="374.51" y2="0.02"/><line class="cls-2" x1="365.58" y1="177.4" x2="365.58" y2="0.02"/><line class="cls-2" x1="356.66" y1="177.4" x2="356.66" y2="0.02"/><line class="cls-2" x1="347.74" y1="177.4" x2="347.74" y2="0.02"/><line class="cls-2" x1="338.82" y1="177.4" x2="338.82" y2="0.02"/><line class="cls-2" x1="329.89" y1="177.4" x2="329.89" y2="0.02"/><line class="cls-2" x1="320.97" y1="177.4" x2="320.97" y2="0.02"/><line class="cls-2" x1="312.05" y1="177.4" x2="312.05" y2="0.02"/><line class="cls-2" x1="303.13" y1="177.4" x2="303.13" y2="0.02"/><line class="cls-2" x1="294.2" y1="177.4" x2="294.2" y2="0.02"/><line class="cls-2" x1="285.28" y1="177.4" x2="285.28" y2="0.02"/><line class="cls-2" x1="276.36" y1="177.4" x2="276.36" y2="0.02"/><line class="cls-2" x1="267.44" y1="177.4" x2="267.44" y2="0.02"/><line class="cls-2" x1="258.52" y1="177.4" x2="258.52" y2="0.02"/><line class="cls-2" x1="249.59" y1="177.4" x2="249.59" y2="0.02"/><line class="cls-2" x1="231.75" y1="177.4" x2="231.75" y2="0.02"/><line class="cls-2" x1="222.83" y1="177.4" x2="222.83" y2="0.02"/><line class="cls-2" x1="213.9" y1="177.4" x2="213.9" y2="0.02"/><line class="cls-2" x1="204.98" y1="177.4" x2="204.98" y2="0.02"/><line class="cls-2" x1="196.06" y1="177.4" x2="196.06" y2="0.02"/><line class="cls-2" x1="187.14" y1="177.4" x2="187.14" y2="0.02"/><line class="cls-2" x1="178.21" y1="177.4" x2="178.21" y2="0.02"/><line class="cls-2" x1="169.29" y1="177.4" x2="169.29" y2="0.02"/><line class="cls-2" x1="160.37" y1="177.4" x2="160.37" y2="0.02"/><line class="cls-2" x1="151.45" y1="177.4" x2="151.45" y2="0.02"/><line class="cls-2" x1="142.52" y1="177.4" x2="142.52" y2="0.02"/><line class="cls-2" x1="133.6" y1="177.4" x2="133.6" y2="0.02"/><line class="cls-2" x1="124.68" y1="177.4" x2="124.68" y2="0.02"/><line class="cls-2" x1="115.76" y1="177.4" x2="115.76" y2="0.02"/><line class="cls-2" x1="106.83" y1="177.4" x2="106.83" y2="0.02"/><line class="cls-2" x1="97.91" y1="177.4" x2="97.91" y2="0.02"/><line class="cls-2" x1="88.99" y1="177.4" x2="88.99" y2="0.02"/><line class="cls-2" x1="80.07" y1="177.4" x2="80.07" y2="0.02"/><line class="cls-2" x1="71.14" y1="177.4" x2="71.14" y2="0.02"/><line class="cls-2" x1="62.22" y1="177.4" x2="62.22" y2="0.02"/><line class="cls-2" x1="53.3" y1="177.4" x2="53.3" y2="0.02"/><line class="cls-2" x1="44.37" y1="177.4" x2="44.37" y2="0.02"/><line class="cls-2" x1="35.45" y1="177.4" x2="35.45" y2="0.02"/><line class="cls-2" x1="26.53" y1="177.4" x2="26.53" y2="0.02"/><line class="cls-2" x1="17.6" y1="177.4" x2="17.6" y2="0.02"/><line class="cls-2" x1="8.68" y1="177.4" x2="8.68" y2="0.02"/><line class="cls-2" x1="240.67" y1="177.4" x2="240.67" y2="0.02"/><line class="cls-2" x1="477.24" y1="174.3" x2="477.24" y2="0.01"/><line class="cls-2" x1="468.31" y1="174.3" x2="468.31" y2="0.01"/><line class="cls-2" x1="459.38" y1="174.3" x2="459.38" y2="0.01"/><line class="cls-2" x1="450.45" y1="174.3" x2="450.45" y2="0.01"/><line class="cls-2" x1="441.52" y1="174.3" x2="441.52" y2="0.01"/><line class="cls-2" x1="432.59" y1="174.3" x2="432.59" y2="0.01"/><line class="cls-2" x1="423.66" y1="174.3" x2="423.66" y2="0.01"/><line class="cls-2" x1="414.73" y1="174.3" x2="414.73" y2="0.01"/><line class="cls-2" x1="405.8" y1="174.3" x2="405.8" y2="0.01"/><line class="cls-2" x1="396.87" y1="174.3" x2="396.87" y2="0.01"/><line class="cls-2" x1="387.94" y1="174.3" x2="387.94" y2="0.01"/><line class="cls-2" x1="379.01" y1="174.3" x2="379.01" y2="0.01"/><line class="cls-2" x1="370.08" y1="174.3" x2="370.08" y2="0.01"/><line class="cls-2" x1="361.15" y1="174.3" x2="361.15" y2="0.01"/><line class="cls-2" x1="352.22" y1="174.3" x2="352.22" y2="0.01"/><line class="cls-2" x1="343.29" y1="174.3" x2="343.29" y2="0.01"/><line class="cls-2" x1="334.36" y1="174.3" x2="334.36" y2="0.01"/><line class="cls-2" x1="325.43" y1="174.3" x2="325.43" y2="0.01"/><line class="cls-2" x1="316.5" y1="174.3" x2="316.5" y2="0.01"/><line class="cls-2" x1="307.57" y1="174.3" x2="307.57" y2="0.01"/><line class="cls-2" x1="298.64" y1="174.3" x2="298.64" y2="0.01"/><line class="cls-2" x1="289.71" y1="174.3" x2="289.71" y2="0.01"/><line class="cls-2" x1="280.78" y1="174.3" x2="280.78" y2="0.01"/><line class="cls-2" x1="271.85" y1="174.3" x2="271.85" y2="0.01"/><line class="cls-2" x1="262.92" y1="174.3" x2="262.92" y2="0.01"/><line class="cls-2" x1="253.99" y1="174.3" x2="253.99" y2="0.01"/><line class="cls-2" x1="236.13" y1="174.3" x2="236.13" y2="0.01"/><line class="cls-2" x1="227.2" y1="174.3" x2="227.2" y2="0.01"/><line class="cls-2" x1="218.27" y1="174.3" x2="218.27" y2="0.01"/><line class="cls-2" x1="209.34" y1="174.3" x2="209.34" y2="0.01"/><line class="cls-2" x1="200.41" y1="174.3" x2="200.41" y2="0.01"/><line class="cls-2" x1="191.48" y1="174.3" x2="191.48" y2="0.01"/><line class="cls-2" x1="182.55" y1="174.3" x2="182.55" y2="0.01"/><line class="cls-2" x1="173.62" y1="174.3" x2="173.62" y2="0.01"/><line class="cls-2" x1="164.69" y1="174.3" x2="164.69" y2="0.01"/><line class="cls-2" x1="155.76" y1="174.3" x2="155.76" y2="0.01"/><line class="cls-2" x1="146.83" y1="174.3" x2="146.83" y2="0.01"/><line class="cls-2" x1="137.9" y1="174.3" x2="137.9" y2="0.01"/><line class="cls-2" x1="128.97" y1="174.3" x2="128.97" y2="0.01"/><line class="cls-2" x1="120.04" y1="174.3" x2="120.04" y2="0.01"/><line class="cls-2" x1="111.11" y1="174.3" x2="111.11" y2="0.01"/><line class="cls-2" x1="102.18" y1="174.3" x2="102.18" y2="0.01"/><line class="cls-2" x1="93.25" y1="174.3" x2="93.25" y2="0.01"/><line class="cls-2" x1="84.32" y1="174.3" x2="84.32" y2="0.01"/><line class="cls-2" x1="75.39" y1="174.3" x2="75.39" y2="0.01"/><line class="cls-2" x1="66.46" y1="174.3" x2="66.46" y2="0.01"/><line class="cls-2" x1="57.52" y1="174.3" x2="57.52" y2="0.01"/><line class="cls-2" x1="48.59" y1="174.3" x2="48.59" y2="0.01"/><line class="cls-2" x1="39.66" y1="174.3" x2="39.66" y2="0.01"/><line class="cls-2" x1="30.73" y1="174.3" x2="30.73" y2="0.01"/><line class="cls-2" x1="21.8" y1="174.3" x2="21.8" y2="0.01"/><line class="cls-2" x1="12.87" y1="174.3" x2="12.87" y2="0.01"/><line class="cls-2" x1="3.94" y1="174.3" x2="3.94" y2="0.01"/><line class="cls-2" x1="245.06" y1="174.3" x2="245.06" y2="0.01"/><rect class="cls-3" x="306.98" y="168.54" width="174.92" height="17.43"/></svg>