<?xml version="1.0" encoding="UTF-8" standalone="no"?>
<!DOCTYPE svg PUBLIC "-//W3C//DTD SVG 1.1//EN" "http://www.w3.org/Graphics/SVG/1.1/DTD/svg11.dtd">
<svg width="100%" height="100%" viewBox="0 0 1080 1080" version="1.1" xmlns="http://www.w3.org/2000/svg" xmlns:xlink="http://www.w3.org/1999/xlink" xml:space="preserve" xmlns:serif="http://www.serif.com/" style="fill-rule:evenodd;clip-rule:evenodd;stroke-linejoin:round;stroke-miterlimit:2;">
    <g transform="matrix(1,0,0,1,-17.1024,-2525.22)">
        <g id="Bekk" transform="matrix(1.17908,0,0,1.17908,-250.983,2411.49)">
            <rect x="227.368" y="96.451" width="915.97" height="915.97" style="fill:none;"/>
            <clipPath id="_clip1">
                <rect x="227.368" y="96.451" width="915.97" height="915.97"/>
            </clipPath>
            <g clip-path="url(#_clip1)">
                <g transform="matrix(0.750816,0,0,0.750816,-1883.33,73.7491)">
                    <g transform="matrix(1,0,0,1,1456.12,-2240.26)">
                        <rect x="1337.79" y="2240.26" width="1267.61" height="1267.61" style="fill:url(#_Linear2);"/>
                    </g>
                    <g id="bekk.svg" transform="matrix(1.23221,0,0,1.23221,3427.71,640.244)">
                        <g transform="matrix(1,0,0,1,-277.5,-425.5)">
                            <rect id="Artboard1" x="0" y="0" width="554.559" height="850" style="fill:none;"/>
                            <path d="M404.921,698.649C404.921,698.649 426.182,711.396 404.921,723.671C383.659,735.946 350.747,754.949 350.747,754.949L264.068,804.993C264.068,804.993 220.59,829.935 177.389,804.993C134.188,780.05 177.389,754.949 177.389,754.949C177.389,754.949 198.989,742.397 177.389,729.927C155.789,717.456 134.05,729.927 134.05,729.927L112.38,742.438C112.38,742.438 90.305,754.714 69.041,742.438C47.776,730.161 69.041,717.416 69.041,717.416C69.041,717.416 90.762,704.934 69.041,692.394C47.32,679.853 69.041,667.372 69.041,667.372C69.041,667.372 90.6,654.797 112.38,667.372C134.16,679.946 177.389,654.861 177.389,654.861L220,630.195L230.835,623.94C230.835,623.94 252.289,611.304 274.174,623.94C296.06,636.575 404.921,698.649 404.921,698.649Z" style="fill:url(#_Linear3);"/>
                            <path d="M339.912,110.632L469.93,35.566L469.93,235.742L339.912,310.808L339.912,110.632Z" style="fill:url(#_Linear4);"/>
                            <path d="M209.894,160.676L79.876,235.742L79.876,410.896L209.894,485.962L209.894,160.676Z" style="fill:url(#_Linear5);"/>
                            <path d="M144.885,198.209L274.903,123.143L296.573,135.654L188.224,198.209C188.224,198.209 166.554,211.1 166.554,235.742C166.554,260.384 188.224,273.275 188.224,273.275C188.224,273.275 209.894,287.232 209.894,310.808L209.894,335.83L231.563,348.341C231.563,348.341 252.196,361.451 231.563,373.363C210.931,385.275 166.554,410.896 166.554,410.896C166.554,410.896 143.803,422.782 123.215,410.896C102.627,399.01 36.536,360.852 36.536,360.852C36.536,360.852 16.427,347.44 36.536,335.83C56.646,324.22 79.876,310.808 79.876,310.808L79.876,360.852L123.215,385.874C123.215,385.874 145.793,397.861 166.554,385.874C187.316,373.887 188.224,373.363 188.224,373.363C188.224,373.363 208.902,360.279 188.224,348.341C167.547,336.403 166.554,333.832 166.554,310.808C166.554,287.784 144.885,273.275 144.885,273.275C144.885,273.275 123.215,260.3 123.215,235.742C123.215,211.184 144.885,198.209 144.885,198.209Z" style="fill:url(#_Linear6);"/>
                            <path d="M188.224,348.341L209.894,335.83L231.563,348.341C231.563,348.341 252.196,361.451 231.563,373.363C210.931,385.275 166.554,410.896 166.554,410.896C166.554,410.896 143.803,422.782 123.215,410.896C102.627,399.01 36.536,360.852 36.536,360.852C36.536,360.852 16.427,347.44 36.536,335.83C56.646,324.22 79.876,310.808 79.876,310.808L79.876,360.852L123.215,385.874C123.215,385.874 145.793,397.861 166.554,385.874C187.316,373.887 188.224,373.363 188.224,373.363C188.224,373.363 208.902,360.279 188.224,348.341Z" style="fill:url(#_Linear7);"/>
                            <path d="M123.215,385.874C123.215,385.874 143.803,422.782 123.215,410.896C102.627,399.01 36.536,360.852 36.536,360.852C36.536,360.852 16.427,347.44 36.536,335.83C56.646,324.22 79.876,310.808 79.876,310.808L79.876,360.852L123.215,385.874Z" style="fill:url(#_Linear8);"/>
                            <path d="M188.224,373.363C188.224,373.363 252.196,361.451 231.563,373.363C210.931,385.275 166.554,410.896 166.554,410.896C166.554,410.896 143.803,422.782 123.215,410.896C102.627,399.01 36.536,360.852 36.536,360.852L79.876,360.852L123.215,385.874C123.215,385.874 145.793,397.861 166.554,385.874C187.316,373.887 188.224,373.363 188.224,373.363Z" style="fill:url(#_Linear9);"/>
                            <path d="M296.573,335.83L253.233,310.808L253.233,160.676L296.573,135.654L296.573,335.83Z" style="fill:url(#_Linear10);"/>
                            <path d="M253.233,611.072L188.224,573.539L144.885,598.561L209.894,636.094L253.233,611.072Z" style="fill:url(#_Linear11);"/>
                            <path d="M144.885,673.627L209.894,636.094L144.885,598.561L79.876,636.094L144.885,673.627Z" style="fill:url(#_Linear12);"/>
                            <path d="M210.894,556.517C210.894,556.517 232.795,544.14 254.233,556.517C275.671,568.894 254.233,581.539 254.233,581.539L232.563,594.05C232.563,594.05 210.894,607.171 210.894,631.583C210.894,656.541 189.224,669.116 189.224,669.116C189.224,669.116 167.547,681.623 145.885,669.116C124.603,656.829 145.885,644.094 145.885,644.094C145.885,644.094 167.554,631.877 167.554,606.561C167.554,581.246 189.224,569.028 189.224,569.028L210.894,556.517Z" style="fill:url(#_Linear13);"/>
                            <path d="M253.233,310.808L296.573,335.83C296.573,335.83 339.912,361.441 339.912,410.896L339.912,460.94L361.582,473.451C361.582,473.451 382.689,486.287 361.582,498.473C340.474,510.659 339.926,536.994 339.912,536.006C339.898,535.018 339.615,561.199 318.242,573.539C296.869,585.879 296.573,561.028 296.573,561.028C296.573,561.028 296.607,535.986 253.233,561.028C253.233,561.028 231.341,573.411 209.894,561.028C188.446,548.645 209.894,536.006 209.894,536.006L274.903,498.473C274.903,498.473 296.573,485.529 296.573,460.94L296.573,435.918C296.573,435.918 296.862,386.041 253.233,360.852L253.233,310.808Z" style="fill:url(#_Linear14);"/>
                            <path d="M209.894,536.006L339.912,460.94L361.582,473.451C361.582,473.451 382.689,486.287 361.582,498.473C340.474,510.659 339.926,536.994 339.912,536.006C339.898,535.018 339.615,561.199 318.242,573.539C296.869,585.879 296.573,561.028 296.573,561.028C296.573,561.028 296.607,535.986 253.233,561.028C253.233,561.028 231.341,573.411 209.894,561.028C188.446,548.645 209.894,536.006 209.894,536.006Z" style="fill:url(#_Linear15);"/>
                            <path d="M253.233,611.072L144.885,673.627L79.876,636.094L79.876,686.138L144.885,723.671L253.233,661.116L253.233,611.072Z" style="fill:rgb(0,33,70);"/>
                            <path d="M79.876,561.028L209.894,485.962L79.876,410.896L79.876,561.028Z" style="fill:url(#_Linear16);"/>
                            <path d="M339.912,160.676L469.93,235.742C469.93,235.742 513.269,261.391 513.269,310.808L513.269,360.852C513.269,360.852 512.728,386.187 491.6,398.385C470.472,410.583 469.93,385.874 469.93,385.874L469.93,360.852C469.93,360.852 470.062,335.754 448.26,348.341C427.526,360.312 426.591,385.874 426.591,385.874C426.591,385.874 427.649,411.507 448.26,423.407C468.872,435.307 469.93,460.94 469.93,460.94C469.93,460.94 469.412,486.261 448.26,498.473C427.108,510.685 426.591,485.962 426.591,485.962C426.591,485.962 425.682,460.415 404.921,448.429C384.16,436.443 383.251,410.896 383.251,410.896L383.251,385.874C383.251,385.874 382.326,335.296 339.912,310.808" style="fill:url(#_Linear17);"/>
                            <path d="M513.269,435.918L513.269,460.94" style="fill:none;"/>
                            <path d="M449.525,510.254C449.525,510.254 471.194,497.9 471.194,522.765L471.194,547.787C471.194,547.787 471.323,572.735 449.525,585.32C427.726,597.906 427.855,572.809 427.855,572.809L427.855,547.787C427.855,547.787 428.291,522.513 449.525,510.254Z" style="fill:url(#_Linear18);"/>
                            <path d="M339.912,110.632L318.242,98.121L448.26,23.055L469.93,35.566L339.912,110.632Z" style="fill:url(#_Linear19);"/>
                            <path d="M350.748,617.327C350.748,617.327 329.348,629.993 350.748,642.349C372.148,654.704 372.418,654.86 372.418,654.86C372.418,654.86 394.631,667.057 372.418,679.882C350.204,692.707 372.418,704.904 372.418,704.904C372.418,704.904 393.591,717.701 415.757,704.904C437.923,692.107 459.096,679.882 459.096,679.882C459.096,679.882 480.313,667.11 459.096,654.86C437.879,642.61 394.087,617.327 394.087,617.327C394.087,617.327 371.978,605.07 350.748,617.327Z" style="fill:url(#_Linear20);"/>
                            <path d="M318.242,586.05C318.242,586.05 296.573,597.427 296.573,623.583C296.573,648.012 318.242,661.116 318.242,661.116C318.242,661.116 339.571,673.824 361.582,661.116C383.593,648.408 361.582,636.094 361.582,636.094C361.582,636.094 339.912,622.776 339.912,598.561C339.912,572.595 318.242,586.05 318.242,586.05Z" style="fill:url(#_Linear21);"/>
                        </g>
                    </g>
                </g>
            </g>
        </g>
    </g>
    <defs>
        <linearGradient id="_Linear2" x1="0" y1="0" x2="1" y2="0" gradientUnits="userSpaceOnUse" gradientTransform="matrix(1078.69,1004.61,-1004.61,1078.69,1401.62,2367.83)"><stop offset="0" style="stop-color:rgb(0,52,87);stop-opacity:1"/><stop offset="1" style="stop-color:rgb(255,166,140);stop-opacity:1"/></linearGradient>
        <linearGradient id="_Linear3" x1="0" y1="0" x2="1" y2="0" gradientUnits="userSpaceOnUse" gradientTransform="matrix(86.6819,175.152,-175.152,86.6819,69.0376,667.373)"><stop offset="0" style="stop-color:rgb(255,177,133);stop-opacity:1"/><stop offset="0.54" style="stop-color:rgb(189,122,118);stop-opacity:1"/><stop offset="1" style="stop-color:rgb(100,85,115);stop-opacity:1"/></linearGradient>
        <linearGradient id="_Linear4" x1="0" y1="0" x2="1" y2="0" gradientUnits="userSpaceOnUse" gradientTransform="matrix(-198.929,2.43618e-14,-2.43618e-14,-198.929,487.43,130.994)"><stop offset="0" style="stop-color:rgb(2,68,117);stop-opacity:1"/><stop offset="1" style="stop-color:rgb(0,33,65);stop-opacity:1"/></linearGradient>
        <linearGradient id="_Linear5" x1="0" y1="0" x2="1" y2="0" gradientUnits="userSpaceOnUse" gradientTransform="matrix(-111.464,1.36504e-14,-1.36504e-14,-111.464,181.318,392.386)"><stop offset="0" style="stop-color:rgb(2,68,117);stop-opacity:1"/><stop offset="1" style="stop-color:rgb(0,31,73);stop-opacity:1"/></linearGradient>
        <linearGradient id="_Linear6" x1="0" y1="0" x2="1" y2="0" gradientUnits="userSpaceOnUse" gradientTransform="matrix(-171.081,224.962,-224.962,-171.081,264.265,143.573)"><stop offset="0" style="stop-color:rgb(255,177,133);stop-opacity:1"/><stop offset="0.46" style="stop-color:rgb(244,135,119);stop-opacity:1"/><stop offset="0.61" style="stop-color:rgb(208,131,125);stop-opacity:1"/><stop offset="1" style="stop-color:rgb(97,84,115);stop-opacity:1"/></linearGradient>
        <linearGradient id="_Linear7" x1="0" y1="0" x2="1" y2="0" gradientUnits="userSpaceOnUse" gradientTransform="matrix(127.712,-33.4987,33.4987,127.712,188.224,348.341)"><stop offset="0" style="stop-color:rgb(177,119,125);stop-opacity:1"/><stop offset="0.64" style="stop-color:rgb(165,114,124);stop-opacity:1"/><stop offset="0.84" style="stop-color:rgb(134,100,120);stop-opacity:1"/><stop offset="1" style="stop-color:rgb(97,84,115);stop-opacity:1"/></linearGradient>
        <linearGradient id="_Linear8" x1="0" y1="0" x2="1" y2="0" gradientUnits="userSpaceOnUse" gradientTransform="matrix(11.1429,-51.4821,51.4821,11.1429,58.6512,354.955)"><stop offset="0" style="stop-color:rgb(97,84,115);stop-opacity:1"/><stop offset="1" style="stop-color:rgb(176,119,125);stop-opacity:1"/></linearGradient>
        <linearGradient id="_Linear9" x1="0" y1="0" x2="1" y2="0" gradientUnits="userSpaceOnUse" gradientTransform="matrix(-117.693,-4.07497,4.07497,-117.693,185.515,374.927)"><stop offset="0" style="stop-color:rgb(177,119,125);stop-opacity:1"/><stop offset="0.18" style="stop-color:rgb(178,121,124);stop-opacity:1"/><stop offset="0.36" style="stop-color:rgb(179,126,121);stop-opacity:1"/><stop offset="0.69" style="stop-color:rgb(119,95,117);stop-opacity:1"/><stop offset="1" style="stop-color:rgb(97,84,115);stop-opacity:1"/></linearGradient>
        <linearGradient id="_Linear10" x1="0" y1="0" x2="1" y2="0" gradientUnits="userSpaceOnUse" gradientTransform="matrix(-82.4161,1.00931e-14,-1.00931e-14,-82.4161,318.649,247.494)"><stop offset="0" style="stop-color:rgb(2,68,117);stop-opacity:1"/><stop offset="1" style="stop-color:rgb(0,33,65);stop-opacity:1"/></linearGradient>
        <linearGradient id="_Linear11" x1="0" y1="0" x2="1" y2="0" gradientUnits="userSpaceOnUse" gradientTransform="matrix(84.3433,47.8629,-47.8629,84.3433,168.89,584.702)"><stop offset="0" style="stop-color:rgb(0,36,81);stop-opacity:1"/><stop offset="1" style="stop-color:rgb(2,68,117);stop-opacity:1"/></linearGradient>
        <linearGradient id="_Linear12" x1="0" y1="0" x2="1" y2="0" gradientUnits="userSpaceOnUse" gradientTransform="matrix(-97.9626,-103.965,103.965,-97.9626,144.885,698.965)"><stop offset="0" style="stop-color:rgb(97,84,115);stop-opacity:1"/><stop offset="0.34" style="stop-color:rgb(207,127,118);stop-opacity:1"/><stop offset="1" style="stop-color:rgb(255,177,133);stop-opacity:1"/></linearGradient>
        <linearGradient id="_Linear13" x1="0" y1="0" x2="1" y2="0" gradientUnits="userSpaceOnUse" gradientTransform="matrix(-72,87.25,-87.25,-72,241.28,563.263)"><stop offset="0" style="stop-color:rgb(255,177,133);stop-opacity:1"/><stop offset="0.54" style="stop-color:rgb(207,127,118);stop-opacity:1"/><stop offset="1" style="stop-color:rgb(97,84,115);stop-opacity:1"/></linearGradient>
        <linearGradient id="_Linear14" x1="0" y1="0" x2="1" y2="0" gradientUnits="userSpaceOnUse" gradientTransform="matrix(53.4577,117.593,-117.593,53.4577,258.33,359.585)"><stop offset="0" style="stop-color:rgb(255,177,133);stop-opacity:1"/><stop offset="0.43" style="stop-color:rgb(208,128,118);stop-opacity:1"/><stop offset="1" style="stop-color:rgb(97,84,115);stop-opacity:1"/></linearGradient>
        <linearGradient id="_Linear15" x1="0" y1="0" x2="1" y2="0" gradientUnits="userSpaceOnUse" gradientTransform="matrix(-108.648,-187.595,187.595,-108.648,390.796,681.885)"><stop offset="0" style="stop-color:rgb(255,177,133);stop-opacity:1"/><stop offset="0.69" style="stop-color:rgb(208,128,118);stop-opacity:1"/><stop offset="1" style="stop-color:rgb(97,84,115);stop-opacity:1"/></linearGradient>
        <linearGradient id="_Linear16" x1="0" y1="0" x2="1" y2="0" gradientUnits="userSpaceOnUse" gradientTransform="matrix(-93.2443,-155.715,155.715,-93.2443,91.0771,554.561)"><stop offset="0" style="stop-color:rgb(97,84,115);stop-opacity:1"/><stop offset="0.38" style="stop-color:rgb(207,127,118);stop-opacity:1"/><stop offset="1" style="stop-color:rgb(255,177,133);stop-opacity:1"/></linearGradient>
        <linearGradient id="_Linear17" x1="0" y1="0" x2="1" y2="0" gradientUnits="userSpaceOnUse" gradientTransform="matrix(152.065,275.024,-275.024,152.065,344.304,208.184)"><stop offset="0" style="stop-color:rgb(255,177,133);stop-opacity:1"/><stop offset="0.36" style="stop-color:rgb(253,169,131);stop-opacity:1"/><stop offset="0.72" style="stop-color:rgb(247,143,123);stop-opacity:1"/><stop offset="0.87" style="stop-color:rgb(203,133,121);stop-opacity:1"/><stop offset="1" style="stop-color:rgb(107,88,116);stop-opacity:1"/></linearGradient>
        <linearGradient id="_Linear18" x1="0" y1="0" x2="1" y2="0" gradientUnits="userSpaceOnUse" gradientTransform="matrix(-0.872125,-74.5489,74.5489,-0.872125,450.397,584.803)"><stop offset="0" style="stop-color:rgb(247,145,124);stop-opacity:1"/><stop offset="1" style="stop-color:rgb(102,85,115);stop-opacity:1"/></linearGradient>
        <linearGradient id="_Linear19" x1="0" y1="0" x2="1" y2="0" gradientUnits="userSpaceOnUse" gradientTransform="matrix(173.358,-100.088,100.088,173.358,307.407,116.888)"><stop offset="0" style="stop-color:rgb(255,177,133);stop-opacity:1"/><stop offset="0.52" style="stop-color:rgb(227,147,135);stop-opacity:1"/><stop offset="1" style="stop-color:rgb(97,84,115);stop-opacity:1"/></linearGradient>
        <linearGradient id="_Linear20" x1="0" y1="0" x2="1" y2="0" gradientUnits="userSpaceOnUse" gradientTransform="matrix(-65.0091,-125.11,125.11,-65.0091,426.591,723.671)"><stop offset="0" style="stop-color:rgb(110,89,116);stop-opacity:1"/><stop offset="0.42" style="stop-color:rgb(185,120,118);stop-opacity:1"/><stop offset="1" style="stop-color:rgb(255,177,133);stop-opacity:1"/></linearGradient>
        <linearGradient id="_Linear21" x1="0" y1="0" x2="1" y2="0" gradientUnits="userSpaceOnUse" gradientTransform="matrix(40.5497,64.1656,-64.1656,40.5497,321.032,596.95)"><stop offset="0" style="stop-color:rgb(213,133,120);stop-opacity:1"/><stop offset="1" style="stop-color:rgb(104,87,115);stop-opacity:1"/></linearGradient>
    </defs>
</svg>
