<?xml version="1.0" encoding="UTF-8" standalone="no"?>
<!DOCTYPE svg PUBLIC "-//W3C//DTD SVG 1.1//EN" "http://www.w3.org/Graphics/SVG/1.1/DTD/svg11.dtd">
<svg width="100%" height="100%" viewBox="0 0 1080 1080" version="1.1" xmlns="http://www.w3.org/2000/svg" xmlns:xlink="http://www.w3.org/1999/xlink" xml:space="preserve" xmlns:serif="http://www.serif.com/" style="fill-rule:evenodd;clip-rule:evenodd;stroke-linejoin:round;stroke-miterlimit:2;">
    <g transform="matrix(1,0,0,1,-2830.43,-2512.92)">
        <g id="x" transform="matrix(1.17908,0,0,1.17908,2562.34,2399.2)">
            <rect x="227.368" y="96.451" width="915.97" height="915.97" style="fill:none;"/>
            <clipPath id="_clip1">
                <rect x="227.368" y="96.451" width="915.97" height="915.97"/>
            </clipPath>
            <g clip-path="url(#_clip1)">
                <g transform="matrix(0.747526,0,0,0.747526,-793.664,-1591.52)">
                    <rect x="1337.79" y="2240.26" width="1267.61" height="1267.61" style="fill:url(#_Linear2);"/>
                </g>
                <g id="flow_x.svg" transform="matrix(0.586099,0,0,0.586099,680.155,588.013)">
                    <g transform="matrix(1,0,0,1,-605.5,-564)">
                        <rect id="wave" x="0" y="0" width="1210.78" height="1127.36" style="fill:none;"/>
                        <path d="M358.368,182.692L358.368,482.838L397.602,447.68L401.69,332.765L358.368,182.692Z" style="fill:url(#_Linear3);"/>
                        <path d="M418.491,1028.47L363.517,996.731L363.517,930.083L428.973,942.316L418.491,1028.47Z" style="fill:url(#_Linear4);"/>
                        <path d="M506.115,954.283L451.141,922.544L451.141,855.896L516.598,868.129L506.115,954.283Z" style="fill:url(#_Linear5);"/>
                        <path d="M1084.02,726.707L1084.02,176.439L1127.34,201.452L1127.34,751.719" style="fill:url(#_Linear6);"/>
                        <path d="M769.93,595.393L769.93,545.369L1084.02,364.03L1127.34,389.043L769.93,595.393Z" style="fill:url(#_Linear7);"/>
                        <path d="M821.524,723.23L760.209,687.83L782.907,650.431L828.008,628.924L821.524,723.23Z" style="fill:url(#_Linear8);"/>
                        <path d="M907.322,671.194L846.007,635.794L868.705,598.395L913.806,576.888L907.322,671.194Z" style="fill:rgb(148,199,197);"/>
                        <path d="M993.649,647.982L932.334,612.582L955.032,575.183L1000.13,553.676L993.649,647.982Z" style="fill:rgb(148,199,197);"/>
                        <path d="M879.589,439.617L879.589,483.619C879.589,483.619 878.849,495.698 889.062,501.595C910.237,513.82 932.271,501.66 932.271,501.66L975.706,476.582C975.706,476.582 984.953,471.964 984.953,456.909C984.953,435.212 984.953,410.638 984.953,412.962" style="fill:url(#_Linear9);"/>
                        <path d="M889.062,426.558C889.062,426.558 867.748,439.265 889.062,451.57C910.375,463.876 932.384,451.57 932.384,451.57L975.706,426.558C975.706,426.558 996.511,413.558 975.706,401.546C954.901,389.534 932.384,401.546 932.384,401.546L889.062,426.558Z" style="fill:url(#_Linear10);"/>
                        <path d="M564.149,614.152L520.827,589.14L694.116,489.091L737.438,514.103L564.149,614.152Z" style="fill:rgb(236,245,189);"/>
                        <path d="M726.608,895.539L683.285,870.526L683.285,676.682L769.93,676.682L769.93,870.526L726.608,895.539Z" style="fill:url(#_Linear11);"/>
                        <path d="M564.149,614.152L520.827,589.14L520.827,764.225L564.149,789.237L564.149,614.152Z" style="fill:rgb(148,199,197);"/>
                        <path d="M331.751,1053.5L245.232,1003.38L280.666,977.919L335.262,951.401L347.416,969.396L331.751,1053.5Z" style="fill:url(#_Linear12);"/>
                        <path d="M331.751,1053.5L245.232,1003.38L280.666,977.919L335.262,951.401L347.416,969.396L331.751,1053.5Z" style="fill:url(#_Linear13);"/>
                        <path d="M283.446,988.461L195.909,1039L195.784,1039.07C174.346,1051.35 152.587,1039 152.587,1039L88.649,1002.09C88.649,1002.09 87.31,1001.67 65.943,989.334C46.977,978.384 45.181,956.255 45.017,951.418L45.001,951.4L45.006,951.042C44.998,950.67 45.001,950.471 45.001,950.471L45.014,950.479L45.259,932.524L542.488,793.931L542.488,913.98C542.488,913.98 543.3,938.482 520.827,951.457C498.354,964.432 499.166,938.951 499.166,938.951L499.166,913.939C499.166,913.939 499.016,889.013 477.504,901.433C455.993,913.852 455.843,938.951 455.843,938.951L455.843,988.975C455.843,988.975 455.733,1014.05 434.182,1026.49C412.631,1038.94 412.521,1013.99 412.521,1013.99L412.521,963.963C412.521,963.963 412.59,938.911 390.86,951.457C369.13,964.003 369.199,988.975 369.199,988.975L369.199,1001.84L368.907,1014.18C368.907,1014.18 368.382,1039.49 347.246,1051.7C326.11,1063.9 325.585,1039.19 325.585,1039.19L325.876,1026.85L325.876,1001.73C325.866,999.516 325.194,964.716 293.385,983.081C289.646,985.24 286.349,987.016 283.446,988.461Z" style="fill:url(#_Linear14);"/>
                        <path d="M533.914,589.823L385.981,504.414C385.981,504.414 375.598,497.903 359.592,507.144C339.436,518.781 337.931,544.662 337.931,544.662L337.931,682.229L424.575,732.253L524.644,661.972L533.914,589.823Z" style="fill:url(#_Linear15);"/>
                        <path d="M136.102,873.716L390.454,726.472C390.454,726.472 412.996,714.475 434.182,726.707L477.504,751.719C477.538,751.738 527.591,780.608 531.657,782.984C541.708,788.855 550.201,797.143 531.657,807.849C509.562,820.606 503.706,823.986 503.706,823.986L433.907,863.967L324.884,926.912L196.372,1001.11C175.291,1013.28 152.587,1001.38 152.587,1001.38C152.587,1001.38 75.406,956.815 55.112,945.098C32.632,932.119 55.574,919.819 55.574,919.819L134.318,874.356C134.913,874.142 135.508,873.929 136.102,873.716Z" style="fill:url(#_Linear16);"/>
                        <path d="M446.007,640.532L298.074,555.122C298.074,555.122 287.691,548.611 271.685,557.852C251.53,569.489 250.024,595.37 250.024,595.37L250.024,732.937L336.669,782.961L444.975,720.431L446.007,640.532Z" style="fill:url(#_Linear17);"/>
                        <path d="M195.871,864.251C195.871,864.251 174.47,876.907 152.549,864.251C130.628,851.595 55.074,807.973 55.074,807.973C55.074,807.973 32.991,795.711 55.074,782.961C77.156,770.212 163.38,720.431 163.38,720.431C163.38,720.431 185.041,708.574 185.041,682.913L185.041,632.888C185.041,632.888 185.691,607.501 206.702,595.37C224.016,585.374 235.827,591.061 235.827,591.061L359.979,663.969L354.89,772.441L195.871,864.251Z" style="fill:url(#_Linear18);"/>
                        <path d="M890.424,295.8L890.424,339.802C890.424,339.802 889.684,351.881 899.897,357.777C921.072,370.003 943.106,357.843 943.106,357.843L986.542,332.765C986.542,332.765 995.788,328.147 995.788,313.092C995.788,291.395 995.788,266.821 995.788,269.145" style="fill:url(#_Linear19);"/>
                        <path d="M769.93,195.199L769.93,445.32L553.266,320.229L769.93,195.199Z" style="fill:url(#_Linear20);"/>
                        <path d="M844.372,356.625C844.372,356.625 843.37,396.671 843.039,399.987C842.736,403.027 843.756,415.203 834.913,420.308C813.389,432.735 791.591,445.32 791.591,445.32L748.269,420.308L834.913,357.777L844.372,356.625Z" style="fill:url(#_Linear21);"/>
                        <path d="M564.149,564.128L650.794,514.103L661.624,520.356L704.947,495.344L564.149,414.055L564.149,564.128Z" style="fill:url(#_Linear22);"/>
                        <path d="M222.881,540.413C217.732,536.085 217.571,526.609 217.571,526.609L217.571,464.079L260.893,489.091L260.893,516.999L288.278,523.305L268.039,566.485C267.008,566.117 223.664,541.071 222.881,540.413Z" style="fill:url(#_Linear23);"/>
                        <path d="M396.17,465.694C391.021,461.366 390.86,451.891 390.86,451.891L390.86,389.36L434.182,414.372L434.182,442.28L461.567,448.586L441.329,491.767C440.298,491.398 396.953,466.353 396.17,465.694Z" style="fill:url(#_Linear24);"/>
                        <path d="M309.419,540.413C304.271,536.085 304.109,526.609 304.109,526.609L304.109,464.079L340.685,443.023L358.368,507.85L374.817,523.305L354.578,566.485C353.547,566.117 310.203,541.071 309.42,540.413L309.419,540.413Z" style="fill:url(#_Linear25);"/>
                        <path d="M867.405,539.116L824.083,564.128L824.083,514.103L867.405,489.091L867.405,539.116Z" style="fill:url(#_Linear26);"/>
                        <path d="M899.897,282.741C899.897,282.741 878.583,295.448 899.897,307.753C921.21,320.058 943.219,307.753 943.219,307.753L986.542,282.741C986.542,282.741 1007.35,269.741 986.542,257.729C965.736,245.717 943.219,257.729 943.219,257.729L899.897,282.741Z" style="fill:url(#_Linear27);"/>
                        <path d="M864.082,723.703L864.082,767.706C864.082,767.706 863.342,779.785 873.554,785.681C894.73,797.907 916.764,785.746 916.764,785.746L960.199,760.669C960.199,760.669 969.446,756.051 969.446,740.996C969.446,719.299 969.446,694.724 969.446,697.048" style="fill:url(#_Linear28);"/>
                        <path d="M873.554,710.645C873.554,710.645 852.241,723.352 873.554,735.657C894.868,747.962 916.877,735.657 916.877,735.657L960.199,710.645C960.199,710.645 981.004,697.645 960.199,685.633C939.394,673.621 916.877,685.633 916.877,685.633L873.554,710.645Z" style="fill:url(#_Linear29);"/>
                        <path d="M639.963,820.502L596.641,833.008L596.641,770.478L639.963,745.466L639.963,820.502Z" style="fill:url(#_Linear30);"/>
                        <path d="M638.611,871.307L639.963,1096.7L683.285,1071.69L683.285,845.514L638.611,871.307Z" style="fill:url(#_Linear31);"/>
                        <path d="M813.283,645.399L791.591,657.923C770.396,670.161 769.93,695.419 769.93,695.441L769.93,889.298L726.608,895.539L726.608,745.466C726.608,745.466 726.608,746.455 726.608,720.454C726.608,697.204 709.289,705.533 705.623,707.557L683.285,720.454L683.285,838.498L639.963,820.502L639.963,745.466L564.149,789.237L564.149,614.152L737.438,514.103L769.93,532.862L769.93,595.393L1127.34,389.043L1127.34,251.476L1079.74,278.955C1079.74,278.955 1057.71,291.115 1036.53,278.89C1026.32,272.994 1027.06,260.915 1027.06,260.915L1027.06,216.912L1127.34,191.227L1127.34,176.44L1158.54,175.475L1158.54,711.133C1158.54,711.089 1158.54,711.045 1158.54,711.002C1158.55,710.175 1158.55,710.26 1158.55,710.788C1158.55,710.858 1158.54,710.93 1158.54,711.002L1158.54,711.279L1158.54,712.437L1158.54,769.73C1158.54,769.73 1159.22,782.672 1149.72,788.798C1149.27,789.101 1149,789.239 1149,789.24L1127.34,801.743L1008.2,870.526C1008.2,870.526 986.169,882.687 964.993,870.461C954.781,864.565 955.521,852.486 955.521,852.486L955.521,808.483L1127.34,751.719L1127.34,489.091C1127.34,464.026 1105.68,476.585 1105.68,476.585L1073.22,495.327C1073.22,495.327 1073.18,495.349 1051.56,507.833C1029.93,520.317 1029.89,545.351 1029.89,545.351L1029.89,607.881C1029.89,607.881 1029.86,632.913 1008.23,645.399C986.606,657.886 986.572,632.893 986.572,632.893L986.572,595.375C986.572,595.375 986.915,570.165 964.911,582.869C942.907,595.573 943.25,620.387 943.25,620.387L943.25,631.125C943.25,631.125 942.877,656.353 921.589,668.643C900.301,680.934 899.927,656.137 899.927,656.137L899.927,632.893C899.927,632.893 899.222,608.288 878.266,620.387C857.31,632.486 856.605,657.906 856.605,657.906L856.605,682.918C856.605,682.918 855.867,708.356 834.944,720.436C814.021,732.516 813.283,707.93 813.283,707.93L813.283,645.399Z" style="fill:url(#_Linear32);"/>
                        <path d="M868.763,583.439L868.763,627.442C868.763,627.442 868.023,639.521 878.236,645.417C899.411,657.643 921.445,645.482 921.445,645.482L964.88,620.405C964.88,620.405 974.127,615.787 974.127,600.731C974.127,579.035 974.127,554.46 974.127,556.784" style="fill:url(#_Linear33);"/>
                        <path d="M878.236,570.381C878.236,570.381 856.922,583.088 878.236,595.393C899.549,607.698 921.558,595.393 921.558,595.393L964.88,570.381C964.88,570.381 985.686,557.381 964.88,545.369C944.075,533.357 921.558,545.369 921.558,545.369L878.236,570.381Z" style="fill:url(#_Linear34);"/>
                        <path d="M694.116,288.994L737.438,314.006L694.116,339.018L694.116,288.994Z" style="fill:url(#_Linear35);"/>
                        <path d="M737.438,263.982L737.438,314.006L694.116,288.994L737.438,263.982Z" style="fill:url(#_Linear36);"/>
                        <path d="M694.792,588.75L738.114,613.762L694.792,638.774L694.792,588.75Z" style="fill:url(#_Linear37);"/>
                        <path d="M596.641,645.417L639.963,670.429L596.641,695.441L596.641,645.417Z" style="fill:url(#_Linear38);"/>
                        <path d="M738.114,563.737L738.114,613.762L694.792,588.75L738.114,563.737Z" style="fill:url(#_Linear39);"/>
                        <path d="M867.405,489.091L867.405,539.116L824.083,514.103L867.405,489.091Z" style="fill:rgb(148,199,197);"/>
                        <path d="M639.963,620.405L639.963,670.429L596.641,645.417L639.963,620.405Z" style="fill:url(#_Linear40);"/>
                        <path d="M168.566,961.041L168.566,911.017L211.888,936.029L168.566,961.041Z" style="fill:url(#_Linear41);"/>
                        <path d="M168.566,911.017L125.244,936.029L168.566,961.041L168.566,911.017Z" style="fill:url(#_Linear42);"/>
                        <path d="M255.211,911.017L255.211,860.993L298.533,886.005L255.211,911.017Z" style="fill:url(#_Linear43);"/>
                        <path d="M255.211,860.993L211.888,886.005L255.211,911.017L255.211,860.993Z" style="fill:url(#_Linear44);"/>
                        <path d="M428.5,760.944L298.533,835.981L341.855,860.993L428.973,810.695L428.5,760.944Z" style="fill:url(#_Linear45);"/>
                        <path d="M428.5,760.944L298.533,835.981L341.855,860.993L428.973,810.695L428.5,760.944Z" style="fill:url(#_Linear46);"/>
                        <path d="M428.5,810.969L428.5,760.944L471.822,785.956L428.5,810.969Z" style="fill:url(#_Linear47);"/>
                        <path d="M964.88,795.49C964.88,795.49 943.011,807.876 964.88,820.502C986.75,833.129 1008.2,820.502 1008.2,820.502L1127.34,751.719L1084.02,726.707L964.88,795.49Z" style="fill:url(#_Linear48);"/>
                        <path d="M1076.98,180.501L1105.68,163.933C1105.68,163.933 1127.55,151.548 1149,163.933C1170.45,176.319 1149,188.946 1149,188.946L1118.2,206.726L1079.66,228.976C1079.66,228.976 1058.21,241.602 1036.34,228.976C1014.47,216.349 1036.34,203.964 1036.34,203.964L1076.98,180.501Z" style="fill:url(#_Linear49);"/>
                        <path d="M380.014,345.262C379.359,344.887 358.451,332.71 358.368,307.901L358.368,307.753L358.368,482.838L315.046,457.826L304.215,451.573C304.215,451.573 282.554,439.411 282.554,426.561C282.554,413.71 283.976,70.282 283.976,70.282L283.976,44.446L380.029,82.644L380.029,225.662L507.443,331.291L824.083,514.103L824.083,564.128L661.624,470.332L661.624,520.356L618.302,495.344L618.302,445.32L564.149,414.055L564.149,564.128L520.827,539.116L520.827,459.344C520.827,431.708 505.663,419.302 498.16,414.635L380.029,345.271L380.014,345.262Z" style="fill:url(#_Linear50);"/>
                        <path d="M217.571,464.079L260.893,489.091L520.827,339.018L824.083,514.103L867.405,489.091L791.591,445.32C791.591,445.32 747.939,420.498 791.591,395.296C791.773,395.19 824.67,376.198 833.009,371.383C834.22,370.684 834.913,370.284 834.913,370.284C834.913,370.284 856.562,357.77 834.913,345.271C835.159,345.413 813.572,332.58 791.591,345.271C791.591,344.431 704.947,395.296 704.947,395.296L564.149,314.006L769.93,195.199L726.608,170.186L520.827,288.994L445.013,245.223C445.013,245.223 401.69,223.221 401.69,170.186L401.69,70.138L358.368,45.126C358.368,45.126 312.528,39.441 315.046,70.138C315.005,70.161 358.368,95.15 358.368,95.15L358.368,195.199C358.368,195.199 355.414,243.517 401.69,270.235C444.397,294.892 477.504,314.006 477.504,314.006L461.548,323.219L217.571,464.079Z" style="fill:url(#_Linear51);"/>
                        <path d="M401.69,70.138L336.707,32.62C336.707,32.62 314.555,20.397 293.385,32.62C272.215,44.842 293.385,57.632 293.385,57.632L358.368,95.15L401.69,70.138Z" style="fill:url(#_Linear52);"/>
                        <path d="M260.893,489.091L260.893,551.622C260.893,551.622 261.631,576.208 282.554,564.128C303.477,552.048 304.215,526.609 304.215,526.609L304.215,501.597C304.215,501.597 304.92,476.178 325.876,464.079C346.832,451.98 347.537,476.585 347.537,476.585L347.537,551.622C347.537,551.622 347.911,576.418 369.199,564.128C390.487,551.837 390.86,526.609 390.86,526.609L390.86,464.079C390.86,464.079 390.517,439.265 412.521,426.561C434.525,413.857 434.182,439.067 434.182,439.067L434.182,476.585C434.182,476.585 434.216,501.578 455.843,489.091C477.47,476.605 477.504,451.573 477.504,451.573L477.504,389.043C477.504,389.043 477.543,364.008 499.166,351.524C520.789,339.04 520.827,339.018 520.827,339.018L260.893,489.091Z" style="fill:url(#_Linear53);"/>
                        <path d="M488.374,695.374L279.314,816.075C279.314,816.075 279.352,816.053 300.975,803.569C322.598,791.085 322.636,766.051 322.636,766.051L322.636,703.521C322.636,703.521 322.67,678.489 344.297,666.002C365.924,653.516 365.958,678.508 365.958,678.508L365.958,716.027C365.958,716.027 365.615,741.237 387.619,728.533C409.624,715.829 409.281,691.014 409.281,691.014L409.281,680.277C409.281,680.277 409.654,655.049 430.942,642.759C452.23,630.468 452.603,655.265 452.603,655.265L452.603,678.508C452.603,678.508 453.308,703.113 474.264,691.014C495.22,678.916 495.925,653.496 495.925,653.496L495.925,628.484C495.925,628.484 496.663,603.046 517.586,590.966C538.509,578.886 539.248,603.472 539.248,603.472L539.248,624.457L538.989,625.122L539.248,624.787L539.248,641.035C539.248,641.035 542.142,664.376 520.827,676.682C499.512,688.988 488.335,695.441 488.335,695.441L488.374,695.374Z" style="fill:url(#_Linear54);"/>
                        <path d="M857.933,864.038L857.933,908.041C857.933,908.041 857.193,920.12 867.405,926.016C888.581,938.242 910.615,926.081 910.615,926.081L954.05,901.004C954.05,901.004 963.297,896.386 963.297,881.331C963.297,859.634 963.297,835.059 963.297,837.383" style="fill:url(#_Linear55);"/>
                        <path d="M867.405,850.98C867.405,850.98 846.092,863.687 867.405,875.992C888.719,888.297 910.727,875.992 910.727,875.992L954.05,850.98C954.05,850.98 974.855,837.98 954.05,825.968C933.244,813.956 910.727,825.968 910.727,825.968L867.405,850.98Z" style="fill:url(#_Linear56);"/>
                        <path d="M596.641,833.008L807.837,931.5L866.513,895.722L866.513,940.356C866.513,954.877 856.575,959.638 856.575,959.638C856.575,959.638 835.029,972.078 813.252,984.651C791.476,997.223 769.93,984.651 769.93,984.651L639.963,908.117L639.963,1096.7L596.641,1071.69L596.641,833.008Z" style="fill:url(#_Linear57);"/>
                        <path d="M639.963,807.996L596.641,833.008L769.93,933.057C769.93,933.057 792.19,945.217 813.252,933.057C834.315,920.896 834.913,920.551 834.913,920.551L856.575,908.045C856.575,908.045 878.936,895.943 856.575,883.033C834.213,870.122 813.252,883.033 813.252,883.033C813.252,883.033 789.906,894.566 769.93,883.033C749.954,871.499 639.963,807.996 639.963,807.996Z" style="fill:url(#_Linear58);"/>
                    </g>
                </g>
            </g>
        </g>
    </g>
    <defs>
        <linearGradient id="_Linear2" x1="0" y1="0" x2="1" y2="0" gradientUnits="userSpaceOnUse" gradientTransform="matrix(1078.69,1004.61,-1004.61,1078.69,1401.62,2367.83)"><stop offset="0" style="stop-color:rgb(148,199,197);stop-opacity:1"/><stop offset="1" style="stop-color:rgb(245,191,181);stop-opacity:1"/></linearGradient>
        <linearGradient id="_Linear3" x1="0" y1="0" x2="1" y2="0" gradientUnits="userSpaceOnUse" gradientTransform="matrix(10.8306,-81.2895,81.2895,10.8306,369.199,401.549)"><stop offset="0" style="stop-color:rgb(246,226,159);stop-opacity:1"/><stop offset="0.56" style="stop-color:rgb(241,212,175);stop-opacity:1"/><stop offset="1" style="stop-color:rgb(223,159,238);stop-opacity:1"/></linearGradient>
        <linearGradient id="_Linear4" x1="0" y1="0" x2="1" y2="0" gradientUnits="userSpaceOnUse" gradientTransform="matrix(-37.6402,-115.835,115.835,-37.6402,363.517,1080.16)"><stop offset="0" style="stop-color:rgb(148,199,197);stop-opacity:1"/><stop offset="0.53" style="stop-color:rgb(160,187,187);stop-opacity:1"/><stop offset="1" style="stop-color:rgb(199,148,154);stop-opacity:1"/></linearGradient>
        <linearGradient id="_Linear5" x1="0" y1="0" x2="1" y2="0" gradientUnits="userSpaceOnUse" gradientTransform="matrix(-32.4917,-81.2895,81.2895,-32.4917,358.368,1033.11)"><stop offset="0" style="stop-color:rgb(148,199,197);stop-opacity:1"/><stop offset="0.53" style="stop-color:rgb(160,187,187);stop-opacity:1"/><stop offset="1" style="stop-color:rgb(199,148,154);stop-opacity:1"/></linearGradient>
        <linearGradient id="_Linear6" x1="0" y1="0" x2="1" y2="0" gradientUnits="userSpaceOnUse" gradientTransform="matrix(-75.8188,-6.25576,6.25576,-75.8188,1149,351.524)"><stop offset="0" style="stop-color:rgb(148,199,197);stop-opacity:1"/><stop offset="1" style="stop-color:rgb(222,223,182);stop-opacity:1"/></linearGradient>
        <linearGradient id="_Linear7" x1="0" y1="0" x2="1" y2="0" gradientUnits="userSpaceOnUse" gradientTransform="matrix(270.764,143.82,-143.82,270.764,834.913,370.284)"><stop offset="0" style="stop-color:rgb(192,189,245);stop-opacity:1"/><stop offset="0.21" style="stop-color:rgb(241,228,161);stop-opacity:1"/><stop offset="0.39" style="stop-color:rgb(240,232,168);stop-opacity:1"/><stop offset="0.58" style="stop-color:rgb(236,245,189);stop-opacity:1"/><stop offset="0.78" style="stop-color:rgb(185,220,206);stop-opacity:1"/><stop offset="1" style="stop-color:rgb(43,153,254);stop-opacity:1"/></linearGradient>
        <linearGradient id="_Linear8" x1="0" y1="0" x2="1" y2="0" gradientUnits="userSpaceOnUse" gradientTransform="matrix(2.89771,-110.882,110.882,2.89771,794.109,721.907)"><stop offset="0" style="stop-color:rgb(148,199,197);stop-opacity:1"/><stop offset="1" style="stop-color:rgb(177,50,70);stop-opacity:1"/></linearGradient>
        <linearGradient id="_Linear9" x1="0" y1="0" x2="1" y2="0" gradientUnits="userSpaceOnUse" gradientTransform="matrix(-16.3695,691.032,-691.032,-16.3695,948.634,248.349)"><stop offset="0" style="stop-color:rgb(243,195,183);stop-opacity:1"/><stop offset="0.23" style="stop-color:rgb(209,149,245);stop-opacity:1"/><stop offset="0.4" style="stop-color:rgb(154,249,219);stop-opacity:1"/><stop offset="0.62" style="stop-color:rgb(93,203,248);stop-opacity:1"/><stop offset="0.83" style="stop-color:rgb(235,146,188);stop-opacity:1"/><stop offset="1" style="stop-color:rgb(238,221,170);stop-opacity:1"/></linearGradient>
        <linearGradient id="_Linear10" x1="0" y1="0" x2="1" y2="0" gradientUnits="userSpaceOnUse" gradientTransform="matrix(-54.1529,519.002,-519.002,-54.1529,943.219,245.223)"><stop offset="0" style="stop-color:rgb(243,231,167);stop-opacity:1"/><stop offset="0.26" style="stop-color:rgb(237,237,135);stop-opacity:1"/><stop offset="0.55" style="stop-color:rgb(237,217,146);stop-opacity:1"/><stop offset="0.8" style="stop-color:rgb(194,245,189);stop-opacity:1"/><stop offset="1" style="stop-color:rgb(236,245,189);stop-opacity:1"/></linearGradient>
        <linearGradient id="_Linear11" x1="0" y1="0" x2="1" y2="0" gradientUnits="userSpaceOnUse" gradientTransform="matrix(0.865613,-175.585,175.585,0.865613,769.93,820.502)"><stop offset="0" style="stop-color:rgb(148,199,197);stop-opacity:1"/><stop offset="0.46" style="stop-color:rgb(156,156,161);stop-opacity:1"/><stop offset="1" style="stop-color:rgb(177,50,70);stop-opacity:1"/></linearGradient>
        <linearGradient id="_Linear12" x1="0" y1="0" x2="1" y2="0" gradientUnits="userSpaceOnUse" gradientTransform="matrix(-75.814,-181.338,181.338,-75.814,407.26,1141.55)"><stop offset="0" style="stop-color:rgb(148,199,197);stop-opacity:1"/><stop offset="0.53" style="stop-color:rgb(160,187,187);stop-opacity:1"/><stop offset="1" style="stop-color:rgb(199,148,154);stop-opacity:1"/></linearGradient>
        <linearGradient id="_Linear13" x1="0" y1="0" x2="1" y2="0" gradientUnits="userSpaceOnUse" gradientTransform="matrix(-75.814,-181.338,181.338,-75.814,407.26,1141.55)"><stop offset="0" style="stop-color:rgb(148,199,197);stop-opacity:1"/><stop offset="0.53" style="stop-color:rgb(160,187,187);stop-opacity:1"/><stop offset="1" style="stop-color:rgb(199,148,154);stop-opacity:1"/></linearGradient>
        <linearGradient id="_Linear14" x1="0" y1="0" x2="1" y2="0" gradientUnits="userSpaceOnUse" gradientTransform="matrix(519.868,-12.5061,12.5061,519.868,33.4501,1070.62)"><stop offset="0" style="stop-color:rgb(148,199,197);stop-opacity:1"/><stop offset="0.14" style="stop-color:rgb(175,198,193);stop-opacity:1"/><stop offset="0.3" style="stop-color:rgb(243,195,183);stop-opacity:1"/><stop offset="0.46" style="stop-color:rgb(235,191,197);stop-opacity:1"/><stop offset="0.67" style="stop-color:rgb(218,183,230);stop-opacity:1"/><stop offset="1" style="stop-color:rgb(243,195,183);stop-opacity:1"/></linearGradient>
        <linearGradient id="_Linear15" x1="0" y1="0" x2="1" y2="0" gradientUnits="userSpaceOnUse" gradientTransform="matrix(46.7169,-76.9963,76.9963,46.7169,412.521,626.658)"><stop offset="0" style="stop-color:rgb(154,195,197);stop-opacity:1"/><stop offset="1" style="stop-color:rgb(127,155,186);stop-opacity:1"/></linearGradient>
        <linearGradient id="_Linear16" x1="0" y1="0" x2="1" y2="0" gradientUnits="userSpaceOnUse" gradientTransform="matrix(378.678,-218.63,218.63,378.678,109.667,976.596)"><stop offset="0" style="stop-color:rgb(236,245,189);stop-opacity:1"/><stop offset="0.27" style="stop-color:rgb(237,237,185);stop-opacity:1"/><stop offset="0.55" style="stop-color:rgb(241,212,173);stop-opacity:1"/><stop offset="1" style="stop-color:rgb(236,245,189);stop-opacity:1"/></linearGradient>
        <linearGradient id="_Linear17" x1="0" y1="0" x2="1" y2="0" gradientUnits="userSpaceOnUse" gradientTransform="matrix(46.4498,-89.8804,89.8804,46.4498,298.761,673.533)"><stop offset="0" style="stop-color:rgb(154,195,197);stop-opacity:1"/><stop offset="0.62" style="stop-color:rgb(150,189,195);stop-opacity:1"/><stop offset="0.82" style="stop-color:rgb(140,175,191);stop-opacity:1"/><stop offset="1" style="stop-color:rgb(130,160,187);stop-opacity:1"/></linearGradient>
        <linearGradient id="_Linear18" x1="0" y1="0" x2="1" y2="0" gradientUnits="userSpaceOnUse" gradientTransform="matrix(150.157,-249.272,249.272,150.157,118.201,859.114)"><stop offset="0" style="stop-color:rgb(236,245,189);stop-opacity:1"/><stop offset="0.31" style="stop-color:rgb(220,236,190);stop-opacity:1"/><stop offset="0.56" style="stop-color:rgb(158,204,196);stop-opacity:1"/><stop offset="0.8" style="stop-color:rgb(151,193,194);stop-opacity:1"/><stop offset="1" style="stop-color:rgb(127,155,186);stop-opacity:1"/></linearGradient>
        <linearGradient id="_Linear19" x1="0" y1="0" x2="1" y2="0" gradientUnits="userSpaceOnUse" gradientTransform="matrix(-16.3695,691.032,-691.032,-16.3695,948.634,248.349)"><stop offset="0" style="stop-color:rgb(243,195,183);stop-opacity:1"/><stop offset="0.1" style="stop-color:rgb(237,187,194);stop-opacity:1"/><stop offset="0.14" style="stop-color:rgb(224,168,219);stop-opacity:1"/><stop offset="0.17" style="stop-color:rgb(210,149,245);stop-opacity:1"/><stop offset="0.4" style="stop-color:rgb(246,149,125);stop-opacity:1"/><stop offset="0.62" style="stop-color:rgb(93,203,248);stop-opacity:1"/><stop offset="0.83" style="stop-color:rgb(235,146,188);stop-opacity:1"/><stop offset="1" style="stop-color:rgb(238,221,170);stop-opacity:1"/></linearGradient>
        <linearGradient id="_Linear20" x1="0" y1="0" x2="1" y2="0" gradientUnits="userSpaceOnUse" gradientTransform="matrix(-205.728,368.96,-368.96,-205.728,769.877,195.168)"><stop offset="0" style="stop-color:rgb(245,207,209);stop-opacity:1"/><stop offset="0.57" style="stop-color:rgb(232,157,168);stop-opacity:1"/><stop offset="1" style="stop-color:rgb(243,195,183);stop-opacity:1"/></linearGradient>
        <linearGradient id="_Linear21" x1="0" y1="0" x2="1" y2="0" gradientUnits="userSpaceOnUse" gradientTransform="matrix(64.9835,-75.0364,75.0364,64.9835,802.422,451.573)"><stop offset="0" style="stop-color:rgb(243,195,183);stop-opacity:1"/><stop offset="1" style="stop-color:rgb(208,187,241);stop-opacity:1"/></linearGradient>
        <linearGradient id="_Linear22" x1="0" y1="0" x2="1" y2="0" gradientUnits="userSpaceOnUse" gradientTransform="matrix(-205.728,368.96,-368.96,-205.728,769.877,195.168)"><stop offset="0" style="stop-color:rgb(245,207,209);stop-opacity:1"/><stop offset="0.57" style="stop-color:rgb(232,157,168);stop-opacity:1"/><stop offset="1" style="stop-color:rgb(243,195,183);stop-opacity:1"/></linearGradient>
        <linearGradient id="_Linear23" x1="0" y1="0" x2="1" y2="0" gradientUnits="userSpaceOnUse" gradientTransform="matrix(313.606,1.31807,-1.31807,313.606,180.77,447.807)"><stop offset="0" style="stop-color:rgb(135,199,196);stop-opacity:1"/><stop offset="0.13" style="stop-color:rgb(145,193,202);stop-opacity:1"/><stop offset="0.26" style="stop-color:rgb(174,174,221);stop-opacity:1"/><stop offset="0.39" style="stop-color:rgb(165,178,212);stop-opacity:1"/><stop offset="0.46" style="stop-color:rgb(154,184,201);stop-opacity:1"/><stop offset="0.68" style="stop-color:rgb(147,187,194);stop-opacity:1"/><stop offset="0.74" style="stop-color:rgb(158,182,205);stop-opacity:1"/><stop offset="0.82" style="stop-color:rgb(169,177,216);stop-opacity:1"/><stop offset="1" style="stop-color:rgb(174,174,221);stop-opacity:1"/></linearGradient>
        <linearGradient id="_Linear24" x1="0" y1="0" x2="1" y2="0" gradientUnits="userSpaceOnUse" gradientTransform="matrix(313.606,1.31807,-1.31807,313.606,180.77,447.807)"><stop offset="0" style="stop-color:rgb(112,181,178);stop-opacity:1"/><stop offset="0.13" style="stop-color:rgb(128,179,189);stop-opacity:1"/><stop offset="0.26" style="stop-color:rgb(174,174,221);stop-opacity:1"/><stop offset="0.4" style="stop-color:rgb(165,178,212);stop-opacity:1"/><stop offset="0.43" style="stop-color:rgb(159,181,206);stop-opacity:1"/><stop offset="0.73" style="stop-color:rgb(147,187,194);stop-opacity:1"/><stop offset="0.86" style="stop-color:rgb(168,177,215);stop-opacity:1"/><stop offset="1" style="stop-color:rgb(174,174,221);stop-opacity:1"/></linearGradient>
        <linearGradient id="_Linear25" x1="0" y1="0" x2="1" y2="0" gradientUnits="userSpaceOnUse" gradientTransform="matrix(313.606,1.31807,-1.31807,313.606,180.77,447.807)"><stop offset="0" style="stop-color:rgb(151,196,199);stop-opacity:1"/><stop offset="0.12" style="stop-color:rgb(158,189,206);stop-opacity:1"/><stop offset="0.26" style="stop-color:rgb(174,174,221);stop-opacity:1"/><stop offset="0.29" style="stop-color:rgb(164,183,212);stop-opacity:1"/><stop offset="0.43" style="stop-color:rgb(151,196,199);stop-opacity:1"/><stop offset="0.51" style="stop-color:rgb(151,180,211);stop-opacity:1"/><stop offset="0.64" style="stop-color:rgb(150,181,208);stop-opacity:1"/><stop offset="0.72" style="stop-color:rgb(147,187,194);stop-opacity:1"/><stop offset="0.77" style="stop-color:rgb(159,181,206);stop-opacity:1"/><stop offset="1" style="stop-color:rgb(174,174,221);stop-opacity:1"/></linearGradient>
        <linearGradient id="_Linear26" x1="0" y1="0" x2="1" y2="0" gradientUnits="userSpaceOnUse" gradientTransform="matrix(-64.9835,-37.5182,37.5182,-64.9835,867.405,551.622)"><stop offset="0" style="stop-color:rgb(236,244,188);stop-opacity:1"/><stop offset="0.5" style="stop-color:rgb(221,213,200);stop-opacity:1"/><stop offset="1" style="stop-color:rgb(176,120,236);stop-opacity:1"/></linearGradient>
        <linearGradient id="_Linear27" x1="0" y1="0" x2="1" y2="0" gradientUnits="userSpaceOnUse" gradientTransform="matrix(-54.1529,519.002,-519.002,-54.1529,943.219,245.223)"><stop offset="0" style="stop-color:rgb(243,231,167);stop-opacity:1"/><stop offset="0.26" style="stop-color:rgb(237,237,135);stop-opacity:1"/><stop offset="0.55" style="stop-color:rgb(237,217,146);stop-opacity:1"/><stop offset="0.8" style="stop-color:rgb(194,245,189);stop-opacity:1"/><stop offset="1" style="stop-color:rgb(236,245,189);stop-opacity:1"/></linearGradient>
        <linearGradient id="_Linear28" x1="0" y1="0" x2="1" y2="0" gradientUnits="userSpaceOnUse" gradientTransform="matrix(-16.3695,691.032,-691.032,-16.3695,948.634,248.349)"><stop offset="0" style="stop-color:rgb(243,195,183);stop-opacity:1"/><stop offset="0.23" style="stop-color:rgb(245,168,149);stop-opacity:1"/><stop offset="0.4" style="stop-color:rgb(246,149,125);stop-opacity:1"/><stop offset="0.62" style="stop-color:rgb(93,203,248);stop-opacity:1"/><stop offset="0.83" style="stop-color:rgb(235,146,188);stop-opacity:1"/><stop offset="1" style="stop-color:rgb(238,221,170);stop-opacity:1"/></linearGradient>
        <linearGradient id="_Linear29" x1="0" y1="0" x2="1" y2="0" gradientUnits="userSpaceOnUse" gradientTransform="matrix(-54.1529,519.002,-519.002,-54.1529,943.219,245.223)"><stop offset="0" style="stop-color:rgb(243,231,167);stop-opacity:1"/><stop offset="0.26" style="stop-color:rgb(237,237,135);stop-opacity:1"/><stop offset="0.55" style="stop-color:rgb(237,217,146);stop-opacity:1"/><stop offset="0.8" style="stop-color:rgb(196,189,245);stop-opacity:1"/><stop offset="1" style="stop-color:rgb(236,245,189);stop-opacity:1"/></linearGradient>
        <linearGradient id="_Linear30" x1="0" y1="0" x2="1" y2="0" gradientUnits="userSpaceOnUse" gradientTransform="matrix(20.5355,-119.458,119.458,20.5355,662.75,814.899)"><stop offset="0" style="stop-color:rgb(148,199,197);stop-opacity:1"/><stop offset="1" style="stop-color:rgb(177,50,70);stop-opacity:1"/></linearGradient>
        <linearGradient id="_Linear31" x1="0" y1="0" x2="1" y2="0" gradientUnits="userSpaceOnUse" gradientTransform="matrix(552.359,-18.7591,18.7591,552.359,564.149,764.225)"><stop offset="0" style="stop-color:rgb(243,195,183);stop-opacity:1"/><stop offset="0.23" style="stop-color:rgb(248,180,177);stop-opacity:1"/><stop offset="0.28" style="stop-color:rgb(251,170,174);stop-opacity:1"/><stop offset="0.41" style="stop-color:rgb(225,180,186);stop-opacity:1"/><stop offset="0.57" style="stop-color:rgb(157,207,217);stop-opacity:1"/><stop offset="0.8" style="stop-color:rgb(219,206,197);stop-opacity:1"/><stop offset="1" style="stop-color:rgb(245,205,189);stop-opacity:1"/></linearGradient>
        <linearGradient id="_Linear32" x1="0" y1="0" x2="1" y2="0" gradientUnits="userSpaceOnUse" gradientTransform="matrix(552.359,-18.7591,18.7591,552.359,564.149,764.225)"><stop offset="0" style="stop-color:rgb(243,195,183);stop-opacity:1"/><stop offset="0.23" style="stop-color:rgb(248,180,177);stop-opacity:1"/><stop offset="0.28" style="stop-color:rgb(251,170,174);stop-opacity:1"/><stop offset="0.43" style="stop-color:rgb(225,180,186);stop-opacity:1"/><stop offset="0.6" style="stop-color:rgb(157,207,217);stop-opacity:1"/><stop offset="1" style="stop-color:rgb(245,205,189);stop-opacity:1"/></linearGradient>
        <linearGradient id="_Linear33" x1="0" y1="0" x2="1" y2="0" gradientUnits="userSpaceOnUse" gradientTransform="matrix(-16.3695,691.032,-691.032,-16.3695,948.634,248.349)"><stop offset="0" style="stop-color:rgb(243,195,183);stop-opacity:1"/><stop offset="0.23" style="stop-color:rgb(245,168,149);stop-opacity:1"/><stop offset="0.4" style="stop-color:rgb(246,149,125);stop-opacity:1"/><stop offset="0.62" style="stop-color:rgb(93,203,248);stop-opacity:1"/><stop offset="0.83" style="stop-color:rgb(235,146,188);stop-opacity:1"/><stop offset="1" style="stop-color:rgb(238,221,170);stop-opacity:1"/></linearGradient>
        <linearGradient id="_Linear34" x1="0" y1="0" x2="1" y2="0" gradientUnits="userSpaceOnUse" gradientTransform="matrix(-54.1529,519.002,-519.002,-54.1529,943.219,245.223)"><stop offset="0" style="stop-color:rgb(243,231,167);stop-opacity:1"/><stop offset="0.26" style="stop-color:rgb(237,237,135);stop-opacity:1"/><stop offset="0.55" style="stop-color:rgb(237,217,146);stop-opacity:1"/><stop offset="0.8" style="stop-color:rgb(194,245,189);stop-opacity:1"/><stop offset="1" style="stop-color:rgb(236,245,189);stop-opacity:1"/></linearGradient>
        <linearGradient id="_Linear35" x1="0" y1="0" x2="1" y2="0" gradientUnits="userSpaceOnUse" gradientTransform="matrix(43.3223,37.5182,-37.5182,43.3223,661.624,307.753)"><stop offset="0" style="stop-color:rgb(189,197,245);stop-opacity:1"/><stop offset="1" style="stop-color:rgb(236,245,189);stop-opacity:1"/></linearGradient>
        <linearGradient id="_Linear36" x1="0" y1="0" x2="1" y2="0" gradientUnits="userSpaceOnUse" gradientTransform="matrix(63.555,32.2769,-32.2769,63.555,690.291,266.19)"><stop offset="0" style="stop-color:rgb(136,112,181);stop-opacity:1"/><stop offset="1" style="stop-color:rgb(96,173,169);stop-opacity:1"/></linearGradient>
        <linearGradient id="_Linear37" x1="0" y1="0" x2="1" y2="0" gradientUnits="userSpaceOnUse" gradientTransform="matrix(54.8289,55.887,-55.887,54.8289,683.285,570.381)"><stop offset="0" style="stop-color:rgb(191,189,245);stop-opacity:1"/><stop offset="1" style="stop-color:rgb(236,245,189);stop-opacity:1"/></linearGradient>
        <linearGradient id="_Linear38" x1="0" y1="0" x2="1" y2="0" gradientUnits="userSpaceOnUse" gradientTransform="matrix(54.1529,31.2652,-31.2652,54.1529,585.81,639.164)"><stop offset="0" style="stop-color:rgb(189,191,245);stop-opacity:1"/><stop offset="1" style="stop-color:rgb(236,245,189);stop-opacity:1"/></linearGradient>
        <linearGradient id="_Linear39" x1="0" y1="0" x2="1" y2="0" gradientUnits="userSpaceOnUse" gradientTransform="matrix(-86.6446,-50.0243,50.0243,-86.6446,748.269,607.899)"><stop offset="0" style="stop-color:rgb(148,199,197);stop-opacity:1"/><stop offset="1" style="stop-color:rgb(115,50,177);stop-opacity:1"/></linearGradient>
        <linearGradient id="_Linear40" x1="0" y1="0" x2="1" y2="0" gradientUnits="userSpaceOnUse" gradientTransform="matrix(-75.814,-56.2773,56.2773,-75.814,639.963,670.429)"><stop offset="0" style="stop-color:rgb(148,199,197);stop-opacity:1"/><stop offset="1" style="stop-color:rgb(113,50,177);stop-opacity:1"/></linearGradient>
        <linearGradient id="_Linear41" x1="0" y1="0" x2="1" y2="0" gradientUnits="userSpaceOnUse" gradientTransform="matrix(30.0057,-226.657,226.657,30.0057,230.887,1065.92)"><stop offset="0" style="stop-color:rgb(148,199,197);stop-opacity:1"/><stop offset="0.14" style="stop-color:rgb(161,171,171);stop-opacity:1"/><stop offset="0.34" style="stop-color:rgb(190,109,113);stop-opacity:1"/><stop offset="0.47" style="stop-color:rgb(160,174,173);stop-opacity:1"/><stop offset="0.58" style="stop-color:rgb(148,199,197);stop-opacity:1"/><stop offset="1" style="stop-color:rgb(148,199,197);stop-opacity:1"/></linearGradient>
        <linearGradient id="_Linear42" x1="0" y1="0" x2="1" y2="0" gradientUnits="userSpaceOnUse" gradientTransform="matrix(3.86991,-52.2586,52.2586,3.86991,153.866,969.529)"><stop offset="0" style="stop-color:rgb(205,186,226);stop-opacity:1"/><stop offset="1" style="stop-color:rgb(243,195,183);stop-opacity:1"/></linearGradient>
        <linearGradient id="_Linear43" x1="0" y1="0" x2="1" y2="0" gradientUnits="userSpaceOnUse" gradientTransform="matrix(7.20034,-76.03,76.03,7.20034,266.738,932.772)"><stop offset="0" style="stop-color:rgb(190,109,113);stop-opacity:1"/><stop offset="0.49" style="stop-color:rgb(158,177,177);stop-opacity:1"/><stop offset="1" style="stop-color:rgb(148,199,197);stop-opacity:1"/></linearGradient>
        <linearGradient id="_Linear44" x1="0" y1="0" x2="1" y2="0" gradientUnits="userSpaceOnUse" gradientTransform="matrix(5.14844,-47.0518,47.0518,5.14844,250.062,920.551)"><stop offset="0" style="stop-color:rgb(205,186,226);stop-opacity:1"/><stop offset="1" style="stop-color:rgb(243,195,183);stop-opacity:1"/></linearGradient>
        <linearGradient id="_Linear45" x1="0" y1="0" x2="1" y2="0" gradientUnits="userSpaceOnUse" gradientTransform="matrix(-10.8306,-81.2895,81.2895,-10.8306,390.86,864.273)"><stop offset="0" style="stop-color:rgb(190,183,243);stop-opacity:1"/><stop offset="1" style="stop-color:rgb(243,195,183);stop-opacity:1"/></linearGradient>
        <linearGradient id="_Linear46" x1="0" y1="0" x2="1" y2="0" gradientUnits="userSpaceOnUse" gradientTransform="matrix(-21.048,-82.4775,82.4775,-21.048,401.077,865.461)"><stop offset="0" style="stop-color:rgb(190,183,243);stop-opacity:1"/><stop offset="1" style="stop-color:rgb(243,195,183);stop-opacity:1"/></linearGradient>
        <linearGradient id="_Linear47" x1="0" y1="0" x2="1" y2="0" gradientUnits="userSpaceOnUse" gradientTransform="matrix(10.8306,-56.2773,56.2773,10.8306,434.182,826.755)"><stop offset="0" style="stop-color:rgb(199,148,152);stop-opacity:1"/><stop offset="1" style="stop-color:rgb(148,199,197);stop-opacity:1"/></linearGradient>
        <linearGradient id="_Linear48" x1="0" y1="0" x2="1" y2="0" gradientUnits="userSpaceOnUse" gradientTransform="matrix(422.392,-206.35,206.35,422.392,715.777,976.828)"><stop offset="0" style="stop-color:rgb(236,245,189);stop-opacity:1"/><stop offset="0.25" style="stop-color:rgb(170,197,236);stop-opacity:1"/><stop offset="0.57" style="stop-color:rgb(238,176,155);stop-opacity:1"/><stop offset="1" style="stop-color:rgb(210,186,237);stop-opacity:1"/></linearGradient>
        <linearGradient id="_Linear49" x1="0" y1="0" x2="1" y2="0" gradientUnits="userSpaceOnUse" gradientTransform="matrix(230.682,-8.12369,8.12369,230.682,1026.62,197.069)"><stop offset="0" style="stop-color:rgb(241,233,158);stop-opacity:1"/><stop offset="0.45" style="stop-color:rgb(231,177,186);stop-opacity:1"/><stop offset="1" style="stop-color:rgb(208,43,254);stop-opacity:1"/></linearGradient>
        <linearGradient id="_Linear50" x1="0" y1="0" x2="1" y2="0" gradientUnits="userSpaceOnUse" gradientTransform="matrix(555.6,342.046,-342.046,555.6,279.314,203.322)"><stop offset="0" style="stop-color:rgb(148,199,197);stop-opacity:1"/><stop offset="0.19" style="stop-color:rgb(155,192,203);stop-opacity:1"/><stop offset="0.38" style="stop-color:rgb(177,169,222);stop-opacity:1"/><stop offset="1" style="stop-color:rgb(155,211,217);stop-opacity:1"/></linearGradient>
        <linearGradient id="_Linear51" x1="0" y1="0" x2="1" y2="0" gradientUnits="userSpaceOnUse" gradientTransform="matrix(-389.901,-625.304,625.304,-389.901,845.744,501.597)"><stop offset="0" style="stop-color:rgb(236,245,189);stop-opacity:1"/><stop offset="0.31" style="stop-color:rgb(247,225,156);stop-opacity:1"/><stop offset="0.45" style="stop-color:rgb(237,237,176);stop-opacity:1"/><stop offset="0.57" style="stop-color:rgb(233,242,185);stop-opacity:1"/><stop offset="0.65" style="stop-color:rgb(246,226,158);stop-opacity:1"/><stop offset="0.82" style="stop-color:rgb(238,241,182);stop-opacity:1"/><stop offset="1" style="stop-color:rgb(236,245,189);stop-opacity:1"/></linearGradient>
        <linearGradient id="_Linear52" x1="0" y1="0" x2="1" y2="0" gradientUnits="userSpaceOnUse" gradientTransform="matrix(144.038,58.1481,-58.1481,144.038,279.314,37.0018)"><stop offset="0" style="stop-color:rgb(236,245,189);stop-opacity:1"/><stop offset="1" style="stop-color:rgb(219,228,168);stop-opacity:1"/></linearGradient>
        <linearGradient id="_Linear53" x1="0" y1="0" x2="1" y2="0" gradientUnits="userSpaceOnUse" gradientTransform="matrix(339.153,-83.2105,83.2105,339.153,224.996,584.808)"><stop offset="0" style="stop-color:rgb(243,195,183);stop-opacity:1"/><stop offset="0.43" style="stop-color:rgb(222,174,225);stop-opacity:1"/><stop offset="0.74" style="stop-color:rgb(239,196,199);stop-opacity:1"/><stop offset="1" style="stop-color:rgb(245,205,189);stop-opacity:1"/></linearGradient>
        <linearGradient id="_Linear54" x1="0" y1="0" x2="1" y2="0" gradientUnits="userSpaceOnUse" gradientTransform="matrix(339.153,-83.2105,83.2105,339.153,224.996,584.808)"><stop offset="0" style="stop-color:rgb(243,195,183);stop-opacity:1"/><stop offset="0.43" style="stop-color:rgb(222,174,225);stop-opacity:1"/><stop offset="0.74" style="stop-color:rgb(239,196,199);stop-opacity:1"/><stop offset="1" style="stop-color:rgb(245,205,189);stop-opacity:1"/></linearGradient>
        <linearGradient id="_Linear55" x1="0" y1="0" x2="1" y2="0" gradientUnits="userSpaceOnUse" gradientTransform="matrix(-16.3695,691.032,-691.032,-16.3695,948.634,248.349)"><stop offset="0" style="stop-color:rgb(243,195,183);stop-opacity:1"/><stop offset="0.23" style="stop-color:rgb(245,168,149);stop-opacity:1"/><stop offset="0.4" style="stop-color:rgb(246,149,125);stop-opacity:1"/><stop offset="0.62" style="stop-color:rgb(93,203,248);stop-opacity:1"/><stop offset="0.83" style="stop-color:rgb(235,146,188);stop-opacity:1"/><stop offset="1" style="stop-color:rgb(238,221,170);stop-opacity:1"/></linearGradient>
        <linearGradient id="_Linear56" x1="0" y1="0" x2="1" y2="0" gradientUnits="userSpaceOnUse" gradientTransform="matrix(422.392,-206.35,206.35,422.392,715.777,976.828)"><stop offset="0" style="stop-color:rgb(236,245,189);stop-opacity:1"/><stop offset="0.25" style="stop-color:rgb(170,197,236);stop-opacity:1"/><stop offset="0.57" style="stop-color:rgb(238,176,155);stop-opacity:1"/><stop offset="1" style="stop-color:rgb(210,186,237);stop-opacity:1"/></linearGradient>
        <linearGradient id="_Linear57" x1="0" y1="0" x2="1" y2="0" gradientUnits="userSpaceOnUse" gradientTransform="matrix(-286.368,-9.7505,9.7505,-286.368,861.347,967.819)"><stop offset="0" style="stop-color:rgb(238,205,191);stop-opacity:1"/><stop offset="0.2" style="stop-color:rgb(214,203,193);stop-opacity:1"/><stop offset="0.41" style="stop-color:rgb(148,199,197);stop-opacity:1"/><stop offset="0.46" style="stop-color:rgb(140,193,207);stop-opacity:1"/><stop offset="0.51" style="stop-color:rgb(133,187,217);stop-opacity:1"/><stop offset="0.66" style="stop-color:rgb(130,184,222);stop-opacity:1"/><stop offset="0.73" style="stop-color:rgb(137,190,212);stop-opacity:1"/><stop offset="0.81" style="stop-color:rgb(144,196,202);stop-opacity:1"/><stop offset="1" style="stop-color:rgb(148,199,197);stop-opacity:1"/></linearGradient>
        <linearGradient id="_Linear58" x1="0" y1="0" x2="1" y2="0" gradientUnits="userSpaceOnUse" gradientTransform="matrix(422.392,-206.35,206.35,422.392,715.777,976.828)"><stop offset="0" style="stop-color:rgb(236,245,189);stop-opacity:1"/><stop offset="0.25" style="stop-color:rgb(170,197,236);stop-opacity:1"/><stop offset="0.57" style="stop-color:rgb(238,176,155);stop-opacity:1"/><stop offset="1" style="stop-color:rgb(210,186,237);stop-opacity:1"/></linearGradient>
    </defs>
</svg>
