<?xml version="1.0" encoding="UTF-8" standalone="no"?>
<!DOCTYPE svg PUBLIC "-//W3C//DTD SVG 1.1//EN" "http://www.w3.org/Graphics/SVG/1.1/DTD/svg11.dtd">
<svg width="100%" height="100%" viewBox="0 0 1080 1080" version="1.1" xmlns="http://www.w3.org/2000/svg" xmlns:xlink="http://www.w3.org/1999/xlink" xml:space="preserve" xmlns:serif="http://www.serif.com/" style="fill-rule:evenodd;clip-rule:evenodd;stroke-linecap:round;stroke-linejoin:round;stroke-miterlimit:1.5;">
    <g transform="matrix(1,0,0,1,-2842.93,0)">
        <g id="creek" transform="matrix(1.17908,0,0,1.17908,2574.84,-113.723)">
            <rect x="227.368" y="96.451" width="915.97" height="915.97" style="fill:none;"/>
            <clipPath id="_clip1">
                <rect x="227.368" y="96.451" width="915.97" height="915.97"/>
            </clipPath>
            <g clip-path="url(#_clip1)">
                <g transform="matrix(0.806751,0,0,0.806751,-924.644,-1749.85)">
                    <rect x="1337.79" y="2240.26" width="1267.61" height="1267.61" style="fill:url(#_Linear2);"/>
                </g>
                <g transform="matrix(0.669716,0,0,0.669716,-1649.96,197.039)">
                    <g transform="matrix(1,0,0,1,2793.48,1.79463)">
                        <path d="M476.733,725.638L325.045,638.061L325.045,838.237L476.733,925.814L476.733,725.638Z" style="fill:white;stroke:rgb(0,0,4);stroke-width:3.8px;"/>
                    </g>
                    <g transform="matrix(1,0,0,1,2793.48,-373.535)">
                        <path d="M520.073,775.682L325.045,663.083L325.045,788.193L520.073,900.792L520.073,775.682Z" style="fill:white;stroke:rgb(0,0,4);stroke-width:3.8px;"/>
                    </g>
                    <g transform="matrix(1,0,0,1,2793.48,1.79463)">
                        <path d="M325.045,638.061L899.302,306.514L1050.99,394.091L476.733,725.638L325.045,638.061Z" style="fill:white;stroke:rgb(0,0,4);stroke-width:3.8px;"/>
                    </g>
                    <g transform="matrix(1,0,0,1,2793.48,-373.535)">
                        <path d="M325.045,663.083L704.274,444.135L899.302,556.734L520.072,775.682L325.045,663.083Z" style="fill:white;stroke:rgb(0,0,4);stroke-width:3.8px;"/>
                    </g>
                    <g transform="matrix(1,0,0,1,2793.48,1.79463)">
                        <path d="M1050.99,394.091L1050.99,594.267L476.733,925.814L476.733,725.638L1050.99,394.091Z" style="fill:white;stroke:rgb(0,0,4);stroke-width:3.8px;"/>
                    </g>
                    <g transform="matrix(1,0,0,1,2793.48,-373.535)">
                        <path d="M899.302,556.734L899.302,681.844L520.073,900.792L520.073,775.682L899.302,556.734Z" style="fill:white;stroke:rgb(0,0,4);stroke-width:3.8px;"/>
                    </g>
                    <g transform="matrix(1,0,0,1,2556.62,-134.968)">
                        <path d="M910.127,450.396L871.072,467.076L803.835,511.764L758.439,537.973L758.439,663.083L783.025,654.411L816.434,629.599L823.448,625.55L823.448,575.506C823.448,575.506 823.454,550.481 845.118,537.973C866.782,525.465 866.788,550.484 866.788,550.484L866.788,600.528L896.022,590.705L910.127,575.506L910.127,450.396Z" style="fill:url(#_Linear3);"/>
                    </g>
                    <g transform="matrix(1,0,0,1,2556.62,-134.968)">
                        <path d="M801.778,1013.39L767.668,1044.73L715.1,1063.43L715.1,863.259C756.193,839.534 781.62,797.475 822.714,773.75C853.853,755.772 900.658,756.127 931.797,738.149L931.797,838.237C931.797,838.237 931.547,888.425 953.466,875.77C996.322,851.027 996.805,900.713 996.806,900.792L943.719,948.113L845.118,988.369L845.118,938.325C845.118,938.325 845.258,913.222 823.448,925.814C801.638,938.406 801.778,963.347 801.778,963.347L801.778,1013.39ZM1018.48,888.281L1018.48,688.105L1027.82,656.962L1061.82,663.083L1061.82,863.259L1052.33,882.818L1018.48,888.281Z" style="fill:url(#_Linear4);"/>
                    </g>
                    <g transform="matrix(1,0,0,1,2556.62,-134.968)">
                        <path d="M1170.19,600.534L1170.16,600.528L1148.49,588.017C1125.91,574.977 1105.15,588.017 1105.15,588.017C1105.15,588.017 1050.36,618.936 1007.64,594.272C1007.64,594.272 953.526,562.96 1007.64,531.717C1007.78,531.638 1062.02,513.072 1018.48,487.929C974.927,462.786 975.136,462.907 975.136,462.907C975.136,462.907 888.605,412.778 953.466,375.33C953.466,375.33 996.946,350.389 975.136,337.797C953.326,325.205 931.797,337.797 931.797,337.797C888.485,362.803 845.118,337.797 845.118,337.797L801.778,312.775L812.613,306.519L855.953,331.541C855.953,331.541 888.636,350.205 920.962,331.541C964.343,306.495 996.806,325.286 996.806,325.286C996.806,325.286 1040.22,350.263 975.136,387.841C932.221,412.618 975.136,437.885 975.136,437.885L1040.14,475.418C1105.32,513.049 1061.82,537.973 1061.82,537.973L1050.98,544.228C1050.98,544.228 1018.67,563.105 1040.14,575.506C1061.62,587.907 1083.48,575.506 1083.48,575.506C1126.8,550.498 1170.16,575.506 1170.16,575.506C1170.16,575.506 1235.4,612.905 1300.18,575.506L1300.31,575.435C1302.9,573.999 1345.1,551.397 1386.86,575.506C1429.96,600.393 1386.86,625.55 1386.86,625.55L1365.19,638.061C1343.73,650.452 1365.19,663.083 1365.19,663.083C1365.19,663.083 1430.19,700.624 1365.19,738.149C1321.82,763.191 1278.51,738.149 1278.51,738.149C1234.99,713.019 1256.71,650.65 1170.16,700.616C1170.16,700.616 1127.07,725.777 1191.83,763.171C1256.6,800.565 1213.5,825.726 1213.5,825.726L1170.16,850.748C1105.58,888.033 1148.4,913.25 1148.49,913.303L1191.83,938.325C1191.83,938.325 1256.99,975.771 1191.83,1013.39C1126.67,1051.01 1083.48,1025.9 1083.48,1025.9C1083.48,1025.9 1061.37,1013.65 1040.14,1025.9C1018.92,1038.16 1040.14,1050.92 1040.14,1050.92C1040.14,1050.92 1104.28,1088.96 1040.14,1125.99C976.013,1163.02 931.797,1138.5 931.797,1138.5C888.637,1113.58 844.889,1138.63 801.778,1163.52C758.668,1188.41 715.1,1163.52 715.1,1163.52C715.1,1163.52 672.647,1138.38 714.602,1113.77L715.597,1113.19C757.552,1088.58 715.1,1063.43 715.1,1063.43L801.778,1013.39C801.778,1013.39 845.004,1038.48 823.448,1050.92C780.037,1075.99 823.448,1100.97 823.448,1100.97C823.448,1100.97 867.304,1125.69 910.127,1100.97C952.949,1076.24 910.127,1050.92 910.127,1050.92C910.127,1050.92 888.604,1038.33 910.127,1025.9C953.727,1000.73 931.797,988.369 931.797,988.369C931.797,988.369 910.15,975.845 888.457,988.369C866.795,1000.88 845.179,988.404 845.118,988.369L996.806,900.792C996.806,900.792 1039.8,926.015 996.806,950.836C953.815,975.657 985.971,994.624 985.971,994.624C985.971,994.624 1018.15,1013.58 1061.82,988.369C1127.53,950.43 1061.82,913.303 1061.82,913.303L1018.48,888.281L1170.16,800.704C1170.16,800.704 1191.63,788.078 1170.16,775.682C1083.24,725.496 1126.82,700.616 1126.82,700.616L1181,669.338L1181.15,669.25C1184.38,667.44 1236.57,638.87 1278.51,663.083C1321.8,688.077 1300.18,700.616 1300.18,700.616C1300.18,700.616 1278.54,713.1 1300.18,725.638C1300.18,725.638 1327.31,734.998 1343.52,725.638C1387.06,700.501 1343.52,675.594 1343.52,675.594C1299.81,650.357 1343.52,625.55 1343.52,625.55L1365.19,613.039C1365.19,613.039 1386.62,600.391 1365.19,588.017C1343.76,575.643 1321.85,588.017 1321.85,588.017L1300.18,600.528C1300.18,600.528 1235.39,638.188 1170.2,600.551L1170.19,600.534Z" style="fill:url(#_Linear5);"/>
                    </g>
                    <g transform="matrix(1,0,0,1,2556.62,-134.968)">
                        <path d="M1170.19,600.534L1170.16,600.528L1148.49,588.017C1125.91,574.977 1105.15,588.017 1105.15,588.017C1105.15,588.017 1050.36,618.936 1007.64,594.272C1007.64,594.272 1018.67,563.105 1040.14,575.506C1061.62,587.907 1083.48,575.506 1083.48,575.506C1126.8,550.498 1170.16,575.506 1170.16,575.506C1170.16,575.506 1235.4,612.905 1300.18,575.506L1300.31,575.435C1302.9,573.999 1345.1,551.397 1386.86,575.506C1429.96,600.393 1386.86,625.55 1386.86,625.55L1365.19,613.039C1365.19,613.039 1386.62,600.391 1365.19,588.017C1343.76,575.643 1321.85,588.017 1321.85,588.017L1300.18,600.528C1300.18,600.528 1235.39,638.188 1170.2,600.551L1170.19,600.534Z" style="fill:url(#_Linear6);"/>
                    </g>
                    <g transform="matrix(1,0,0,1,2556.62,-134.968)">
                        <path d="M1040.14,575.506L1007.64,594.272C1007.64,594.272 953.526,562.96 1007.64,531.717C1007.78,531.638 1062.02,513.072 1018.48,487.929C974.927,462.786 975.136,462.907 975.136,462.907C975.136,462.907 888.605,412.778 953.466,375.33C953.466,375.33 996.946,350.389 975.136,337.797C953.326,325.205 931.797,337.797 931.797,337.797C888.485,362.803 845.118,337.797 845.118,337.797L801.778,312.775L812.613,306.519L855.953,331.541C855.953,331.541 888.636,350.205 920.962,331.541C964.343,306.495 996.806,325.286 996.806,325.286C996.806,325.286 1040.22,350.263 975.136,387.841C932.221,412.618 975.136,437.885 975.136,437.885L1040.14,475.418C1105.32,513.049 1061.82,537.973 1061.82,537.973L1050.98,544.228C1050.98,544.228 1018.67,563.105 1040.14,575.506Z" style="fill:url(#_Linear7);"/>
                    </g>
                    <g transform="matrix(1,0,0,1,2556.62,-134.968)">
                        <path d="M866.788,600.528C866.788,600.528 932.009,637.938 866.788,675.594C823.301,700.701 866.788,725.638 866.788,725.638C866.788,725.638 888.587,738.074 866.788,750.66C844.988,763.246 823.448,750.66 823.448,750.66C823.448,750.66 780.318,725.517 823.448,700.616C866.578,675.715 823.448,650.572 823.448,650.572C823.448,650.572 801.937,637.97 823.448,625.55L758.439,663.083C758.439,663.083 693.536,700.677 736.769,725.638C801.362,762.931 714.998,812.611 715.1,813.215C715.202,813.819 672.037,838.397 715.1,863.259L931.797,738.149C931.797,738.149 888.153,713.303 931.797,688.105C975.44,662.907 1018.48,688.105 1018.48,688.105L1061.82,663.083C1061.82,663.083 1040.55,650.339 1061.82,638.061C1061.82,638.061 1104.9,612.892 1061.82,588.017C996.821,550.493 953.466,575.506 953.466,575.506C953.466,575.506 931.241,587.696 910.127,575.506C889.664,587.32 866.788,600.528 866.788,600.528Z" style="fill:url(#_Linear8);"/>
                    </g>
                    <g transform="matrix(1,0,0,1,2556.62,-134.968)">
                        <path d="M758.347,337.743C756.466,336.627 726.864,318.494 758.439,300.264C780.199,287.701 812.613,306.519 812.613,306.519L801.778,312.775C801.778,312.775 790.99,306.493 780.109,312.775C769.228,319.057 780.109,325.286 780.109,325.286L801.778,337.797C801.778,337.797 823.687,350.17 845.118,337.797C866.548,325.424 888.457,337.797 888.457,337.797C888.457,337.797 931.802,362.816 888.457,387.841C845.112,412.866 888.457,437.885 888.457,437.885L910.127,450.396L758.439,537.973L780.109,525.462C844.999,487.997 780.109,450.396 780.109,450.396C780.109,450.396 736.539,425.507 780.109,400.352C823.678,375.197 780.109,350.308 780.109,350.308L758.439,337.797L758.347,337.743Z" style="fill:url(#_Linear9);"/>
                    </g>
                    <g transform="matrix(1,0,0,1,2556.62,-134.968)">
                        <path d="M845.118,337.797L801.778,312.775L807.124,308.819L812.613,306.519L855.953,331.541C855.953,331.541 856.91,332.088 858.659,332.901C854.268,333.649 849.682,335.162 845.118,337.797Z" style="fill:url(#_Linear10);"/>
                    </g>
                    <g transform="matrix(1,0,0,1,2793.48,1.79463)">
                        <path d="M1050.99,394.091L877.632,494.179L1050.99,394.091Z" style="fill:none;stroke:rgb(0,0,4);stroke-width:3.8px;"/>
                    </g>
                    <g transform="matrix(1,0,0,1,2607.95,-191.351)">
                        <path d="M1050.99,394.091L877.632,494.179L1050.99,394.091Z" style="fill:none;stroke:rgb(0,0,4);stroke-width:3.8px;"/>
                    </g>
                </g>
            </g>
        </g>
    </g>
    <defs>
        <linearGradient id="_Linear2" x1="0" y1="0" x2="1" y2="0" gradientUnits="userSpaceOnUse" gradientTransform="matrix(1510.32,-920.164,920.164,1510.32,1231.82,3475.83)"><stop offset="0" style="stop-color:rgb(255,142,1);stop-opacity:1"/><stop offset="1" style="stop-color:rgb(178,9,144);stop-opacity:1"/></linearGradient>
        <linearGradient id="_Linear3" x1="0" y1="0" x2="1" y2="0" gradientUnits="userSpaceOnUse" gradientTransform="matrix(238.679,-268.779,598.551,531.52,742.594,672.231)"><stop offset="0" style="stop-color:rgb(172,0,154);stop-opacity:1"/><stop offset="1" style="stop-color:rgb(255,142,0);stop-opacity:1"/></linearGradient>
        <linearGradient id="_Linear4" x1="0" y1="0" x2="1" y2="0" gradientUnits="userSpaceOnUse" gradientTransform="matrix(231.448,-554.742,540.78,225.623,715.1,1063.43)"><stop offset="0" style="stop-color:rgb(172,0,154);stop-opacity:1"/><stop offset="1" style="stop-color:rgb(255,135,0);stop-opacity:1"/></linearGradient>
        <linearGradient id="_Linear5" x1="0" y1="0" x2="1" y2="0" gradientUnits="userSpaceOnUse" gradientTransform="matrix(-736.769,437.885,-426.864,-718.226,1397.69,744.404)"><stop offset="0" style="stop-color:rgb(255,142,0);stop-opacity:1"/><stop offset="1" style="stop-color:rgb(172,0,154);stop-opacity:1"/></linearGradient>
        <linearGradient id="_Linear6" x1="0" y1="0" x2="1" y2="0" gradientUnits="userSpaceOnUse" gradientTransform="matrix(352.132,52.354,-52.354,352.132,1034.73,573.196)"><stop offset="0" style="stop-color:rgb(172,0,154);stop-opacity:1"/><stop offset="1" style="stop-color:rgb(255,142,0);stop-opacity:1"/></linearGradient>
        <linearGradient id="_Linear7" x1="0" y1="0" x2="1" y2="0" gradientUnits="userSpaceOnUse" gradientTransform="matrix(-14.4627,261.299,-261.299,-14.4627,1052.7,315.306)"><stop offset="0" style="stop-color:rgb(255,142,0);stop-opacity:1"/><stop offset="1" style="stop-color:rgb(172,0,154);stop-opacity:1"/></linearGradient>
        <linearGradient id="_Linear8" x1="0" y1="0" x2="1" y2="0" gradientUnits="userSpaceOnUse" gradientTransform="matrix(-397.156,79.1659,-84.7749,-425.294,1080.96,627.006)"><stop offset="0" style="stop-color:rgb(255,142,0);stop-opacity:1"/><stop offset="1" style="stop-color:rgb(172,0,154);stop-opacity:1"/></linearGradient>
        <linearGradient id="_Linear9" x1="0" y1="0" x2="1" y2="0" gradientUnits="userSpaceOnUse" gradientTransform="matrix(259.603,98.9943,-220.453,578.116,679.305,345.952)"><stop offset="0" style="stop-color:rgb(165,0,142);stop-opacity:1"/><stop offset="1" style="stop-color:rgb(255,142,0);stop-opacity:1"/></linearGradient>
        <linearGradient id="_Linear10" x1="0" y1="0" x2="1" y2="0" gradientUnits="userSpaceOnUse" gradientTransform="matrix(-47.567,-32.3507,32.3507,-47.567,858.659,339.258)"><stop offset="0" style="stop-color:rgb(255,142,0);stop-opacity:1"/><stop offset="1" style="stop-color:rgb(197,56,127);stop-opacity:1"/></linearGradient>
    </defs>
</svg>
