<?xml version="1.0" encoding="UTF-8" standalone="no"?>
<!DOCTYPE svg PUBLIC "-//W3C//DTD SVG 1.1//EN" "http://www.w3.org/Graphics/SVG/1.1/DTD/svg11.dtd">
<svg width="100%" height="100%" viewBox="0 0 1080 1080" version="1.1" xmlns="http://www.w3.org/2000/svg" xmlns:xlink="http://www.w3.org/1999/xlink" xml:space="preserve" xmlns:serif="http://www.serif.com/" style="fill-rule:evenodd;clip-rule:evenodd;stroke-linecap:round;stroke-linejoin:round;stroke-miterlimit:1.5;">
    <g transform="matrix(1,0,0,1,-2842.93,-1288.63)">
        <g id="donut" transform="matrix(1.17908,0,0,1.17908,2574.84,1174.91)">
            <rect x="227.368" y="96.451" width="915.97" height="915.97" style="fill:none;"/>
            <clipPath id="_clip1">
                <rect x="227.368" y="96.451" width="915.97" height="915.97"/>
            </clipPath>
            <g clip-path="url(#_clip1)">
                <g transform="matrix(0.806751,0,0,0.806751,-924.644,-1749.85)">
                    <rect x="1337.79" y="2240.26" width="1267.61" height="1267.61" style="fill:url(#_Linear2);"/>
                </g>
                <g id="flow_donuts.svg" transform="matrix(1.23719,0,0,1.23719,685.353,554.436)">
                    <g transform="matrix(1,0,0,1,-359,-334)">
                        <rect id="Artboard1" x="0" y="0" width="717.475" height="667.024" style="fill:none;"/>
                        <path d="M260.036,125.11L260.036,162.643L238.367,175.154L238.367,112.599L346.715,50.044L455.063,112.599L455.063,137.621L357.55,81.321L335.88,81.321L260.036,125.11Z" style="fill:url(#_Linear3);"/>
                        <path d="M303.719,112.476C307.814,110.276 347.869,89.885 387.896,111.46L401.298,109.127L409.137,110.93L409.137,136.193C409.546,151.251 390.054,162.708 390.054,162.708C390.054,162.708 346.411,187.555 303.376,162.708C288.575,154.163 283.955,145.577 284.263,137.988L284.263,112.9L292.103,112.097L303.719,112.476Z" style="fill:white;stroke:rgb(0,0,4);stroke-width:1.5px;"/>
                        <path id="_6" serif:id="6" d="M390.054,137.621C390.054,137.621 346.411,162.468 303.376,137.621C260.34,112.774 303.376,87.577 303.376,87.577C303.376,87.577 347.104,62.779 390.054,87.577C433.005,112.375 390.054,137.621 390.054,137.621Z" style="fill:white;stroke:rgb(0,0,4);stroke-width:1.5px;"/>
                        <path d="M325.062,126.119C325.051,126.113 325.045,126.11 325.045,126.11C325.045,126.11 303.159,113.724 325.045,101.088C346.932,88.452 368.385,101.088 368.385,101.088C368.385,101.088 389.682,113.814 368.385,126.11C357.498,132.395 346.417,132.255 338.184,130.616C346.416,132.255 357.498,132.395 368.385,126.11C368.339,126.083 346.909,113.487 325.045,126.11L325.062,126.119ZM338.09,130.597L338.184,130.616L338.158,130.61L338.09,130.597ZM337.997,130.578L338.09,130.597L338.064,130.592L337.997,130.578ZM337.903,130.559L337.996,130.578L337.97,130.573L337.903,130.559ZM337.81,130.54L337.902,130.559L337.876,130.553L337.81,130.54ZM337.717,130.52L337.809,130.539L337.783,130.534L337.717,130.52ZM337.625,130.501L337.716,130.52L337.69,130.515L337.625,130.501ZM337.532,130.481L337.623,130.501L337.597,130.495L337.532,130.481ZM337.44,130.462L337.53,130.481L337.504,130.476L337.44,130.462ZM337.348,130.442L337.437,130.461L337.412,130.456L337.348,130.442ZM337.256,130.422L337.345,130.441L337.32,130.436L337.256,130.422ZM337.165,130.402L337.253,130.421L337.228,130.416L337.165,130.402ZM337.074,130.382L337.162,130.401L337.136,130.396L337.074,130.382ZM336.938,130.352L337.071,130.381L337.045,130.376L336.938,130.352ZM336.757,130.311L336.881,130.339L336.863,130.335L336.757,130.311ZM336.578,130.269L336.7,130.298L336.682,130.294L336.578,130.269ZM336.399,130.228L336.52,130.256L336.502,130.252L336.399,130.228ZM336.222,130.186L336.342,130.214L336.324,130.21L336.222,130.186ZM336.045,130.143L336.164,130.172L336.146,130.167L336.045,130.143ZM335.87,130.1L335.987,130.129L335.969,130.125L335.87,130.1ZM335.695,130.057L335.812,130.086L335.794,130.082L335.695,130.057ZM335.522,130.013L335.637,130.042L335.62,130.038L335.522,130.013ZM335.35,129.969L335.464,129.999L335.446,129.994L335.35,129.969ZM335.179,129.925L335.292,129.954L335.274,129.95L335.179,129.925ZM335.009,129.881L335.121,129.91L335.103,129.906L335.009,129.881ZM334.841,129.836L334.951,129.865L334.933,129.861L334.841,129.836ZM334.673,129.791L334.782,129.82L334.765,129.816L334.673,129.791ZM334.507,129.745L334.614,129.775L334.597,129.77L334.507,129.745ZM334.341,129.7L334.448,129.729L334.431,129.725L334.341,129.7ZM334.177,129.654L334.283,129.684L334.266,129.679L334.177,129.654ZM334.014,129.608L334.119,129.638L334.102,129.633L334.014,129.608ZM333.853,129.562L333.956,129.591L333.939,129.586L333.853,129.562ZM333.692,129.515L333.794,129.545L333.692,129.515ZM333.533,129.469L333.633,129.498L333.617,129.493L333.533,129.469ZM333.375,129.422L333.474,129.451L333.457,129.446L333.375,129.422ZM333.218,129.375L333.316,129.404L333.299,129.399L333.218,129.375ZM333.062,129.328L333.159,129.357L333.143,129.352L333.062,129.328ZM332.908,129.28L333.003,129.31L332.987,129.305L332.908,129.28ZM332.754,129.233L332.849,129.262L332.833,129.257L332.754,129.233ZM332.602,129.185L332.696,129.215L332.68,129.21L332.602,129.185ZM332.452,129.138L332.544,129.167L332.528,129.162L332.452,129.138ZM332.302,129.09L332.393,129.119L332.377,129.114L332.302,129.09ZM332.154,129.042L332.244,129.071L332.228,129.066L332.154,129.042ZM332.007,128.994L332.096,129.023L332.08,129.018L332.007,128.994ZM331.861,128.947L331.949,128.976L331.933,128.97L331.861,128.947ZM331.717,128.899L331.804,128.928L331.788,128.922L331.717,128.899ZM331.574,128.851L331.659,128.88L331.644,128.874L331.574,128.851ZM331.432,128.803L331.517,128.832L331.501,128.826L331.432,128.803ZM331.292,128.755L331.375,128.784L331.36,128.778L331.292,128.755ZM331.153,128.707L331.235,128.735L331.22,128.73L331.153,128.707ZM331.015,128.659L331.096,128.688L331.081,128.682L331.015,128.659ZM330.878,128.611L330.958,128.64L330.944,128.634L330.878,128.611ZM330.743,128.564L330.822,128.592L330.808,128.587L330.743,128.564ZM330.61,128.516L330.687,128.544L330.673,128.539L330.61,128.516ZM330.477,128.469L330.554,128.496L330.54,128.491L330.477,128.469ZM330.346,128.421L330.422,128.449L330.408,128.443L330.346,128.421ZM330.217,128.374L330.291,128.401L330.277,128.396L330.217,128.374ZM330.089,128.326L330.162,128.354L330.148,128.348L330.089,128.326ZM329.962,128.279L330.034,128.306L330.02,128.301L329.962,128.279ZM329.836,128.232L329.908,128.259L329.894,128.254L329.836,128.232ZM329.712,128.186L329.783,128.212L329.769,128.207L329.712,128.186ZM329.59,128.139L329.659,128.166L329.646,128.16L329.59,128.139ZM329.469,128.093L329.537,128.119L329.524,128.114L329.469,128.093ZM329.349,128.047L329.416,128.073L329.403,128.067L329.349,128.047ZM329.231,128.001L329.297,128.026L329.284,128.021L329.231,128.001ZM329.114,127.955L329.179,127.98L329.114,127.955ZM328.999,127.909L329.063,127.935L329.05,127.93L328.999,127.909ZM328.885,127.864L328.948,127.889L328.935,127.884L328.885,127.864ZM328.773,127.819L328.835,127.844L328.822,127.839L328.773,127.819ZM328.662,127.775L328.723,127.799L328.71,127.794L328.662,127.775ZM328.553,127.73L328.613,127.755L328.6,127.75L328.553,127.73ZM328.445,127.686L328.504,127.71L328.492,127.705L328.445,127.686ZM328.338,127.642L328.396,127.666L328.384,127.661L328.338,127.642ZM328.234,127.599L328.291,127.623L328.279,127.618L328.234,127.599ZM328.13,127.556L328.186,127.579L328.175,127.574L328.13,127.556ZM328.029,127.513L328.084,127.536L328.029,127.513ZM327.928,127.471L327.982,127.494L327.971,127.489L327.928,127.471ZM327.83,127.429L327.883,127.452L327.872,127.447L327.83,127.429ZM327.733,127.387L327.785,127.41L327.774,127.405L327.733,127.387ZM327.637,127.346L327.688,127.368L327.677,127.364L327.637,127.346ZM327.543,127.306L327.593,127.327L327.583,127.323L327.543,127.306ZM327.451,127.265L327.5,127.287L327.49,127.282L327.451,127.265ZM327.36,127.226L327.409,127.247L327.398,127.242L327.36,127.226ZM327.271,127.186L327.318,127.207L327.308,127.203L327.271,127.186ZM327.184,127.148L327.23,127.168L327.22,127.164L327.184,127.148ZM327.098,127.109L327.143,127.129L327.133,127.125L327.098,127.109ZM327.014,127.071L327.058,127.091L327.048,127.087L327.014,127.071ZM326.931,127.034L326.974,127.054L326.965,127.049L326.931,127.034ZM326.85,126.997L326.893,127.017L326.883,127.012L326.85,126.997ZM326.771,126.961L326.812,126.98L326.803,126.976L326.771,126.961ZM326.693,126.925L326.734,126.944L326.725,126.94L326.693,126.925ZM326.617,126.89L326.657,126.909L326.648,126.905L326.617,126.89ZM326.543,126.856L326.582,126.874L326.573,126.87L326.543,126.856ZM326.47,126.822L326.508,126.84L326.499,126.836L326.47,126.822ZM326.365,126.772L326.439,126.807L326.428,126.802L326.365,126.772ZM326.23,126.708L326.298,126.741L326.29,126.737L326.23,126.708ZM326.102,126.647L326.166,126.678L326.158,126.674L326.102,126.647ZM325.98,126.588L326.041,126.618L326.034,126.614L325.98,126.588ZM325.866,126.532L325.924,126.56L325.917,126.557L325.866,126.532ZM325.759,126.48L325.813,126.506L325.807,126.503L325.759,126.48ZM325.66,126.43L325.71,126.455L325.66,126.43ZM325.567,126.383L325.613,126.407L325.608,126.404L325.567,126.383ZM325.482,126.34L325.524,126.362L325.519,126.359L325.482,126.34ZM325.404,126.3L325.443,126.32L325.438,126.317L325.404,126.3ZM325.333,126.263L325.369,126.282L325.364,126.279L325.333,126.263ZM325.27,126.23L325.302,126.247L325.298,126.245L325.27,126.23ZM325.215,126.201L325.243,126.216L325.239,126.214L325.215,126.201ZM325.167,126.176L325.191,126.189L325.188,126.187L325.167,126.176ZM325.127,126.154L325.148,126.165L325.145,126.164L325.127,126.154ZM325.08,126.129L325.112,126.146L325.109,126.145L325.08,126.129Z" style="fill:white;stroke:rgb(0,0,4);stroke-width:1.5px;"/>
                        <path d="M390.054,387.841C390.054,387.841 411.565,375.234 433.397,387.839C442.954,393.357 452.227,386.204 452.227,386.204L454.384,368.969L437.746,352.821L404.154,349.525L385.377,357.817L390.054,387.841Z" style="fill:url(#_Linear4);"/>
                        <path d="M303.719,562.807C306.453,561.338 333.934,599.002 357.55,594.272C391.251,587.524 374.594,554.621 387.896,561.791L401.298,559.458L409.137,561.261L409.137,586.524C409.555,601.948 390.054,613.039 390.054,613.039C390.054,613.039 347.929,638.762 303.376,613.039C288.575,604.494 283.955,595.907 284.263,588.319L284.263,563.231L292.103,562.428L303.719,562.807Z" style="fill:white;stroke:rgb(0,0,4);stroke-width:1.5px;"/>
                        <path id="_1" serif:id="1" d="M390.054,587.952C390.054,587.952 347.591,613.48 303.376,587.952C260.34,563.105 303.376,537.908 303.376,537.908C303.376,537.908 347.104,513.11 390.054,537.908C433.005,562.706 390.054,587.952 390.054,587.952ZM325.045,575.506C346.909,562.883 368.339,575.479 368.385,575.506C347.109,587.789 325.092,575.532 325.045,575.506Z" style="fill:white;stroke:rgb(0,0,4);stroke-width:1.5px;"/>
                        <path d="M325.062,575.515C325.051,575.509 325.045,575.506 325.045,575.506C325.045,575.506 303.159,563.12 325.045,550.484C346.932,537.848 368.385,550.484 368.385,550.484C368.385,550.484 389.682,563.21 368.385,575.506C357.498,581.792 346.417,581.651 338.184,580.012C346.416,581.651 357.498,581.791 368.385,575.506C368.339,575.479 346.909,562.883 325.045,575.506L325.062,575.515ZM338.09,579.993L338.184,580.012L338.158,580.007L338.09,579.993ZM337.997,579.974L338.09,579.993L338.064,579.988L337.997,579.974ZM337.903,579.955L337.996,579.974L337.97,579.969L337.903,579.955ZM337.81,579.936L337.902,579.955L337.876,579.949L337.81,579.936ZM337.717,579.916L337.809,579.935L337.783,579.93L337.717,579.916ZM337.625,579.897L337.716,579.916L337.69,579.911L337.625,579.897ZM337.532,579.878L337.623,579.897L337.597,579.891L337.532,579.878ZM337.44,579.858L337.53,579.877L337.504,579.872L337.44,579.858ZM337.348,579.838L337.437,579.857L337.412,579.852L337.348,579.838ZM337.256,579.818L337.345,579.837L337.32,579.832L337.256,579.818ZM337.165,579.798L337.253,579.818L337.228,579.812L337.165,579.798ZM337.074,579.778L337.162,579.797L337.136,579.792L337.074,579.778ZM336.938,579.748L337.071,579.777L337.045,579.772L336.938,579.748ZM336.757,579.707L336.881,579.735L336.863,579.731L336.757,579.707ZM336.578,579.665L336.7,579.694L336.682,579.69L336.578,579.665ZM336.399,579.624L336.52,579.652L336.502,579.648L336.399,579.624ZM336.222,579.582L336.342,579.61L336.324,579.606L336.222,579.582ZM336.045,579.539L336.164,579.568L336.146,579.564L336.045,579.539ZM335.87,579.496L335.987,579.525L335.969,579.521L335.87,579.496ZM335.695,579.453L335.812,579.482L335.794,579.478L335.695,579.453ZM335.522,579.409L335.637,579.439L335.62,579.434L335.522,579.409ZM335.35,579.366L335.464,579.395L335.446,579.39L335.35,579.366ZM335.179,579.321L335.292,579.351L335.274,579.346L335.179,579.321ZM335.009,579.277L335.121,579.306L335.103,579.302L335.009,579.277ZM334.841,579.232L334.951,579.261L334.933,579.257L334.841,579.232ZM334.673,579.187L334.782,579.216L334.765,579.212L334.673,579.187ZM334.507,579.142L334.614,579.171L334.597,579.166L334.507,579.142ZM334.341,579.096L334.448,579.125L334.431,579.121L334.341,579.096ZM334.177,579.05L334.283,579.08L334.266,579.075L334.177,579.05ZM334.014,579.004L334.119,579.034L334.102,579.029L334.014,579.004ZM333.853,578.958L333.956,578.987L333.939,578.983L333.853,578.958ZM333.692,578.911L333.794,578.941L333.692,578.911ZM333.533,578.865L333.633,578.894L333.617,578.889L333.533,578.865ZM333.375,578.818L333.474,578.847L333.375,578.818ZM333.218,578.771L333.316,578.8L333.299,578.795L333.218,578.771ZM333.062,578.724L333.159,578.753L333.143,578.748L333.062,578.724ZM332.908,578.676L333.003,578.706L332.987,578.701L332.908,578.676ZM332.754,578.629L332.849,578.658L332.833,578.653L332.754,578.629ZM332.602,578.581L332.696,578.611L332.68,578.606L332.602,578.581ZM332.452,578.534L332.544,578.563L332.528,578.558L332.452,578.534ZM332.302,578.486L332.393,578.515L332.377,578.51L332.302,578.486ZM332.154,578.438L332.244,578.467L332.228,578.462L332.154,578.438ZM332.007,578.391L332.096,578.42L332.08,578.414L332.007,578.391ZM331.861,578.343L331.949,578.372L331.933,578.367L331.861,578.343ZM331.717,578.295L331.804,578.324L331.788,578.319L331.717,578.295ZM331.574,578.247L331.659,578.276L331.644,578.27L331.574,578.247ZM331.432,578.199L331.517,578.228L331.501,578.222L331.432,578.199ZM331.292,578.151L331.375,578.18L331.36,578.174L331.292,578.151ZM331.153,578.103L331.235,578.132L331.22,578.126L331.153,578.103ZM331.015,578.055L331.096,578.084L331.081,578.078L331.015,578.055ZM330.878,578.008L330.958,578.036L330.944,578.031L330.878,578.008ZM330.743,577.96L330.822,577.988L330.808,577.983L330.743,577.96ZM330.61,577.912L330.687,577.94L330.673,577.935L330.61,577.912ZM330.477,577.865L330.554,577.892L330.54,577.887L330.477,577.865ZM330.346,577.817L330.422,577.845L330.408,577.839L330.346,577.817ZM330.217,577.77L330.291,577.797L330.277,577.792L330.217,577.77ZM330.089,577.723L330.162,577.75L330.148,577.745L330.089,577.723ZM329.962,577.676L330.034,577.702L330.02,577.697L329.962,577.676ZM329.836,577.629L329.908,577.655L329.894,577.65L329.836,577.629ZM329.712,577.582L329.783,577.608L329.769,577.603L329.712,577.582ZM329.59,577.535L329.659,577.562L329.646,577.556L329.59,577.535ZM329.469,577.489L329.537,577.515L329.469,577.489ZM329.349,577.443L329.416,577.469L329.403,577.464L329.349,577.443ZM329.231,577.397L329.297,577.422L329.284,577.417L329.231,577.397ZM329.114,577.351L329.179,577.377L329.166,577.371L329.114,577.351ZM328.999,577.305L329.063,577.331L329.05,577.326L328.999,577.305ZM328.885,577.26L328.948,577.285L328.935,577.28L328.885,577.26ZM328.773,577.215L328.835,577.24L328.822,577.235L328.773,577.215ZM328.662,577.171L328.723,577.195L328.71,577.19L328.662,577.171ZM328.553,577.126L328.613,577.151L328.6,577.146L328.553,577.126ZM328.445,577.082L328.504,577.106L328.492,577.101L328.445,577.082ZM328.338,577.038L328.396,577.062L328.384,577.057L328.338,577.038ZM328.234,576.995L328.291,577.019L328.279,577.014L328.234,576.995ZM328.13,576.952L328.186,576.975L328.175,576.971L328.13,576.952ZM328.029,576.909L328.084,576.932L328.072,576.928L328.029,576.909ZM327.928,576.867L327.982,576.89L327.971,576.885L327.928,576.867ZM327.83,576.825L327.883,576.848L327.872,576.843L327.83,576.825ZM327.733,576.784L327.785,576.806L327.774,576.801L327.733,576.784ZM327.637,576.742L327.688,576.764L327.677,576.76L327.637,576.742ZM327.543,576.702L327.593,576.724L327.583,576.719L327.543,576.702ZM327.451,576.662L327.5,576.683L327.49,576.678L327.451,576.662ZM327.36,576.622L327.409,576.643L327.398,576.638L327.36,576.622ZM327.271,576.582L327.318,576.603L327.308,576.599L327.271,576.582ZM327.184,576.544L327.23,576.564L327.22,576.56L327.184,576.544ZM327.098,576.505L327.143,576.526L327.133,576.521L327.098,576.505ZM327.014,576.468L327.058,576.487L327.048,576.483L327.014,576.468ZM326.931,576.43L326.974,576.45L326.965,576.445L326.931,576.43ZM326.85,576.393L326.893,576.413L326.883,576.408L326.85,576.393ZM326.771,576.357L326.812,576.376L326.803,576.372L326.771,576.357ZM326.693,576.322L326.734,576.34L326.725,576.336L326.693,576.322ZM326.617,576.286L326.657,576.305L326.648,576.301L326.617,576.286ZM326.543,576.252L326.582,576.27L326.573,576.266L326.543,576.252ZM326.47,576.218L326.508,576.236L326.499,576.232L326.47,576.218ZM326.365,576.168L326.439,576.204L326.428,576.198L326.365,576.168ZM326.23,576.104L326.298,576.137L326.29,576.133L326.23,576.104ZM326.102,576.043L326.166,576.074L326.158,576.07L326.102,576.043ZM325.98,575.984L326.041,576.014L326.034,576.01L325.98,575.984ZM325.866,575.928L325.924,575.957L325.917,575.953L325.866,575.928ZM325.759,575.876L325.813,575.902L325.807,575.899L325.759,575.876ZM325.66,575.826L325.71,575.851L325.66,575.826ZM325.567,575.779L325.613,575.803L325.608,575.8L325.567,575.779ZM325.482,575.736L325.524,575.758L325.519,575.755L325.482,575.736ZM325.404,575.696L325.443,575.716L325.438,575.714L325.404,575.696ZM325.333,575.659L325.369,575.678L325.364,575.676L325.333,575.659ZM325.27,575.627L325.302,575.643L325.27,575.627ZM325.215,575.597L325.243,575.612L325.239,575.61L325.215,575.597ZM325.167,575.572L325.191,575.585L325.188,575.583L325.167,575.572ZM325.127,575.55L325.148,575.562L325.145,575.56L325.127,575.55ZM325.08,575.525L325.112,575.542L325.109,575.541L325.08,575.525Z" style="fill:white;stroke:rgb(0,0,4);stroke-width:1.5px;"/>
                        <path d="M325.045,500.44C329.141,498.239 343.298,496.933 375.554,500.793L401.298,471.946L409.137,473.749L409.137,499.012C409.546,514.07 390.054,525.527 390.054,525.527C390.054,525.527 346.411,550.374 303.376,525.527C288.575,516.982 283.955,508.396 284.263,500.807L284.263,475.719L292.103,474.916L325.045,500.44Z" style="fill:white;stroke:rgb(0,0,4);stroke-width:1.5px;"/>
                        <path d="M368.385,475.418L333.25,495.703L343.736,502.16L369.047,500.057L379.23,490.289L368.385,475.418Z" style="fill:url(#_Linear5);"/>
                        <path id="_2" serif:id="2" d="M390.054,500.44C390.054,500.44 347.56,525.95 303.376,500.44C260.34,475.593 303.376,450.396 303.376,450.396C303.376,450.396 347.104,425.598 390.054,450.396C433.005,475.194 390.054,500.44 390.054,500.44ZM325.045,487.929C346.909,475.306 368.339,487.902 368.385,487.929C347.109,500.212 325.092,487.955 325.045,487.929Z" style="fill:white;stroke:rgb(0,0,4);stroke-width:1.5px;"/>
                        <path d="M325.062,487.938C325.051,487.932 325.045,487.929 325.045,487.929C325.045,487.929 303.159,475.543 325.045,462.907C346.932,450.271 368.385,462.907 368.385,462.907C368.385,462.907 389.682,475.633 368.385,487.929C357.498,494.215 346.417,494.074 338.184,492.435C346.416,494.074 357.498,494.215 368.385,487.929C368.339,487.903 346.909,475.306 325.045,487.929L325.062,487.938ZM338.09,492.416L338.184,492.435L338.158,492.43L338.09,492.416ZM337.997,492.397L338.09,492.416L338.064,492.411L337.997,492.397ZM337.903,492.378L337.996,492.397L337.97,492.392L337.903,492.378ZM337.81,492.359L337.902,492.378L337.876,492.373L337.81,492.359ZM337.717,492.34L337.809,492.359L337.783,492.353L337.717,492.34ZM337.625,492.32L337.716,492.339L337.69,492.334L337.625,492.32ZM337.532,492.301L337.623,492.32L337.597,492.314L337.532,492.301ZM337.44,492.281L337.53,492.3L337.504,492.295L337.44,492.281ZM337.348,492.261L337.437,492.28L337.412,492.275L337.348,492.261ZM337.256,492.241L337.345,492.261L337.32,492.255L337.256,492.241ZM337.165,492.221L337.253,492.241L337.228,492.235L337.165,492.221ZM337.074,492.201L337.162,492.221L337.136,492.215L337.074,492.201ZM336.938,492.171L337.071,492.2L337.045,492.195L336.938,492.171ZM336.757,492.13L336.881,492.158L336.863,492.154L336.757,492.13ZM336.578,492.089L336.7,492.117L336.682,492.113L336.578,492.089ZM336.399,492.047L336.52,492.075L336.502,492.071L336.399,492.047ZM336.222,492.005L336.342,492.033L336.324,492.029L336.222,492.005ZM336.045,491.962L336.164,491.991L336.146,491.987L336.045,491.962ZM335.87,491.919L335.987,491.948L335.969,491.944L335.87,491.919ZM335.695,491.876L335.812,491.905L335.794,491.901L335.695,491.876ZM335.522,491.833L335.637,491.862L335.62,491.857L335.522,491.833ZM335.35,491.789L335.464,491.818L335.446,491.813L335.35,491.789ZM335.179,491.744L335.292,491.774L335.274,491.769L335.179,491.744ZM335.009,491.7L335.121,491.729L335.103,491.725L335.009,491.7ZM334.841,491.655L334.951,491.684L334.933,491.68L334.841,491.655ZM334.673,491.61L334.782,491.639L334.765,491.635L334.673,491.61ZM334.507,491.565L334.614,491.594L334.597,491.589L334.507,491.565ZM334.341,491.519L334.448,491.549L334.431,491.544L334.341,491.519ZM334.177,491.473L334.283,491.503L334.266,491.498L334.177,491.473ZM334.014,491.427L334.119,491.457L334.102,491.452L334.014,491.427ZM333.853,491.381L333.956,491.41L333.939,491.406L333.853,491.381ZM333.692,491.334L333.794,491.364L333.692,491.334ZM333.533,491.288L333.633,491.317L333.617,491.312L333.533,491.288ZM333.375,491.241L333.474,491.27L333.457,491.266L333.375,491.241ZM333.218,491.194L333.316,491.223L333.299,491.218L333.218,491.194ZM333.062,491.147L333.159,491.176L333.143,491.171L333.062,491.147ZM332.908,491.099L333.003,491.129L332.987,491.124L332.908,491.099ZM332.754,491.052L332.849,491.081L332.833,491.076L332.754,491.052ZM332.602,491.005L332.696,491.034L332.68,491.029L332.602,491.005ZM332.452,490.957L332.544,490.986L332.528,490.981L332.452,490.957ZM332.302,490.909L332.393,490.938L332.377,490.933L332.302,490.909ZM332.154,490.861L332.244,490.891L332.228,490.885L332.154,490.861ZM332.007,490.814L332.096,490.843L332.08,490.838L332.007,490.814ZM331.861,490.766L331.949,490.795L331.933,490.79L331.861,490.766ZM331.717,490.718L331.804,490.747L331.788,490.742L331.717,490.718ZM331.574,490.67L331.659,490.699L331.644,490.694L331.574,490.67ZM331.432,490.622L331.517,490.651L331.501,490.646L331.432,490.622ZM331.292,490.574L331.375,490.603L331.36,490.598L331.292,490.574ZM331.153,490.526L331.235,490.555L331.22,490.55L331.153,490.526ZM331.015,490.478L331.096,490.507L331.081,490.502L331.015,490.478ZM330.878,490.431L330.958,490.459L330.944,490.454L330.878,490.431ZM330.743,490.383L330.822,490.411L330.808,490.406L330.743,490.383ZM330.61,490.335L330.687,490.363L330.673,490.358L330.61,490.335ZM330.477,490.288L330.554,490.315L330.54,490.31L330.477,490.288ZM330.346,490.24L330.422,490.268L330.408,490.263L330.346,490.24ZM330.217,490.193L330.291,490.22L330.277,490.215L330.217,490.193ZM330.089,490.146L330.162,490.173L330.148,490.168L330.089,490.146ZM329.962,490.099L330.034,490.126L330.02,490.12L329.962,490.099ZM329.836,490.052L329.908,490.078L329.894,490.073L329.836,490.052ZM329.712,490.005L329.783,490.032L329.769,490.026L329.712,490.005ZM329.59,489.958L329.659,489.985L329.646,489.98L329.59,489.958ZM329.469,489.912L329.537,489.938L329.524,489.933L329.469,489.912ZM329.349,489.866L329.416,489.892L329.403,489.887L329.349,489.866ZM329.231,489.82L329.297,489.846L329.284,489.84L329.231,489.82ZM329.114,489.774L329.179,489.8L329.166,489.795L329.114,489.774ZM328.999,489.729L329.063,489.754L329.05,489.749L328.999,489.729ZM328.885,489.683L328.948,489.708L328.935,489.703L328.885,489.683ZM328.773,489.638L328.835,489.663L328.822,489.658L328.773,489.638ZM328.662,489.594L328.723,489.618L328.71,489.613L328.662,489.594ZM328.553,489.549L328.613,489.574L328.6,489.569L328.553,489.549ZM328.445,489.505L328.504,489.529L328.492,489.524L328.445,489.505ZM328.338,489.462L328.396,489.485L328.384,489.481L328.338,489.462ZM328.234,489.418L328.291,489.442L328.279,489.437L328.234,489.418ZM328.13,489.375L328.186,489.398L328.175,489.394L328.13,489.375ZM328.029,489.332L328.084,489.356L328.072,489.351L328.029,489.332ZM327.928,489.29L327.982,489.313L327.971,489.308L327.928,489.29ZM327.83,489.248L327.883,489.271L327.872,489.266L327.83,489.248ZM327.733,489.207L327.785,489.229L327.774,489.224L327.733,489.207ZM327.637,489.166L327.688,489.188L327.677,489.183L327.637,489.166ZM327.543,489.125L327.593,489.147L327.583,489.142L327.543,489.125ZM327.451,489.085L327.5,489.106L327.49,489.101L327.451,489.085ZM327.36,489.045L327.409,489.066L327.398,489.061L327.36,489.045ZM327.271,489.006L327.318,489.026L327.308,489.022L327.271,489.006ZM327.184,488.967L327.23,488.987L327.22,488.983L327.184,488.967ZM327.098,488.928L327.143,488.949L327.133,488.944L327.098,488.928ZM327.014,488.891L327.058,488.911L327.048,488.906L327.014,488.891ZM326.931,488.853L326.974,488.873L326.965,488.869L326.931,488.853ZM326.85,488.817L326.893,488.836L326.883,488.832L326.85,488.817ZM326.771,488.78L326.812,488.799L326.803,488.795L326.771,488.78ZM326.693,488.745L326.734,488.763L326.725,488.759L326.693,488.745ZM326.617,488.71L326.657,488.728L326.617,488.71ZM326.543,488.675L326.582,488.693L326.573,488.689L326.543,488.675ZM326.47,488.641L326.508,488.659L326.499,488.655L326.47,488.641ZM326.365,488.591L326.439,488.627L326.428,488.621L326.365,488.591ZM326.23,488.527L326.298,488.56L326.29,488.556L326.23,488.527ZM326.102,488.466L326.166,488.497L326.158,488.493L326.102,488.466ZM325.98,488.407L326.041,488.437L326.034,488.433L325.98,488.407ZM325.866,488.352L325.924,488.38L325.917,488.376L325.866,488.352ZM325.759,488.299L325.813,488.325L325.807,488.322L325.759,488.299ZM325.66,488.249L325.71,488.274L325.66,488.249ZM325.567,488.202L325.613,488.226L325.608,488.223L325.567,488.202ZM325.482,488.159L325.524,488.181L325.519,488.178L325.482,488.159ZM325.404,488.119L325.443,488.139L325.438,488.137L325.404,488.119ZM325.333,488.083L325.369,488.101L325.364,488.099L325.333,488.083ZM325.27,488.05L325.302,488.066L325.27,488.05ZM325.215,488.02L325.243,488.035L325.239,488.033L325.215,488.02ZM325.167,487.995L325.191,488.008L325.188,488.006L325.167,487.995ZM325.127,487.974L325.148,487.985L325.145,487.983L325.127,487.974ZM325.08,487.948L325.112,487.966L325.109,487.964L325.08,487.948Z" style="fill:white;stroke:rgb(0,0,4);stroke-width:1.5px;"/>
                        <path d="M303.719,387.718C307.814,385.518 321.595,419.121 375.907,404.695L401.298,384.369L409.137,386.172L409.137,411.435C409.561,427.05 390.054,437.95 390.054,437.95C390.054,437.95 347.465,463.405 303.376,437.95C288.575,429.405 283.955,420.819 284.263,413.23L284.263,388.142L292.103,387.339L303.719,387.718Z" style="fill:white;stroke:rgb(0,0,4);stroke-width:1.5px;"/>
                        <path id="_3" serif:id="3" d="M390.054,412.863C390.054,412.863 347.788,438.504 303.376,412.863C260.34,388.016 303.376,362.819 303.376,362.819C303.376,362.819 347.104,338.021 390.054,362.819C433.005,387.617 390.054,412.863 390.054,412.863ZM325.045,400.352C346.909,387.729 368.339,400.325 368.385,400.352C347.109,412.635 325.092,400.378 325.045,400.352Z" style="fill:white;stroke:rgb(0,0,4);stroke-width:1.5px;"/>
                        <path d="M325.062,400.361C325.051,400.355 325.045,400.352 325.045,400.352C325.045,400.352 303.159,387.966 325.045,375.33C346.932,362.694 368.385,375.33 368.385,375.33C368.385,375.33 389.682,388.056 368.385,400.352C357.498,406.637 346.417,406.497 338.184,404.858C346.416,406.497 357.498,406.637 368.385,400.352C368.339,400.325 346.909,387.729 325.045,400.352L325.062,400.361ZM338.09,404.839L338.184,404.858L338.158,404.852L338.09,404.839ZM337.997,404.82L338.09,404.839L338.064,404.834L337.997,404.82ZM337.903,404.801L337.996,404.82L337.97,404.815L337.903,404.801ZM337.81,404.782L337.902,404.801L337.876,404.795L337.81,404.782ZM337.717,404.762L337.809,404.781L337.783,404.776L337.717,404.762ZM337.625,404.743L337.716,404.762L337.69,404.757L337.625,404.743ZM337.532,404.723L337.623,404.743L337.597,404.737L337.532,404.723ZM337.44,404.704L337.53,404.723L337.504,404.718L337.44,404.704ZM337.348,404.684L337.437,404.703L337.412,404.698L337.348,404.684ZM337.256,404.664L337.345,404.683L337.32,404.678L337.256,404.664ZM337.165,404.644L337.253,404.663L337.228,404.658L337.165,404.644ZM337.074,404.624L337.162,404.643L337.136,404.638L337.074,404.624ZM336.938,404.594L337.071,404.623L337.045,404.618L336.938,404.594ZM336.757,404.553L336.881,404.581L336.863,404.577L336.757,404.553ZM336.578,404.511L336.7,404.54L336.682,404.536L336.578,404.511ZM336.399,404.47L336.52,404.498L336.502,404.494L336.399,404.47ZM336.222,404.428L336.342,404.456L336.324,404.452L336.222,404.428ZM336.045,404.385L336.164,404.414L336.146,404.409L336.045,404.385ZM335.87,404.342L335.987,404.371L335.969,404.367L335.87,404.342ZM335.695,404.299L335.812,404.328L335.794,404.324L335.695,404.299ZM335.522,404.255L335.637,404.284L335.62,404.28L335.522,404.255ZM335.35,404.211L335.464,404.241L335.446,404.236L335.35,404.211ZM335.179,404.167L335.292,404.196L335.274,404.192L335.179,404.167ZM335.009,404.123L335.121,404.152L335.103,404.148L335.009,404.123ZM334.841,404.078L334.951,404.107L334.933,404.103L334.841,404.078ZM334.673,404.033L334.782,404.062L334.765,404.058L334.673,404.033ZM334.507,403.987L334.614,404.017L334.597,404.012L334.507,403.987ZM334.341,403.942L334.448,403.971L334.431,403.967L334.341,403.942ZM334.177,403.896L334.283,403.926L334.266,403.921L334.177,403.896ZM334.014,403.85L334.119,403.88L334.102,403.875L334.014,403.85ZM333.853,403.804L333.956,403.833L333.939,403.828L333.853,403.804ZM333.692,403.757L333.794,403.787L333.692,403.757ZM333.533,403.711L333.633,403.74L333.617,403.735L333.533,403.711ZM333.375,403.664L333.474,403.693L333.457,403.688L333.375,403.664ZM333.218,403.617L333.316,403.646L333.299,403.641L333.218,403.617ZM333.062,403.57L333.159,403.599L333.143,403.594L333.062,403.57ZM332.908,403.522L333.003,403.552L332.987,403.547L332.908,403.522ZM332.754,403.475L332.849,403.504L332.833,403.499L332.754,403.475ZM332.602,403.427L332.696,403.457L332.68,403.452L332.602,403.427ZM332.452,403.38L332.544,403.409L332.528,403.404L332.452,403.38ZM332.302,403.332L332.393,403.361L332.377,403.356L332.302,403.332ZM332.154,403.284L332.244,403.313L332.228,403.308L332.154,403.284ZM332.007,403.236L332.096,403.265L332.08,403.26L332.007,403.236ZM331.861,403.189L331.949,403.218L331.933,403.212L331.861,403.189ZM331.717,403.141L331.804,403.17L331.788,403.164L331.717,403.141ZM331.574,403.093L331.659,403.122L331.644,403.116L331.574,403.093ZM331.432,403.045L331.517,403.074L331.501,403.068L331.432,403.045ZM331.292,402.997L331.375,403.026L331.36,403.02L331.292,402.997ZM331.153,402.949L331.235,402.977L331.22,402.972L331.153,402.949ZM331.015,402.901L331.096,402.93L331.081,402.924L331.015,402.901ZM330.878,402.853L330.958,402.882L330.944,402.876L330.878,402.853ZM330.743,402.806L330.822,402.834L330.808,402.829L330.743,402.806ZM330.61,402.758L330.687,402.786L330.673,402.781L330.61,402.758ZM330.477,402.711L330.554,402.738L330.54,402.733L330.477,402.711ZM330.346,402.663L330.422,402.691L330.408,402.685L330.346,402.663ZM330.217,402.616L330.291,402.643L330.277,402.638L330.217,402.616ZM330.089,402.568L330.162,402.596L330.148,402.59L330.089,402.568ZM329.962,402.521L330.034,402.548L330.02,402.543L329.962,402.521ZM329.836,402.474L329.908,402.501L329.894,402.496L329.836,402.474ZM329.712,402.428L329.783,402.454L329.769,402.449L329.712,402.428ZM329.59,402.381L329.659,402.408L329.646,402.402L329.59,402.381ZM329.469,402.335L329.537,402.361L329.524,402.356L329.469,402.335ZM329.349,402.289L329.416,402.315L329.403,402.309L329.349,402.289ZM329.231,402.243L329.297,402.268L329.284,402.263L329.231,402.243ZM329.114,402.197L329.179,402.222L329.114,402.197ZM328.999,402.151L329.063,402.177L329.05,402.172L328.999,402.151ZM328.885,402.106L328.948,402.131L328.935,402.126L328.885,402.106ZM328.773,402.061L328.835,402.086L328.822,402.081L328.773,402.061ZM328.662,402.017L328.723,402.041L328.71,402.036L328.662,402.017ZM328.553,401.972L328.613,401.997L328.6,401.992L328.553,401.972ZM328.445,401.928L328.504,401.952L328.492,401.947L328.445,401.928ZM328.338,401.884L328.396,401.908L328.338,401.884ZM328.234,401.841L328.291,401.865L328.279,401.86L328.234,401.841ZM328.13,401.798L328.186,401.821L328.175,401.816L328.13,401.798ZM328.029,401.755L328.084,401.778L328.029,401.755ZM327.928,401.713L327.982,401.736L327.971,401.731L327.928,401.713ZM327.83,401.671L327.883,401.694L327.872,401.689L327.83,401.671ZM327.733,401.629L327.785,401.652L327.774,401.647L327.733,401.629ZM327.637,401.588L327.688,401.61L327.677,401.606L327.637,401.588ZM327.543,401.548L327.593,401.569L327.583,401.565L327.543,401.548ZM327.451,401.507L327.5,401.529L327.49,401.524L327.451,401.507ZM327.36,401.468L327.409,401.489L327.398,401.484L327.36,401.468ZM327.271,401.428L327.318,401.449L327.308,401.445L327.271,401.428ZM327.184,401.39L327.23,401.41L327.22,401.406L327.184,401.39ZM327.098,401.351L327.143,401.371L327.133,401.367L327.098,401.351ZM327.014,401.313L327.058,401.333L327.048,401.329L327.014,401.313ZM326.931,401.276L326.974,401.296L326.965,401.291L326.931,401.276ZM326.85,401.239L326.893,401.259L326.883,401.254L326.85,401.239ZM326.771,401.203L326.812,401.222L326.803,401.218L326.771,401.203ZM326.693,401.167L326.734,401.186L326.725,401.182L326.693,401.167ZM326.617,401.132L326.657,401.151L326.648,401.147L326.617,401.132ZM326.543,401.098L326.582,401.116L326.573,401.112L326.543,401.098ZM326.47,401.064L326.508,401.082L326.499,401.078L326.47,401.064ZM326.365,401.014L326.439,401.049L326.428,401.044L326.365,401.014ZM326.23,400.95L326.298,400.983L326.29,400.979L326.23,400.95ZM326.102,400.889L326.166,400.92L326.158,400.916L326.102,400.889ZM325.98,400.83L326.041,400.86L326.034,400.856L325.98,400.83ZM325.866,400.774L325.924,400.802L325.917,400.799L325.866,400.774ZM325.759,400.722L325.813,400.748L325.807,400.745L325.759,400.722ZM325.66,400.672L325.71,400.697L325.66,400.672ZM325.567,400.625L325.613,400.649L325.608,400.646L325.567,400.625ZM325.482,400.582L325.524,400.604L325.519,400.601L325.482,400.582ZM325.404,400.542L325.443,400.562L325.438,400.559L325.404,400.542ZM325.333,400.505L325.369,400.524L325.364,400.521L325.333,400.505ZM325.27,400.472L325.302,400.489L325.298,400.487L325.27,400.472ZM325.215,400.443L325.243,400.458L325.239,400.456L325.215,400.443ZM325.167,400.418L325.191,400.431L325.188,400.429L325.167,400.418ZM325.127,400.396L325.148,400.407L325.145,400.406L325.127,400.396ZM325.08,400.371L325.112,400.388L325.109,400.387L325.08,400.371Z" style="fill:white;stroke:rgb(0,0,4);stroke-width:1.5px;"/>
                        <path d="M303.607,293.623C307.702,291.422 308.438,323.639 362.665,315.318L401.186,290.274L409.101,292.197L409.101,317.46C409.509,332.519 389.942,343.854 389.942,343.854C389.942,343.854 346.299,368.701 303.264,343.854C288.463,335.309 283.941,326.739 284.249,319.151L284.249,296.255L291.991,293.244L303.607,293.623Z" style="fill:white;stroke:rgb(0,0,4);stroke-width:1.5px;"/>
                        <path id="_4" serif:id="4" d="M390.054,319.462C390.054,319.462 347.731,345.07 303.376,319.462C260.34,294.615 303.376,269.418 303.376,269.418C303.376,269.418 347.104,244.62 390.054,269.418C433.005,294.215 390.054,319.462 390.054,319.462ZM325.045,307.264C346.909,294.641 368.339,307.237 368.385,307.264C347.109,319.547 325.092,307.29 325.045,307.264Z" style="fill:white;stroke:rgb(0,0,4);stroke-width:1.5px;"/>
                        <path d="M325.062,307.482C325.051,307.475 325.045,307.472 325.045,307.472C325.045,307.472 303.159,295.087 325.045,282.45C346.932,269.814 368.385,282.45 368.385,282.45C368.385,282.45 389.682,295.176 368.385,307.472C357.498,313.758 346.417,313.617 338.184,311.978C346.416,313.617 357.498,313.758 368.385,307.472C368.339,307.446 346.909,294.85 325.045,307.472L325.062,307.482ZM338.09,311.959L338.184,311.978L338.158,311.973L338.09,311.959ZM337.997,311.94L338.09,311.959L338.064,311.954L337.997,311.94ZM337.903,311.921L337.996,311.94L337.97,311.935L337.903,311.921ZM337.81,311.902L337.902,311.921L337.876,311.916L337.81,311.902ZM337.717,311.883L337.809,311.902L337.783,311.896L337.717,311.883ZM337.625,311.863L337.716,311.882L337.69,311.877L337.625,311.863ZM337.532,311.844L337.623,311.863L337.597,311.857L337.532,311.844ZM337.44,311.824L337.53,311.843L337.504,311.838L337.44,311.824ZM337.348,311.804L337.437,311.824L337.412,311.818L337.348,311.804ZM337.256,311.784L337.345,311.804L337.32,311.798L337.256,311.784ZM337.165,311.764L337.253,311.784L337.228,311.778L337.165,311.764ZM337.074,311.744L337.162,311.764L337.136,311.758L337.074,311.744ZM336.938,311.714L337.071,311.744L337.045,311.738L336.938,311.714ZM336.757,311.673L336.881,311.701L336.863,311.697L336.757,311.673ZM336.578,311.632L336.7,311.66L336.682,311.656L336.578,311.632ZM336.399,311.59L336.52,311.618L336.502,311.614L336.399,311.59ZM336.222,311.548L336.342,311.576L336.324,311.572L336.222,311.548ZM336.045,311.505L336.164,311.534L336.146,311.53L336.045,311.505ZM335.87,311.462L335.987,311.491L335.969,311.487L335.87,311.462ZM335.695,311.419L335.812,311.448L335.794,311.444L335.695,311.419ZM335.522,311.376L335.637,311.405L335.62,311.4L335.522,311.376ZM335.35,311.332L335.464,311.361L335.446,311.356L335.35,311.332ZM335.179,311.288L335.292,311.317L335.274,311.312L335.179,311.288ZM335.009,311.243L335.121,311.272L335.103,311.268L335.009,311.243ZM334.841,311.198L334.951,311.228L334.933,311.223L334.841,311.198ZM334.673,311.153L334.782,311.183L334.765,311.178L334.673,311.153ZM334.507,311.108L334.614,311.137L334.597,311.133L334.507,311.108ZM334.341,311.062L334.448,311.092L334.431,311.087L334.341,311.062ZM334.177,311.016L334.283,311.046L334.266,311.041L334.177,311.016ZM334.014,310.97L334.119,311L334.102,310.995L334.014,310.97ZM333.853,310.924L333.956,310.954L333.939,310.949L333.853,310.924ZM333.692,310.878L333.794,310.907L333.777,310.902L333.692,310.878ZM333.533,310.831L333.633,310.86L333.617,310.856L333.533,310.831ZM333.375,310.784L333.474,310.814L333.457,310.809L333.375,310.784ZM333.218,310.737L333.316,310.767L333.299,310.762L333.218,310.737ZM333.062,310.69L333.159,310.719L333.143,310.714L333.062,310.69ZM332.908,310.643L333.003,310.672L332.987,310.667L332.908,310.643ZM332.754,310.595L332.849,310.625L332.833,310.62L332.754,310.595ZM332.602,310.548L332.696,310.577L332.68,310.572L332.602,310.548ZM332.452,310.5L332.544,310.529L332.528,310.524L332.452,310.5ZM332.302,310.452L332.393,310.482L332.377,310.476L332.302,310.452ZM332.154,310.405L332.244,310.434L332.228,310.429L332.154,310.405ZM332.007,310.357L332.096,310.386L332.08,310.381L332.007,310.357ZM331.861,310.309L331.949,310.338L331.933,310.333L331.861,310.309ZM331.717,310.261L331.804,310.29L331.788,310.285L331.717,310.261ZM331.574,310.213L331.659,310.242L331.644,310.237L331.574,310.213ZM331.432,310.165L331.517,310.194L331.501,310.189L331.432,310.165ZM331.292,310.117L331.375,310.146L331.36,310.141L331.292,310.117ZM331.153,310.069L331.235,310.098L331.22,310.093L331.153,310.069ZM331.015,310.022L331.096,310.05L331.081,310.045L331.015,310.022ZM330.878,309.974L330.958,310.002L330.944,309.997L330.878,309.974ZM330.743,309.926L330.822,309.954L330.808,309.949L330.743,309.926ZM330.61,309.878L330.687,309.906L330.673,309.901L330.61,309.878ZM330.477,309.831L330.554,309.859L330.54,309.853L330.477,309.831ZM330.346,309.783L330.422,309.811L330.408,309.806L330.346,309.783ZM330.217,309.736L330.291,309.763L330.277,309.758L330.217,309.736ZM330.089,309.689L330.162,309.716L330.148,309.711L330.089,309.689ZM329.962,309.642L330.034,309.669L330.02,309.664L329.962,309.642ZM329.836,309.595L329.908,309.622L329.894,309.616L329.836,309.595ZM329.712,309.548L329.783,309.575L329.769,309.569L329.712,309.548ZM329.59,309.501L329.659,309.528L329.646,309.523L329.59,309.501ZM329.469,309.455L329.537,309.481L329.524,309.476L329.469,309.455ZM329.349,309.409L329.416,309.435L329.403,309.43L329.349,309.409ZM329.231,309.363L329.297,309.389L329.284,309.384L329.231,309.363ZM329.114,309.317L329.179,309.343L329.166,309.338L329.114,309.317ZM328.999,309.272L329.063,309.297L329.05,309.292L328.999,309.272ZM328.885,309.226L328.948,309.252L328.935,309.247L328.885,309.226ZM328.773,309.182L328.835,309.206L328.773,309.182ZM328.662,309.137L328.723,309.161L328.71,309.156L328.662,309.137ZM328.553,309.092L328.613,309.117L328.6,309.112L328.553,309.092ZM328.445,309.048L328.504,309.073L328.492,309.068L328.445,309.048ZM328.338,309.005L328.396,309.029L328.384,309.024L328.338,309.005ZM328.234,308.961L328.291,308.985L328.279,308.98L328.234,308.961ZM328.13,308.918L328.186,308.942L328.175,308.937L328.13,308.918ZM328.029,308.876L328.084,308.899L328.029,308.876ZM327.928,308.833L327.982,308.856L327.971,308.851L327.928,308.833ZM327.83,308.791L327.883,308.814L327.872,308.809L327.83,308.791ZM327.733,308.75L327.785,308.772L327.774,308.767L327.733,308.75ZM327.637,308.709L327.688,308.731L327.677,308.726L327.637,308.709ZM327.543,308.668L327.593,308.69L327.583,308.685L327.543,308.668ZM327.451,308.628L327.5,308.649L327.49,308.645L327.451,308.628ZM327.36,308.588L327.409,308.609L327.398,308.605L327.36,308.588ZM327.271,308.549L327.318,308.57L327.308,308.565L327.271,308.549ZM327.184,308.51L327.23,308.53L327.22,308.526L327.184,308.51ZM327.098,308.472L327.143,308.492L327.133,308.487L327.098,308.472ZM327.014,308.434L327.058,308.454L327.048,308.449L327.014,308.434ZM326.931,308.396L326.974,308.416L326.965,308.412L326.931,308.396ZM326.85,308.36L326.893,308.379L326.883,308.375L326.85,308.36ZM326.771,308.323L326.812,308.342L326.803,308.338L326.771,308.323ZM326.693,308.288L326.734,308.306L326.725,308.302L326.693,308.288ZM326.617,308.253L326.657,308.271L326.617,308.253ZM326.543,308.218L326.582,308.236L326.573,308.232L326.543,308.218ZM326.47,308.184L326.508,308.202L326.499,308.198L326.47,308.184ZM326.365,308.135L326.439,308.17L326.428,308.164L326.365,308.135ZM326.23,308.071L326.298,308.103L326.29,308.099L326.23,308.071ZM326.102,308.009L326.166,308.04L326.158,308.036L326.102,308.009ZM325.98,307.95L326.041,307.98L326.034,307.977L325.98,307.95ZM325.866,307.895L325.924,307.923L325.917,307.919L325.866,307.895ZM325.759,307.842L325.813,307.868L325.807,307.865L325.759,307.842ZM325.66,307.792L325.71,307.817L325.66,307.792ZM325.567,307.745L325.613,307.769L325.608,307.766L325.567,307.745ZM325.482,307.702L325.524,307.724L325.519,307.721L325.482,307.702ZM325.404,307.662L325.443,307.682L325.438,307.68L325.404,307.662ZM325.333,307.626L325.369,307.644L325.364,307.642L325.333,307.626ZM325.27,307.593L325.302,307.609L325.27,307.593ZM325.215,307.564L325.243,307.578L325.239,307.577L325.215,307.564ZM325.167,307.538L325.191,307.551L325.188,307.549L325.167,307.538ZM325.127,307.517L325.148,307.528L325.145,307.526L325.127,307.517ZM325.08,307.491L325.112,307.509L325.109,307.507L325.08,307.491Z" style="fill:white;stroke:rgb(0,0,4);stroke-width:1.5px;"/>
                        <path d="M235.478,357.976C235.478,377.073 216.728,387.823 216.728,387.823L216.697,387.841C216.697,387.841 195.027,400.082 195.027,425.374C195.027,436.25 199.034,440.086 203.602,440.925C215.109,430.44 237.529,417.105 266.779,433.992C310.169,459.043 289.171,471.078 267.527,458.582C245.9,446.096 216.743,462.88 216.697,462.907C216.697,462.907 173.358,488.1 173.358,437.885C173.358,394.175 206.195,369.684 214.703,364.071L235.478,336.548L235.478,357.976Z" style="fill:url(#_Linear6);"/>
                        <path d="M216.697,437.885C195.005,450.409 195.027,429.028 195.027,425.374C195.027,425.374 238.316,400.323 281.706,425.374C304.757,438.682 303.316,451.974 296.901,461.511C291.24,469.926 284.249,478.199 284.249,478.199L260.036,487.929L260.036,462.907C260.036,462.907 281.68,450.381 260.036,437.885C238.392,425.389 216.697,437.885 216.697,437.885Z" style="fill:url(#_Linear7);"/>
                        <path d="M216.697,361.43L216.697,237.709L238.367,225.198L238.367,525.462L216.697,512.951L216.697,387.841L216.728,387.823C216.728,387.823 235.478,377.073 235.478,357.976L235.478,336.548L216.697,361.43Z" style="fill:url(#_Linear8);"/>
                        <path d="M97.871,341.415C91.472,337.696 86.679,329.371 86.679,312.775C86.679,262.873 130.018,237.709 130.018,237.709L346.715,112.599L455.063,175.154L433.394,187.665L368.385,154.105L346.715,137.621L330.345,150.084L151.688,250.22L123.786,296.666L130.018,337.797C130.018,337.797 124.74,340.827 117.867,342.652L119.407,348.766L119.49,353.897L97.957,341.465C97.931,341.45 97.905,341.435 97.879,341.42L97.87,341.415L97.871,341.415Z" style="fill:url(#_Linear9);"/>
                        <path d="M314.343,531.641C326.32,536.225 337.409,537.631 347.936,537.268L238.367,600.528L238.367,575.506L298.947,537.117L314.343,531.641ZM238.367,525.409L238.367,225.198L151.688,275.242C151.688,275.242 130.018,287.483 130.018,312.775C130.018,323.651 134.025,327.487 138.593,328.326C150.1,317.841 172.52,304.506 201.77,321.393C245.16,346.444 224.162,358.479 202.518,345.983C180.891,333.497 151.734,350.281 151.688,350.308C151.688,350.308 108.348,375.501 108.348,325.286C108.348,275.071 151.688,250.22 151.688,250.22L346.715,137.621L350.107,150.459L346.715,164.15L328.835,172.966L260.036,212.687L260.036,487.929L281.706,475.418C281.706,475.418 300.518,464.582 300.981,450.028L300.925,474.003C301.206,484.293 292.131,492.864 286.354,497.26C284.932,498.342 277.443,502.79 270.815,506.675L238.367,525.409ZM300.984,449.017L300.984,449.015L300.984,449.017Z" style="fill:url(#_Linear10);"/>
                        <path d="M238.367,225.198L260.036,212.687L260.036,487.929L238.367,500.44L238.367,225.198Z" style="fill:url(#_Linear11);"/>
                        <path d="M195.027,350.308C195.027,350.308 216.671,337.782 195.027,325.286C173.383,312.79 151.688,325.286 151.688,325.286C129.996,337.81 130.018,316.429 130.018,312.775C130.018,312.775 173.307,287.724 216.697,312.775C254.472,334.585 224.962,357.299 216.692,362.812L216.697,362.819L216.418,362.994C215.63,363.513 215.071,363.853 214.832,363.995L214.703,364.071C206.195,369.684 173.358,394.175 173.358,437.885C173.358,453.12 177.347,461.414 182.905,465.576L162.966,454.064C162.94,454.049 162.914,454.034 162.888,454.019L162.88,454.014C156.481,450.295 151.688,441.97 151.688,425.374C151.688,375.511 194.958,350.348 195.027,350.308Z" style="fill:url(#_Linear12);"/>
                        <path d="M303.719,200.053C307.814,197.853 311.667,220.756 362.791,228.428L401.298,196.704L409.137,198.507L409.137,223.77C409.546,238.828 390.054,250.285 390.054,250.285C390.054,250.285 346.411,275.132 303.376,250.285C288.575,241.74 283.955,233.154 284.263,225.565L284.263,200.477L292.103,199.674L303.719,200.053Z" style="fill:white;stroke:rgb(0,0,4);stroke-width:1.5px;"/>
                        <path d="M361.923,354.039L342.492,369.441L314.21,381.585C314.21,381.585 309.9,384.071 303.997,385.905L307.613,390.288L303.939,397.88L282.267,385.367C282.162,385.308 282.058,385.248 281.955,385.187L281.946,385.182C275.606,381.429 270.871,373.093 270.871,356.563C270.871,306.556 314.21,281.497 314.21,281.497L346.715,262.731C346.715,262.731 368.354,250.238 390.054,237.709C411.755,225.18 411.724,200.176 411.724,200.176L357.55,168.898L346.715,164.15L346.715,137.621L433.394,187.665L439.521,241.247L392.288,268.984L360.18,289.568L330.867,309.414C330.867,309.414 300.422,327.201 300.422,352.013C300.422,376.826 314.21,356.563 314.21,356.563L321.435,352.409C336.207,356.694 350.41,356.123 361.923,354.039Z" style="fill:url(#_Linear13);"/>
                        <path id="_5" serif:id="5" d="M390.054,225.198C390.054,225.198 348.836,251.445 303.376,225.198C260.34,200.351 303.376,175.154 303.376,175.154C303.376,175.154 347.104,150.356 390.054,175.154C433.005,199.952 390.054,225.198 390.054,225.198ZM325.045,212.687C346.909,200.064 368.339,212.66 368.385,212.687C347.109,224.97 325.092,212.713 325.045,212.687Z" style="fill:white;stroke:rgb(0,0,4);stroke-width:1.5px;"/>
                        <path d="M325.062,212.696C325.051,212.69 325.045,212.687 325.045,212.687C325.045,212.687 303.159,200.301 325.045,187.665C346.932,175.029 368.385,187.665 368.385,187.665C368.385,187.665 389.682,200.391 368.385,212.687C357.498,218.972 346.417,218.832 338.184,217.193C346.416,218.832 357.498,218.972 368.385,212.687C368.339,212.66 346.909,200.064 325.045,212.687L325.062,212.696ZM338.09,217.174L338.184,217.193L338.158,217.187L338.09,217.174ZM337.997,217.155L338.09,217.174L338.064,217.169L337.997,217.155ZM337.903,217.136L337.996,217.155L337.97,217.15L337.903,217.136ZM337.81,217.117L337.902,217.136L337.876,217.13L337.81,217.117ZM337.717,217.097L337.809,217.116L337.783,217.111L337.717,217.097ZM337.625,217.078L337.716,217.097L337.69,217.092L337.625,217.078ZM337.532,217.058L337.623,217.078L337.597,217.072L337.532,217.058ZM337.44,217.039L337.53,217.058L337.504,217.053L337.44,217.039ZM337.348,217.019L337.437,217.038L337.412,217.033L337.348,217.019ZM337.256,216.999L337.345,217.018L337.32,217.013L337.256,216.999ZM337.165,216.979L337.253,216.998L337.228,216.993L337.165,216.979ZM337.074,216.959L337.162,216.978L337.136,216.973L337.074,216.959ZM336.938,216.929L337.071,216.958L337.045,216.953L336.938,216.929ZM336.757,216.888L336.881,216.916L336.863,216.912L336.757,216.888ZM336.578,216.846L336.7,216.875L336.682,216.871L336.578,216.846ZM336.399,216.805L336.52,216.833L336.502,216.829L336.399,216.805ZM336.222,216.763L336.342,216.791L336.324,216.787L336.222,216.763ZM336.045,216.72L336.164,216.749L336.146,216.744L336.045,216.72ZM335.87,216.677L335.987,216.706L335.969,216.702L335.87,216.677ZM335.695,216.634L335.812,216.663L335.794,216.659L335.695,216.634ZM335.522,216.59L335.637,216.619L335.62,216.615L335.522,216.59ZM335.35,216.546L335.464,216.576L335.446,216.571L335.35,216.546ZM335.179,216.502L335.292,216.531L335.274,216.527L335.179,216.502ZM335.009,216.458L335.121,216.487L335.103,216.483L335.009,216.458ZM334.841,216.413L334.951,216.442L334.933,216.438L334.841,216.413ZM334.673,216.368L334.782,216.397L334.765,216.393L334.673,216.368ZM334.507,216.322L334.614,216.352L334.597,216.347L334.507,216.322ZM334.341,216.277L334.448,216.306L334.431,216.302L334.341,216.277ZM334.177,216.231L334.283,216.261L334.266,216.256L334.177,216.231ZM334.014,216.185L334.119,216.215L334.102,216.21L334.014,216.185ZM333.853,216.139L333.956,216.168L333.939,216.163L333.853,216.139ZM333.692,216.092L333.794,216.122L333.692,216.092ZM333.533,216.046L333.633,216.075L333.617,216.07L333.533,216.046ZM333.375,215.999L333.474,216.028L333.375,215.999ZM333.218,215.952L333.316,215.981L333.299,215.976L333.218,215.952ZM333.062,215.905L333.159,215.934L333.143,215.929L333.062,215.905ZM332.908,215.857L333.003,215.887L332.987,215.882L332.908,215.857ZM332.754,215.81L332.849,215.839L332.833,215.834L332.754,215.81ZM332.602,215.762L332.696,215.792L332.68,215.787L332.602,215.762ZM332.452,215.715L332.544,215.744L332.528,215.739L332.452,215.715ZM332.302,215.667L332.393,215.696L332.377,215.691L332.302,215.667ZM332.154,215.619L332.244,215.648L332.228,215.643L332.154,215.619ZM332.007,215.571L332.096,215.6L332.08,215.595L332.007,215.571ZM331.861,215.524L331.949,215.553L331.933,215.547L331.861,215.524ZM331.717,215.476L331.804,215.505L331.788,215.499L331.717,215.476ZM331.574,215.428L331.659,215.457L331.644,215.451L331.574,215.428ZM331.432,215.38L331.517,215.409L331.501,215.403L331.432,215.38ZM331.292,215.332L331.375,215.361L331.36,215.355L331.292,215.332ZM331.153,215.284L331.235,215.312L331.22,215.307L331.153,215.284ZM331.015,215.236L331.096,215.265L331.081,215.259L331.015,215.236ZM330.878,215.188L330.958,215.217L330.944,215.211L330.878,215.188ZM330.743,215.141L330.822,215.169L330.808,215.164L330.743,215.141ZM330.61,215.093L330.687,215.121L330.673,215.116L330.61,215.093ZM330.477,215.046L330.554,215.073L330.54,215.068L330.477,215.046ZM330.346,214.998L330.422,215.026L330.408,215.02L330.346,214.998ZM330.217,214.951L330.291,214.978L330.277,214.973L330.217,214.951ZM330.089,214.903L330.162,214.931L330.148,214.925L330.089,214.903ZM329.962,214.856L330.034,214.883L330.02,214.878L329.962,214.856ZM329.836,214.809L329.908,214.836L329.894,214.831L329.836,214.809ZM329.712,214.763L329.783,214.789L329.769,214.784L329.712,214.763ZM329.59,214.716L329.659,214.743L329.646,214.737L329.59,214.716ZM329.469,214.67L329.537,214.696L329.524,214.691L329.469,214.67ZM329.349,214.624L329.416,214.65L329.403,214.644L329.349,214.624ZM329.231,214.578L329.297,214.603L329.284,214.598L329.231,214.578ZM329.114,214.532L329.179,214.557L329.114,214.532ZM328.999,214.486L329.063,214.512L329.05,214.507L328.999,214.486ZM328.885,214.441L328.948,214.466L328.935,214.461L328.885,214.441ZM328.773,214.396L328.835,214.421L328.822,214.416L328.773,214.396ZM328.662,214.352L328.723,214.376L328.71,214.371L328.662,214.352ZM328.553,214.307L328.613,214.332L328.6,214.327L328.553,214.307ZM328.445,214.263L328.504,214.287L328.492,214.282L328.445,214.263ZM328.338,214.219L328.396,214.243L328.384,214.238L328.338,214.219ZM328.234,214.176L328.291,214.2L328.279,214.195L328.234,214.176ZM328.13,214.133L328.186,214.156L328.175,214.151L328.13,214.133ZM328.029,214.09L328.084,214.113L328.029,214.09ZM327.928,214.048L327.982,214.071L327.971,214.066L327.928,214.048ZM327.83,214.006L327.883,214.029L327.872,214.024L327.83,214.006ZM327.733,213.964L327.785,213.987L327.774,213.982L327.733,213.964ZM327.637,213.923L327.688,213.945L327.677,213.941L327.637,213.923ZM327.543,213.883L327.593,213.904L327.583,213.9L327.543,213.883ZM327.451,213.842L327.5,213.864L327.49,213.859L327.451,213.842ZM327.36,213.803L327.409,213.824L327.398,213.819L327.36,213.803ZM327.271,213.763L327.318,213.784L327.308,213.78L327.271,213.763ZM327.184,213.725L327.23,213.745L327.22,213.741L327.184,213.725ZM327.098,213.686L327.143,213.706L327.133,213.702L327.098,213.686ZM327.014,213.648L327.058,213.668L327.048,213.664L327.014,213.648ZM326.931,213.611L326.974,213.631L326.965,213.626L326.931,213.611ZM326.85,213.574L326.893,213.594L326.883,213.589L326.85,213.574ZM326.771,213.538L326.812,213.557L326.803,213.553L326.771,213.538ZM326.693,213.502L326.734,213.521L326.725,213.517L326.693,213.502ZM326.617,213.467L326.657,213.486L326.648,213.482L326.617,213.467ZM326.543,213.433L326.582,213.451L326.573,213.447L326.543,213.433ZM326.47,213.399L326.508,213.417L326.499,213.413L326.47,213.399ZM326.365,213.349L326.439,213.384L326.428,213.379L326.365,213.349ZM326.23,213.285L326.298,213.318L326.29,213.314L326.23,213.285ZM326.102,213.224L326.166,213.255L326.158,213.251L326.102,213.224ZM325.98,213.165L326.041,213.195L326.034,213.191L325.98,213.165ZM325.866,213.109L325.924,213.137L325.917,213.134L325.866,213.109ZM325.759,213.057L325.813,213.083L325.807,213.08L325.759,213.057ZM325.66,213.007L325.71,213.032L325.66,213.007ZM325.567,212.96L325.613,212.984L325.608,212.981L325.567,212.96ZM325.482,212.917L325.524,212.939L325.519,212.936L325.482,212.917ZM325.404,212.877L325.443,212.897L325.438,212.894L325.404,212.877ZM325.333,212.84L325.369,212.859L325.364,212.856L325.333,212.84ZM325.27,212.807L325.302,212.824L325.298,212.822L325.27,212.807ZM325.215,212.778L325.243,212.793L325.239,212.791L325.215,212.778ZM325.167,212.753L325.191,212.766L325.188,212.764L325.167,212.753ZM325.127,212.731L325.148,212.742L325.145,212.741L325.127,212.731ZM325.08,212.706L325.112,212.723L325.109,212.722L325.08,212.706Z" style="fill:white;stroke:rgb(0,0,4);stroke-width:1.5px;"/>
                        <path d="M474.307,373.929L474.307,414.264L433.394,437.885L433.394,412.863L439.483,399.459L474.307,373.929Z" style="fill:url(#_Linear14);"/>
                        <path d="M498.403,500.44L520.073,487.929L520.073,437.885L523.377,422.311L520.073,412.863L520.073,237.709L498.403,225.198L498.403,500.44Z" style="fill:url(#_Linear15);"/>
                        <path d="M433.394,437.885L425.809,446.017L411.724,450.396L411.724,425.374C411.724,400.716 433.394,387.841 433.394,387.841C433.394,387.841 455.117,375.361 433.394,362.819C411.671,350.277 390.054,362.819 390.054,362.819L335.88,394.096C335.88,394.096 292.541,419.082 292.541,369.074C292.541,319.067 335.88,294.008 335.88,294.008L368.385,275.242C368.385,275.242 390.023,262.749 411.724,250.22C433.425,237.691 433.394,212.687 433.394,212.687L433.394,187.665L455.063,175.154L455.063,200.176C455.063,250.061 411.724,275.242 411.724,275.242L368.385,300.264L335.88,319.03C335.88,319.03 314.21,331.751 314.21,356.563C314.21,381.376 335.88,369.074 335.88,369.074L361.923,354.039L361.924,354.039C363.857,353.689 363.752,353.69 363.752,353.69C379.544,350.533 390.054,344.549 390.054,344.549C390.054,344.549 393.292,342.74 396.574,340.065C429.042,334.579 455.063,350.308 455.063,350.308C498.375,375.314 455.063,400.352 455.063,400.352C433.289,412.924 433.394,437.885 433.394,437.885Z" style="fill:url(#_Linear16);"/>
                        <path d="M563.422,287.759L498.403,250.22L498.403,500.44L433.394,462.907L476.733,462.907L476.733,212.687L498.403,225.198L585.082,275.242L585.111,275.259L617.586,294.008L621.014,303.903L621.359,304.341C622.902,306.316 623.581,308.752 623.614,311.41L628.421,325.286L621.433,321.252C616.17,333.981 603.1,345.582 601.604,334.825C597.857,307.882 564.089,288.146 563.422,287.759Z" style="fill:url(#_Linear17);"/>
                        <path d="M409.793,476.533L476.733,437.885L476.733,462.907L409.774,501.566C409.919,500.575 409.821,499.659 409.793,498.633L409.793,476.533Z" style="fill:url(#_Linear18);"/>
                        <path d="M292.85,519.028C295.461,521.315 298.555,523.708 302.541,526.009C306.481,528.284 310.426,530.142 314.343,531.641L238.367,575.506L216.697,562.995L292.85,519.028ZM400.535,456.856L476.733,412.863L476.733,437.885L409.793,476.533L409.793,474.474C409.801,474.172 409.801,473.868 409.793,473.564L409.793,473.37L409.787,473.369C409.594,468.185 407.061,462.564 400.535,456.856Z" style="fill:url(#_Linear19);"/>
                        <path d="M216.697,588.017L238.367,600.528L238.367,575.506L216.697,562.995L216.697,588.017Z" style="fill:url(#_Linear20);"/>
                        <path d="M633.503,335.984C633.208,371.966 587.431,398.988 585.169,400.302L585.163,400.305C585.109,400.336 585.082,400.352 585.082,400.352L520.073,437.885L520.073,409.534L562.218,383.86C648.838,333.85 611.029,310.464 610.891,310.385L591.363,271.615C611.773,283.399 618.255,298.785 625.52,310.116L633.503,310.264L633.503,335.29C633.505,335.52 633.505,335.75 633.503,335.979L633.503,335.984Z" style="fill:url(#_Linear21);"/>
                        <path d="M563.412,262.731L476.733,212.687L498.403,200.176L585.082,250.22C692.244,312.091 588.602,373.286 585.169,375.28L585.163,375.283C585.109,375.314 585.082,375.33 585.082,375.33L520.073,412.863L520.073,387.841L563.412,362.819C650.032,312.808 563.549,262.81 563.412,262.731Z" style="fill:url(#_Linear22);"/>
                        <path d="M216.697,100.088L216.697,187.665L238.367,175.154L238.367,112.599L216.697,100.088Z" style="fill:url(#_Linear23);"/>
                        <path d="M270.871,68.81C270.939,68.772 346.594,25.294 422.115,68.555L422.559,68.81L476.733,100.088L455.063,112.599L400.889,81.321C400.889,81.321 346.193,50.345 292.541,81.321L238.367,112.599L216.697,100.088L270.871,68.81Z" style="fill:url(#_Linear24);"/>
                        <path d="M455.063,137.621L476.733,125.11L476.733,100.088L455.063,112.599L455.063,137.621Z" style="fill:url(#_Linear25);"/>
                    </g>
                </g>
            </g>
        </g>
    </g>
    <defs>
        <linearGradient id="_Linear2" x1="0" y1="0" x2="1" y2="0" gradientUnits="userSpaceOnUse" gradientTransform="matrix(1240.95,-1095.81,1095.81,1240.95,1231.82,3475.83)"><stop offset="0" style="stop-color:rgb(75,185,210);stop-opacity:1"/><stop offset="1" style="stop-color:rgb(155,206,100);stop-opacity:1"/></linearGradient>
        <linearGradient id="_Linear3" x1="0" y1="0" x2="1" y2="0" gradientUnits="userSpaceOnUse" gradientTransform="matrix(254.665,-91.6771,91.6771,254.665,238.367,151.355)"><stop offset="0" style="stop-color:rgb(0,151,134);stop-opacity:1"/><stop offset="1" style="stop-color:rgb(83,185,228);stop-opacity:1"/></linearGradient>
        <linearGradient id="_Linear4" x1="0" y1="0" x2="1" y2="0" gradientUnits="userSpaceOnUse" gradientTransform="matrix(-60.3956,3.20469,-3.20469,-60.3956,446.873,361.679)"><stop offset="0" style="stop-color:rgb(0,151,134);stop-opacity:1"/><stop offset="1" style="stop-color:rgb(8,179,231);stop-opacity:1"/></linearGradient>
        <linearGradient id="_Linear5" x1="0" y1="0" x2="1" y2="0" gradientUnits="userSpaceOnUse" gradientTransform="matrix(-49.6317,25.521,-25.521,-49.6317,374.3,483.529)"><stop offset="0" style="stop-color:rgb(45,185,158);stop-opacity:1"/><stop offset="1" style="stop-color:rgb(155,206,100);stop-opacity:1"/></linearGradient>
        <linearGradient id="_Linear6" x1="0" y1="0" x2="1" y2="0" gradientUnits="userSpaceOnUse" gradientTransform="matrix(-84.5906,112.757,-112.757,-84.5906,260.036,341.374)"><stop offset="0" style="stop-color:rgb(83,184,175);stop-opacity:1"/><stop offset="1" style="stop-color:rgb(0,151,134);stop-opacity:1"/></linearGradient>
        <linearGradient id="_Linear7" x1="0" y1="0" x2="1" y2="0" gradientUnits="userSpaceOnUse" gradientTransform="matrix(-40.8489,76.4496,-76.4496,-40.8489,279.215,423.99)"><stop offset="0" style="stop-color:rgb(153,207,101);stop-opacity:1"/><stop offset="1" style="stop-color:rgb(0,151,134);stop-opacity:1"/></linearGradient>
        <linearGradient id="_Linear8" x1="0" y1="0" x2="1" y2="0" gradientUnits="userSpaceOnUse" gradientTransform="matrix(179.122,-440.384,440.384,179.122,102.851,527.807)"><stop offset="0" style="stop-color:rgb(83,185,228);stop-opacity:1"/><stop offset="1" style="stop-color:rgb(47,185,149);stop-opacity:1"/></linearGradient>
        <linearGradient id="_Linear9" x1="0" y1="0" x2="1" y2="0" gradientUnits="userSpaceOnUse" gradientTransform="matrix(308.485,-195.826,195.826,308.485,59.9001,320.936)"><stop offset="0" style="stop-color:rgb(83,185,228);stop-opacity:1"/><stop offset="0.52" style="stop-color:rgb(47,185,149);stop-opacity:1"/><stop offset="1" style="stop-color:rgb(155,206,100);stop-opacity:1"/></linearGradient>
        <linearGradient id="_Linear10" x1="0" y1="0" x2="1" y2="0" gradientUnits="userSpaceOnUse" gradientTransform="matrix(216.697,-200.176,200.176,216.697,130.018,350.308)"><stop offset="0" style="stop-color:rgb(47,185,149);stop-opacity:1"/><stop offset="0.5" style="stop-color:rgb(83,184,175);stop-opacity:1"/><stop offset="1" style="stop-color:rgb(0,168,150);stop-opacity:1"/></linearGradient>
        <linearGradient id="_Linear11" x1="0" y1="0" x2="1" y2="0" gradientUnits="userSpaceOnUse" gradientTransform="matrix(1.39086e-13,275.242,-275.242,1.39086e-13,249.201,218.942)"><stop offset="0" style="stop-color:rgb(0,151,134);stop-opacity:1"/><stop offset="1" style="stop-color:rgb(96,96,105);stop-opacity:0"/></linearGradient>
        <linearGradient id="_Linear12" x1="0" y1="0" x2="1" y2="0" gradientUnits="userSpaceOnUse" gradientTransform="matrix(-18.5126,174.585,-174.585,-18.5126,182.57,300.164)"><stop offset="0" style="stop-color:rgb(153,207,101);stop-opacity:1"/><stop offset="1" style="stop-color:rgb(83,185,228);stop-opacity:1"/></linearGradient>
        <linearGradient id="_Linear13" x1="0" y1="0" x2="1" y2="0" gradientUnits="userSpaceOnUse" gradientTransform="matrix(2.97424,-211.167,211.167,2.97424,284.263,402.025)"><stop offset="0" style="stop-color:rgb(8,179,231);stop-opacity:1"/><stop offset="0.5" style="stop-color:rgb(0,168,150);stop-opacity:1"/><stop offset="1" style="stop-color:rgb(59,182,230);stop-opacity:1"/></linearGradient>
        <linearGradient id="_Linear14" x1="0" y1="0" x2="1" y2="0" gradientUnits="userSpaceOnUse" gradientTransform="matrix(-43.3394,54.9918,-54.9918,-43.3394,476.733,382.893)"><stop offset="0" style="stop-color:rgb(155,206,100);stop-opacity:1"/><stop offset="1" style="stop-color:rgb(0,151,134);stop-opacity:1"/></linearGradient>
        <linearGradient id="_Linear15" x1="0" y1="0" x2="1" y2="0" gradientUnits="userSpaceOnUse" gradientTransform="matrix(17.7721,256.711,-256.711,17.7721,499.693,225.943)"><stop offset="0" style="stop-color:rgb(47,185,149);stop-opacity:1"/><stop offset="1" style="stop-color:rgb(0,151,134);stop-opacity:1"/></linearGradient>
        <linearGradient id="_Linear16" x1="0" y1="0" x2="1" y2="0" gradientUnits="userSpaceOnUse" gradientTransform="matrix(32.5045,256.476,-256.476,32.5045,422.559,181.409)"><stop offset="0" style="stop-color:rgb(0,168,150);stop-opacity:1"/><stop offset="0.61" style="stop-color:rgb(155,206,100);stop-opacity:1"/><stop offset="1" style="stop-color:rgb(83,185,228);stop-opacity:1"/></linearGradient>
        <linearGradient id="_Linear17" x1="0" y1="0" x2="1" y2="0" gradientUnits="userSpaceOnUse" gradientTransform="matrix(160.973,-180.515,180.515,160.973,456.613,474.523)"><stop offset="0" style="stop-color:rgb(83,185,228);stop-opacity:1"/><stop offset="1" style="stop-color:rgb(120,207,210);stop-opacity:1"/></linearGradient>
        <linearGradient id="_Linear18" x1="0" y1="0" x2="1" y2="0" gradientUnits="userSpaceOnUse" gradientTransform="matrix(-216.391,134.194,-134.194,-216.391,625.529,350.674)"><stop offset="0" style="stop-color:rgb(120,207,210);stop-opacity:1"/><stop offset="1" style="stop-color:rgb(0,151,134);stop-opacity:1"/></linearGradient>
        <linearGradient id="_Linear19" x1="0" y1="0" x2="1" y2="0" gradientUnits="userSpaceOnUse" gradientTransform="matrix(-260.036,137.621,-137.621,-260.036,476.733,425.374)"><stop offset="0" style="stop-color:rgb(47,185,149);stop-opacity:1"/><stop offset="1" style="stop-color:rgb(155,206,100);stop-opacity:1"/></linearGradient>
        <linearGradient id="_Linear20" x1="0" y1="0" x2="1" y2="0" gradientUnits="userSpaceOnUse" gradientTransform="matrix(-22.5503,-33.8179,33.8179,-22.5503,239.247,612.724)"><stop offset="0" style="stop-color:rgb(155,206,100);stop-opacity:1"/><stop offset="1" style="stop-color:rgb(83,185,228);stop-opacity:1"/></linearGradient>
        <linearGradient id="_Linear21" x1="0" y1="0" x2="1" y2="0" gradientUnits="userSpaceOnUse" gradientTransform="matrix(-216.391,134.194,-134.194,-216.391,625.529,350.674)"><stop offset="0" style="stop-color:rgb(120,207,210);stop-opacity:1"/><stop offset="1" style="stop-color:rgb(0,151,134);stop-opacity:1"/></linearGradient>
        <linearGradient id="_Linear22" x1="0" y1="0" x2="1" y2="0" gradientUnits="userSpaceOnUse" gradientTransform="matrix(-131.507,113.459,-113.459,-131.507,574.247,231.453)"><stop offset="0" style="stop-color:rgb(155,206,100);stop-opacity:1"/><stop offset="1" style="stop-color:rgb(47,185,149);stop-opacity:1"/></linearGradient>
        <linearGradient id="_Linear23" x1="0" y1="0" x2="1" y2="0" gradientUnits="userSpaceOnUse" gradientTransform="matrix(179.122,-440.384,440.384,179.122,102.851,527.807)"><stop offset="0" style="stop-color:rgb(8,179,231);stop-opacity:1"/><stop offset="1" style="stop-color:rgb(47,185,149);stop-opacity:1"/></linearGradient>
        <linearGradient id="_Linear24" x1="0" y1="0" x2="1" y2="0" gradientUnits="userSpaceOnUse" gradientTransform="matrix(205.862,-56.2995,56.2995,205.862,205.862,118.854)"><stop offset="0" style="stop-color:rgb(47,185,149);stop-opacity:1"/><stop offset="1" style="stop-color:rgb(155,206,100);stop-opacity:1"/></linearGradient>
        <linearGradient id="_Linear25" x1="0" y1="0" x2="1" y2="0" gradientUnits="userSpaceOnUse" gradientTransform="matrix(28.3446,40.3025,-40.3025,28.3446,446.851,94.1326)"><stop offset="0" style="stop-color:rgb(160,216,244);stop-opacity:1"/><stop offset="1" style="stop-color:rgb(0,151,134);stop-opacity:1"/></linearGradient>
    </defs>
</svg>
