<?xml version="1.0" encoding="UTF-8" standalone="no"?>
<!DOCTYPE svg PUBLIC "-//W3C//DTD SVG 1.1//EN" "http://www.w3.org/Graphics/SVG/1.1/DTD/svg11.dtd">
<svg width="100%" height="100%" viewBox="0 0 1080 1080" version="1.1" xmlns="http://www.w3.org/2000/svg" xmlns:xlink="http://www.w3.org/1999/xlink" xml:space="preserve" xmlns:serif="http://www.serif.com/" style="fill-rule:evenodd;clip-rule:evenodd;stroke-linejoin:round;stroke-miterlimit:2;">
    <g transform="matrix(1,0,0,1,-1421.09,0)">
        <g id="Energi" transform="matrix(1.17908,0,0,1.17908,1153.01,-113.723)">
            <rect x="227.368" y="96.451" width="915.97" height="915.97" style="fill:none;"/>
            <clipPath id="_clip1">
                <rect x="227.368" y="96.451" width="915.97" height="915.97"/>
            </clipPath>
            <g clip-path="url(#_clip1)">
                <g transform="matrix(0.806751,0,0,0.806751,-2586.51,-1203.38)">
                    <g transform="matrix(1,0,0,1,2059.95,-677.373)">
                        <rect x="1337.79" y="2240.26" width="1267.61" height="1267.61" style="fill:url(#_Linear2);"/>
                    </g>
                    <g id="flow_snurr.svg" transform="matrix(1.32849,0,0,1.32849,4031.55,2196.69)">
                        <g transform="matrix(1,0,0,1,-328,-280)">
                            <rect id="Artboard1" x="0" y="0" width="655.816" height="559.31" style="fill:none;"/>
                            <path d="M242.856,313.775L253.691,320.031C253.691,320.031 297.234,344.935 340.37,320.031C351.043,313.868 362.04,332.542 362.04,332.542L344.022,347.161L297.031,357.564L275.361,357.564C275.361,357.564 249.225,351.102 239.32,342.395C218.126,323.767 207.458,297.758 237.439,323.158L242.856,313.775Z" style="fill:url(#_Linear3);"/>
                            <path d="M232.156,357.641C232.156,357.641 296.7,395.288 362.04,357.564L362.04,332.542C362.04,332.542 297.323,370.243 232.022,332.542C212.987,321.552 232.156,357.641 232.156,357.641Z" style="fill:url(#_Linear4);"/>
                            <path d="M167.012,332.542C167.012,332.542 122.95,357.146 80.334,332.542C66.426,324.512 61.595,316.393 61.399,309.099L61.399,309.097C61.391,308.786 61.391,308.476 61.399,308.167L61.399,284.077L71.161,289.713C75.795,285.207 80.334,282.498 80.334,282.498L102.003,295.009C102.003,295.009 77.107,297.026 98.798,309.55C120.489,322.073 167.012,307.52 167.012,307.52L167.044,307.502C167.696,307.143 178.262,301.504 188.682,307.52C199.439,313.73 210.352,320.031 210.352,320.031L221.187,351.308L188.682,332.542C188.682,332.542 177.858,326.28 167.012,332.542ZM235.281,268.105L297.031,232.454L297.031,257.476L235.281,293.127L235.281,268.105Z" style="fill:url(#_Linear5);"/>
                            <path d="M167.012,307.52C167.012,307.52 122.95,332.124 80.334,307.52C37.717,282.915 80.334,257.476 80.334,257.476L102.003,269.987C102.003,269.987 80.312,282.485 102.003,295.009C123.695,307.532 145.343,295.009 145.343,295.009L199.517,263.731L216.639,321.262C217.493,323.696 206.832,317.998 188.682,307.52C181.715,304.271 174.51,304.042 167.012,307.52Z" style="fill:url(#_Linear6);"/>
                            <path d="M61.399,259.055C61.595,266.349 66.426,274.468 80.334,282.498C122.95,307.102 167.012,282.498 167.012,282.498L185.459,271.847L167.012,257.476C167.012,257.476 120.489,272.029 98.798,259.506C77.107,246.982 102.003,244.965 102.003,244.965L80.334,232.454C80.334,232.454 75.795,235.163 71.161,239.669L61.399,234.033L61.399,258.123C61.391,258.432 61.391,258.742 61.399,259.053L61.399,259.055Z" style="fill:url(#_Linear7);"/>
                            <path d="M134.502,151.136C128.086,147.659 118.64,147.782 104.732,155.812C62.116,180.417 61.393,230.878 61.393,230.878L83.063,243.389C83.063,243.389 93.721,195.822 115.412,183.299C137.103,170.775 126.402,193.345 126.402,193.345L148.072,180.834C148.072,180.834 147.995,175.549 146.41,169.283L156.171,163.647L135.308,151.602C135.046,151.44 134.777,151.285 134.503,151.137L134.502,151.136Z" style="fill:url(#_Linear8);"/>
                            <path d="M167.012,257.476C167.012,257.476 122.95,282.08 80.334,257.476C37.717,232.871 80.334,207.432 80.334,207.432L102.003,219.943C102.003,219.943 80.312,232.441 102.003,244.965C123.695,257.488 145.343,244.965 145.343,244.965L167.012,257.476Z" style="fill:url(#_Linear9);"/>
                            <path d="M83.063,243.389C83.063,243.389 83.785,192.928 126.402,168.323C169.019,143.718 169.741,193.345 169.741,193.345L163.177,209.646L148.072,205.856C148.072,205.856 148.093,180.822 126.402,193.345C104.711,205.868 104.732,230.878 104.732,230.878L83.063,243.389Z" style="fill:url(#_Linear10);"/>
                            <path d="M554.003,359.333L546.467,334.57C546.467,334.57 546.811,325.398 556.587,319.754C574.162,329.9 575.676,346.819 575.676,346.819L580.727,353.074L581.936,360.796L568.427,367.661L549.226,362.091L554.003,359.333Z" style="fill:url(#_Linear11);"/>
                            <path d="M241.184,423.167C234.51,409.817 253.494,427.54 297.031,416.848C303.302,415.307 314.26,403.898 320.897,396.979C329.41,388.105 351.009,360.153 356.183,348.434C373.707,308.744 383.709,269.987 383.709,269.987L405.379,282.498C405.379,282.498 405.272,382.647 318.7,432.63C290.447,448.941 271.404,449.276 258.567,442.326L258.566,442.325C258.016,442.027 257.477,441.716 256.95,441.392L235.278,428.88L238.532,423.913L241.184,423.167Z" style="fill:url(#_Linear12);"/>
                            <path d="M80.335,207.431C103.849,193.856 138.76,191.12 167.012,207.432C253.584,257.414 253.691,357.564 253.691,357.564L253.691,370.075C253.691,370.075 253.494,427.54 297.031,416.848C303.302,415.307 235.278,428.88 235.278,428.88L238.532,423.913L241.184,423.167C234.51,409.817 232.697,380.993 232.205,366.417C229.224,356.65 219.089,324.681 204.495,291.627C199.321,279.908 177.723,251.956 169.209,243.082C162.572,236.164 151.615,224.754 145.343,223.214C101.807,212.521 71.017,236.189 80.156,217.908L75.635,212.946L80.335,207.431ZM80.334,207.432L78.716,208.365C79.244,208.041 79.782,207.73 80.332,207.432L80.334,207.432ZM80.335,207.431L80.334,207.432L80.335,207.431Z" style="fill:url(#_Linear13);"/>
                            <path d="M38.073,194.652C41.224,171.583 53.577,122.792 102.003,94.833C123.398,82.48 137.752,82.343 147.382,87.712L147.384,87.713C147.608,87.838 147.828,87.965 148.046,88.096L169.718,100.608L160.855,103.42C166.997,116.822 167.012,132.366 167.012,132.366C167.012,132.366 145.125,113.608 123.673,112.936C118.041,112.76 121.779,126.522 112.838,131.684C90.572,144.539 76.838,167.753 68.772,187.147C71.989,189.398 74.101,191.322 74.101,191.322L80.334,232.454C80.334,232.454 75.055,235.484 68.182,237.308L69.722,243.423L69.805,248.554L48.272,236.122C48.246,236.107 48.22,236.092 48.194,236.077L48.186,236.072C41.788,232.352 36.994,224.027 36.994,207.432C36.994,202.343 37.38,198.124 38.073,194.652Z" style="fill:url(#_Linear14);"/>
                            <path d="M123.673,112.936C118.041,112.76 167.012,132.366 167.012,132.366L171.977,153.951C171.977,153.951 194.421,205.171 221.187,220.625C230.127,225.786 226.389,239.548 232.022,239.372C253.474,238.7 253.691,207.432 253.691,207.432L275.361,194.921L275.361,219.943C275.361,219.943 275.345,235.487 269.204,248.888L278.067,251.7L256.395,264.213C256.177,264.343 255.956,264.47 255.733,264.595L255.73,264.596C246.1,269.965 231.747,269.828 210.352,257.476C144.332,219.359 145.343,144.996 145.343,144.877C145.343,144.877 145.125,113.608 123.673,112.936Z" style="fill:url(#_Linear15);"/>
                            <path d="M62.732,191.569C68.911,166.318 84.474,129.975 123.673,107.344C188.605,69.855 188.682,144.877 188.682,144.877C188.682,144.877 189.029,195.121 232.022,219.943C275.014,244.764 275.361,194.921 275.361,194.921L297.031,207.432C297.031,207.432 296.954,282.453 232.022,244.965C190.13,220.779 167.012,178.878 167.012,157.388C167.012,157.388 166.666,107.544 123.673,132.366C80.681,157.187 80.334,207.432 80.334,207.432L80.334,207.435C80.245,207.813 80.288,232.48 102.003,219.943C121.9,208.455 141.506,217.894 144.845,219.669L144.879,219.689C145.033,219.768 145.188,219.853 145.343,219.943C231.609,269.749 233.164,369.743 233.164,369.743C233.164,369.743 231.764,432.778 297.031,395.097C362.297,357.415 362.04,282.498 362.04,282.498L383.709,269.987C383.709,269.987 383.602,370.136 297.031,420.119C210.459,470.101 210.352,370.075 210.352,370.075C210.352,370.075 210.558,282.617 145.343,244.965C123.716,232.479 102.05,244.938 102.003,244.965C102.003,244.965 58.664,270.158 58.664,219.943C58.664,206.03 60.327,196.925 62.732,191.569Z" style="fill:url(#_Linear16);"/>
                            <path d="M433.958,366.086C433.886,366.044 401.171,350.186 394.961,285.959C394.481,280.988 418.888,281.791 419.359,283.864C425.103,309.148 429.85,334.159 470.388,357.564L470.531,357.645C473.104,359.101 509.783,379.261 526.817,355.692C530.528,347.141 533.208,341.202 532.564,343.417C531.107,348.432 529.146,352.471 526.817,355.692C520.137,371.085 510.114,394.941 510.114,394.941C489.73,393.716 445.84,374.634 445.775,374.597L442.804,370.09L433.958,366.086Z" style="fill:url(#_Linear17);"/>
                            <path d="M275.361,169.899C361.864,119.956 448.581,169.819 448.718,169.899L470.388,182.41C470.388,182.41 557.067,232.577 557.067,332.542C557.067,365.165 547.835,381.825 535.397,389.466L535.397,389.467L535.396,389.467C534.863,389.795 534.324,390.105 533.78,390.4L512.108,402.912L509.434,397.611L510.114,394.941C489.713,393.715 520.056,386.467 532.564,343.417C534.366,337.215 529.964,322.021 527.291,312.814C523.862,301.004 510.455,268.324 502.893,257.983C477.309,222.999 448.779,194.98 448.718,194.921C448.61,194.89 410.091,184.198 367.018,179.535C354.281,178.157 319.275,182.886 307.334,185.821C298.023,188.11 282.664,191.895 278.194,196.556C247.166,228.913 253.063,252.493 241.801,235.439L242.825,243.685L236.897,244.019L236.897,238.225C229.143,255.869 230.742,265.802 223.128,254.272L221.156,256.196L215.228,256.53L215.228,231.506C215.211,230.887 215.211,230.265 215.228,229.64L215.228,229.639C215.626,215.046 225.438,198.721 253.691,182.41L275.361,169.899Z" style="fill:url(#_Linear18);"/>
                            <path d="M448.998,370.233C453.614,372.812 513.727,405.012 513.727,332.542C513.727,257.178 448.718,219.943 448.718,219.943L448.718,194.921C448.718,194.921 535.397,245.088 535.397,345.053C535.397,445.017 448.718,395.097 448.718,395.097C448.718,395.097 373.593,356.626 373.593,298.304C373.593,291.895 374.832,286.153 373.949,279.43C373.562,276.483 395.168,278.451 395.67,281.381C396.406,285.682 404.036,287.981 404.036,294.233C404.036,319.343 411.554,348.608 448.998,370.233Z" style="fill:url(#_Linear19);"/>
                            <path d="M303.75,231.581C311.134,224.321 318.7,219.943 318.7,219.943L340.37,207.432C340.37,207.432 383.544,182.314 427.022,207.416L427.075,207.545L427.075,207.447C427.075,207.447 442.767,216.517 457.393,227.473L459.553,238.709L457.848,257.043L453.832,260.525C447.183,244.246 427.859,232.923 427.074,232.468C426.748,232.282 383.411,207.604 340.37,232.454C340.306,232.491 321.256,243.692 321.262,258.499L318.7,257.476L303.75,231.581Z" style="fill:url(#_Linear20);"/>
                            <path d="M311.823,224.634L308.816,232.277L312.729,248.412L321.478,255.746C320.915,259.344 321.403,263.198 323.544,267.19C325.118,270.126 329.274,267.79 334.256,266.456L355.723,272.257C361.997,274.726 368.488,276.4 374.989,277.464L374.992,277.464C403.302,282.093 431.803,275.132 443.358,271.707L453.43,277.985C423.646,297.117 379.271,316.997 364.727,310.618C349.983,308.716 334.337,304.037 318.7,295.009C297.306,282.656 290.01,270.294 289.844,259.27L289.844,259.267C289.841,259.012 289.841,258.757 289.844,258.503L289.844,233.478L296.711,239.748C301.279,233.316 307.254,228.097 311.823,224.634ZM460.996,230.23C468.63,236.205 475.569,242.546 479.281,248.169C487.992,251.556 474.29,264.587 453.431,277.985L467.873,246.416L460.996,230.23Z" style="fill:url(#_Linear21);"/>
                            <path d="M445.886,268.351L448.718,269.987C448.718,269.987 383.632,307.475 318.7,269.987C253.768,232.498 318.7,194.921 318.7,194.921C383.73,157.376 448.718,194.921 448.718,194.921L437.884,201.176L427.075,207.545C384.381,182.895 341.724,206.665 340.402,207.414L340.37,207.432C340.37,207.432 297.377,232.654 340.37,257.476C383.362,282.297 427.049,257.476 427.049,257.476L427.11,257.439C428.365,256.696 448.117,244.617 427.049,232.454C440.47,240.203 448.416,250.04 453.087,258.426C451.18,262.273 448.71,265.505 445.886,268.351Z" style="fill:url(#_Linear22);"/>
                            <path d="M275.361,320.031L253.691,307.52C253.691,307.52 167.12,257.414 253.691,207.432C258.376,204.727 267.843,199.269 273.864,195.795C274.357,195.503 274.856,195.212 275.361,194.921C275.895,194.612 276.429,194.308 276.963,194.007L276.974,194.001C277.003,193.984 277.033,193.967 277.064,193.95C308.571,176.235 340.03,171.629 367.248,172.906C382.271,173.61 383.85,192.001 368.844,190.992C347.465,189.554 322.286,192.85 297.031,207.432C285.347,214.177 275.905,219.798 268.346,224.322C215.057,260.467 275.361,295.009 275.361,295.009C275.361,295.009 313.927,305.725 357.061,310.394C359.105,310.615 361.723,310.679 364.727,310.618C349.983,308.716 421.189,315.613 479.281,248.169L481.254,246.245L487.182,245.91L487.182,270.934C487.199,271.553 487.199,272.175 487.182,272.8L487.182,272.802C486.783,287.394 476.971,303.719 448.718,320.031C362.147,370.013 275.361,320.031 275.361,320.031Z" style="fill:url(#_Linear23);"/>
                            <path d="M369.02,191.003C383.837,191.858 382.212,173.608 367.248,172.906L367.799,172.932C414.558,175.266 448.664,194.889 448.718,194.921C448.796,194.965 535.251,245.049 448.718,295.009C362.147,344.991 275.361,295.009 275.361,295.009L275.411,294.979L275.334,294.993C274.171,294.319 235.345,271.545 249.425,243.827C256.887,259.405 275.361,269.987 275.361,269.987L297.031,282.498C297.031,282.498 361.782,320.179 427.049,282.498C492.264,244.846 427.152,207.491 427.049,207.432C427.049,207.432 402.714,193.27 368.844,190.992L369.02,191.003Z" style="fill:url(#_Linear24);"/>
                            <path d="M369.02,191.003C383.837,191.858 382.212,173.608 367.248,172.906L367.799,172.932C384.934,173.788 400.37,176.965 413.054,180.649C434.982,187.017 417.229,201.717 401.382,196.964C392.284,194.235 381.198,191.823 368.844,190.992L369.02,191.003Z" style="fill:url(#_Linear25);"/>
                            <path d="M443.507,167.202C456.078,157.8 470.384,146.936 470.384,146.936C487.425,158.189 515.894,196.659 515.932,196.724L516.251,202.112L530.189,241.958L530.188,241.958L530.116,241.845L529.806,241.364L529.733,241.252L529.641,241.109L529.38,240.71L529.306,240.596L529.277,240.551L529.164,240.378L528.939,240.036L528.863,239.921L528.819,239.856L528.685,239.652L528.488,239.357L528.418,239.251L528.361,239.166L528.204,238.93L528.033,238.676L527.971,238.584L527.903,238.483L527.721,238.213L527.574,237.996L527.523,237.921L527.446,237.808L527.237,237.501L527.112,237.318L527.073,237.261L526.992,237.143L526.751,236.792L526.647,236.642L526.622,236.606L526.545,236.495L526.263,236.089L526.18,235.97L526.169,235.955L526.117,235.88C525.394,234.846 524.667,233.827 523.935,232.822L523.888,232.758L523.88,232.747L523.802,232.64L523.51,232.241L523.428,232.13L523.404,232.098L523.306,231.964L523.057,231.627L522.968,231.506L522.928,231.453L522.809,231.293L522.592,231.002L522.506,230.887L522.452,230.814L522.311,230.626L522.122,230.375L522.043,230.271L521.975,230.181L521.811,229.964L521.647,229.748L521.58,229.659L521.499,229.554L521.311,229.306L521.17,229.122L521.115,229.051L521.025,228.934L520.809,228.653L520.691,228.5L520.65,228.447L520.555,228.325L520.307,228.004L520.21,227.88L520.184,227.847L520.094,227.731L519.804,227.36L519.728,227.264L519.718,227.25L519.657,227.173C518.926,226.244 518.192,225.328 517.458,224.428L517.377,224.328L517.36,224.308L517.279,224.209L517.007,223.877L516.907,223.756L516.874,223.716L516.773,223.592L516.537,223.308L516.437,223.187L516.388,223.128L516.266,222.98L516.061,222.735L515.967,222.622L515.903,222.546L515.758,222.373L515.58,222.161L515.497,222.062L515.418,221.969L515.251,221.77L515.096,221.588L515.026,221.505L514.935,221.398L514.743,221.172L514.611,221.018L514.555,220.952L514.454,220.834L514.235,220.578L514.125,220.451L514.084,220.403L513.978,220.28L513.727,219.989L513.639,219.887L513.614,219.858L513.513,219.742L513.22,219.404L513.152,219.327L513.143,219.317L513.079,219.243C512.491,218.571 511.904,217.909 511.317,217.255L511.26,217.191L511.253,217.183L511.189,217.112L510.892,216.782L510.79,216.67L510.766,216.643L510.682,216.55L510.429,216.272L510.321,216.152L510.28,216.108L510.176,215.993L509.956,215.753L509.851,215.639L509.795,215.578L509.67,215.441L509.477,215.233L509.382,215.129L509.311,215.052L509.164,214.893L508.997,214.713L508.914,214.623L508.828,214.532L508.659,214.35L508.515,214.196L508.446,214.122L508.348,214.018L508.155,213.811L508.032,213.681L507.978,213.624L507.871,213.511L507.651,213.277L507.55,213.17L507.511,213.13L507.401,213.014L507.148,212.747L507.067,212.663L507.045,212.64L506.944,212.534L506.645,212.222L506.585,212.16L506.58,212.154L506.53,212.102C505.953,211.502 505.378,210.911 504.805,210.329L504.726,210.249L504.713,210.236L504.646,210.168L504.369,209.889L504.264,209.782L504.236,209.754L504.149,209.666L503.911,209.427L503.652,209.168L503.445,208.962L503.158,208.675L502.976,208.496L502.887,208.407L502.814,208.335L502.664,208.187L502.506,208.032L502.43,207.956L502.344,207.872L502.172,207.703L502.036,207.57L501.974,207.51L501.878,207.416L501.681,207.224L501.567,207.113L501.52,207.067L501.417,206.968L501.192,206.749L501.098,206.658L501.066,206.628L500.965,206.53L500.704,206.279L500.63,206.208L500.615,206.193L500.533,206.115C499.832,205.443 499.137,204.786 498.447,204.143L498.377,204.078L498.364,204.066L498.291,203.997L498.024,203.75L497.935,203.666L497.907,203.641L497.814,203.555L497.584,203.343L497.493,203.259L497.452,203.221L497.339,203.117L497.138,202.933L497.054,202.856L497,202.806L496.866,202.683L496.69,202.523L496.617,202.456L496.551,202.397L496.395,202.254L496.242,202.116L496.181,202.061L496.106,201.993L495.926,201.83L495.795,201.712L495.747,201.669L495.666,201.597L495.459,201.41L495.349,201.311L495.315,201.281L495.235,201.21L494.995,200.995L494.904,200.914L494.885,200.898L494.817,200.837L494.533,200.585L494.461,200.521L494.458,200.518L494.435,200.498C493.741,199.884 493.056,199.286 492.38,198.704L492.351,198.678L492.344,198.673L492.261,198.601L491.989,198.368L491.936,198.322L491.918,198.306L491.814,198.218L491.581,198.019L491.524,197.97L491.495,197.945L491.371,197.839L491.168,197.667L491.114,197.622L491.077,197.59L490.93,197.465L490.753,197.316L490.707,197.277L490.663,197.24L490.492,197.096L490.338,196.967L490.302,196.937L490.255,196.897L490.057,196.731L489.924,196.62L489.9,196.6L489.856,196.564L489.625,196.371L489.512,196.277L489.501,196.268L489.47,196.242C488.154,195.151 486.883,194.124 485.663,193.161L485.661,193.159L485.659,193.158L485.486,193.022L485.15,192.758L484.929,192.585L484.845,192.519L484.701,192.407L484.403,192.175L484.211,192.026L484.105,191.945L483.932,191.81L483.668,191.608L483.506,191.483L483.382,191.389L483.178,191.232L482.948,191.057L482.815,190.956L482.676,190.851L482.44,190.672L482.242,190.523L482.139,190.445L481.989,190.333L481.72,190.131L481.552,190.006L481.477,189.949L481.325,189.837L481.017,189.608L480.877,189.505L480.83,189.47L480.689,189.366L480.331,189.103L480.219,189.021L480.198,189.005L480.098,188.932C478.889,188.049 477.771,187.256 476.756,186.552C470.16,179.181 460.523,171.148 449.32,170.246L448.718,169.899L448.649,169.859L448.627,169.847L448.584,169.823L448.455,169.75L448.412,169.726L448.369,169.703L448.291,169.659L448.137,169.575L448.036,169.52L447.949,169.472L447.735,169.356L447.699,169.337L447.688,169.331C447.544,169.254 447.386,169.169 447.214,169.078L447.142,169.04L447.057,168.995L447.019,168.975L446.967,168.947L446.82,168.87L446.681,168.798L446.63,168.771L446.59,168.75L446.468,168.687L446.251,168.575L446.204,168.55L446.183,168.539C445.444,168.159 444.549,167.708 443.507,167.202Z" style="fill:url(#_Linear26);"/>
                            <path d="M376.461,268.337L376.461,268.333C375.331,240.866 380.238,209.168 398.522,177.499C414.834,149.246 431.159,139.434 445.751,139.036L445.751,139.035L445.753,139.035C446.378,139.018 446.999,139.019 447.619,139.035L472.643,139.035L472.308,144.964L470.384,146.936C487.439,158.198 457.537,149.304 425.18,180.332C420.518,184.802 416.733,200.162 414.445,209.472C411.792,220.265 407.674,249.898 407.924,264.903C399.342,267.26 388.449,269.086 376.461,268.337Z" style="fill:url(#_Linear27);"/>
                            <path d="M524.987,234.281L524.984,234.27C521.075,220.922 516.432,208.376 510.958,198.892C508.25,194.35 472.29,136.408 436.055,199.169C423.674,220.614 419.429,242.003 419.31,261.058L419.31,261.063C414.873,262.855 408.729,264.956 401.416,266.469C400.581,239.436 405.672,208.454 423.544,177.499C473.526,90.927 523.632,177.499 523.632,177.499C523.632,177.499 550.708,223.064 548.445,279.674L548.444,279.685C542.526,262.195 534.115,247.059 524.987,234.281Z" style="fill:url(#_Linear28);"/>
                            <path d="M383.701,257.43C383.352,255.503 371.856,193.651 329.535,169.217C320.594,164.055 324.333,150.293 318.7,150.469C297.248,151.141 275.361,169.899 275.361,169.899C275.361,169.899 275.377,154.355 281.518,140.953L272.655,138.141L294.327,125.629C294.545,125.498 294.766,125.371 294.989,125.246L294.992,125.245C304.622,119.876 318.975,120.013 340.37,132.366C405.273,169.837 405.379,244.898 405.379,244.965L405.532,265.556C397.563,267.62 389.223,268.446 382.575,268.505C382.336,264.945 383.709,261.245 383.709,257.476L383.701,257.43Z" style="fill:url(#_Linear29);"/>
                            <path d="M362.04,244.965C362.04,244.965 359.454,193.428 318.7,169.899C296.744,157.222 282.26,166.124 282.26,166.124C272.405,171.505 263.009,176.952 253.691,182.41C253.691,182.41 253.768,107.388 318.7,144.877C383.603,182.348 383.709,257.409 383.709,257.476L383.709,268.49C375.912,268.643 368.716,267.816 362.04,266.173L362.04,244.965Z" style="fill:url(#_Linear30);"/>
                            <path d="M524.562,501.44C484.832,478.502 470.383,450.723 468.568,447.858C453.855,424.635 442.256,394.731 442.256,358.163C442.256,325.539 451.488,308.879 463.926,301.238L463.927,301.237C464.46,300.91 464.999,300.599 465.543,300.304L487.215,287.792L489.889,293.093L489.209,295.763C509.609,296.989 479.267,304.238 466.758,347.287C464.956,353.489 469.359,368.683 472.032,377.891C475.46,389.7 488.868,422.381 496.43,432.722C501.599,439.789 504.582,446.262 505.843,451.76C510.241,455.293 524.562,476.418 524.562,476.418L524.562,501.44Z" style="fill:url(#_Linear31);"/>
                            <path d="M503.642,283.322C506.66,290.326 509.175,297.915 510.939,306.09C508.353,309.679 504.871,313.156 500.683,316.056C491.949,322.105 485.595,334.602 485.595,358.163C485.595,380.785 491.453,399.971 499.651,415.746C499.906,416.234 516.583,446.789 546.232,463.907C538.848,468.17 524.562,476.418 524.562,476.418C524.562,476.418 503.952,464.479 486.789,432.807C473.178,410.138 463.926,380.305 463.926,345.652C463.926,301.356 480.945,286.49 499.901,283.67C501.237,283.472 502.483,283.357 503.642,283.322Z" style="fill:url(#_Linear32);"/>
                            <path d="M498.923,273.54C505.972,286.704 511.423,302.308 513.151,320.364C513.247,321.367 516.085,324.777 519.705,328.755C523.817,343.431 531.156,361.833 543.144,368.755C565.017,381.383 554.003,359.333 554.003,359.333L575.672,371.844C575.672,371.844 575.583,381.621 571.75,390.355L579.373,386.492L583.89,389.099L563.029,401.144C562.766,401.305 562.496,401.461 562.221,401.61C555.804,405.087 546.328,404.946 532.333,396.866C489.45,372.107 489.994,321.8 489.994,321.8C489.994,321.8 489.304,300.035 498.923,273.54Z" style="fill:url(#_Linear33);"/>
                            <path d="M575.683,346.828L575.676,346.819C575.676,346.819 574.162,329.9 556.587,319.754C555.993,311.894 554.864,304.371 553.298,297.185C597.692,322.815 597.364,358.207 597.343,359.306L597.342,359.333C597.342,359.333 596.886,409.113 554.003,384.355C511.119,359.596 513.081,319.657 513.081,319.657L534.917,332.265C534.917,332.265 534.985,348.353 554.003,359.333C575.876,371.961 575.672,346.822 575.672,346.822L575.683,346.828Z" style="fill:url(#_Linear34);"/>
                            <path d="M546.232,463.907L546.232,488.929L524.562,501.44L524.562,476.418L546.232,463.907Z" style="fill:url(#_Linear35);"/>
                            <path d="M578.737,482.674L578.737,507.696L557.067,520.207L557.067,495.185L578.737,482.674Z" style="fill:url(#_Linear36);"/>
                            <path d="M535.397,507.696L535.397,482.674L557.067,495.185L557.067,520.207L535.397,507.696Z" style="fill:url(#_Linear37);"/>
                            <path d="M557.067,470.163L578.737,482.674L557.067,495.185L535.397,482.674L557.067,470.163Z" style="fill:url(#_Linear38);"/>
                        </g>
                    </g>
                </g>
            </g>
        </g>
    </g>
    <defs>
        <linearGradient id="_Linear2" x1="0" y1="0" x2="1" y2="0" gradientUnits="userSpaceOnUse" gradientTransform="matrix(1078.69,1004.61,-1004.61,1078.69,1401.62,2367.83)"><stop offset="0" style="stop-color:rgb(255,255,188);stop-opacity:1"/><stop offset="1" style="stop-color:rgb(255,177,1);stop-opacity:1"/></linearGradient>
        <linearGradient id="_Linear3" x1="0" y1="0" x2="1" y2="0" gradientUnits="userSpaceOnUse" gradientTransform="matrix(99.4848,-4.19238,4.19238,99.4848,232.022,335.669)"><stop offset="0" style="stop-color:rgb(255,229,0);stop-opacity:1"/><stop offset="1" style="stop-color:rgb(251,82,0);stop-opacity:1"/></linearGradient>
        <linearGradient id="_Linear4" x1="0" y1="0" x2="1" y2="0" gradientUnits="userSpaceOnUse" gradientTransform="matrix(112.014,-15.5534,15.5534,112.014,250.025,367.958)"><stop offset="0" style="stop-color:rgb(255,229,0);stop-opacity:1"/><stop offset="1" style="stop-color:rgb(251,82,0);stop-opacity:1"/></linearGradient>
        <linearGradient id="_Linear5" x1="0" y1="0" x2="1" y2="0" gradientUnits="userSpaceOnUse" gradientTransform="matrix(285.104,-76.1276,76.1276,285.104,48.9921,303.528)"><stop offset="0" style="stop-color:rgb(255,245,59);stop-opacity:1"/><stop offset="0.54" style="stop-color:rgb(255,160,23);stop-opacity:1"/><stop offset="1" style="stop-color:rgb(251,82,0);stop-opacity:1"/></linearGradient>
        <linearGradient id="_Linear6" x1="0" y1="0" x2="1" y2="0" gradientUnits="userSpaceOnUse" gradientTransform="matrix(157.418,18.9544,-18.9544,157.418,46.8408,272.536)"><stop offset="0" style="stop-color:rgb(255,229,0);stop-opacity:1"/><stop offset="1" style="stop-color:white;stop-opacity:1"/></linearGradient>
        <linearGradient id="_Linear7" x1="0" y1="0" x2="1" y2="0" gradientUnits="userSpaceOnUse" gradientTransform="matrix(-235.631,0.647532,-0.647532,-235.631,297.031,257.476)"><stop offset="0" style="stop-color:rgb(251,82,0);stop-opacity:1"/><stop offset="1" style="stop-color:rgb(255,245,59);stop-opacity:1"/></linearGradient>
        <linearGradient id="_Linear8" x1="0" y1="0" x2="1" y2="0" gradientUnits="userSpaceOnUse" gradientTransform="matrix(25.4576,14.698,-14.698,25.4576,98.2738,155.234)"><stop offset="0" style="stop-color:white;stop-opacity:1"/><stop offset="1" style="stop-color:rgb(255,245,59);stop-opacity:1"/></linearGradient>
        <linearGradient id="_Linear9" x1="0" y1="0" x2="1" y2="0" gradientUnits="userSpaceOnUse" gradientTransform="matrix(-101.305,-10.5971,10.5971,-101.305,172.336,261.623)"><stop offset="0" style="stop-color:white;stop-opacity:1"/><stop offset="1" style="stop-color:rgb(255,245,59);stop-opacity:1"/></linearGradient>
        <linearGradient id="_Linear10" x1="0" y1="0" x2="1" y2="0" gradientUnits="userSpaceOnUse" gradientTransform="matrix(-56.1558,-48.1035,48.1035,-56.1558,155.063,207.61)"><stop offset="0" style="stop-color:rgb(255,229,0);stop-opacity:1"/><stop offset="1" style="stop-color:white;stop-opacity:1"/></linearGradient>
        <linearGradient id="_Linear11" x1="0" y1="0" x2="1" y2="0" gradientUnits="userSpaceOnUse" gradientTransform="matrix(30.6368,28.6816,-28.6816,30.6368,546.467,334.57)"><stop offset="0" style="stop-color:rgb(255,229,0);stop-opacity:1"/><stop offset="1" style="stop-color:rgb(251,82,0);stop-opacity:1"/></linearGradient>
        <linearGradient id="_Linear12" x1="0" y1="0" x2="1" y2="0" gradientUnits="userSpaceOnUse" gradientTransform="matrix(-140.296,163.59,-163.59,-140.296,397.245,277.802)"><stop offset="0" style="stop-color:rgb(251,82,0);stop-opacity:1"/><stop offset="1" style="stop-color:rgb(255,229,0);stop-opacity:1"/></linearGradient>
        <linearGradient id="_Linear13" x1="0" y1="0" x2="1" y2="0" gradientUnits="userSpaceOnUse" gradientTransform="matrix(-167.946,-206.592,206.592,-167.946,264.375,407)"><stop offset="0" style="stop-color:rgb(251,82,0);stop-opacity:1"/><stop offset="1" style="stop-color:rgb(255,229,0);stop-opacity:1"/></linearGradient>
        <linearGradient id="_Linear14" x1="0" y1="0" x2="1" y2="0" gradientUnits="userSpaceOnUse" gradientTransform="matrix(-84.5897,-51.5873,51.5873,-84.5897,116.346,174.555)"><stop offset="0" style="stop-color:rgb(255,229,0);stop-opacity:1"/><stop offset="1" style="stop-color:white;stop-opacity:1"/></linearGradient>
        <linearGradient id="_Linear15" x1="0" y1="0" x2="1" y2="0" gradientUnits="userSpaceOnUse" gradientTransform="matrix(109.19,142.256,-142.256,109.19,137.959,120.317)"><stop offset="0" style="stop-color:white;stop-opacity:1"/><stop offset="1" style="stop-color:rgb(255,229,0);stop-opacity:1"/></linearGradient>
        <linearGradient id="_Linear16" x1="0" y1="0" x2="1" y2="0" gradientUnits="userSpaceOnUse" gradientTransform="matrix(-285.367,-147.397,147.397,-285.367,358.147,310.485)"><stop offset="0" style="stop-color:rgb(251,82,0);stop-opacity:1"/><stop offset="0.61" style="stop-color:rgb(255,229,0);stop-opacity:1"/><stop offset="1" style="stop-color:white;stop-opacity:1"/></linearGradient>
        <linearGradient id="_Linear17" x1="0" y1="0" x2="1" y2="0" gradientUnits="userSpaceOnUse" gradientTransform="matrix(102.13,71.6808,-71.6808,102.13,410.417,309.114)"><stop offset="0" style="stop-color:rgb(255,229,0);stop-opacity:1"/><stop offset="1" style="stop-color:rgb(251,82,0);stop-opacity:1"/></linearGradient>
        <linearGradient id="_Linear18" x1="0" y1="0" x2="1" y2="0" gradientUnits="userSpaceOnUse" gradientTransform="matrix(326.34,190.54,-190.54,326.34,229.242,162.659)"><stop offset="0" style="stop-color:rgb(255,210,43);stop-opacity:1"/><stop offset="1" style="stop-color:rgb(251,82,0);stop-opacity:1"/></linearGradient>
        <linearGradient id="_Linear19" x1="0" y1="0" x2="1" y2="0" gradientUnits="userSpaceOnUse" gradientTransform="matrix(-107.465,-87.0671,87.0671,-107.465,508.519,404.601)"><stop offset="0" style="stop-color:rgb(255,229,0);stop-opacity:1"/><stop offset="1" style="stop-color:rgb(251,82,0);stop-opacity:1"/></linearGradient>
        <linearGradient id="_Linear20" x1="0" y1="0" x2="1" y2="0" gradientUnits="userSpaceOnUse" gradientTransform="matrix(-132.289,-19.9405,19.9405,-132.289,459.553,238.709)"><stop offset="0" style="stop-color:rgb(255,229,0);stop-opacity:1"/><stop offset="1" style="stop-color:rgb(251,82,0);stop-opacity:1"/></linearGradient>
        <linearGradient id="_Linear21" x1="0" y1="0" x2="1" y2="0" gradientUnits="userSpaceOnUse" gradientTransform="matrix(124.521,49.6739,-49.6739,124.521,293.832,247.897)"><stop offset="0" style="stop-color:rgb(255,229,0);stop-opacity:1"/><stop offset="1" style="stop-color:rgb(251,82,0);stop-opacity:1"/></linearGradient>
        <linearGradient id="_Linear22" x1="0" y1="0" x2="1" y2="0" gradientUnits="userSpaceOnUse" gradientTransform="matrix(-157.817,-22.2019,22.2019,-157.817,448.293,250.316)"><stop offset="0" style="stop-color:rgb(255,229,0);stop-opacity:1"/><stop offset="1" style="stop-color:rgb(251,82,0);stop-opacity:1"/></linearGradient>
        <linearGradient id="_Linear23" x1="0" y1="0" x2="1" y2="0" gradientUnits="userSpaceOnUse" gradientTransform="matrix(171.49,157.728,-157.728,171.49,253.691,194.921)"><stop offset="0" style="stop-color:white;stop-opacity:1"/><stop offset="1" style="stop-color:rgb(255,229,0);stop-opacity:1"/></linearGradient>
        <linearGradient id="_Linear24" x1="0" y1="0" x2="1" y2="0" gradientUnits="userSpaceOnUse" gradientTransform="matrix(239.893,1.21723,-1.21723,239.893,246.7,252.012)"><stop offset="0" style="stop-color:rgb(251,82,0);stop-opacity:1"/><stop offset="1" style="stop-color:rgb(255,210,43);stop-opacity:1"/></linearGradient>
        <linearGradient id="_Linear25" x1="0" y1="0" x2="1" y2="0" gradientUnits="userSpaceOnUse" gradientTransform="matrix(42.7122,11.5749,-11.5749,42.7122,379.02,181.013)"><stop offset="0" style="stop-color:rgb(255,253,192);stop-opacity:1"/><stop offset="1" style="stop-color:rgb(255,182,26);stop-opacity:1"/></linearGradient>
        <linearGradient id="_Linear26" x1="0" y1="0" x2="1" y2="0" gradientUnits="userSpaceOnUse" gradientTransform="matrix(54.9085,97.3409,-97.3409,54.9085,453.254,155.68)"><stop offset="0" style="stop-color:rgb(255,229,0);stop-opacity:1"/><stop offset="1" style="stop-color:rgb(251,82,0);stop-opacity:1"/></linearGradient>
        <linearGradient id="_Linear27" x1="0" y1="0" x2="1" y2="0" gradientUnits="userSpaceOnUse" gradientTransform="matrix(-86.2272,155.058,-155.058,-86.2272,469.937,102.418)"><stop offset="0" style="stop-color:rgb(255,229,0);stop-opacity:1"/><stop offset="1" style="stop-color:rgb(251,82,0);stop-opacity:1"/></linearGradient>
        <linearGradient id="_Linear28" x1="0" y1="0" x2="1" y2="0" gradientUnits="userSpaceOnUse" gradientTransform="matrix(-173.934,-193.052,193.052,-173.934,508.519,404.601)"><stop offset="0" style="stop-color:rgb(255,210,43);stop-opacity:1"/><stop offset="1" style="stop-color:rgb(251,82,0);stop-opacity:1"/></linearGradient>
        <linearGradient id="_Linear29" x1="0" y1="0" x2="1" y2="0" gradientUnits="userSpaceOnUse" gradientTransform="matrix(92.8639,191.254,-191.254,92.8639,309.664,121.887)"><stop offset="0" style="stop-color:rgb(255,229,0);stop-opacity:1"/><stop offset="1" style="stop-color:rgb(251,82,0);stop-opacity:1"/></linearGradient>
        <linearGradient id="_Linear30" x1="0" y1="0" x2="1" y2="0" gradientUnits="userSpaceOnUse" gradientTransform="matrix(92.5807,133.421,-133.421,92.5807,279.01,134.472)"><stop offset="0" style="stop-color:rgb(255,229,0);stop-opacity:1"/><stop offset="1" style="stop-color:rgb(251,82,0);stop-opacity:1"/></linearGradient>
        <linearGradient id="_Linear31" x1="0" y1="0" x2="1" y2="0" gradientUnits="userSpaceOnUse" gradientTransform="matrix(126.492,148.945,-148.945,126.492,398.07,327.473)"><stop offset="0" style="stop-color:rgb(255,229,0);stop-opacity:1"/><stop offset="1" style="stop-color:rgb(251,82,0);stop-opacity:1"/></linearGradient>
        <linearGradient id="_Linear32" x1="0" y1="0" x2="1" y2="0" gradientUnits="userSpaceOnUse" gradientTransform="matrix(-62.7769,-183.267,183.267,-62.7769,540.649,467.13)"><stop offset="0" style="stop-color:rgb(255,229,0);stop-opacity:1"/><stop offset="1" style="stop-color:rgb(251,82,0);stop-opacity:1"/></linearGradient>
        <linearGradient id="_Linear33" x1="0" y1="0" x2="1" y2="0" gradientUnits="userSpaceOnUse" gradientTransform="matrix(63.4196,110.873,-110.873,63.4196,493.394,292.599)"><stop offset="0" style="stop-color:rgb(255,229,0);stop-opacity:1"/><stop offset="1" style="stop-color:rgb(251,82,0);stop-opacity:1"/></linearGradient>
        <linearGradient id="_Linear34" x1="0" y1="0" x2="1" y2="0" gradientUnits="userSpaceOnUse" gradientTransform="matrix(72.7104,-32.3016,32.3016,72.7104,516.266,339.251)"><stop offset="0" style="stop-color:rgb(255,210,43);stop-opacity:1"/><stop offset="1" style="stop-color:rgb(251,82,0);stop-opacity:1"/></linearGradient>
        <linearGradient id="_Linear35" x1="0" y1="0" x2="1" y2="0" gradientUnits="userSpaceOnUse" gradientTransform="matrix(-21.6697,37.533,-37.533,-21.6697,546.232,463.907)"><stop offset="0" style="stop-color:white;stop-opacity:1"/><stop offset="1" style="stop-color:rgb(255,229,0);stop-opacity:1"/></linearGradient>
        <linearGradient id="_Linear36" x1="0" y1="0" x2="1" y2="0" gradientUnits="userSpaceOnUse" gradientTransform="matrix(-21.6697,25.9723,-25.9723,-21.6697,578.737,489.116)"><stop offset="0" style="stop-color:white;stop-opacity:1"/><stop offset="1" style="stop-color:rgb(255,229,0);stop-opacity:1"/></linearGradient>
        <linearGradient id="_Linear37" x1="0" y1="0" x2="1" y2="0" gradientUnits="userSpaceOnUse" gradientTransform="matrix(54.3062,31.68,-31.68,54.3062,531.621,487.313)"><stop offset="0" style="stop-color:rgb(251,82,0);stop-opacity:1"/><stop offset="1" style="stop-color:rgb(255,229,0);stop-opacity:1"/></linearGradient>
        <linearGradient id="_Linear38" x1="0" y1="0" x2="1" y2="0" gradientUnits="userSpaceOnUse" gradientTransform="matrix(81.4159,19.2257,-19.2257,81.4159,540.443,464.44)"><stop offset="0" style="stop-color:rgb(255,229,0);stop-opacity:1"/><stop offset="1" style="stop-color:rgb(251,82,0);stop-opacity:1"/></linearGradient>
    </defs>
</svg>
