<?xml version="1.0" encoding="UTF-8" standalone="no"?>
<!DOCTYPE svg PUBLIC "-//W3C//DTD SVG 1.1//EN" "http://www.w3.org/Graphics/SVG/1.1/DTD/svg11.dtd">
<svg width="100%" height="100%" viewBox="0 0 1080 1080" version="1.1" xmlns="http://www.w3.org/2000/svg" xmlns:xlink="http://www.w3.org/1999/xlink" xml:space="preserve" xmlns:serif="http://www.serif.com/" style="fill-rule:evenodd;clip-rule:evenodd;stroke-linejoin:round;stroke-miterlimit:2;">
    <g transform="matrix(1,0,0,1,-1418.63,-1290.89)">
        <g id="Factory" transform="matrix(1.17908,0,0,1.17908,1150.55,1177.16)">
            <rect x="227.368" y="96.451" width="915.97" height="915.97" style="fill:none;"/>
            <clipPath id="_clip1">
                <rect x="227.368" y="96.451" width="915.97" height="915.97"/>
            </clipPath>
            <g clip-path="url(#_clip1)">
                <g transform="matrix(0.745881,0,0,0.745881,-902.291,4.35657)">
                    <g transform="matrix(1,0,0,1,161.684,-2140.24)">
                        <rect x="1337.79" y="2240.26" width="1267.61" height="1267.61" style="fill:url(#_Linear2);"/>
                    </g>
                    <g id="flow_factory.svg" transform="matrix(1.61257,0,0,1.61257,2133.28,733.83)">
                        <g transform="matrix(1,0,0,1,-267,-332.5)">
                            <rect id="Artboard1" x="0" y="0" width="533.892" height="664.667" style="fill:none;"/>
                            <path d="M433.106,192.02L433.106,483.662L454.775,471.151L454.775,179.509L433.106,192.02Z" style="fill:url(#_Linear3);"/>
                            <path d="M433.106,542.328L454.775,529.817L454.775,504.795L433.106,492.284L433.106,542.328Z" style="fill:url(#_Linear4);"/>
                            <path d="M389.766,217.042L389.766,292.108L411.436,304.619L411.436,204.531L389.766,217.042Z" style="fill:url(#_Linear5);"/>
                            <path d="M411.436,454.751L411.436,554.839L389.766,567.35L389.766,442.24L411.436,454.751Z" style="fill:url(#_Linear6);"/>
                            <path d="M368.097,454.751L368.097,579.861L346.427,592.372L346.427,442.24L368.097,454.751Z" style="fill:url(#_Linear7);"/>
                            <path d="M108.06,154.487L108.06,129.465L86.391,141.976L108.06,154.487Z" style="fill:rgb(213,148,143);"/>
                            <path d="M324.757,229.553L346.427,217.042L346.427,242.064L324.757,229.553Z" style="fill:rgb(213,148,143);"/>
                            <path d="M129.73,116.954L151.4,104.443L151.4,129.465L129.73,116.954Z" style="fill:rgb(213,148,143);"/>
                            <path d="M173.069,91.932L194.739,79.421L194.739,104.443L173.069,91.932Z" style="fill:rgb(213,148,143);"/>
                            <path d="M216.409,66.91L238.079,54.399L238.079,79.421L216.409,66.91Z" style="fill:rgb(213,148,143);"/>
                            <path d="M368.097,204.531L389.766,192.02L389.766,217.042L368.097,204.531Z" style="fill:rgb(213,148,143);"/>
                            <path d="M411.436,179.509L433.106,166.998L433.106,192.02L411.436,179.509Z" style="fill:rgb(213,148,143);"/>
                            <path d="M173.069,91.932L173.069,442.24L194.739,454.751L194.739,104.443L173.069,91.932Z" style="fill:url(#_Linear8);"/>
                            <path d="M86.391,492.284L86.391,442.24L108.06,429.729L108.06,504.795L86.391,492.284Z" style="fill:url(#_Linear9);"/>
                            <path d="M216.409,66.91L216.409,417.218L238.079,429.729L238.079,79.421L216.409,66.91Z" style="fill:url(#_Linear10);"/>
                            <path d="M411.436,429.729L411.436,529.817L433.106,542.328L433.106,442.24L411.436,429.729Z" style="fill:url(#_Linear11);"/>
                            <path d="M411.436,179.509L411.436,392.196L433.106,404.707L433.106,192.02L411.436,179.509Z" style="fill:url(#_Linear12);"/>
                            <path d="M368.097,417.218L368.097,554.839L389.766,567.35L389.766,429.729L368.097,417.218Z" style="fill:url(#_Linear13);"/>
                            <path d="M368.097,204.531L368.097,367.174L389.766,379.685L389.766,217.042L368.097,204.531Z" style="fill:url(#_Linear14);"/>
                            <path d="M324.757,404.707L324.757,579.861L346.427,592.372L346.427,417.218L324.757,404.707Z" style="fill:url(#_Linear15);"/>
                            <path d="M216.409,91.932L216.409,442.24L194.739,454.751L194.739,104.443L216.409,91.932Z" style="fill:url(#_Linear16);"/>
                            <path d="M238.079,79.421L238.079,429.729L259.748,417.218L259.748,66.91L238.079,79.421Z" style="fill:url(#_Linear17);"/>
                            <path d="M129.73,417.218L129.73,492.284L108.06,504.795L108.06,429.729L129.73,417.218Z" style="fill:rgb(223,231,188);"/>
                            <path d="M433.106,417.218L346.427,367.174L346.427,242.064L368.097,229.553L368.097,354.663L454.775,404.707L433.106,417.218Z" style="fill:url(#_Linear18);"/>
                            <path d="M454.775,404.707L454.775,429.729L433.106,417.218L454.775,404.707Z" style="fill:rgb(213,148,143);"/>
                            <path d="M498.115,479.773L498.115,504.795L476.445,492.284L498.115,479.773Z" style="fill:rgb(213,148,143);"/>
                            <path d="M433.106,442.24L454.775,429.729L433.106,417.218L433.106,442.24Z" style="fill:rgb(129,98,103);"/>
                            <path d="M476.445,517.306L498.115,504.795L476.445,492.284L476.445,517.306Z" style="fill:rgb(129,98,103);"/>
                            <path d="M86.391,141.976L86.391,392.196L108.06,404.707L108.06,154.487L86.391,141.976Z" style="fill:url(#_Linear19);"/>
                            <path d="M303.088,267.086L281.418,354.663L216.409,317.13L194.739,329.641L173.069,317.13L173.069,166.998L324.757,254.575L324.757,379.685L433.106,442.24L454.775,429.729L454.775,404.707L433.106,392.196L368.097,354.663L368.097,279.597L476.445,342.152L476.445,493.284L303.088,392.196L303.088,267.086Z" style="fill:url(#_Linear20);"/>
                            <path d="M108.06,129.465L21.382,79.421L43.051,91.932L43.051,267.086L86.391,292.108L86.391,141.976L108.06,129.465Z" style="fill:url(#_Linear21);"/>
                            <path d="M173.069,342.152L151.4,329.641L151.4,479.773L129.73,467.262L129.73,116.954L151.4,129.465L151.4,304.619L194.739,329.641L173.069,342.152Z" style="fill:url(#_Linear22);"/>
                            <path d="M151.4,479.773L173.069,467.262L173.069,342.152L151.4,329.641L151.4,479.773Z" style="fill:rgb(223,231,188);"/>
                            <path d="M216.409,342.152L216.409,367.174L64.721,454.751L64.721,429.729L216.409,342.152Z" style="fill:url(#_Linear23);"/>
                            <path d="M281.418,403.707L281.418,604.883L303.088,617.394L303.088,416.218L281.418,403.707Z" style="fill:url(#_Linear24);"/>
                            <path d="M476.445,492.284L476.445,517.306L216.409,367.174L216.409,342.152L476.445,492.284Z" style="fill:url(#_Linear25);"/>
                            <path d="M194.739,329.641L151.4,304.619L151.4,129.465L173.069,116.954L173.069,292.108L281.418,354.663L281.418,254.575L303.088,267.086L303.088,392.196L216.409,342.152L108.06,404.707L108.06,154.487L129.73,141.976L129.73,367.174L194.739,329.641Z" style="fill:url(#_Linear26);"/>
                            <path d="M108.06,404.707L86.391,392.196L43.051,417.218L64.721,429.729L108.06,404.707Z" style="fill:rgb(223,231,188);"/>
                            <path d="M43.051,442.24L64.721,429.729L64.721,454.751L43.051,442.24Z" style="fill:url(#_Linear27);"/>
                            <path d="M43.051,417.218L43.051,442.24L64.721,429.729L43.051,417.218" style="fill:url(#_Linear28);"/>
                            <path d="M498.115,479.773L476.445,467.262L476.445,492.284L498.115,479.773Z" style="fill:rgb(223,231,188);"/>
                            <path d="M324.757,604.883L324.757,429.729L303.088,417.218L303.088,617.394L324.757,604.883Z" style="fill:url(#_Linear29);"/>
                            <path d="M216.409,317.13L281.418,279.597L281.418,304.619L238.079,329.641L216.409,317.13Z" style="fill:url(#_Linear30);"/>
                            <path d="M259.748,342.152L281.418,329.641L281.418,304.619L238.079,329.641L259.748,342.152Z" style="fill:url(#_Linear31);"/>
                            <path d="M454.775,179.509L433.106,166.998L433.106,192.02L454.775,179.509Z" style="fill:rgb(129,99,103);"/>
                            <path d="M389.766,192.02L389.766,217.042L411.436,204.531L389.766,192.02Z" style="fill:rgb(129,99,103);"/>
                            <path d="M346.427,217.042L368.097,229.553L346.427,242.064L346.427,217.042Z" style="fill:rgb(129,99,103);"/>
                            <path d="M303.088,242.064L324.757,254.575L303.088,267.086L303.088,242.064Z" style="fill:rgb(129,99,103);"/>
                            <path d="M238.079,54.399L259.748,66.91L238.079,79.421L238.079,54.399Z" style="fill:rgb(129,99,103);"/>
                            <path d="M194.739,79.421L216.409,91.932L194.739,104.443L194.739,79.421Z" style="fill:rgb(129,99,103);"/>
                            <path d="M151.4,104.443L173.069,116.954L151.4,129.465L151.4,104.443Z" style="fill:rgb(129,99,103);"/>
                            <path d="M108.06,129.465L129.73,141.976L108.06,154.487L108.06,129.465Z" style="fill:rgb(129,99,103);"/>
                            <path d="M303.088,267.086L303.088,242.064L281.418,254.575L303.088,267.086Z" style="fill:rgb(213,148,143);"/>
                            <path d="M303.088,267.086L303.088,242.064L324.757,254.575L303.088,267.086Z" style="fill:url(#_Linear32);"/>
                            <path d="M346.427,242.064L346.427,217.042L368.097,229.553L346.427,242.064Z" style="fill:url(#_Linear33);"/>
                            <path d="M389.766,217.042L389.766,192.02L411.436,204.531L389.766,217.042Z" style="fill:url(#_Linear34);"/>
                            <path d="M281.418,254.575L303.088,267.086L303.088,242.064L281.418,254.575" style="fill:url(#_Linear35);"/>
                            <path d="M324.757,229.553L346.427,242.064L346.427,217.042L324.757,229.553" style="fill:url(#_Linear36);"/>
                            <path d="M368.097,204.531L389.766,217.042L389.766,192.02L368.097,204.531" style="fill:url(#_Linear37);"/>
                            <path d="M64.721,429.729L43.051,442.24L43.051,417.218L64.721,429.729Z" style="fill:url(#_Linear38);"/>
                            <path d="M433.106,417.218L454.775,429.729L433.106,442.24L433.106,417.218Z" style="fill:url(#_Linear39);"/>
                            <path d="M476.445,492.284L498.115,504.795L476.445,517.306L476.445,492.284Z" style="fill:url(#_Linear40);"/>
                            <path d="M64.721,454.751L64.721,429.729L43.051,442.24L64.721,454.751" style="fill:url(#_Linear41);"/>
                            <path d="M454.775,404.707L433.106,417.218L454.775,429.729L454.775,404.707" style="fill:url(#_Linear42);"/>
                            <path d="M498.115,479.773L476.445,492.284L498.115,504.795L498.115,479.773" style="fill:url(#_Linear43);"/>
                            <path d="M238.079,79.421L238.079,54.399L259.748,66.91L238.079,79.421Z" style="fill:url(#_Linear44);"/>
                            <path d="M389.766,217.042L389.766,192.02L411.436,204.531L389.766,217.042Z" style="fill:url(#_Linear45);"/>
                            <path d="M194.739,104.443L194.739,79.421L216.409,91.932L194.739,104.443Z" style="fill:url(#_Linear46);"/>
                            <path d="M346.427,242.064L346.427,217.042L368.097,229.553L346.427,242.064Z" style="fill:url(#_Linear47);"/>
                            <path d="M151.4,129.465L151.4,104.443L173.069,116.954L151.4,129.465Z" style="fill:url(#_Linear48);"/>
                            <path d="M303.088,267.086L303.088,242.064L324.757,254.575L303.088,267.086Z" style="fill:url(#_Linear49);"/>
                            <path d="M108.06,154.487L108.06,129.465L129.73,141.976L108.06,154.487Z" style="fill:url(#_Linear50);"/>
                            <path d="M216.409,66.91L238.079,79.421L238.079,54.399L216.409,66.91" style="fill:url(#_Linear51);"/>
                            <path d="M368.097,204.531L389.766,217.042L389.766,192.02L368.097,204.531" style="fill:url(#_Linear52);"/>
                            <path d="M173.069,91.932L194.739,104.443L194.739,79.421L173.069,91.932" style="fill:url(#_Linear53);"/>
                            <path d="M324.757,229.553L346.427,242.064L346.427,217.042L324.757,229.553" style="fill:url(#_Linear54);"/>
                            <path d="M129.73,116.954L151.4,129.465L151.4,104.443L129.73,116.954" style="fill:url(#_Linear55);"/>
                            <path d="M281.418,254.575L303.088,267.086L303.088,242.064L281.418,254.575" style="fill:url(#_Linear56);"/>
                            <path d="M86.391,141.976L108.06,154.487L108.06,129.465L86.391,141.976" style="fill:url(#_Linear57);"/>
                            <path d="M433.106,192.02L433.106,166.998L454.775,179.509L433.106,192.02Z" style="fill:url(#_Linear58);"/>
                            <path d="M238.079,79.421L238.079,54.399L259.748,66.91L238.079,79.421Z" style="fill:url(#_Linear59);"/>
                            <path d="M389.766,217.042L389.766,192.02L411.436,204.531L389.766,217.042Z" style="fill:url(#_Linear60);"/>
                            <path d="M194.739,104.443L194.739,79.421L216.409,91.932L194.739,104.443Z" style="fill:url(#_Linear61);"/>
                            <path d="M346.427,242.064L346.427,217.042L368.097,229.553L346.427,242.064Z" style="fill:url(#_Linear62);"/>
                            <path d="M151.4,129.465L151.4,104.443L173.069,116.954L151.4,129.465Z" style="fill:url(#_Linear63);"/>
                            <path d="M303.088,267.086L303.088,242.064L324.757,254.575L303.088,267.086Z" style="fill:url(#_Linear64);"/>
                            <path d="M433.106,417.218L454.775,429.729L433.106,442.24L433.106,417.218Z" style="fill:url(#_Linear65);"/>
                            <path d="M476.445,492.284L498.115,504.795L476.445,517.306L476.445,492.284Z" style="fill:url(#_Linear66);"/>
                            <path d="M64.721,429.729L43.051,442.24L43.051,417.218L64.721,429.729Z" style="fill:url(#_Linear67);"/>
                            <path d="M108.06,154.487L108.06,129.465L129.73,141.976L108.06,154.487Z" style="fill:url(#_Linear68);"/>
                            <path d="M411.436,179.509L433.106,192.02L433.106,166.998L411.436,179.509" style="fill:url(#_Linear69);"/>
                            <path d="M216.409,66.91L238.079,79.421L238.079,54.399L216.409,66.91" style="fill:url(#_Linear70);"/>
                            <path d="M368.097,204.531L389.766,217.042L389.766,192.02L368.097,204.531" style="fill:url(#_Linear71);"/>
                            <path d="M173.069,91.932L194.739,104.443L194.739,79.421L173.069,91.932" style="fill:url(#_Linear72);"/>
                            <path d="M324.757,229.553L346.427,242.064L346.427,217.042L324.757,229.553" style="fill:url(#_Linear73);"/>
                            <path d="M129.73,116.954L151.4,129.465L151.4,104.443L129.73,116.954" style="fill:url(#_Linear74);"/>
                            <path d="M281.418,254.575L303.088,267.086L303.088,242.064L281.418,254.575" style="fill:url(#_Linear75);"/>
                            <path d="M454.775,404.707L433.106,417.218L454.775,429.729L454.775,404.707" style="fill:url(#_Linear76);"/>
                            <path d="M498.115,479.773L476.445,492.284L498.115,504.795L498.115,479.773" style="fill:url(#_Linear77);"/>
                            <path d="M64.721,454.751L64.721,429.729L43.051,442.24L64.721,454.751" style="fill:url(#_Linear78);"/>
                            <path d="M86.391,141.976L108.06,154.487L108.06,129.465L86.391,141.976" style="fill:url(#_Linear79);"/>
                        </g>
                    </g>
                </g>
            </g>
        </g>
    </g>
    <defs>
        <linearGradient id="_Linear2" x1="0" y1="0" x2="1" y2="0" gradientUnits="userSpaceOnUse" gradientTransform="matrix(1078.69,1004.61,-1004.61,1078.69,1401.62,2367.83)"><stop offset="0" style="stop-color:rgb(91,170,166);stop-opacity:1"/><stop offset="1" style="stop-color:rgb(224,240,183);stop-opacity:1"/></linearGradient>
        <linearGradient id="_Linear3" x1="0" y1="0" x2="1" y2="0" gradientUnits="userSpaceOnUse" gradientTransform="matrix(12.3974,-342.161,342.161,12.3974,442.378,521.671)"><stop offset="0" style="stop-color:rgb(223,231,188);stop-opacity:1"/><stop offset="1" style="stop-color:rgb(114,178,173);stop-opacity:1"/></linearGradient>
        <linearGradient id="_Linear4" x1="0" y1="0" x2="1" y2="0" gradientUnits="userSpaceOnUse" gradientTransform="matrix(0.532789,137.313,-137.313,0.532789,439.45,413.556)"><stop offset="0" style="stop-color:rgb(114,178,173);stop-opacity:1"/><stop offset="1" style="stop-color:rgb(219,229,188);stop-opacity:1"/></linearGradient>
        <linearGradient id="_Linear5" x1="0" y1="0" x2="1" y2="0" gradientUnits="userSpaceOnUse" gradientTransform="matrix(3.06305,-320.266,320.266,3.06305,397.045,531.337)"><stop offset="0" style="stop-color:rgb(223,231,188);stop-opacity:1"/><stop offset="1" style="stop-color:rgb(114,178,173);stop-opacity:1"/></linearGradient>
        <linearGradient id="_Linear6" x1="0" y1="0" x2="1" y2="0" gradientUnits="userSpaceOnUse" gradientTransform="matrix(3.75,-240.5,240.5,3.75,351.589,572.091)"><stop offset="0" style="stop-color:rgb(223,231,188);stop-opacity:1"/><stop offset="1" style="stop-color:rgb(114,178,173);stop-opacity:1"/></linearGradient>
        <linearGradient id="_Linear7" x1="0" y1="0" x2="1" y2="0" gradientUnits="userSpaceOnUse" gradientTransform="matrix(3.75,-240.5,240.5,3.75,351.589,572.091)"><stop offset="0" style="stop-color:rgb(223,231,188);stop-opacity:1"/><stop offset="1" style="stop-color:rgb(114,178,173);stop-opacity:1"/></linearGradient>
        <linearGradient id="_Linear8" x1="0" y1="0" x2="1" y2="0" gradientUnits="userSpaceOnUse" gradientTransform="matrix(-4.33333,-318.333,318.333,-4.33333,185.859,415.747)"><stop offset="0" style="stop-color:rgb(85,77,80);stop-opacity:1"/><stop offset="1" style="stop-color:rgb(113,177,173);stop-opacity:1"/></linearGradient>
        <linearGradient id="_Linear9" x1="0" y1="0" x2="1" y2="0" gradientUnits="userSpaceOnUse" gradientTransform="matrix(-2.3541,-335.273,335.273,-2.3541,98.7114,483.004)"><stop offset="0" style="stop-color:rgb(85,77,80);stop-opacity:1"/><stop offset="1" style="stop-color:rgb(113,177,173);stop-opacity:1"/></linearGradient>
        <linearGradient id="_Linear10" x1="0" y1="0" x2="1" y2="0" gradientUnits="userSpaceOnUse" gradientTransform="matrix(1.65177,-333.284,333.284,1.65177,228.68,408.232)"><stop offset="0" style="stop-color:rgb(85,77,80);stop-opacity:1"/><stop offset="0.1" style="stop-color:rgb(98,117,119);stop-opacity:1"/><stop offset="1" style="stop-color:rgb(113,178,174);stop-opacity:1"/></linearGradient>
        <linearGradient id="_Linear11" x1="0" y1="0" x2="1" y2="0" gradientUnits="userSpaceOnUse" gradientTransform="matrix(-11.3398,343.761,-343.761,-11.3398,433.106,192.02)"><stop offset="0" style="stop-color:rgb(113,178,174);stop-opacity:1"/><stop offset="0.17" style="stop-color:rgb(103,136,136);stop-opacity:1"/><stop offset="0.33" style="stop-color:rgb(99,121,123);stop-opacity:1"/><stop offset="0.72" style="stop-color:rgb(96,113,115);stop-opacity:1"/><stop offset="0.87" style="stop-color:rgb(90,95,97);stop-opacity:1"/><stop offset="1" style="stop-color:rgb(85,77,80);stop-opacity:1"/></linearGradient>
        <linearGradient id="_Linear12" x1="0" y1="0" x2="1" y2="0" gradientUnits="userSpaceOnUse" gradientTransform="matrix(-11.3398,343.761,-343.761,-11.3398,433.106,192.02)"><stop offset="0" style="stop-color:rgb(113,178,174);stop-opacity:1"/><stop offset="0.17" style="stop-color:rgb(103,136,136);stop-opacity:1"/><stop offset="0.33" style="stop-color:rgb(99,121,123);stop-opacity:1"/><stop offset="0.72" style="stop-color:rgb(96,113,115);stop-opacity:1"/><stop offset="0.87" style="stop-color:rgb(90,95,97);stop-opacity:1"/><stop offset="1" style="stop-color:rgb(85,77,80);stop-opacity:1"/></linearGradient>
        <linearGradient id="_Linear13" x1="0" y1="0" x2="1" y2="0" gradientUnits="userSpaceOnUse" gradientTransform="matrix(9.6,-339.2,339.2,9.6,377.711,559.928)"><stop offset="0" style="stop-color:rgb(85,77,80);stop-opacity:1"/><stop offset="0.4" style="stop-color:rgb(97,114,116);stop-opacity:1"/><stop offset="0.74" style="stop-color:rgb(102,128,130);stop-opacity:1"/><stop offset="1" style="stop-color:rgb(113,178,174);stop-opacity:1"/></linearGradient>
        <linearGradient id="_Linear14" x1="0" y1="0" x2="1" y2="0" gradientUnits="userSpaceOnUse" gradientTransform="matrix(9.6,-339.2,339.2,9.6,377.711,559.928)"><stop offset="0" style="stop-color:rgb(85,77,80);stop-opacity:1"/><stop offset="0.4" style="stop-color:rgb(97,114,116);stop-opacity:1"/><stop offset="0.74" style="stop-color:rgb(102,128,130);stop-opacity:1"/><stop offset="1" style="stop-color:rgb(113,178,174);stop-opacity:1"/></linearGradient>
        <linearGradient id="_Linear15" x1="0" y1="0" x2="1" y2="0" gradientUnits="userSpaceOnUse" gradientTransform="matrix(9.6,-339.2,339.2,9.6,334.372,584.95)"><stop offset="0" style="stop-color:rgb(85,77,80);stop-opacity:1"/><stop offset="0.43" style="stop-color:rgb(94,109,109);stop-opacity:1"/><stop offset="1" style="stop-color:rgb(113,178,174);stop-opacity:1"/></linearGradient>
        <linearGradient id="_Linear16" x1="0" y1="0" x2="1" y2="0" gradientUnits="userSpaceOnUse" gradientTransform="matrix(0.540954,-326.331,326.331,0.540954,207.525,423.08)"><stop offset="0" style="stop-color:rgb(223,231,188);stop-opacity:1"/><stop offset="1" style="stop-color:rgb(148,195,179);stop-opacity:1"/></linearGradient>
        <linearGradient id="_Linear17" x1="0" y1="0" x2="1" y2="0" gradientUnits="userSpaceOnUse" gradientTransform="matrix(6.94228,-316.05,316.05,6.94228,249.711,342.671)"><stop offset="0" style="stop-color:rgb(223,231,188);stop-opacity:1"/><stop offset="1" style="stop-color:rgb(113,177,173);stop-opacity:1"/></linearGradient>
        <linearGradient id="_Linear18" x1="0" y1="0" x2="1" y2="0" gradientUnits="userSpaceOnUse" gradientTransform="matrix(6.02192,-126.629,126.629,6.02192,354.898,360.326)"><stop offset="0" style="stop-color:rgb(223,231,188);stop-opacity:1"/><stop offset="1" style="stop-color:rgb(114,178,173);stop-opacity:1"/></linearGradient>
        <linearGradient id="_Linear19" x1="0" y1="0" x2="1" y2="0" gradientUnits="userSpaceOnUse" gradientTransform="matrix(-2.3541,-335.273,335.273,-2.3541,98.7114,483.004)"><stop offset="0" style="stop-color:rgb(85,77,80);stop-opacity:1"/><stop offset="1" style="stop-color:rgb(113,177,173);stop-opacity:1"/></linearGradient>
        <linearGradient id="_Linear20" x1="0" y1="0" x2="1" y2="0" gradientUnits="userSpaceOnUse" gradientTransform="matrix(-163.744,-214.789,214.789,-163.744,407.974,438.522)"><stop offset="0" style="stop-color:rgb(54,51,52);stop-opacity:1"/><stop offset="1" style="stop-color:rgb(113,177,173);stop-opacity:1"/></linearGradient>
        <linearGradient id="_Linear21" x1="0" y1="0" x2="1" y2="0" gradientUnits="userSpaceOnUse" gradientTransform="matrix(-49.4921,-134.894,134.894,-49.4921,76.7943,230.245)"><stop offset="0" style="stop-color:rgb(113,177,173);stop-opacity:1"/><stop offset="1" style="stop-color:rgb(140,190,187);stop-opacity:1"/></linearGradient>
        <linearGradient id="_Linear22" x1="0" y1="0" x2="1" y2="0" gradientUnits="userSpaceOnUse" gradientTransform="matrix(-6.8857,-347.71,347.71,-6.8857,145.078,476.123)"><stop offset="0" style="stop-color:rgb(85,77,80);stop-opacity:1"/><stop offset="1" style="stop-color:rgb(113,177,173);stop-opacity:1"/></linearGradient>
        <linearGradient id="_Linear23" x1="0" y1="0" x2="1" y2="0" gradientUnits="userSpaceOnUse" gradientTransform="matrix(259.527,-145.2,145.2,259.527,65.23,439.782)"><stop offset="0" style="stop-color:rgb(223,231,188);stop-opacity:1"/><stop offset="1" style="stop-color:rgb(55,97,106);stop-opacity:1"/></linearGradient>
        <linearGradient id="_Linear24" x1="0" y1="0" x2="1" y2="0" gradientUnits="userSpaceOnUse" gradientTransform="matrix(-17,-451.828,451.828,-17,281.418,550.653)"><stop offset="0" style="stop-color:rgb(85,77,80);stop-opacity:1"/><stop offset="1" style="stop-color:rgb(114,176,172);stop-opacity:1"/></linearGradient>
        <linearGradient id="_Linear25" x1="0" y1="0" x2="1" y2="0" gradientUnits="userSpaceOnUse" gradientTransform="matrix(50.0964,-43.2263,43.2263,50.0964,303.088,439.324)"><stop offset="0" style="stop-color:rgb(98,117,119);stop-opacity:1"/><stop offset="1" style="stop-color:rgb(54,51,52);stop-opacity:1"/></linearGradient>
        <linearGradient id="_Linear26" x1="0" y1="0" x2="1" y2="0" gradientUnits="userSpaceOnUse" gradientTransform="matrix(-195.027,107.429,-107.429,-195.027,303.088,267.086)"><stop offset="0" style="stop-color:rgb(113,178,174);stop-opacity:1"/><stop offset="1" style="stop-color:rgb(223,231,188);stop-opacity:1"/></linearGradient>
        <linearGradient id="_Linear27" x1="0" y1="0" x2="1" y2="0" gradientUnits="userSpaceOnUse" gradientTransform="matrix(18.9395,-24.241,24.241,18.9395,45.7815,453.97)"><stop offset="0" style="stop-color:rgb(0,0,4);stop-opacity:1"/><stop offset="1" style="stop-color:rgb(0,95,143);stop-opacity:1"/></linearGradient>
        <linearGradient id="_Linear28" x1="0" y1="0" x2="1" y2="0" gradientUnits="userSpaceOnUse" gradientTransform="matrix(23.7146,2.03421,-2.03421,23.7146,41.0065,427.695)"><stop offset="0" style="stop-color:rgb(40,40,46);stop-opacity:1"/><stop offset="1" style="stop-color:rgb(0,95,143);stop-opacity:1"/></linearGradient>
        <linearGradient id="_Linear29" x1="0" y1="0" x2="1" y2="0" gradientUnits="userSpaceOnUse" gradientTransform="matrix(3.75,-240.5,240.5,3.75,351.589,572.091)"><stop offset="0" style="stop-color:rgb(223,231,188);stop-opacity:1"/><stop offset="1" style="stop-color:rgb(114,178,173);stop-opacity:1"/></linearGradient>
        <linearGradient id="_Linear30" x1="0" y1="0" x2="1" y2="0" gradientUnits="userSpaceOnUse" gradientTransform="matrix(-104.067,35.7667,-35.7667,-104.067,292.564,286.326)"><stop offset="0" style="stop-color:rgb(223,231,188);stop-opacity:1"/><stop offset="1" style="stop-color:rgb(114,178,173);stop-opacity:1"/></linearGradient>
        <linearGradient id="_Linear31" x1="0" y1="0" x2="1" y2="0" gradientUnits="userSpaceOnUse" gradientTransform="matrix(259.527,-179.436,179.436,259.527,65.23,439.782)"><stop offset="0" style="stop-color:rgb(223,231,188);stop-opacity:1"/><stop offset="1" style="stop-color:rgb(55,97,106);stop-opacity:1"/></linearGradient>
        <linearGradient id="_Linear32" x1="0" y1="0" x2="1" y2="0" gradientUnits="userSpaceOnUse" gradientTransform="matrix(-11.5235,-28.5226,28.5226,-11.5235,314.611,270.587)"><stop offset="0" style="stop-color:rgb(0,0,4);stop-opacity:1"/><stop offset="1" style="stop-color:rgb(0,95,143);stop-opacity:1"/></linearGradient>
        <linearGradient id="_Linear33" x1="0" y1="0" x2="1" y2="0" gradientUnits="userSpaceOnUse" gradientTransform="matrix(-11.5235,-28.5226,28.5226,-11.5235,357.951,245.565)"><stop offset="0" style="stop-color:rgb(0,0,4);stop-opacity:1"/><stop offset="1" style="stop-color:rgb(0,95,143);stop-opacity:1"/></linearGradient>
        <linearGradient id="_Linear34" x1="0" y1="0" x2="1" y2="0" gradientUnits="userSpaceOnUse" gradientTransform="matrix(-11.5235,-28.5226,28.5226,-11.5235,401.29,220.543)"><stop offset="0" style="stop-color:rgb(0,0,4);stop-opacity:1"/><stop offset="1" style="stop-color:rgb(0,95,143);stop-opacity:1"/></linearGradient>
        <linearGradient id="_Linear35" x1="0" y1="0" x2="1" y2="0" gradientUnits="userSpaceOnUse" gradientTransform="matrix(13.619,-19.5203,19.5203,13.619,289.469,261.585)"><stop offset="0" style="stop-color:rgb(40,40,46);stop-opacity:1"/><stop offset="1" style="stop-color:rgb(0,95,143);stop-opacity:1"/></linearGradient>
        <linearGradient id="_Linear36" x1="0" y1="0" x2="1" y2="0" gradientUnits="userSpaceOnUse" gradientTransform="matrix(13.619,-19.5203,19.5203,13.619,332.808,236.563)"><stop offset="0" style="stop-color:rgb(40,40,46);stop-opacity:1"/><stop offset="1" style="stop-color:rgb(0,95,143);stop-opacity:1"/></linearGradient>
        <linearGradient id="_Linear37" x1="0" y1="0" x2="1" y2="0" gradientUnits="userSpaceOnUse" gradientTransform="matrix(13.619,-19.5203,19.5203,13.619,376.147,211.541)"><stop offset="0" style="stop-color:rgb(40,40,46);stop-opacity:1"/><stop offset="1" style="stop-color:rgb(0,95,143);stop-opacity:1"/></linearGradient>
        <linearGradient id="_Linear38" x1="0" y1="0" x2="1" y2="0" gradientUnits="userSpaceOnUse" gradientTransform="matrix(-42.5997,24.5949,-24.5949,-42.5997,85.6511,417.645)"><stop offset="0" style="stop-color:rgb(0,0,4);stop-opacity:1"/><stop offset="1" style="stop-color:rgb(223,231,188);stop-opacity:1"/></linearGradient>
        <linearGradient id="_Linear39" x1="0" y1="0" x2="1" y2="0" gradientUnits="userSpaceOnUse" gradientTransform="matrix(42.5997,24.5949,-24.5949,42.5997,412.176,405.134)"><stop offset="0" style="stop-color:rgb(0,0,4);stop-opacity:1"/><stop offset="1" style="stop-color:rgb(223,231,188);stop-opacity:1"/></linearGradient>
        <linearGradient id="_Linear40" x1="0" y1="0" x2="1" y2="0" gradientUnits="userSpaceOnUse" gradientTransform="matrix(55.0107,18.2836,-18.2836,55.0107,443.104,486.512)"><stop offset="0" style="stop-color:rgb(0,0,4);stop-opacity:1"/><stop offset="1" style="stop-color:rgb(223,231,188);stop-opacity:1"/></linearGradient>
        <linearGradient id="_Linear41" x1="0" y1="0" x2="1" y2="0" gradientUnits="userSpaceOnUse" gradientTransform="matrix(-38.8674,22.4401,-22.4401,-38.8674,81.9188,419.8)"><stop offset="0" style="stop-color:rgb(40,40,46);stop-opacity:1"/><stop offset="1" style="stop-color:rgb(223,231,188);stop-opacity:1"/></linearGradient>
        <linearGradient id="_Linear42" x1="0" y1="0" x2="1" y2="0" gradientUnits="userSpaceOnUse" gradientTransform="matrix(38.8674,22.4401,-22.4401,38.8674,415.908,407.289)"><stop offset="0" style="stop-color:rgb(40,40,46);stop-opacity:1"/><stop offset="1" style="stop-color:rgb(223,231,188);stop-opacity:1"/></linearGradient>
        <linearGradient id="_Linear43" x1="0" y1="0" x2="1" y2="0" gradientUnits="userSpaceOnUse" gradientTransform="matrix(47.1677,19.6733,-19.6733,47.1677,450.947,485.122)"><stop offset="0" style="stop-color:rgb(40,40,46);stop-opacity:1"/><stop offset="1" style="stop-color:rgb(223,231,188);stop-opacity:1"/></linearGradient>
        <linearGradient id="_Linear44" x1="0" y1="0" x2="1" y2="0" gradientUnits="userSpaceOnUse" gradientTransform="matrix(0.220301,-21.9918,21.9918,0.220301,247.991,78.282)"><stop offset="0" style="stop-color:rgb(63,67,70);stop-opacity:1"/><stop offset="1" style="stop-color:rgb(113,178,174);stop-opacity:1"/></linearGradient>
        <linearGradient id="_Linear45" x1="0" y1="0" x2="1" y2="0" gradientUnits="userSpaceOnUse" gradientTransform="matrix(1.36249e-15,-22.2512,22.2512,1.36249e-15,399.679,216.739)"><stop offset="0" style="stop-color:rgb(63,67,70);stop-opacity:1"/><stop offset="1" style="stop-color:rgb(113,178,174);stop-opacity:1"/></linearGradient>
        <linearGradient id="_Linear46" x1="0" y1="0" x2="1" y2="0" gradientUnits="userSpaceOnUse" gradientTransform="matrix(-0.11015,-25.6268,25.6268,-0.11015,204.762,106.498)"><stop offset="0" style="stop-color:rgb(63,67,70);stop-opacity:1"/><stop offset="1" style="stop-color:rgb(113,178,174);stop-opacity:1"/></linearGradient>
        <linearGradient id="_Linear47" x1="0" y1="0" x2="1" y2="0" gradientUnits="userSpaceOnUse" gradientTransform="matrix(1.57068e-15,-25.6512,25.6512,1.57068e-15,356.339,242.861)"><stop offset="0" style="stop-color:rgb(63,67,70);stop-opacity:1"/><stop offset="1" style="stop-color:rgb(113,178,174);stop-opacity:1"/></linearGradient>
        <linearGradient id="_Linear48" x1="0" y1="0" x2="1" y2="0" gradientUnits="userSpaceOnUse" gradientTransform="matrix(1.54895e-15,-25.2963,25.2963,1.54895e-15,161.312,129.207)"><stop offset="0" style="stop-color:rgb(63,67,70);stop-opacity:1"/><stop offset="1" style="stop-color:rgb(113,178,174);stop-opacity:1"/></linearGradient>
        <linearGradient id="_Linear49" x1="0" y1="0" x2="1" y2="0" gradientUnits="userSpaceOnUse" gradientTransform="matrix(1.31963e-15,-21.5512,21.5512,1.31963e-15,313,263.083)"><stop offset="0" style="stop-color:rgb(63,67,70);stop-opacity:1"/><stop offset="1" style="stop-color:rgb(113,178,174);stop-opacity:1"/></linearGradient>
        <linearGradient id="_Linear50" x1="0" y1="0" x2="1" y2="0" gradientUnits="userSpaceOnUse" gradientTransform="matrix(1.72431e-15,-28.1602,28.1602,1.72431e-15,117.973,155.221)"><stop offset="0" style="stop-color:rgb(63,67,70);stop-opacity:1"/><stop offset="1" style="stop-color:rgb(113,178,174);stop-opacity:1"/></linearGradient>
        <linearGradient id="_Linear51" x1="0" y1="0" x2="1" y2="0" gradientUnits="userSpaceOnUse" gradientTransform="matrix(-0.11015,-26.2904,26.2904,-0.11015,225.524,81.9072)"><stop offset="0" style="stop-color:rgb(63,66,68);stop-opacity:1"/><stop offset="1" style="stop-color:rgb(113,178,174);stop-opacity:1"/></linearGradient>
        <linearGradient id="_Linear52" x1="0" y1="0" x2="1" y2="0" gradientUnits="userSpaceOnUse" gradientTransform="matrix(1.85974e-15,-30.3718,30.3718,1.85974e-15,377.322,224.227)"><stop offset="0" style="stop-color:rgb(63,66,68);stop-opacity:1"/><stop offset="1" style="stop-color:rgb(113,178,174);stop-opacity:1"/></linearGradient>
        <linearGradient id="_Linear53" x1="0" y1="0" x2="1" y2="0" gradientUnits="userSpaceOnUse" gradientTransform="matrix(-0.660902,-28.4934,28.4934,-0.660902,182.956,107.15)"><stop offset="0" style="stop-color:rgb(63,66,68);stop-opacity:1"/><stop offset="1" style="stop-color:rgb(113,178,174);stop-opacity:1"/></linearGradient>
        <linearGradient id="_Linear54" x1="0" y1="0" x2="1" y2="0" gradientUnits="userSpaceOnUse" gradientTransform="matrix(1.78269e-15,-29.1136,29.1136,1.78269e-15,333.983,247.391)"><stop offset="0" style="stop-color:rgb(63,66,68);stop-opacity:1"/><stop offset="1" style="stop-color:rgb(113,178,174);stop-opacity:1"/></linearGradient>
        <linearGradient id="_Linear55" x1="0" y1="0" x2="1" y2="0" gradientUnits="userSpaceOnUse" gradientTransform="matrix(-0.11015,-24.3077,24.3077,-0.11015,138.956,125.342)"><stop offset="0" style="stop-color:rgb(63,66,68);stop-opacity:1"/><stop offset="1" style="stop-color:rgb(113,178,174);stop-opacity:1"/></linearGradient>
        <linearGradient id="_Linear56" x1="0" y1="0" x2="1" y2="0" gradientUnits="userSpaceOnUse" gradientTransform="matrix(1.54912e-15,-25.299,25.299,1.54912e-15,290.644,266.598)"><stop offset="0" style="stop-color:rgb(63,66,68);stop-opacity:1"/><stop offset="1" style="stop-color:rgb(113,178,174);stop-opacity:1"/></linearGradient>
        <linearGradient id="_Linear57" x1="0" y1="0" x2="1" y2="0" gradientUnits="userSpaceOnUse" gradientTransform="matrix(1.72448e-15,-28.1629,28.1629,1.72448e-15,95.6164,153.999)"><stop offset="0" style="stop-color:rgb(63,66,68);stop-opacity:1"/><stop offset="1" style="stop-color:rgb(113,178,174);stop-opacity:1"/></linearGradient>
        <linearGradient id="_Linear58" x1="0" y1="0" x2="1" y2="0" gradientUnits="userSpaceOnUse" gradientTransform="matrix(2.4576,-25.0304,25.0304,2.4576,443.018,191.953)"><stop offset="0" style="stop-color:rgb(63,67,70);stop-opacity:1"/><stop offset="1" style="stop-color:rgb(218,154,193);stop-opacity:1"/></linearGradient>
        <linearGradient id="_Linear59" x1="0" y1="0" x2="1" y2="0" gradientUnits="userSpaceOnUse" gradientTransform="matrix(2.4576,-25.0304,25.0304,2.4576,247.991,79.3541)"><stop offset="0" style="stop-color:rgb(63,67,70);stop-opacity:1"/><stop offset="1" style="stop-color:rgb(218,154,193);stop-opacity:1"/></linearGradient>
        <linearGradient id="_Linear60" x1="0" y1="0" x2="1" y2="0" gradientUnits="userSpaceOnUse" gradientTransform="matrix(2.4576,-25.0304,25.0304,2.4576,399.679,216.975)"><stop offset="0" style="stop-color:rgb(63,67,70);stop-opacity:1"/><stop offset="1" style="stop-color:rgb(218,154,193);stop-opacity:1"/></linearGradient>
        <linearGradient id="_Linear61" x1="0" y1="0" x2="1" y2="0" gradientUnits="userSpaceOnUse" gradientTransform="matrix(2.4576,-25.0304,25.0304,2.4576,204.651,104.376)"><stop offset="0" style="stop-color:rgb(63,67,70);stop-opacity:1"/><stop offset="1" style="stop-color:rgb(218,154,193);stop-opacity:1"/></linearGradient>
        <linearGradient id="_Linear62" x1="0" y1="0" x2="1" y2="0" gradientUnits="userSpaceOnUse" gradientTransform="matrix(2.4576,-25.0304,25.0304,2.4576,356.339,241.997)"><stop offset="0" style="stop-color:rgb(63,67,70);stop-opacity:1"/><stop offset="1" style="stop-color:rgb(218,154,193);stop-opacity:1"/></linearGradient>
        <linearGradient id="_Linear63" x1="0" y1="0" x2="1" y2="0" gradientUnits="userSpaceOnUse" gradientTransform="matrix(2.4576,-25.0304,25.0304,2.4576,161.312,129.398)"><stop offset="0" style="stop-color:rgb(63,67,70);stop-opacity:1"/><stop offset="1" style="stop-color:rgb(218,154,193);stop-opacity:1"/></linearGradient>
        <linearGradient id="_Linear64" x1="0" y1="0" x2="1" y2="0" gradientUnits="userSpaceOnUse" gradientTransform="matrix(2.4576,-25.0304,25.0304,2.4576,313,267.019)"><stop offset="0" style="stop-color:rgb(63,67,70);stop-opacity:1"/><stop offset="1" style="stop-color:rgb(218,154,193);stop-opacity:1"/></linearGradient>
        <linearGradient id="_Linear65" x1="0" y1="0" x2="1" y2="0" gradientUnits="userSpaceOnUse" gradientTransform="matrix(20.4482,14.6435,-14.6435,20.4482,428.208,425.836)"><stop offset="0" style="stop-color:rgb(63,67,70);stop-opacity:1"/><stop offset="1" style="stop-color:rgb(218,154,193);stop-opacity:1"/></linearGradient>
        <linearGradient id="_Linear66" x1="0" y1="0" x2="1" y2="0" gradientUnits="userSpaceOnUse" gradientTransform="matrix(20.4482,14.6435,-14.6435,20.4482,471.547,500.902)"><stop offset="0" style="stop-color:rgb(63,67,70);stop-opacity:1"/><stop offset="1" style="stop-color:rgb(218,154,193);stop-opacity:1"/></linearGradient>
        <linearGradient id="_Linear67" x1="0" y1="0" x2="1" y2="0" gradientUnits="userSpaceOnUse" gradientTransform="matrix(-22.9058,10.3869,-10.3869,-22.9058,59.7066,421.179)"><stop offset="0" style="stop-color:rgb(63,67,70);stop-opacity:1"/><stop offset="1" style="stop-color:rgb(218,154,193);stop-opacity:1"/></linearGradient>
        <linearGradient id="_Linear68" x1="0" y1="0" x2="1" y2="0" gradientUnits="userSpaceOnUse" gradientTransform="matrix(2.4576,-25.0304,25.0304,2.4576,117.973,154.42)"><stop offset="0" style="stop-color:rgb(63,67,70);stop-opacity:1"/><stop offset="1" style="stop-color:rgb(218,154,193);stop-opacity:1"/></linearGradient>
        <linearGradient id="_Linear69" x1="0" y1="0" x2="1" y2="0" gradientUnits="userSpaceOnUse" gradientTransform="matrix(-5.11165,-26.4259,26.4259,-5.11165,426.221,195.995)"><stop offset="0" style="stop-color:rgb(63,66,68);stop-opacity:1"/><stop offset="1" style="stop-color:rgb(215,153,192);stop-opacity:1"/></linearGradient>
        <linearGradient id="_Linear70" x1="0" y1="0" x2="1" y2="0" gradientUnits="userSpaceOnUse" gradientTransform="matrix(-5.11165,-26.4259,26.4259,-5.11165,231.194,83.396)"><stop offset="0" style="stop-color:rgb(63,66,68);stop-opacity:1"/><stop offset="1" style="stop-color:rgb(215,153,192);stop-opacity:1"/></linearGradient>
        <linearGradient id="_Linear71" x1="0" y1="0" x2="1" y2="0" gradientUnits="userSpaceOnUse" gradientTransform="matrix(-5.11165,-26.4259,26.4259,-5.11165,382.882,221.017)"><stop offset="0" style="stop-color:rgb(63,66,68);stop-opacity:1"/><stop offset="1" style="stop-color:rgb(215,153,192);stop-opacity:1"/></linearGradient>
        <linearGradient id="_Linear72" x1="0" y1="0" x2="1" y2="0" gradientUnits="userSpaceOnUse" gradientTransform="matrix(-5.11165,-26.4259,26.4259,-5.11165,187.855,108.418)"><stop offset="0" style="stop-color:rgb(63,66,68);stop-opacity:1"/><stop offset="1" style="stop-color:rgb(215,153,192);stop-opacity:1"/></linearGradient>
        <linearGradient id="_Linear73" x1="0" y1="0" x2="1" y2="0" gradientUnits="userSpaceOnUse" gradientTransform="matrix(-5.11165,-26.4259,26.4259,-5.11165,339.543,246.039)"><stop offset="0" style="stop-color:rgb(63,66,68);stop-opacity:1"/><stop offset="1" style="stop-color:rgb(215,153,192);stop-opacity:1"/></linearGradient>
        <linearGradient id="_Linear74" x1="0" y1="0" x2="1" y2="0" gradientUnits="userSpaceOnUse" gradientTransform="matrix(-5.11165,-26.4259,26.4259,-5.11165,144.515,133.44)"><stop offset="0" style="stop-color:rgb(63,66,68);stop-opacity:1"/><stop offset="1" style="stop-color:rgb(215,153,192);stop-opacity:1"/></linearGradient>
        <linearGradient id="_Linear75" x1="0" y1="0" x2="1" y2="0" gradientUnits="userSpaceOnUse" gradientTransform="matrix(-5.11165,-26.4259,26.4259,-5.11165,296.203,271.061)"><stop offset="0" style="stop-color:rgb(63,66,68);stop-opacity:1"/><stop offset="1" style="stop-color:rgb(215,153,192);stop-opacity:1"/></linearGradient>
        <linearGradient id="_Linear76" x1="0" y1="0" x2="1" y2="0" gradientUnits="userSpaceOnUse" gradientTransform="matrix(25.4413,8.78613,-8.78613,25.4413,433.106,409.269)"><stop offset="0" style="stop-color:rgb(63,66,68);stop-opacity:1"/><stop offset="1" style="stop-color:rgb(215,153,192);stop-opacity:1"/></linearGradient>
        <linearGradient id="_Linear77" x1="0" y1="0" x2="1" y2="0" gradientUnits="userSpaceOnUse" gradientTransform="matrix(25.4413,8.78613,-8.78613,25.4413,476.445,484.335)"><stop offset="0" style="stop-color:rgb(63,66,68);stop-opacity:1"/><stop offset="1" style="stop-color:rgb(215,153,192);stop-opacity:1"/></linearGradient>
        <linearGradient id="_Linear78" x1="0" y1="0" x2="1" y2="0" gradientUnits="userSpaceOnUse" gradientTransform="matrix(-20.3297,17.6398,-17.6398,-20.3297,71.6055,433.704)"><stop offset="0" style="stop-color:rgb(63,66,68);stop-opacity:1"/><stop offset="1" style="stop-color:rgb(215,153,192);stop-opacity:1"/></linearGradient>
        <linearGradient id="_Linear79" x1="0" y1="0" x2="1" y2="0" gradientUnits="userSpaceOnUse" gradientTransform="matrix(-5.11165,-26.4259,26.4259,-5.11165,101.176,158.462)"><stop offset="0" style="stop-color:rgb(63,66,68);stop-opacity:1"/><stop offset="1" style="stop-color:rgb(215,153,192);stop-opacity:1"/></linearGradient>
    </defs>
</svg>
