<?xml version="1.0" encoding="UTF-8"?><svg id="Layer_1" xmlns="http://www.w3.org/2000/svg" viewBox="0 0 370 370"><defs><style>.cls-1{fill:#222;}</style></defs><path class="cls-1" d="m370,115.4v-38.86H102.31l.02.02c-21.19-.07-39.1,7.37-52.17,24.89-11.55,15.49-16.78,33.37-18.89,52.21-2.05,18.31-1.77,36.72-1,55.1.8,19.25,4.1,37.96,13.31,55.2,7.32,13.7,17.18,24.75,32.01,30.68,8.66,3.46,17.59,5.04,26.73,5l-.02.03h267.69v-38.97l-207.17.05,7.3-55.6c52.87.02,199.87.07,199.87.07v-38.54s-145.55.04-199.87.06l-7.19-51.4,207.06.06ZM82.35,247.27c-5.86-9.09-7.36-19.36-8.41-29.68-1.01-9.98-1.29-20.03-1.26-32.5.43-12.2.26-26.86,3.55-41.24,1.78-7.79,4.74-14.98,10.76-20.53,9.5-8.77,26.43-6.74,34.03,3.73,6.4,8.8,8.35,18.96,9.36,29.32,2.1,21.6,2.17,43.24-.28,64.82-1.02,9.02-3,17.8-7.98,25.72-9.17,14.61-30.45,14.8-39.77.35Z"/></svg>