<?xml version="1.0" encoding="UTF-8"?><svg xmlns="http://www.w3.org/2000/svg" viewBox="0 0 2479.54 1707.58"><defs><style>.cls-1{fill:#ff9d00;}.cls-2{fill:#fff;}.cls-3{fill:#c1c1c1;}.cls-4{fill:#222;}.cls-5{fill:#494949;}</style></defs><g id="Layer_2"><rect class="cls-1" x="1214.64" y="1358.54" width="1264.9" height="349.04"/><rect class="cls-5" y="886.16" width="1214.64" height="472.37"/><rect class="cls-3" x="1214.64" y="886.16" width="1264.9" height="472.37"/><rect class="cls-4" x="1214.64" y="0" width="1264.9" height="886.16"/></g><g id="Layer_1"><path class="cls-4" d="m1214.64,239.61v-120.39H385.31l.08.06c-65.66-.22-121.14,22.83-161.62,77.11-35.78,47.99-51.97,103.38-58.51,161.75-6.35,56.71-5.48,113.77-3.11,170.71,2.48,59.63,12.72,117.61,41.24,171.01,22.67,42.44,53.22,76.68,99.17,95.05,26.84,10.73,54.5,15.61,82.82,15.48l-.06.08h829.33v-120.74l-641.83.16,22.62-172.24c163.8.05,619.21.22,619.21.22v-119.39s-450.91.14-619.21.18l-22.28-159.23,641.49.18Zm-891.17,408.52c-18.16-28.16-22.82-59.97-26.07-91.96-3.14-30.92-3.99-62.06-3.9-100.67,1.32-37.78.8-83.2,10.99-127.75,5.52-24.14,14.7-46.4,33.33-63.59,29.44-27.16,81.88-20.87,105.43,11.54,19.82,27.28,25.88,58.74,29,90.83,6.52,66.91,6.71,133.96-.86,200.83-3.17,27.96-9.3,55.14-24.72,79.69-28.42,45.26-94.33,45.87-123.21,1.08Z"/><path class="cls-3" d="m1214.64,1027.62v-50.77H260.42l.03.03c-27.69-.09-51.09,9.63-68.16,32.52-15.09,20.24-21.92,43.6-24.68,68.22-2.68,23.92-2.31,47.98-1.31,72,1.05,25.15,5.36,49.6,17.39,72.12,9.56,17.9,22.45,32.34,41.83,40.09,11.32,4.53,22.99,6.58,34.93,6.53l-.03.03h954.22v-50.92l-875.14.07,9.54-72.64c69.08.02,865.6.09,865.6.09v-50.35s-794.62.06-865.6.08l-9.4-67.15,875,.07Zm-980.3,172.3c-7.66-11.88-9.62-25.29-10.99-38.78-1.32-13.04-1.68-26.18-1.64-42.46.56-15.94.34-35.09,4.63-53.88,2.33-10.18,6.2-19.57,14.06-26.82,12.42-11.45,34.53-8.8,44.47,4.87,8.36,11.5,10.91,24.77,12.23,38.31,2.75,28.22,2.83,56.5-.36,84.7-1.34,11.79-3.92,23.25-10.42,33.61-11.98,19.09-39.78,19.34-51.96.46Z"/><path class="cls-1" d="m1214.64,1498.68v-15.7H194.89h0c-8.56-.02-15.8,2.99-21.08,10.06-4.67,6.26-6.78,13.48-7.63,21.09-.83,7.4-.71,14.84-.41,22.26.32,7.78,1.66,15.34,5.38,22.3,2.96,5.53,6.94,10,12.93,12.4,3.5,1.4,7.11,2.04,10.8,2.02h0s1019.76.01,1019.76.01v-15.75l-995.3.02,2.95-22.46c21.36,0,992.36.03,992.36.03v-15.57s-970.41.02-992.36.02l-2.91-20.76,995.26.02Zm-1027.82,53.27c-2.37-3.67-2.98-7.82-3.4-11.99-.41-4.03-.52-8.09-.51-13.13.17-4.93.1-10.85,1.43-16.66.72-3.15,1.92-6.05,4.35-8.29,3.84-3.54,10.68-2.72,13.75,1.51,2.59,3.56,3.37,7.66,3.78,11.84.85,8.73.88,17.47-.11,26.19-.41,3.65-1.21,7.19-3.22,10.39-3.71,5.9-12.3,5.98-16.07.14Z"/><path class="cls-2" d="m2479.54,239.61v-120.39h-829.33l.08.06c-65.66-.22-121.14,22.83-161.62,77.11-35.78,47.99-51.97,103.38-58.51,161.75-6.35,56.71-5.48,113.77-3.11,170.71,2.48,59.63,12.72,117.61,41.24,171.01,22.67,42.44,53.22,76.68,99.17,95.05,26.84,10.73,54.5,15.61,82.82,15.48l-.06.08h829.33v-120.74l-641.83.16,22.62-172.24c163.8.05,619.21.22,619.21.22v-119.39s-450.91.14-619.21.18l-22.28-159.23,641.49.18Zm-891.17,408.52c-18.16-28.16-22.82-59.97-26.07-91.96-3.14-30.92-3.99-62.06-3.9-100.67,1.32-37.78.8-83.2,10.99-127.75,5.52-24.14,14.7-46.4,33.33-63.59,29.44-27.16,81.88-20.87,105.43,11.54,19.82,27.28,25.88,58.74,29,90.83,6.52,66.91,6.71,133.96-.86,200.83-3.17,27.96-9.3,55.14-24.72,79.69-28.42,45.26-94.33,45.87-123.21,1.08Z"/><path class="cls-5" d="m2479.54,1027.62v-50.77h-954.22l.03.03c-27.69-.09-51.09,9.63-68.16,32.52-15.09,20.24-21.92,43.6-24.68,68.22-2.68,23.92-2.31,47.98-1.31,72,1.05,25.15,5.36,49.6,17.39,72.12,9.56,17.9,22.45,32.34,41.83,40.09,11.32,4.53,22.99,6.58,34.93,6.53l-.03.03h954.22v-50.92l-875.14.07,9.54-72.64c69.08.02,865.6.09,865.6.09v-50.35s-794.62.06-865.6.08l-9.4-67.15,875,.07Zm-980.3,172.3c-7.66-11.88-9.62-25.29-10.99-38.78-1.32-13.04-1.68-26.18-1.64-42.46.56-15.94.34-35.09,4.63-53.88,2.33-10.18,6.2-19.57,14.06-26.82,12.42-11.45,34.53-8.8,44.47,4.87,8.36,11.5,10.91,24.77,12.23,38.31,2.75,28.22,2.83,56.5-.36,84.7-1.34,11.79-3.92,23.25-10.42,33.61-11.98,19.09-39.78,19.34-51.96.46Z"/><path class="cls-2" d="m2479.54,1498.68v-15.7h-1019.76,0c-8.56-.02-15.8,2.99-21.08,10.06-4.67,6.26-6.78,13.48-7.63,21.09-.83,7.4-.71,14.84-.41,22.26.32,7.78,1.66,15.34,5.38,22.3,2.96,5.53,6.94,10,12.93,12.4,3.5,1.4,7.11,2.04,10.8,2.02h0s1019.76.01,1019.76.01v-15.75l-995.3.02,2.95-22.46c21.36,0,992.36.03,992.36.03v-15.57s-970.41.02-992.36.02l-2.91-20.76,995.26.02Zm-1027.82,53.27c-2.37-3.67-2.98-7.82-3.4-11.99-.41-4.03-.52-8.09-.51-13.13.17-4.93.1-10.85,1.43-16.66.72-3.15,1.92-6.05,4.35-8.29,3.84-3.54,10.68-2.72,13.75,1.51,2.59,3.56,3.37,7.66,3.78,11.84.85,8.73.88,17.47-.11,26.19-.41,3.65-1.21,7.19-3.22,10.39-3.71,5.9-12.3,5.98-16.07.14Z"/></g></svg>