<svg xmlns="http://www.w3.org/2000/svg" width="370" height="370" viewBox="0 0 370 370">
  <path d="M296.45,134.952V108.2H112.174l.017.013c-14.59-.048-26.918,5.074-35.911,17.134-7.952,10.663-11.549,22.971-13,35.94-1.412,12.6-1.218,25.28-.691,37.932.552,13.25,2.826,26.133,9.163,38,5.036,9.43,11.825,17.038,22.035,21.121a48.483,48.483,0,0,0,18.4,3.44l-.014.018H296.45V234.969s-106.93.03-143.378.037h.765l5.025-38.273c36.4.011,133.293.048,133.3.048h4.291V170.252s-100.192.031-137.588.04l-4.95-35.38h-6.28C177.364,134.916,296.45,134.952,296.45,134.952ZM98.434,225.725c-4.035-6.257-5.07-13.325-5.792-20.434a212.368,212.368,0,0,1-.866-22.369c.293-8.4.179-18.487,2.441-28.386,1.226-5.363,3.266-10.311,7.406-14.13,6.541-6.035,18.192-4.637,23.426,2.565,4.405,6.06,5.75,13.052,6.445,20.182a212.588,212.588,0,0,1-.191,44.624c-.7,6.212-2.067,12.251-5.492,17.707A16.239,16.239,0,0,1,98.434,225.725Z" fill="#464646"/>
</svg>
