<?xml version="1.0" encoding="UTF-8"?><svg id="Layer_1" xmlns="http://www.w3.org/2000/svg" viewBox="0 0 1757.76 1697.04"><path d="m383.39,375.86h-42.28l-7.1-37.14h-72.88s-6.68,37.25-6.68,37.25h-41.52l51.36-239.41h66.6c6.27,28.59,44.26,201.79,52.51,239.3Zm-115.1-74.23h58.66l-1.15-6.02c-.81-4.25-1.72-9.09-2.56-13.53-.92-4.88-1.75-9.29-2.27-11.97-2.73-14.08-7.35-37.73-11.41-58.09-2.23-11.16-3.98-20-5.32-26.24-2-9.29-2.65-12.13-2.83-12.89h-9.29l-.35,1.92c-3.51,19.12-7.86,42.53-12.22,66.05-3.51,18.91-7.03,37.9-10.15,54.79l-1.11,5.99h0Z"/><path d="m434.57,375.95c-12.82,0-26.8.01-34.1.02v-239.47c14.65-.08,57.22-.25,73.08.41,17.92.75,33.37,6.21,45.92,16.24,12.54,10.01,19.72,23.05,21.94,39.87,2.11,15.91-.17,29.74-6.96,42.29-2.5,4.63-5.95,8.87-10.25,12.6l-.7.61c-.87.75-1.73,1.5-3.11,2.74l-4.09,3.69,5.33,5c3.24,3.03,6.92,6.46,9.46,9.7,9.95,12.69,14.07,27.77,12.57,46.09-1.3,15.98-6.92,28.81-17.17,39.22-10.04,10.2-23.17,16.54-40.14,19.4-9.38,1.58-18.87,1.67-27.77,1.62-4.92-.03-14.13-.03-24.02-.03Zm2.97-35.32l4.99.08c.31,0,3.12.05,7.02.05,7.17,0,18.04-.15,24.02-.96,8.62-1.16,15.36-4.29,20.62-9.55,8.29-8.3,11.27-19.08,8.63-31.16-2.72-12.46-11.48-20.92-25.33-24.46-6.95-1.78-13.81-1.76-20.43-1.76h-19.48s-.04,67.76-.04,67.76Zm0-103.12h19.17c.76,0,1.54.01,2.33.01,4.15,0,8.76-.14,13.39-.86,12.17-1.9,20.48-6.86,25.42-15.15,5.18-8.7,6.25-18.81,2.95-27.74-3.36-9.08-10.93-16-21.32-19.5-7.85-2.64-15.29-2.64-22.48-2.64h-19.43l-.03,65.89Z"/><path d="m654.59,172.19c-12.93-6.31-29.58-1.9-37.91,10.01-7.36,10.53-9.96,22.1-11.54,32.03-2.16,13.6-2.11,27.42-2.06,43.41v1.24c-.05,12.74-.13,30.18,3.67,47.28,2.54,11.44,6.74,20.03,13.23,27.04,6.45,6.96,16.93,10.46,26.71,8.92,10.03-1.59,18.1-7.98,22.73-17.99,4.98-10.78,6.43-28.74,6.84-37.46h41.07c-.41,20.53-3.72,37.2-10.33,52.17-8.98,20.3-22.97,33.16-41.58,38.23-31.4,8.55-55.97,2.79-75.11-17.59-11.15-11.86-18.73-27.52-23.17-47.86-5.38-24.64-4.64-50.33-3.93-75.18l.11-3.94c.5-17.88,3.3-33.45,8.55-47.59,9.45-25.46,24.3-41.66,45.4-49.51,7.02-2.61,14.79-3.88,23.96-3.88,3.07,0,6.29.14,9.7.43,14.12,1.17,25.52,5.04,34.87,11.85,11.25,8.19,19.19,19.97,24.99,37.06,4.26,12.55,6.34,26.73,6.52,44.57h-40.14c-.37-6.69-1.46-18.84-4.6-28.97-2.8-9.03-7.13-18.97-17.96-24.25Z"/><path d="m754.07,375.98h-13.06v-6.45h.02v-5.08c-.02-7.92-.01-15.83-.01-23.75v-204.17s17.17-.02,17.17-.02c11.42-.06,23.22-.11,34.73.47,34.57,1.77,60.88,17.14,78.21,45.69,8.92,14.69,13.99,31.47,15.5,51.3,1.53,20.11,1.26,36.37-.86,51.16-2.93,20.49-10.4,38.44-22.22,53.34-18.81,23.72-43.32,36.25-72.85,37.24-12.17.41-24.61.34-36.64.27Zm23.93-35.22h15.34v-.18c5.03-.31,10.23-1.15,15.33-3.41,18.18-8.06,29.79-22.88,36.54-46.64,4.09-14.38,3.78-28.97,3.48-43.08l-.03-1.6c-.35-16.8-4.07-31.21-11.38-44.05-11.38-20.01-27.8-30.19-48.8-30.27h-10.48v169.24Z"/><path d="m947.37,171.53v65.12h5.07c35.29,0,193.25-.06,223.65-.07v34.7h-2.38c-6.75,0-184.74-.08-221.27-.09h-5.07s0,69.63,0,69.63h5.07c39.51,0,193.66-.05,223.65-.06v35.21h-265.67v-239.44h265.67v35.07c-30.18,0-186.07-.06-223.65-.07h-5.07Z"/><path d="m1346.65,275.59h-108.57v100.37h-37.08v-239.44h145.65v35.1h-108.57v69.06h108.57v34.92Z"/><path d="m1503.48,168.45c8.42,15.58,12.46,33.66,12.68,56.91h-40.27c-.43-11.27-1.9-20.63-4.44-28.49-2.89-8.95-7.27-18.82-17.8-24.26-13.33-6.89-30.42-2.37-38.92,10.28-7.84,11.67-10.21,24.49-11.4,34.36-2.91,24.1-2.17,47.91-.93,70.06.65,11.64,2.67,21.98,6.18,31.6,6.8,18.64,22.67,27.16,41.42,22.23,11.14-2.93,18.66-10.92,22.97-24.42,1.16-3.62,2.45-11.18,2.99-16.1l.62-5.62h-29.08v-35.36h72.05v.13l.02.42c0,.14.01.28.01.43-.01,1.79-.04,3.58-.08,5.43v.3c-.59,26.89-4.1,47.04-11.38,65.33-8.95,22.47-21.44,36.37-39.31,43.74-10.47,4.31-21.75,5.94-34.49,4.98-19.52-1.47-34.62-8.45-46.17-21.35-8.38-9.36-14.68-20.75-19.25-34.81-6.35-19.53-7.37-39.72-7.54-55.14l-.07-5.25c-.2-15.29-.41-31.11,1.46-46.4,3.76-30.69,12.52-51.52,28.4-67.54,8.13-8.21,18.25-13.66,30.06-16.22,6.69-1.45,13.15-2.17,19.43-2.17,9.93,0,19.4,1.81,28.64,5.45,14.68,5.79,25.86,16.09,34.19,31.5Z"/><path d="m324.15,786.67v-104.7h-59.92v104.7h-37.28v-239.56h37.28v100.17h59.92v-100.17h37.28v239.56h-37.28Z"/><path d="m473.68,582.38v169.12h57.7v35.16h-151.44v-35.16h57.2v-169.12h-57.2v-35.16h151.44v35.16h-57.7Z"/><path d="m538.77,711.78c0-5.38-.02-29.99-.03-40.75h37.41c0,10.74,0,35.21.04,40.49.05,7.56.73,17.44,5.56,26.85,5.26,10.25,15.91,16.12,27.81,15.31,19.96-1.34,26.16-13.51,29.89-26.46,1.81-6.27,2.05-12.63,2.05-18.56-.05-41.75-.04-83.5-.04-125.25v-36.31h36.88c0,25.97,0,143.59,0,162.33,0,18.76-2.99,33.39-9.38,46.03-11.46,22.66-29.82,34.44-56.16,36.02-13.38.8-24.97-.91-35.43-5.22-14.96-6.17-25.64-17.72-32.64-35.32-5.22-13.12-5.94-27.16-5.96-39.17Z"/><path d="m791.16,633.65l68.44,153.12h-45.29l-53-122.78-17.19,22.51v100.17h-36.98v-239.44h36.98v88.11l66.76-88.11h46.29l-66,86.43Z"/><path d="m911.95,547.22v203.98h109.56v35.57h-146.67v-239.55h37.11Z"/><path d="m1135.72,786.77v-190.72l.02-.42-17.85,110.31h-27.8l-17.85-110.31.02.42v190.72h-36.91v-239.55h56.16l12.5,98.52h-.03l12.5-98.52h56.16v239.55h-36.91Z"/><path d="m1293.29,786.74l-52.83-178.3v178.3h-36.72v-239.52h41.35l3.44-.02,53.05,165.33v-165.32h36.72v239.52h-45Z"/><path d="m1521.76,662.78v4.42s0,2.5,0,2.5c.01,17.8.02,34.62-3.75,51.42-5.15,22.93-13.56,39.57-26.47,52.37-10.96,10.86-24.94,16.79-42.73,18.15-12.43.95-24.32-.81-35.36-5.23-14.6-5.84-25.61-16.44-34.66-33.38-9.11-17.06-13.84-36.77-14.89-62.05-.84-20.13-1.28-41.73,1.14-63.34,2.67-23.85,9.54-42.91,21-58.28,13.51-18.12,31.92-26.94,56.25-26.94.54,0,1.09,0,1.64.01,32.61.52,54.86,16.82,68.02,49.82,6.75,16.93,9.79,35.62,9.82,60.61,0,3.31,0,6.62,0,9.93Zm-41.42-33.05c-1.13-11.6-3.42-25.02-11.84-36.6-5.17-7.12-13.55-11.73-22.98-12.67-9.14-.9-17.95,1.86-24.15,7.59-6.89,6.36-11.35,14.77-14.02,26.48-3.33,14.55-3.71,29.11-4.05,41.96-.06,2.39-.12,4.72-.2,6.98v.17c-.04,16.43.39,27.54,1.49,38.33,1.24,12.24,3.08,25.16,10.57,36.77,5.99,9.28,16.15,14.8,27.22,14.8h.2c11.21-.07,21.46-5.77,27.42-15.26,6.92-11.02,8.99-22.92,10.03-32.06,2.78-24.52,2.89-50.25.33-76.49Z"/><path d="m322.82,1111.71c-15.6,5.83-44.32,5.74-53.78,5.71l-5.09-.02v80.03h-37v-239.47h37.32l4.73.02c10.56.04,19.16.2,27.06.48,21.52.78,38.52,6.7,51.99,18.11,13.8,11.68,21.74,26.68,24.29,45.85,2.16,16.29.89,30.76-3.9,44.22-7.73,21.74-22.66,36.48-45.62,45.07Zm7.27-54.61c3.8-8.53,3.74-17.49,3.34-25.93-.8-17.29-13.26-32.02-30.29-35.84-8.81-1.97-20.54-2.12-29.96-2.25-1.41-.02-2.77-.04-4.06-.06l-5.16-.09v89.84l8.62-.07c7.09-.04,15.92-.08,22.15-1.02,17.61-2.66,29.18-10.7,35.37-24.57Z"/><path d="m532.07,1159.39l-1.45,3.07,12.88,12.88-27.79,27.79-10.87-10.87-2.41,1.32c-3.39,1.95-6.99,3.57-10.83,4.88-.09.03-.19.07-.29.1-2.25.76-4.58,1.41-7,1.96-.3.07-.61.12-.91.19-.86.18-1.73.35-2.61.51-.42.07-.84.14-1.27.21-.83.13-1.68.25-2.53.37-.4.05-.79.11-1.19.15-1.23.14-2.48.27-3.75.37,0,0-.02,0-.03,0-.13,0-.26,0-.39.02-12.28.88-24.05-.88-34.97-5.25-9.13-3.65-16.85-9.16-23.57-16.92-4.03-4.65-7.7-10.11-11.09-16.46-3.98-7.46-7.12-15.42-9.49-24.13,0-.01,0-.02,0-.03-1.58-5.82-2.8-11.98-3.71-18.54-.64-4.68-1.13-9.56-1.45-14.67-.09-1.54-.17-3.09-.24-4.68-.84-20.13-1.28-41.73,1.14-63.34,2.67-23.85,9.54-42.91,21-58.28.85-1.14,1.72-2.25,2.62-3.32.47-.56.96-1.09,1.44-1.64.43-.48.84-.98,1.28-1.44.67-.71,1.36-1.39,2.04-2.07.26-.26.52-.53.78-.79.81-.77,1.64-1.5,2.48-2.22.15-.13.3-.28.46-.41.93-.78,1.88-1.52,2.83-2.24.07-.06.15-.12.22-.17,1.02-.76,2.07-1.48,3.13-2.17.01,0,.03-.02.04-.03,5.39-3.5,11.3-6.1,17.76-7.83.03,0,.05-.01.08-.02,1.22-.33,2.46-.62,3.72-.88.09-.02.19-.04.29-.06,1.18-.24,2.38-.45,3.6-.64.19-.03.38-.06.58-.09,1.12-.16,2.25-.3,3.4-.42.32-.03.64-.07.96-.1,1.02-.09,2.05-.16,3.1-.22.49-.03.97-.06,1.46-.08.89-.04,1.79-.05,2.69-.06.43,0,.85-.03,1.28-.03.54,0,1.09,0,1.64.01,32.61.52,54.86,16.82,68.02,49.82,6.75,16.93,9.79,35.62,9.82,60.61,0,3.31,0,6.62,0,9.93v4.42s0,2.5,0,2.5c.01,17.81.02,34.62-3.75,51.42-.31,1.38-.63,2.73-.96,4.06-.09.38-.19.74-.29,1.11-.25.95-.49,1.9-.75,2.82-.12.45-.25.88-.38,1.32-.24.83-.48,1.65-.72,2.45-.15.5-.31.99-.47,1.48-.22.71-.45,1.41-.69,2.1-.2.57-.39,1.14-.59,1.7-.2.56-.4,1.13-.61,1.68-.25.66-.5,1.32-.75,1.97-.16.4-.31.79-.47,1.18-.31.78-.63,1.55-.96,2.31-.08.19-.17.38-.25.57-.42.95-.84,1.9-1.28,2.83Zm-93.7-9.96c.38.58.76,1.14,1.17,1.69,0,0,0,.01.01.02,4.06,5.49,9.66,9.48,16.02,11.53,0,0,0,0,0,0,.57.18,1.14.34,1.72.5.16.04.31.08.47.12.42.1.85.2,1.28.28.3.06.6.12.9.17.29.05.58.09.88.14.42.06.84.12,1.26.16.19.02.39.04.58.05.49.04.98.08,1.48.1.48.02.95.04,1.43.04h.2c3.29-.02,6.5-.54,9.54-1.48l-12.71-12.71,27.79-27.79,10.01,10.01c.68-2.46,1.2-4.87,1.63-7.19l.36-2.19c.35-2.13.62-4.08.83-5.96,2.78-24.52,2.89-50.25.33-76.49-1.13-11.6-3.42-25.02-11.84-36.6-5.17-7.12-13.55-11.73-22.98-12.67-.41-.04-.81-.04-1.22-.06-7.56-.48-14.83,1.51-20.5,5.64-.85.62-1.67,1.29-2.44,2.01-6.89,6.36-11.35,14.77-14.02,26.48-1.2,5.26-2.01,10.53-2.58,15.72-.02.19-.05.38-.07.56-.11,1.02-.19,2.03-.28,3.05-.07.76-.15,1.53-.21,2.29-.03.43-.05.84-.08,1.27-.48,6.62-.66,13.04-.82,19.08-.06,2.38-.12,4.71-.21,7.12-.02,6.9.05,12.85.21,18.25.23,7.45.64,13.82,1.27,20.09,1.09,10.71,2.63,21.94,8.02,32.36.77,1.49,1.62,2.96,2.56,4.41Z"/><path d="m620.92,1106.72c-2.73.35-5.29.53-7.61.53h-5.07v90.31h-36.99v-239.62h37.48l4.56.02c11.18.04,20.26.2,28.59.51,22.2.82,39.58,7.57,53.16,20.63,11.18,10.75,17.56,24.15,19.5,40.95,1.9,16.41.29,29.64-5.06,41.63-7.56,16.96-19.09,28.7-35.25,35.92-.2.09-1.49.63-7.41,2.52l-5.92,1.89,53.75,95.54h-42.88l-47.34-91.31-3.52.46Zm-4.44-34.23c1.49,0,2.98.01,4.47.01,5.64,0,11.18-.09,15.69-.59,9.76-1.08,19.87-3.19,27.67-11.23,9.14-9.41,12.49-21.61,9.95-36.25-2.2-12.64-10.88-23.17-22.66-27.47-10.85-3.97-25-3.96-36.36-3.93h-7.01v79.45l8.24.02Z"/><path d="m728.44,1129.6c-.03-.58-.06-1.13-.09-1.66h42.37l.46,5.4.04.35c3.07,19.47,16.59,30.79,37.09,31.04,8.54.09,20.97-.99,30.17-11.73,5.71-6.66,8.1-15.9,6.56-25.34-1.53-9.41-6.71-17.39-14.21-21.88-8.11-4.86-16.91-7.71-25.42-10.47-1.51-.49-3.02-.98-4.53-1.48-14.9-4.96-28.21-9.72-40.25-17.8-15.47-10.38-23.92-24.33-25.85-42.67-2.18-20.68,1.91-37.9,12.48-52.65,7.71-10.76,18.39-18.52,31.73-23.06,17.26-5.87,35.18-6.47,53.27-1.77,26.5,6.89,43.04,24.08,49.14,51.08,1.21,5.37,1.96,11.17,2.35,18.26l.12,2.35h-41.73l-.37-5.31c-.3-3.32-.83-7.23-2.42-11.04-5.6-13.41-16.48-20.75-31.47-21.24-11.12-.39-20.74,3.66-27.06,11.32-6.31,7.66-8.43,17.84-5.96,28.67,1.62,7.12,6.12,12.72,13.37,16.64,8.81,4.77,18.2,7.91,27.28,10.96,3.8,1.27,7.72,2.59,11.5,3.99,10.45,3.88,22.56,8.85,33.19,16.31,12.54,8.8,20.44,20.97,23.49,36.18,3.17,15.86,2.43,30.12-2.26,43.57-5.96,17.06-17.17,29.27-33.33,36.28-27.39,11.89-55.17,11.57-82.59-.95-18.92-8.64-30.64-23.66-34.86-44.63-.99-4.92-1.67-9.76-2.01-14.3l-.24-4.44Z"/><path d="m1050.73,993.08h-60.56v204.35h-36.87v-204.35h-61.03v-35.09h158.45v35.09Z"/><path d="m1062.72,1124.59c.04-23.12,0-140.63,0-166.61h36.92l.02,164.74c0,7.96.56,17.24,4.76,25.82,5.57,10.98,13.45,15.88,25.53,15.88,15.22,0,24.92-9.03,28.83-26.83,1.75-8,1.75-16.29,1.74-22.94-.03-35.79-.02-133.31-.02-156.66h36.69c0,24.54-.02,131.25-.29,171.28-.11,16.79-4.44,32.09-12.86,45.47-10.29,16.35-24.66,25.22-43.92,27.13-16.88,1.67-30.09-.3-41.59-6.2-15.1-7.75-25.29-20.48-31.17-38.92-3.15-9.87-4.66-20.38-4.65-32.14Z"/><path d="m1382.5,957.98l-53.46,239.51h-63.65l-53.46-239.51h42.39l42.89,211.49,42.89-211.49h42.39Z"/><path d="m1555.85,957.94l-11.41,239.57h-55.23l-14.11-152.77h.02l-14.1,152.77h-55.24l-11.41-239.57h38.63l2.92,210.98v.17s18.38-158.88,18.38-158.88h41.62l18.39,158.88v-.17s2.91-210.98,2.91-210.98h38.63Z"/><path d="m312.18,1487.49l59.17,120.73h-40.88l-38.33-88.4-38.33,88.4h-40.88l59.17-120.73-59.18-118.85h41.16l38.06,87.63,38.05-87.63h41.17l-59.19,118.85Z"/><path d="m538.84,1368.68l-65.92,163.17v76.36h-36.65v-76.36l-65.92-163.17h40.85l43.39,115.57,43.39-115.57h40.85Z"/><path d="m637.5,1403.89h-94.17v-35.21h132.93v38.94l-93.92,165.3h93.92v35.21h-134.44v-38.92l95.68-165.32Z"/><path d="m828.39,1608.28v-37.1h-72.77l-15.37,37.1h-41.33l100.51-239.47h294.63v35.11h-228.77v64.97h228.77v34.55h-228.77v69.57h228.77v35.27h-265.66Zm0-74.35v-137.52l-54.32,130.47,4.67,1.94-4.67-1.93-2.96,7.04h57.29Z"/><path d="m1309.16,1608.28h-16.83l-15.88-23.21-1.57,2.02c-2.21,2.84-4.58,5.52-7.04,7.96-10.96,10.86-24.93,16.79-42.73,18.15-12.42.94-24.32-.82-35.37-5.23-14.6-5.84-25.61-16.44-34.66-33.38-9.11-17.05-13.84-36.77-14.89-62.05-.84-20.13-1.28-41.73,1.14-63.34,1.91-17.04,5.9-31.38,12.14-43.82l-25.02-36.56h16.83l16.05,23.44,1.58-2.07c13.78-18.04,32.58-26.66,57.31-26.21,32.61.52,54.86,16.82,68.02,49.82,6.75,16.93,9.79,35.62,9.82,60.61,0,3.31,0,6.62,0,9.93v4.42s0,2.5,0,2.5c.01,17.81.02,34.62-3.75,51.42-2.53,11.25-5.81,20.83-10.01,29.28l24.86,36.33Zm-57.54-59.49l-70.03-102.33-.73,7.39c-.84,8.55-1.07,17.01-1.27,24.47-.06,2.29-.12,4.53-.2,6.86-.04,16.42.39,27.53,1.49,38.33,1.24,12.24,3.08,25.16,10.57,36.77,5.99,9.28,16.15,14.8,27.21,14.8h.2c11.21-.07,21.46-5.77,27.42-15.26,2.12-3.37,3.86-7.02,5.34-11.04Zm-65.7-120.59l70.1,102.43.73-7.37c2.31-23.23,2.27-47.45-.12-71.98-1.13-11.6-3.42-25.02-11.84-36.6-5.17-7.12-13.55-11.73-22.98-12.67-9.15-.91-17.95,1.86-24.16,7.58-5.2,4.79-9.05,10.91-11.74,18.6Z"/><path d="m1513.84,1608.29h-42.28l-7.1-37.14h-72.88s-6.68,37.25-6.68,37.25h-41.52l51.36-239.41h16.86c-10.85-5.87-18.24-17.35-18.24-30.53,0-19.13,15.56-34.69,34.69-34.69s34.69,15.56,34.69,34.69c0,13.18-7.39,24.66-18.24,30.53h16.83c6.27,28.59,44.26,201.79,52.5,239.3Zm-115.1-74.23h58.65l-1.15-6.02c-.82-4.29-1.73-9.16-2.58-13.63-.91-4.84-1.73-9.21-2.25-11.87-2.72-14.08-7.35-37.73-11.41-58.09-2.23-11.17-6.74-33.05-8.04-39.29h-9.38l-.38,2.08c-3.51,19.12-7.86,42.53-12.22,66.05-3.51,18.91-7.03,37.9-10.15,54.79l-1.1,5.99h0Zm18.28-195.6c0,6.08,4.95,11.03,11.03,11.03s11.03-4.95,11.03-11.03-4.95-11.03-11.03-11.03-11.03,4.95-11.03,11.03Z"/></svg>