<?xml version="1.0" encoding="UTF-8"?><svg id="Layer_1" xmlns="http://www.w3.org/2000/svg" viewBox="0 0 2441.83 1526.76"><defs><style>.cls-1{fill:#f4d7b5;}.cls-2{fill:#f8f8f8;}.cls-3{fill:#f4e930;}.cls-4{fill:#e87545;}.cls-5{fill:#eebf8a;}.cls-6{fill:#f81810;}.cls-7{fill:#fff8f7;}.cls-8{fill:#eb9c66;}.cls-9{fill:#fbefe2;}.cls-10{fill:#f18289;}.cls-11{fill:#7e4a46;}.cls-12{fill:#824426;}.cls-13{fill:#9a5d39;}.cls-14{fill:#9d9c92;}.cls-15{fill:#a6415d;}.cls-16{fill:#c0a192;}.cls-17{fill:#d13835;}.cls-18{fill:#e0d0c9;}.cls-19{fill:#e30613;}.cls-20{fill:#107d06;}.cls-21{fill:#222;}.cls-22{fill:#4354a1;}.cls-23{fill:#434342;}.cls-24{fill:#0aadff;}.cls-25{fill:#70bd00;}.cls-26{fill:#968a7b;}.cls-27{fill:#877bf9;}.cls-28{fill:#775d93;}.cls-29{fill:#ed480d;stroke:#222;stroke-miterlimit:10;stroke-width:10px;}</style></defs><rect class="cls-27" x="-3.51" width="2445.33" height="1526.76"/><rect class="cls-20" x="251.05" y="1129.77" width="81.05" height="571.91"/><polygon class="cls-25" points="240.42 1701.68 159.37 1701.68 159.37 1047.58 304.71 1047.58 320.69 1119.5 240.42 1122.6 240.42 1701.68"/><rect class="cls-20" x="623.78" y="1364.37" width="81.05" height="571.91"/><polygon class="cls-25" points="613.15 1936.28 532.1 1936.28 532.1 1282.18 677.44 1282.18 693.42 1354.09 613.15 1357.2 613.15 1936.28"/><rect class="cls-20" x="942.07" y="1267.13" width="81.05" height="571.91"/><polygon class="cls-25" points="931.44 1839.04 850.39 1839.04 850.39 1184.94 995.73 1184.94 1011.71 1256.86 931.44 1259.96 931.44 1839.04"/><rect class="cls-20" x="1282.89" y="1148.93" width="81.05" height="571.91"/><polygon class="cls-25" points="1272.25 1720.84 1191.2 1720.84 1191.2 1066.74 1336.54 1066.74 1352.52 1138.65 1272.25 1141.76 1272.25 1720.84"/><path class="cls-21" d="m305.16,3138.79h34.6V1083.01l-.02.02c.06-18.87-6.56-34.82-22.16-46.46-13.79-10.29-29.72-14.94-46.49-16.82-16.3-1.83-32.7-1.58-49.07-.89-17.14.71-33.81,3.66-49.16,11.85-12.2,6.52-22.04,15.3-27.32,28.51-3.08,7.71-4.49,15.67-4.45,23.81l-.02-.02v2055.77h34.71l-.05-2001.88,49.51,6.5c-.01,47.08-.06,1995.38-.06,1995.38h34.32s-.04-1947-.05-1995.38l45.77-6.4-.05,2001.78Zm-117.43-2073.55c8.09-5.22,17.24-6.56,26.43-7.49,8.89-.9,17.84-1.15,28.94-1.12,10.86.38,23.92.23,36.72,3.16,6.94,1.59,13.34,4.22,18.28,9.58,7.81,8.46,6,23.53-3.32,30.31-7.84,5.7-16.88,7.44-26.11,8.34-19.23,1.87-38.51,1.93-57.73-.25-8.04-.91-15.85-2.67-22.91-7.1-13.01-8.17-13.18-27.11-.31-35.42Z"/><path class="cls-21" d="m1337.94,3154.6h34.6V1098.82l-.02.02c.06-18.87-6.56-34.82-22.16-46.46-13.79-10.29-29.72-14.94-46.49-16.82-16.3-1.83-32.7-1.58-49.07-.89-17.14.71-33.81,3.66-49.16,11.85-12.2,6.52-22.04,15.3-27.32,28.51-3.08,7.71-4.49,15.67-4.45,23.81l-.02-.02v2055.77h34.71l-.05-2001.88,49.51,6.5c-.01,47.08-.06,1995.38-.06,1995.38h34.32s-.04-1947-.05-1995.38l45.77-6.4-.05,2001.78Zm-117.43-2073.55c8.09-5.22,17.24-6.56,26.43-7.49,8.89-.9,17.84-1.15,28.94-1.12,10.86.38,23.92.23,36.72,3.16,6.94,1.59,13.34,4.22,18.28,9.58,7.81,8.46,6,23.53-3.32,30.31-7.84,5.7-16.88,7.44-26.11,8.34-19.23,1.87-38.51,1.93-57.73-.25-8.04-.91-15.85-2.67-22.91-7.1-13.01-8.17-13.18-27.11-.31-35.42Z"/><path class="cls-21" d="m683.21,3377.62h34.6V1321.84l-.02.02c.06-18.87-6.56-34.82-22.16-46.46-13.79-10.29-29.72-14.94-46.49-16.82-16.3-1.83-32.7-1.58-49.07-.89-17.14.71-33.81,3.66-49.16,11.85-12.2,6.52-22.04,15.3-27.32,28.51-3.08,7.71-4.49,15.67-4.45,23.81l-.02-.02v2055.77h34.71l-.05-2001.88,49.51,6.5c-.01,47.08-.06,1995.38-.06,1995.38h34.32s-.04-1947-.05-1995.38l45.77-6.4-.05,2001.78Zm-117.43-2073.55c8.09-5.22,17.24-6.56,26.43-7.49,8.89-.9,17.84-1.15,28.94-1.12,10.86.38,23.92.23,36.72,3.16,6.94,1.59,13.34,4.22,18.28,9.58,7.81,8.46,6,23.53-3.32,30.31-7.84,5.7-16.88,7.44-26.11,8.34-19.23,1.87-38.51,1.93-57.73-.25-8.04-.91-15.85-2.67-22.91-7.1-13.01-8.17-13.18-27.11-.31-35.42Z"/><path class="cls-21" d="m1001.32,3274.12h34.6V1218.35l-.02.02c.06-18.87-6.56-34.82-22.16-46.46-13.79-10.29-29.72-14.94-46.49-16.82-16.3-1.83-32.7-1.58-49.07-.89-17.14.71-33.81,3.66-49.16,11.85-12.2,6.52-22.04,15.3-27.32,28.51-3.08,7.71-4.49,15.67-4.45,23.81l-.02-.02v2055.77h34.71l-.05-2001.88,49.51,6.5c-.01,47.08-.06,1995.38-.06,1995.38h34.32s-.04-1947-.05-1995.38l45.77-6.4-.05,2001.78Zm-117.43-2073.55c8.09-5.22,17.24-6.56,26.43-7.49,8.89-.9,17.84-1.15,28.94-1.12,10.86.38,23.92.23,36.72,3.16,6.94,1.59,13.34,4.22,18.28,9.58,7.81,8.46,6,23.53-3.32,30.31-7.84,5.7-16.88,7.44-26.11,8.34-19.23,1.87-38.51,1.93-57.73-.25-8.04-.91-15.85-2.67-22.91-7.1-13.01-8.17-13.18-27.11-.31-35.42Z"/><g id="_4m7oVZ"><path class="cls-5" d="m899.44,685.1c9.15,0,18.3,0,27.46.01.36,0,.72.05,1.08.08.02.74.04,1.47.06,2.21.01,1.54.02,3.08.03,4.63,0,.96-.02,1.92,0,2.87,0,.59.06,1.18.09,1.76,0,.68,0,1.35,0,2.03-.01.02-.04.03-.04.04,0,.04.03.07.04.1,0,.16.02.33.03.49.04.02.08.03.12.05,5,0,10.01,0,15.01,0,.04.03.08.07.12.1,0,.26.02.51.02.77,0,4.46,0,8.92,0,13.38-.23.08-.46.22-.7.22-5.01.01-10.01,0-15.02,0h-.87c0,.29,0,.54,0,.79,0,4.17-.02,8.34.02,12.51,0,.67-.21.82-.84.81-2.99-.03-5.99-.01-8.98-.01h-3.53v-14.1h-14.12v-28.76Z"/><path class="cls-22" d="m1065.07,699.62c9.14,0,18.29,0,27.43,0,0,.28.02.56.02.83,0,12.27,0,24.55,0,36.82,0,.28.02.56.02.83.01.3-.07.5-.43.46-.17-.02-.34,0-.51,0-17.86,0-35.72.01-53.59.02-.25,0-.5,0-.81,0v12.51h-.87c-26.5,0-53.01,0-79.51,0-.26,0-.51.01-.77.02-.26,0-.51-.01-.77-.02,0-3.64,0-7.27,0-10.91,4.53,0,9.07-.01,13.6-.02.03-.04.07-.08.1-.11,0-4.28,0-8.56,0-12.83.01-.04.03-.08.04-.12.21,0,.42-.01.62-.02.94.04,1.88.08,2.82.12,1.76,0,3.52,0,5.28,0,.85,0,1.71.01,2.56.02,1.03,0,2.06,0,3.09,0h0c.04-.25.11-.49.11-.73.01-4.33.01-8.67.02-13,.03-.01.07-.02.11-.02,1.59,0,3.18,0,4.77,0,1.62-.04,3.24-.08,4.87-.12.83,0,1.66.02,2.49,0,.46,0,.91-.07,1.37-.11h0c.04-.2.11-.4.11-.61,0-8.72,0-17.44,0-26.16,0-.2-.08-.39-.13-.59-.04-.01-.08-.03-.12-.04-.25-.03-.5-.08-.75-.08-4.58,0-9.15,0-13.73,0,0-4.23-.01-8.46-.02-12.69.04-.02.08-.04.12-.05,3.59.01,7.19.02,10.78.03,1.37,0,2.74.03,4.1.04,0,3.89,0,7.79.01,11.68,0,.24.09.47.14.71h12.09v14.16h.64c13.15,0,26.3,0,39.45,0,.19,0,.38-.02.58-.03.16.01.32.02.48.03,0,.3.02.6.03.89,0,4.22.02,8.45.02,12.67.19.05.38.14.58.14,4.31,0,8.61,0,12.92,0,.19,0,.39-.09.58-.14,0-2.56,0-5.13.02-7.69,0-1.96.02-3.93.03-5.89Zm-55.27,26.46c.21.03.41.09.62.09,4.28,0,8.55,0,12.83,0,.21,0,.41-.06.62-.09.03-.19.09-.37.09-.56,0-4.19,0-8.37,0-12.56,0-.19-.06-.37-.09-.56-.21-.03-.41-.09-.62-.09-4.28,0-8.55,0-12.83,0-.21,0-.41.06-.62.09-.03.19-.09.37-.09.56,0,4.19,0,8.37,0,12.56,0,.19.06.37.09.56Z"/><path class="cls-19" d="m1086.22,605.36c1.73.01,3.46.02,5.2.04,4.17.03,8.34.06,12.51.09.13,0,.25.01.42.02v41.86h-13.48v23.56h-14.8v14.45h-11.67s-.04-.09-.05-.13c-.21-.05-.42-.13-.64-.13-2.77,0-5.54,0-8.32,0-1.58,0-3.15.02-4.73.03-.04-.01-.09-.03-.13-.04,0-3.93,0-7.86-.01-11.79.04-.02.07-.04.11-.06,1.22,0,2.43,0,3.65,0l.04.02h.04c1.51,0,3.03,0,4.54.03,1.44.03,2.89.09,4.33.12.43,0,.87-.07,1.3-.11.03-.05.06-.1.08-.14,0-4.02,0-8.04,0-12.06.02-.04.03-.08.05-.12,4.11,0,8.23-.01,12.34-.03.25,0,.49-.06.74-.1.25,0,.5-.01.76-.02.05-.24.14-.48.14-.71.01-4.46.01-8.92.02-13.38,4.12,0,8.24,0,12.36-.02.24,0,.47-.09.71-.14v-13.07c-.19-.05-.39-.13-.58-.14-1.07-.01-2.14,0-3.21,0-3.36,0-6.71.02-10.07.03l-.02-.02c0-.62.03-1.23.01-1.85-.02-.67-.07-1.34-.1-2.02-.01-1.71-.02-3.42-.04-5.13,0-.05,0-.09,0-.14,0-1.62-.01-3.25-.02-4.87-.03-.08-.06-.15-.08-.23-.26,0-.51-.03-.77-.03-4.42,0-8.85,0-13.27,0v-13.45h-13.67c0-.39,0-.78-.01-1.17-.24-.05-.48-.13-.71-.13-4.04-.01-8.07-.02-12.11-.02-.18-.04-.36-.11-.54-.11-4.78,0-9.57,0-14.35,0-.17,0-.34.09-.51.14v-.02c-8.06,0-16.12,0-24.18.01-.25,0-.5.06-.74.1-.03,0-.06,0-.09.01.07-.61-.37-.49-.72-.49-8.68,0-17.37,0-26.05,0-4.56,0-9.11,0-13.67-.01v-12.83h12.47v-11.27h68.19s.06.08.06.12c.07,2.83.14,5.67.2,8.5.01.59-.06,1.18-.05,1.77,0,.39.09.78.14,1.14,3.52,0,6.96,0,10.4,0,2.48,0,4.96-.02,7.44-.03,4.34-.02,8.68-.03,13.02-.05,3.14-.01,6.28-.02,9.43-.03.06,3.5.11,6.99.17,10.49.03.86.06,1.72.09,2.58.03.31.06.62.09.92.14.03.28.1.42.1,1.12,0,2.24,0,3.36,0,1.54,0,3.07,0,4.61,0Z"/><path class="cls-5" d="m996.64,604.47s.06,0,.09-.01c.28,0,.55.03.83.03,8.02,0,16.05,0,24.07,0,0,.23.02.47.02.7,0,9.21,0,18.43.01,27.64.24.05.48.13.72.14,4.4,0,8.8.02,13.2,0,.55,0,.73.12.72.7-.03,3.72-.02,7.43,0,11.15,0,.25.06.5.1.74,0,.08,0,.17-.01.25-4.21,0-8.42,0-12.63-.01-.41,0-.61.11-.55.54-.04.02-.08.04-.12.07-.55.02-1.1.05-1.66.07,0,4.83,0,9.66-.01,14.49.22.05.43.13.65.13,5.69,0,11.38,0,17.07-.01.21,0,.41-.06.62-.1.34,0,.68-.02,1.02-.02,2.83,0,5.66-.01,8.48-.02,3.16,0,6.33,0,9.49,0,1.93,0,3.86.01,5.79.02.03.04.07.08.1.12,0,4.02,0,8.04,0,12.06-.03.05-.06.1-.08.14-.43.04-.87.11-1.3.11-1.44-.02-2.89-.09-4.33-.12-1.51-.03-3.03-.03-4.54-.04,0,0-.04-.04-.04-.04l-.04.04c-1.22,0-2.43,0-3.65,0-.12,0-.24,0-.36,0-4.19-.01-8.38-.02-12.57-.03-.05-.01-.1-.03-.15-.04-.46,0-.93,0-1.39,0-.05,0-.11,0-.16,0-2.26,0-4.52.01-6.78.02-.28,0-.55-.03-.83-.03-2.55,0-5.1-.01-7.65-.02-.04,0-.09,0-.13-.01-2.74,0-5.47,0-8.21,0-.05-.03-.09-.06-.14-.08-2.79,0-5.57.01-8.36.02-2.09,0-4.19,0-6.28.01-.04,0-.09,0-.13,0-1.37-.02-2.74-.04-4.1-.04-3.59-.02-7.19-.02-10.78-.03-.05-.02-.1-.05-.15-.07-.04.03-.08.06-.12.08-1.23,0-2.47,0-3.7,0-.25-.03-.49-.09-.74-.09-3.13-.01-6.27-.01-9.4-.02,0-.17-.01-.34-.02-.51,0-4.91,0-9.83,0-14.74,0-3.8,0-7.6-.01-11.4,0-.33.03-.59.4-.66.18.04.36.11.54.11,9.06,0,18.13,0,27.19,0,.04-.11.12-.23.12-.34,0-4.21,0-8.42-.01-12.63v-.61h-14c-.04-.09-.11-.19-.11-.28,0-4.23,0-8.46,0-12.69,0-.13.17-.27.26-.4h13.84v-.61c0-4.01.02-8.03.02-12.04,0-.1-.06-.2-.09-.29,0-.44,0-.87,0-1.31Z"/><path class="cls-19" d="m978.66,673c1.23,0,2.47,0,3.7,0,.03.02.07.03.11.02l.04.02c0,4.23.01,8.46.02,12.69.22.04.43.12.65.12,3.39,0,6.79,0,10.18,0,1.22,0,2.43-.02,3.65-.03.04.01.08.03.12.04,0,1.13,0,2.26,0,3.39,0,7.98,0,15.97.01,23.95,0,0,0,0,0,0-.49,0-.98-.01-1.47,0-.8.03-1.6.07-2.4.11-1.62.04-3.24.08-4.87.12-.56-.04-1.12-.11-1.68-.1-1.03.01-2.06.07-3.09.11-.04,0-.07.01-.11.02-.05.15-.14.3-.14.45,0,4.43,0,8.85,0,13.28,0,0,0,0,0,0-1.03,0-2.06,0-3.09,0-.85,0-1.71-.01-2.56-.02-.16-.03-.32-.09-.48-.1-1.42-.01-2.84-.02-4.26-.02-.18,0-.36.07-.54.1-.94-.04-1.88-.08-2.82-.12-.04-.43-.08-.85-.13-1.28,0-.04,0-.08-.02-.12v-12.25c-.1-.03-.13-.06-.17-.06-4.57,0-9.14,0-13.71,0-.14,0-.28.17-.42.25-3.87,0-7.74,0-11.62-.01,0-4.5,0-9.01,0-13.51,0-.24-.09-.48-.13-.72-.04-.01-.08,0-.12.02-5,0-10.01,0-15.01,0-.04-.02-.08-.03-.12-.05,0-.16-.02-.33-.03-.49,0-.05,0-.1,0-.15,0-.68,0-1.35,0-2.03,0-1.04.02-2.09,0-3.13,0-.5-.06-1.01-.1-1.51-.01-1.54-.02-3.08-.03-4.63,0-.73-.01-1.46-.02-2.19,0-3.97.01-7.95.02-11.92,0-.28,0-.55,0-.87.19-.02.35-.04.51-.04,13.19,0,26.37,0,39.56,0,.13,0,.26,0,.38.02,0,.17.01.34.02.51.54.04,1.08.12,1.62.12,2.84,0,5.68,0,8.52-.01Z"/><path class="cls-12" d="m996.64,604.47c0,.44,0,.87,0,1.31,0,4.1-.02,8.21-.02,12.31h-13.71c-.01.26-.02.45-.03.64-.09.13-.26.27-.26.4-.01,4.23-.01,8.46,0,12.69,0,.09.07.19.11.28.01.16.03.32.06.65h13.8c0,4.26.01,8.52.02,12.78-.26,0-.51.01-.77.01-8.73,0-17.46,0-26.19,0-.26,0-.51.02-.77.04-.38.08-.4.34-.4.66.01,3.8,0,7.6.01,11.4-8.32,0-16.64,0-24.99,0v-40.22c4.31,0,8.62,0,12.93,0,0,8.72,0,17.43,0,26.15,0,.28.02.55.03.83.07.04.13.12.2.12,1.55,0,3.11-.03,4.66-.05,2.29,0,4.59,0,6.88-.02.18,0,.36-.2.54-.31.09-.25.27-.49.27-.74.01-8.55.01-17.1.01-25.64,0-.22,0-.45,0-.69h-12.6c-.04-.25-.11-.49-.12-.74-.06-2.87-.1-5.74-.16-8.62-.02-1.06-.08-2.12-.1-3.18,0-.19.09-.38.14-.57,4.56,0,9.11,0,13.67.01,8.68,0,17.37,0,26.05,0,.34,0,.79-.12.72.49Z"/><path class="cls-12" d="m969.53,725.78c.04.43.08.85.13,1.28-.21,0-.42.01-.62.02-.02,0-.06.01-.06.02,0,.03,0,.07.01.1,0,4.28,0,8.56,0,12.83-.03.04-.07.08-.1.11-4.53,0-9.07.01-13.6.02-.05.2-.13.39-.13.59,0,3.24,0,6.48,0,9.73,0,.2.09.39.13.59.26,0,.51.01.77.02,0,1.41,0,2.82,0,4.31h-13.15v17.06h-27.37v-31.58h13.99v-15.11c.21-.02.33-.05.46-.05,8.41,0,16.81,0,25.22,0,.07.01.14.03.21.04,4.71,0,9.42,0,14.13,0Z"/><path class="cls-12" d="m1092.55,738.1c0-.28-.02-.56-.02-.83,0-12.27,0-24.55,0-36.82,0-.28-.01-.56-.02-.83,0-4.57,0-9.14,0-13.77h13.05v-13.17h11.19v65.42h-24.2Z"/><path class="cls-5" d="m1086.22,605.36c-1.54,0-3.07,0-4.61,0-.12-.04-.23-.11-.35-.11-1.14,0-2.28.01-3.42.02-.03-.31-.06-.62-.09-.92-.03-.86-.06-1.72-.09-2.58-.06-3.5-.11-6.99-.17-10.49-.23-.06-.46-.16-.69-.16-4.06,0-8.13,0-12.19,0-.25,0-.51,0-.81,0v-10.98h40.33v25.11h-.76c-5.47,0-10.95,0-16.42,0-.24,0-.49.07-.73.11Z"/><path class="cls-22" d="m1036.17,673.18c.46,0,.93,0,1.39,0,.05.01.1.03.15.04,4.19.01,8.38.02,12.57.03.04.02.08.03.12.05,0,3.69,0,7.38.01,11.07,0,.24.08.48.13.72.04.01.09.03.13.04.25.03.5.08.75.09,4.31.01,8.62.01,12.93.02.02.04.04.09.05.13,0,4.53,0,9.06-.01,13.6,0,0,0,0,0,0-4.61,0-9.23,0-13.84,0,0-4.25,0-8.5-.02-12.74,0-.24-.09-.48-.13-.72-4.79,0-9.58,0-14.37,0h0c0-4.07,0-8.14,0-12.22.04-.03.09-.06.13-.09Z"/><path class="cls-5" d="m956.43,617.07h12.6c0,.24,0,.46,0,.69,0,8.55,0,17.1-.01,25.64,0,.25-.18.49-.27.74-2.72.05-5.44.09-8.16.14-.1,0-.19.07-.29.1-1.28,0-2.55,0-3.83,0-.01-.28-.03-.55-.03-.83,0-8.72,0-17.43,0-26.15,0-.12,0-.23,0-.35Z"/><path class="cls-3" d="m1050.9,699.63c-.16-.01-.32-.02-.48-.03.01-.17.02-.34.03-.51,4.49,0,8.98,0,13.48,0,.15,0,.31-.08.46-.13,0,0,0,0,0,0,.19,0,.38.02.63.03.02.21.04.41.06.61-.01,1.96-.02,3.93-.03,5.89,0,2.56-.01,5.13-.02,7.69-1.75,0-3.51.02-5.26.01-2.91,0-5.81-.02-8.72-.03,0-4.28,0-8.56,0-12.85,0-.24-.09-.47-.14-.71Z"/><path class="cls-22" d="m955.41,725.78c-.07-.01-.14-.03-.21-.04,0-4.04.01-8.09.02-12.13.14-.09.28-.25.42-.25,4.57-.01,9.14,0,13.71,0,.04,0,.08.03.17.06,0,4.07,0,8.16,0,12.25-4.46,0-8.91,0-13.37,0-.25,0-.49.07-.74.11Z"/><path class="cls-17" d="m943.46,699.36c.05.24.13.48.13.72,0,4.5,0,9.01,0,13.51-.04.03-.08.04-.12.03,0-4.46,0-8.92,0-13.38,0-.26-.01-.51-.02-.77.01-.04.01-.08,0-.12Z"/><path class="cls-1" d="m928.02,685.21c0,.73.01,1.46.02,2.19-.02-.74-.04-1.47-.06-2.21,0,0,.05.02.05.02Z"/><path class="cls-4" d="m928.08,692.03c.03.5.09,1,.1,1.51.01,1.04,0,2.09,0,3.13-.03-.59-.09-1.18-.09-1.76-.01-.96,0-1.92,0-2.87Z"/><path class="cls-8" d="m943.46,699.36s0,.08,0,.12c-.04-.03-.08-.07-.12-.1.04-.02.08-.03.12-.02Z"/><path class="cls-8" d="m928.21,699.33s.08.03.12.05c-.04-.02-.08-.03-.12-.05Z"/><path class="cls-4" d="m928.18,698.7s0,.1,0,.15c-.01-.03-.03-.07-.04-.1,0-.01.02-.03.04-.04Z"/><path class="cls-19" d="m1050.45,699.08c-.01.17-.02.34-.03.51-.19,0-.38.03-.58.03-13.15,0-26.3,0-39.45,0h-.64v-14.16c-4.07,0-8.08,0-12.09,0,0-4.1,0-8.2,0-12.29,2.09,0,4.19-.02,6.28-.02,2.78,0,5.57-.01,8.35-.02h.06s.06-.01.06-.01c2.74,0,5.47,0,8.21,0,.04,0,.09,0,.13.01,2.55,0,5.1.01,7.65.02.28,0,.55.02.83.03.23.03.45.1.68.1,1.75,0,3.5,0,5.25,0,.23,0,.45.02.75.03v.81c0,3.54,0,7.08,0,10.63,0,.24.08.48.12.72,0,0,0,0,0,0,.24.04.48.12.72.13,4.55,0,9.09,0,13.64,0,0,3.07.01,6.13.02,9.2,0,1.38.02,2.77.03,4.15-.02.04-.02.08,0,.12Z"/><path class="cls-15" d="m997.14,713.22c0-7.98,0-15.97-.01-23.95,0-1.13,0-2.26,0-3.39.04.2.13.39.13.59,0,8.72,0,17.44,0,26.16,0,.2-.07.4-.11.6Z"/><path class="cls-28" d="m997,685.83c-1.22.01-2.43.03-3.65.03-3.39,0-6.79,0-10.18,0-.22,0-.43-.08-.65-.12,4.58,0,9.15,0,13.73,0,.25,0,.5.06.75.08Z"/><path class="cls-14" d="m1051.05,713.18c2.91,0,5.81.02,8.72.03,1.75,0,3.51,0,5.26-.01-.19.05-.39.14-.58.14-4.31,0-8.61,0-12.92,0-.19,0-.38-.09-.58-.14,0,0,.05,0,.05,0h.05Z"/><path class="cls-14" d="m1009.81,712.41c.21-.03.41-.09.62-.09,4.28,0,8.55,0,12.83,0,.21,0,.41.06.62.09-.02.02-.03.03-.05.05h-13.96s-.03-.03-.05-.05Z"/><path class="cls-14" d="m1023.87,726.08c-.21.03-.41.09-.62.09-4.28,0-8.55,0-12.83,0-.21,0-.41-.06-.62-.09.02-.02.03-.03.05-.05,4.65,0,9.31,0,13.96,0,.02.02.03.03.05.05Z"/><path class="cls-15" d="m983.41,727.21c0-4.43,0-8.85,0-13.28,0-.15.09-.3.14-.45,0,4.33,0,8.67-.02,13,0,.24-.07.49-.11.73Z"/><path class="cls-5" d="m1051.05,713.18h-.05s-.05,0-.05,0c0-4.22-.01-8.45-.02-12.67,0-.3-.02-.6-.03-.89.05.24.14.47.14.71,0,4.28,0,8.56,0,12.85Z"/><path class="cls-14" d="m1009.81,726.08c-.03-.19-.09-.37-.09-.56,0-4.19,0-8.37,0-12.56,0-.19.06-.37.09-.56.02.01.03.03.05.05,0,4.53,0,9.05,0,13.58-.02.02-.03.03-.05.05Z"/><path class="cls-14" d="m1023.87,712.41c.03.19.09.37.09.56,0,4.19,0,8.37,0,12.56,0,.19-.06.37-.09.56-.02-.01-.03-.03-.05-.05,0-4.53,0-9.05,0-13.58.02-.02.03-.03.05-.05Z"/><path class="cls-15" d="m997.66,673.17c0,4.1,0,8.2,0,12.29-.05-.24-.13-.47-.14-.71-.01-3.89-.01-7.79-.01-11.68.04,0,.09,0,.13,0,0,.04,0,.07.02.11Z"/><path class="cls-11" d="m955.29,751.08c-.05-.2-.13-.39-.13-.59,0-3.24,0-6.48,0-9.73,0-.2.09-.39.13-.59,0,3.64,0,7.27,0,10.91Z"/><path class="cls-15" d="m972.48,727.18c.18-.04.36-.1.54-.1,1.42,0,2.84,0,4.26.02.16,0,.32.06.48.1-1.76,0-3.52,0-5.28,0Z"/><path class="cls-15" d="m983.64,713.45c1.03-.04,2.06-.1,3.09-.11.56,0,1.12.07,1.68.1-1.59,0-3.18,0-4.77,0Z"/><path class="cls-15" d="m993.28,713.33c.8-.04,1.6-.08,2.4-.11.49-.02.98,0,1.47,0-.46.04-.91.11-1.37.11-.83.02-1.66,0-2.49,0Z"/><path class="cls-15" d="m980.32,727.21c1.03,0,2.06,0,3.09,0-1.03,0-2.06,0-3.09,0Z"/><path class="cls-16" d="m982.48,672.93c.05.02.1.05.15.07-.04.02-.08.04-.12.05,0,0-.04-.02-.04-.02.01-.04.01-.07,0-.11Z"/><path class="cls-11" d="m968.99,727.2s-.02-.07-.01-.1c0,0,.04-.01.06-.02-.01.04-.03.08-.04.12Z"/><path class="cls-11" d="m968.89,740.15s.07-.08.1-.11c-.03.04-.07.08-.1.11Z"/><path d="m1021.66,632.84c0-9.21,0-18.43-.01-27.64,0-.23-.01-.47-.02-.7,0-.05.01-.1.02-.14,0,0,0,.02,0,.02,5.09,0,10.18,0,15.27,0,0,9.05,0,18.1,0,27.15,0,.24.08.47.12.71.04.01.08.03.12.04.23.02.46.07.69.07,3.76,0,7.52,0,11.27.01.23,0,.46.17.7.26,0,.05.02.08.05.11,0,2.69-.02,5.37-.02,8.06,0,1.81.02,3.62.03,5.43.22.04.43.12.65.12,3.1,0,6.2,0,9.3,0,6.22,0,12.45,0,18.67.01.01.09.03.17.04.26-.02.04-.02.08,0,.12,0,.28-.02.55-.02.83,0,4.42-.01,8.85-.02,13.27-.25,0-.5.01-.76.02-4.37,0-8.73,0-13.1,0-1.97,0-3.93,0-5.9,0-3.07,0-6.15-.02-9.22-.02-.09,0-.19.07-.28.1-2.83,0-5.66.01-8.48.02-.34,0-.68.01-1.02.02-.26,0-.51-.02-.77-.02-5.86,0-11.71,0-17.57,0,0-4.83,0-9.66.01-14.49.55-.02,1.1-.05,1.66-.07.04-.02.08-.04.12-.07h13.18v-.52c0-.08,0-.17.01-.25,0-4.19,0-8.38,0-12.56,0-.03-.04-.07-.1-.16h-14.63Z"/><path class="cls-5" d="m1037.18,632.27s-.08-.03-.12-.04c0-1.45,0-2.9,0-4.35,0-7.79,0-15.58.01-23.37,4.27,0,8.55,0,12.82,0,0,.39,0,.78.01,1.17.05,4.47.11,8.94.16,13.45h13.51c4.42,0,8.85,0,13.27,0,.26,0,.51.02.77.03.03.08.06.15.08.23,0,1.62.01,3.25.02,4.87-.01.01-.04.03-.04.04,0,.03.03.06.04.09.01,1.71.02,3.42.04,5.13,0,.7-.03,1.41-.01,2.11.01.59.07,1.17.1,1.76,0,0,.02.02.02.02.25.03.49.1.74.1,4.37.01,8.75.01,13.12.02,0,4.36,0,8.71,0,13.07-.53,0-1.07.01-1.6.01-3.86,0-7.72.01-11.58.02-.01-.09-.03-.17-.04-.26-.26-.05-.52-.14-.78-.14-8.92,0-17.85,0-26.77,0-.28,0-.55-.01-.83-.02,0-4.3,0-8.61,0-12.91,0-.19-.16-.38-.24-.56-.04-.03-.06-.06-.05-.11.14-.58-.32-.39-.55-.39-3.87-.01-7.74,0-11.6,0-.17,0-.34.04-.5.06Z"/><path class="cls-4" d="m1021.65,604.34s-.01.1-.02.14c-8.02,0-16.05,0-24.07,0-.28,0-.55-.02-.83-.03.25-.03.5-.09.74-.1,8.06,0,16.12-.01,24.18-.01Z"/><path class="cls-11" d="m1036.93,604.36c-5.09,0-10.18,0-15.27,0,.17-.05.34-.14.51-.14,4.78,0,9.57,0,14.35,0,.18,0,.36.07.54.11,0,0-.04.04-.04.04-.03,0-.06,0-.09-.01Z"/><path class="cls-17" d="m1078.51,660.83c0-4.42,0-8.85.02-13.27,0-.28.02-.55.02-.83,0,0,.06,0,.06,0h.06c0,4.47,0,8.93-.02,13.39,0,.24-.09.48-.14.71Z"/><path class="cls-4" d="m1091.73,633.51c-4.37,0-8.75,0-13.12-.02-.25,0-.49-.06-.74-.1,3.36,0,6.71-.02,10.07-.03,1.07,0,2.14,0,3.21,0,.19,0,.39.09.58.14Z"/><path class="cls-28" d="m1064.35,685.24c-4.31,0-8.62,0-12.93-.02-.25,0-.5-.06-.75-.09,1.58-.01,3.15-.03,4.73-.03,2.77,0,5.54,0,8.32,0,.21,0,.42.09.64.13Z"/><path class="cls-4" d="m1078.67,646.73h-.06s-.06,0-.06,0c-.02-.04-.02-.08,0-.12,3.86,0,7.72-.01,11.58-.02.53,0,1.07,0,1.6-.01-.24.05-.47.13-.71.14-4.12.01-8.24.02-12.36.02Z"/><path class="cls-13" d="m1064.65,660.86c4.37,0,8.73,0,13.1,0-.25.03-.49.1-.74.1-4.11.01-8.23.02-12.34.03,0,0-.04-.02-.04-.02.02-.03.02-.06.03-.1Z"/><path class="cls-4" d="m1049.89,604.49c-4.27,0-8.55,0-12.82,0-.02-.04-.03-.08-.05-.12,0,0,.04-.04.04-.04,4.04,0,8.07,0,12.11.02.24,0,.48.08.71.13Z"/><path class="cls-15" d="m1050.54,685.1c-.04-.24-.12-.48-.13-.72-.01-3.69-.01-7.38-.01-11.07.04,0,.09,0,.13,0,0,3.93,0,7.86.01,11.79Z"/><path class="cls-4" d="m1077.85,633.38c-.04-.59-.09-1.17-.1-1.76-.01-.7,0-1.41.01-2.11.04.67.08,1.34.1,2.02.01.62,0,1.23-.01,1.85Z"/><path class="cls-10" d="m1077.84,605.28c1.14,0,2.28-.02,3.42-.02.12,0,.23.07.35.11-1.12,0-2.24.01-3.36,0-.14,0-.28-.06-.42-.1Z"/><path class="cls-4" d="m1077.66,601.77c.03.86.06,1.72.09,2.58-.03-.86-.06-1.72-.09-2.58Z"/><path class="cls-16" d="m1050.53,673.3s-.09,0-.13,0c-.04-.02-.08-.03-.12-.05.12,0,.24,0,.36,0-.03.02-.07.04-.11.06Z"/><path class="cls-8" d="m1077.7,619.37c-.03-.08-.06-.15-.08-.23.03.08.06.15.08.23Z"/><path class="cls-8" d="m1064.62,661.1s-.07-.08-.1-.12c.04,0,.07-.01.11-.02,0,0,.04.02.04.02-.02.04-.03.08-.05.12Z"/><path class="cls-8" d="m1077.72,624.38s-.03-.06-.04-.09c0,0,.02-.03.04-.04,0,.05,0,.09,0,.14Z"/><polygon class="cls-16" points="1054.28 673.25 1054.32 673.21 1054.36 673.25 1054.32 673.26 1054.28 673.25"/><path class="cls-8" d="m1064.54,673.3s.06-.1.08-.14c-.03.05-.06.1-.08.14Z"/><path class="cls-16" d="m1021.66,632.84h14.63c.06.09.1.13.1.16,0,4.19,0,8.38,0,12.56-.03-.25-.1-.5-.1-.74,0-3.72-.02-7.43,0-11.15,0-.58-.17-.71-.72-.7-4.4.02-8.8.01-13.2,0-.24,0-.48-.09-.72-.14Z"/><path class="cls-17" d="m1036.03,685.48c-.04-.24-.12-.48-.12-.72,0-3.54,0-7.08,0-10.63v-.81c-.29-.01-.52-.03-.75-.03-1.75,0-3.5,0-5.25,0-.23,0-.45-.06-.68-.1,2.26,0,4.52-.01,6.78-.02,0,.03.02.06.03.1,0,4.07,0,8.15,0,12.22Z"/><path class="cls-14" d="m1021.41,660.96c5.86,0,11.71,0,17.57,0,.26,0,.51.01.77.02-.21.03-.41.09-.62.1-5.69,0-11.38.01-17.07.01-.22,0-.43-.09-.65-.13Z"/><path class="cls-18" d="m996.62,645.68c0-.05,0-.1-.01-.16,0-4.26-.01-8.52-.02-12.78.04-.01.09-.02.13-.04,0,4.21.01,8.42.01,12.63,0,.11-.08.23-.12.34Z"/><path class="cls-18" d="m996.72,618.11s-.06-.01-.09-.02c0-4.1.02-8.21.02-12.31.03.1.09.2.09.29,0,4.01-.01,8.03-.02,12.04Z"/><path class="cls-4" d="m978.66,673c-2.84,0-5.68.02-8.52.01-.54,0-1.08-.08-1.62-.12,3.13,0,6.27,0,9.4.02.25,0,.49.06.74.09Z"/><path class="cls-11" d="m1049.25,660.95c.09-.04.19-.1.28-.1,3.07,0,6.15.01,9.22.02,0,.03,0,.06-.02.09-3.16,0-6.33,0-9.49,0Z"/><path class="cls-4" d="m1012.29,673.13c-2.78,0-5.57.01-8.35.02,0-.03-.01-.06-.02-.1,2.79,0,5.57-.01,8.36-.02,0,.03,0,.07.01.1Z"/><path class="cls-17" d="m1003.92,673.05s.01.06.02.1c-2.09,0-4.19.02-6.28.02,0-.03-.01-.07-.02-.11,2.09,0,4.19,0,6.28-.01Z"/><path class="cls-26" d="m1058.74,660.95s.01-.06.02-.09c1.97,0,3.93,0,5.9,0,0,.04,0,.07-.02.1-.04,0-.07.01-.11.02-1.93,0-3.86-.01-5.79-.02Z"/><path class="cls-23" d="m1023.07,646.4c-.55.02-1.1.05-1.66.07.55-.02,1.1-.05,1.66-.07Z"/><path class="cls-4" d="m982.48,672.93s0,.07,0,.11c-.04,0-.07,0-.11-.02.04-.03.08-.06.12-.08Z"/><path class="cls-8" d="m1012.29,673.13s0-.07-.01-.1c.05.03.09.06.14.08,0,0-.06.02-.06.02h-.06Z"/><path class="cls-8" d="m1020.76,673.14s-.09,0-.13-.01c.04,0,.09,0,.13.01Z"/><path class="cls-14" d="m1036.04,673.27s-.03-.06-.03-.1c.05,0,.11,0,.16,0-.04.03-.09.06-.13.09Z"/><path class="cls-14" d="m1037.71,673.22c-.05-.01-.1-.03-.15-.04.05.01.1.03.15.04Z"/><path class="cls-28" d="m955.41,725.78c.25-.04.49-.1.74-.11,4.46,0,8.91,0,13.37,0,.02.04.02.08.02.12-4.71,0-9.42,0-14.13,0Z"/><path class="cls-9" d="m960.3,644.39c.1-.04.19-.1.29-.1,2.72-.05,5.44-.1,8.16-.14-.18.11-.36.31-.54.31-2.29.02-4.59.02-6.88.02-.34-.03-.69-.06-1.03-.09Z"/><path class="cls-16" d="m960.3,644.39c.34.03.69.06,1.03.09-1.55.02-3.11.04-4.66.05-.07,0-.13-.08-.2-.12,1.28,0,2.55,0,3.83,0Z"/><path class="cls-17" d="m1050.39,685.61c-4.55,0-9.09,0-13.64,0-.24,0-.48-.08-.72-.13,4.79,0,9.58,0,14.37,0,0,.04,0,.08,0,.12Z"/><path class="cls-14" d="m1050.45,699.08s-.02-.08,0-.12c.03,0,.07,0,.1-.01,4.61,0,9.23,0,13.84,0-.15.04-.31.13-.46.13-4.49,0-8.98,0-13.48,0Z"/><path class="cls-28" d="m1050.55,698.95s-.07.01-.1.01c-.01-1.38-.03-2.77-.03-4.15-.01-3.07-.02-6.13-.02-9.2.01-.04.01-.08,0-.12.05.24.13.48.13.72.01,4.25.02,8.5.02,12.74Z"/><path class="cls-3" d="m1023.82,712.46c0,4.53,0,9.05,0,13.58h-13.96c0-4.53,0-9.05,0-13.58,4.65,0,9.31,0,13.96,0Z"/><path class="cls-26" d="m1050.14,646.18c.28,0,.55.02.83.02,8.92,0,17.85,0,26.77,0,.26,0,.52.09.78.14-6.22,0-12.45,0-18.67-.01-3.1,0-6.2,0-9.3,0-.22,0-.43-.08-.65-.12.08,0,.16-.01.24-.02Z"/><path class="cls-26" d="m1037.02,604.37s.03.08.05.12c0,7.79,0,15.58-.01,23.37,0,1.45,0,2.9,0,4.35-.04-.24-.12-.47-.12-.71,0-9.05,0-18.1,0-27.15.03,0,.06,0,.09.01Z"/><path class="cls-9" d="m1050.14,646.18c-.08,0-.16.01-.24.02-.01-1.81-.03-3.62-.03-5.43,0-2.69.01-5.37.02-8.06.08.19.24.38.24.56.01,4.3,0,8.6,0,12.91Z"/><path class="cls-11" d="m1037.18,632.27c.17-.02.34-.06.5-.06,3.87,0,7.74,0,11.6,0,.23,0,.69-.2.55.39-.23-.09-.46-.26-.7-.26-3.76-.02-7.52-.01-11.27-.01-.23,0-.46-.04-.69-.07Z"/></g><path d="m1995.22,381c0-1.92,0-3.85,0-5.77,7.63,0,15.26,0,22.89,0,0,1.92,0,3.85,0,5.77h-22.88Z"/><path d="m1972.35,375.23c0,1.92,0,3.85,0,5.77h-17.16c0-1.92,0-3.85,0-5.77,5.72,0,11.45,0,17.17,0Z"/><path d="m2075.3,329.53c-1.92,0-3.85,0-5.77,0,0-5.72,0-11.45,0-17.17,1.92,0,3.85,0,5.77,0v17.16Z"/><path d="m2069.53,346.68c1.92,0,3.85,0,5.77,0v5.72c-1.9-.02-3.8-.04-5.7-.06-.03-1.89-.05-3.78-.08-5.66Z"/><path class="cls-7" d="m2046.72,186.47c-.02,1.95-.03,3.9-.05,5.85h-11.45v5.69l.08-.08h-11.52v5.8l.08-.08h-11.52l.08.08v-5.56h-5.8v5.56l.08-.08h-11.52v5.8l.08-.08h-22.96l.08.08v-5.8h-11.52l.08.08v-5.56h-5.8v5.56l.08-.08h-5.8v5.8l.08-.08h-17.24l.08.08v-5.8h-11.52l.08.08v-5.56h-5.8v5.56l.08-.08h-11.52v5.8l.08-.08h-22.96l.08.08v-5.8h-11.52l.08.08v-5.56h-5.8v5.56l.08-.08h-5.8v5.8l.08-.08h-17.24l.08.08v-5.8h-11.52l.08.08v-5.8h-5.8l.08.08v-5.8h-22.96l.08.08v-11.52h-5.8l.08.08c0-1.85,0-3.7,0-5.8h-5.8l.08.08c0-1.85,0-3.7,0-5.8h-5.8l.08.08c0-1.85,0-3.7,0-5.8h-5.8l.08.08c0-3.84,0-7.68,0-11.52,0,0-.08.08-.08.08h11.46v-5.69q.07-5.73,5.81-5.81c1.86,0,3.72,0,5.69,0v-5.74l-.08.08h5.8v-5.8l-.08.08h17.24v-5.8l-.08.08h5.8v-5.8l-.08.08h5.8v-5.8s-.08.08-.08.08h5.8v-17.24l-.08.08h11.52v-5.8l-.08.08c1.85,0,3.7,0,5.8,0v-5.8l-.08.08c7.65,0,15.31,0,22.96,0,0,0-.08-.08-.08-.08v5.8h5.8s-.08-.08-.08-.08v11.52h5.8l-.08-.08v5.56h5.8v-5.56s-.08.08-.08.08c1.93,0,3.87,0,5.8,0,0,0-.08-.08-.08-.08v5.8h5.8s-.08-.08-.08-.08v17.01h11.52v-5.57l-.08.08h5.8v-5.8l-.08.08h5.8v-17.24l-.08.08h11.52v-5.8l-.08.08c1.85,0,3.7,0,5.8,0v-5.8s-.08.08-.08.08c7.65,0,15.31,0,22.96,0,0,0-.08-.08-.08-.08v5.8h5.8s-.08-.08-.08-.08v11.52h5.8l-.08-.08v5.56h5.8v-5.56l-.08.08c1.93,0,3.87,0,5.8,0l-.08-.08v5.8h5.8s-.08-.08-.08-.08v17.24h5.8l-.08-.08v11.52h5.8l-.08-.08v5.56h5.8v-5.56l-.08.08h5.8v-5.8l-.08.08h5.8l-.08-.08v17.24h5.8l-.08-.08v5.56h5.8v-5.56l-.08.08h5.8l-.08-.08v17.24l.08-.08h-5.8v5.8l.08-.08h-5.56v5.8h5.56l-.08-.08v5.8h5.8l-.08-.08c.02,1.9.04,3.8.06,5.7Zm-68.68-74.27v-5.56h-5.5v5.51h5.55v5.56h5.5v-5.51c-1.98,0-3.76,0-5.55,0Zm-171.59,62.91v-5.56h-5.5v5.51h5.55v5.72h5.72v5.87h17.22v5.62h11.45v5.47h11.45v-5.54h17.16v-5.46h5.73v5.55h5.73v5.44h17.15v-5.56h5.59c0-2.09,0-3.88,0-5.68h5.56v-5.5h-5.51v5.55h-22.95v-5.83h-5.7c0-2.07,0-3.86,0-5.65h5.56v-5.5h-5.51v5.55h-5.87v5.86h-17.14v5.39h-17.14v-5.69h-5.72v-5.42h-5.72v5.58c-3.99,0-7.68,0-11.38,0v-5.72c-2.13,0-3.92,0-5.72,0Zm74.4-62.96v5.56h5.5v-5.51h-5.55v-5.56h-5.5v5.51c1.98,0,3.76,0,5.55,0Zm-28.64,5.72h11.28v-5.51h-11.23c0,1.98,0,3.76,0,5.55h-5.56v5.5h5.51v-5.55Zm91.51,0h11.28v-5.51h-11.23c0,1.98,0,3.76,0,5.55h-5.56v5.5h5.51v-5.55Zm57.24,68.68h-22.95v-5.83h-5.7c0-2.07,0-3.86,0-5.65h5.56v-5.5h-5.51v5.55h-5.89v5.8h-17.08v5.41h-17.18v-5.55h-5.74v-5.54h-5.64v5.68h-5.47v5.74h11.28v5.74h11.46v5.42h11.46v-5.62h17.08v-5.45h5.84v5.64h5.64v5.39h17.18v-5.56h5.6c0-2.09,0-3.89,0-5.69h5.56v-5.5h-5.51v5.55Z"/><path class="cls-7" d="m2069.53,346.68c.03,1.89.05,3.78.08,5.66-.02,1.95-.03,3.9-.05,5.85h-11.45v5.69l.08-.08c-3.82,0-7.63,0-11.52,0v5.8l.08-.08h-11.52l.08.08v-5.56h-5.8v5.56l.08-.08c-3.82,0-7.63,0-11.52,0v5.8s.05-.09.05-.09c-7.63,0-15.26,0-22.89,0,0,0,.05.09.05.09v-5.8h-11.52l.08.08v-5.56h-5.8v5.56l.08-.08h-5.8v5.8s.05-.09.05-.09c-5.73,0-11.45,0-17.17,0,0,0,.05.09.05.09v-5.8h-11.52l.08.08v-5.8h-5.8s.08.08.08.08v-5.8h-22.96l.08.08c0-3.82,0-7.63,0-11.52h-5.8l.08.08v-5.8h-5.8l.08.08v-5.8h-5.8l.08.08v-5.8h-5.8l.08.08v-11.52l-.08.08h11.46v-5.69q.07-5.73,5.81-5.81h5.69v-5.74l-.08.08h5.8v-5.8l-.08.08h17.24v-5.8l-.08.08h5.8v-5.8l-.08.08h5.8v-5.8s-.08.08-.08.08h5.8v-17.24l-.08.08c3.82,0,7.63,0,11.52,0v-5.8l-.08.08h5.8v-5.8l-.08.08c7.65,0,15.31,0,22.96,0l-.08-.08v5.8h5.8l-.08-.08c0,3.82,0,7.63,0,11.52h5.8l-.08-.08v5.56h5.8v-5.56l-.08.08h5.8l-.08-.08v5.8h5.8l-.08-.08v17.24h5.8l-.08-.08c0,3.82,0,7.63,0,11.52h5.8l-.08-.08v5.56h5.8v-5.56l-.08.08h5.8v-5.8l-.08.08h5.8l-.08-.08v17.24h5.8l-.08-.08v5.56h5.8v-5.56l-.08.08h5.8s-.09-.05-.09-.05c0,5.73,0,11.45,0,17.17,0,0,.09-.05.09-.05h-5.8v5.8l.08-.08h-5.56v5.8h5.56l-.08-.08v5.8h5.8l-.09-.05Zm-148.63-5.74v5.73h5.72v5.87h22.93v5.62h11.45v5.48h11.45v-5.54h17.16v-5.46h5.73v5.55h5.73v5.44h17.16v-5.56h5.59c0-2.09,0-3.88,0-5.68h5.56v-5.5h-5.51v5.55h-22.95v-5.83h-5.7c0-2.07,0-3.86,0-5.65h5.56v-5.5h-5.51v5.55h-5.87v5.86h-17.14v5.39h-17.14v-5.69h-5.72v-5.41h-5.72v5.58c-5.89,0-11.49,0-17.09,0v-5.73h-5.72v-5.55h-5.5v5.51c1.98,0,3.76,0,5.55,0Zm80.07-62.91v5.56h5.5v-5.51h-5.55v-5.56h-5.5v5.51c1.98,0,3.76,0,5.55,0Zm-34.36,5.72h11.28v-5.51h-11.23c0,1.98,0,3.76,0,5.55h-5.56v5.5h5.51v-5.55Z"/><path d="m1920.9,117.86v5.57h-11.52v-17.01c1.79,0,3.58,0,5.66,0v11.44h5.85Z"/><path d="m1880.87,83.63c-7.65,0-15.31,0-22.96,0v-5.57h22.96v5.57Z"/><path d="m1972.38,83.63c-7.65,0-15.31,0-22.96,0v-5.57h22.96v5.57Z"/><path d="m1915.11,358.08h22.96v5.8c-7.55,0-15.1,0-22.96,0v-5.8Z"/><path d="m1995.26,249.49c-7.65,0-15.31,0-22.96,0v-5.57h22.96v5.57Z"/><path d="m1972.3,209.38h22.96v5.57h-22.96v-5.57Z"/><path d="m1880.79,209.38h22.96v5.57h-22.96v-5.57Z"/><path d="m1800.71,192.22h22.96v5.8h-22.96v-5.8Z"/><path d="m2035.3,146.54h-5.8v-17.24h5.8v17.24Z"/><path d="m1840.75,209.38h17.24v5.57h-17.24v-5.57Z"/><path d="m2006.7,123.66h-5.8v-17.24c1.79,0,3.59,0,5.8,0v17.24Z"/><path d="m1840.83,94.99v17.24h-5.8c0-5.65,0-11.29,0-17.24h5.8Z"/><path d="m1932.26,209.38h17.24v5.57h-17.24v-5.57Z"/><path d="m1955.22,260.85v17.24h-5.8c0-5.65,0-11.29,0-17.24h5.8Z"/><path d="m2029.58,289.53h-5.8v-17.24h5.8v17.24Z"/><path d="m1938.06,289.45v5.8h-17.24v-5.8h17.24Z"/><path d="m2046.66,163.7v-17.24h5.57v17.24h-5.57Z"/><path d="m1932.34,94.99v17.24h-5.8v-17.24h5.8Z"/><path d="m2058.18,312.4h-5.8v-17.24h5.8v17.24Z"/><path d="m1823.67,123.58v5.8h-17.24v-5.8h17.24Z"/><path d="m2035.3,300.97h-5.8c0-3.88,0-7.7,0-11.52h5.8v11.52Z"/><path d="m2023.78,203.74v-5.8h11.52v5.8h-11.52Z"/><path d="m1892.31,100.78h-5.8v-11.52c1.79,0,3.58,0,5.8,0v11.52Z"/><path d="m1892.31,318.04v11.52h-5.57v-11.52h5.57Z"/><path d="m2012.42,135.1h-5.8v-11.52h5.8v11.52Z"/><path d="m1909.39,346.65h5.8c0,3.88,0,7.7,0,11.52h-5.8v-11.52Z"/><path d="m1903.68,312.43v5.69h-11.46v-5.69h11.46Z"/><path d="m1789.29,146.57v5.69h-11.46c0-1.78,0-3.56,0-5.69h11.46Z"/><path d="m1943.7,369.52h11.52v5.8h-11.52v-5.8Z"/><path d="m1777.91,152.18c0,3.84,0,7.68,0,11.52h-5.57v-11.52h5.57Z"/><path d="m2006.7,266.65h-5.8c0-3.88,0-7.7,0-11.52h5.8v11.52Z"/><path d="m1966.66,255.13v5.8c-3.88,0-7.7,0-11.52,0v-5.8h11.52Z"/><path d="m1943.78,89.27v5.8h-11.52v-5.8h11.52Z"/><path d="m1983.82,100.78h-5.8v-11.52c1.79,0,3.58,0,5.8,0v11.52Z"/><path d="m1829.31,203.66h11.52v5.8h-11.52v-5.8Z"/><path d="m2012.34,203.66h11.52v5.57h-11.52v-5.57Z"/><path d="m1794.99,180.78h5.8v11.52h-5.8v-11.52Z"/><path d="m1995.18,209.46v-5.8h11.52v5.8h-11.52Z"/><path d="m1960.86,203.66h11.52v5.8h-11.52v-5.8Z"/><path d="m1920.83,203.66h11.52v5.8h-11.52v-5.8Z"/><path d="m1903.67,209.46v-5.8h11.52v5.8h-11.52Z"/><path d="m1869.35,203.66h11.52v5.8h-11.52v-5.8Z"/><path d="m2035.22,198.02v-5.69h11.45v5.69h-11.45Z"/><path d="m1852.27,89.27v5.8h-11.52v-5.8h11.52Z"/><path d="m1857.91,209.46v-5.8h5.8v5.8h-5.8Z"/><path d="m1955.15,203.74v-5.56h5.8v5.56h-5.8Z"/><path d="m2006.62,203.74v-5.56h5.8v5.56h-5.8Z"/><path d="m1863.63,203.74v-5.56h5.8v5.56h-5.8Z"/><path d="m1995.26,100.78c-1.93,0-3.87,0-5.8,0v-5.56h5.8v5.56Z"/><path d="m1823.59,197.94h5.8v5.8h-5.8v-5.8Z"/><path d="m1898.03,100.7v5.56h-5.8v-5.56h5.8Z"/><path d="m1909.47,106.5h-5.8v-5.8c1.85,0,3.69,0,5.8,0v5.8Z"/><path d="m2046.72,186.47c-.02-1.9-.04-3.8-.06-5.7h5.55v5.7h-5.49Z"/><path d="m1949.43,209.46v-5.8h5.8v5.8h-5.8Z"/><path d="m1903.75,100.78c-1.93,0-3.87,0-5.8,0v-5.56h5.8v5.56Z"/><path d="m2046.74,180.86h-5.8v-5.8h5.8v5.8Z"/><path d="m1989.54,100.7v5.56h-5.8v-5.56h5.8Z"/><path d="m2000.98,106.5h-5.8v-5.8h5.8v5.8Z"/><path d="m1789.27,175.06h5.8c0,2.1,0,3.95,0,5.8h-5.8v-5.8Z"/><path d="m2041.02,175.14h-5.56v-5.8h5.56v5.8Z"/><path d="m1972.38,249.41v5.8h-5.8v-5.8h5.8Z"/><path d="m2000.98,255.21h-5.8v-5.8h5.8v5.8Z"/><path d="m2018.14,266.65h-5.8v-5.56h5.8v5.56Z"/><path d="m2012.42,266.57v5.56h-5.8v-5.56h5.8Z"/><path d="m2023.86,272.37h-5.8v-5.8h5.8v5.8Z"/><path d="m1783.55,169.34h5.8c0,2.1,0,3.95,0,5.8h-5.8v-5.8Z"/><path d="m1949.5,278.01v5.8h-5.8v-5.8h5.8Z"/><path d="m2040.94,169.42v-5.8h5.8v5.8h-5.8Z"/><path d="m1943.78,283.73v5.8h-5.8v-5.8h5.8Z"/><path d="m1777.83,163.62h5.8c0,2.1,0,3.95,0,5.8h-5.8v-5.8Z"/><path d="m2041.02,146.46v5.56h-5.8v-5.56h5.8Z"/><path d="m2052.46,295.25h-5.8v-5.56h5.8v5.56Z"/><path d="m1920.9,295.17v5.8h-5.8v-5.8h5.8Z"/><path d="m2046.74,295.17v5.8h-5.8v-5.8h5.8Z"/><path d="m2046.74,146.54h-5.8v-5.56h5.8v5.56Z"/><path d="m1915.18,300.89v5.74h-5.69v-5.74h5.69Z"/><path d="m2041.02,300.89v5.56h-5.8v-5.56h5.8Z"/><path d="m2069.62,312.4h-5.8v-5.56h5.8v5.56Z"/><path d="m2018.14,135.02v5.56h-5.8v-5.56h5.8Z"/><path d="m2063.9,312.33v5.56h-5.8v-5.56h5.8Z"/><path d="m1800.79,135.02v5.74c-1.97,0-3.83,0-5.69,0,0-1.77,0-3.53,0-5.74h5.69Z"/><path d="m2023.86,129.3v5.8h-5.8v-5.8h5.8Z"/><path d="m1892.23,329.49h5.8v5.8h-5.8v-5.8Z"/><path d="m1806.51,129.3v5.8h-5.8v-5.8h5.8Z"/><path d="m1897.95,335.21h5.8v5.8h-5.8v-5.8Z"/><path d="m1903.67,340.93h5.8v5.8h-5.8v-5.8Z"/><path d="m2029.58,129.38h-5.8v-5.56h5.8v5.56Z"/><path d="m1978.1,89.34h-5.8v-5.8c1.85,0,3.7,0,5.8,0v5.8Z"/><path d="m1949.5,83.55v5.8c-2.1,0-3.95,0-5.8,0v-5.8h5.8Z"/><path d="m1886.59,89.34h-5.8v-5.8c1.85,0,3.69,0,5.8,0v5.8Z"/><path d="m1937.98,363.8h5.8v5.8h-5.8v-5.8Z"/><path d="m1829.39,117.86v5.8h-5.8v-5.8h5.8Z"/><path d="m1857.99,83.55v5.8c-2.1,0-3.95,0-5.8,0v-5.8h5.8Z"/><path d="m1926.62,112.14v5.8h-5.8v-5.8h5.8Z"/><path d="m1835.11,112.14v5.8h-5.8v-5.8h5.8Z"/><path d="m1915.11,203.74v-5.56h5.8v5.56h-5.8Z"/><path d="m2058.1,363.88v-5.69h11.45v5.69h-11.45Z"/><path d="m2046.66,369.6v-5.8c3.88,0,7.7,0,11.52,0v5.8h-11.52Z"/><path d="m2018.06,375.32v-5.8c3.88,0,7.7,0,11.52,0v5.8h-11.52Z"/><path d="m2035.22,369.52h11.52v5.57h-11.52v-5.57Z"/><path d="m2029.5,369.6v-5.56h5.8v5.56h-5.8Z"/><path d="m1983.74,369.52h11.52v5.8h-11.52v-5.8Z"/><path d="m1978.03,369.6v-5.56h5.8v5.56h-5.8Z"/><path d="m1972.31,375.32v-5.8h5.8v5.8h-5.8Z"/><path d="m2063.82,335.29v-5.8h5.8v5.8h-5.8Z"/><path d="m2063.9,341h-5.56v-5.8h5.56v5.8Z"/><path d="m2069.62,346.72h-5.8v-5.8h5.8v5.8Z"/><path class="cls-24" d="m1903.68,186.52v5.68h-5.59v5.56h-17.15v-5.44h-5.73v-5.55h-5.73v5.46h-17.16v5.54h-11.45v-5.47h-11.45v-5.62h-17.22c0-2.14,0-4,0-5.87,0,0-.05.05-.05.05h11.38v-5.58h5.72v5.42h5.72v5.69h17.14v-5.39h17.14v-5.86h5.87l-.05-.05v5.65h5.7v5.83h22.95l-.05-.05Z"/><path class="cls-24" d="m1972.32,175.08v5.65h5.7v5.83h22.95l-.05-.05v5.69h-5.6v5.56h-17.18v-5.39h-5.64v-5.64h-5.84v5.45h-17.08v5.62h-11.46v-5.42h-11.46v-5.74h-11.28v-5.74h5.47v-5.68h5.64v5.54h5.74v5.55h17.18v-5.41h17.08v-5.8h5.89l-.05-.05Z"/><path class="cls-24" d="m1943.77,117.93v-5.55h11.23v5.51h-11.28l.05.05Z"/><path class="cls-24" d="m1852.25,117.93v-5.55h11.23v5.51h-11.28l.05.05Z"/><path class="cls-24" d="m1880.85,112.16h-5.55v-5.51h5.5v5.56l.05-.05Z"/><path class="cls-24" d="m2000.96,186.56v-5.55h5.51v5.5c-1.85,0-3.71,0-5.56,0,0,0,.05.05.05.05Z"/><path class="cls-24" d="m1903.73,186.56v-5.55h5.51v5.5c-1.85,0-3.71,0-5.56,0,0,0,.05.05.05.05Z"/><path class="cls-24" d="m1806.45,175.12h5.72c0,1.99,0,3.86,0,5.72,0,0,.05-.05.05-.05-1.79,0-3.58,0-5.72,0v-5.72l-.05.05Z"/><path class="cls-24" d="m1972.37,175.12v-5.55h5.51v5.5c-1.85,0-3.71,0-5.56,0,0,0,.05.05.05.05Z"/><path class="cls-24" d="m1875.13,175.12v-5.55h5.51v5.5c-1.85,0-3.71,0-5.56,0,0,0,.05.05.05.05Z"/><path class="cls-24" d="m1806.5,175.08h-5.55v-5.51h5.5c0,1.85,0,3.71,0,5.56,0,0,.05-.05.05-.05Z"/><path class="cls-24" d="m1943.72,117.88v5.55h-5.51v-5.5c1.85,0,3.71,0,5.56,0,0,0-.05-.05-.05-.05Z"/><path class="cls-24" d="m1852.21,117.88v5.55h-5.51v-5.5c1.85,0,3.71,0,5.56,0,0,0-.05-.05-.05-.05Z"/><path class="cls-24" d="m1978.04,112.21h5.55v5.51h-5.5v-5.56l-.05.05Z"/><path class="cls-24" d="m1880.8,112.21h5.55v5.51h-5.5c0-1.85,0-3.71,0-5.56,0,0-.05.05-.05.05Z"/><path class="cls-24" d="m1978.09,112.16h-5.55v-5.51h5.5c0,1.85,0,3.71,0,5.56,0,0,.05-.05.05-.05Z"/><path class="cls-24" d="m1926.56,346.71h17.09v-5.58h5.72v5.41h5.72v5.69h17.14v-5.39h17.14v-5.86h5.87l-.05-.05v5.65h5.7v5.83h22.95l-.05-.05v5.68h-5.59v5.56h-17.16v-5.44h-5.73v-5.55h-5.73v5.46h-17.16v5.54h-11.45v-5.48h-11.45v-5.62h-22.93v-5.87l-.05.05Z"/><path class="cls-24" d="m1966.65,283.79v-5.55h11.23v5.51h-11.28l.05.05Z"/><path class="cls-24" d="m2000.96,278.03h-5.55v-5.51h5.5v5.56l.05-.05Z"/><path class="cls-24" d="m2000.92,278.07h5.55v5.51h-5.5c0-1.85,0-3.71,0-5.56l-.05.05Z"/><path class="cls-24" d="m1966.6,283.75v5.55h-5.51v-5.5c1.85,0,3.71,0,5.56,0l-.05-.05Z"/><path class="cls-24" d="m1920.89,340.94h-5.55v-5.51h5.5c0,1.84,0,3.7,0,5.55,0,0,.05-.05.05-.05Z"/><path class="cls-24" d="m1995.24,340.99v-5.55h5.51v5.5c-1.85,0-3.71,0-5.56,0l.05.05Z"/><path class="cls-24" d="m1926.61,346.66h-5.72c0-1.99,0-3.86,0-5.73,0,0-.05.05-.05.05,1.79,0,3.58,0,5.72,0,0,2,0,3.86,0,5.73l.05-.05Z"/><path class="cls-24" d="m2023.84,352.43v-5.55h5.51v5.5c-1.85,0-3.71,0-5.56,0l.05.05Z"/><path d="m852.86,220.56c0-1.92,0-3.85,0-5.77,7.63,0,15.26,0,22.89,0,0,1.92,0,3.85,0,5.77h-22.88Z"/><path d="m829.99,214.79c0,1.92,0,3.85,0,5.77h-17.16c0-1.92,0-3.85,0-5.77,5.72,0,11.45,0,17.17,0Z"/><path d="m932.94,169.09c-1.92,0-3.85,0-5.77,0,0-5.72,0-11.45,0-17.17,1.92,0,3.85,0,5.77,0v17.16Z"/><path d="m927.17,186.24c1.92,0,3.85,0,5.77,0v5.72c-1.9-.02-3.8-.04-5.7-.06-.03-1.89-.05-3.78-.08-5.66Z"/><path class="cls-7" d="m468.78,186.47c-.02,1.95-.03,3.9-.05,5.85h-11.45v5.69l.08-.08h-11.52v5.8l.08-.08h-11.52l.08.08v-5.56h-5.8v5.56l.08-.08h-11.52v5.8l.08-.08h-22.96l.08.08v-5.8h-11.52l.08.08v-5.56h-5.8v5.56l.08-.08h-5.8v5.8l.08-.08h-17.24l.08.08v-5.8h-11.52l.08.08v-5.56h-5.8v5.56l.08-.08h-11.52v5.8l.08-.08h-22.96l.08.08v-5.8h-11.52l.08.08v-5.56h-5.8v5.56l.08-.08h-5.8v5.8l.08-.08h-17.24l.08.08v-5.8h-11.52l.08.08v-5.8h-5.8l.08.08v-5.8h-22.96l.08.08v-11.52h-5.8l.08.08c0-1.85,0-3.7,0-5.8h-5.8l.08.08c0-1.85,0-3.7,0-5.8h-5.8l.08.08c0-1.85,0-3.7,0-5.8h-5.8l.08.08c0-3.84,0-7.68,0-11.52,0,0-.08.08-.08.08h11.46v-5.69q.07-5.73,5.81-5.81c1.86,0,3.72,0,5.69,0v-5.74l-.08.08h5.8v-5.8l-.08.08h17.24v-5.8l-.08.08h5.8v-5.8l-.08.08h5.8v-5.8s-.08.08-.08.08h5.8v-17.24l-.08.08h11.52v-5.8l-.08.08c1.85,0,3.7,0,5.8,0v-5.8l-.08.08c7.65,0,15.31,0,22.96,0,0,0-.08-.08-.08-.08v5.8h5.8s-.08-.08-.08-.08v11.52h5.8l-.08-.08v5.56h5.8v-5.56s-.08.08-.08.08c1.93,0,3.87,0,5.8,0,0,0-.08-.08-.08-.08v5.8h5.8s-.08-.08-.08-.08v17.01h11.52v-5.57l-.08.08h5.8v-5.8l-.08.08h5.8v-17.24l-.08.08h11.52v-5.8l-.08.08c1.85,0,3.7,0,5.8,0v-5.8s-.08.08-.08.08c7.65,0,15.31,0,22.96,0,0,0-.08-.08-.08-.08v5.8h5.8s-.08-.08-.08-.08v11.52h5.8l-.08-.08v5.56h5.8v-5.56l-.08.08c1.93,0,3.87,0,5.8,0l-.08-.08v5.8h5.8s-.08-.08-.08-.08v17.24h5.8l-.08-.08v11.52h5.8l-.08-.08v5.56h5.8v-5.56l-.08.08h5.8v-5.8l-.08.08h5.8l-.08-.08v17.24h5.8l-.08-.08v5.56h5.8v-5.56l-.08.08h5.8l-.08-.08v17.24l.08-.08h-5.8v5.8l.08-.08h-5.56v5.8h5.56l-.08-.08v5.8h5.8l-.08-.08c.02,1.9.04,3.8.06,5.7Zm-68.68-74.27v-5.56h-5.5v5.51h5.55v5.56h5.5v-5.51c-1.98,0-3.76,0-5.55,0Zm-171.59,62.91v-5.56h-5.5v5.51h5.55v5.72h5.72v5.87h17.22v5.62h11.45v5.47h11.45v-5.54h17.16v-5.46h5.73v5.55h5.73v5.44h17.15v-5.56h5.59c0-2.09,0-3.88,0-5.68h5.56v-5.5h-5.51v5.55h-22.95v-5.83h-5.7c0-2.07,0-3.86,0-5.65h5.56v-5.5h-5.51v5.55h-5.87v5.86h-17.14v5.39h-17.14v-5.69h-5.72v-5.42h-5.72v5.58c-3.99,0-7.68,0-11.38,0v-5.72c-2.13,0-3.92,0-5.72,0Zm74.4-62.96v5.56h5.5v-5.51h-5.55v-5.56h-5.5v5.51c1.98,0,3.76,0,5.55,0Zm-28.64,5.72h11.28v-5.51h-11.23c0,1.98,0,3.76,0,5.55h-5.56v5.5h5.51v-5.55Zm91.51,0h11.28v-5.51h-11.23c0,1.98,0,3.76,0,5.55h-5.56v5.5h5.51v-5.55Zm57.24,68.68h-22.95v-5.83h-5.7c0-2.07,0-3.86,0-5.65h5.56v-5.5h-5.51v5.55h-5.89v5.8h-17.08v5.41h-17.18v-5.55h-5.74v-5.54h-5.64v5.68h-5.47v5.74h11.28v5.74h11.46v5.42h11.46v-5.62h17.08v-5.45h5.84v5.64h5.64v5.39h17.18v-5.56h5.6c0-2.09,0-3.89,0-5.69h5.56v-5.5h-5.51v5.55Z"/><path class="cls-7" d="m927.17,186.24c.03,1.89.05,3.78.08,5.66-.02,1.95-.03,3.9-.05,5.85h-11.45v5.69l.08-.08c-3.82,0-7.63,0-11.52,0v5.8l.08-.08h-11.52l.08.08v-5.56h-5.8v5.56l.08-.08c-3.82,0-7.63,0-11.52,0v5.8s.05-.09.05-.09c-7.63,0-15.26,0-22.89,0,0,0,.05.09.05.09v-5.8h-11.52l.08.08v-5.56h-5.8v5.56l.08-.08h-5.8v5.8s.05-.09.05-.09c-5.73,0-11.45,0-17.17,0,0,0,.05.09.05.09v-5.8h-11.52l.08.08v-5.8h-5.8s.08.08.08.08v-5.8h-22.96l.08.08c0-3.82,0-7.63,0-11.52h-5.8l.08.08v-5.8h-5.8l.08.08v-5.8h-5.8l.08.08v-5.8h-5.8l.08.08v-11.52l-.08.08h11.46v-5.69q.07-5.73,5.81-5.81h5.69v-5.74l-.08.08h5.8v-5.8l-.08.08h17.24v-5.8l-.08.08h5.8v-5.8l-.08.08h5.8v-5.8s-.08.08-.08.08h5.8v-17.24l-.08.08c3.82,0,7.63,0,11.52,0v-5.8l-.08.08h5.8v-5.8l-.08.08c7.65,0,15.31,0,22.96,0l-.08-.08v5.8h5.8l-.08-.08c0,3.82,0,7.63,0,11.52h5.8l-.08-.08v5.56h5.8v-5.56l-.08.08h5.8l-.08-.08v5.8h5.8l-.08-.08v17.24h5.8l-.08-.08c0,3.82,0,7.63,0,11.52h5.8l-.08-.08v5.56h5.8v-5.56l-.08.08h5.8v-5.8l-.08.08h5.8l-.08-.08v17.24h5.8l-.08-.08v5.56h5.8v-5.56l-.08.08h5.8s-.09-.05-.09-.05c0,5.73,0,11.45,0,17.17,0,0,.09-.05.09-.05h-5.8v5.8l.08-.08h-5.56v5.8h5.56l-.08-.08v5.8h5.8l-.09-.05Zm-148.63-5.74v5.73h5.72v5.87h22.93v5.62h11.45v5.48h11.45v-5.54h17.16v-5.46h5.73v5.55h5.73v5.44h17.16v-5.56h5.59c0-2.09,0-3.88,0-5.68h5.56v-5.5h-5.51v5.55h-22.95v-5.83h-5.7c0-2.07,0-3.86,0-5.65h5.56v-5.5h-5.51v5.55h-5.87v5.86h-17.14v5.39h-17.14v-5.69h-5.72v-5.41h-5.72v5.58c-5.89,0-11.49,0-17.09,0v-5.73h-5.72v-5.55h-5.5v5.51c1.98,0,3.76,0,5.55,0Zm80.07-62.91v5.56h5.5v-5.51h-5.55v-5.56h-5.5v5.51c1.98,0,3.76,0,5.55,0Zm-34.36,5.72h11.28v-5.51h-11.23c0,1.98,0,3.76,0,5.55h-5.56v5.5h5.51v-5.55Z"/><path d="m342.96,117.86v5.57h-11.52v-17.01c1.79,0,3.58,0,5.66,0v11.44h5.85Z"/><path d="m302.93,83.63c-7.65,0-15.31,0-22.96,0v-5.57h22.96v5.57Z"/><path d="m394.44,83.63c-7.65,0-15.31,0-22.96,0v-5.57h22.96v5.57Z"/><path d="m772.75,197.65h22.96v5.8c-7.55,0-15.1,0-22.96,0v-5.8Z"/><path d="m852.9,89.05c-7.65,0-15.31,0-22.96,0v-5.57h22.96v5.57Z"/><path d="m394.36,209.38h22.96v5.57h-22.96v-5.57Z"/><path d="m302.84,209.38h22.96v5.57h-22.96v-5.57Z"/><path d="m222.77,192.22h22.96v5.8h-22.96v-5.8Z"/><path d="m457.36,146.54h-5.8v-17.24h5.8v17.24Z"/><path d="m262.81,209.38h17.24v5.57h-17.24v-5.57Z"/><path d="m428.76,123.66h-5.8v-17.24c1.79,0,3.59,0,5.8,0v17.24Z"/><path d="m262.89,94.99v17.24h-5.8c0-5.65,0-11.29,0-17.24h5.8Z"/><path d="m354.32,209.38h17.24v5.57h-17.24v-5.57Z"/><path d="m812.86,100.41v17.24h-5.8c0-5.65,0-11.29,0-17.24h5.8Z"/><path d="m887.22,129.09h-5.8v-17.24h5.8v17.24Z"/><path d="m795.7,129.01v5.8h-17.24v-5.8h17.24Z"/><path d="m468.72,163.7v-17.24h5.57v17.24h-5.57Z"/><path d="m354.4,94.99v17.24h-5.8v-17.24h5.8Z"/><path d="m915.82,151.97h-5.8v-17.24h5.8v17.24Z"/><path d="m245.73,123.58v5.8h-17.24v-5.8h17.24Z"/><path d="m892.94,140.53h-5.8c0-3.88,0-7.7,0-11.52h5.8v11.52Z"/><path d="m445.84,203.74v-5.8h11.52v5.8h-11.52Z"/><path d="m314.37,100.78h-5.8v-11.52c1.79,0,3.58,0,5.8,0v11.52Z"/><path d="m749.95,157.61v11.52h-5.57v-11.52h5.57Z"/><path d="m434.48,135.1h-5.8v-11.52h5.8v11.52Z"/><path d="m767.03,186.21h5.8c0,3.88,0,7.7,0,11.52h-5.8v-11.52Z"/><path d="m761.33,151.99v5.69h-11.46v-5.69h11.46Z"/><path d="m211.35,146.57v5.69h-11.46c0-1.78,0-3.56,0-5.69h11.46Z"/><path d="m801.35,209.09h11.52v5.8h-11.52v-5.8Z"/><path d="m199.97,152.18c0,3.84,0,7.68,0,11.52h-5.57v-11.52h5.57Z"/><path d="m864.34,106.21h-5.8c0-3.88,0-7.7,0-11.52h5.8v11.52Z"/><path d="m824.3,94.69v5.8c-3.88,0-7.7,0-11.52,0v-5.8h11.52Z"/><path d="m365.84,89.27v5.8h-11.52v-5.8h11.52Z"/><path d="m405.88,100.78h-5.8v-11.52c1.79,0,3.58,0,5.8,0v11.52Z"/><path d="m251.37,203.66h11.52v5.8h-11.52v-5.8Z"/><path d="m434.4,203.66h11.52v5.57h-11.52v-5.57Z"/><path d="m217.05,180.78h5.8v11.52h-5.8v-11.52Z"/><path d="m417.24,209.46v-5.8h11.52v5.8h-11.52Z"/><path d="m382.92,203.66h11.52v5.8h-11.52v-5.8Z"/><path d="m342.88,203.66h11.52v5.8h-11.52v-5.8Z"/><path d="m325.73,209.46v-5.8h11.52v5.8h-11.52Z"/><path d="m291.41,203.66h11.52v5.8h-11.52v-5.8Z"/><path d="m457.28,198.02v-5.69h11.45v5.69h-11.45Z"/><path d="m274.33,89.27v5.8h-11.52v-5.8h11.52Z"/><path d="m279.97,209.46v-5.8h5.8v5.8h-5.8Z"/><path d="m377.2,203.74v-5.56h5.8v5.56h-5.8Z"/><path d="m428.68,203.74v-5.56h5.8v5.56h-5.8Z"/><path d="m285.69,203.74v-5.56h5.8v5.56h-5.8Z"/><path d="m417.32,100.78c-1.93,0-3.87,0-5.8,0v-5.56h5.8v5.56Z"/><path d="m245.65,197.94h5.8v5.8h-5.8v-5.8Z"/><path d="m320.08,100.7v5.56h-5.8v-5.56h5.8Z"/><path d="m331.53,106.5h-5.8v-5.8c1.85,0,3.69,0,5.8,0v5.8Z"/><path d="m468.78,186.47c-.02-1.9-.04-3.8-.06-5.7h5.55v5.7h-5.49Z"/><path d="m371.48,209.46v-5.8h5.8v5.8h-5.8Z"/><path d="m325.81,100.78c-1.93,0-3.87,0-5.8,0v-5.56h5.8v5.56Z"/><path d="m468.8,180.86h-5.8v-5.8h5.8v5.8Z"/><path d="m411.6,100.7v5.56h-5.8v-5.56h5.8Z"/><path d="m423.04,106.5h-5.8v-5.8h5.8v5.8Z"/><path d="m211.33,175.06h5.8c0,2.1,0,3.95,0,5.8h-5.8v-5.8Z"/><path d="m463.08,175.14h-5.56v-5.8h5.56v5.8Z"/><path d="m830.02,88.97v5.8h-5.8v-5.8h5.8Z"/><path d="m858.62,94.77h-5.8v-5.8h5.8v5.8Z"/><path d="m875.78,106.21h-5.8v-5.56h5.8v5.56Z"/><path d="m870.06,106.13v5.56h-5.8v-5.56h5.8Z"/><path d="m881.5,111.93h-5.8v-5.8h5.8v5.8Z"/><path d="m205.61,169.34h5.8c0,2.1,0,3.95,0,5.8h-5.8v-5.8Z"/><path d="m807.14,117.57v5.8h-5.8v-5.8h5.8Z"/><path d="m463,169.42v-5.8h5.8v5.8h-5.8Z"/><path d="m801.42,123.29v5.8h-5.8v-5.8h5.8Z"/><path d="m199.89,163.62h5.8c0,2.1,0,3.95,0,5.8h-5.8v-5.8Z"/><path d="m463.07,146.46v5.56h-5.8v-5.56h5.8Z"/><path d="m910.1,134.81h-5.8v-5.56h5.8v5.56Z"/><path d="m778.55,134.73v5.8h-5.8v-5.8h5.8Z"/><path d="m904.38,134.73v5.8h-5.8v-5.8h5.8Z"/><path d="m468.8,146.54h-5.8v-5.56h5.8v5.56Z"/><path d="m772.83,140.45v5.74h-5.69v-5.74h5.69Z"/><path d="m898.66,140.45v5.56h-5.8v-5.56h5.8Z"/><path d="m927.26,151.97h-5.8v-5.56h5.8v5.56Z"/><path d="m440.2,135.02v5.56h-5.8v-5.56h5.8Z"/><path d="m921.54,151.89v5.56h-5.8v-5.56h5.8Z"/><path d="m222.85,135.02v5.74c-1.97,0-3.83,0-5.69,0,0-1.77,0-3.53,0-5.74h5.69Z"/><path d="m445.92,129.3v5.8h-5.8v-5.8h5.8Z"/><path d="m749.87,169.05h5.8v5.8h-5.8v-5.8Z"/><path d="m228.57,129.3v5.8h-5.8v-5.8h5.8Z"/><path d="m755.59,174.77h5.8v5.8h-5.8v-5.8Z"/><path d="m761.31,180.49h5.8v5.8h-5.8v-5.8Z"/><path d="m451.64,129.38h-5.8v-5.56h5.8v5.56Z"/><path d="m400.16,89.34h-5.8v-5.8c1.85,0,3.7,0,5.8,0v5.8Z"/><path d="m371.56,83.55v5.8c-2.1,0-3.95,0-5.8,0v-5.8h5.8Z"/><path d="m308.65,89.34h-5.8v-5.8c1.85,0,3.69,0,5.8,0v5.8Z"/><path d="m795.63,203.37h5.8v5.8h-5.8v-5.8Z"/><path d="m251.45,117.86v5.8h-5.8v-5.8h5.8Z"/><path d="m280.04,83.55v5.8c-2.1,0-3.95,0-5.8,0v-5.8h5.8Z"/><path d="m348.68,112.14v5.8h-5.8v-5.8h5.8Z"/><path d="m257.17,112.14v5.8h-5.8v-5.8h5.8Z"/><path d="m337.17,203.74v-5.56h5.8v5.56h-5.8Z"/><path d="m915.74,203.45v-5.69h11.45v5.69h-11.45Z"/><path d="m904.3,209.17v-5.8c3.88,0,7.7,0,11.52,0v5.8h-11.52Z"/><path d="m875.7,214.89v-5.8c3.88,0,7.7,0,11.52,0v5.8h-11.52Z"/><path d="m892.86,209.09h11.52v5.57h-11.52v-5.57Z"/><path d="m887.14,209.17v-5.56h5.8v5.56h-5.8Z"/><path d="m841.38,209.09h11.52v5.8h-11.52v-5.8Z"/><path d="m835.67,209.17v-5.56h5.8v5.56h-5.8Z"/><path d="m829.95,214.89v-5.8h5.8v5.8h-5.8Z"/><path d="m921.46,174.85v-5.8h5.8v5.8h-5.8Z"/><path d="m921.54,180.57h-5.56v-5.8h5.56v5.8Z"/><path d="m927.26,186.28h-5.8v-5.8h5.8v5.8Z"/><path class="cls-24" d="m325.74,186.52v5.68h-5.59v5.56h-17.15v-5.44h-5.73v-5.55h-5.73v5.46h-17.16v5.54h-11.45v-5.47h-11.45v-5.62h-17.22c0-2.14,0-4,0-5.87,0,0-.05.05-.05.05h11.38v-5.58h5.72v5.42h5.72v5.69h17.14v-5.39h17.14v-5.86h5.87l-.05-.05v5.65h5.7v5.83h22.95l-.05-.05Z"/><path class="cls-24" d="m394.38,175.08v5.65h5.7v5.83h22.95l-.05-.05v5.69h-5.6v5.56h-17.18v-5.39h-5.64v-5.64h-5.84v5.45h-17.08v5.62h-11.46v-5.42h-11.46v-5.74h-11.28v-5.74h5.47v-5.68h5.64v5.54h5.74v5.55h17.18v-5.41h17.08v-5.8h5.89l-.05-.05Z"/><path class="cls-24" d="m365.83,117.93v-5.55h11.23v5.51h-11.28l.05.05Z"/><path class="cls-24" d="m274.31,117.93v-5.55h11.23v5.51h-11.28l.05.05Z"/><path class="cls-24" d="m302.91,112.16h-5.55v-5.51h5.5v5.56l.05-.05Z"/><path class="cls-24" d="m423.02,186.56v-5.55h5.51v5.5c-1.85,0-3.71,0-5.56,0,0,0,.05.05.05.05Z"/><path class="cls-24" d="m325.79,186.56v-5.55h5.51v5.5c-1.85,0-3.71,0-5.56,0,0,0,.05.05.05.05Z"/><path class="cls-24" d="m228.51,175.12h5.72c0,1.99,0,3.86,0,5.72,0,0,.05-.05.05-.05-1.79,0-3.58,0-5.72,0v-5.72l-.05.05Z"/><path class="cls-24" d="m394.42,175.12v-5.55h5.51v5.5c-1.85,0-3.71,0-5.56,0,0,0,.05.05.05.05Z"/><path class="cls-24" d="m297.19,175.12v-5.55h5.51v5.5c-1.85,0-3.71,0-5.56,0,0,0,.05.05.05.05Z"/><path class="cls-24" d="m228.55,175.08h-5.55v-5.51h5.5c0,1.85,0,3.71,0,5.56,0,0,.05-.05.05-.05Z"/><path class="cls-24" d="m365.78,117.88v5.55h-5.51v-5.5c1.85,0,3.71,0,5.56,0,0,0-.05-.05-.05-.05Z"/><path class="cls-24" d="m274.27,117.88v5.55h-5.51v-5.5c1.85,0,3.71,0,5.56,0,0,0-.05-.05-.05-.05Z"/><path class="cls-24" d="m400.1,112.21h5.55v5.51h-5.5v-5.56l-.05.05Z"/><path class="cls-24" d="m302.86,112.21h5.55v5.51h-5.5c0-1.85,0-3.71,0-5.56,0,0-.05.05-.05.05Z"/><path class="cls-24" d="m400.14,112.16h-5.55v-5.51h5.5c0,1.85,0,3.71,0,5.56,0,0,.05-.05.05-.05Z"/><path class="cls-24" d="m784.21,186.27h17.09v-5.58h5.72v5.41h5.72v5.69h17.14v-5.39h17.14v-5.86h5.87l-.05-.05v5.65h5.7v5.83h22.95l-.05-.05v5.68h-5.59v5.56h-17.16v-5.44h-5.73v-5.55h-5.73v5.46h-17.16v5.54h-11.45v-5.48h-11.45v-5.62h-22.93v-5.87l-.05.05Z"/><path class="cls-24" d="m824.29,123.35v-5.55h11.23v5.51h-11.28l.05.05Z"/><path class="cls-24" d="m858.61,117.59h-5.55v-5.51h5.5v5.56l.05-.05Z"/><path class="cls-24" d="m858.56,117.63h5.55v5.51h-5.5c0-1.85,0-3.71,0-5.56l-.05.05Z"/><path class="cls-24" d="m824.24,123.31v5.55h-5.51v-5.5c1.85,0,3.71,0,5.56,0l-.05-.05Z"/><path class="cls-24" d="m778.53,180.5h-5.55v-5.51h5.5c0,1.84,0,3.7,0,5.55,0,0,.05-.05.05-.05Z"/><path class="cls-24" d="m852.89,180.55v-5.55h5.51v5.5c-1.85,0-3.71,0-5.56,0l.05.05Z"/><path class="cls-24" d="m784.25,186.22h-5.72c0-1.99,0-3.86,0-5.73,0,0-.05.05-.05.05,1.79,0,3.58,0,5.72,0,0,2,0,3.86,0,5.73l.05-.05Z"/><path class="cls-24" d="m881.48,191.99v-5.55h5.51v5.5c-1.85,0-3.71,0-5.56,0l.05.05Z"/><path class="cls-21" d="m2221.69,838.3c0-3.86,0-7.71,0-11.57l-.02.02c.31,0,.62,0,.92,0,20.04,0,40.09,0,60.13,0,10.47,0,20.94,0,31.41,0l-.02-.02c0,3.86,0,7.71,0,11.57h-92.45Z"/><path class="cls-21" d="m2187.01,780.53c-3.85,0-7.7,0-11.55,0v-69.34c3.86,0,7.71,0,11.57,0l-.02-.02c0,15.11,0,30.21.01,45.32,0,.31.03.61.04.92,0,.38-.02.77-.02,1.15,0,7.32-.01,14.63-.02,21.95h-.01Z"/><path class="cls-21" d="m2210.14,815.18h-11.53v-23.07h-11.6c0-3.9,0-7.74,0-11.58,0,0,.01-.01.01-.01h23.11v-11.55h1.02c10.91,0,21.82,0,32.73,0,.31,0,.62-.02.92-.02.18,0,.36.02.54.02,15.05,0,30.1,0,45.15,0,.18,0,.36-.02.54-.02.31,0,.62.02.92.02,10.94,0,21.87,0,32.81,0,.3,0,.6,0,.97,0v11.53c.37,0,.67,0,.97,0,7.37,0,14.74.01,22.1.02h.01v11.54h-11.55v23.12h-11.59l.02.02v-23.15h-11.6v-11.48h-23.12v23.01h-11.57v-23.02h-23.07v23.04h-11.57v-23.03h-23.12v11.54h-11.54v23.09l.02-.02Z"/><path class="cls-21" d="m2233.25,664.96v-11.51h69.32v11.51s.02-.02.02-.02c-7.43,0-14.86,0-22.29.01-.28,0-.56.03-.84.04-7.7,0-15.4,0-23.1,0-.28-.01-.56-.04-.84-.04-7.43,0-14.86,0-22.29-.01l.02.02Z"/><path class="cls-21" d="m2348.8,711.19h11.52v69.34h-11.51c0-1.22-.01-2.43-.02-3.63,0-6.49-.01-12.99-.02-19.48.01-.31.04-.61.04-.92,0-15.11,0-30.21.01-45.32l-.02.02Z"/><path class="cls-21" d="m2210.12,676.5v-11.54h23.13s-.02-.02-.02-.02v11.57c-.33,0-.6,0-.88,0-3.56.01-7.12.03-10.67.04-3.85-.01-7.7-.02-11.55-.04h-.01Z"/><path class="cls-21" d="m2302.57,664.96h23.13v11.54h-.01c-3.85.03-7.7.04-11.55.05-2.66-.01-5.32-.03-7.98-.04-1.17,0-2.34,0-3.57,0v-11.57l-.02.02Z"/><path class="cls-21" d="m2187.03,711.19v-23.13h11.54s.01.01.01.01c.01,3.85.02,7.7.04,11.55-.01,2.66-.03,5.32-.04,7.98,0,1.17,0,2.34,0,3.57h-11.57l.02.02Z"/><path class="cls-21" d="m2337.26,688.06h11.54v23.13l.02-.02h-11.57c0-.33,0-.6,0-.88-.01-3.56-.03-7.12-.04-10.67.01-3.85.02-7.7.04-11.55h.01Z"/><path class="cls-21" d="m2198.57,688.06v-11.56h11.56s.01.01.01.01v11.56h-11.57Z"/><path class="cls-21" d="m2325.71,676.5h11.56v11.56s-.01.01-.01.01h-11.56v-11.56h.01Z"/><path class="cls-21" d="m2325.69,815.18v11.56h-11.56l.02.02v-11.56h11.56l-.02-.02Z"/><path class="cls-21" d="m2221.7,826.74h-11.56v-11.56l-.02.02h11.56v11.56l.02-.02Z"/><path class="cls-2" d="m2221.68,826.76v-11.56h-11.56v-23.09h11.54v-11.54h23.12v23.03h11.57v-23.04h23.07v23.02h11.57v-23.01h23.12v11.48h11.6v23.15h-11.56v11.56c-10.47,0-20.94,0-31.41,0-20.04,0-40.09,0-60.13,0-.31,0-.62,0-.92,0Z"/><path class="cls-6" d="m2325.69,676.52v11.56h11.56c-.01,3.85-.02,7.7-.04,11.55-3.82,0-7.64,0-11.53,0v11.58h-11.5v34.69h11.55v11.52h23.03c0,6.49.01,12.99.02,19.48,0,1.21.01,2.41.02,3.62-7.37,0-14.74-.01-22.1-.02-.3,0-.6,0-.97,0v-11.53c-.37,0-.67,0-.97,0-10.94,0-21.87,0-32.81,0-.31,0-.62-.02-.92-.02,0-3.84,0-7.68,0-11.56h11.52v-34.66h-11.54v-11.5h-46.24v11.55h-11.46v34.66h11.5v11.5c-.31,0-.62.02-.92.02-10.91,0-21.82,0-32.73,0h-1.02v11.55h-23.11c0-7.32.01-14.63.02-21.95,0-.38.01-.77.02-1.15,7.67,0,15.34,0,23.08,0v-11.58h11.5v-34.69h-11.55v-11.53h-11.47c-.01-3.85-.02-7.7-.04-11.55h11.56v-11.56c3.85.01,7.7.02,11.55.04,0,7.69,0,15.37,0,23.01h23.14v-11.5h11.54v-23.07c7.7,0,15.4,0,23.1,0,0,7.69,0,15.37,0,23.1h11.56v11.5h23.11v-23.04c3.85-.01,7.7-.02,11.55-.04Z"/><path class="cls-2" d="m2198.62,699.62h11.47v11.53h11.55v34.69h-11.5v11.58c-7.74,0-15.41,0-23.08,0-.01-.31-.04-.61-.04-.92,0-15.11,0-30.21-.01-45.32h11.57c0-1.23,0-2.4,0-3.57.01-2.66.03-5.32.04-7.98Z"/><path class="cls-2" d="m2244.8,768.94v-11.5h-11.5v-34.66h11.46v-11.55h46.24v11.5h11.54v34.66h-11.52c0,3.88,0,7.72,0,11.56-.18,0-.36.02-.54.02-15.05,0-30.1,0-45.15,0-.18,0-.36-.02-.54-.02Z"/><path class="cls-2" d="m2256.36,665v23.07h-11.54v11.5h-23.14c0-7.64,0-15.33,0-23.01,3.56-.01,7.12-.03,10.67-.04.27,0,.55,0,.88,0v-11.57c7.43,0,14.86,0,22.29.01.28,0,.56.03.84.04Z"/><path class="cls-2" d="m2314.14,676.55v23.04h-23.11v-11.5h-11.56c0-7.73,0-15.41,0-23.1.28-.01.56-.04.84-.04,7.43,0,14.86,0,22.29-.01v11.57c1.23,0,2.4,0,3.57,0,2.66.01,5.32.03,7.98.04Z"/><path class="cls-2" d="m2348.77,757.41h-23.03v-11.52h-11.55v-34.69h11.5v-11.58c3.89,0,7.71,0,11.53,0,.01,3.56.03,7.12.04,10.67,0,.27,0,.55,0,.88h11.57c0,15.11,0,30.21-.01,45.32,0,.31-.03.61-.04.92Z"/><rect class="cls-29" x="1892.3" y="909.03" width="85.03" height="33.06"/><rect class="cls-29" x="1984.2" y="909.03" width="85.03" height="33.06"/><rect class="cls-29" x="2076.1" y="909.03" width="85.03" height="33.06"/><rect class="cls-29" x="2168" y="909.03" width="85.03" height="33.06"/><rect class="cls-29" x="2259.9" y="909.03" width="85.03" height="33.06"/><rect class="cls-29" x="2351.8" y="909.03" width="85.03" height="33.06"/><rect class="cls-29" x="1892.3" y="842.91" width="85.03" height="33.06"/><rect class="cls-29" x="1984.2" y="842.91" width="85.03" height="33.06"/><rect class="cls-29" x="2076.1" y="842.91" width="85.03" height="33.06"/><rect class="cls-29" x="2168" y="842.91" width="85.03" height="33.06"/><rect class="cls-29" x="2259.9" y="842.91" width="85.03" height="33.06"/><rect class="cls-29" x="2351.8" y="842.91" width="85.03" height="33.06"/><rect class="cls-29" x="1938.25" y="875.97" width="85.03" height="33.06"/><rect class="cls-29" x="2030.15" y="875.97" width="85.03" height="33.06"/><rect class="cls-29" x="2122.05" y="875.97" width="85.03" height="33.06"/><rect class="cls-29" x="2213.95" y="875.97" width="85.03" height="33.06"/><rect class="cls-29" x="2305.85" y="875.97" width="85.03" height="33.06"/><rect class="cls-29" x="2397.75" y="875.97" width="39.08" height="33.06"/><rect class="cls-29" x="1892.3" y="875.97" width="39.08" height="33.06"/></svg>