<?xml version="1.0" encoding="UTF-8" standalone="no"?><!DOCTYPE svg PUBLIC "-//W3C//DTD SVG 1.1//EN" "http://www.w3.org/Graphics/SVG/1.1/DTD/svg11.dtd"><svg width="100%" height="100%" viewBox="0 0 152 117" version="1.1" xmlns="http://www.w3.org/2000/svg" xmlns:xlink="http://www.w3.org/1999/xlink" xml:space="preserve" xmlns:serif="http://www.serif.com/" style="fill-rule:evenodd;clip-rule:evenodd;stroke-linejoin:round;stroke-miterlimit:1.41421;"><rect id="turkis-antiDNB" serif:id="turkis antiDNB" x="0" y="0" width="151.343" height="116.232" style="fill:none;"/><g><path d="M39.518,74.589l2.405,0c1.517,0 2.759,-0.453 3.727,-1.36c0.967,-0.906 1.451,-2.24 1.451,-4.001c0,-1.778 -0.484,-3.12 -1.451,-4.027c-0.968,-0.906 -2.21,-1.36 -3.727,-1.36l-2.405,0l0,10.748Zm2.562,3.896l-6.694,0l0,-18.54l6.72,0c2.807,0 5.06,0.837 6.76,2.51c1.7,1.674 2.55,3.932 2.55,6.773c0,2.842 -0.85,5.095 -2.55,6.76c-1.7,1.665 -3.962,2.497 -6.786,2.497Z" style="fill:#464646;fill-rule:nonzero;"/><path d="M57.247,70.431l5.204,0c-0.035,-0.593 -0.266,-1.107 -0.693,-1.543c-0.427,-0.436 -1.068,-0.653 -1.922,-0.653c-0.767,0 -1.377,0.226 -1.83,0.679c-0.454,0.454 -0.706,0.959 -0.759,1.517Zm5.492,3.373l3.321,0.942c-0.331,1.203 -1.02,2.192 -2.066,2.968c-1.046,0.776 -2.354,1.164 -3.923,1.164c-1.882,0 -3.482,-0.628 -4.798,-1.883c-1.316,-1.255 -1.974,-2.938 -1.974,-5.047c0,-2.022 0.64,-3.67 1.922,-4.943c1.281,-1.272 2.802,-1.908 4.563,-1.908c2.022,0 3.613,0.588 4.772,1.765c1.159,1.176 1.739,2.811 1.739,4.903c0,0.662 -0.026,1.072 -0.078,1.229l-9.048,0c0.035,0.715 0.34,1.312 0.915,1.791c0.575,0.48 1.255,0.719 2.04,0.719c1.342,0 2.214,-0.566 2.615,-1.7Z" style="fill:#464646;fill-rule:nonzero;"/><path d="M67.786,74.798l3.373,-0.601c0.035,0.488 0.222,0.902 0.562,1.242c0.34,0.34 0.833,0.51 1.478,0.51c0.488,0 0.863,-0.109 1.124,-0.327c0.262,-0.218 0.392,-0.484 0.392,-0.798c0,-0.523 -0.427,-0.88 -1.281,-1.072l-1.49,-0.34c-1.325,-0.279 -2.302,-0.771 -2.929,-1.477c-0.628,-0.706 -0.942,-1.547 -0.942,-2.524c0,-1.203 0.475,-2.222 1.426,-3.059c0.95,-0.837 2.139,-1.255 3.569,-1.255c1.691,0 2.959,0.405 3.805,1.216c0.845,0.81 1.312,1.695 1.399,2.654l-3.295,0.601c-0.052,-0.471 -0.231,-0.854 -0.536,-1.15c-0.305,-0.297 -0.745,-0.445 -1.321,-0.445c-0.383,0 -0.714,0.105 -0.993,0.314c-0.279,0.209 -0.419,0.479 -0.419,0.81c0,0.523 0.34,0.846 1.02,0.968l1.726,0.34c1.307,0.261 2.301,0.758 2.981,1.491c0.68,0.732 1.02,1.595 1.02,2.588c0,1.203 -0.453,2.236 -1.36,3.099c-0.906,0.863 -2.179,1.295 -3.818,1.295c-0.959,0 -1.809,-0.14 -2.549,-0.419c-0.741,-0.279 -1.308,-0.64 -1.7,-1.085c-0.392,-0.445 -0.689,-0.885 -0.889,-1.321c-0.201,-0.435 -0.318,-0.854 -0.353,-1.255Z" style="fill:#464646;fill-rule:nonzero;"/><path d="M85.019,78.485l-3.975,0l0,-12.996l3.975,0l0,12.996Zm-3.635,-15.324c-0.454,-0.453 -0.68,-1.002 -0.68,-1.647c0,-0.645 0.226,-1.194 0.68,-1.647c0.453,-0.454 0.993,-0.68 1.621,-0.68c0.645,0 1.199,0.226 1.661,0.68c0.461,0.453 0.692,1.002 0.692,1.647c0,0.645 -0.231,1.194 -0.692,1.647c-0.462,0.454 -1.016,0.68 -1.661,0.68c-0.628,0 -1.168,-0.226 -1.621,-0.68Z" style="fill:#464646;fill-rule:nonzero;"/><path d="M87.581,79.218l3.504,-0.994c0.14,0.645 0.458,1.168 0.955,1.569c0.497,0.401 1.111,0.601 1.843,0.601c2.145,0 3.217,-1.107 3.217,-3.321l0,-0.601c-0.645,0.976 -1.805,1.464 -3.478,1.464c-1.726,0 -3.164,-0.601 -4.315,-1.804c-1.15,-1.203 -1.726,-2.711 -1.726,-4.524c0,-1.743 0.571,-3.238 1.713,-4.485c1.142,-1.246 2.585,-1.87 4.328,-1.87c0.959,0 1.743,0.166 2.353,0.497c0.611,0.332 1.029,0.706 1.256,1.125l0,-1.386l3.791,0l0,11.375c0,2.022 -0.584,3.692 -1.752,5.008c-1.168,1.316 -2.902,1.974 -5.204,1.974c-1.778,0 -3.255,-0.458 -4.432,-1.373c-1.177,-0.915 -1.861,-2 -2.053,-3.255Zm4.76,-5.518c0.523,0.523 1.194,0.784 2.013,0.784c0.819,0 1.486,-0.261 2.001,-0.784c0.514,-0.523 0.771,-1.22 0.771,-2.092c0,-0.854 -0.27,-1.547 -0.811,-2.079c-0.54,-0.532 -1.194,-0.798 -1.961,-0.798c-0.767,0 -1.425,0.266 -1.974,0.798c-0.549,0.532 -0.824,1.225 -0.824,2.079c0,0.872 0.262,1.569 0.785,2.092Z" style="fill:#464646;fill-rule:nonzero;"/><path d="M108.344,71.033l0,7.452l-3.974,0l0,-12.996l3.844,0l0,1.49c0.331,-0.575 0.841,-1.024 1.529,-1.346c0.689,-0.323 1.391,-0.484 2.105,-0.484c1.552,0 2.729,0.484 3.531,1.451c0.802,0.968 1.203,2.21 1.203,3.727l0,8.158l-3.975,0l0,-7.479c0,-0.679 -0.179,-1.224 -0.536,-1.634c-0.358,-0.41 -0.885,-0.614 -1.582,-0.614c-0.645,0 -1.164,0.213 -1.556,0.64c-0.393,0.427 -0.589,0.972 -0.589,1.635Z" style="fill:#464646;fill-rule:nonzero;"/></g><text x="34.539px" y="54.113px" style="font-family:'Tourmaline-Bold', 'Tourmaline';font-weight:700;font-size:31.833px;fill:#29a1ae;">O<tspan x="57.714px 71.371px 93.877px " y="54.113px 54.113px 54.113px ">LVE</tspan></text></svg>