<svg xmlns="http://www.w3.org/2000/svg" xmlns:xlink="http://www.w3.org/1999/xlink" viewBox="0 0 1105.17 566.29"><defs><style>.cls-1{fill:url(#linear-gradient);}.cls-2{fill:#8ed4db;}.cls-3{fill:url(#linear-gradient-2);}</style><linearGradient id="linear-gradient" x1="0.22" y1="-92.38" x2="973.18" y2="569.09" gradientUnits="userSpaceOnUse"><stop offset="0.02" stop-color="#4455a5"/><stop offset="0.26" stop-color="#4c79a6"/><stop offset="0.56" stop-color="#55a1a8"/><stop offset="0.81" stop-color="#5ab9a9"/><stop offset="0.96" stop-color="#5cc2a9"/></linearGradient><linearGradient id="linear-gradient-2" x1="364.39" y1="312.93" x2="718.44" y2="312.93" gradientTransform="matrix(-1, 0, 0, 1, 1081.72, 0)" xlink:href="#linear-gradient"/></defs><title>lytt_grafisk</title><g id="selfmade"><rect class="cls-1" width="1105.17" height="566.29"/><path class="cls-2" d="M709.26,143.84a40.75,40.75,0,0,0-10,2c-7.1,2.11-9-1-16-1s-8,1-16,2-13.24-1-17-1c-4,0-9.19.31-16,0-11-.51-12.53-3-23-3-9,0-11,2-27,1-15.71-1-16.11,1-23,1-11,0-14,1-24-1-9.72-1.94-12.56,1.18-20,1-10.42-.26-11.92-2-22-2-7.74,0-6.84,2.34-17,3-8.86.58-10.39-1-18,0-8,1-7.73-.17-18,2-6.16,1.3-6.37,3.31-16,5-3.31.58-8.56,3.35-14,5-4.93,1.5-8.29,2-13,4-8.14,3.53-11.27,5.35-14,8-3.68,3.57-3.39,4.41-5,8-3.75,8.4-3.67,9.15-7,15-4.06,7.15-6.05,6.09-8,12s-.16,8-2,15c-1.76,6.73-3.77,6.9-4,12-.26,5.95,3.15,6.89,4,14a35.23,35.23,0,0,1-2,14c-2.73,8.19-3,11-3,15,0,7.07,3.91,9.68,7,20,3,10,2,15,4,22,1.74,6.09,3,8,8,18,2.94,5.88,3.07,9.32,4,12,3.54,10.16,6,14,10,21,3,5.26,5,8,13,16,7,7,10.36,13.35,15,18,4,4,6.89,5.92,15,12,10.28,7.7,9.15,11.15,14,16,6,6,6.68,6.51,9,10,4,6,12.16,9,17,13s6.63,6.57,14,11c5,3,7.19,4.44,11,7a86.72,86.72,0,0,0,16,9c4.94,2,15.07,3,26,3,6,0,5.9-5.56,15-7,14.67-2.33,15.1-3.81,20-15,3.14-7.15,11-8,14-12,6.27-8.36,12.45-9.57,18-17,8-10.66,8.3-15.29,15-25,10.78-15.6,17-22,22-25,8.65-5.19,6.46-15.75,11-21,7.15-8.25,12.72-7.57,19-15,5.41-6.39,5-8,9-16,4.2-8.39,9.51-5.75,17-16,7-9.53,8.25-18,9-20a114.29,114.29,0,0,0,7-29c1.4-15-1.5-13.1,0-27,1.34-12.31,4.91-12.18,6-24,1-10.88-2.31-11.16-2-27,.4-19.83,2.54-23.51-1-31C717.43,149.85,715.51,143.58,709.26,143.84Z" transform="translate(11.87 4.53)"/><path class="cls-3" d="M534.23,353.49c9.42,1.44,11.58,19.5,13,28.49,1.87,11.61-.56,24.94-13,27-13,2.17-25.47-9.06-26-22C507.68,372.9,521.35,351.53,534.23,353.49Zm-64-5.51a20.34,20.34,0,0,0-14,23c1.82,10.59,11.7,20.1,23,19,8.72-.84,15.86-7.75,18-16,3.15-12.15-6.14-17.19-7-18C489.24,355,476.26,346,470.26,348Zm-34.05-50c-7.82-2.63-11.86-1.41-14.47,6.61-4.72,14.48,2,33.76,15.56,38.75,7.42,2.74,18.31,1.52,22.63-5.06,3-4.63-9.35-9.34-11.68-18.29C445.1,307.89,443.86,300.53,436.21,298Zm-11.95-56c-11.46,2.63-16.81,18.42-14,30,2.05,8.46,9.45,18.81,20,19,10.07.19,8.61-7.57,10-16,2-12.14,4-17.14,7-27C450,239.05,434.29,239.68,424.26,242Zm61-54c-6.77-7.54-24.81-3.15-35,6-7.44,6.69-15.87,20.56-10,30,4.53,7.28,16.43,11,23,7,5-3,10-10,20-15C493.46,210.88,491.7,195.16,485.26,188Zm83,22c5-5.54-2.64-23.45-15-33s-26.09-8.36-30-8c-4.16.39-24.82,2.32-29,16-2.43,8-.8,14.36,6,18,5.78,3.1,21-1,32-2C558,198.65,562.73,216.17,568.26,210Zm15,15c-2.13,4.43,15.15,8.85,17.47,20.75,2.75,14.13-3.73,16.08-7.47,28.25-2.76,9-4,22.36,5,25,12,3.53,36.56-19,36-44-.3-13.43-7.89-24.17-22-30C600.34,220.06,587,217.31,583.26,225Zm-3.82,80.1c-1.24.77-15.62,20.31-16.12,31.55-.4,9.21,16.17,15.34,23.94,18.35,13.18,5.11,29.77-7.47,31-21a20.68,20.68,0,0,0-8-18C602.39,310.09,586.09,300.94,579.44,305.08Zm2.68,58.52c-7.32-4.72-24.48-18.41-27.92-14.62-7,7.68,4,43.75,11.06,48,8.54,5.16,25.55-3.51,26-15C591.52,375.27,590.26,368.84,582.12,363.6ZM546.26,410c-3.51,6.69.43,16.18,8,18a12.37,12.37,0,0,0,6-24A12.43,12.43,0,0,0,546.26,410Zm-42,4c-4.28,4-3.94,12.5,0,18,3.15,4.4,9.75,8.5,16,6,6.61-2.63,9.07-11.12,7-17C524.09,412,510.1,408.56,504.26,414Zm-23-17c-3.37,3.77-4.59,10.38-1,15,3.84,4.94,11.24,5.1,16,2,5.62-3.65,7.69-11.92,4-17C496.11,391.28,486.11,391.57,481.26,397Zm-45-24c-3.06,3.46,5.68,18.87,10,18,2.79-.55,5.84-8.35,2-14C445,372.18,438.09,370.92,436.26,373Zm1-15c-.22,3.86,2.38,10,9,8,7.19-2.14,8.65-12.11,6-15C448.62,347,437.58,352.37,437.26,358ZM410,340c-3.42,3.33.9,18.42,10.48,19.25,5.26.46,11.45-2.76,11.66-7C432.45,344.66,413.86,336.17,410,340Zm3.31-36c-4.44-5.19-14.45-4.42-18,0-5.43,6.76,3.42,23,10,23,4.25,0,7.41-6.73,8-8S417.8,309.29,413.26,304Zm-9-31c-4.82-2.71-11.12-1.47-14,2-5.19,6.27.5,20.07,8,21,4.36.55,9.22-3.27,11-8C411.22,282.77,409.6,276,404.26,273Zm3-31c-2.4-3.69-10.09-3.94-14,0-4.4,4.44-3,13.12,1,15,3.64,1.73,8.61-2.65,9-3C406.4,251.16,409.54,245.5,407.26,242Zm11-31c-4.59,2.24-5.5,13.82,0,20,2.59,2.91,7.9,6.11,12,4,3.87-2,4.51-7.6,4-11C433,215.59,423,208.68,418.26,211Zm8-27c-3.46,1.13-5.94,8.23-3,13,1.95,3.18,6.4,5.5,10,4a6.94,6.94,0,0,0,4-5C438.41,190,430.62,182.56,426.26,184Zm17-7c-.2,2.45,5.47,6.85,11,5,4.72-1.57,7.29-7,6-9C458.11,169.66,443.57,173.22,443.26,177Zm30-11c-.72,2.36,7.14,6.54,8,7,3.14,1.67,5.55,3,8,2,2.73-1.06,4.85-4.67,4-7C491.37,162.78,474.25,162.75,473.26,166Zm95,3c-1.59,1.59.65,7,4,10,5.84,5.25,15.31,3.44,16,1C589.32,176.26,571.32,165.94,568.26,169Zm19.27,25.87c-3.18,2.48-6.49,7.22-5.33,11.16,1.76,6,13,7.22,19,6.93,9.86-.48,21.87-5.88,21.61-10.91C622.45,195.13,598.87,186,587.53,194.85ZM636.26,207c-5.27,2.54-7.7,10-7,16,.76,6.64,5.52,13.58,13,15,9.29,1.77,18.13-5.86,19-13C662.58,214.12,645.65,202.46,636.26,207Zm17,46c-4.15-1.32-9.46,4.41-10,5s-4.91,5.56-4,12c1.29,9.17,12.36,15.34,17,13C663.08,279.54,660.64,255.33,653.26,253Zm-16,37c-6.54.51-11.33,6.72-13,12-2.94,9.3,1.73,22.19,11,24,8.48,1.67,18-6.49,19-16C655.37,299.64,646.26,289.29,637.26,290Zm-10,47.51c-3.55,3.12-7.28,9.51-4,13.3,3.06,3.51,10.81,3.28,14.94,0,5.88-4.67,3.76-15-1-16.85C633.16,332.39,627.65,337.13,627.24,337.49Zm-18,24.49c-4.74-.18-7.83,3.77-8,4-3.21,4.26-2.67,10.84,1,14,5.14,4.44,15.24,1.19,17-5C620.84,369.42,615.47,362.23,609.26,362Zm-19,35c-1.84,3-2.81,8.24,0,11,3.19,3.15,9.73,1.67,13-2,3.65-4.08,3.73-11.46,0-14S593,392.49,590.26,397Zm-13,22c-1.39,4.25,3.38,9.5,6,9,1.92-.36,2.88-3.84,3-6,.11-2-.32-6.22-3-7C581,414.31,578.06,416.53,577.26,419Zm-46,18a7.08,7.08,0,0,0,5,4,7.58,7.58,0,0,0,8-4c2.34-4.92-2.79-12.18-7-12C533.23,425.16,529.16,432.22,531.26,437Zm-28,5c-3.63,2.24-4.21,8.38-1,11a6.77,6.77,0,0,0,9-10A6.6,6.6,0,0,0,503.26,442Zm-15-3c.51,2.54,3.8,4.67,6,4,3.61-1.09,4.29-9.71,2-11C494.12,430.78,487.44,434.88,488.26,439Zm-8-12c.42,1.18,4.33,4,7,3,5.32-2,8-7.92,7-9C492.65,419.27,479.4,424.6,480.26,427Zm-20-12c1.12,3.41,5.32,5.08,7,4,2.67-1.7.84-11.47-2-12C463.21,406.61,458.86,410.73,460.26,415Zm-9-20c-.37,2.75,2.48,6,5,6,3.88-.05,6.88-8,5-10S451.82,390.86,451.26,395Zm-13,0c-.75,1.91,5.39,7.32,8,6,1.39-.7,1.83-3.32,1-5C445.6,392.59,438.92,393.31,438.26,395Zm-10-12c-1.85,1.46-1.3,4.95,0,7s4.05,3.88,6,3c2.23-1,2.87-5.35,1-8C433.68,382.75,430.14,381.51,428.26,383Zm-5-17c-1.13,1.75,1.54,7.3,5,7,2.36-.2,4.49-3.07,4-5C431.51,365,424.51,364.07,423.26,366Zm-13-1c-1.72,2.32-.42,6.3,2,7,1.88.55,4.2-1,5-3a4.43,4.43,0,0,0-1-5C414.46,362.54,411.55,363.25,410.26,365Zm8,9c-1.48,1.79.47,7.18,4,8,1.73.41,4.25-.2,5-2,1-2.33-1.79-4.81-2-5C423.12,373.11,419.44,372.55,418.26,374Zm-19-15c.19,2.59,4.34,5.19,7,4,3.13-1.4,3.18-7.59,1-9S399,355.76,399.26,359Zm-4-12c-.17,1.89,3.41,5.33,7,4,3.3-1.21,4.19-5.56,3-7C403.49,341.84,395.49,344.32,395.26,347Zm1-14c-1,2.12,3.45,7,7,6,2.22-.64,2.84-2.93,2-5C403.9,330.67,397.28,330.82,396.26,333Zm-11,3c.19,1.43,5.19,3.21,7,1,.92-1.11,1-3.19,0-4C390.46,331.47,385.05,334.41,385.26,336Zm-1-9c.22,1.62,3.92,3.72,7,2s3.26-6,2-7C391.34,320.39,383.92,324.51,384.26,327Zm-5-14c.06,1.8,3.78,4.63,7,3,3-1.52,3.3-5.78,2-7C386.33,307.18,379.17,310.43,379.26,313Zm2-21c-3,1.59-4.54,6.68-2,10a6.78,6.78,0,0,0,8,2,6.56,6.56,0,0,0,4-6C391.06,293.57,385.05,290,381.26,292Zm-12-15c-1.27,1.34,2.57,8.33,5,8,1.26-.17,2.2-2.32,2-4C375.84,277.44,370.3,275.89,369.26,277Zm2,14c-.75,1.71,1.67,4.3,3,4s2.4-3.85,1-5A3,3,0,0,0,371.26,291Zm42.66,85.28c-.91-1.63-4.44-1.25-5,0s1.64,4.22,3.4,3.8A3,3,0,0,0,413.92,376.26ZM372.26,302c-1.2,1.45,1.21,6.13,3,6,1.31-.09,3.25-2.84,2-5C376.11,301,373.09,301,372.26,302Zm16-38c-2.3-2-6.07-1.19-8,1s-2.28,6,0,8,6.07,1.2,8-1S390.54,266,388.26,264Zm-9-16c-1.52.76-1.55,4-1,6,.23.83,1,3.55,3,4s4.71-1.77,5-4C386.73,250.41,381.37,246.94,379.26,248Zm10,107c0,1.51,4.75,3.33,6,2,.78-.82.4-3.07-1-4C392.25,351.65,389.24,353.77,389.26,355Zm24,29.93c-.54,1.14.46,3.2,2.59,4.72,2.73-1.49,4.24-3.53,3.81-4.64C419,383.37,414.1,383.08,413.24,384.91Zm-14-15.93c-.73,2,3,5.73,5,5,1.59-.57,2.81-4.18,1-6S399.84,367.39,399.26,369Zm19,25c.28,1.7,3.89,3.61,6,2,1.95-1.49,1.47-5.12,0-6C422.34,388.84,417.92,391.91,418.26,394Zm10,6c-.5,2.41,4.78,6.28,7,5,1.65-.94,2.36-5.14,0-7S428.65,398.11,428.26,400Zm18,15c.6.71,2.76-.09,4-1,3.24-2.37,3.07-7.55,2-8C450.72,405.34,445,413.49,446.26,415Zm3,6c0,1.74,2.91,3.92,5,3s2.37-4.92,1-6C453.66,416.73,449.25,418.84,449.26,421Zm18,5c-2.67-.55-5.31-1.09-6,0s.77,4,3,5c3.45,1.56,8.17-1.51,8-3C472.14,427,469.83,426.52,467.26,426Zm9,6c-2.09,0-4.81,1.19-5,3s2.47,4,5,4,5.2-2.07,5-4S478.35,432,476.26,432Zm1,12c-.83,1.95.5,4.08,2,5,2,1.22,5,.81,6-1,1.15-2-.49-5.26-3-6C480.54,441.48,478.09,442.05,477.26,444Zm11,8c-1.2,1.58-.78,4.46,1,6a4.63,4.63,0,0,0,4,1,4.8,4.8,0,0,0,3-6C495.08,450.29,490,449.69,488.26,452Zm16,17c.15,1.06,3.07,2.48,5,1,1.43-1.09,1.76-3.33,1-4C509,464.89,504.05,467.5,504.26,469Zm-5-9c-.46,1.42,1.09,3.78,3,4,2.66.32,4.76-3.64,4-5C505.39,457.42,500,457.84,499.26,460Zm-25-42a3.46,3.46,0,0,0-1,5,3.3,3.3,0,0,0,4,1,3.46,3.46,0,0,0,1-5A3.32,3.32,0,0,0,474.26,418Zm-8,21c-.95.64-1.12,2.87,0,4,1.56,1.58,4.78.18,5-1C471.52,440.57,467.73,438,466.26,439Zm75,21c-2.44-.81-5.45.58-6,3-.48,2.13,1.11,4.24,3,5,2.12.85,5,.18,6-2S543.69,460.79,541.26,460Zm-22-4a5.29,5.29,0,0,0-5,1,5.81,5.81,0,0,0,0,8c2.55,2.56,7.49,1.82,9-1S522.45,457,519.26,456Zm14-11a6.53,6.53,0,0,0-7,1c-2.45,2.41-1.74,6.57,0,9,1.57,2.2,5,4.38,8,3s3.61-5.39,3-8A7.32,7.32,0,0,0,533.26,445Zm24-8a6,6,0,0,0-6,2c-2.27,2.62-1.25,6.13-1,7,.75,2.59,3.11,6.22,6,6,3.06-.22,5-4.63,5-8C561.23,441.92,560.4,438,557.26,437Zm-9,15c-.19-.31-1.37-2.1-3-2-2,.12-3.7,2.88-3,5,.79,2.4,4.47,3.34,6,2C549.49,455.91,549.2,453.49,548.26,452Zm-21.08,13.81c-.71,1,.19,3,1.53,3.89,1.19.8,3.13,1,3.8,0s-.19-3-1.52-3.89S527.85,464.84,527.18,465.79ZM522.26,470c-1.59.2-2.86,3-2,5,.48,1.11,1.75,2.24,3,2,1.51-.28,2.29-2.39,2-4S523.54,469.83,522.26,470Zm18.51,4.63c0,1.16,1.65,2.3,2.66,2.63a2.75,2.75,0,0,0,3.33-2.63,2.63,2.63,0,0,0-2.5-2.63C542.85,472,540.81,473.28,540.77,474.61Zm-9.51.37c-.3,1.34,2.29,3.76,4,3a3,3,0,0,0,1-4C535.11,472.59,531.57,473.61,531.26,475Zm-19-4c-.9,1.32.66,4,2,4s2.9-2.68,2-4A2.8,2.8,0,0,0,512.26,471Zm38-2c.2,1.52,2.67,2.75,4,2,1.56-.87,1.34-4.32,0-5S550,467.21,550.26,469Zm5-13c-1.86.58-2.21,5.39-1,6s4.56-1.77,4-4A2.8,2.8,0,0,0,555.26,456Zm10,8c-1.4-1.13-3.82-1.38-5,0a3.51,3.51,0,0,0,0,4c1.31,2,4.73,2.51,6,1C567.3,467.75,566.82,465.24,565.26,464Zm62-93c-1,1,0,4.77,2,5a3.07,3.07,0,0,0,3-3C632,371,628.28,370,627.26,371Zm-56,62a6,6,0,0,0-5,4,6.32,6.32,0,0,0,12,4C579.35,437.13,575.24,432.65,571.26,433Zm-7,19a4.62,4.62,0,0,0,1,7,4.3,4.3,0,0,0,5-1,4.24,4.24,0,0,0-6-6Zm11-4a3,3,0,0,0-1,4c1.15,1.4,4.7.38,5-1S577,447.23,575.26,448Zm46-67c-.46,1.19,1.26,4,4,4s4.46-2.81,4-4C628.56,379.17,622,379.17,621.26,381Zm-18,46c-.71-.85-3.5-.57-4,1a2.55,2.55,0,0,0,2,3C602.73,431,604.06,428,603.26,427Zm-160-19.85c-.78-1.11-3.84-.75-4.39,1.3-.46,1.71,1,3.91,2.19,3.91C442.66,412.34,444.12,408.39,443.24,407.13Zm150,23.85c-1.27.76-1.24,5.16,1,6,1.52.57,3.72-.61,4-2C598.7,432.85,594.63,430.17,593.26,431Zm-6,2c-1.2-.57-4.35,1.88-5,5-.71,3.43,1.68,7.15,3,7,1-.11,1.5-2.51,2-5C587.7,437.79,588.55,433.6,587.26,433Zm15-13c.24-1.57-2-3.42-4-4-3.23-.92-6.73,1.2-8,4s-.43,6.61,1,7c.77.22,1.33-.65,3-2C598.73,421.4,602,421.79,602.26,420Zm12-32c-.94,0-4,.09-5,2-.81,1.56.19,3.47,1,5,1.15,2.19,4,7.65,8,7,3.3-.53,6.15-5.07,5-9C621.78,387.93,614.89,388,614.26,388Zm-8.53,26.34c.91,1,4.15-.19,6.18-1.7,1.87-1.4,4-4,3.29-5.12s-4.65-.77-7.09,1.3C606.18,410.43,604.88,413.33,605.73,414.32ZM621.26,358c-1.63,1.34-1.17,7.6,3,9,3.07,1,6.76-1,7-3C631.65,360.82,623.4,356.23,621.26,358Zm15.59.47c-.73,1.3.69,3.47,2.1,4.54,1.84,1.4,4.87,1.88,5.8.63s-.38-4.22-2.52-5.45C640.43,357.14,637.61,357.11,636.85,358.45ZM648.26,348c-2,.71-2.78,3.29-3,4-.28.94-.89,3,0,4,1.81,2.12,9.62,0,10-3C655.56,350.57,651.25,346.93,648.26,348Zm-4,22c-1.28-1.68-4.38-1.59-6,0a3.85,3.85,0,0,0-1,4,4,4,0,0,0,5,2C644.6,375.09,645.61,371.77,644.26,370Zm12-44c-3.54.15-7.36,5-7,10,.35,4.82,4.57,9.27,9,9a7.44,7.44,0,0,0,6-4C667.09,335.33,661.35,325.78,656.26,326ZM669,339.19a3.76,3.76,0,0,0,3,2.05c2,.09,3.71-2,4.06-3.93.56-3-2-6.16-3.9-6.07C669.76,331.36,667.38,336.27,669,339.19Zm4.77-25.53c-3.89-3.11-10.08-3.1-11.12-1.11-.49.93.46,1.62,4.14,8.05,2.28,4,2.75,5.19,4.37,5.83a5.61,5.61,0,0,0,6-1.21C679.46,322.48,677.34,316.54,673.72,313.66Zm3.54-9.68c.83-.53,5.19-3.37,5-8-.16-4.08-3.76-7-7-8a10.5,10.5,0,0,0-12,5c-1.76,3.29-1.86,8.08,1,11C667.87,307.67,674,306.11,677.26,304Zm6,3c-1.28,1-1.07,3.22-1,4,.32,3.34,3,7.41,6,7,2.56-.35,4.73-4,4-7C691.29,307,685.39,305.27,683.26,307Zm18-13c-1.55-.59-6.21,3.39-5,7,.6,1.81,2.66,3.47,4,3C702.77,303.11,703.15,294.7,701.26,294Zm-6-7c-1.52-1.52-5.9-.72-8,2-1.92,2.49-2,6.63,0,8,1.49,1,3.62.17,4,0C695.22,295.29,697.19,288.92,695.26,287Zm-10-26c-3-1.89-8.48.38-11,4-3.94,5.67-.94,15,3,16,3,.74,6.5-3.4,8-6C687.83,270.53,688.77,263.21,685.26,261Zm10,9c-1.87,1-3.86,3.41-3,6a5,5,0,0,0,6,3c3.31-1.11,4.23-7.08,2-9C698.94,268.85,696.66,269.26,695.26,270Zm12,8c-1-.26-2.63,1.87-3,4-.56,3.24,2,6.25,3,6C708.92,287.59,709,278.48,707.26,278Zm-41-40c-2.93,1.89-5.41,6.22-4,10,1.56,4.21,7,5.17,10,5,5.71-.31,11.4-5.08,11-9C682.76,239,672.29,234.11,666.26,238Zm26,9c-2.67,1-3.73,4.49-3,7,1.1,3.79,6.42,5.82,9,4,2.33-1.64,2.31-6.36,0-9C697,247.58,694.58,246.12,692.26,247Zm16,19a2.69,2.69,0,0,0-2,1,3.79,3.79,0,0,0,0,4c1.32,2.37,5,3.09,6,2C713.51,271.56,710.92,266,708.26,266Zm1-26c-1.62-.07-4.45,3.64-3,7,1.21,2.81,4.77,4,6,3C714.25,248.42,711.63,240.09,709.26,240Zm-15-9c-2.11-1.81-5.6-1.71-7,0-1.78,2.18-.1,6.84,3,8a4.68,4.68,0,0,0,5-1C696.94,236.09,696.27,232.71,694.26,231Zm-25-26c-3.26.89-5.14,7.1-4,12,.89,3.83,4,8.65,9,9,3,.22,6.74-1.25,8-4C685.18,215.63,674.55,203.55,669.26,205Zm-16.21-18.59c-3.39.49-6.7,4.29-6.79,8.4-.13,5.71,6,10.35,10.87,9.23a7.32,7.32,0,0,0,5.44-5C663.86,193.74,658.6,185.6,653.05,186.39ZM625,180.26a5.09,5.09,0,0,0-2.06,7.08c2,3.19,7.63,4.06,11.66,3,3-.75,6.3-2.84,6.17-5.06C640.53,181.47,629.94,177.5,625,180.26ZM603.26,163c-3.4-1-9.13-1.2-11,2s1,7.42,2,9c.86,1.36,4.71,7.4,11,7,3-.18,6.89-1.83,8-5C615,171.06,609.1,164.74,603.26,163Zm18-5c-2.81-.56-5.78,1.54-6,4-.25,2.8,3.08,5.31,6,5a4.68,4.68,0,0,0,4-3C626,161.54,624,158.54,621.26,158Zm-39-2c-3.73-2.15-9.57.29-10,3s4,5.91,8,6c.52,0,3.85.09,5-2S584.65,157.37,582.26,156Zm-27,5c-2.18.89-4.44,3.19-4,5,.57,2.36,5.66,3.88,9,2,1.77-1,3.53-3.22,3-5C562.58,160.7,558.3,159.75,555.26,161Zm-23-5.24c-6.52-1.24-9.8-1.14-11,1.52-1.33,3,2.13,5.91,10,6.07,3.91.08,8-.43,8-3C539.26,157.26,536.26,156.5,532.26,155.74Zm-27-.76c-4.28-.95-7.58,1.24-8,4-.5,3.33,3.91,8.5,9,7,2.46-.72,5.27-3.19,5-6C510.9,156.32,505.56,155.05,505.26,155Zm-32.58-.61c-1.25,2.1-.91,3.49,1.31,3.78,1.4.19,4.65.51,6.32-.06a3.08,3.08,0,0,0,1.53-4.76C480.15,151,474.57,151.2,472.68,154.37ZM455.26,160c-1,1.84-.31,4.43,1,6,2.11,2.54,6.48,3.38,9,1a5.84,5.84,0,0,0,1-7C464.05,156.44,457.09,156.74,455.26,160Zm-16,9c.44,1.13,3.69,1.3,6,0,3.24-1.82,4-6.2,3-7C446.64,160.72,438.46,166.93,439.26,169Zm-8-2a5.43,5.43,0,0,0-7,4c-.52,3.25,2.88,6.48,6,6a5.14,5.14,0,0,0,4-4A5.31,5.31,0,0,0,431.26,167Zm-21,14c.34,3.06,3.1,6.22,6,6,3.26-.24,5.27-4.61,5-8-.19-2.39-1.62-5.53-4-6C414.06,172.35,409.79,176.7,410.26,181Zm-5,20c-.9,3,.38,7.09,3,8,3,1.07,6.84-2.49,8-6,.7-2.12.89-5.64-1-7C412.68,194.14,406.59,196.56,405.26,201Zm-11,20a8,8,0,0,0,3,11c4.26,2.16,9.6-.81,11-5a7.66,7.66,0,0,0-2-8A8.25,8.25,0,0,0,394.26,221Zm-4-17c-1.74,2.24,1.74,9.19,5,9,2.35-.13,5.11-4,4-7C397.93,202.38,391.74,202.09,390.26,204Zm9-18c-1.1,2.36,2.83,7.71,6,7,2.45-.54,4.33-4.66,3-7C406.6,183.06,400.32,183.72,399.26,186Zm-20,47c-.13,3.37,2.1,7.07,4,7,2.21-.07,3.62-5.22,4-8,.11-.82.85-6.23-1-7S379.45,228.23,379.26,233Zm-11,14c.77,1.35,5.2,1.85,7-1,1.45-2.29.42-5.54-1-6C372,239.26,367.19,245.1,368.26,247Zm4,18c1.36.42,3.77-1.56,4-4,.31-3.33-3.64-5.64-5-5C369.4,256.86,370,264.31,372.26,265Zm-8.71,3.22c-.86,1.23.31,5,3.47,5.74s5.93-2,5.74-3.46C372.47,268.2,364.88,266.31,363.55,268.2Zm15.84,56.54c2.14.44,4.42-2.5,3.91-4.09-.57-1.77-4.87-2.49-6-.86C376.32,321.14,377.39,324.33,379.39,324.74Zm253-161.07c-.09,1.42,2.4,2.64,4.53,3.67A17.18,17.18,0,0,0,648,168.63c1.4-.31,6-1.32,6.23-3.33s-4-4.05-7.08-4.87C640.4,158.64,632.51,161.2,632.35,163.67Zm33.83,17.61c-1.12,1.72,1.51,5.28,3.21,7.59,2.09,2.83,5.53,7.49,9.14,6.67,3.16-.72,5.54-5.4,4.7-8.83C681.6,180.12,668.11,178.31,666.18,181.28Zm6.08-16.3c-2.09-2.1-6.41-4.77-9-3-2.15,1.48-2.24,5.43-1,8,2.46,5.13,11,6.49,13,4C676.82,172.07,674.77,167.52,672.26,165Zm-26,10c-.75,1.36,1.34,5.32,4,5,1.91-.22,3.46-2.58,3-4C652.57,173.84,647.13,173.42,646.26,175Zm35-15c-1.5,1.3-1.34,5.33,1,7,3,2.18,7.9-.93,8-3C690.38,161.46,683.51,158,681.26,160Zm6,13c-1.52.74-1.52,4-1,6,.86,3.35,4,6.64,6,6,1.68-.52,2.45-3.64,2-6C693.51,175.08,689.18,172.05,687.26,173Zm3,22c-2.22.55-3,3.76-3,4-.55,2.6.42,6.34,3,7s5.76-2,6-5C696.54,197.52,692.84,194.35,690.26,195Zm4,17c-2,.71-2.94,3.2-3,5-.11,3.55,3,7.45,6,7,2.57-.38,4.6-3.92,4-7C700.62,213.68,697,211,694.26,212Zm11,15a4.27,4.27,0,0,0-4,2c-1.44,2.47.2,6.54,3,7a4.53,4.53,0,1,0,1-9Zm-6-44c-1.5-.14-4.45,3.66-3,7,1,2.31,3.82,3.75,5,3C703.3,191.69,701.39,183.19,699.26,183Zm3-15c-2-1-6.59,2.6-6,5,.44,1.8,3.9,3.37,6,2C704.69,173.41,703.94,168.82,702.26,168Zm-3.71-14.32a3.9,3.9,0,0,0-5.3,2.75A4,4,0,0,0,695.9,161a3.78,3.78,0,0,0,4.42-1.84A4.11,4.11,0,0,0,698.55,153.66ZM676.26,152c-1.22-1.81-4.47-1.77-6,0a3.76,3.76,0,0,0,0,5,3.64,3.64,0,0,0,5,0A4,4,0,0,0,676.26,152Zm-76-2a3.82,3.82,0,0,0-2,5,3.7,3.7,0,0,0,4,2,3.64,3.64,0,0,0,3-3C605.51,151.6,602.51,149.19,600.26,150Zm-42,2c-.66-1.26-3.65-1.57-5,0-1,1.12-1.06,3.17,0,4s3,0,4-1C557.93,154.29,558.75,152.92,558.26,152Zm152.82,7c-2.15.37-4,2.3-3.07,4,.69,1.26,2.67,2,4.61,2s4.13-.85,4.6-2C718,161,714.14,158.46,711.08,159Zm-1.82,12a4.1,4.1,0,0,0,4,7,3.77,3.77,0,0,0,2-4C714.79,171.42,711.24,169.73,709.26,171Zm-1,12c-.7,1,1,4.7,4,5,1.86.19,4-.93,4-2C716.27,184,709.25,181.62,708.26,183Zm-6,18c-1.84.9-2.24,3.38-2,5s1.31,3.7,3,4c2.47.45,5.82-3,5-6C707.61,201.65,704.46,199.91,702.26,201Zm7,17c-1.16.31-2,3-1,5,1.3,2.75,5.23,3,6,2C715.37,223.51,711.23,217.47,709.26,218Zm-1-25c-1.23,1-1.28,3.76,0,5,2,2,6.89-.3,7-2S710.26,191.33,708.26,193Zm0,61a4,4,0,0,0-3,3c-.55,2,.43,4.52,2,5,2.13.66,5.54-2.29,5-5A3.87,3.87,0,0,0,708.26,254Zm4-47c-2.46,1-2.63,6-1,7s6.25-1.45,6-4C717.07,208.06,714.16,206.25,712.26,207ZM631.37,151.5c-.75-.76-4.08-.05-4.81,2.42-.51,1.71.36,3.77,1.34,3.9C629.59,158.05,632.42,152.58,631.37,151.5ZM611.26,149c-.7,1,1,4.7,4,5,1.86.19,4-.93,4-2C619.27,150,612.25,147.62,611.26,149Zm28,2.11c-.5,1.31,1.26,5.54,4,5.89,2,.24,4.06-1.55,4-2.95C647.15,151.53,640,149.07,639.26,151.09Zm15-.11c-.75,1.36,1.34,5.32,4,5,1.91-.22,3.46-2.58,3-4C660.57,149.84,655.13,149.42,654.26,151Zm31-1c-.88.83-.42,4.31,2,5,1.86.54,3.94-.85,4-2C691.35,151.17,686.43,148.88,685.26,150ZM703,153.61c.56,1.46,3.87,3.18,6.06,2.37,2.72-1,2.21-5.42.91-6.55C708,147.76,702,151.18,703,153.61ZM588.26,148c-.87.65-.13,4.72,2,5a3.32,3.32,0,0,0,3-2C592.9,150.64,589.26,147.24,588.26,148Zm-21,2c-.11.91,2.47,2.71,5,2,1.8-.5,3.34-2.21,3-3C574.64,147.56,567.44,148.54,567.26,150Zm-25,1c-.39,1.37,1.64,3.4,3,3s2-3,1-4S542.64,149.69,542.26,151Zm-29,0c-.37,1,1.14,3.33,3,3,1.48-.26,2.41-2.1,2-3C517.64,149.65,513.73,149.79,513.26,151Zm-27,0c-.36,1.09,2.35,3.76,4,3a2.43,2.43,0,0,0,1-3C490.4,149.39,486.62,149.9,486.26,151Zm-20-1c-1.12,0-2.41,1.75-2,3,.51,1.55,3.44,1.78,4,1,0,0,.17-.25,0-1C468.18,152.64,467.6,150,466.26,150Zm-12.43,1.16c-.48,1.05,1.81,4.72,3.32,4.14a2.67,2.67,0,0,0,1.11-2.76C457.8,150.47,454.29,150.12,453.83,151.14ZM448.26,154c-1.2-.2-2.86.34-3,1.43s1.48,3.22,3,2.87a2.94,2.94,0,0,0,2-2.87C450.06,154.28,448.51,154,448.26,154Zm53-6a2.42,2.42,0,0,0-1,3,2.59,2.59,0,0,0,3,1c1-.25,2-1.09,2-2C505.24,148.61,502.79,147.12,501.26,148Zm30,0c-.64.53.14,3.76,2,4,.8.11,1.87-.33,2-1C535.52,149.65,532,147.38,531.26,148Zm-165,82c-.73.9,1.62,5.34,4,5a2.35,2.35,0,0,0,2-2C372.23,230.93,367,229,366.26,230Zm12-9c.21-.71,1-3.27,0-4-1.28-.93-5.81,1-6,4-.12,1.88,1.47,4.05,3,4C377.07,224.93,378,221.8,378.26,221Zm2-12c-.79.89.59,4.46,3,5,1.14.26,2.68-.11,3-1,.45-1.25-1.8-2.86-2-3C383,209.1,380.88,208.28,380.26,209Zm10-13c.46,1.58,2.54,2.17,4,2,1.09-.12,2.68-.76,3-2,.45-1.74-1.72-4.28-4-4C391.41,192.21,389.76,194.28,390.26,196Zm-11,2c-.15,1.3,1.4,2.74,3,3,.14,0,2.11.32,3-1a3.08,3.08,0,0,0-1-4C382.46,194.82,379.45,196.32,379.26,198Zm-9,11c.4,1.12,2.62,1.9,4,1,1.79-1.16,1.13-4.51,0-5C372.92,204.4,369.68,207.33,370.26,209Zm12-26c-1.33,1.14,1.13,8,4,8a3.45,3.45,0,0,0,3-3C389.57,184.77,383.52,181.9,382.26,183Zm13-5c-1.42-.5-4.88,3.08-4,5,.53,1.18,2.7,1.77,4,1C397.34,182.76,396.56,178.45,395.26,178Zm5-5c-.7,1.15,3.18,5.63,5,5,.91-.31,1.31-1.89,1-3C405.55,172.43,400.87,172,400.26,173Zm13-7c-.56,1.1,1.78,4.57,4,4a2.79,2.79,0,0,0,2-3C418.68,165.12,413.88,164.77,413.26,166Zm26-8c-.68-1.8-3.95-2.28-5-1a3,3,0,0,0,1,4,2.76,2.76,0,0,0,3,0A2.66,2.66,0,0,0,439.26,158Zm-17,0c-.68.76,0,3.67,2,4,1.5.25,3-1,3-2C427.19,158.46,423.13,157,422.26,158Zm-18,7c-.8,1,.53,4,2,4a2.55,2.55,0,0,0,2-3C407.76,164.41,405,164.13,404.26,165Zm-14,7.69c.05,1,2.05,2.1,3.81,1.5,2.13-.73,3.09-3.68,2.54-4.49C395.76,168.41,390.17,171,390.26,172.67Zm-2,172.31a2.55,2.55,0,1,0,5-1c-.07-1.62-1.56-3.19-3-3S387.7,343.35,388.26,345Zm-9-63a3.18,3.18,0,0,0,2,4,3,3,0,0,0,3-1c1.21-1.49.74-4.27-1-5A3.2,3.2,0,0,0,379.26,282Zm166.82,53.07c7.09-2.8,14-15.5,17.18-22.88,5.48-12.84,4.58-11.52-10.71-27.64S531,234.91,531,234.91c-3.77-8.43-8.71-15.95-19.69-15.93-8.82,0-19.9,1.6-33,10-19.82,12.71-30.41,40.46-28,63,.27,2.49,4.09,33.7,30,50,13,8.19,26.65,10.2,32,10C528,351.41,530.39,341.23,546.08,335.05Zm14.22-58.18c15,13.08,29.62-17.85,28-26.18-.92-4.66-2.56-6-11.32-14.79-9.27-9.31-21-17.37-24.45-16.92-2.66.36-13.75,1.07-10.29,16.5C544.78,246.93,548.51,266.58,560.3,276.87Z" transform="translate(11.87 4.53)"/></g></svg>