<?xml version="1.0" encoding="UTF-8" standalone="no"?><!DOCTYPE svg PUBLIC "-//W3C//DTD SVG 1.1//EN" "http://www.w3.org/Graphics/SVG/1.1/DTD/svg11.dtd"><svg width="100%" height="100%" viewBox="0 0 133 120" version="1.1" xmlns="http://www.w3.org/2000/svg" xmlns:xlink="http://www.w3.org/1999/xlink" xml:space="preserve" xmlns:serif="http://www.serif.com/" style="fill-rule:evenodd;clip-rule:evenodd;stroke-miterlimit:10;"><rect id="Artboard1" x="0" y="0" width="132.087" height="119.969" style="fill:none;"/><g><rect x="89.199" y="33.058" width="8.423" height="18.151" style="fill:#bde1e1;stroke:#1d1d1b;stroke-width:0.24px;"/><path d="M92.935,32.908c0,2.39 1.937,4.327 4.326,4.327l3.246,0c2.39,0 4.327,-1.937 4.327,-4.327c0,-2.388 -1.937,-4.327 -4.327,-4.327l-3.246,0c-2.389,0 -4.326,1.939 -4.326,4.327" style="fill:#bde1e1;fill-rule:nonzero;"/><path d="M92.935,32.908c0,2.39 1.937,4.327 4.326,4.327l3.246,0c2.39,0 4.327,-1.937 4.327,-4.327c0,-2.388 -1.937,-4.327 -4.327,-4.327l-3.246,0c-2.389,0 -4.326,1.939 -4.326,4.327Z" style="fill:none;fill-rule:nonzero;stroke:#1d1d1b;stroke-width:0.24px;"/><path d="M82.117,32.908c0,2.39 1.937,4.327 4.327,4.327l3.246,0c2.388,0 4.326,-1.937 4.326,-4.327c0,-2.388 -1.938,-4.327 -4.326,-4.327l-3.246,0c-2.39,0 -4.327,1.939 -4.327,4.327" style="fill:#bde1e1;fill-rule:nonzero;"/><path d="M82.117,32.908c0,2.39 1.937,4.327 4.327,4.327l3.246,0c2.388,0 4.326,-1.937 4.326,-4.327c0,-2.388 -1.938,-4.327 -4.326,-4.327l-3.246,0c-2.39,0 -4.327,1.939 -4.327,4.327Z" style="fill:none;fill-rule:nonzero;stroke:#1d1d1b;stroke-width:0.24px;"/><path d="M52.072,65.303c0,-11.799 8.971,-21.501 20.465,-22.659l-34.889,0c-4.516,0 -8.175,3.662 -8.175,8.177l0,29.08c0,4.515 3.659,8.177 8.175,8.177l37.199,0c-12.579,0 -22.775,-10.195 -22.775,-22.775" style="fill:#bde1e1;fill-rule:nonzero;"/><path d="M52.072,65.303c0,-11.799 8.971,-21.501 20.465,-22.659l-34.889,0c-4.516,0 -8.175,3.662 -8.175,8.177l0,29.08c0,4.515 3.659,8.177 8.175,8.177l37.199,0c-12.579,0 -22.775,-10.195 -22.775,-22.775Z" style="fill:none;fill-rule:nonzero;stroke:#1d1d1b;stroke-width:0.24px;"/><path d="M89.445,42.644l-12.287,0c11.494,1.159 20.465,10.861 20.465,22.659l0,-14.481c0,-4.515 -3.663,-8.178 -8.178,-8.178Z" style="fill:#bde1e1;fill-rule:nonzero;stroke:#1d1d1b;stroke-width:0.24px;"/><path d="M77.158,42.644l-4.622,0c-11.493,1.159 -20.463,10.861 -20.463,22.659c0,12.579 10.195,22.776 22.774,22.776c12.577,0 22.776,-10.197 22.776,-22.776c0,-11.798 -8.973,-21.5 -20.465,-22.659Z" style="fill:#bde1e1;fill-rule:nonzero;stroke:#1d1d1b;stroke-width:0.24px;"/><path d="M29.345,76.897l42.368,0c1.542,0 2.79,1.099 2.79,2.454c0,1.355 -1.248,2.454 -2.79,2.454l-42.356,0l-0.012,-4.908Z" style="fill:#fff;fill-rule:nonzero;stroke:#1d1d1b;stroke-width:0.24px;"/><path d="M78.298,79.351c0,1.355 1.097,2.455 2.454,2.455c1.354,0 2.452,-1.1 2.452,-2.455c0,-1.354 -1.098,-2.454 -2.452,-2.454c-1.357,0 -2.454,1.1 -2.454,2.454" style="fill:#fff;fill-rule:nonzero;"/><path d="M78.298,79.351c0,1.355 1.099,2.455 2.453,2.455c1.354,0 2.453,-1.1 2.453,-2.455c0,-1.354 -1.099,-2.454 -2.453,-2.454c-1.354,0 -2.453,1.1 -2.453,2.454Z" style="fill:none;stroke:#1d1d1b;stroke-width:0.24px;"/></g><path d="M29.345,76.897l0.012,4.226" style="fill:none;"/><path d="M29.357,75.996l0,1.022l0.271,-0.001l0.043,4.667l-0.119,0.001l0.055,0.265l-0.347,0.112l-0.277,-0.092l0,-5.325l0.374,-0.649Z" style="fill:#fff;"/></svg>