<?xml version="1.0" encoding="UTF-8"?><svg id="Layer_1" xmlns="http://www.w3.org/2000/svg" viewBox="0 0 63.89 50.34"><defs><style>.cls-1,.cls-2{fill:#d8d8d8;}.cls-3{fill:#fff;}.cls-3,.cls-2,.cls-4{stroke:#1d1d1b;stroke-miterlimit:10;stroke-width:.25px;}.cls-4{fill:none;}</style></defs><rect class="cls-1" x="0" y="0" width="63.89" height="50.34" transform="translate(63.89 50.34) rotate(-180)"/><rect class="cls-2" x="11.16" y="14.35" width="41.42" height="27.76" rx="5.3" ry="5.3" transform="translate(63.75 56.46) rotate(-180)"/><rect class="cls-3" x="11.16" y="8.6" width="5.12" height="11.03"/><path class="cls-3" d="m14.01,8.51c0,1.45-1.18,2.63-2.63,2.63h-1.97c-1.45,0-2.63-1.18-2.63-2.63h0c0-1.45,1.18-2.63,2.63-2.63h1.97c1.45,0,2.63,1.18,2.63,2.63h0Z"/><path class="cls-3" d="m20.58,8.51c0,1.45-1.18,2.63-2.63,2.63h-1.97c-1.45,0-2.63-1.18-2.63-2.63h0c0-1.45,1.18-2.63,2.63-2.63h1.97c1.45,0,2.63,1.18,2.63,2.63h0Z"/><path class="cls-3" d="m16.38,14.35h30.97c2.88,0,5.24,2.36,5.24,5.24v10.45c0,2.87-2.33,5.2-5.2,5.2h-20.47c-.94,0-1.7.67-1.7,1.49s.76,1.49,1.7,1.49h20.55c.24,0,.43,3.38.12,3.69-.02.02-.05.2-.08.2h-21.92c-7.92,0-14.4-6.48-14.4-14.4v-8.16c0-2.86,2.34-5.2,5.2-5.2Z"/><path class="cls-3" d="m25.21,14.35c7.67,0,13.88,6.21,13.88,13.88,0,2.56-.71,4.95-1.91,7.01h-10.27c-.94,0-1.7.67-1.7,1.49s.76,1.49,1.7,1.49h7.92c-2.5,2.4-5.88,3.89-9.62,3.89-7.67,0-13.88-6.21-13.88-13.88s6.21-13.88,13.88-13.88Z"/><path class="cls-2" d="m22.91,36.73c0,.82-.67,1.49-1.49,1.49s-1.49-.67-1.49-1.49.67-1.49,1.49-1.49,1.49.67,1.49,1.49Z"/><circle class="cls-3" cx="47.47" cy="40.17" r="1.94"/><circle class="cls-3" cx="47.47" cy="19.63" r="3.96"/><circle class="cls-3" cx="47.36" cy="19.55" r="5.2"/><circle class="cls-3" cx="47.36" cy="30.04" r="5.2"/><path class="cls-4" d="m14.01,8.51c0,1.45-1.18,2.63-2.63,2.63h-1.97c-1.45,0-2.63-1.18-2.63-2.63h0c0-1.45,1.18-2.63,2.63-2.63h1.97c1.45,0,2.63,1.18,2.63,2.63h0Z"/></svg>