<?xml version="1.0" encoding="UTF-8" standalone="no"?><!DOCTYPE svg PUBLIC "-//W3C//DTD SVG 1.1//EN" "http://www.w3.org/Graphics/SVG/1.1/DTD/svg11.dtd"><svg width="100%" height="100%" viewBox="0 0 208 24" version="1.1" xmlns="http://www.w3.org/2000/svg" xmlns:xlink="http://www.w3.org/1999/xlink" xml:space="preserve" xmlns:serif="http://www.serif.com/" style="fill-rule:evenodd;clip-rule:evenodd;stroke-linejoin:round;stroke-miterlimit:1.41421;"><rect id="turkis" x="0" y="0" width="207.355" height="23.37" style="fill:none;"/><clipPath id="_clip1"><rect x="0" y="0" width="207.355" height="23.37"/></clipPath><g clip-path="url(#_clip1)"><path d="M0,27.057l0,-14.291c0,0 5.044,2.57 11.717,1.881c6.672,-0.688 9.645,-4.36 16.337,-4.039c6.77,0.325 11.579,4.277 16.845,4.666c5.267,0.389 8.818,-3.597 17.415,-1.107c6.403,1.856 11.041,-1.377 15.2,-2.484c4.159,-1.107 10.213,-2.657 21.004,2.244c8.118,3.687 13.184,2.16 20.496,-1.161c15.427,-7.006 19.23,3.408 32.329,1.161l0.1,-0.026c8.442,-2.224 10.622,1.789 16.105,1.133c5.547,-0.663 7.588,-5.005 13.06,-4.686c7.41,0.432 9.735,4.461 15.888,5.452c6.721,1.082 10.859,-1.486 10.859,-1.486l0,12.743l-56.012,0l-151.343,0Z" style="fill:#464646;"/></g></svg>