<?xml version="1.0" encoding="utf-8"?>
<!-- Generator: Adobe Illustrator 23.0.2, SVG Export Plug-In . SVG Version: 6.00 Build 0)  -->
<svg version="1.1" id="Layer_1" xmlns:serif="http://www.serif.com/"
	 xmlns="http://www.w3.org/2000/svg" xmlns:xlink="http://www.w3.org/1999/xlink" x="0px" y="0px" viewBox="0 0 1920 163.4"
	 style="enable-background:new 0 0 1920 163.4;" xml:space="preserve">
<style type="text/css">
	.st0{fill:none;}
	.st1{clip-path:url(#SVGID_2_);}
	.st2{fill-rule:evenodd;clip-rule:evenodd;fill:#464646;}
</style>
<rect id="turkis" y="-86.3" class="st0" width="1914" height="215.7"/>
<g>
	<defs>
		<rect id="SVGID_1_" y="-86.3" width="1920" height="215.7"/>
	</defs>
	<clipPath id="SVGID_2_">
		<use xlink:href="#SVGID_1_"  style="overflow:visible;"/>
	</clipPath>
	<g class="st1">
		<path class="st2" d="M0,163.4V31.5c0,0,46.7,23.7,108.5,17.4c61.8-6.4,89.3-40.2,151.3-37.3c62.7,3,107.2,39.5,156,43.1
			c48.8,3.6,81.7-33.2,161.3-10.2c59.3,17.1,102.2-12.7,140.7-22.9C756.2,11.3,812.3-3,912.2,42.2c75.2,34,122.1,19.9,189.8-10.7
			c142.8-64.7,178.1,31.5,299.3,10.7l0.9-0.2c78.2-20.5,98.4,16.5,149.1,10.5c51.4-6.1,70.3-46.2,120.9-43.3
			c68.6,4,90.1,41.2,147.1,50.3c62.2,10,100.5-13.7,100.5-13.7v117.6h-518.6L0,163.4L0,163.4z"/>
		<rect x="1090.9" y="163.4" class="st2" width="508" height="221.6"/>
	</g>
</g>
<rect y="100.3" class="st2" width="1920" height="63.1"/>
</svg>
