<?xml version="1.0" encoding="UTF-8" standalone="no"?><!DOCTYPE svg PUBLIC "-//W3C//DTD SVG 1.1//EN" "http://www.w3.org/Graphics/SVG/1.1/DTD/svg11.dtd"><svg width="100%" height="100%" viewBox="0 0 15 13" version="1.1" xmlns="http://www.w3.org/2000/svg" xmlns:xlink="http://www.w3.org/1999/xlink" xml:space="preserve" xmlns:serif="http://www.serif.com/" style="fill-rule:evenodd;clip-rule:evenodd;stroke-linejoin:round;stroke-miterlimit:2;"><rect id="hamburger" x="0" y="0" width="14.867" height="12.111" style="fill:none;"/><path d="M12.942,9.679c0,-0.199 -0.161,-0.36 -0.36,-0.36l-9.828,0c-0.199,0 -0.36,0.161 -0.36,0.36c0,0.199 0.161,0.36 0.36,0.36l9.828,0c0.199,0 0.36,-0.161 0.36,-0.36Z" style="fill:#fff;"/><path d="M12.942,2.52c0,-0.198 -0.161,-0.36 -0.36,-0.36l-7.856,0c-0.199,0 -0.36,0.162 -0.36,0.36c0,0.199 0.161,0.36 0.36,0.36l7.856,0c0.199,0 0.36,-0.161 0.36,-0.36Z" style="fill:#fff;"/><path d="M12.942,6.1c0,-0.199 -0.161,-0.36 -0.36,-0.36l-10.6,0c-0.199,0 -0.36,0.161 -0.36,0.36c0,0.198 0.161,0.36 0.36,0.36l10.6,0c0.199,0 0.36,-0.162 0.36,-0.36Z" style="fill:#fff;"/></svg>