<?xml version="1.0" encoding="UTF-8" standalone="no"?><!DOCTYPE svg PUBLIC "-//W3C//DTD SVG 1.1//EN" "http://www.w3.org/Graphics/SVG/1.1/DTD/svg11.dtd"><svg width="100%" height="100%" viewBox="0 0 167 31" version="1.1" xmlns="http://www.w3.org/2000/svg" xmlns:xlink="http://www.w3.org/1999/xlink" xml:space="preserve" xmlns:serif="http://www.serif.com/" style="fill-rule:evenodd;clip-rule:evenodd;stroke-linejoin:round;stroke-miterlimit:2;"><rect id="nabTab-pic" x="0" y="0" width="166.826" height="30.026" style="fill:none;"/><clipPath id="_clip1"><rect x="0" y="0" width="166.826" height="30.026"/></clipPath><g clip-path="url(#_clip1)"><path d="M-68.618,21.409l0,-16.423c0,0 6.353,2.954 14.757,2.163c8.404,-0.791 12.148,-5.011 20.576,-4.642c8.527,0.373 14.584,9.955 21.217,10.402c6.633,0.447 11.105,-4.134 21.933,-1.272c8.065,2.132 13.906,-1.582 19.144,-2.854c5.238,-1.272 12.864,-2.094 26.455,3.538c10.224,4.237 16.605,2.482 25.815,-1.335c19.429,-8.05 34.771,-4.798 41.706,-4.416c15.496,0.854 18.516,-4.875 30.35,-4.361c13.996,0.607 18.501,3.686 26.251,4.824c8.464,1.243 12.957,-0.267 12.957,-0.267l0,14.643l-70.547,0l-190.614,0Z" style="fill:#464646;"/><rect x="-4.141" y="15.59" width="172.807" height="18.581" style="fill:#464646;"/></g></svg>