<svg xmlns="http://www.w3.org/2000/svg" viewBox="0 0 2460 936"><defs><style>.cls-1{fill:#29203c;}.cls-2{fill:#16111b;}.cls-3{fill:#b84b43;}.cls-4{fill:#3e1811;}.cls-5{fill:#070405;}.cls-6{fill:#ffdf73;}.cls-7{fill:#a03e3c;}.cls-8{fill:#fff;}.cls-9{fill:#664327;}.cls-10{fill:#7d3234;}.cls-11{fill:#ba4e4a;}.cls-12{fill:#fccb6e;}.cls-13{fill:#2a2116;}.cls-14{fill:#20090c;}.cls-15{fill:#23161a;}.cls-16{fill:#592121;}.cls-17{fill:#6b542f;}</style></defs><title>animasjon</title><g id="back"><rect class="cls-1" width="2460" height="936"/></g><g id="Layer_2" data-name="Layer 2"><ellipse class="cls-2" cx="1190.85" cy="717.56" rx="203.68" ry="71.32"/></g><g id="bassjente"><polygon class="cls-3" points="1230.27 345.9 1252.36 293.72 1214.65 280.08 1189.32 290.32 1189.32 303.25 1184.47 308.78 1187.2 315.19 1192.03 336.32 1230.27 345.9"/><path class="cls-4" d="M1278.09,351.81,1387.6,191.62S1370.22,157,1348.77,153c-18.5-3.47-42.7,20.38-29.89,54.54C1290.72,254.08,1246,344.79,1246,344.79s-72.9-24.63-113.86,10.1c-23.23,19.7-32.16,42.18-54.39,93.28-1.2,2.76,59.94,37.13,26.11,107.16-14.25,29.48-66,34.14-66,34.14l30.64,66.4s109.28,98.11,211,24.37c0,0,29-7.87,69.35-64.14-29.89,0-66-24.48-42.77-68l66.61-98S1327.11,367.38,1278.09,351.81Z"/><polygon class="cls-5" points="1360.32 222.29 1376.34 225.36 1363.98 242.76 1351.7 233.6 1360.32 222.29"/><polygon class="cls-5" points="1376.47 200.51 1393.54 203.78 1380.37 222.29 1367.28 212.55 1376.47 200.51"/><polygon class="cls-5" points="1161.83 568.46 1200.81 570.21 1199.56 575.05 1160.53 572.7 1161.83 568.46"/><path class="cls-6" d="M1170.05,589.57c-3.26-37.47,22-112.48,75.11-222.94,39.5-82.18,80.49-154.31,80.9-155l1.94,1.1c-1.64,2.87-163.43,288.19-155.72,376.67Z"/><path class="cls-6" d="M1178.06,589.55c-4.3-58.4,39.45-156.85,76.91-229.15,40.54-78.25,82.64-143.58,83.06-144.23l1.87,1.21c-.42.65-42.46,65.91-83,144.06-53.52,103.31-80,182.13-76.66,228Z"/><path class="cls-6" d="M1186.06,589.58c-6.35-60.56,38.59-158.41,77.41-229.84,42-77.29,86.07-141.14,86.51-141.77l1.84,1.27c-.44.63-44.45,64.4-86.4,141.59-55.44,102-82.12,181-77.14,228.52Z"/><path class="cls-3" d="M1340.34,276.34l-3.09,13s-27.71-12.85-36.11,10.88l-3.72-5.12s10.06-19.05,27.79-13.39c-7-4.17-17.07-3.29-24.07,0l-.89-8.35s16.24-5.06,26.81,3.58a58.92,58.92,0,0,0-17.58-11.2l4.77-7.87L1330,270.68l-3.27-21.16,7.74,1.79Z"/><path class="cls-5" d="M1197.6,588.29l-37.07-2.4s18.15,92.86,22.19,108.18a30.28,30.28,0,0,0,11.31-.16Z"/><path class="cls-7" d="M1164.66,501.42s14-1.76,15.66-13.07l7,.16s-.37,16.94-15.53,20.44C1174,509,1182,510,1182,510v8l-12.57-3.2L1176,523l-1,1h-2l-2,.68-6.36-10.2-2.34,11.28-13.8-4.06-1.87-6.41,11.62,3.65,1-6.37Z"/><path class="cls-8" d="M1159.23,512.57,1107,468l-6.18-52.36,20.27-44.08A62.61,62.61,0,0,1,1157,338.73l5.27-1.88-28.57,77.74,31,86.83Z"/><path class="cls-9" d="M1214.65,280.08s5.4,23.15,29.7,32.58l-12,28.44,13.67,3.69,6.39-51.07s-65.67-55.64-86.09-38.28,1.71,39.44,1.42,59.23-24.9,44.72-24.9,44.72L1133,415l20,53,31-51,10.37-71.1c-.32-4.71-2.09-26.08-8.59-38.36l-1.31,1.24Z"/><polygon class="cls-10" points="1244.35 312.66 1224.82 339.55 1232.3 341.1 1244.35 312.66"/><path class="cls-4" d="M1318.88,207.56s19.18,26.7,48.4,5c-1.45-14.39-11.23-13.84-11.23-13.84Z"/></g><g id="fing1"><path class="cls-7" d="M1182,510l19,3,1,10-21.08-5.19A3.77,3.77,0,0,1,1178,513C1179,509,1182,510,1182,510Z"/></g><g id="fing2"><path class="cls-7" d="M1171,525l-3,12,7-2,1-12a2.19,2.19,0,0,0-3-1A3.55,3.55,0,0,0,1171,525Z"/></g><g id="trumpetmann"><path class="cls-11" d="M1132.11,354.89l12-78.75s2.28-48.32-40.68-48.87c-41.59,13.14-41.7,11.62-41.7,11.62l-4.38,28.46-8.2,18.06,8.2,7.11-6,19.15-10.42,14.21Z"/><polygon class="cls-8" points="911.03 380.46 902.18 397.27 936.21 407.2 936.21 386.73 911.03 380.46"/><path class="cls-5" d="M987.06,308.78l221.53,70.43S948.06,440.27,1113,722c-6.47,7.66-13,9-13,9s-6,4-9,2c-5,1-9.27-5.36-9.27-5.36l-10-15.82s-22.2,6.8-32.74,5.28c6.38-6.66,14.7-16.93,14.7-16.93S908.5,539.33,987.06,308.78Z"/><polygon class="cls-8" points="1111.84 348.45 1043.6 415.64 1054.39 330.18 1111.84 348.45"/><path class="cls-5" d="M971.4,465.29H890.74s-.9-51.47,11.44-68c23.77,4.81,43.34,7.22,43.34,7.22l-2.41,15.65H969Z"/><circle class="cls-12" cx="1051.85" cy="312.66" r="6.5"/><path class="cls-6" d="M1051.85,320.28a7.62,7.62,0,1,1,7.62-7.62A7.63,7.63,0,0,1,1051.85,320.28Zm0-13a5.39,5.39,0,1,0,5.39,5.39A5.39,5.39,0,0,0,1051.85,307.27Z"/><path class="cls-12" d="M1050.29,318l-11,12.82c3.76,7.93.64,19,.48,19.54l-.09.31-.19.25c-.37.48-36.87,47.75-50.45,65.14-3.3,4.22-6.15,6.3-8.68,6.3a4.43,4.43,0,0,1-1.56-.28c-5.73-2.09-5.5-15.89-5.4-18.64l0-.58,61.78-72.4a10.69,10.69,0,0,0-.94-1.08c-3.57-3.52-10-4-19-1.28-17.08,21.12-61,78.62-61.4,79.2l-2.66-2c.45-.59,44.91-58.86,61.79-79.68l.32-.39.49-.15c10.58-3.22,18.27-2.56,22.84,1.95.28.28.55.57.8.86l10.2-11.91m-70.88,88.19c-.17,6.6,1,14,3.22,14.8.47.17,2.34.33,6.45-4.94,13-16.71,47.25-61,50.23-64.86.42-1.61,2.24-9.45.22-15.46Z"/><path class="cls-6" d="M980.37,423.51a5.63,5.63,0,0,1-1.94-.35c-6.29-2.3-6.29-15.68-6.13-19.73l0-1,61.42-72-.27-.28c-3.21-3.17-9.13-3.53-17.59-1.09-16.42,20.32-56.55,72.85-61.09,78.8l-.75,1-4.43-3.38.67-.89c.44-.58,45-58.92,61.81-79.7l.54-.66.82-.25c11-3.34,19-2.6,23.93,2.21l9.39-11,1.69,1.45-11.06,12.92-.85-1c-.22-.27-.47-.53-.72-.79-4.26-4.2-11.57-4.77-21.74-1.68l-.16.05-.11.14c-15.68,19.34-55.41,71.32-61.09,78.76l.89.67c6.75-8.83,45-58.88,60.74-78.33l.22-.27.34-.1c9.47-2.79,16.24-2.27,20.12,1.55a11.11,11.11,0,0,1,1,1.21l.53.72-62.1,72.78v.19c-.22,5.81.52,16,4.67,17.55a3.36,3.36,0,0,0,1.17.21c2.13,0,4.76-2,7.8-5.87,13.49-17.27,50.08-64.66,50.44-65.13l.1-.19c.13-.45,3.17-11.19-.42-18.75l-.31-.66,11.46-13.37,1.7,1.46L1040.61,331c3.47,8.25.38,19.19.24,19.66l-.14.51-.33.42c-.36.47-37,47.87-50.45,65.15C986.39,421.31,983.27,423.51,980.37,423.51Zm0-3.36a2.26,2.26,0,0,1-.77-.13c-4.27-1.56-4-15.29-4-15.87v-.4l.26-.3,61.39-72,.63,1.87c2.14,6.33.22,14.51-.19,16.09l0,.22-.14.18c-.37.47-36.65,47.46-50.24,64.87C983.92,419,981.72,420.15,980.35,420.15Zm-2.5-15.55c-.14,7.54,1.37,12.91,2.5,13.32,0,0,1.53.1,5.18-4.58,13.16-16.85,47.58-61.43,50.09-64.67.41-1.67,1.68-7.49.7-12.61Z"/><rect class="cls-12" x="989.72" y="359.67" width="3.35" height="44.87" transform="translate(28.91 832.11) rotate(-46.14)"/><path class="cls-6" d="M1006.44,400.44l-34-32.64,3.87-4,34,32.65Zm-30.81-32.7,30.74,29.54.78-.8L976.4,366.93Z"/><rect class="cls-12" x="999.19" y="347.54" width="3.35" height="44.87" transform="translate(40.58 835.22) rotate(-46.14)"/><path class="cls-6" d="M1015.91,388.31l-34-32.65,3.87-4,34,32.64Zm-30.8-32.71,30.74,29.55.77-.81L985.88,354.8Z"/><rect class="cls-12" x="1008.67" y="335.4" width="3.35" height="44.87" transform="translate(52.23 838.33) rotate(-46.14)"/><path class="cls-6" d="M1025.39,376.17l-34-32.64,3.87-4,34,32.64Zm-30.81-32.7L1025.33,373l.77-.81-30.74-29.55Z"/><circle class="cls-12" cx="936.21" cy="427.57" r="34.95"/><path class="cls-6" d="M936.21,463.64a36.07,36.07,0,1,1,36.07-36.07A36.11,36.11,0,0,1,936.21,463.64Zm0-69.91a33.84,33.84,0,1,0,33.84,33.84A33.88,33.88,0,0,0,936.21,393.73Z"/><circle class="cls-13" cx="941.41" cy="424.6" r="17.39"/><path class="cls-3" d="M958.21,322.47,937.47,343.2,935,344h0l-2.33,2.21s-17,25.41-21.64,34.25l25.18,6.27V376.37s11,10,22,7.7l-1.06-5.26s-15.92-.32-14-13.46,20.25-8.63,20.57-1.72l6-2.55S967.82,350,954.3,351c14.72-5.4,19.75-7.51,19.75-7.51v-8.11l-31.51,11.12,23.78-19.23Z"/><path class="cls-7" d="M1041.76,368s-26.12-21.57-50.87-14.93l-.83,6.91,18.25-.08-13.82,9.76.27,7.19,18.53-8.3-13,15.48,5.81,3.88,8.29-12.72-1.93,16,4.7,1.39,1.1-18.53,13.83,9.13Z"/><path class="cls-14" d="M1061.68,238.89l41.6-13.13c44.36-2.11,42.68,49.8,42.68,49.8l-3.17,18.16h-29.4l8.58-40.3-60.29-14.53"/><polygon class="cls-10" points="1113.39 293.72 1103.83 345.9 1132.11 354.89 1142.79 293.72 1113.39 293.72"/><polygon class="cls-8" points="1015.91 405.26 1043.6 415.64 1058.36 382.11 1041.41 367.38 1015.91 405.26"/><path class="cls-15" d="M1132.11,354.89s-13.7,22.48-26.12,28.62-51.31,18-60.64,28.16c4.53-10.31,58.48-65.77,58.48-65.77Z"/><path class="cls-15" d="M1058.36,382.11l-31.57,71.74,137.85,47.56,43.95-122.2s-46,11-86.73,44.15c-1.81,22-2.37,20.26-2.37,20.26Z"/><path class="cls-5" d="M1049.53,354.07c8.43,2.37,12.61-3.64,16-6.27a3,3,0,0,0,4.18,1.48c.93,4.17,3.74,12.64,11.76,16.2,6,2.67,10.45-31.6,10.45-31.6-9-2.53-17.14,6-20.13,8.42a3,3,0,0,0-1.5-1.22,3.05,3.05,0,0,0-1.89,0c-.74-3.81-5.46-7.08-14-10.87C1054.39,330.18,1043.18,352.29,1049.53,354.07Z"/></g><g id="fingtrumpet"><path class="cls-3" d="M933,346l-11-15,8-5,7,17s1,3-1,4A2.19,2.19,0,0,1,933,346Z"/></g><g id="fot"><path class="cls-5" d="M1082,728l-13,22s8,5,46-11c-1-11-2-17-2-17l-31,6"/></g><g id="saxmann"><polygon class="cls-5" points="1435.58 472.78 1478.93 504.93 1451.68 542.34 1404.24 492.46 1435.58 472.78"/><polygon class="cls-16" points="1488.16 516.98 1473.25 540.47 1482.25 543.18 1494.72 524.1 1488.16 516.98"/><path class="cls-5" d="M1508.93,453.11,1365,333.91s-143,12.43-112.68,381.72l.26,16.9s35,10.84,46.16,6.39c-6.92-9.15-14.34-20.75-14.34-20.75l-.64-16.19s31.92,4.41,42.3,2c-1-8.36-22.33-19.83-22.33-19.83S1238.27,554,1508.93,453.11Z"/><path class="cls-15" d="M1365,333.91s-89.21,6-119,90.12c46.79,66.33,104.36,142.18,104.36,142.18l41.46-43.07-66.19-88.25Z"/><path class="cls-11" d="M1418.25,378l62.2-17.42s29.68-11.4,50.22,17.42c12.42,30.47,10.26,25.76,10.26,25.76l-22.35,27.91-22-18.7-13.11,24.53-11.14-11.17-29.5,18.83Z"/><path class="cls-14" d="M1496.62,413l23.09,22.74L1549,405.08l-12.42-30.48s-15-29.54-56.48-20.28l-16.4,6.28,1.24,14.2,23.47-7.71,11.21,33Z"/><polygon class="cls-8" points="1391.79 523.14 1406 537.76 1379.04 573.06 1366.15 549.77 1391.79 523.14"/><path class="cls-12" d="M1469.86,506.72l-113.09,135s-20.43,25.81,4,46.36,57.36-5,57.36-5L1480.6,641l-28.54-51.56-66.49,79.35-.59-3,40.63-53.94,71.76-104.24s71.69-48.81,8.12-46.36c-20.88.81-40.79-30.07-40.79-30.07l-2.41,1.54,24.86,47.61,32.33-7.16Z"/><path class="cls-6" d="M1382.84,697.13a34.4,34.4,0,0,1-22.76-8.2c-25-21-4.4-47.64-4.19-47.91l113.22-135.14.13-.09L1514,475.6l-27.44,6.08-25.72-49.28,4.21-2.69.6.93c.19.3,19.32,29.58,39,29.58h.76c16.26-.63,25.1,2,27.06,7.93,4.41,13.38-31.15,38.17-34.33,40.35l-71.64,104.06-40.36,53.59,0,.18,66-78.81,29.83,53.87L1418.78,684C1418.59,684.17,1401.58,697.13,1382.84,697.13Zm87.78-189.58-113,134.88c-.78,1-19.43,25.2,3.89,44.79a32.36,32.36,0,0,0,21.38,7.67c17.92,0,34.36-12.5,34.59-12.68l61.65-41.54-27.26-49.23-66.94,79.88-1.15-5.73,40.94-54.34,71.85-104.37.18-.12c10.48-7.14,37-27.86,33.63-37.92-1.56-4.76-10.15-7-24.85-6.4-19.46.77-37.56-24.38-41.15-29.66l-.63.4,24,45.95,37.24-8.25Z"/><polygon class="cls-17" points="1385.57 668.82 1376.02 663.24 1433.89 599.9 1431.67 614.32 1385.57 668.82"/><path class="cls-6" d="M1385.81,670.25l-11.55-6.74,61.3-67.09-2.84,18.38-.2.24Zm-8-7.28,7.55,4.41,45.29-53.54,1.62-10.47Z"/><path class="cls-3" d="M1383.48,567.24l-10.87,40.29,10.06,7.32,7-36.91,6.89,38.16,10-4.69-6.93-38.88,13.88,27.62,8.21-6.18-16.63-28.6s9.76-4.82,20.3,8.06l3.78-6.88L1406,537.76Z"/><polygon class="cls-3" points="1498.48 519.04 1486.66 506.49 1480.65 515.42 1493.07 522.68 1488.93 528.45 1477.74 522.27 1472.26 529.9 1484.46 534.56 1482.04 539.7 1470.19 534.88 1466.56 542.94 1477.84 544.78 1464.94 554.8 1471.12 560.19 1482.31 546.9 1485.94 545.51 1499.37 529.32 1498.48 519.04"/><polygon class="cls-10" points="1464.93 374.8 1429.16 407.77 1418.25 378.02 1463.69 360.6 1464.93 374.8"/><circle class="cls-17" cx="1384.22" cy="687.45" r="9.75"/><circle class="cls-17" cx="1410.86" cy="676.27" r="10.52"/><circle class="cls-17" cx="1437.51" cy="655.87" r="12.24"/><circle class="cls-12" cx="1387.6" cy="689.09" r="8.85"/><path class="cls-6" d="M1387.6,699.06a10,10,0,1,1,10-10A10,10,0,0,1,1387.6,699.06Zm0-17.7a7.74,7.74,0,1,0,7.73,7.73A7.74,7.74,0,0,0,1387.6,681.36Z"/><circle class="cls-12" cx="1414.61" cy="677.21" r="10.37"/><path class="cls-6" d="M1414.61,688.69a11.49,11.49,0,1,1,11.49-11.48A11.49,11.49,0,0,1,1414.61,688.69Zm0-20.74a9.26,9.26,0,1,0,9.26,9.26A9.26,9.26,0,0,0,1414.61,668Z"/><circle class="cls-12" cx="1441.21" cy="656.77" r="12.05"/><path class="cls-6" d="M1441.21,669.93a13.17,13.17,0,1,1,13.16-13.16A13.18,13.18,0,0,1,1441.21,669.93Zm0-24.1a10.94,10.94,0,1,0,10.93,10.94A11,11,0,0,0,1441.21,645.83Z"/><polygon class="cls-17" points="1453.26 589.47 1470.47 649.22 1480.1 642.73 1453.26 589.47"/><polygon class="cls-12" points="1455.92 580.17 1501.22 642.43 1483.98 658.77 1450.04 586.21 1455.92 580.17"/><path class="cls-6" d="M1483.63,660.65,1448.7,586l7.34-7.53,46.66,64.12Zm-32.25-74.22,33,70.47,15.4-14.6-44-60.4Z"/><path class="cls-15" d="M1418.25,378s-33.87,10.9-39.5,38.55-6.61,56.25-12.59,72.4c17.45-21.3,63-81.2,63-81.2Z"/><polygon class="cls-8" points="1442.87 445.18 1366.15 488.96 1429.16 407.77 1442.87 445.18"/><path class="cls-5" d="M1406.76,446.74c7.21,3.24,12.46,3.45,16.14,1.08a2.56,2.56,0,0,0,1.22,1.88,2.62,2.62,0,0,0,2.29,0c-.07,4.36-8.07,7.17-1.5,11.59,4.94,3.33,18-16.15,18-16.15-7.71-3.46-9.74-4.65-13-2.41a2.46,2.46,0,0,0-1.11-1.39,2.4,2.4,0,0,0-1.73-.21c.16-4,3.58-19-3.42-23.69C1423.6,417.48,1401.32,444.3,1406.76,446.74Z"/></g><g id="lugg"><polygon class="cls-14" points="1497 413 1520 436 1549 405 1537 388 1497 413"/></g></svg>