<svg xmlns="http://www.w3.org/2000/svg" viewBox="0 0 1395.91 1937.39"><defs><style>.cls-1{fill:#29213d;}.cls-2{fill:#fff;}.cls-3{fill:#040505;}.cls-4{fill:#17111c;}.cls-5{fill:#b94b43;}.cls-6{fill:#3e1811;}.cls-7{fill:#070405;}.cls-8{fill:#fee073;}.cls-9{fill:#a13e3c;}.cls-10{fill:#664327;}.cls-11{fill:#7d3234;}.cls-12{fill:#592121;}.cls-13{fill:#bb4e4a;}.cls-14{fill:#fdcc6e;}.cls-15{fill:#2a2116;}.cls-16{fill:#210a0d;}.cls-17{fill:#23161a;}.cls-18{fill:#6c542f;}</style></defs><title>visittkort_fargetest-07-07-07</title><g id="Layer_1" data-name="Layer 1"><rect class="cls-1" x="1.86" y="1015.86" width="1394.05" height="921.53"/><path class="cls-2" d="M101.46,1575.64a12,12,0,0,0,6.08,1.72c3.47,0,5.5-1.84,5.5-4.49,0-2.45-1.4-3.86-5-5.22-4.29-1.52-7-3.75-7-7.45,0-4.1,3.4-7.14,8.51-7.14a11.86,11.86,0,0,1,5.81,1.29l-.94,2.77a10.44,10.44,0,0,0-5-1.25c-3.59,0-5,2.14-5,3.94,0,2.45,1.59,3.66,5.22,5.07,4.45,1.71,6.71,3.86,6.71,7.72,0,4.06-3,7.57-9.2,7.57a13.52,13.52,0,0,1-6.71-1.68Z"/><path class="cls-2" d="M125.05,1555.48v5.42H130v2.61h-4.92v10.18c0,2.34.66,3.67,2.58,3.67a7.36,7.36,0,0,0,2-.24l.16,2.58a8.46,8.46,0,0,1-3,.47,4.76,4.76,0,0,1-3.71-1.45c-1-1-1.32-2.69-1.32-4.91v-10.3h-2.93v-2.61h2.93v-4.53Z"/><path class="cls-2" d="M150.67,1570.18c0,7-4.83,10-9.4,10-5.1,0-9-3.74-9-9.71,0-6.31,4.13-10,9.36-10C147,1560.47,150.67,1564.41,150.67,1570.18Zm-15,.2c0,4.13,2.38,7.25,5.73,7.25s5.73-3.08,5.73-7.33c0-3.2-1.59-7.26-5.65-7.26S135.7,1566.79,135.7,1570.38Z"/><path class="cls-2" d="M155,1566.79c0-2.22,0-4.14-.15-5.89h3l.12,3.7h.15a5.67,5.67,0,0,1,5.23-4.13,3.58,3.58,0,0,1,1,.12v3.24a5,5,0,0,0-1.17-.12c-2.41,0-4.13,1.83-4.6,4.4a9.57,9.57,0,0,0-.15,1.6v10.07H155Z"/><path class="cls-2" d="M167.76,1579.78c.07-1.29.15-3.2.15-4.88v-22.81h3.4v11.85h.07a7.05,7.05,0,0,1,6.44-3.47c4.68,0,8,3.9,8,9.63,0,6.75-4.25,10.1-8.46,10.1a6.74,6.74,0,0,1-6.32-3.54h-.11l-.16,3.12Zm3.55-7.57a6.29,6.29,0,0,0,.15,1.25,5.29,5.29,0,0,0,5.15,4c3.59,0,5.73-2.93,5.73-7.26,0-3.78-2-7-5.61-7a5.48,5.48,0,0,0-5.23,4.21,6.68,6.68,0,0,0-.19,1.41Z"/><path class="cls-2" d="M200.56,1579.78l-.28-2.38h-.12a7,7,0,0,1-5.77,2.8,5.38,5.38,0,0,1-5.77-5.42c0-4.56,4.06-7.06,11.35-7v-.39c0-1.56-.43-4.36-4.29-4.36a9.34,9.34,0,0,0-4.91,1.4l-.78-2.26a11.66,11.66,0,0,1,6.2-1.68c5.77,0,7.17,3.94,7.17,7.72v7.06a26,26,0,0,0,.32,4.53Zm-.51-9.64c-3.75-.07-8,.59-8,4.25a3,3,0,0,0,3.24,3.28,4.68,4.68,0,0,0,4.56-3.16,3.49,3.49,0,0,0,.2-1.09Z"/><path class="cls-2" d="M208.9,1566c0-2,0-3.55-.16-5.11h3L212,1564h.08a7,7,0,0,1,6.24-3.55c2.61,0,6.67,1.56,6.67,8v11.27h-3.43v-10.89c0-3-1.13-5.57-4.37-5.57a4.87,4.87,0,0,0-4.6,3.51,4.81,4.81,0,0,0-.24,1.6v11.35H208.9Z"/><path class="cls-2" d="M246.85,1552.09v22.81c0,1.68,0,3.59.15,4.88h-3.08l-.15-3.28h-.08a7,7,0,0,1-6.44,3.7c-4.56,0-8.07-3.86-8.07-9.59,0-6.28,3.86-10.14,8.46-10.14a6.32,6.32,0,0,1,5.7,2.89h.08v-11.27Zm-3.43,16.49a5.89,5.89,0,0,0-.16-1.44,5.06,5.06,0,0,0-4.95-4c-3.55,0-5.66,3.12-5.66,7.29,0,3.83,1.87,7,5.58,7a5.15,5.15,0,0,0,5-4.1,5.79,5.79,0,0,0,.16-1.48Z"/><path class="cls-2" d="M252.54,1566c0-2,0-3.55-.15-5.11h3l.15,3h.12a6.51,6.51,0,0,1,5.93-3.47,5.58,5.58,0,0,1,5.34,3.78H267a7.8,7.8,0,0,1,2.11-2.45,6.43,6.43,0,0,1,4.17-1.33c2.5,0,6.2,1.64,6.2,8.19v11.12h-3.35v-10.69c0-3.63-1.33-5.81-4.1-5.81a4.43,4.43,0,0,0-4.05,3.12,5.51,5.51,0,0,0-.28,1.71v11.67h-3.35v-11.31c0-3-1.33-5.19-3.94-5.19a4.68,4.68,0,0,0-4.25,3.43,4.63,4.63,0,0,0-.27,1.68v11.39h-3.36Z"/><path class="cls-2" d="M300.86,1574.63c0,1.95,0,3.66.16,5.15h-3l-.2-3.09h-.08a7.07,7.07,0,0,1-6.24,3.51c-3,0-6.51-1.63-6.51-8.26v-11h3.43v10.45c0,3.59,1.09,6,4.21,6a5,5,0,0,0,4.53-3.12,5.15,5.15,0,0,0,.31-1.76V1560.9h3.43Z"/><path class="cls-2" d="M306.09,1576.27a9,9,0,0,0,4.52,1.36c2.5,0,3.67-1.25,3.67-2.81s-1-2.53-3.51-3.47c-3.39-1.21-5-3.08-5-5.34,0-3,2.45-5.54,6.51-5.54a9.45,9.45,0,0,1,4.64,1.17l-.86,2.5a7.3,7.3,0,0,0-3.86-1.1c-2,0-3.16,1.17-3.16,2.58,0,1.56,1.13,2.26,3.59,3.2,3.28,1.25,4.95,2.88,4.95,5.69,0,3.32-2.57,5.66-7.06,5.66a10.78,10.78,0,0,1-5.3-1.29Z"/><path class="cls-2" d="M325.82,1555.59a2.13,2.13,0,0,1-4.25,0,2.1,2.1,0,0,1,2.15-2.14A2,2,0,0,1,325.82,1555.59ZM322,1579.78V1560.9h3.43v18.88Z"/><path class="cls-2" d="M334.52,1569.56h.08c.47-.67,1.13-1.48,1.67-2.15l5.54-6.51H346l-7.3,7.76,8.31,11.12h-4.17l-6.52-9-1.75,2v7.1h-3.39v-27.69h3.39Z"/><path class="cls-2" d="M353.47,1569.56h.08c.47-.67,1.13-1.48,1.68-2.15l5.54-6.51h4.13l-7.29,7.76,8.31,11.12h-4.18l-6.51-9-1.76,2v7.1h-3.39v-27.69h3.39Z"/><path class="cls-2" d="M112.26,1626.58l-.27-2.38h-.12a7,7,0,0,1-5.77,2.81,5.39,5.39,0,0,1-5.78-5.43c0-4.56,4.06-7.06,11.35-7v-.39c0-1.56-.43-4.36-4.29-4.36a9.39,9.39,0,0,0-4.91,1.4l-.78-2.26a11.66,11.66,0,0,1,6.2-1.68c5.77,0,7.18,3.94,7.18,7.72v7.06a27.09,27.09,0,0,0,.31,4.53Zm-.51-9.64c-3.74-.08-8,.59-8,4.25a3,3,0,0,0,3.23,3.28,4.71,4.71,0,0,0,4.57-3.16,3.79,3.79,0,0,0,.19-1.09Z"/><path class="cls-2" d="M121.62,1607.7l3.7,10.61a46.62,46.62,0,0,1,1.53,4.83H127c.43-1.56,1-3.12,1.6-4.83l3.67-10.61h3.59l-7.42,18.88h-3.27L118,1607.7Z"/><path class="cls-2" d="M148.57,1607.7l4.13,11.15c.43,1.25.9,2.73,1.21,3.86H154c.35-1.13.74-2.57,1.21-3.94l3.74-11.07h3.63l-5.15,13.46c-2.46,6.47-4.13,9.78-6.47,11.81a9.27,9.27,0,0,1-4.22,2.22l-.85-2.88a9,9,0,0,0,3-1.68,10.31,10.31,0,0,0,2.89-3.82,2.55,2.55,0,0,0,.27-.82,3,3,0,0,0-.24-.9l-7-17.39Z"/><path class="cls-2" d="M165.69,1613.86c0-2.42-.08-4.37-.16-6.16h3.08l.16,3.24h.08a7.43,7.43,0,0,1,6.71-3.67c4.56,0,8,3.86,8,9.59,0,6.79-4.13,10.15-8.58,10.15a6.63,6.63,0,0,1-5.81-3h-.08v10.26h-3.39Zm3.39,5a7.59,7.59,0,0,0,.16,1.41,5.28,5.28,0,0,0,5.15,4c3.62,0,5.73-3,5.73-7.29,0-3.78-2-7-5.62-7a6,6,0,0,0-5.42,5.66Z"/><path class="cls-2" d="M187.88,1613.86c0-2.42-.08-4.37-.16-6.16h3.08l.16,3.24H191a7.43,7.43,0,0,1,6.71-3.67c4.56,0,8,3.86,8,9.59,0,6.79-4.13,10.15-8.58,10.15a6.63,6.63,0,0,1-5.81-3h-.08v10.26h-3.39Zm3.39,5a7.59,7.59,0,0,0,.16,1.41,5.28,5.28,0,0,0,5.15,4c3.62,0,5.73-3,5.73-7.29,0-3.78-2-7-5.62-7a6,6,0,0,0-5.42,5.66Z"/><path class="cls-2" d="M212,1617.76c.08,4.64,3,6.55,6.47,6.55a12.54,12.54,0,0,0,5.23-1l.59,2.46A15.41,15.41,0,0,1,218,1627c-5.81,0-9.29-3.83-9.29-9.52s3.36-10.18,8.86-10.18c6.16,0,7.8,5.42,7.8,8.89a12.66,12.66,0,0,1-.12,1.6ZM222,1615.3c0-2.18-.89-5.57-4.76-5.57-3.47,0-5,3.2-5.26,5.57Z"/><path class="cls-2" d="M229.61,1613.59c0-2.23,0-4.14-.16-5.89h3l.11,3.7h.16a5.66,5.66,0,0,1,5.22-4.13,3.65,3.65,0,0,1,1,.12v3.23a5.67,5.67,0,0,0-1.17-.11c-2.42,0-4.13,1.83-4.6,4.41a9.28,9.28,0,0,0-.16,1.59v10.07h-3.39Z"/><path class="cls-2" d="M241.89,1623.07a9.05,9.05,0,0,0,4.53,1.36c2.49,0,3.66-1.25,3.66-2.81s-1-2.53-3.51-3.47c-3.39-1.21-5-3.08-5-5.34,0-3,2.46-5.54,6.51-5.54a9.5,9.5,0,0,1,4.65,1.17l-.86,2.5a7.33,7.33,0,0,0-3.86-1.1c-2,0-3.16,1.17-3.16,2.58s1.13,2.26,3.59,3.2c3.27,1.24,5,2.88,5,5.69,0,3.32-2.58,5.66-7.06,5.66a10.72,10.72,0,0,1-5.3-1.29Z"/><path class="cls-2" d="M261.94,1602.28v5.42h4.91v2.61h-4.91v10.18c0,2.34.66,3.67,2.57,3.67a7.45,7.45,0,0,0,2-.24l.16,2.58a8.46,8.46,0,0,1-3,.47,4.76,4.76,0,0,1-3.71-1.45c-1-1-1.32-2.69-1.32-4.91v-10.3h-2.93v-2.61h2.93v-4.52Z"/><path class="cls-2" d="M272.39,1617.76c.08,4.64,3,6.55,6.48,6.55a12.49,12.49,0,0,0,5.22-1l.59,2.46a15.41,15.41,0,0,1-6.28,1.17c-5.81,0-9.28-3.83-9.28-9.52s3.35-10.18,8.85-10.18c6.16,0,7.8,5.42,7.8,8.89a12.66,12.66,0,0,1-.12,1.6Zm10.06-2.46c0-2.18-.89-5.57-4.75-5.57-3.48,0-5,3.2-5.27,5.57Z"/><path class="cls-2" d="M301.68,1616.36h.08c.47-.67,1.13-1.48,1.68-2.15l5.53-6.51h4.14l-7.3,7.76,8.31,11.12H310l-6.51-9-1.76,2v7.1h-3.39v-27.7h3.39Z"/><path class="cls-2" d="M318.41,1607.7l3.71,10.61a49,49,0,0,1,1.52,4.83h.11c.43-1.56,1-3.12,1.6-4.83L329,1607.7h3.59l-7.41,18.88h-3.28l-7.18-18.88Z"/><path class="cls-2" d="M346.14,1626.58l-.27-2.38h-.12A7,7,0,0,1,340,1627a5.38,5.38,0,0,1-5.77-5.43c0-4.56,4.05-7.06,11.35-7v-.39c0-1.56-.43-4.36-4.3-4.36a9.39,9.39,0,0,0-4.91,1.4l-.78-2.26a11.66,11.66,0,0,1,6.2-1.68c5.77,0,7.18,3.94,7.18,7.72v7.06a27.09,27.09,0,0,0,.31,4.53Zm-.51-9.64c-3.74-.08-8,.59-8,4.25a3,3,0,0,0,3.23,3.28,4.71,4.71,0,0,0,4.57-3.16,3.47,3.47,0,0,0,.19-1.09Z"/><path class="cls-2" d="M354.48,1598.88h3.44v27.7h-3.44Z"/><path class="cls-2" d="M367.51,1602.4a2.13,2.13,0,0,1-4.25,0,2.1,2.1,0,0,1,2.15-2.15A2,2,0,0,1,367.51,1602.4Zm-3.82,24.18V1607.7h3.43v18.88Z"/><path class="cls-2" d="M377,1602.28v5.42h4.91v2.61H377v10.18c0,2.34.66,3.67,2.57,3.67a7.45,7.45,0,0,0,2-.24l.16,2.58a8.46,8.46,0,0,1-3,.47,4.76,4.76,0,0,1-3.71-1.45c-1-1-1.32-2.69-1.32-4.91v-10.3h-2.93v-2.61h2.93v-4.52Z"/><path class="cls-2" d="M387.4,1617.76c.08,4.64,3,6.55,6.48,6.55a12.49,12.49,0,0,0,5.22-1l.59,2.46a15.41,15.41,0,0,1-6.28,1.17c-5.81,0-9.28-3.83-9.28-9.52s3.35-10.18,8.85-10.18c6.16,0,7.8,5.42,7.8,8.89a12.66,12.66,0,0,1-.12,1.6Zm10.06-2.46c0-2.18-.89-5.57-4.75-5.57-3.48,0-5,3.2-5.27,5.57Z"/><path class="cls-2" d="M409.16,1602.28v5.42h4.92v2.61h-4.92v10.18c0,2.34.67,3.67,2.58,3.67a7.45,7.45,0,0,0,2-.24l.15,2.58a8.42,8.42,0,0,1-3,.47,4.73,4.73,0,0,1-3.7-1.45c-1-1-1.33-2.69-1.33-4.91v-10.3h-2.92v-2.61h2.92v-4.52Z"/><path class="cls-2" d="M417,1624.55a2.31,2.31,0,0,1,2.34-2.46,2.46,2.46,0,0,1,0,4.92A2.3,2.3,0,0,1,417,1624.55Z"/><path class="cls-2" d="M101.46,1669.24a12,12,0,0,0,6.08,1.72c3.47,0,5.5-1.83,5.5-4.49,0-2.45-1.4-3.86-5-5.22-4.29-1.52-7-3.75-7-7.45,0-4.1,3.4-7.14,8.51-7.14a11.86,11.86,0,0,1,5.81,1.29l-.94,2.77a10.44,10.44,0,0,0-5-1.25c-3.59,0-5,2.14-5,3.94,0,2.45,1.59,3.66,5.22,5.07,4.45,1.71,6.71,3.86,6.71,7.72,0,4.06-3,7.57-9.2,7.57a13.52,13.52,0,0,1-6.71-1.68Z"/><path class="cls-2" d="M121,1660.66c0-2.42-.07-4.37-.15-6.16H124l.15,3.24h.08a7.44,7.44,0,0,1,6.71-3.67c4.56,0,8,3.86,8,9.6,0,6.78-4.14,10.14-8.58,10.14a6.65,6.65,0,0,1-5.82-3h-.07v10.26H121Zm3.4,5a7.62,7.62,0,0,0,.15,1.41,5.29,5.29,0,0,0,5.15,4c3.63,0,5.73-3,5.73-7.29,0-3.78-2-7-5.61-7a5.92,5.92,0,0,0-5.42,5.66Z"/><path class="cls-2" d="M147.05,1649.2a2.13,2.13,0,0,1-4.26,0,2.1,2.1,0,0,1,2.15-2.15A2,2,0,0,1,147.05,1649.2Zm-3.83,24.18V1654.5h3.44v18.88Z"/><path class="cls-2" d="M152.35,1645.68h3.43v27.7h-3.43Z"/><path class="cls-2" d="M161.55,1645.68H165v27.7h-3.44Z"/><path class="cls-2" d="M172.67,1664.56c.08,4.64,3,6.55,6.47,6.55a12.54,12.54,0,0,0,5.23-1l.58,2.46a15.32,15.32,0,0,1-6.27,1.17c-5.82,0-9.29-3.83-9.29-9.52s3.36-10.18,8.86-10.18c6.16,0,7.8,5.42,7.8,8.89a12.5,12.5,0,0,1-.12,1.6Zm10.06-2.46c0-2.18-.9-5.57-4.76-5.57-3.47,0-5,3.2-5.26,5.57Z"/><path class="cls-2" d="M190.3,1660.39c0-2.22,0-4.13-.16-5.89h3l.12,3.7h.16a5.65,5.65,0,0,1,5.22-4.13,3.65,3.65,0,0,1,1,.12v3.24a5,5,0,0,0-1.17-.12c-2.42,0-4.14,1.83-4.6,4.41a9.28,9.28,0,0,0-.16,1.59v10.07H190.3Z"/><path class="cls-2" d="M228.4,1663.78c0,7-4.84,10-9.4,10-5.11,0-9.05-3.75-9.05-9.72,0-6.31,4.14-10,9.36-10C224.73,1654.07,228.4,1658,228.4,1663.78Zm-15,.2c0,4.13,2.38,7.25,5.74,7.25s5.73-3.08,5.73-7.33c0-3.2-1.6-7.25-5.66-7.25S213.42,1660.39,213.42,1664Z"/><path class="cls-2" d="M232.73,1660.66c0-2.42-.08-4.37-.16-6.16h3.08l.16,3.24h.08a7.43,7.43,0,0,1,6.71-3.67c4.56,0,8,3.86,8,9.6,0,6.78-4.13,10.14-8.58,10.14a6.63,6.63,0,0,1-5.81-3h-.08v10.26h-3.39Zm3.39,5a7.59,7.59,0,0,0,.16,1.41,5.28,5.28,0,0,0,5.15,4c3.62,0,5.73-3,5.73-7.29,0-3.78-2-7-5.62-7a6,6,0,0,0-5.42,5.66Z"/><path class="cls-2" d="M254.92,1660.66c0-2.42-.08-4.37-.16-6.16h3.08l.16,3.24h.08a7.43,7.43,0,0,1,6.71-3.67c4.56,0,8,3.86,8,9.6,0,6.78-4.13,10.14-8.58,10.14a6.63,6.63,0,0,1-5.81-3h-.08v10.26h-3.39Zm3.39,5a7.59,7.59,0,0,0,.16,1.41,5.28,5.28,0,0,0,5.15,4c3.62,0,5.73-3,5.73-7.29,0-3.78-2-7-5.62-7a6,6,0,0,0-5.42,5.66Z"/><path class="cls-2" d="M289.51,1649.08v5.42h4.92v2.61h-4.92v10.18c0,2.34.66,3.67,2.58,3.67a7.36,7.36,0,0,0,2-.24l.16,2.58a8.46,8.46,0,0,1-3,.47,4.76,4.76,0,0,1-3.71-1.45c-1-1-1.32-2.69-1.32-4.91v-10.3h-2.93v-2.61h2.93V1650Z"/><path class="cls-2" d="M302.11,1649.2a2.13,2.13,0,0,1-4.25,0,2.09,2.09,0,0,1,2.14-2.15A2,2,0,0,1,302.11,1649.2Zm-3.82,24.18V1654.5h3.43v18.88Z"/><path class="cls-2" d="M307.41,1645.68h3.43v27.7h-3.43Z"/><path class="cls-2" d="M341.19,1645.68v22.82c0,1.68,0,3.59.15,4.88h-3.08l-.15-3.28H338a7,7,0,0,1-6.44,3.71c-4.56,0-8.07-3.87-8.07-9.6,0-6.28,3.86-10.14,8.46-10.14a6.32,6.32,0,0,1,5.7,2.89h.07v-11.28Zm-3.44,16.5a5.93,5.93,0,0,0-.15-1.44,5.06,5.06,0,0,0-5-4c-3.55,0-5.66,3.12-5.66,7.3,0,3.82,1.87,7,5.58,7a5.17,5.17,0,0,0,5-4.1,5.8,5.8,0,0,0,.15-1.48Z"/><path class="cls-2" d="M357.33,1673.38l-.27-2.38h-.12a7,7,0,0,1-5.77,2.81,5.38,5.38,0,0,1-5.77-5.43c0-4.56,4.05-7.05,11.35-7V1661c0-1.56-.43-4.36-4.29-4.36a9.4,9.4,0,0,0-4.92,1.4l-.78-2.26a11.66,11.66,0,0,1,6.2-1.68c5.78,0,7.18,3.94,7.18,7.72v7.06a27.09,27.09,0,0,0,.31,4.53Zm-.51-9.64c-3.74-.07-8,.59-8,4.26a3,3,0,0,0,3.24,3.27,4.7,4.7,0,0,0,4.56-3.16,3.47,3.47,0,0,0,.19-1.09Z"/><path class="cls-2" d="M365.68,1659.61c0-1.95,0-3.55-.16-5.11h3l.2,3.12h.08a6.94,6.94,0,0,1,6.24-3.55c2.61,0,6.67,1.56,6.67,8v11.28h-3.44V1662.5c0-3-1.13-5.58-4.36-5.58a4.88,4.88,0,0,0-4.61,3.51,5.1,5.1,0,0,0-.23,1.6v11.35h-3.43Z"/><path class="cls-2" d="M386.85,1669.87a9.05,9.05,0,0,0,4.53,1.36c2.49,0,3.66-1.25,3.66-2.81s-1-2.53-3.51-3.47c-3.39-1.21-5-3.08-5-5.34,0-3,2.46-5.54,6.52-5.54a9.48,9.48,0,0,1,4.64,1.17l-.86,2.5a7.34,7.34,0,0,0-3.86-1.09c-2,0-3.16,1.17-3.16,2.57,0,1.56,1.13,2.26,3.59,3.2,3.27,1.25,4.95,2.88,4.95,5.69,0,3.32-2.57,5.66-7.06,5.66a10.72,10.72,0,0,1-5.3-1.29Z"/><path class="cls-2" d="M411,1660.66c0-2.42-.07-4.37-.15-6.16H414l.15,3.24h.08a7.44,7.44,0,0,1,6.71-3.67c4.56,0,8,3.86,8,9.6,0,6.78-4.14,10.14-8.58,10.14a6.65,6.65,0,0,1-5.82-3h-.07v10.26H411Zm3.4,5a7.62,7.62,0,0,0,.15,1.41,5.29,5.29,0,0,0,5.15,4c3.63,0,5.73-3,5.73-7.29,0-3.78-2-7-5.61-7a5.92,5.92,0,0,0-5.42,5.66Z"/><path class="cls-2" d="M443.68,1673.38l-.28-2.38h-.11a7.07,7.07,0,0,1-5.78,2.81,5.38,5.38,0,0,1-5.77-5.43c0-4.56,4.06-7.05,11.35-7V1661c0-1.56-.43-4.36-4.29-4.36a9.37,9.37,0,0,0-4.91,1.4l-.78-2.26a11.66,11.66,0,0,1,6.2-1.68c5.77,0,7.17,3.94,7.17,7.72v7.06a26,26,0,0,0,.32,4.53Zm-.51-9.64c-3.75-.07-8,.59-8,4.26a3,3,0,0,0,3.24,3.27,4.68,4.68,0,0,0,4.56-3.16,3.49,3.49,0,0,0,.2-1.09Zm-7.37-14.86a3.68,3.68,0,0,1,4-3.7,3.62,3.62,0,0,1,3.86,3.66,3.94,3.94,0,0,1-7.84,0Zm5.93-.07a2,2,0,0,0-2-2.15,2,2,0,0,0-1.91,2.22,2,2,0,1,0,3.94-.07Z"/><path class="cls-2" d="M118.11,1692.49v22.81c0,1.68,0,3.59.16,4.88h-3.09l-.15-3.28H115a7,7,0,0,1-6.43,3.7c-4.57,0-8.08-3.86-8.08-9.59,0-6.28,3.86-10.14,8.46-10.14a6.32,6.32,0,0,1,5.7,2.89h.08v-11.27ZM114.68,1709a5.89,5.89,0,0,0-.16-1.44,5.06,5.06,0,0,0-5-4c-3.55,0-5.66,3.12-5.66,7.29,0,3.83,1.87,7,5.58,7a5.15,5.15,0,0,0,5-4.1,5.79,5.79,0,0,0,.16-1.48Z"/><path class="cls-2" d="M127.62,1696a2,2,0,0,1-2.18,2.1,2,2,0,0,1-2.07-2.1,2.1,2.1,0,0,1,2.15-2.15A2,2,0,0,1,127.62,1696Zm-3.82,24.18V1701.3h3.43v18.88Z"/><path class="cls-2" d="M137.06,1695.88v5.42H142v2.61h-4.92v10.18c0,2.34.67,3.67,2.58,3.67a7.51,7.51,0,0,0,2-.24l.15,2.58a8.42,8.42,0,0,1-3,.47,4.76,4.76,0,0,1-3.71-1.45c-1-1-1.32-2.69-1.32-4.91v-10.3h-2.93v-2.61h2.93v-4.53Z"/><path class="cls-2" d="M150,1695.88v5.42h4.92v2.61H150v10.18c0,2.34.67,3.67,2.58,3.67a7.51,7.51,0,0,0,2-.24l.15,2.58a8.42,8.42,0,0,1-3,.47,4.76,4.76,0,0,1-3.71-1.45c-1-1-1.32-2.69-1.32-4.91v-10.3h-2.93v-2.61h2.93v-4.53Z"/><path class="cls-2" d="M177.47,1720.18l-.28-2.38h-.11a7,7,0,0,1-5.77,2.8,5.37,5.37,0,0,1-5.78-5.42c0-4.56,4.06-7.06,11.35-7v-.39c0-1.56-.43-4.36-4.29-4.36a9.37,9.37,0,0,0-4.91,1.4l-.78-2.26a11.66,11.66,0,0,1,6.2-1.68c5.77,0,7.17,3.94,7.17,7.72v7.06a26,26,0,0,0,.32,4.53Zm-.51-9.64c-3.74-.07-8,.59-8,4.25a3,3,0,0,0,3.24,3.28,4.71,4.71,0,0,0,4.57-3.16,3.79,3.79,0,0,0,.19-1.09Z"/><path class="cls-2" d="M185.81,1707.19c0-2.22,0-4.14-.15-5.89h3l.12,3.71h.15a5.67,5.67,0,0,1,5.23-4.14,3.58,3.58,0,0,1,1,.12v3.24a5,5,0,0,0-1.17-.12c-2.41,0-4.13,1.83-4.6,4.4a9.57,9.57,0,0,0-.15,1.6v10.07h-3.4Z"/><path class="cls-2" d="M198.72,1707.19c0-2.22,0-4.14-.15-5.89h3l.12,3.71h.15a5.67,5.67,0,0,1,5.23-4.14,3.58,3.58,0,0,1,1,.12v3.24a5,5,0,0,0-1.17-.12c-2.42,0-4.13,1.83-4.6,4.4a9.51,9.51,0,0,0-.16,1.6v10.07h-3.39Z"/><path class="cls-2" d="M221.73,1720.18l-.27-2.38h-.12a7,7,0,0,1-5.77,2.8,5.37,5.37,0,0,1-5.77-5.42c0-4.56,4-7.06,11.35-7v-.39c0-1.56-.43-4.36-4.29-4.36a9.4,9.4,0,0,0-4.92,1.4l-.78-2.26a11.66,11.66,0,0,1,6.2-1.68c5.78,0,7.18,3.94,7.18,7.72v7.06a27.09,27.09,0,0,0,.31,4.53Zm-.5-9.64c-3.75-.07-8,.59-8,4.25a3,3,0,0,0,3.24,3.28,4.7,4.7,0,0,0,4.56-3.16,3.49,3.49,0,0,0,.2-1.09Z"/><path class="cls-2" d="M230.08,1706.41c0-2,0-3.55-.16-5.11h3l.2,3.12h.08a6.94,6.94,0,0,1,6.24-3.55c2.61,0,6.67,1.56,6.67,8v11.27h-3.44v-10.89c0-3-1.13-5.57-4.36-5.57a4.88,4.88,0,0,0-4.61,3.51,5.1,5.1,0,0,0-.23,1.6v11.35h-3.43Z"/><path class="cls-2" d="M268,1701.3c-.07,1.37-.15,2.89-.15,5.19v11c0,4.32-.86,7-2.69,8.62a10,10,0,0,1-6.87,2.26,12.25,12.25,0,0,1-6.28-1.56l.86-2.61a10.75,10.75,0,0,0,5.54,1.48c3.51,0,6.09-1.84,6.09-6.59v-2.11h-.08a6.76,6.76,0,0,1-6,3.16c-4.68,0-8-4-8-9.21,0-6.39,4.17-10,8.5-10a6.28,6.28,0,0,1,5.89,3.28h.08l.15-2.85Zm-3.54,7.45a4.76,4.76,0,0,0-.2-1.56,4.94,4.94,0,0,0-4.8-3.63c-3.27,0-5.61,2.77-5.61,7.14,0,3.7,1.87,6.79,5.57,6.79a5,5,0,0,0,4.76-3.51,5.88,5.88,0,0,0,.28-1.84Z"/><path class="cls-2" d="M275.43,1711.36c.08,4.64,3.05,6.56,6.48,6.56a12.31,12.31,0,0,0,5.22-1l.59,2.46a15.41,15.41,0,0,1-6.28,1.17c-5.81,0-9.28-3.83-9.28-9.52s3.35-10.18,8.85-10.18c6.16,0,7.8,5.42,7.8,8.89a12.5,12.5,0,0,1-.12,1.6Zm10.07-2.45c0-2.19-.9-5.58-4.76-5.58-3.47,0-5,3.2-5.27,5.58Z"/><path class="cls-2" d="M293.06,1706.41c0-2,0-3.55-.15-5.11h3l.16,3h.11a6.51,6.51,0,0,1,5.93-3.47,5.58,5.58,0,0,1,5.34,3.78h.08a7.8,7.8,0,0,1,2.11-2.45,6.43,6.43,0,0,1,4.17-1.33c2.5,0,6.2,1.64,6.2,8.19v11.12h-3.35v-10.69c0-3.63-1.33-5.81-4.1-5.81a4.43,4.43,0,0,0-4.05,3.12,5.51,5.51,0,0,0-.28,1.71v11.67h-3.35v-11.31c0-3-1.33-5.19-3.94-5.19a4.68,4.68,0,0,0-4.25,3.43,4.63,4.63,0,0,0-.27,1.68v11.39h-3.36Z"/><path class="cls-2" d="M327.5,1711.36c.08,4.64,3,6.56,6.47,6.56a12.36,12.36,0,0,0,5.23-1l.58,2.46a15.32,15.32,0,0,1-6.27,1.17c-5.82,0-9.29-3.83-9.29-9.52s3.36-10.18,8.86-10.18c6.16,0,7.8,5.42,7.8,8.89a12.5,12.5,0,0,1-.12,1.6Zm10.06-2.45c0-2.19-.9-5.58-4.76-5.58-3.47,0-5,3.2-5.26,5.58Z"/><path class="cls-2" d="M345.13,1706.41c0-2,0-3.55-.16-5.11h3l.2,3.12h.08a6.94,6.94,0,0,1,6.24-3.55c2.61,0,6.67,1.56,6.67,8v11.27h-3.44v-10.89c0-3-1.13-5.57-4.36-5.57a4.88,4.88,0,0,0-4.61,3.51,5.1,5.1,0,0,0-.23,1.6v11.35h-3.43Z"/><path class="cls-2" d="M370.75,1695.88v5.42h4.91v2.61h-4.91v10.18c0,2.34.66,3.67,2.57,3.67a7.45,7.45,0,0,0,2-.24l.16,2.58a8.46,8.46,0,0,1-3,.47,4.76,4.76,0,0,1-3.71-1.45c-1-1-1.32-2.69-1.32-4.91v-10.3h-2.93v-2.61h2.93v-4.53Z"/><path class="cls-2" d="M378.86,1718.19a2.29,2.29,0,0,1,2.3-2.42,2.42,2.42,0,0,1,0,4.83A2.28,2.28,0,0,1,378.86,1718.19Zm1-5.58-.55-18.72H383l-.55,18.72Z"/><path class="cls-2" d="M1184.92,1682.67a9.61,9.61,0,0,0,4.84,1.36c2.76,0,4.37-1.46,4.37-3.57,0-2-1.12-3.07-3.94-4.15-3.41-1.21-5.52-3-5.52-5.92,0-3.26,2.7-5.68,6.76-5.68a9.45,9.45,0,0,1,4.62,1l-.74,2.2a8.39,8.39,0,0,0-4-1c-2.86,0-3.94,1.7-3.94,3.13,0,2,1.27,2.91,4.15,4,3.54,1.36,5.34,3.07,5.34,6.14,0,3.22-2.39,6-7.32,6a10.8,10.8,0,0,1-5.33-1.33Z"/><path class="cls-2" d="M1202.19,1679c.06,3.68,2.41,5.2,5.14,5.2a10,10,0,0,0,4.16-.77l.46,1.95a12,12,0,0,1-5,.93c-4.62,0-7.38-3-7.38-7.56s2.67-8.1,7-8.1c4.9,0,6.2,4.31,6.2,7.07a10.79,10.79,0,0,1-.09,1.28Zm8-2c0-1.73-.72-4.43-3.79-4.43-2.76,0-4,2.54-4.18,4.43Z"/><path class="cls-2" d="M1216.2,1675c0-1.55,0-2.82-.13-4.06h2.42l.16,2.48h.06a5.51,5.51,0,0,1,5-2.83c2.08,0,5.3,1.24,5.3,6.39v9h-2.73v-8.65c0-2.42-.9-4.43-3.47-4.43a3.88,3.88,0,0,0-3.66,2.79,4.05,4.05,0,0,0-.18,1.27v9h-2.73Z"/><path class="cls-2" d="M1246.36,1663.94v18.14c0,1.33,0,2.85.13,3.87H1244l-.13-2.6h-.06a5.56,5.56,0,0,1-5.12,2.94c-3.62,0-6.41-3.07-6.41-7.62,0-5,3.07-8.07,6.72-8.07a5,5,0,0,1,4.53,2.3h.06v-9Zm-2.73,13.11a4.91,4.91,0,0,0-.12-1.14,4,4,0,0,0-3.94-3.17c-2.82,0-4.49,2.48-4.49,5.8,0,3,1.48,5.55,4.43,5.55a4.11,4.11,0,0,0,4-3.25,5,5,0,0,0,.12-1.18Z"/><path class="cls-2" d="M1259,1679c.06,3.68,2.41,5.2,5.14,5.2a10,10,0,0,0,4.16-.77l.46,1.95a12,12,0,0,1-5,.93c-4.62,0-7.38-3-7.38-7.56s2.67-8.1,7-8.1c4.9,0,6.2,4.31,6.2,7.07a10.79,10.79,0,0,1-.09,1.28Zm8-2c0-1.73-.72-4.43-3.79-4.43-2.76,0-4,2.54-4.18,4.43Z"/><path class="cls-2" d="M1273,1675c0-1.55,0-2.82-.13-4.06h2.42l.16,2.48h.06a5.51,5.51,0,0,1,5-2.83c2.08,0,5.3,1.24,5.3,6.39v9H1283v-8.65c0-2.42-.9-4.43-3.47-4.43a3.88,3.88,0,0,0-3.66,2.79,4.05,4.05,0,0,0-.18,1.27v9H1273Z"/><path class="cls-2" d="M1127.17,1719.06c0,1.55,0,2.91.12,4.09h-2.42l-.15-2.45h-.06a5.66,5.66,0,0,1-5,2.79c-2.36,0-5.18-1.3-5.18-6.57v-8.77h2.73v8.31c0,2.85.86,4.77,3.35,4.77a4,4,0,0,0,3.59-2.48,3.88,3.88,0,0,0,.25-1.4v-9.2h2.73Z"/><path class="cls-2" d="M1132,1723.15v-12.93h-2.11v-2.07H1132v-.72a7.08,7.08,0,0,1,1.74-5.24,5.21,5.21,0,0,1,3.66-1.39,6.26,6.26,0,0,1,2.32.43l-.37,2.11a4,4,0,0,0-1.74-.34c-2.32,0-2.91,2-2.91,4.34v.81h3.63v2.07h-3.63v12.93Z"/><path class="cls-2" d="M1153.92,1715.53c0,5.55-3.84,8-7.47,8-4.06,0-7.19-3-7.19-7.72,0-5,3.28-8,7.44-8S1153.92,1710.94,1153.92,1715.53Zm-11.9.15c0,3.29,1.89,5.77,4.55,5.77s4.56-2.45,4.56-5.83c0-2.54-1.27-5.77-4.49-5.77S1142,1712.83,1142,1715.68Z"/><path class="cls-2" d="M1157.36,1712.83c0-1.77,0-3.29-.12-4.68h2.38l.1,2.94h.12a4.51,4.51,0,0,1,4.15-3.29,3,3,0,0,1,.78.1v2.57a4.25,4.25,0,0,0-.93-.09c-1.92,0-3.29,1.46-3.66,3.5a8,8,0,0,0-.12,1.27v8h-2.7Z"/><path class="cls-2" d="M1167.62,1713.05c0-1.93-.06-3.48-.12-4.9H1170l.12,2.57h.06a5.91,5.91,0,0,1,5.33-2.92c3.63,0,6.36,3.07,6.36,7.63,0,5.4-3.29,8.06-6.82,8.06a5.26,5.26,0,0,1-4.62-2.35h-.06v8.15h-2.7Zm2.7,4a6.3,6.3,0,0,0,.12,1.12,4.21,4.21,0,0,0,4.09,3.19c2.89,0,4.56-2.35,4.56-5.79,0-3-1.58-5.59-4.46-5.59a4.37,4.37,0,0,0-4.13,3.38,4.68,4.68,0,0,0-.18,1.12Z"/><path class="cls-2" d="M1185.26,1701.14H1188v22h-2.73Z"/><path class="cls-2" d="M1195.61,1703.93a1.61,1.61,0,0,1-1.73,1.67,1.63,1.63,0,0,1-1.65-1.67,1.67,1.67,0,0,1,1.71-1.71A1.62,1.62,0,0,1,1195.61,1703.93Zm-3,19.22v-15h2.73v15Z"/><path class="cls-2" d="M1202.53,1715h.06c.37-.53.9-1.18,1.33-1.71l4.4-5.17h3.29l-5.8,6.17,6.61,8.83h-3.32l-5.18-7.19-1.39,1.55v5.64h-2.7v-22h2.7Z"/><path class="cls-2" d="M1217.65,1703.84v4.31h3.91v2.07h-3.91v8.1c0,1.86.53,2.91,2,2.91a5.75,5.75,0,0,0,1.58-.19l.13,2a6.66,6.66,0,0,1-2.42.37,3.8,3.8,0,0,1-3-1.14c-.77-.81-1-2.14-1-3.91v-8.19h-2.33v-2.07H1215v-3.6Z"/><path class="cls-2" d="M1226,1716.14c.06,3.7,2.42,5.21,5.15,5.21a9.92,9.92,0,0,0,4.15-.77l.47,2a12.07,12.07,0,0,1-5,.93c-4.62,0-7.38-3-7.38-7.56s2.66-8.1,7-8.1c4.89,0,6.2,4.31,6.2,7.07a10,10,0,0,1-.1,1.27Zm8-2c0-1.73-.71-4.43-3.78-4.43-2.76,0-4,2.54-4.19,4.43Z"/><path class="cls-2" d="M1240,1712.21c0-1.55,0-2.82-.12-4.06h2.42l.15,2.48h.06a5.52,5.52,0,0,1,5-2.83c2.08,0,5.31,1.25,5.31,6.39v9H1250v-8.65c0-2.42-.9-4.43-3.47-4.43a3.87,3.87,0,0,0-3.66,2.79,3.73,3.73,0,0,0-.19,1.27v9H1240Z"/><path class="cls-2" d="M1270.14,1701.14v18.14c0,1.33,0,2.85.12,3.87h-2.45l-.12-2.6h-.06a5.56,5.56,0,0,1-5.12,2.94c-3.63,0-6.42-3.07-6.42-7.62,0-5,3.07-8.07,6.73-8.07a5,5,0,0,1,4.53,2.3h.06v-9Zm-2.73,13.11a4.44,4.44,0,0,0-.13-1.14,4,4,0,0,0-3.93-3.17c-2.82,0-4.5,2.48-4.5,5.8,0,3,1.49,5.55,4.43,5.55a4.1,4.1,0,0,0,4-3.25,4.5,4.5,0,0,0,.13-1.18Z"/><path class="cls-2" d="M1276.18,1716.14c.06,3.7,2.42,5.21,5.15,5.21a9.92,9.92,0,0,0,4.15-.77l.47,2a12.09,12.09,0,0,1-5,.93c-4.62,0-7.37-3-7.37-7.56s2.66-8.1,7-8.1c4.9,0,6.21,4.31,6.21,7.07a10,10,0,0,1-.1,1.27Zm8-2c0-1.73-.71-4.43-3.78-4.43-2.76,0-4,2.54-4.19,4.43Z"/><path class="cls-2" d="M1203.43,1749.41c0-1.55,0-2.82-.13-4.06h2.39l.12,2.41h.1a5.16,5.16,0,0,1,4.71-2.75,4.45,4.45,0,0,1,4.25,3h.06a6.12,6.12,0,0,1,1.67-2,5.13,5.13,0,0,1,3.32-1c2,0,4.93,1.3,4.93,6.51v8.83h-2.67v-8.49c0-2.89-1-4.62-3.25-4.62a3.54,3.54,0,0,0-3.23,2.48,4.62,4.62,0,0,0-.21,1.36v9.27h-2.67v-9c0-2.39-1-4.12-3.13-4.12a3.71,3.71,0,0,0-3.38,2.73,3.61,3.61,0,0,0-.22,1.33v9h-2.66Z"/><path class="cls-2" d="M1237.59,1760.35l-.22-1.89h-.09a5.59,5.59,0,0,1-4.59,2.23,4.28,4.28,0,0,1-4.59-4.31c0-3.62,3.22-5.61,9-5.58v-.31c0-1.24-.34-3.47-3.41-3.47a7.39,7.39,0,0,0-3.9,1.12l-.62-1.8a9.26,9.26,0,0,1,4.93-1.33c4.58,0,5.7,3.13,5.7,6.13v5.62a20.63,20.63,0,0,0,.25,3.59Zm-.4-7.66c-3-.06-6.36.47-6.36,3.38a2.42,2.42,0,0,0,2.57,2.61,3.73,3.73,0,0,0,3.63-2.51,3,3,0,0,0,.16-.87Z"/><path class="cls-2" d="M1247.26,1741.13a1.69,1.69,0,0,1-3.38,0,1.66,1.66,0,0,1,1.7-1.71A1.62,1.62,0,0,1,1247.26,1741.13Zm-3,19.22v-15H1247v15Z"/><path class="cls-2" d="M1251.47,1738.34h2.73v22h-2.73Z"/><path class="cls-2" d="M1268.65,1741v4.31h3.9v2.07h-3.9v8.1c0,1.86.52,2.91,2,2.91a5.69,5.69,0,0,0,1.58-.19l.13,2a6.66,6.66,0,0,1-2.42.37,3.82,3.82,0,0,1-3-1.14c-.77-.81-1-2.14-1-3.91v-8.19h-2.32v-2.07H1266v-3.6Z"/><path class="cls-2" d="M1278.66,1741.13a1.69,1.69,0,0,1-3.38,0,1.67,1.67,0,0,1,1.71-1.71A1.62,1.62,0,0,1,1278.66,1741.13Zm-3,19.22v-15h2.73v15Z"/><path class="cls-2" d="M1282.88,1738.34h2.72v22h-2.72Z"/><path class="cls-2" d="M945.63,1804.05c0-3.1-.1-5.6-.2-7.9h4l.2,4.15h.1a9.51,9.51,0,0,1,8.6-4.7c5.86,0,10.26,5,10.26,12.3,0,8.7-5.31,13-11,13a8.49,8.49,0,0,1-7.45-3.8H950v13.15h-4.35Zm4.35,6.45a9.91,9.91,0,0,0,.2,1.8,6.79,6.79,0,0,0,6.6,5.15c4.66,0,7.36-3.8,7.36-9.35,0-4.85-2.55-9-7.2-9a7,7,0,0,0-6.66,5.45,7.14,7.14,0,0,0-.3,1.8Z"/><path class="cls-2" d="M996,1808.05c0,9-6.2,12.85-12.05,12.85-6.55,0-11.6-4.8-11.6-12.45,0-8.1,5.3-12.85,12-12.85C991.28,1795.6,996,1800.65,996,1808.05Zm-19.2.25c0,5.3,3.05,9.3,7.35,9.3s7.35-3.95,7.35-9.4c0-4.1-2.05-9.3-7.25-9.3S976.78,1803.7,976.78,1808.3Z"/><path class="cls-2" d="M1000.93,1815.85a11.53,11.53,0,0,0,5.8,1.75c3.2,0,4.7-1.6,4.7-3.6s-1.25-3.25-4.5-4.45c-4.35-1.55-6.4-4-6.4-6.85,0-3.9,3.15-7.1,8.35-7.1a12.08,12.08,0,0,1,6,1.5l-1.1,3.2a9.42,9.42,0,0,0-5-1.4c-2.6,0-4,1.5-4,3.3,0,2,1.45,2.9,4.6,4.1,4.2,1.6,6.35,3.7,6.35,7.3,0,4.25-3.3,7.25-9,7.25a13.8,13.8,0,0,1-6.8-1.65Z"/><path class="cls-2" d="M1026.63,1789.2v7h6.3v3.35h-6.3v13c0,3,.85,4.7,3.3,4.7a9.79,9.79,0,0,0,2.55-.3l.2,3.3a10.77,10.77,0,0,1-3.9.6A6.1,6.1,0,0,1,1024,1819c-1.25-1.3-1.7-3.45-1.7-6.3v-13.2h-3.75v-3.35h3.75v-5.8Z"/><path class="cls-2" d="M1060.43,1823.55a18.22,18.22,0,0,1-8.9,2c-8.2,0-15.15-6-15.15-15.6,0-10.3,7.15-19.2,18.25-19.2,8.7,0,14.56,6.1,14.56,14.45,0,7.5-4.21,11.9-8.91,11.9-2,0-3.85-1.35-3.7-4.4h-.2c-1.75,3-4.05,4.4-7.05,4.4s-5.4-2.35-5.4-6.3a11.81,11.81,0,0,1,11.85-11.85,13.18,13.18,0,0,1,5.35,1l-1.7,9c-.75,3.8-.15,5.55,1.5,5.6,2.55,0,5.4-3.35,5.4-9.15,0-7.25-4.35-12.45-12.1-12.45-8.15,0-15,6.45-15,16.6,0,8.35,5.45,13.5,12.85,13.5a15.6,15.6,0,0,0,7.55-1.75Zm-2.75-21.6a8.64,8.64,0,0,0-2.5-.35c-4.4,0-8,4.15-8,9,0,2.2,1.1,3.8,3.3,3.8,2.9,0,5.55-3.7,6.1-6.8Z"/><path class="cls-2" d="M1074.13,1815.85a11.53,11.53,0,0,0,5.8,1.75c3.2,0,4.7-1.6,4.7-3.6s-1.25-3.25-4.5-4.45c-4.35-1.55-6.4-4-6.4-6.85,0-3.9,3.15-7.1,8.35-7.1a12.08,12.08,0,0,1,6,1.5l-1.1,3.2a9.42,9.42,0,0,0-5-1.4c-2.6,0-4,1.5-4,3.3,0,2,1.45,2.9,4.6,4.1,4.2,1.6,6.35,3.7,6.35,7.3,0,4.25-3.3,7.25-9.05,7.25a13.8,13.8,0,0,1-6.8-1.65Z"/><path class="cls-2" d="M1094.53,1802.7c0-2.5,0-4.55-.2-6.55h3.85l.2,3.9h.15a8.34,8.34,0,0,1,7.6-4.45,7.15,7.15,0,0,1,6.85,4.85h.1a10,10,0,0,1,2.7-3.15,8.26,8.26,0,0,1,5.35-1.7c3.2,0,7.95,2.1,7.95,10.5v14.25h-4.3v-13.7c0-4.65-1.7-7.45-5.25-7.45a5.7,5.7,0,0,0-5.2,4,7.25,7.25,0,0,0-.35,2.2v14.95h-4.3v-14.5c0-3.85-1.7-6.65-5-6.65a6.56,6.56,0,0,0-5.8,6.55v14.6h-4.3Z"/><path class="cls-2" d="M1158.13,1808.05c0,9-6.2,12.85-12.05,12.85-6.55,0-11.6-4.8-11.6-12.45,0-8.1,5.3-12.85,12-12.85C1153.43,1795.6,1158.13,1800.65,1158.13,1808.05Zm-19.2.25c0,5.3,3,9.3,7.35,9.3s7.35-3.95,7.35-9.4c0-4.1-2.05-9.3-7.25-9.3S1138.93,1803.7,1138.93,1808.3Z"/><path class="cls-2" d="M1163.68,1784.85h4.4v35.5h-4.4Z"/><path class="cls-2" d="M1175.48,1784.85h4.4v35.5h-4.4Z"/><path class="cls-2" d="M1189.73,1809.05c.1,6,3.9,8.4,8.3,8.4a15.91,15.91,0,0,0,6.7-1.25l.75,3.15a19.6,19.6,0,0,1-8,1.5c-7.45,0-11.9-4.9-11.9-12.2s4.3-13.05,11.35-13.05c7.9,0,10,7,10,11.4a16.6,16.6,0,0,1-.15,2Zm12.9-3.15c0-2.8-1.15-7.15-6.1-7.15-4.45,0-6.4,4.1-6.75,7.15Z"/><path class="cls-2" d="M1212.33,1803.7c0-2.85,0-5.3-.2-7.55H1216l.15,4.75h.2a7.26,7.26,0,0,1,6.7-5.3,4.76,4.76,0,0,1,1.25.15v4.15a6.61,6.61,0,0,0-1.5-.15c-3.1,0-5.3,2.35-5.9,5.65a12.38,12.38,0,0,0-.2,2v12.9h-4.35Z"/><path class="cls-2" d="M1225,1817.75a3,3,0,0,1,3-3.15,3.16,3.16,0,1,1-3,3.15Z"/><path class="cls-2" d="M1236.38,1802.7c0-2.5-.05-4.55-.2-6.55h3.9l.25,4h.1a8.9,8.9,0,0,1,8-4.55c3.35,0,8.55,2,8.55,10.3v14.45h-4.4V1806.4c0-3.9-1.45-7.15-5.6-7.15a6.25,6.25,0,0,0-5.9,4.5,6.33,6.33,0,0,0-.3,2v14.55h-4.4Z"/><path class="cls-2" d="M1286,1808.05c0,9-6.2,12.85-12,12.85-6.55,0-11.6-4.8-11.6-12.45,0-8.1,5.3-12.85,12-12.85C1281.33,1795.6,1286,1800.65,1286,1808.05Zm-19.2.25c0,5.3,3.05,9.3,7.35,9.3s7.35-3.95,7.35-9.4c0-4.1-2-9.3-7.25-9.3S1266.83,1803.7,1266.83,1808.3Z"/><rect class="cls-1" width="1401.68" height="926.57"/><rect class="cls-2" x="505.35" y="503.82" width="389.28" height="178.98"/><polygon class="cls-2" points="811.32 234.81 741.14 264.82 670.95 234.81 739.61 427.49 811.32 234.81"/><path class="cls-3" d="M554.84,568a20.86,20.86,0,0,0,10.57,3c6,0,9.57-3.18,9.57-7.79,0-4.27-2.44-6.72-8.61-9.09-7.47-2.65-12.08-6.51-12.08-13,0-7.12,5.9-12.41,14.79-12.41a20.65,20.65,0,0,1,10.1,2.24l-1.63,4.81a18.23,18.23,0,0,0-8.68-2.17c-6.24,0-8.61,3.73-8.61,6.85,0,4.27,2.78,6.37,9.09,8.81,7.73,3,11.66,6.72,11.66,13.43,0,7.06-5.22,13.16-16,13.16-4.41,0-9.22-1.29-11.66-2.92Z"/><path class="cls-3" d="M565,577.8c-4.63,0-9.87-1.33-12.73-3.24l-1.18-.79,2.62-8.7,2.12,1.31a19.05,19.05,0,0,0,9.57,2.69c4.79,0,7.65-2.19,7.65-5.87,0-2.89-1.18-4.91-7.38-7.3-8.94-3.17-13.31-8-13.31-14.74,0-8.31,7-14.33,16.71-14.33a22.34,22.34,0,0,1,11,2.49l1.38.78-2.87,8.48-2-1.09a16.13,16.13,0,0,0-7.77-1.94c-4.94,0-6.69,2.66-6.69,4.93,0,2.7,1.18,4.44,7.86,7,6.38,2.46,12.89,6.2,12.89,15.22C582.93,570.23,577.39,577.8,565,577.8ZM555.63,572A24,24,0,0,0,565,574c10.38,0,14.08-5.81,14.08-11.24s-2.92-8.74-10.43-11.63c-6.54-2.53-10.32-5.08-10.32-10.61,0-4.22,3.3-8.77,10.53-8.77a20.19,20.19,0,0,1,7.55,1.44l.4-1.17a20.69,20.69,0,0,0-7.74-1.31c-7.58,0-12.87,4.31-12.87,10.49,0,5.06,3.33,8.49,10.8,11.14,5.16,2,9.89,4.66,9.89,10.9,0,5.81-4.62,9.71-11.49,9.71a22.84,22.84,0,0,1-9.41-2.1Z"/><path class="cls-3" d="M587.46,571.67a4,4,0,0,1,4.07-4.27,4.28,4.28,0,0,1-.07,8.55A4,4,0,0,1,587.46,571.67Z"/><path class="cls-3" d="M591.46,577.87a6.2,6.2,0,0,1,.07-12.39,6.2,6.2,0,0,1-.07,12.39Zm.07-8.55a2.09,2.09,0,0,0-2.15,2.35,2.13,2.13,0,1,0,4.23,0A2.09,2.09,0,0,0,591.53,569.32Z"/><path class="cls-3" d="M656,555.13c-.34-6.38-.74-14-.68-19.74h-.2c-1.56,5.36-3.46,11.06-5.76,17.36l-8.07,22.18h-4.48l-7.39-21.77c-2.17-6.44-4-12.34-5.29-17.77H624c-.13,5.7-.47,13.36-.88,20.21l-1.22,19.6h-5.63l3.19-45.71H627l7.8,22.11c1.9,5.63,3.46,10.65,4.61,15.39h.2c1.16-4.61,2.78-9.62,4.82-15.39l8.13-22.11h7.53l2.85,45.71h-5.76Z"/><path class="cls-3" d="M665,577.12h-9.62l-1.25-21.88c-.15-2.76-.31-5.81-.44-8.85-.77,2.25-1.6,4.58-2.49,7l-8.53,23.44h-7.2l-7.83-23.07c-.79-2.35-1.49-4.5-2.12-6.5-.13,2.78-.28,5.65-.45,8.44l-1.33,21.4h-9.5l3.46-49.55h10.68L636.61,551c1.17,3.49,2.13,6.49,2.93,9.2.83-2.68,1.84-5.69,3.08-9.2l8.6-23.39H661.9Zm-6-3.84h1.91l-2.61-41.87H653.9l-7.67,20.85c-2.26,6.42-3.73,11.11-4.76,15.2l-.36,1.45H637.9l-.36-1.46c-1-4.22-2.43-8.92-4.56-15.24l-7.34-20.8h-4.38l-2.92,41.87h1.77l1.11-17.8c.41-7,.74-14.57.87-20.13l0-1.88h3.53L626,535c1.13,4.77,2.75,10.2,5.24,17.6l7,20.46H640l7.61-20.91c2.34-6.38,4.21-12,5.73-17.24l.4-1.39h3.59l0,1.95c-.06,5.63.35,13.37.68,19.6Z"/><path class="cls-3" d="M671.15,575.47l4.21-6c-3.8-4.06-6-10.1-6-16.88,0-14.45,9.16-23.87,21.09-23.87a19.18,19.18,0,0,1,11.4,3.59l4-5.49,3.59,2.44-4.2,5.83c3.79,4.14,5.9,10.1,5.9,16.82,0,15.94-9.84,24-20.76,24a19.44,19.44,0,0,1-11.59-3.67l-4.27,5.84Zm27.74-38.79a12.88,12.88,0,0,0-8.55-3.19c-10,0-15,9.23-15,18.79a23,23,0,0,0,3.39,12.27l.07-.07Zm-17.23,31.26a11.71,11.71,0,0,0,8.55,3.26c9.56,0,14.85-8.75,14.85-19.06a22.28,22.28,0,0,0-3.19-11.86h-.2Z"/><path class="cls-3" d="M674.84,580.86l-6.3-5,4.38-6.22a27,27,0,0,1-5.52-17c0-15,9.68-25.79,23-25.79a21.38,21.38,0,0,1,10.92,2.9l4-5.51,6.76,4.59L707.63,535A27.17,27.17,0,0,1,713,551.94c0,17.91-11.39,25.93-22.68,25.93a21.65,21.65,0,0,1-11.12-3Zm-1.08-5.76.35.27,4.22-5.77,1.55,1.13a17.55,17.55,0,0,0,10.46,3.3c9.38,0,18.84-6.83,18.84-22.09,0-6.22-1.92-11.73-5.4-15.52l-1-1.15,4-5.5-.43-.29-4,5.55-1.56-1.14a17.24,17.24,0,0,0-10.26-3.22c-11.28,0-19.17,9-19.17,22,0,6.14,2,11.82,5.52,15.57l1.07,1.15Zm16.45-2a13.58,13.58,0,0,1-9.86-3.77l-1.23-1.16,21.57-29.83H703l.56.91A24.23,24.23,0,0,1,707,552.14C707,564.49,700.08,573.12,690.21,573.12Zm-5.93-5.52a10,10,0,0,0,5.93,1.68c8.93,0,12.93-8.61,12.93-17.14a21.22,21.22,0,0,0-1.62-8.38Zm-5.88,0-1.32-2.1a24.92,24.92,0,0,1-3.64-13.23c0-10,5.29-20.71,16.9-20.71a14.75,14.75,0,0,1,9.8,3.65l1.34,1.15-21.31,29.47Zm11.94-32.2c-9,0-13.06,8.75-13.06,16.87A20.66,20.66,0,0,0,679,560.9l17.18-23.8A10.81,10.81,0,0,0,690.34,535.41Z"/><path class="cls-3" d="M718.77,529.49h5.9v40.76H744.2v5H718.77Z"/><path class="cls-3" d="M746.12,577.12H716.85V527.57h9.73v40.76h19.54Zm-25.43-3.84h21.59v-1.11H722.75V531.41h-2.06Z"/><path class="cls-3" d="M750.78,529.49h5.9v40.76h19.53v5H750.78Z"/><path class="cls-3" d="M778.13,577.12H748.86V527.57h9.74v40.76h19.53Zm-25.43-3.84h21.59v-1.11H754.76V531.41H752.7Z"/><path class="cls-3" d="M806.46,553.77H788.69v16.48h19.8v5h-25.7V529.49h24.68v5H788.69v14.45h17.77Z"/><path class="cls-3" d="M810.41,577.12H780.87V527.57h28.52v8.79H790.61V547h17.77v8.72H790.61v12.64h19.8Zm-25.7-3.84h21.86v-1.11h-19.8V551.85h17.77v-1H786.77V532.52h18.78v-1.11H784.71Z"/><path class="cls-3" d="M816.16,530.1a61.46,61.46,0,0,1,11.32-1c6.31,0,10.38,1.16,13.23,3.73a11.43,11.43,0,0,1,3.59,8.69c0,6-3.8,10-8.61,11.66v.2c3.53,1.22,5.63,4.48,6.71,9.23,1.5,6.37,2.58,10.78,3.53,12.54h-6.1c-.75-1.29-1.77-5.22-3.05-10.92-1.36-6.3-3.8-8.68-9.16-8.88h-5.56v19.8h-5.9Zm5.9,20.82h6c6.3,0,10.3-3.46,10.3-8.68,0-5.9-4.27-8.47-10.51-8.54a24.35,24.35,0,0,0-5.83.54Z"/><path class="cls-3" d="M849.14,577.12H838.72l-.55-1c-.8-1.37-1.71-4.59-3.27-11.46-1.31-6.1-3.41-7.24-7.35-7.39H824v19.8h-9.74V528.54l1.54-.32a62.92,62.92,0,0,1,11.7-1c6.81,0,11.29,1.31,14.52,4.23a13.22,13.22,0,0,1,4.22,10.11,13.58,13.58,0,0,1-6.6,11.94c2.2,1.88,3.76,4.8,4.65,8.72,1.33,5.66,2.5,10.48,3.35,12.06Zm-8.06-3.84h2c-.68-2.18-1.48-5.41-2.6-10.19-1-4.35-2.78-6.91-5.47-7.84l-1.29-.45v-2.95l1.31-.44a10.13,10.13,0,0,0,7.3-9.84,9.41,9.41,0,0,0-2.94-7.24c-2.49-2.26-6.17-3.26-12-3.26a65.83,65.83,0,0,0-9.4.64v41.57h2.06v-19.8h7.48c6.32.24,9.5,3.25,11,10.4C839.08,565.75,840.24,570.92,841.08,573.28Zm-13-20.44h-8V532.79l1.39-.4a26.71,26.71,0,0,1,6.36-.61h0c7.89.08,12.41,3.9,12.41,10.46C840.32,548.58,835.41,552.84,828.1,552.84ZM824,549h4.12c5.17,0,8.38-2.59,8.38-6.76,0-4.33-2.89-6.56-8.6-6.62a32,32,0,0,0-3.9.21Z"/><path class="cls-3" d="M553.31,649.4a20.87,20.87,0,0,0,10.58,3c6,0,9.56-3.18,9.56-7.79,0-4.28-2.44-6.72-8.61-9.09-7.46-2.65-12.07-6.51-12.07-13,0-7.12,5.9-12.41,14.78-12.41a20.72,20.72,0,0,1,10.11,2.24L576,617.19a18.26,18.26,0,0,0-8.68-2.17c-6.24,0-8.62,3.73-8.62,6.85,0,4.27,2.79,6.37,9.09,8.81,7.73,3,11.67,6.72,11.67,13.43,0,7.06-5.22,13.16-16,13.16-4.41,0-9.22-1.29-11.66-2.92Z"/><path class="cls-3" d="M563.48,659.19c-4.63,0-9.87-1.33-12.73-3.24l-1.18-.79,2.62-8.7,2.13,1.31a19,19,0,0,0,9.57,2.69c4.78,0,7.64-2.19,7.64-5.87,0-2.89-1.17-4.91-7.38-7.3-8.93-3.17-13.3-8-13.3-14.74,0-8.31,7-14.33,16.7-14.33a22.34,22.34,0,0,1,11.05,2.49l1.38.78L577.12,620l-2-1.09a16.15,16.15,0,0,0-7.76-1.94c-4.94,0-6.7,2.66-6.7,4.93,0,2.7,1.18,4.44,7.87,7,6.37,2.46,12.89,6.2,12.89,15.22C581.41,651.62,575.87,659.19,563.48,659.19Zm-9.38-5.77a24,24,0,0,0,9.38,1.93c10.39,0,14.09-5.81,14.09-11.24s-2.93-8.74-10.44-11.63c-6.53-2.53-10.32-5.08-10.32-10.61,0-4.22,3.3-8.77,10.54-8.77a20.27,20.27,0,0,1,7.55,1.44l.39-1.17a20.64,20.64,0,0,0-7.74-1.31c-7.57,0-12.86,4.31-12.86,10.49,0,5.06,3.33,8.49,10.79,11.14,5.16,2,9.89,4.66,9.89,10.9,0,5.81-4.61,9.71-11.48,9.71a22.92,22.92,0,0,1-9.42-2.1Z"/><path class="cls-3" d="M597.77,615.9h-13.9v-5h33.84v5h-14v40.69h-6Z"/><path class="cls-3" d="M605.66,658.51h-9.81V617.82H582V609h37.68v8.86h-14Zm-6-3.84h2.13V614h14V612.8h-30V614h13.9Z"/><path class="cls-3" d="M660,633.26c0,15.74-9.56,24.08-21.23,24.08-12.07,0-20.55-9.36-20.55-23.2,0-14.51,9-24,21.23-24C652,610.14,660,619.7,660,633.26Zm-35.47.75c0,9.76,5.29,18.51,14.58,18.51s14.65-8.61,14.65-19c0-9.08-4.75-18.58-14.58-18.58S624.56,624,624.56,634Z"/><path class="cls-3" d="M638.8,659.26c-13.23,0-22.47-10.33-22.47-25.12,0-15.26,9.52-25.92,23.15-25.92,13.44,0,22.47,10.06,22.47,25C662,651.22,650.32,659.26,638.8,659.26Zm.68-47.2c-11.37,0-19.31,9.08-19.31,22.08,0,12.73,7.49,21.28,18.63,21.28,11.73,0,19.31-8.7,19.31-22.16C658.11,620.58,650.62,612.06,639.48,612.06Zm-.34,42.38c-10.83,0-16.5-10.28-16.5-20.43,0-10.44,5.12-21,16.57-21,10.83,0,16.5,10.32,16.5,20.5C655.71,645.84,648.9,654.44,639.14,654.44Zm.07-37.57c-8.8,0-12.73,8.61-12.73,17.14,0,8,4,16.59,12.66,16.59s12.73-8.57,12.73-17.07C651.87,625.51,647.91,616.87,639.21,616.87Z"/><path class="cls-3" d="M667.7,611.49a61.38,61.38,0,0,1,11.32-1c6.31,0,10.38,1.16,13.23,3.73a11.42,11.42,0,0,1,3.59,8.68c0,6-3.8,10-8.61,11.67v.2c3.52,1.22,5.63,4.48,6.71,9.22,1.49,6.38,2.58,10.79,3.53,12.55h-6.1c-.75-1.29-1.77-5.22-3.06-10.92-1.35-6.3-3.79-8.68-9.15-8.88H673.6v19.8h-5.9Zm5.9,20.82h6c6.31,0,10.31-3.46,10.31-8.68,0-5.9-4.27-8.47-10.51-8.54a24.35,24.35,0,0,0-5.83.54Z"/><path class="cls-3" d="M700.68,658.51H690.26l-.55-1c-.8-1.37-1.72-4.59-3.27-11.46-1.31-6.1-3.41-7.24-7.35-7.39h-3.57v19.8h-9.74V609.93l1.53-.32a63.11,63.11,0,0,1,11.71-1c6.81,0,11.28,1.31,14.51,4.23a13.19,13.19,0,0,1,4.23,10.1,13.58,13.58,0,0,1-6.6,11.95c2.2,1.88,3.76,4.8,4.65,8.72,1.33,5.66,2.5,10.48,3.35,12.06Zm-8.06-3.84h2c-.69-2.18-1.48-5.41-2.6-10.19-1-4.35-2.78-6.91-5.47-7.84l-1.29-.45v-3l1.3-.44a10.13,10.13,0,0,0,7.31-9.85,9.47,9.47,0,0,0-2.94-7.24c-2.49-2.25-6.17-3.25-12-3.25a65.83,65.83,0,0,0-9.4.64v41.57h2.06v-19.8h7.48c6.32.24,9.49,3.25,11,10.4C690.61,647.14,691.78,652.31,692.62,654.67Zm-13-20.44h-8v-20l1.39-.4a26.11,26.11,0,0,1,6.36-.62h0c7.89.08,12.41,3.9,12.41,10.46C691.86,630,687,634.23,679.63,634.23Zm-4.11-3.84h4.11c5.18,0,8.39-2.59,8.39-6.76,0-4.33-2.89-6.56-8.6-6.62a32,32,0,0,0-3.9.21Z"/><path class="cls-3" d="M704.19,611.49a57.26,57.26,0,0,1,10.78-1c5.9,0,9.7,1,12.54,3.33a9.56,9.56,0,0,1,3.8,8.07c0,4.4-2.91,8.27-7.73,10v.14c4.34,1.08,9.43,4.68,9.43,11.46a12.29,12.29,0,0,1-3.87,9.15c-3.18,2.92-8.34,4.28-15.8,4.28a67,67,0,0,1-9.15-.55Zm5.9,18.72h5.35c6.24,0,9.91-3.25,9.91-7.66,0-5.36-4.07-7.46-10-7.46a25.73,25.73,0,0,0-5.22.4Zm0,21.91a32.21,32.21,0,0,0,4.95.26c6.1,0,11.73-2.23,11.73-8.88,0-6.24-5.36-8.81-11.8-8.81h-4.88Z"/><path class="cls-3" d="M713.34,658.92a72.25,72.25,0,0,1-9.42-.56l-1.65-.23V609.94l1.52-.33a59.44,59.44,0,0,1,11.18-1c6.3,0,10.55,1.16,13.75,3.75a11.43,11.43,0,0,1,4.51,9.57,12.06,12.06,0,0,1-5.26,9.88,13.11,13.11,0,0,1,7,11.75,14.18,14.18,0,0,1-4.45,10.53C726.88,657.4,721.45,658.92,713.34,658.92Zm-7.23-4.17c1.66.16,4.1.33,7.23.33,7,0,11.74-1.24,14.51-3.77a10.47,10.47,0,0,0,3.24-7.74c0-7.24-6.64-9.27-8-9.6l-1.45-.36v-2.69a15.3,15.3,0,0,1-6.22,1.21h-7.27V613.94l1.52-.32a27.13,27.13,0,0,1,5.62-.45c10.4,0,12,5.87,12,9.38a8.73,8.73,0,0,1-4,7.5c3.81-1.51,6.15-4.59,6.15-8.11a7.68,7.68,0,0,0-3-6.53c-2.57-2.08-6-2.95-11.4-2.95a59.84,59.84,0,0,0-8.86.64Zm5.9-26.46h3.43c4.85,0,8-2.25,8-5.74,0-1.52,0-5.54-8.12-5.54a31.52,31.52,0,0,0-3.3.14Zm3,26a33.28,33.28,0,0,1-5.29-.29l-1.58-.28v-21H715c8.46,0,13.72,4.11,13.72,10.73S723.59,654.3,715,654.3Zm-3-3.91c.8.05,1.8.07,3,.07,4.47,0,9.81-1.2,9.81-7,0-6-6.19-6.89-9.88-6.89h-3Z"/><path class="cls-3" d="M748.34,642.21l-4.75,14.38h-6.1L753,610.88h7.12l15.6,45.71h-6.31l-4.88-14.38Zm15-4.61-4.47-13.15c-1-3-1.7-5.7-2.37-8.35h-.14c-.68,2.72-1.42,5.5-2.3,8.28l-4.48,13.22Z"/><path class="cls-3" d="M778.42,658.51H768.05l-4.88-14.38H749.73L745,658.51H734.81L751.64,609h9.87Zm-7.62-3.84h2.25L758.76,612.8h-4.37l-14.22,41.87h2L747,640.29h19ZM766,639.52H746.88l5.34-15.76c.75-2.36,1.47-5,2.26-8.12l.36-1.46H758l.47,1.87c.64,2.47,1.29,5,2.23,7.78Zm-13.76-3.84h8.4L757,625.06c-.22-.64-.42-1.27-.61-1.9l-.55,1.8Z"/><path class="cls-3" d="M782.45,656.59V610.88h6.45L803.54,634a128.19,128.19,0,0,1,8.21,14.85l.14-.07c-.55-6.1-.68-11.66-.68-18.78V610.88h5.56v45.71h-6L796.29,633.4a145.9,145.9,0,0,1-8.55-15.26l-.2.07c.34,5.76.47,11.26.47,18.85v19.53Z"/><path class="cls-3" d="M818.69,658.51h-9l-15.08-24.09c-1.86-3-3.46-5.65-4.85-8.12.09,3.2.12,6.67.12,10.76v21.45h-9.39V609H790l15.22,24q2.33,3.67,4.27,7.15c-.12-3.26-.15-6.56-.15-10.12V609h9.4Zm-6.83-3.84h3V612.8h-1.72V630c0,6.65.11,12.37.67,18.61l.11,1.3-3.06,1.55-.84-1.8A126.63,126.63,0,0,0,801.92,635L787.84,612.8h-3.47v41.87h1.72V637.06c0-7.65-.13-13.07-.47-18.74l-.08-1.47,3.22-1.07.72,1.55a142.43,142.43,0,0,0,8.44,15Z"/><path class="cls-3" d="M827.08,611.49a85,85,0,0,1,12.55-1c8.48,0,14.51,2,18.51,5.7s6.44,9,6.44,16.41-2.3,13.56-6.58,17.77S846.68,657,837.8,657a94.93,94.93,0,0,1-10.72-.55Zm5.9,40.42a37.45,37.45,0,0,0,6,.34c12.61,0,19.46-7,19.46-19.4.07-10.78-6-17.63-18.51-17.63a33.51,33.51,0,0,0-6.92.61Z"/><path class="cls-3" d="M837.8,658.92a97.39,97.39,0,0,1-10.94-.56l-1.7-.19V609.84l1.64-.25a86.69,86.69,0,0,1,12.83-1c8.86,0,15.34,2,19.82,6.22,4.68,4.28,7,10.28,7,17.81,0,7.92-2.47,14.53-7.15,19.14S847.24,658.92,837.8,658.92Zm-8.8-4.2c2.66.24,5.61.36,8.8.36,8.28,0,15-2.14,18.85-6s6-9.54,6-16.41c0-6.5-1.9-11.41-5.81-15-3.75-3.5-9.38-5.2-17.22-5.2a82.74,82.74,0,0,0-10.63.7Zm10-.55a37,37,0,0,1-6.31-.37l-1.58-.28V614.29l1.52-.33a34.61,34.61,0,0,1,7.32-.66c6.65,0,11.82,1.82,15.38,5.4,3.34,3.36,5.09,8.26,5.05,14.17C860.33,646.4,852.54,654.17,839,654.17Zm-4.05-4c1.34.11,2.88.12,4.05.12,11.48,0,17.54-6,17.54-17.48,0-4.94-1.29-8.78-3.93-11.45-2.81-2.82-7.07-4.26-12.66-4.26a36.16,36.16,0,0,0-5,.31Z"/><path class="cls-3" d="M611.28,501.46h0c1-.24,1.89-.52,2.83-.78C613.17,501,612.24,501.22,611.28,501.46Z"/><path class="cls-3" d="M616.17,500.11l-.31.1Z"/><path class="cls-3" d="M852.65,234.81H811.32L739.64,425.53l0,2L671,234.81l-41.31.11-9,130.36c-4.89-2.38-10.85-5.83-17.39-8.35-37-14.32-54.57-27.92-54.57-53,0-18.3,15.2-40.16,51.78-40.16,11.94,0,12.27.27,12.27.27l-3.2-28.45v-.13s-.27-.32-7.86-.32c-52.09,0-86.69,31-86.69,72.76,0,37.78,27,60.44,70.79,75.95,13.5,5.2,24.67,10.72,32.5,16.57v0c12.06,9.17,17.25,19.9,17.25,34.52,0,16.12-8,29.16-22.14,36.5h0c-8.19,4.2-18.49,6.55-30.63,6.55a115.42,115.42,0,0,1-58.38-16.47l-8.22,27.32c13.47,9,40.34,15.94,64.36,14.81,11.31-.53,21.52,0,30.64-2.2h0l.14,0h0c1-.24,1.89-.51,2.83-.77-.94.26-1.87.54-2.83.78v0l30.6-.43.84-14.27h0v0c17.42-13.5,26.07-33.21,26.07-54.42,0-20-6.94-35.68-19.44-48l.37-6.2c2.24-37.61,4.1-79.68,4.84-111h.75c2.85,12,1.54,46.54,18.15,78.54,25,48.22,58.21,107.64,65.31,128.73l.07-3.4-.07,3.56c7.76-21.23,40.61-79.82,65.77-130.12,16-32,17.61-65.92,20.93-77.31h1.11c-.37,31.28,1.86,73.35,3.72,108.35l6.77,126.37,32.31-.43ZM615.86,500.21l.31-.1Z"/><path class="cls-3" d="M703.69,290.43c16.95-1.06,27.64-12.8,32.08-18.89a6.37,6.37,0,0,0,8.62,0c4.42,6.07,15.12,17.87,32.12,18.93,12.76.79,0-51.22,0-51.22-18.12,1.14-29.09,14.47-32.92,20.06a6.38,6.38,0,0,0-7,0c-3.85-5.61-14.81-18.89-32.89-20C703.69,239.21,690.92,291.22,703.69,290.43Z"/><path class="cls-3" d="M898.71,691.76H503V496.27H898.71Zm-386.78-9H889.75V505.23H511.93Z"/></g><g id="Layer_4" data-name="Layer 4"><ellipse class="cls-4" cx="692.71" cy="1743.42" rx="203.68" ry="71.32"/><polygon class="cls-5" points="732.13 1371.76 754.23 1319.59 716.51 1305.94 691.19 1316.19 691.19 1329.11 686.34 1334.64 689.06 1341.05 693.89 1362.18 732.13 1371.76"/><path class="cls-6" d="M780,1377.67l109.5-160.19s-17.37-34.57-38.82-38.6c-18.51-3.47-42.7,20.38-29.9,54.55-28.16,46.51-72.91,137.22-72.91,137.22S674.93,1346,634,1380.76c-23.23,19.7-32.16,42.17-54.39,93.28-1.2,2.75,59.94,37.12,26.11,107.15-14.24,29.48-66,34.14-66,34.14l30.64,66.4s109.28,98.11,211,24.38c0,0,29-7.87,69.36-64.15-29.9,0-66-24.47-42.78-68l66.61-98S829,1393.24,780,1377.67Z"/><polygon class="cls-7" points="862.18 1248.15 878.21 1251.22 865.84 1268.62 853.56 1259.46 862.18 1248.15"/><polygon class="cls-7" points="878.33 1226.38 895.41 1229.64 882.23 1248.15 869.15 1238.41 878.33 1226.38"/><polygon class="cls-7" points="663.69 1594.32 702.67 1596.07 701.42 1600.91 662.39 1598.56 663.69 1594.32"/><path class="cls-8" d="M671.92,1615.43c-3.27-37.47,22-112.47,75.1-222.94,39.5-82.18,80.49-154.31,80.9-155l1.94,1.1c-1.63,2.88-163.43,288.2-155.72,376.67Z"/><path class="cls-8" d="M679.92,1615.41c-4.3-58.4,39.46-156.85,76.91-229.15,40.54-78.25,82.64-143.58,83.06-144.23l1.88,1.21c-.42.65-42.47,65.91-83,144.06-53.52,103.31-80,182.13-76.66,228Z"/><path class="cls-8" d="M687.93,1615.45c-6.35-60.57,38.58-158.42,77.4-229.84,42-77.29,86.08-141.15,86.52-141.78l1.83,1.27c-.44.63-44.45,64.4-86.4,141.59-55.44,102-82.11,181-77.13,228.52Z"/><path class="cls-5" d="M842.21,1302.2l-3.1,13s-27.7-12.85-36.11,10.88l-3.72-5.11s10.06-19.06,27.79-13.4c-7-4.17-17.06-3.29-24.07,0l-.89-8.35s16.24-5.06,26.82,3.58a58.9,58.9,0,0,0-17.58-11.19l4.77-7.88,15.79,12.81-3.28-21.15,7.75,1.78Z"/><path class="cls-7" d="M699.47,1614.16l-37.08-2.41s18.16,92.86,22.19,108.18a30.09,30.09,0,0,0,11.32-.16Z"/><path class="cls-9" d="M666.52,1527.28s14-1.76,15.67-13.07l6.95.16s-.37,16.94-15.53,20.44c12.56,1.76,29.19,3.62,29.19,3.62l1.42,10.84-32.93-8.61,7,8.61-1.59,11.47-7.18,1.91,3.35-12.11-6.36-10.2-2.33,11.28-13.81-4.06-1.87-6.41,11.63,3.66,1-6.38Z"/><polygon class="cls-2" points="661.09 1538.43 599.08 1516.94 602.68 1441.5 633.97 1373.45 664.09 1362.71 623.72 1449.21 666.52 1527.28 661.09 1538.43"/><path class="cls-10" d="M716.51,1305.94s5.41,23.16,29.7,32.58l-12,28.44,13.66,3.69,6.4-51.06s-65.68-55.65-86.1-38.28,1.71,39.44,1.43,59.23-24.91,44.71-24.91,44.71L697.12,1402l-.89-30.25c-.32-4.71-2.09-26.08-8.59-38.36l-1.3,1.24Z"/><polygon class="cls-11" points="746.21 1338.52 726.69 1365.41 734.17 1366.96 746.21 1338.52"/><path class="cls-6" d="M820.74,1233.43s19.19,26.69,48.41,5c-1.46-14.39-11.23-13.83-11.23-13.83Z"/></g><g id="Layer_3" data-name="Layer 3"><polygon class="cls-7" points="937.44 1498.64 980.79 1530.79 953.54 1568.2 906.11 1518.32 937.44 1498.64"/><polygon class="cls-12" points="990.02 1542.84 975.12 1566.33 984.12 1569.04 996.58 1549.96 990.02 1542.84"/><path class="cls-13" d="M634,1380.76l12-78.76s2.28-48.32-40.68-48.86c-41.59,13.13-41.7,11.61-41.7,11.61l-4.39,28.46-8.2,18.06,8.2,7.11-6,19.16-10.42,14.21Z"/><polygon class="cls-2" points="412.9 1406.32 404.04 1423.13 438.07 1433.06 438.07 1412.59 412.9 1406.32"/><path class="cls-7" d="M488.92,1334.64l221.53,70.43s-260.06,61.4-95.11,343.13l1.2,16.85s-33.91,13.84-45.43,10.37c6.11-9.71,12.49-21.92,12.49-21.92l-10-15.81s-22.2,6.79-32.74,5.27c6.38-6.66,14.7-16.93,14.7-16.93S410.36,1565.2,488.92,1334.64Z"/><path class="cls-7" d="M1010.8,1479l-143.94-119.2s-143,12.43-112.68,381.72l.26,16.9s35,10.84,46.15,6.39c-6.92-9.14-14.33-20.75-14.33-20.75l-.64-16.19s31.92,4.42,42.29,2c-1-8.35-22.33-19.82-22.33-19.82S740.14,1579.84,1010.8,1479Z"/><polygon class="cls-2" points="613.7 1374.31 545.47 1441.5 556.25 1356.05 613.7 1374.31"/><path class="cls-7" d="M473.27,1491.15H392.6s-.9-51.47,11.44-68c23.78,4.81,43.34,7.22,43.34,7.22L445,1446h25.89Z"/><circle class="cls-14" cx="553.72" cy="1338.52" r="6.5"/><path class="cls-8" d="M553.72,1346.14a7.62,7.62,0,1,1,7.62-7.62A7.63,7.63,0,0,1,553.72,1346.14Zm0-13a5.39,5.39,0,1,0,5.38,5.39A5.4,5.4,0,0,0,553.72,1333.13Z"/><path class="cls-14" d="M552.15,1343.89l-11,12.82c3.76,7.93.64,19,.49,19.54l-.09.31-.2.25c-.36.48-36.87,47.75-50.45,65.14-3.29,4.22-6.15,6.3-8.68,6.3a4.34,4.34,0,0,1-1.55-.28c-5.73-2.09-5.51-15.89-5.4-18.64l0-.58,61.77-72.4a9.57,9.57,0,0,0-.94-1.08c-3.57-3.52-10-4-19-1.27-17.09,21.11-61,78.61-61.41,79.19l-2.66-2c.45-.59,44.92-58.86,61.79-79.67l.32-.4.49-.15c10.59-3.22,18.27-2.56,22.85,2,.28.28.54.57.79.86l10.21-11.91M478.6,1430c-.16,6.59,1,14,3.23,14.79.47.17,2.33.33,6.44-4.94,13.05-16.71,47.26-61,50.24-64.86.41-1.6,2.24-9.45.21-15.46Z"/><path class="cls-8" d="M482.23,1449.37a5.54,5.54,0,0,1-1.93-.35c-6.3-2.3-6.29-15.68-6.14-19.73l0-1,61.41-72a3.45,3.45,0,0,0-.26-.28c-3.22-3.16-9.14-3.53-17.6-1.09-16.42,20.32-56.55,72.86-61.09,78.8l-.75,1-4.43-3.38.68-.89c.43-.57,45-58.92,61.8-79.7l.54-.66.82-.25c11-3.34,19-2.6,23.93,2.21l9.39-11,1.7,1.45-11.07,12.92-.84-1c-.23-.27-.47-.53-.73-.79-4.26-4.2-11.57-4.76-21.73-1.67l-.17,0-.1.13c-15.68,19.34-55.41,71.32-61.09,78.76l.88.68c6.75-8.84,45-58.89,60.75-78.34l.22-.27.33-.09c9.47-2.8,16.24-2.28,20.12,1.54a10.12,10.12,0,0,1,1.05,1.21l.54.72-62.1,72.78v.2c-.22,5.8.52,16,4.67,17.55a3.39,3.39,0,0,0,1.17.2c2.14,0,4.76-2,7.8-5.86,13.49-17.28,50.09-64.67,50.45-65.14l.09-.19c.13-.45,3.17-11.19-.41-18.75l-.31-.66,11.46-13.37,1.69,1.46-10.53,12.28c3.47,8.25.38,19.19.25,19.66l-.15.51-.33.42c-.36.47-36.95,47.87-50.45,65.15C488.26,1447.17,485.13,1449.37,482.23,1449.37Zm0-3.36a2.2,2.2,0,0,1-.76-.13c-4.27-1.56-4-15.29-4-15.87v-.4l.25-.3,61.4-72,.63,1.87c2.14,6.33.21,14.51-.19,16.09l-.06.22-.14.18c-.36.47-36.65,47.46-50.24,64.87C485.79,1444.89,483.59,1446,482.21,1446Zm-2.5-15.55c-.13,7.54,1.37,12.91,2.5,13.32,0,0,1.53.1,5.18-4.58,13.16-16.84,47.59-61.42,50.09-64.67.42-1.67,1.68-7.49.7-12.6Z"/><rect class="cls-14" x="491.58" y="1385.53" width="3.35" height="44.87" transform="translate(-863.68 787.95) rotate(-46.14)"/><path class="cls-8" d="M508.3,1426.3l-34-32.64,3.86-4,34,32.64Zm-30.81-32.7,30.75,29.55.77-.81-30.74-29.55Z"/><rect class="cls-14" x="501.05" y="1373.4" width="3.35" height="44.87" transform="translate(-852.02 791.07) rotate(-46.14)"/><path class="cls-8" d="M517.78,1414.17l-34-32.64,3.87-4,34,32.64ZM487,1381.46,517.71,1411l.78-.8-30.75-29.55Z"/><rect class="cls-14" x="510.53" y="1361.26" width="3.35" height="44.87" transform="translate(-840.36 794.18) rotate(-46.14)"/><path class="cls-8" d="M527.25,1402l-34-32.64,3.87-4,34,32.64Zm-30.8-32.7,30.74,29.55.77-.81-30.74-29.55Z"/><circle class="cls-14" cx="438.07" cy="1453.43" r="34.95"/><path class="cls-8" d="M438.07,1489.5a36.07,36.07,0,1,1,36.07-36.07A36.11,36.11,0,0,1,438.07,1489.5Zm0-69.91a33.84,33.84,0,1,0,33.84,33.84A33.88,33.88,0,0,0,438.07,1419.59Z"/><circle class="cls-15" cx="443.28" cy="1450.46" r="17.39"/><path class="cls-5" d="M460.07,1348.33l-20.73,20.73-6.41-13.82-6.81,3.46,8.41,13.37s-17,25.41-21.63,34.25l25.17,6.27v-10.36s11,10,22,7.7l-1.05-5.26s-15.93-.32-14-13.46,20.24-8.62,20.56-1.71l6-2.56s-2-11.12-15.48-10.06c14.73-5.41,19.76-7.52,19.76-7.52v-8.11l-31.51,11.12,23.77-19.23Z"/><path class="cls-9" d="M543.63,1393.87s-26.13-21.57-50.88-14.93l-.82,6.91,18.24-.08-13.82,9.76.28,7.19,18.52-8.3-13,15.49,5.8,3.87,8.3-12.72-1.94,16,4.7,1.38,1.11-18.53,13.82,9.13Z"/><path class="cls-16" d="M563.55,1264.75l41.59-13.13c44.36-2.11,42.69,49.8,42.69,49.8l-3.18,18.17H615.26l8.58-40.3-60.29-14.54"/><polygon class="cls-11" points="615.25 1319.59 605.69 1371.76 633.97 1380.76 644.65 1319.59 615.25 1319.59"/><path class="cls-17" d="M866.86,1359.77s-89.21,6-119,90.12c46.8,66.33,104.37,142.18,104.37,142.18L893.66,1549l-66.2-88.25Z"/><polygon class="cls-2" points="517.78 1431.12 545.47 1441.5 560.22 1407.97 543.28 1393.24 517.78 1431.12"/><path class="cls-13" d="M920.12,1403.88l62.19-17.42s29.68-11.4,50.22,17.42c12.43,30.47,10.26,25.76,10.26,25.76l-22.34,27.92-22-18.71-13.12,24.53-11.14-11.17L944.74,1471Z"/><path class="cls-16" d="M998.49,1438.85l23.08,22.74,29.28-30.65-12.42-30.48s-15-29.54-56.48-20.28l-16.39,6.28,1.23,14.2,23.47-7.71,11.21,33Z"/><polygon class="cls-2" points="893.65 1549 907.87 1563.62 880.9 1598.92 868.02 1575.64 893.65 1549"/><path class="cls-14" d="M971.73,1532.58l-113.1,135s-20.42,25.82,4,46.36,57.36-5,57.36-5l62.44-42.06-28.54-51.56-66.49,79.35-.59-3,40.64-54,71.76-104.23s71.68-48.82,8.11-46.36c-20.87.8-40.78-30.08-40.78-30.08l-2.42,1.54L989,1506.26l32.34-7.16Z"/><path class="cls-8" d="M884.7,1723a34.41,34.41,0,0,1-22.76-8.2c-25-21-4.4-47.64-4.19-47.9L971,1531.74l.13-.09,44.75-30.19-27.43,6.08-25.73-49.28,4.21-2.69.6.93c.2.3,19.32,29.58,39,29.58h.76c16.25-.63,25.09,2,27.06,7.93,4.41,13.38-31.16,38.17-34.33,40.35L928.4,1638.41,888,1692l0,.18,66-78.81,29.83,53.87-63.29,42.64C920.45,1710,903.44,1723,884.7,1723Zm87.78-189.57-113,134.88c-.79,1-19.44,25.19,3.89,44.78a32.29,32.29,0,0,0,21.37,7.68c17.93,0,34.36-12.51,34.59-12.69L981,1666.54l-27.26-49.24-66.94,79.88-1.14-5.73,40.94-54.34,71.85-104.37.17-.12c10.48-7.13,36.95-27.86,33.64-37.92-1.57-4.75-10.16-7-24.86-6.4-19.45.77-37.56-24.38-41.15-29.66l-.62.4,24,46,37.24-8.25Z"/><polygon class="cls-18" points="887.43 1694.68 877.88 1689.1 935.76 1625.76 933.53 1640.18 887.43 1694.68"/><path class="cls-8" d="M887.68,1696.11l-11.55-6.74,61.29-67.09-2.83,18.38-.21.24Zm-8-7.27,7.54,4.4,45.3-53.54,1.61-10.46Z"/><path class="cls-5" d="M885.34,1593.1l-10.87,40.29,10.06,7.32,7-36.91,6.89,38.16,10-4.69-6.93-38.88L915.36,1626l8.21-6.18-16.63-28.6s9.76-4.82,20.31,8.06l3.77-6.88-23.15-28.79Z"/><polygon class="cls-5" points="1000.34 1544.9 988.53 1532.35 982.51 1541.28 994.94 1548.55 990.79 1554.31 979.61 1548.14 974.12 1555.76 986.32 1560.42 983.91 1565.56 972.05 1560.74 968.42 1568.8 979.7 1570.64 966.8 1580.66 972.98 1586.05 984.17 1572.76 987.81 1571.37 1001.23 1555.18 1000.34 1544.9"/><polygon class="cls-11" points="966.79 1400.66 931.02 1433.63 920.12 1403.88 965.56 1386.46 966.79 1400.66"/><circle class="cls-18" cx="886.08" cy="1713.31" r="9.75"/><circle class="cls-18" cx="912.73" cy="1702.13" r="10.52"/><circle class="cls-18" cx="939.38" cy="1681.73" r="12.24"/><circle class="cls-14" cx="889.46" cy="1714.96" r="8.85"/><path class="cls-8" d="M889.46,1724.92a10,10,0,1,1,10-10A10,10,0,0,1,889.46,1724.92Zm0-17.7a7.74,7.74,0,1,0,7.74,7.74A7.74,7.74,0,0,0,889.46,1707.22Z"/><circle class="cls-14" cx="916.48" cy="1703.07" r="10.37"/><path class="cls-8" d="M916.48,1714.55A11.49,11.49,0,1,1,928,1703.07,11.5,11.5,0,0,1,916.48,1714.55Zm0-20.73a9.25,9.25,0,1,0,9.25,9.25A9.27,9.27,0,0,0,916.48,1693.82Z"/><circle class="cls-14" cx="943.07" cy="1682.63" r="12.05"/><path class="cls-8" d="M943.07,1695.79a13.17,13.17,0,1,1,13.17-13.16A13.17,13.17,0,0,1,943.07,1695.79Zm0-24.1A10.94,10.94,0,1,0,954,1682.63,10.95,10.95,0,0,0,943.07,1671.69Z"/><polygon class="cls-18" points="955.12 1615.33 972.34 1675.08 981.96 1668.59 955.12 1615.33"/><polygon class="cls-14" points="957.78 1606.04 1003.08 1668.29 985.85 1684.63 951.9 1612.07 957.78 1606.04"/><path class="cls-8" d="M985.49,1686.51l-34.92-74.67,7.34-7.53,46.65,64.12Zm-32.25-74.21,33,70.46,15.4-14.6-43.94-60.4Z"/><path class="cls-17" d="M634,1380.76s-13.7,22.47-26.12,28.62-51.31,18-60.64,28.15c4.54-10.3,58.48-65.77,58.48-65.77Z"/><path class="cls-17" d="M560.22,1408l-31.57,71.75,137.85,47.55,44-122.2s-46,11-86.73,44.14c-1.81,22-2.36,20.27-2.36,20.27Z"/><path class="cls-7" d="M551.39,1379.93c8.43,2.37,12.61-3.64,16-6.27a3,3,0,0,0,4.19,1.48c.92,4.17,3.73,12.64,11.76,16.2,6,2.68,10.45-31.59,10.45-31.59-9-2.54-17.15,6-20.13,8.41a2.92,2.92,0,0,0-3.39-1.25c-.74-3.81-5.47-7.07-14-10.87C556.25,1356,545,1378.15,551.39,1379.93Z"/><path class="cls-17" d="M920.12,1403.88s-33.88,10.91-39.51,38.55-6.6,56.25-12.59,72.4c17.46-21.3,63-81.2,63-81.2Z"/><polygon class="cls-2" points="944.74 1471.05 868.02 1514.83 931.02 1433.63 944.74 1471.05"/><path class="cls-7" d="M908.62,1472.6c7.21,3.24,12.46,3.45,16.14,1.08a2.42,2.42,0,0,0,3.51,1.92c-.07,4.36-8.07,7.17-1.49,11.59,4.94,3.33,18-16.15,18-16.15-7.72-3.46-9.74-4.65-13-2.41a2.49,2.49,0,0,0-1.11-1.39,2.45,2.45,0,0,0-1.73-.21c.16-4,3.59-19-3.41-23.69C925.47,1443.34,903.19,1470.16,908.62,1472.6Z"/></g></svg>