<?xml version="1.0" encoding="utf-8"?>
<!-- Generator: Adobe Illustrator 24.0.2, SVG Export Plug-In . SVG Version: 6.00 Build 0)  -->
<svg version="1.1" id="Layer_1" xmlns="http://www.w3.org/2000/svg" xmlns:xlink="http://www.w3.org/1999/xlink" x="0px" y="0px"
	 viewBox="0 0 2460 936" style="enable-background:new 0 0 2460 936;" xml:space="preserve">
<style type="text/css">
	.st0{fill:#29203C;}
	.st1{fill:#16111B;}
	.st2{fill:#B84B43;}
	.st3{fill:#3E1811;}
	.st4{fill:#070405;}
	.st5{fill:#FFDF73;}
	.st6{fill:#A03E3C;}
	.st7{fill:#FFFFFF;}
	.st8{fill:#664327;}
	.st9{fill:#7D3234;}
	.st10{fill:#BA4E4A;}
	.st11{fill:#FCCB6E;}
	.st12{fill:#2A2116;}
	.st13{fill:#20090C;}
	.st14{fill:#23161A;}
	.st15{fill:#592121;}
	.st16{fill:#6B542F;}
</style>
<title>animasjon</title>
<g id="back">
	<rect class="st0" width="2460" height="936"/>
</g>
<g id="Layer_2_1_">
	<ellipse class="st1" cx="1190.8" cy="717.6" rx="203.7" ry="71.3"/>
</g>
<g id="bassjente">
	<polygon class="st2" points="1230.3,345.9 1252.4,293.7 1214.7,280.1 1189.3,290.3 1189.3,303.3 1184.5,308.8 1187.2,315.2 
		1192,336.3 	"/>
	<path class="st3" d="M1278.1,351.8l109.5-160.2c0,0-17.4-34.6-38.8-38.6c-18.5-3.5-42.7,20.4-29.9,54.5
		c-28.2,46.5-72.9,137.3-72.9,137.3s-72.9-24.6-113.9,10.1c-23.2,19.7-32.2,42.2-54.4,93.3c-1.2,2.8,59.9,37.1,26.1,107.2
		c-14.3,29.5-66,34.1-66,34.1l30.6,66.4c0,0,109.3,98.1,211,24.4c0,0,29-7.9,69.3-64.1c-29.9,0-66-24.5-42.8-68l66.6-98
		C1372.7,450.1,1327.1,367.4,1278.1,351.8z"/>
	<polygon class="st4" points="1360.3,222.3 1376.3,225.4 1364,242.8 1351.7,233.6 	"/>
	<polygon class="st4" points="1376.5,200.5 1393.5,203.8 1380.4,222.3 1367.3,212.6 	"/>
	<polygon class="st4" points="1161.8,568.5 1200.8,570.2 1199.6,575 1160.5,572.7 	"/>
	<path class="st5" d="M1170.1,589.6c-3.3-37.5,22-112.5,75.1-222.9c39.5-82.2,80.5-154.3,80.9-155l1.9,1.1
		c-1.6,2.9-163.4,288.2-155.7,376.7L1170.1,589.6z"/>
	<path class="st5" d="M1178.1,589.5c-4.3-58.4,39.4-156.9,76.9-229.1c40.5-78.3,82.6-143.6,83.1-144.2l1.9,1.2
		c-0.4,0.6-42.5,65.9-83,144.1c-53.5,103.3-80,182.1-76.7,228L1178.1,589.5z"/>
	<path class="st5" d="M1186.1,589.6c-6.3-60.6,38.6-158.4,77.4-229.8c42-77.3,86.1-141.1,86.5-141.8l1.8,1.3
		c-0.4,0.6-44.4,64.4-86.4,141.6c-55.4,102-82.1,181-77.1,228.5L1186.1,589.6z"/>
	<path class="st2" d="M1340.3,276.3l-3.1,13c0,0-27.7-12.9-36.1,10.9l-3.7-5.1c0,0,10.1-19,27.8-13.4c-7-4.2-17.1-3.3-24.1,0
		l-0.9-8.4c0,0,16.2-5.1,26.8,3.6c-5.1-4.7-11.1-8.5-17.6-11.2l4.8-7.9l15.7,12.8l-3.3-21.2l7.7,1.8L1340.3,276.3z"/>
	<path class="st4" d="M1197.6,588.3l-37.1-2.4c0,0,18.2,92.9,22.2,108.2c3.7,0.7,7.6,0.6,11.3-0.2L1197.6,588.3z"/>
	<path class="st6" d="M1164.7,501.4c0,0,14-1.8,15.7-13.1l7,0.2c0,0-0.4,16.9-15.5,20.4c2.2,0,10.2,1,10.2,1v8l-12.6-3.2l6.6,8.2
		l-1,1h-2l-2,0.7l-6.4-10.2l-2.3,11.3l-13.8-4.1l-1.9-6.4l11.6,3.7l1-6.4L1164.7,501.4z"/>
	<path class="st7" d="M1159.2,512.6L1107,468l-6.2-52.4l20.3-44.1c7.1-15.3,20-27.2,35.9-32.8l5.3-1.9l-40.4,86.5l42.8,78.1
		L1159.2,512.6z"/>
	<path class="st8" d="M1214.7,280.1c0,0,5.4,23.1,29.7,32.6l-12,28.4l13.7,3.7l6.4-51.1c0,0-65.7-55.6-86.1-38.3s1.7,39.4,1.4,59.2
		s-24.9,44.7-24.9,44.7L1133,415l22.6-20.6l34.5-11.4l4.3-37.1c-0.3-4.7-2.1-26.1-8.6-38.4l-1.3,1.2L1214.7,280.1z"/>
	<polygon class="st9" points="1244.3,312.7 1224.8,339.5 1232.3,341.1 	"/>
	<path class="st3" d="M1318.9,207.6c0,0,19.2,26.7,48.4,5c-1.4-14.4-11.2-13.8-11.2-13.8L1318.9,207.6z"/>
</g>
<g id="fing1">
	<path class="st6" d="M1182,510l19,3l1,10l-21.1-5.2c-2-0.4-3.4-2.3-3-4.4c0-0.1,0.1-0.3,0.1-0.4C1179,509,1182,510,1182,510z"/>
</g>
<g id="fing2">
	<path class="st6" d="M1171,525l-3,12l7-2l1-12c-0.5-1.1-1.8-1.6-2.9-1c0,0-0.1,0-0.1,0C1171.8,522.6,1171.1,523.7,1171,525z"/>
</g>
<g id="trumpetmann">
	<path class="st10" d="M1132.1,354.9l12-78.8c0,0,2.3-48.3-40.7-48.9c-41.6,13.1-41.7,11.6-41.7,11.6l-4.4,28.5l-8.2,18.1l8.2,7.1
		l-6,19.1l-10.4,14.2L1132.1,354.9z"/>
	<polygon class="st7" points="911,380.5 902.2,397.3 936.2,407.2 936.2,386.7 	"/>
	<path class="st4" d="M987.1,308.8l221.5,70.4c0,0-260.5,61.1-95.6,342.8c-6.5,7.7-13,9-13,9s-6,4-9,2c-5,1-9.3-5.4-9.3-5.4
		l-10-15.8c0,0-22.2,6.8-32.7,5.3c6.4-6.7,14.7-16.9,14.7-16.9S908.5,539.3,987.1,308.8z"/>
	<polygon class="st7" points="1111.8,348.5 1043.6,415.6 1054.4,330.2 	"/>
	<path class="st4" d="M971.4,465.3h-80.7c0,0-0.9-51.5,11.4-68c23.8,4.8,43.3,7.2,43.3,7.2l-2.4,15.6H969L971.4,465.3z"/>
	<circle class="st11" cx="1051.8" cy="312.7" r="6.5"/>
	<path class="st5" d="M1051.8,320.3c-4.2,0-7.6-3.4-7.6-7.6s3.4-7.6,7.6-7.6s7.6,3.4,7.6,7.6l0,0
		C1059.5,316.9,1056.1,320.3,1051.8,320.3z M1051.8,307.3c-3,0-5.4,2.4-5.4,5.4s2.4,5.4,5.4,5.4s5.4-2.4,5.4-5.4
		C1057.2,309.7,1054.8,307.3,1051.8,307.3C1051.9,307.3,1051.9,307.3,1051.8,307.3L1051.8,307.3z"/>
	<path class="st11" d="M1050.3,318l-11,12.8c3.8,7.9,0.6,19,0.5,19.5l-0.1,0.3l-0.2,0.3c-0.4,0.5-36.9,47.8-50.5,65.1
		c-3.3,4.2-6.2,6.3-8.7,6.3c-0.5,0-1.1-0.1-1.6-0.3c-5.7-2.1-5.5-15.9-5.4-18.6v-0.6l61.8-72.4c-0.3-0.4-0.6-0.7-0.9-1.1
		c-3.6-3.5-10-4-19-1.3c-17.1,21.1-61,78.6-61.4,79.2l-2.7-2c0.5-0.6,44.9-58.9,61.8-79.7l0.3-0.4l0.5-0.1c10.6-3.2,18.3-2.6,22.8,2
		c0.3,0.3,0.6,0.6,0.8,0.9l10.2-11.9 M976.7,404.2c-0.2,6.6,1,14,3.2,14.8c0.5,0.2,2.3,0.3,6.5-4.9c13-16.7,47.3-61,50.2-64.9
		c0.4-1.6,2.2-9.5,0.2-15.5L976.7,404.2z"/>
	<path class="st5" d="M980.4,423.5c-0.7,0-1.3-0.1-1.9-0.4c-6.3-2.3-6.3-15.7-6.1-19.7v-1l61.4-72l-0.3-0.3
		c-3.2-3.2-9.1-3.5-17.6-1.1c-16.4,20.3-56.5,72.9-61.1,78.8l-0.8,1l-4.4-3.4l0.7-0.9c0.4-0.6,45-58.9,61.8-79.7l0.5-0.7l0.8-0.3
		c11-3.3,19-2.6,23.9,2.2l9.4-11l1.7,1.5l-11.1,12.9l-0.8-1c-0.2-0.3-0.5-0.5-0.7-0.8c-4.3-4.2-11.6-4.8-21.7-1.7l-0.2,0l-0.1,0.1
		c-15.7,19.3-55.4,71.3-61.1,78.8l0.9,0.7c6.8-8.8,45-58.9,60.7-78.3l0.2-0.3l0.3-0.1c9.5-2.8,16.2-2.3,20.1,1.5
		c0.4,0.4,0.7,0.8,1,1.2l0.5,0.7l-62.1,72.8v0.2c-0.2,5.8,0.5,16,4.7,17.5c0.4,0.1,0.8,0.2,1.2,0.2c2.1,0,4.8-2,7.8-5.9
		c13.5-17.3,50.1-64.7,50.4-65.1l0.1-0.2c0.1-0.5,3.2-11.2-0.4-18.8l-0.3-0.7l11.5-13.4l1.7,1.5l-10.4,12.3
		c3.5,8.3,0.4,19.2,0.2,19.7l-0.1,0.5l-0.3,0.4c-0.4,0.5-37,47.9-50.5,65.1C986.4,421.3,983.3,423.5,980.4,423.5z M980.4,420.2
		c-0.3,0-0.5,0-0.8-0.1c-4.3-1.6-4-15.3-4-15.9v-0.4l0.3-0.3l61.4-72l0.6,1.9c2.1,6.3,0.2,14.5-0.2,16.1v0.2l-0.1,0.2
		c-0.4,0.5-36.7,47.5-50.2,64.9C983.9,419,981.7,420.1,980.4,420.2L980.4,420.2z M977.9,404.6c-0.1,7.5,1.4,12.9,2.5,13.3
		c0,0,1.5,0.1,5.2-4.6c13.2-16.9,47.6-61.4,50.1-64.7c0.4-1.7,1.7-7.5,0.7-12.6L977.9,404.6z"/>
	
		<rect x="989.7" y="359.6" transform="matrix(0.6929 -0.721 0.721 0.6929 28.9833 832.1282)" class="st11" width="3.3" height="44.9"/>
	<path class="st5" d="M1006.4,400.4l-34-32.6l3.9-4l34,32.6L1006.4,400.4z M975.6,367.7l30.7,29.5l0.8-0.8l-30.8-29.6L975.6,367.7z"
		/>
	
		<rect x="999.2" y="347.5" transform="matrix(0.6929 -0.721 0.721 0.6929 40.6375 835.2446)" class="st11" width="3.3" height="44.9"/>
	<path class="st5" d="M1015.9,388.3l-34-32.6l3.9-4l34,32.6L1015.9,388.3z M985.1,355.6l30.7,29.5l0.8-0.8l-30.7-29.5L985.1,355.6z"
		/>
	
		<rect x="1008.6" y="335.3" transform="matrix(0.6929 -0.721 0.721 0.6929 52.2956 838.3421)" class="st11" width="3.3" height="44.9"/>
	<path class="st5" d="M1025.4,376.2l-34-32.6l3.9-4l34,32.6L1025.4,376.2z M994.6,343.5l30.7,29.5l0.8-0.8l-30.7-29.5L994.6,343.5z"
		/>
	<circle class="st11" cx="936.2" cy="427.6" r="35"/>
	<path class="st5" d="M936.2,463.6c-19.9,0-36.1-16.1-36.1-36.1s16.1-36.1,36.1-36.1c19.9,0,36.1,16.1,36.1,36.1
		C972.3,447.5,956.1,463.6,936.2,463.6z M936.2,393.7c-18.7,0-33.8,15.2-33.8,33.8s15.2,33.8,33.8,33.8c18.7,0,33.8-15.2,33.8-33.8
		C970,408.9,954.9,393.8,936.2,393.7z"/>
	<circle class="st12" cx="941.4" cy="424.6" r="17.4"/>
	<path class="st2" d="M958.2,322.5l-20.7,20.7L935,344l0,0l-2.3,2.2c0,0-17,25.4-21.6,34.3l25.2,6.3v-10.4c0,0,11,10,22,7.7
		l-1.1-5.3c0,0-15.9-0.3-14-13.5s20.3-8.6,20.6-1.7l6-2.5c0,0-1.9-11.1-15.4-10.1c14.7-5.4,19.8-7.5,19.8-7.5v-8.1l-31.5,11.1
		l23.8-19.2L958.2,322.5z"/>
	<path class="st6" d="M1041.8,368c0,0-26.1-21.6-50.9-14.9l-0.8,6.9l18.3-0.1l-13.8,9.8l0.3,7.2l18.5-8.3l-13,15.5l5.8,3.9l8.3-12.7
		l-1.9,16l4.7,1.4l1.1-18.5l13.8,9.1L1041.8,368z"/>
	<path class="st13" d="M1061.7,238.9l41.6-13.1c44.4-2.1,42.7,49.8,42.7,49.8l-3.2,18.2h-29.4l8.6-40.3L1061.7,238.9"/>
	<polygon class="st9" points="1113.4,293.7 1103.8,345.9 1132.1,354.9 1142.8,293.7 	"/>
	<polygon class="st7" points="1015.9,405.3 1043.6,415.6 1058.4,382.1 1041.4,367.4 	"/>
	<path class="st14" d="M1132.1,354.9c0,0-13.7,22.5-26.1,28.6s-51.3,18-60.6,28.2c4.5-10.3,58.5-65.8,58.5-65.8L1132.1,354.9z"/>
	<path class="st14" d="M1058.4,382.1l-31.6,71.7l137.8,47.6l43.9-122.2c0,0-46,10.7-86.7,43.9c-1.8,22-2.4,20.5-2.4,20.5
		L1058.4,382.1z"/>
	<path class="st4" d="M1049.5,354.1c8.4,2.4,12.6-3.6,16-6.3c0.6,1.5,2.4,2.2,3.9,1.6c0.1,0,0.2-0.1,0.3-0.1
		c0.9,4.2,3.7,12.6,11.8,16.2c6,2.7,10.4-31.6,10.4-31.6c-9-2.5-17.1,6-20.1,8.4c-0.4-0.6-0.9-1-1.5-1.2c-0.6-0.2-1.3-0.2-1.9,0
		c-0.7-3.8-5.5-7.1-14-10.9C1054.4,330.2,1043.2,352.3,1049.5,354.1z"/>
</g>
<g id="fingtrumpet">
	<path class="st2" d="M933,346l-11-15l8-5l7,17c0,0,1,3-1,4C934.9,347.6,933.6,347.2,933,346C933,346.1,933,346,933,346z"/>
</g>
<g id="fot">
	<path class="st4" d="M1082,728l-13,22c0,0,8,5,46-11c-1-11-2-17-2-17L1082,728"/>
</g>
<g id="saxmann">
	<polygon class="st4" points="1435.6,472.8 1478.9,504.9 1451.7,542.3 1404.2,492.5 	"/>
	<polygon class="st15" points="1488.2,517 1473.3,540.5 1482.3,543.2 1494.7,524.1 	"/>
	<path class="st4" d="M1508.9,453.1L1365,333.9c0,0-143,12.4-112.7,381.7l0.3,16.9c0,0,35,10.8,46.2,6.4
		c-6.9-9.2-14.3-20.8-14.3-20.8l-0.6-16.2c0,0,31.9,4.4,42.3,2c-1-8.4-22.3-19.8-22.3-19.8S1238.3,554,1508.9,453.1z"/>
	<path class="st14" d="M1365,333.9c0,0-89.2,6-119,90.1c46.8,66.3,104.4,142.2,104.4,142.2l41.5-43.1l-66.2-88.3L1365,333.9z"/>
	<path class="st10" d="M1418.3,378l62.2-17.4c0,0,29.7-11.4,50.2,17.4c12.4,30.5,10.3,25.8,10.3,25.8l-22.3,27.9l-22-18.7
		l-13.1,24.5l-11.1-11.2l-29.5,18.8L1418.3,378z"/>
	<path class="st13" d="M1496.6,413l23.1,22.7l29.3-30.7l-12.4-30.5c0,0-15-29.5-56.5-20.3l-16.4,6.3l1.2,14.2l23.5-7.7l11.2,33
		L1496.6,413z"/>
	<polygon class="st7" points="1391.8,523.1 1406,537.8 1379,573.1 1366.2,549.8 	"/>
	<path class="st11" d="M1469.9,506.7l-113.1,135c0,0-20.4,25.8,4,46.4s57.4-5,57.4-5l62.5-42.1l-28.5-51.6l-66.5,79.3l-0.6-3
		l40.6-53.9l71.8-104.2c0,0,71.7-48.8,8.1-46.4c-20.9,0.8-40.8-30.1-40.8-30.1l-2.4,1.5l24.9,47.6l32.3-7.2L1469.9,506.7z"/>
	<path class="st5" d="M1382.8,697.1c-8.3,0.1-16.4-2.8-22.8-8.2c-25-21-4.4-47.6-4.2-47.9l113.2-135.1l0.1-0.1l44.8-30.2l-27.4,6.1
		l-25.7-49.3l4.2-2.7l0.6,0.9c0.2,0.3,19.3,29.6,39,29.6h0.8c16.3-0.6,25.1,2,27.1,7.9c4.4,13.4-31.2,38.2-34.3,40.4l-71.6,104.1
		l-40.4,53.6v0.2l66-78.8l29.8,53.9l-63.2,42.6C1418.6,684.2,1401.6,697.1,1382.8,697.1z M1470.6,507.5l-113,134.9
		c-0.8,1-19.4,25.2,3.9,44.8c6,5.1,13.6,7.8,21.4,7.7c17.9,0,34.4-12.5,34.6-12.7l61.7-41.5l-27.3-49.2l-66.9,79.9l-1.2-5.7
		l40.9-54.3l71.8-104.4l0.2-0.1c10.5-7.1,37-27.9,33.6-37.9c-1.6-4.8-10.2-7-24.8-6.4c-19.5,0.8-37.6-24.4-41.2-29.7l-0.6,0.4l24,46
		l37.2-8.3L1470.6,507.5z"/>
	<polygon class="st16" points="1385.6,668.8 1376,663.2 1433.9,599.9 1431.7,614.3 	"/>
	<path class="st5" d="M1385.8,670.3l-11.6-6.7l61.3-67.1l-2.8,18.4l-0.2,0.2L1385.8,670.3z M1377.8,663l7.6,4.4l45.3-53.5l1.6-10.5
		L1377.8,663z"/>
	<path class="st2" d="M1383.5,567.2l-10.9,40.3l10.1,7.3l7-36.9l6.9,38.2l10-4.7l-6.9-38.9l13.9,27.6l8.2-6.2l-16.6-28.6
		c0,0,9.8-4.8,20.3,8.1l3.8-6.9l-23.2-28.8L1383.5,567.2z"/>
	<polygon class="st2" points="1498.5,519 1486.7,506.5 1480.7,515.4 1493.1,522.7 1488.9,528.5 1477.7,522.3 1472.3,529.9 
		1484.5,534.6 1482,539.7 1470.2,534.9 1466.6,542.9 1477.8,544.8 1464.9,554.8 1471.1,560.2 1482.3,546.9 1485.9,545.5 
		1499.4,529.3 	"/>
	<polygon class="st9" points="1464.9,374.8 1429.2,407.8 1418.3,378 1463.7,360.6 	"/>
	<circle class="st16" cx="1384.2" cy="687.5" r="9.8"/>
	<circle class="st16" cx="1410.9" cy="676.3" r="10.5"/>
	<circle class="st16" cx="1437.5" cy="655.9" r="12.2"/>
	<circle class="st11" cx="1387.6" cy="689.1" r="8.8"/>
	<path class="st5" d="M1387.6,699.1c-5.5,0-10-4.5-10-10s4.5-10,10-10s10,4.5,10,10S1393.1,699.1,1387.6,699.1z M1387.6,681.4
		c-4.3,0-7.7,3.5-7.8,7.7s3.5,7.7,7.7,7.8s7.7-3.5,7.8-7.7c0,0,0,0,0,0C1395.3,684.8,1391.9,681.4,1387.6,681.4z"/>
	<circle class="st11" cx="1414.6" cy="677.2" r="10.4"/>
	<path class="st5" d="M1414.6,688.7c-6.3,0-11.5-5.1-11.5-11.5s5.1-11.5,11.5-11.5s11.5,5.1,11.5,11.5c0,0,0,0,0,0
		C1426.1,683.6,1421,688.7,1414.6,688.7z M1414.6,668c-5.1,0-9.3,4.1-9.3,9.3s4.1,9.3,9.3,9.3s9.3-4.1,9.3-9.3
		C1423.8,672.1,1419.7,668,1414.6,668L1414.6,668z"/>
	<circle class="st11" cx="1441.2" cy="656.8" r="12.1"/>
	<path class="st5" d="M1441.2,669.9c-7.3,0-13.2-5.9-13.2-13.2s5.9-13.2,13.2-13.2c7.3,0,13.2,5.9,13.2,13.2c0,0,0,0,0,0
		C1454.4,664,1448.5,669.9,1441.2,669.9z M1441.2,645.8c-6,0-10.9,4.9-10.9,10.9s4.9,10.9,10.9,10.9s10.9-4.9,10.9-10.9c0,0,0,0,0,0
		C1452.1,650.7,1447.2,645.9,1441.2,645.8z"/>
	<polygon class="st16" points="1453.3,589.5 1470.5,649.2 1480.1,642.7 	"/>
	<polygon class="st11" points="1455.9,580.2 1501.2,642.4 1484,658.8 1450,586.2 	"/>
	<path class="st5" d="M1483.6,660.7l-34.9-74.7l7.3-7.5l46.7,64.1L1483.6,660.7z M1451.4,586.4l33,70.5l15.4-14.6l-44-60.4
		L1451.4,586.4z"/>
	<path class="st14" d="M1418.3,378c0,0-33.9,10.9-39.5,38.5s-6.6,56.3-12.6,72.4c17.4-21.3,63-81.2,63-81.2L1418.3,378z"/>
	<polygon class="st7" points="1442.9,445.2 1366.2,489 1429.2,407.8 	"/>
	<path class="st4" d="M1406.8,446.7c7.2,3.2,12.5,3.5,16.1,1.1c0.1,0.8,0.5,1.5,1.2,1.9c0.7,0.4,1.6,0.4,2.3,0
		c-0.1,4.4-8.1,7.2-1.5,11.6c4.9,3.3,18-16.1,18-16.1c-7.7-3.5-9.7-4.6-13-2.4c-0.2-0.6-0.6-1.1-1.1-1.4c-0.5-0.3-1.1-0.4-1.7-0.2
		c0.2-4,3.6-19-3.4-23.7C1423.6,417.5,1401.3,444.3,1406.8,446.7z"/>
</g>
<g id="lugg">
	<polygon class="st13" points="1497,413 1520,436 1549,405 1537,388 	"/>
</g>
</svg>
