<svg id="Layer_1" data-name="Layer 1" xmlns="http://www.w3.org/2000/svg" viewBox="0 0 461.22 477.51"><defs><style>.cls-1{fill:#0d0d0d;}</style></defs><title>Logo</title><path class="cls-1" d="M116.31,331.83a16.31,16.31,0,0,0,8.26,2.33c4.72,0,7.47-2.49,7.47-6.09,0-3.34-1.91-5.25-6.73-7.1-5.83-2.07-9.43-5.09-9.43-10.12,0-5.57,4.61-9.7,11.55-9.7a16.25,16.25,0,0,1,7.9,1.75l-1.27,3.76a14.37,14.37,0,0,0-6.79-1.69c-4.87,0-6.73,2.91-6.73,5.35,0,3.34,2.18,5,7.1,6.89,6,2.33,9.12,5.24,9.12,10.49,0,5.51-4.08,10.27-12.51,10.27a18.48,18.48,0,0,1-9.11-2.27Z"/><path class="cls-1" d="M124.25,339.47c-3.62,0-7.71-1-9.94-2.53l-.93-.61,2.05-6.8,1.66,1a14.89,14.89,0,0,0,7.48,2.11c3.74,0,6-1.72,6-4.59,0-2.26-.92-3.84-5.77-5.7-7-2.48-10.39-6.25-10.39-11.52,0-6.49,5.49-11.2,13.05-11.2a17.43,17.43,0,0,1,8.64,2l1.08.61-2.25,6.62-1.56-.85a12.71,12.71,0,0,0-6.07-1.51c-3.86,0-5.23,2.07-5.23,3.85,0,2.11.92,3.47,6.15,5.49,5,1.92,10.07,4.83,10.07,11.89C138.26,333.56,133.93,339.47,124.25,339.47Zm-7.32-4.5a18.64,18.64,0,0,0,7.32,1.5c8.12,0,11-4.53,11-8.77s-2.29-6.83-8.16-9.1c-5.1-2-8.06-4-8.06-8.28,0-3.3,2.58-6.85,8.23-6.85a15.8,15.8,0,0,1,5.9,1.12l.31-.91a16.1,16.1,0,0,0-6-1c-5.92,0-10.05,3.37-10.05,8.2,0,3.95,2.6,6.64,8.43,8.7,4,1.55,7.73,3.65,7.73,8.52,0,4.54-3.6,7.59-9,7.59a17.83,17.83,0,0,1-7.36-1.65Z"/><path class="cls-1" d="M141.79,334.69a3.14,3.14,0,0,1,3.18-3.34,3.35,3.35,0,0,1-.05,6.68A3.13,3.13,0,0,1,141.79,334.69Z"/><path class="cls-1" d="M144.92,339.53a4.84,4.84,0,0,1,.05-9.68,4.84,4.84,0,0,1-.05,9.68Zm.05-6.68a1.85,1.85,0,1,0,1.63,1.84A1.64,1.64,0,0,0,145,332.85Z"/><path class="cls-1" d="M195.36,321.76c-.26-5-.58-11-.53-15.42h-.16c-1.21,4.19-2.7,8.64-4.5,13.57l-6.3,17.32h-3.5l-5.78-17c-1.69-5-3.12-9.65-4.13-13.89h-.11c-.1,4.45-.37,10.44-.68,15.79l-1,15.32h-4.4l2.49-35.72h5.89L178.78,319c1.48,4.39,2.7,8.32,3.6,12h.16c.9-3.6,2.17-7.52,3.76-12l6.36-17.28h5.88l2.23,35.72h-4.51Z"/><path class="cls-1" d="M202.36,339h-7.51l-1-17.1c-.12-2.16-.25-4.54-.35-6.92-.6,1.76-1.24,3.59-1.94,5.49l-6.66,18.31h-5.63l-6.12-18c-.61-1.84-1.16-3.52-1.66-5.08-.1,2.18-.22,4.41-.35,6.59l-1,16.73h-7.41l2.69-38.72h8.35l6.44,18.28c.92,2.72,1.67,5.07,2.3,7.18.65-2.09,1.43-4.44,2.4-7.18l6.72-18.28H200Zm-4.68-3h1.49l-2-32.72h-3.42l-6,16.3c-1.77,5-2.91,8.67-3.71,11.87l-.29,1.13H181.2l-.28-1.14c-.8-3.3-1.9-7-3.56-11.9l-5.74-16.26H168.2L165.92,336h1.38l.87-13.91c.32-5.51.58-11.39.68-15.73l0-1.47h2.76l.27,1.16c.88,3.72,2.15,8,4.1,13.75l5.42,16h1.37l5.95-16.34c1.82-5,3.29-9.38,4.47-13.47l.32-1.08h2.8l0,1.52c-.05,4.4.27,10.45.53,15.32Z"/><path class="cls-1" d="M207.18,337.66l3.29-4.66a19.27,19.27,0,0,1-4.72-13.2c0-11.28,7.16-18.65,16.48-18.65a14.89,14.89,0,0,1,8.9,2.81l3.13-4.29,2.81,1.91-3.29,4.55a19.25,19.25,0,0,1,4.61,13.14c0,12.45-7.68,18.76-16.21,18.76a15.27,15.27,0,0,1-9.06-2.86l-3.34,4.55Zm21.67-30.31a10,10,0,0,0-6.67-2.49c-7.79,0-11.71,7.21-11.71,14.68a18.08,18.08,0,0,0,2.65,9.59l0-.06ZM215.4,331.78a9.14,9.14,0,0,0,6.67,2.54c7.47,0,11.61-6.83,11.61-14.89a17.5,17.5,0,0,0-2.49-9.27H231Z"/><path class="cls-1" d="M210.07,341.87,205.14,338l3.43-4.86a21.06,21.06,0,0,1-4.32-13.29c0-11.67,7.56-20.15,18-20.15a16.64,16.64,0,0,1,8.53,2.27l3.14-4.31,5.28,3.59-3.49,4.86a21.18,21.18,0,0,1,4.2,13.21c0,14-8.9,20.26-17.71,20.26a17,17,0,0,1-8.7-2.32Zm-.85-4.51.27.22,3.3-4.51L214,334a13.79,13.79,0,0,0,8.18,2.57c7.32,0,14.71-5.34,14.71-17.26a17.74,17.74,0,0,0-4.21-12.12l-.83-.9L235,302l-.33-.23-3.16,4.34-1.21-.89a13.47,13.47,0,0,0-8-2.52c-8.82,0-15,7.06-15,17.15A17.89,17.89,0,0,0,211.57,332l.83.89Zm12.85-1.54a10.61,10.61,0,0,1-7.7-2.95l-1-.9,16.85-23.31H232l.44.71a18.93,18.93,0,0,1,2.72,10.06C235.18,329.08,229.79,335.82,222.07,335.82Zm-4.63-4.31a7.82,7.82,0,0,0,4.63,1.31c7,0,10.11-6.73,10.11-13.39a16.67,16.67,0,0,0-1.27-6.55Zm-4.59,0-1-1.64A19.45,19.45,0,0,1,209,319.54c0-7.79,4.13-16.18,13.21-16.18a11.51,11.51,0,0,1,7.65,2.85l1,.9-16.65,23Zm9.33-25.16c-7,0-10.21,6.83-10.21,13.18a16.18,16.18,0,0,0,1.37,6.73l13.43-18.6A8.51,8.51,0,0,0,222.18,306.36Z"/><path class="cls-1" d="M244.38,301.73H249v31.85h15.26v3.87H244.38Z"/><path class="cls-1" d="M265.75,339H242.88V300.23h7.61v31.85h15.26Zm-19.87-3h16.87v-.87H247.49V303.23h-1.61Z"/><path class="cls-1" d="M269.39,301.73H274v31.85h15.26v3.87H269.39Z"/><path class="cls-1" d="M290.77,339H267.89V300.23h7.62v31.85h15.26Zm-19.88-3h16.88v-.87H272.51V303.23h-1.62Z"/><path class="cls-1" d="M312.9,320.7H299v12.88h15.47v3.87H294.41V301.73h19.28v3.87H299v11.29H312.9Z"/><path class="cls-1" d="M316,339H292.91V300.23h22.28v6.87H300.52v8.29H314.4v6.81H300.52v9.88H316Zm-20.08-3H313v-.87H297.52V319.2H311.4v-.81H297.52V304.1h14.67v-.87H295.91Z"/><path class="cls-1" d="M320.48,302.21a47.75,47.75,0,0,1,8.85-.74c4.92,0,8.1.9,10.33,2.91a8.91,8.91,0,0,1,2.81,6.79,9.38,9.38,0,0,1-6.73,9.11v.16c2.75.95,4.39,3.49,5.24,7.2,1.17,5,2,8.43,2.76,9.81H339c-.58-1-1.38-4.08-2.38-8.53-1.07-4.93-3-6.79-7.16-6.95h-4.34v15.48h-4.61Zm4.61,16.27h4.71c4.93,0,8.06-2.71,8.06-6.79,0-4.6-3.34-6.62-8.21-6.67a19.13,19.13,0,0,0-4.56.42Z"/><path class="cls-1" d="M346.25,339h-8.14l-.44-.75c-.62-1.07-1.33-3.58-2.55-8.95-1-4.77-2.67-5.66-5.74-5.78h-2.79V339H319V301l1.2-.25a49.72,49.72,0,0,1,9.15-.77c5.32,0,8.81,1,11.33,3.3a10.29,10.29,0,0,1,3.31,7.9,10.62,10.62,0,0,1-5.16,9.33,12.26,12.26,0,0,1,3.63,6.81c1,4.42,1.95,8.19,2.62,9.43Zm-6.3-3h1.6c-.53-1.71-1.15-4.23-2-8-.78-3.4-2.17-5.41-4.27-6.14l-1-.34V319.2l1-.34a7.92,7.92,0,0,0,5.71-7.69,7.39,7.39,0,0,0-2.3-5.66c-1.95-1.76-4.82-2.54-9.34-2.54a50.35,50.35,0,0,0-7.35.5V336h1.61V320.47h5.84c4.94.19,7.42,2.54,8.62,8.13C338.38,330.06,339.3,334.1,340,336ZM329.8,320h-6.21V304.31l1.09-.31a20.63,20.63,0,0,1,5-.48h0c6.16.07,9.7,3.05,9.7,8.17C339.36,316.65,335.52,320,329.8,320Zm-3.21-3h3.21c4.05,0,6.56-2,6.56-5.29s-2.26-5.12-6.72-5.17a23.56,23.56,0,0,0-3.05.17Z"/><path class="cls-1" d="M115.11,395.42a16.38,16.38,0,0,0,8.27,2.33c4.71,0,7.47-2.49,7.47-6.09,0-3.34-1.91-5.25-6.73-7.1-5.83-2.07-9.43-5.09-9.43-10.12,0-5.57,4.61-9.7,11.55-9.7a16.2,16.2,0,0,1,7.89,1.75l-1.27,3.76a14.28,14.28,0,0,0-6.78-1.69c-4.87,0-6.73,2.91-6.73,5.35,0,3.34,2.17,5,7.1,6.88,6,2.34,9.12,5.25,9.12,10.5,0,5.51-4.09,10.27-12.51,10.27-3.44,0-7.21-1-9.11-2.27Z"/><path class="cls-1" d="M123.06,403.06c-3.62,0-7.71-1-9.94-2.53l-.93-.61,2-6.8,1.66,1a14.86,14.86,0,0,0,7.48,2.11c3.74,0,6-1.72,6-4.59,0-2.26-.92-3.84-5.77-5.7-7-2.48-10.39-6.25-10.39-11.52,0-6.49,5.49-11.2,13-11.2a17.38,17.38,0,0,1,8.63,1.95l1.08.61-2.24,6.62-1.56-.85a12.71,12.71,0,0,0-6.07-1.51c-3.86,0-5.23,2.07-5.23,3.85,0,2.11.92,3.47,6.14,5.49,5,1.92,10.08,4.83,10.08,11.89C137.07,397.15,132.74,403.06,123.06,403.06Zm-7.33-4.5a18.73,18.73,0,0,0,7.33,1.5c8.12,0,11-4.53,11-8.77s-2.29-6.83-8.16-9.1c-5.1-2-8.06-4-8.06-8.28,0-3.3,2.58-6.85,8.23-6.85a15.8,15.8,0,0,1,5.9,1.12l.31-.91a16.1,16.1,0,0,0-6-1c-5.92,0-10,3.37-10,8.2,0,3.95,2.6,6.64,8.43,8.7,4,1.55,7.73,3.65,7.73,8.52,0,4.54-3.61,7.59-9,7.59A17.83,17.83,0,0,1,116,397.6Z"/><path class="cls-1" d="M149.85,369.25H139v-3.93h26.44v3.93H154.51V401h-4.66Z"/><path class="cls-1" d="M156,402.54h-7.66V370.75H137.49v-6.93h29.44v6.93H156Zm-4.66-3H153V367.75h10.92v-.93H140.49v.93h10.86Z"/><path class="cls-1" d="M198.49,382.81c0,12.29-7.47,18.81-16.58,18.81-9.44,0-16.06-7.31-16.06-18.12,0-11.34,7.05-18.76,16.59-18.76C192.19,364.74,198.49,372.21,198.49,382.81Zm-27.71.58c0,7.63,4.13,14.47,11.39,14.47s11.45-6.73,11.45-14.84c0-7.1-3.71-14.52-11.4-14.52S170.78,375.55,170.78,383.39Z"/><path class="cls-1" d="M181.91,403.12c-10.34,0-17.56-8.07-17.56-19.62,0-11.93,7.44-20.26,18.09-20.26,10.5,0,17.55,7.87,17.55,19.57C200,396.84,190.91,403.12,181.91,403.12Zm.53-36.88c-8.88,0-15.09,7.1-15.09,17.26,0,9.94,5.85,16.62,14.56,16.62,9.16,0,15.08-6.8,15.08-17.31C197,372.9,191.14,366.24,182.44,366.24Zm-.27,33.12c-8.46,0-12.89-8-12.89-16,0-8.16,4-16.39,12.94-16.39,8.47,0,12.9,8.06,12.9,16C195.12,392.64,189.79,399.36,182.17,399.36Zm.05-29.36c-6.87,0-9.94,6.73-9.94,13.39,0,6.25,3.09,13,9.89,13s10-6.7,10-13.34C192.12,376.75,189,370,182.22,370Z"/><path class="cls-1" d="M204.48,365.8a47.75,47.75,0,0,1,8.85-.74c4.93,0,8.11.9,10.33,2.91a8.88,8.88,0,0,1,2.81,6.79,9.38,9.38,0,0,1-6.73,9.11V384c2.76,1,4.4,3.49,5.25,7.2,1.16,5,2,8.43,2.75,9.81H223c-.59-1-1.38-4.08-2.39-8.54-1.06-4.92-3-6.78-7.15-6.94h-4.35V401h-4.61Zm4.61,16.27h4.72c4.93,0,8.05-2.71,8.05-6.79,0-4.61-3.34-6.62-8.21-6.67a19.19,19.19,0,0,0-4.56.42Z"/><path class="cls-1" d="M230.25,402.54h-8.14l-.43-.75c-.62-1.07-1.34-3.58-2.55-9-1-4.77-2.67-5.66-5.75-5.78h-2.79v15.48H203v-38l1.2-.25a49.72,49.72,0,0,1,9.15-.77c5.32,0,8.82,1,11.34,3.3a10.32,10.32,0,0,1,3.3,7.9,10.6,10.6,0,0,1-5.16,9.33,12.27,12.27,0,0,1,3.64,6.81c1,4.42,2,8.19,2.61,9.43Zm-6.29-3h1.6c-.54-1.71-1.16-4.23-2-8-.78-3.41-2.18-5.41-4.28-6.14l-1-.34v-2.31l1-.34a7.91,7.91,0,0,0,5.71-7.69,7.39,7.39,0,0,0-2.3-5.66c-1.94-1.76-4.82-2.54-9.34-2.54a50.55,50.55,0,0,0-7.35.5v32.48h1.61V384.06h5.85c4.94.19,7.42,2.54,8.62,8.13C222.39,393.65,223.3,397.69,224,399.54Zm-10.15-16h-6.22V367.9l1.09-.31a20.63,20.63,0,0,1,5-.48h0c6.16.07,9.69,3.05,9.69,8.17C223.36,380.24,219.52,383.57,213.81,383.57Zm-3.22-3h3.22c4,0,6.55-2,6.55-5.29s-2.26-5.12-6.72-5.17a23.79,23.79,0,0,0-3,.17Z"/><path class="cls-1" d="M233,365.8a45.07,45.07,0,0,1,8.43-.74c4.61,0,7.57.79,9.8,2.6a7.48,7.48,0,0,1,3,6.3c0,3.44-2.28,6.46-6,7.84v.11c3.39.85,7.36,3.65,7.36,8.95a9.62,9.62,0,0,1-3,7.15c-2.49,2.28-6.52,3.34-12.34,3.34a54.54,54.54,0,0,1-7.16-.42Zm4.61,14.62h4.19c4.87,0,7.73-2.54,7.73-6,0-4.19-3.17-5.83-7.84-5.83a19.71,19.71,0,0,0-4.08.32Zm0,17.12a24.59,24.59,0,0,0,3.87.21c4.77,0,9.17-1.75,9.17-6.94,0-4.88-4.19-6.89-9.22-6.89H237.6Z"/><path class="cls-1" d="M240.15,402.85a56.12,56.12,0,0,1-7.36-.43l-1.3-.18V364.58l1.19-.25a47.15,47.15,0,0,1,8.74-.77c4.92,0,8.24.9,10.74,2.93a8.93,8.93,0,0,1,3.53,7.47,9.44,9.44,0,0,1-4.11,7.72,10.26,10.26,0,0,1,5.43,9.18,11.1,11.1,0,0,1-3.47,8.23C250.72,401.67,246.48,402.85,240.15,402.85Zm-5.66-3.26c1.3.13,3.21.26,5.66.26,5.46,0,9.16-1,11.33-2.94a8.16,8.16,0,0,0,2.53-6.05c0-5.65-5.19-7.24-6.23-7.5l-1.13-.28V381a12,12,0,0,1-4.86.94H236.1V367.71l1.19-.25a21.42,21.42,0,0,1,4.39-.35c8.13,0,9.34,4.59,9.34,7.33a6.81,6.81,0,0,1-3.14,5.86c3-1.18,4.81-3.59,4.81-6.34a6,6,0,0,0-2.37-5.1c-2-1.62-4.65-2.3-8.9-2.3a47.35,47.35,0,0,0-6.93.49Zm4.61-20.67h2.69c3.79,0,6.23-1.76,6.23-4.48,0-1.19,0-4.33-6.34-4.33-1,0-1.85,0-2.58.11Zm2.37,20.33a25.51,25.51,0,0,1-4.13-.23l-1.24-.22V382.42h5.32c6.61,0,10.72,3.21,10.72,8.39S248.15,399.25,241.47,399.25Zm-2.37-3.06c.63,0,1.41.06,2.37.06,3.5,0,7.67-.94,7.67-5.44,0-4.69-4.84-5.39-7.72-5.39H239.1Z"/><path class="cls-1" d="M267.49,389.8,263.78,401H259l12.13-35.72h5.57L288.9,401H284l-3.82-11.24Zm11.71-3.6-3.5-10.28c-.79-2.33-1.32-4.45-1.85-6.52h-.11c-.53,2.12-1.11,4.3-1.8,6.47l-3.5,10.33Z"/><path class="cls-1" d="M291,402.54h-8.1l-3.81-11.24H268.57l-3.71,11.24h-7.94l13.15-38.72h7.71Zm-5.95-3h1.76l-11.17-32.72h-3.41l-11.11,32.72h1.58l3.72-11.24h14.82Zm-3.75-11.84H266.35l4.17-12.31c.58-1.85,1.15-3.88,1.76-6.35l.29-1.14H275l.37,1.46c.5,1.93,1,3.92,1.74,6.08Zm-10.76-3h6.57l-2.82-8.3c-.17-.5-.33-1-.48-1.48-.14.48-.28.94-.43,1.4Z"/><path class="cls-1" d="M294.14,401V365.32h5l11.44,18.07A100.18,100.18,0,0,1,317,395l.11-.06c-.43-4.77-.53-9.11-.53-14.67V365.32H321V401h-4.66L305,382.91A112.44,112.44,0,0,1,298.28,371l-.16.06c.26,4.5.37,8.79.37,14.73V401Z"/><path class="cls-1" d="M322.45,402.54h-7l-11.78-18.83c-1.45-2.32-2.7-4.41-3.79-6.34.07,2.5.1,5.21.1,8.41v16.76h-7.35V363.82H300l11.89,18.77c1.21,1.92,2.32,3.77,3.33,5.58-.08-2.54-.11-5.12-.11-7.9V363.82h7.34Zm-5.33-3h2.33V366.82h-1.34v13.45c0,5.2.09,9.66.52,14.54l.09,1L316.33,397l-.66-1.4a98.47,98.47,0,0,0-6.32-11.44l-11-17.37h-2.71v32.72H297V385.78c0-6-.11-10.22-.37-14.65l-.07-1.14,2.52-.84.57,1.21a109.54,109.54,0,0,0,6.58,11.76Z"/><path class="cls-1" d="M329,365.8a66.63,66.63,0,0,1,9.8-.74c6.63,0,11.34,1.53,14.47,4.45s5,7.05,5,12.82-1.8,10.6-5.14,13.88-8.85,5.14-15.79,5.14a75.71,75.71,0,0,1-8.37-.42Zm4.61,31.58a29.27,29.27,0,0,0,4.66.27c9.86,0,15.21-5.52,15.21-15.16.05-8.42-4.72-13.78-14.46-13.78a26.53,26.53,0,0,0-5.41.48Z"/><path class="cls-1" d="M337.38,402.85a75.94,75.94,0,0,1-8.54-.43l-1.33-.15V364.51l1.28-.19a66.38,66.38,0,0,1,10-.76c6.92,0,12,1.59,15.49,4.85s5.51,8,5.51,13.92c0,6.19-1.93,11.36-5.59,14.95S344.76,402.85,337.38,402.85Zm-6.87-3.28c2.08.19,4.39.28,6.87.28,6.47,0,11.7-1.67,14.73-4.7s4.7-7.46,4.7-12.82c0-5.08-1.49-8.91-4.54-11.71s-7.33-4.06-13.46-4.06a64.61,64.61,0,0,0-8.3.54Zm7.77-.42a29.25,29.25,0,0,1-4.93-.29l-1.23-.23V368l1.18-.25a26.77,26.77,0,0,1,5.73-.52c5.19,0,9.23,1.42,12,4.22,2.61,2.63,4,6.46,3.95,11.07C355,393.08,348.9,399.15,338.28,399.15Zm-3.16-3.1c1.05.08,2.25.1,3.16.1,9,0,13.71-4.73,13.71-13.66,0-3.86-1-6.87-3.07-8.95s-5.53-3.33-9.89-3.33a28.79,28.79,0,0,0-3.91.24Z"/><path class="cls-1" d="M160.41,279.83h0c.75-.19,1.47-.4,2.2-.61C161.88,279.43,161.16,279.64,160.41,279.83Z"/><path class="cls-1" d="M164.22,278.77l-.24.08Z"/><path class="cls-1" d="M349,71.5H316.7l-56,149,0,1.53L207,71.5l-32.28.08L167.7,173.43c-3.82-1.86-8.48-4.55-13.58-6.52-28.9-11.19-42.64-21.81-42.64-41.38,0-14.3,11.88-31.38,40.46-31.38,9.33,0,9.59.21,9.59.21L159,72.13V72s-.2-.25-6.14-.25c-40.7,0-67.73,24.23-67.73,56.85,0,29.51,21.13,47.22,55.31,59.34,10.55,4.06,19.28,8.37,25.39,12.95h0c9.43,7.17,13.48,15.56,13.48,27,0,12.59-6.22,22.78-17.3,28.52v0c-6.4,3.29-14.44,5.12-23.93,5.12a90.24,90.24,0,0,1-45.61-12.86L86.05,270c10.53,7,31.52,12.45,50.29,11.57,8.84-.41,16.82,0,23.94-1.72h0l.11,0h0c.75-.19,1.47-.4,2.2-.6-.73.21-1.45.42-2.2.61h0l23.9-.33.66-11.15h0v0c13.62-10.54,20.38-25.94,20.38-42.51,0-15.6-5.42-27.88-15.19-37.53l.29-4.85c1.74-29.38,3.2-62.25,3.78-86.69h.58C197,106.2,196,133.17,209,158.17c19.56,37.67,45.48,84.1,51,100.57l.05-2.65-.05,2.78c6.06-16.58,31.73-62.36,51.39-101.66,12.5-25,13.75-51.51,16.35-60.41h.87c-.29,24.44,1.45,57.31,2.91,84.66l5.28,98.73,25.25-.34ZM164,278.85l.24-.08Z"/><path class="cls-1" d="M232.6,115c13.25-.83,21.6-10,25.07-14.75a5,5,0,0,0,6.73,0c3.46,4.75,11.82,14,25.1,14.79,10,.62,0-40,0-40-14.16.88-22.73,11.3-25.72,15.66a5,5,0,0,0-5.48,0c-3-4.38-11.57-14.76-25.7-15.64C232.6,74.94,222.63,115.57,232.6,115Z"/><path class="cls-1" d="M385,428.51H75.79V275.78H385Zm-302.18-7H378V282.78H82.79Z"/></svg>