<svg width="703" height="500" viewBox="0 0 703 500" fill="none" xmlns="http://www.w3.org/2000/svg">
<rect width="703" height="500" fill="white"/>
<g clip-path="url(#clip0)">
<rect width="703" height="500" fill="#EAF3FD"/>
<rect width="358" height="500" fill="#EAF3FD"/>
<rect x="358" width="345" height="500" fill="#EAF3FD"/>
<path d="M61 500.201L655 500.201L655 470.201L577 470.201L525 463.201L247.5 463.201L215.5 453.201L174.5 453.201L128.5 434.201L61 434.201L61 500.201Z" fill="#AA8D74"/>
<path d="M181 441.201L131 426.334L168.374 360.201L181 441.201Z" fill="#E5E2D5"/>
<path d="M181 441.201L131 426.334L168.374 360.201L181 441.201Z" fill="url(#paint0_linear)"/>
<path d="M181 441.201L131 426.334L168.374 360.201L181 441.201Z" stroke="#757573"/>
<path d="M128 433.701H113.5L98.9702 404.201L91.8284 389.701L83.7015 373.201L75.0821 355.701L64 333.201C69.9902 331.894 79.8594 331.057 91.8284 331.136C98.9359 331.183 106.784 331.553 115 332.34C121.977 333.008 129.22 333.976 136.5 335.302C143.364 336.553 150.261 338.121 157 340.056C163.901 342.037 170.636 344.401 177 347.201L169.5 360.441L167.75 363.53L162.272 373.201L158.5 379.86L155 386.038L149.5 395.747L142 408.987L128 433.701Z" fill="#E5E2D5"/>
<path d="M128 433.701H113.5L98.9702 404.201L91.8284 389.701L83.7015 373.201L75.0821 355.701L64 333.201C69.9902 331.894 79.8594 331.057 91.8284 331.136C98.9359 331.183 106.784 331.553 115 332.34C121.977 333.008 129.22 333.976 136.5 335.302C143.364 336.553 150.261 338.121 157 340.056C163.901 342.037 170.636 344.401 177 347.201L169.5 360.441L167.75 363.53L162.272 373.201L158.5 379.86L155 386.038L149.5 395.747L142 408.987L128 433.701Z" fill="url(#paint1_linear)"/>
<path d="M177 352.701L175 452.701H183L177 352.701Z" fill="#E5E2D5"/>
<path d="M177 352.701L175 452.701H183L177 352.701Z" fill="url(#paint2_linear)"/>
<path d="M98.9702 404.201L113.5 433.701H128L142 408.987L149.5 395.747L155 386.038M98.9702 404.201L91.8284 389.701M98.9702 404.201L105.5 406.5L109.898 404.285M91.8284 389.701L83.7015 373.201M91.8284 389.701L100.5 392L106.299 389.713M83.7015 373.201L75.0821 355.701M83.7015 373.201L94.5 375.5L102.083 372.646M75.0821 355.701L64 333.201C69.9902 331.894 79.8594 331.057 91.8284 331.136M75.0821 355.701L88 358L97.5898 354.459M157 340.056C163.901 342.037 170.636 344.401 177 347.201L169.5 360.441M157 340.056C150.261 338.121 143.364 336.553 136.5 335.302M157 340.056L151.67 355.701M136.5 335.302C129.22 333.976 121.977 333.008 115 332.34M136.5 335.302L133.539 356.007M115 332.34C106.784 331.553 98.9359 331.183 91.8284 331.136M115 332.34L116.069 354.662M91.8284 331.136L97.5898 354.459M126.449 405.593L128.478 391.405M126.449 405.593L122.5 406.5L118.468 404.761M126.449 405.593L130 407.5L134.238 406.875L138.939 393.075M118.468 404.761L117.776 390.314M118.468 404.761L114.5 406.5L109.898 404.285M109.898 404.285L106.299 389.713M138.939 393.075L141.336 386.038M138.939 393.075L133.539 394L128.478 391.405M144.54 376.632L146.5 370.878M144.54 376.632L141.336 386.038M144.54 376.632L137 377.5L130.889 374.543M150.66 358.668L151.67 355.701M150.66 358.668L146.5 370.878M150.66 358.668L141.336 359.5L133.539 356.007M169.5 360.441L167.75 363.53L162.272 373.201M169.5 360.441C166.78 359.528 159.406 357.301 151.67 355.701M162.272 373.201L158.5 379.86L155 386.038M162.272 373.201C158.181 372.486 149.3 371.02 146.5 370.878M155 386.038C151.724 386.038 144.404 386.038 141.336 386.038M133.539 356.007L125 358L116.069 354.662M133.539 356.007L130.889 374.543M116.069 354.662L108 357.5L97.5898 354.459M116.069 354.662L116.957 373.215M97.5898 354.459L102.083 372.646M102.083 372.646L110.5 375.5L116.957 373.215M102.083 372.646L106.299 389.713M116.957 373.215L124 376L130.889 374.543M116.957 373.215L117.776 390.314M130.889 374.543L128.478 391.405M128.478 391.405L123 392.5L117.776 390.314M117.776 390.314L112.5 392.5L106.299 389.713M175 452.701L177 352.701L183 452.701H175Z" stroke="#757573"/>
<path d="M261.5 452.701L203 439.701L245 351.701L249.5 345.201L261.5 452.701Z" fill="#E5E2D5"/>
<path d="M261.5 452.701L203 439.701L245 351.701L249.5 345.201L261.5 452.701Z" fill="url(#paint3_linear)"/>
<path d="M261.5 452.701L203 439.701L245 351.701L249.5 345.201L261.5 452.701Z" stroke="#757573"/>
<path d="M197.5 452.701H181L174.205 407.201L171.89 391.701L169.5 375.701L167.26 360.701L164.571 342.701L161.734 323.701L158 298.701C167.503 298.701 176.53 299.477 185 300.778C193.556 302.093 204.169 304.569 211.5 306.701C221.274 309.544 227.258 312.262 234.5 315.493C246.157 320.694 254.272 325.609 258 327.701L275.5 462.701H261.5L259.5 447.201L254.584 404.701L252.776 389.701L247.836 348.701L244.69 355.201L243.964 356.701L237.5 370.057L236 373.156L230.412 384.701L229.686 386.201L222.668 400.701L215.65 415.201L206 436.201L197.5 452.701Z" fill="#E5E2D5"/>
<path d="M197.5 452.701H181L174.205 407.201L171.89 391.701L169.5 375.701L167.26 360.701L164.571 342.701L161.734 323.701L158 298.701C167.503 298.701 176.53 299.477 185 300.778C193.556 302.093 204.169 304.569 211.5 306.701C221.274 309.544 227.258 312.262 234.5 315.493C246.157 320.694 254.272 325.609 258 327.701L275.5 462.701H261.5L259.5 447.201L254.584 404.701L252.776 389.701L247.836 348.701L244.69 355.201L243.964 356.701L237.5 370.057L236 373.156L230.412 384.701L229.686 386.201L222.668 400.701L215.65 415.201L206 436.201L197.5 452.701Z" fill="url(#paint4_linear)"/>
<path d="M258 327.701L275.5 462.701H261.5L259.5 447.201L254.584 404.701M258 327.701L253 339.201L251.641 341.701M258 327.701C254.272 325.609 246.157 320.694 234.5 315.493M247.836 348.701L252.776 389.701M247.836 348.701L251.641 341.701M247.836 348.701L244.69 355.201M174.205 407.201L181 452.701H197.5L206 436.201L215.65 415.201L222.668 400.701L229.686 386.201L230.412 384.701M174.205 407.201L171.89 391.701M174.205 407.201L180.5 409.778L185 408.248M171.89 391.701L169.5 375.701M171.89 391.701L179.5 394.5L185.5 392.374L191.5 395.5L197.919 394.083M169.5 375.701L167.26 360.701M169.5 375.701L178 378.5L185 376.3M167.26 360.701L164.571 342.701M167.26 360.701L177 364.5L185 361.443M164.571 342.701L161.734 323.701M164.571 342.701L175.5 346.5L185 343.534M161.734 323.701L158 298.701C167.503 298.701 176.53 299.477 185 300.778M161.734 323.701L174 327.5L185 324.481M254.584 404.701C255.889 404.701 266.8 405.801 268 406.201M254.584 404.701L252.776 389.701M252.776 389.701C253.518 389.701 265.2 390.801 266 391.201M234.5 315.493C227.258 312.262 221.274 309.544 211.5 306.701M234.5 315.493L229.45 331.99M211.5 306.701C204.169 304.569 193.556 302.093 185 300.778M211.5 306.701L208.233 327.723M185 300.778V324.481M195.479 409.778L200 412.5L205.012 411.825L209.689 396.547M195.479 409.778L190 411L185 408.248M195.479 409.778L197.919 394.083M185 408.248V376.3M209.689 396.547L212.397 387.701M209.689 396.547L203.5 397.5L197.919 394.083M214.329 381.388L217.6 370.701M214.329 381.388L212.397 387.701M214.329 381.388L207 382.5L200.362 378.361M218.581 367.497L223.11 352.701M218.581 367.497L217.6 370.701M218.581 367.497L210 368.5L202.609 363.905M223.841 350.313L228.773 334.201M223.841 350.313L223.11 352.701M223.841 350.313L214 351.5L205.349 346.278M229.45 331.99L229.171 332.903L228.773 334.201M229.45 331.99L218.5 332.903L208.233 327.723M251.641 341.701C246.943 339.939 235.792 335.971 228.773 334.201M244.69 355.201L243.964 356.701L237.5 370.057M244.69 355.201C239.006 354.368 226.734 352.701 223.11 352.701M237.5 370.057L236 373.156L230.412 384.701M237.5 370.057C231.957 370.105 220.217 370.301 217.6 370.701M230.412 384.701C225.309 385.368 214.563 386.901 212.397 387.701M197.919 394.083L200.362 378.361M185 376.3L192.5 379.771L200.362 378.361M185 376.3V361.443M200.362 378.361L202.609 363.905M202.609 363.905L193.5 365.5L185 361.443M202.609 363.905L205.349 346.278M185 361.443V343.534M185 343.534L195 348.5L205.349 346.278M185 343.534V324.481M205.349 346.278L208.233 327.723M208.233 327.723L196.5 329L185 324.481" stroke="#757573"/>
<path d="M390 362.201L457.5 446.201L383.5 462.701H365L312 446.701L390 362.201Z" fill="#CAC9C6" stroke="#757573"/>
<path d="M221 246.701L262.5 414.701H273.5C269.5 362.701 261.4 257.501 261 252.701C247.4 247.901 228.667 246.701 221 246.701Z" fill="#CAC9C6"/>
<path fill-rule="evenodd" clip-rule="evenodd" d="M220 246.201H220.639C234.753 246.201 248.338 248.199 261.262 251.718L261 252.683C248.35 249.238 235.068 247.262 221.278 247.202L228.056 274.622C234.47 273.427 249.58 271.201 262.5 271.201V272.201C249.702 272.201 234.709 274.403 228.296 275.594L232.834 293.95C238.81 292.812 252.66 290.701 264 290.701V291.701C252.782 291.701 239.049 293.787 233.074 294.922L237.323 312.109C241.44 311.24 252.026 309.701 265.5 309.701V310.701C252.122 310.701 241.625 312.227 237.563 313.08L241.654 329.629C245.757 328.937 255.813 327.701 267 327.701V328.701C255.939 328.701 245.992 329.917 241.894 330.602L245.243 344.149C249.423 343.633 259.218 342.701 268.5 342.701V343.701C259.356 343.701 249.7 344.611 245.485 345.127L247.822 354.581L249.199 360.149C253.376 359.633 262.987 358.701 271.5 358.701V359.701C263.121 359.701 253.654 360.611 249.44 361.127L253.032 375.656C256.292 375.309 263.962 374.701 272 374.701V375.701C264.112 375.701 256.578 376.291 253.274 376.636L274.52 462.581L273.549 462.821L252.166 376.321L248.335 360.821L246.851 354.821L244.379 344.821L240.795 330.321L236.469 312.821L231.977 294.651L227.199 275.321L220.153 246.821L220 246.201Z" fill="#757573"/>
<path d="M298 266.701L285 415.201H274C270 365.701 261.8 263.801 261 252.201C277.4 257.001 292.5 263.868 298 266.701Z" fill="#CAC9C6"/>
<path fill-rule="evenodd" clip-rule="evenodd" d="M261.131 251.683C274.222 255.237 286.636 260.352 298.236 266.536L298.141 266.714L298.499 266.745L297.972 272.745L296.246 292.398L294.571 311.469L292.971 329.687L291.693 344.245L290.288 360.245L288.882 376.245L281.246 463.201H280.242L287.844 376.644C284.774 376.308 277.929 375.732 271.188 375.703L278.05 463.201H277.047L270.148 375.24L268.894 359.24L267.639 343.24L266.462 328.24L265.051 310.24L263.561 291.24L262.031 271.74L260.502 252.24L260.991 252.202L261.131 251.683ZM261.552 252.835C274.194 256.326 286.202 261.281 297.45 267.251L297.019 272.167C290.032 271.668 274.337 270.834 262.991 271.186L261.552 252.835ZM296.931 273.163C289.956 272.666 274.351 271.837 263.069 272.184L264.52 290.684C274.701 290.34 288.904 291.263 295.293 291.813L296.931 273.163ZM295.206 292.809C288.837 292.261 274.713 291.344 264.598 291.682L266.012 309.702C275.35 309.726 287.943 310.479 293.618 310.891L295.206 292.809ZM293.53 311.887C287.873 311.477 275.377 310.731 266.09 310.702L267.423 327.702C275.873 327.734 286.977 328.611 292.019 329.097L293.53 311.887ZM291.932 330.093C286.921 329.61 275.901 328.739 267.502 328.703L268.6 342.702C276.02 342.727 286.095 343.33 290.74 343.667L291.932 330.093ZM290.652 344.663C286.026 344.328 276.048 343.731 268.678 343.702L269.854 358.702C277.659 358.725 285.746 359.315 289.336 359.655L290.652 344.663ZM289.248 360.651C285.697 360.315 277.679 359.729 269.933 359.702L271.109 374.702C277.904 374.728 284.811 375.307 287.931 375.647L289.248 360.651Z" fill="#757573"/>
<path d="M329.5 287.701L296 416.701H285C289 370.535 297.2 276.001 298 267.201C311.2 274.001 324.5 283.701 329.5 287.701Z" fill="#CAC9C6"/>
<path fill-rule="evenodd" clip-rule="evenodd" d="M329.845 287.309C320.171 279.669 309.593 272.59 298.236 266.536L298.141 266.714L297.502 266.658L295.246 292.348L293.571 311.428L291.97 329.658L290.697 344.158L289.291 360.158L287.886 376.158L281.037 454.158L280.998 454.596L281.428 454.69L286.002 455.69L286.472 455.793L286.592 455.327L306.318 379.184L310.296 363.827L314.312 348.327L318.068 333.827L322.601 316.327L327.484 297.477L329.984 287.827L329.529 287.709L329.845 287.309ZM328.94 287.869C319.57 280.493 309.354 273.65 298.409 267.763L296.286 291.945C305.504 292.908 319.561 295.134 326.639 296.755L328.94 287.869ZM296.198 292.941C305.376 293.901 319.357 296.116 326.388 297.723L321.755 315.607C315.184 314.14 304.669 312.239 294.609 311.033L296.198 292.941ZM294.522 312.029C304.522 313.23 314.97 315.118 321.504 316.576L317.22 333.111C312.475 332.087 301.82 330.057 293.01 329.248L294.522 312.029ZM292.922 330.244C301.65 331.046 312.225 333.058 316.969 334.079L313.466 347.602C309.713 346.727 300.924 344.92 291.735 343.765L292.922 330.244ZM291.647 344.762C300.764 345.909 309.483 347.701 313.215 348.571L309.453 363.095C305.96 362.228 298.059 360.542 290.331 359.753L291.647 344.762ZM290.243 360.749C297.902 361.532 305.741 363.204 309.202 364.063L305.469 378.474C302.949 377.972 296.862 376.875 288.924 375.771L290.243 360.749ZM288.837 376.769C296.677 377.86 302.694 378.943 305.217 379.444L285.745 454.61L282.071 453.807L288.837 376.769Z" fill="#757573"/>
<path d="M355 311.201L306.5 420.201H295C305.833 378.701 328 294.201 330 288.201C344.4 299.801 352.667 308.368 355 311.201Z" fill="#CAC9C6"/>
<path fill-rule="evenodd" clip-rule="evenodd" d="M329.813 287.311L329.21 286.829L329.017 287.576L321.633 316.076L317.1 333.576L313.403 347.845L309.328 363.576L305.313 379.076L283.52 463.201H284.553L306.16 379.795C311.289 380.953 318.511 382.987 322.036 384.022L301.046 433.292L301.04 433.304L287.325 463.201H288.425L301.955 433.708L301.955 433.709L301.96 433.696L323.174 383.904L323.176 383.897L329.586 369.404L342.19 340.904L349.487 324.404L355.458 310.904L355.593 310.598L355.362 310.356C351.848 306.675 341.832 296.926 329.813 287.311ZM328.448 369.505L322.437 383.098C318.959 382.075 311.629 380.006 306.411 378.826L310.175 364.296C316.483 365.735 322.624 367.612 328.448 369.505ZM328.854 368.586C323.001 366.682 316.803 364.784 310.426 363.328L314.249 348.567C321.862 350.335 329.69 352.639 335.053 354.571L328.854 368.586ZM335.458 353.654C330.056 351.704 322.169 349.381 314.5 347.599L317.949 334.285C325.678 335.856 334.518 338.584 341.06 340.986L335.458 353.654ZM341.466 340.07C334.899 337.655 326.003 334.905 318.2 333.315L322.478 316.802C332.153 319.122 341.943 322.065 348.36 324.482L341.466 340.07ZM348.765 323.566C342.303 321.128 332.452 318.166 322.729 315.833L329.791 288.575C341.25 297.798 350.791 307.047 354.408 310.806L348.765 323.566Z" fill="#757573"/>
<path d="M297 462.701L352.5 402.701L335.5 395.201C332.667 399.535 327.7 407.401 316.5 424.201C295.7 413.401 272 413.368 262.5 414.701L274 462.701H297Z" fill="#CAC9C6" stroke="#757573"/>
<path d="M352.5 402.701L380 373.201L361 356.201L335.5 395.201L352.5 402.701Z" fill="#CAC9C6" stroke="#757573"/>
<path d="M390 362.201C385 350.201 377.5 339.368 374.5 335.201L361 356.201L380 373.201C380.667 372.535 384.8 367.801 390 362.201Z" fill="#CAC9C6" stroke="#757573"/>
<path d="M339 390.201L316.5 424.201C313 422.5 309.167 420.833 307 420C308.333 416.833 313.3 404.901 322.5 383.701C331.7 386.501 337.333 389.201 339 390.201Z" fill="#CAC9C6" stroke="#757573"/>
<path d="M347.679 376.701L339 390.201C333.5 387.201 327.5 385.201 322.5 383.701L329 369.201C335.4 370.801 344.119 374.868 347.679 376.701Z" fill="#CAC9C6" stroke="#757573"/>
<path d="M356.5 363.201L347.5 376.701C341.9 373.501 332.833 370.368 329 369.201L335.5 354.201C343.9 357.001 353 361.368 356.5 363.201Z" fill="#CAC9C6" stroke="#757573"/>
<path d="M341.5 340.701C350.7 343.901 361.167 348.201 365 350.201L356.5 363.201C348.9 359.201 339.167 355.535 335.5 354.201L341.5 340.701Z" fill="#CAC9C6" stroke="#757573"/>
<path d="M374.5 335.201L365 350.201C353.8 345.401 344.667 341.868 341.5 340.701C344.167 334.701 350.6 319.901 355 310.701C364.2 319.901 371.833 331.035 374.5 335.201Z" fill="#CAC9C6" stroke="#757573"/>
<path d="M390 362.201L457.5 446.201L383.5 462.701H365L312 446.701L390 362.201Z" fill="#E5E2D5"/>
<path d="M390 362.201L457.5 446.201L383.5 462.701H365L312 446.701L390 362.201Z" fill="url(#paint5_linear)"/>
<path d="M390 362.201L457.5 446.201L383.5 462.701H365L312 446.701L390 362.201Z" stroke="#757573"/>
<path d="M297 462.701L352.5 402.701L335.5 395.201C332.667 399.535 327.7 407.401 316.5 424.201C295.7 413.401 272 413.368 262.5 414.701L274 462.701H297Z" fill="#E5E2D5"/>
<path d="M297 462.701L352.5 402.701L335.5 395.201C332.667 399.535 327.7 407.401 316.5 424.201C295.7 413.401 272 413.368 262.5 414.701L274 462.701H297Z" fill="url(#paint6_linear)"/>
<path d="M297 462.701L352.5 402.701L335.5 395.201C332.667 399.535 327.7 407.401 316.5 424.201C295.7 413.401 272 413.368 262.5 414.701L274 462.701H297Z" stroke="#757573"/>
<path d="M297 462.701L380 373L361 356.5C358.167 360.833 327.7 407.401 316.5 424.201C295.7 413.401 272 413.368 262.5 414.701L274 462.701H297Z" fill="#E5E2D5"/>
<path d="M297 462.701L380 373L361 356.5C358.167 360.833 327.7 407.401 316.5 424.201C295.7 413.401 272 413.368 262.5 414.701L274 462.701H297Z" fill="url(#paint7_linear)"/>
<path d="M297 462.701L380 373L361 356.5C358.167 360.833 327.7 407.401 316.5 424.201C295.7 413.401 272 413.368 262.5 414.701L274 462.701H297Z" stroke="#757573"/>
<path d="M297 462.701L390 362.5C388.5 358.5 383.3 347.5 374.5 335.5C371.667 339.833 327.7 407.401 316.5 424.201C295.7 413.401 272 413.368 262.5 414.701L274 462.701H297Z" fill="#E5E2D5"/>
<path d="M297 462.701L390 362.5C388.5 358.5 383.3 347.5 374.5 335.5C371.667 339.833 327.7 407.401 316.5 424.201C295.7 413.401 272 413.368 262.5 414.701L274 462.701H297Z" fill="url(#paint8_linear)"/>
<path d="M297 462.701L390 362.5C388.5 358.5 383.3 347.5 374.5 335.5C371.667 339.833 327.7 407.401 316.5 424.201C295.7 413.401 272 413.368 262.5 414.701L274 462.701H297Z" stroke="#757573"/>
<path d="M221 246.701L262.5 414.701L269 417L273.5 414C269.5 362 261.4 257.501 261 252.701C247.4 247.901 228.667 246.701 221 246.701Z" fill="#E5E2D5"/>
<path d="M221 246.701L262.5 414.701L269 417L273.5 414C269.5 362 261.4 257.501 261 252.701C247.4 247.901 228.667 246.701 221 246.701Z" fill="url(#paint9_linear)"/>
<path d="M221 246.701L262.5 414.701L269 417L273.5 414C269.5 362 261.4 257.501 261 252.701C247.4 247.901 228.667 246.701 221 246.701Z" stroke="#757573"/>
<path fill-rule="evenodd" clip-rule="evenodd" d="M220 246.201H220.639C234.753 246.201 248.338 248.199 261.262 251.718L261 252.683C248.35 249.238 235.068 247.262 221.278 247.202L228.09 274.759L245.449 277.486L262.326 271.232L262.674 272.17L245.674 278.469L245.551 278.514L245.422 278.494L228.35 275.812L232.867 294.086L248.943 296.486L263.82 290.735L264.18 291.667L249.18 297.466L249.057 297.514L248.926 297.494L233.127 295.136L237.362 312.268L251.951 314.982L265.317 309.736L265.683 310.666L252.183 315.965L252.049 316.018L251.909 315.992L237.626 313.334L241.693 329.789L254.459 332.974L266.805 327.741L267.195 328.661L254.695 333.96L254.541 334.026L254.379 333.985L241.965 330.887L245.276 344.283L256.958 346.977L267.811 342.537L268.189 343.463L257.189 347.963L257.042 348.023L256.888 347.987L245.545 345.371L247.822 354.581L249.23 360.275L259.949 362.479L269.306 358.539L269.694 359.461L260.194 363.461L260.051 363.521L259.899 363.49L249.496 361.35L253.063 375.784L262.452 377.975L270.3 374.542L270.7 375.458L262.7 378.958L262.548 379.025L262.386 378.987L253.333 376.873L274.52 462.581L273.549 462.821L252.166 376.321L248.335 360.821L246.851 354.821L244.379 344.821L240.795 330.321L236.469 312.821L231.977 294.651L227.199 275.321L220.153 246.821L220 246.201Z" fill="#757573"/>
<path d="M298 266.701L285 415L279 417L273.5 414C269.5 364.5 261.8 263.801 261 252.201C277.4 257.001 292.5 263.868 298 266.701Z" fill="#E5E2D5"/>
<path d="M298 266.701L285 415L279 417L273.5 414C269.5 364.5 261.8 263.801 261 252.201C277.4 257.001 292.5 263.868 298 266.701Z" fill="url(#paint10_linear)"/>
<path fill-rule="evenodd" clip-rule="evenodd" d="M261.131 251.683C274.222 255.237 286.636 260.352 298.236 266.536L298.141 266.714L298.499 266.745L297.972 272.745L296.246 292.398L294.571 311.469L292.971 329.687L291.693 344.245L290.288 360.245L288.882 376.245L285.475 415.044L285.447 415.37L285.136 415.474L279.159 417.474L278.952 417.543L278.761 417.439L273.261 414.439L273.022 414.308L273.002 414.037L270.148 375.24L270.148 375.238L268.894 359.24L267.639 343.24L266.462 328.24L265.051 310.24L263.561 291.24L262.031 271.74L260.502 252.24L260.991 252.202L261.131 251.683ZM261.552 252.835C274.194 256.326 286.202 261.281 297.45 267.251L297.007 272.293L280.511 275.985L263.001 271.31L261.552 252.835ZM296.916 273.339L280.61 276.988L280.49 277.015L280.372 276.983L263.083 272.367L264.531 290.828L280.513 295.978L295.28 291.964L296.916 273.339ZM295.187 293.025L280.632 296.982L280.488 297.021L280.347 296.976L264.616 291.906L266.022 309.831L280.019 314.479L293.606 311.028L295.187 293.025ZM293.513 312.084L280.124 315.485L279.982 315.521L279.843 315.474L266.107 310.913L267.433 327.831L280.025 331.981L292.007 329.237L293.513 312.084ZM291.915 330.284L280.112 332.987L279.976 333.018L279.844 332.975L267.518 328.912L268.61 342.828L280.017 346.48L290.728 343.803L291.915 330.284ZM290.635 344.857L280.122 347.485L279.984 347.52L279.848 347.476L268.694 343.905L269.864 358.83L279.525 361.982L289.323 359.793L290.635 344.857ZM289.232 360.838L279.61 362.988L279.476 363.018L279.345 362.975L269.949 359.909L271.119 374.826L279.528 377.484L287.919 375.785L289.232 360.838ZM287.828 376.824L279.6 378.49L279.473 378.516L279.35 378.477L271.2 375.9L273.979 413.691L279.049 416.457L284.508 414.63L287.828 376.824Z" fill="#757573"/>
<path d="M329.5 287.701L296 417L290.5 418.5L285 415C289 368.833 297.2 276.001 298 267.201C311.2 274.001 324.5 283.701 329.5 287.701Z" fill="#E5E2D5"/>
<path d="M329.5 287.701L296 417L290.5 418.5L285 415C289 368.833 297.2 276.001 298 267.201C311.2 274.001 324.5 283.701 329.5 287.701Z" fill="url(#paint11_linear)"/>
<path fill-rule="evenodd" clip-rule="evenodd" d="M329.844 287.309C320.171 279.669 309.592 272.59 298.235 266.536L298.141 266.714L297.502 266.658L295.246 292.348L293.57 311.428L291.97 329.658L290.696 344.158L289.291 360.158L287.886 376.158L284.461 415.158L284.436 415.449L284.676 415.614L290.217 419.412L290.424 419.554L290.662 419.473L296.132 417.603L296.387 417.516L296.455 417.255L306.317 379.184L310.296 363.827L314.311 348.327L318.068 333.827L322.601 316.327L327.484 297.477L329.984 287.827L329.529 287.709L329.844 287.309ZM328.94 287.869C319.57 280.493 309.354 273.65 298.409 267.763L296.274 292.07L310.583 297.993L326.606 296.878L328.94 287.869ZM310.535 298.999L326.342 297.899L321.718 315.747L307.586 317.486L294.597 311.173L296.183 293.115L310.309 298.962L310.418 299.007L310.535 298.999ZM307.561 318.496L321.449 316.787L317.184 333.252L304.581 334.984L292.996 329.401L294.503 312.239L307.282 318.45L307.414 318.514L307.561 318.496ZM304.568 335.995L316.912 334.298L313.426 347.757L302.09 349.481L291.721 343.917L292.902 330.466L304.283 335.95L304.419 336.016L304.568 335.995ZM302.075 350.494L313.153 348.81L309.409 363.264L299.586 364.977L290.316 359.919L291.626 345L301.764 350.44L301.911 350.519L302.075 350.494ZM299.586 365.992L309.133 364.327L305.436 378.598L297.08 379.489L288.913 375.888L290.22 361.006L299.261 365.939L299.414 366.022L299.586 365.992ZM297.053 380.497L305.168 379.632L295.554 416.744L290.576 418.446L285.483 414.954L288.821 376.94L296.798 380.457L296.92 380.511L297.053 380.497Z" fill="#757573"/>
<path d="M355 311.201L306.5 420.201L301 421L296 417C307.131 374.385 328.058 294.028 330 288.201C344.4 299.801 352.667 308.368 355 311.201Z" fill="#E5E2D5"/>
<path d="M355 311.201L306.5 420.201L301 421L296 417C307.131 374.385 328.058 294.028 330 288.201C344.4 299.801 352.667 308.368 355 311.201Z" fill="url(#paint12_linear)"/>
<path fill-rule="evenodd" clip-rule="evenodd" d="M329.813 287.311L329.21 286.829L329.017 287.576L321.634 316.076L317.1 333.576L313.404 347.845L309.329 363.576L305.313 379.076L295.517 416.874L295.436 417.188L295.688 417.39L300.688 421.39L300.863 421.53L301.083 421.493L307.083 420.493L307.352 420.448L307.46 420.199L323.174 383.904L323.176 383.9L329.587 369.404L342.191 340.904L349.488 324.404L355.458 310.904L355.593 310.598L355.363 310.356C351.849 306.675 341.832 296.926 329.813 287.311ZM328.352 369.723L322.379 383.229L313.636 383.986L306.369 378.988L310.12 364.508L318.223 369.916L318.356 370.004L318.515 370L328.352 369.723ZM296.566 416.812L306.102 380.018L313.217 384.912L313.365 385.014L313.544 384.998L321.925 384.272L306.65 419.551L301.139 420.47L296.566 416.812ZM318.646 368.996L310.386 363.483L314.187 348.809L323.206 355.403L323.353 355.511L323.534 355.499L334.979 354.737L328.8 368.71L318.646 368.996ZM323.649 354.489L314.457 347.767L317.898 334.485L328.237 340.924L328.354 340.998L328.493 341L340.971 341.19L335.436 353.704L323.649 354.489ZM328.647 340.002L318.16 333.471L322.43 316.989L334.234 324.423L334.353 324.498L334.494 324.5L348.267 324.691L341.41 340.196L328.647 340.002ZM334.648 323.502L322.693 315.973L329.791 288.575C341.25 297.798 350.791 307.047 354.408 310.805L348.707 323.697L334.648 323.502Z" fill="#757573"/>
<path d="M352.5 402.701L380 373.201L361 356.201L335.5 395.201L352.5 402.701Z" stroke="#757573"/>
<path d="M311 424.5L307 420L355 311L365.5 322.5L374.5 335L316.5 424L311 424.5Z" fill="#E5E2D5"/>
<path d="M311 424.5L307 420L355 311L365.5 322.5L374.5 335L316.5 424L311 424.5Z" fill="url(#paint13_linear)"/>
<path d="M339 390.201L316.5 424.5H310.5L307 420C308.333 416.833 313.3 404.901 322.5 383.701L329 390.201H339Z" stroke="#757573"/>
<path d="M347.679 376.701L339 390.201H329L322.5 383.701L329 369.201L336.5 376L347.679 376.701Z" stroke="#757573"/>
<path d="M356.5 363.201L347.5 376.701L336.5 376L329 369.201L335.5 354.201L344 362.5L356.5 363.201Z" stroke="#757573"/>
<path d="M335.5 354.201L341.5 340.701L351 349.5L365 350.201L356.5 363.201L344 362.5L335.5 354.201Z" stroke="#757573"/>
<path d="M374.5 335.201L365 350.201L351 349.5L341.5 340.701C344.167 334.701 350.6 319.901 355 310.701C364.2 319.901 371.833 331.035 374.5 335.201Z" stroke="#757573"/>
<path d="M487 462.701H471L429.542 411.201L401.367 376.201L390.5 362.701C395.279 359.426 403.764 354.821 412.5 351.201C441.547 339.166 488.453 329.633 539.5 344.701L503.017 426.701L487 462.701Z" fill="#E5E2D5"/>
<path d="M487 462.701H471L429.542 411.201L401.367 376.201L390.5 362.701C395.279 359.426 403.764 354.821 412.5 351.201C441.547 339.166 488.453 329.633 539.5 344.701L503.017 426.701L487 462.701Z" fill="url(#paint14_linear)"/>
<path d="M503.017 426.701L539.5 344.701C488.453 329.633 441.547 339.166 412.5 351.201M503.017 426.701L487 462.701H471L429.542 411.201M503.017 426.701L497.5 428.5L492.5 426.754L488 429L483 427.583L479 430L474 428.944L470 431.5L465.5 430.925L462.5 433.701H458L444.488 409.201M412.5 351.201C403.764 354.821 395.279 359.426 390.5 362.701L401.367 376.201M412.5 351.201L421 366.614M444.488 409.201L429.542 411.201M444.488 409.201L421 366.614M429.542 411.201L401.367 376.201M421 366.614L401.367 376.201" stroke="#757573"/>
<path d="M412.5 351.201L458 433.701M436 343.701L465.659 430.701M460.5 338.701L474 428.921M487 336.701L483.072 427.701M513.5 338.701L492.624 426.701" stroke="#757573"/>
<path d="M518 393.701L508 395.5L501 392.39L493 395L484.5 392.533L477 395.5L469 393.881L462.5 397.5L453.993 396.55L448 400.701H440M524 379.201L513 381L504.5 377.515L495 380.5L485.442 377.594L476.5 381.5L466.5 379.216L459 383.5L449 382.304L442 387L432 387.201M532 362.201L519 364L508.5 359.283L497.5 362.5L486 359.221L475.5 363.5L464 361.302L455 366.5L443.5 365.241L435.5 370.5L423.5 371.201" stroke="#757573"/>
<path d="M576.5 461.201L529 453.701L555.5 401.201H559.5L576.5 461.201Z" fill="#E5E2D5"/>
<path d="M576.5 461.201L529 453.701L555.5 401.201H559.5L576.5 461.201Z" fill="url(#paint15_linear)"/>
<path d="M576.5 461.201L529 453.701L555.5 401.201H559.5L576.5 461.201Z" stroke="#757573"/>
<path d="M663 383.702L593.5 469.701H578L575.657 462.701L557.5 400.701L525 462.701H513L484.5 387.201C511.7 385.601 547.333 395.368 557.5 400.701C593.5 380.701 636.167 380.202 663 383.702Z" fill="#E5E2D5"/>
<path d="M663 383.702L593.5 469.701H578L575.657 462.701L557.5 400.701L525 462.701H513L484.5 387.201C511.7 385.601 547.333 395.368 557.5 400.701C593.5 380.701 636.167 380.202 663 383.702Z" fill="url(#paint16_linear)"/>
<path d="M557.5 400.701C593.5 380.701 636.167 380.202 663 383.702L593.5 469.701H578L575.657 462.701L557.5 400.701ZM557.5 400.701C547.333 395.368 511.7 385.601 484.5 387.201L513 462.701H525L557.5 400.701Z" stroke="#757573"/>
<path d="M490.5 402.201L499 404.5L507 401.866L515 404.5L522.5 402.974L530 406.5L538.5 405.478M495.5 416.201L503 418.5L509.5 416.345L515.5 419L521.5 417.39L527.5 420.5L534.5 419.396M501 431.701L507 434L511.5 431.909L516.5 434.5L520.805 432.489L524.5 435L530.5 433.5M612 447.201L606.5 448L604 445.094L599.5 446L596.5 443.579L591.5 445.094L587.5 442.31L584 444L579 441.701M622.5 434L615.5 434.5L612 431.111L605.5 432L601.5 428.912L595 430.5L589.5 427.244L584 428.912L578 426.489M632.5 421.201H625L620 417.401L612 417.5L606.5 414.299L598.5 415.5L591.325 412L584.5 414L577 411.015M642 409.701H633L627 404.436L618 404.5L610.873 401L601.5 402L593.5 398.569M653.5 395.201H643L635.5 389.332M576.5 405.701L560.5 409.701M554 407.701L539 404.201M562.5 417.201L577 416.201M550 414.701L536 413.701" stroke="#757573"/>
<path d="M575.5 392.701L579.329 442.201M595 386.701L587.724 442.872M617 383.201L596.128 443.701M639.5 382.201L603.946 445.201" stroke="#757573"/>
<path d="M541.5 394.701L530 434M523.5 390.701L520.782 432.701M505 387.701L511.5 431.701" stroke="#757573"/>
<path d="M652.501 239.5L662.511 249.51L652.501 259.521" stroke="#CAC9C6" stroke-width="2" stroke-linecap="round"/>
<path d="M51.0111 239.5L41.0007 249.51L51.0111 259.521" stroke="#CAC9C6" stroke-width="2" stroke-linecap="round"/>
</g>
<defs>
<linearGradient id="paint0_linear" x1="156" y1="360.201" x2="156" y2="441.201" gradientUnits="userSpaceOnUse">
<stop stop-color="white"/>
<stop offset="1" stop-color="white" stop-opacity="0"/>
</linearGradient>
<linearGradient id="paint1_linear" x1="123.5" y1="331.131" x2="123.5" y2="452.701" gradientUnits="userSpaceOnUse">
<stop stop-color="white"/>
<stop offset="1" stop-color="white" stop-opacity="0"/>
</linearGradient>
<linearGradient id="paint2_linear" x1="123.5" y1="331.131" x2="123.5" y2="452.701" gradientUnits="userSpaceOnUse">
<stop stop-color="white"/>
<stop offset="1" stop-color="white" stop-opacity="0"/>
</linearGradient>
<linearGradient id="paint3_linear" x1="232.25" y1="345.201" x2="232.25" y2="452.701" gradientUnits="userSpaceOnUse">
<stop stop-color="white"/>
<stop offset="1" stop-color="white" stop-opacity="0"/>
</linearGradient>
<linearGradient id="paint4_linear" x1="216.75" y1="298.701" x2="216.75" y2="462.701" gradientUnits="userSpaceOnUse">
<stop stop-color="white"/>
<stop offset="1" stop-color="white" stop-opacity="0"/>
</linearGradient>
<linearGradient id="paint5_linear" x1="384.75" y1="362.201" x2="384.75" y2="462.701" gradientUnits="userSpaceOnUse">
<stop stop-color="white"/>
<stop offset="1" stop-color="white" stop-opacity="0"/>
</linearGradient>
<linearGradient id="paint6_linear" x1="307.5" y1="395.201" x2="307.5" y2="462.701" gradientUnits="userSpaceOnUse">
<stop stop-color="white"/>
<stop offset="1" stop-color="white" stop-opacity="0"/>
</linearGradient>
<linearGradient id="paint7_linear" x1="321.25" y1="356.5" x2="321.25" y2="462.701" gradientUnits="userSpaceOnUse">
<stop stop-color="white"/>
<stop offset="1" stop-color="white" stop-opacity="0"/>
</linearGradient>
<linearGradient id="paint8_linear" x1="326.25" y1="335.5" x2="326.25" y2="462.701" gradientUnits="userSpaceOnUse">
<stop stop-color="white"/>
<stop offset="1" stop-color="white" stop-opacity="0"/>
</linearGradient>
<linearGradient id="paint9_linear" x1="247.25" y1="246.701" x2="247.25" y2="417" gradientUnits="userSpaceOnUse">
<stop stop-color="white"/>
<stop offset="1" stop-color="white" stop-opacity="0"/>
</linearGradient>
<linearGradient id="paint10_linear" x1="279.5" y1="252.201" x2="279.5" y2="417" gradientUnits="userSpaceOnUse">
<stop stop-color="white"/>
<stop offset="1" stop-color="white" stop-opacity="0"/>
</linearGradient>
<linearGradient id="paint11_linear" x1="307.25" y1="267.201" x2="307.25" y2="418.5" gradientUnits="userSpaceOnUse">
<stop stop-color="white"/>
<stop offset="1" stop-color="white" stop-opacity="0"/>
</linearGradient>
<linearGradient id="paint12_linear" x1="325.5" y1="288.201" x2="325.5" y2="421" gradientUnits="userSpaceOnUse">
<stop stop-color="white"/>
<stop offset="1" stop-color="white" stop-opacity="0"/>
</linearGradient>
<linearGradient id="paint13_linear" x1="340.75" y1="311" x2="340.75" y2="424.5" gradientUnits="userSpaceOnUse">
<stop stop-color="white"/>
<stop offset="1" stop-color="white" stop-opacity="0"/>
</linearGradient>
<linearGradient id="paint14_linear" x1="465" y1="336.959" x2="465" y2="462.701" gradientUnits="userSpaceOnUse">
<stop stop-color="white"/>
<stop offset="1" stop-color="white" stop-opacity="0"/>
</linearGradient>
<linearGradient id="paint15_linear" x1="552.75" y1="401.201" x2="552.75" y2="461.201" gradientUnits="userSpaceOnUse">
<stop stop-color="white"/>
<stop offset="1" stop-color="white" stop-opacity="0"/>
</linearGradient>
<linearGradient id="paint16_linear" x1="573.75" y1="382.042" x2="573.75" y2="469.701" gradientUnits="userSpaceOnUse">
<stop stop-color="white"/>
<stop offset="1" stop-color="white" stop-opacity="0"/>
</linearGradient>
<clipPath id="clip0">
<rect width="703" height="500" fill="white"/>
</clipPath>
</defs>
</svg>
