<?xml version="1.0" encoding="UTF-8" standalone="no"?><!DOCTYPE svg PUBLIC "-//W3C//DTD SVG 1.1//EN" "http://www.w3.org/Graphics/SVG/1.1/DTD/svg11.dtd"><svg width="100%" height="100%" viewBox="0 0 1211 1128" version="1.1" xmlns="http://www.w3.org/2000/svg" xmlns:xlink="http://www.w3.org/1999/xlink" xml:space="preserve" xmlns:serif="http://www.serif.com/" style="fill-rule:evenodd;clip-rule:evenodd;stroke-linejoin:round;stroke-miterlimit:1.41421;"><rect id="wave" x="0" y="0" width="1210.78" height="1127.36" style="fill:none;"/><path d="M358.368,182.692l0,300.146l39.234,-35.158l4.088,-114.915l-43.322,-150.073Z" style="fill:url(#_Linear1);"/><path d="M418.491,1028.47l-54.974,-31.739c0,0 0,-0.476 0,-10.678c0,-12.341 0,-55.97 0,-55.97l65.456,12.233l-10.482,86.154Z" style="fill:url(#_Linear2);"/><path d="M506.115,954.283l-54.974,-31.739c0,0 0,-0.417 0,-10.678c0,-12.341 0,-55.97 0,-55.97l65.457,12.233l-10.483,86.154Z" style="fill:url(#_Linear3);"/><path d="M1084.02,726.707l0,-550.268l43.322,25.013l0,550.267" style="fill:url(#_Linear4);"/><path d="M769.93,595.393l0,-50.024l314.087,-181.339l43.322,25.013l-357.409,206.35Z" style="fill:url(#_Linear5);"/><path d="M821.524,723.23l-61.315,-35.4l22.698,-37.399l45.101,-21.507l-6.484,94.306Z" style="fill:url(#_Linear6);"/><path d="M907.322,671.194l-61.315,-35.4l22.698,-37.399l45.101,-21.507l-6.484,94.306Z" style="fill:#94c7c5;"/><path d="M993.649,647.982l-61.315,-35.4l22.698,-37.399l45.101,-21.507l-6.484,94.306Z" style="fill:#94c7c5;"/><path d="M879.589,439.617l0,44.002c0,0 -0.74,12.079 9.473,17.976c21.175,12.225 43.209,0.065 43.209,0.065l43.435,-25.078c0,0 9.247,-4.618 9.247,-19.673c0,-21.697 0,-46.271 0,-43.947" style="fill:url(#_Linear7);"/><path d="M889.062,426.558c0,0 -21.314,12.707 0,25.012c21.313,12.306 43.322,0 43.322,0l43.322,-25.012c0,0 20.805,-13 0,-25.012c-20.805,-12.012 -43.322,0 -43.322,0l-43.322,25.012Z" style="fill:url(#_Linear8);"/><path d="M564.149,614.152l-43.322,-25.012l173.289,-100.049l43.322,25.012l-173.289,100.049Z" style="fill:#ecf5bd;"/><path d="M726.608,895.539l-43.323,-25.013l0,-193.844l86.645,0l0,193.844l-43.322,25.013Z" style="fill:url(#_Linear9);"/><path d="M564.149,614.152l-43.322,-25.012l0,175.085l43.322,25.012l0,-175.085Z" style="fill:#94c7c5;"/><path d="M331.751,1053.5l-86.519,-50.12l35.434,-25.461l54.596,-26.518l12.154,17.995l-15.665,84.104Z" style="fill:url(#_Linear10);"/><path d="M331.751,1053.5l-86.519,-50.12l35.434,-25.461l54.596,-26.518l12.154,17.995l-15.665,84.104Z" style="fill:url(#_Linear11);"/><path d="M283.446,988.461l-87.537,50.539l-0.125,0.072c-21.438,12.279 -43.197,-0.072 -43.197,-0.072l-63.938,-36.915c0,0 -1.339,-0.415 -22.706,-12.751c-18.966,-10.95 -20.762,-33.079 -20.926,-37.916l-0.016,-0.018l0.005,-0.358c-0.008,-0.372 -0.005,-0.571 -0.005,-0.571l0.013,0.008l0.245,-17.955l497.229,-138.593l0,120.049c0,0 0.812,24.502 -21.661,37.477c-22.473,12.975 -21.661,-12.506 -21.661,-12.506l0,-25.012c0,0 -0.15,-24.926 -21.662,-12.506c-21.511,12.419 -21.661,37.518 -21.661,37.518l0,50.024c0,0 -0.11,25.076 -21.661,37.518c-21.551,12.443 -21.661,-12.506 -21.661,-12.506l0,-50.024c0,0 0.069,-25.052 -21.661,-12.506c-21.73,12.546 -21.661,37.518 -21.661,37.518l0,12.865l-0.292,12.338c0,0 -0.525,25.315 -21.661,37.518c-21.136,12.203 -21.661,-12.506 -21.661,-12.506l0.291,-12.338l0,-25.122c-0.01,-2.214 -0.682,-37.014 -32.491,-18.649c-3.739,2.159 -7.036,3.935 -9.939,5.38Z" style="fill:url(#_Linear12);"/><path d="M533.914,589.823l-147.933,-85.409c0,0 -10.383,-6.511 -26.389,2.73c-20.156,11.637 -21.661,37.518 -21.661,37.518l0,137.567l86.644,50.024l100.069,-70.281l9.27,-72.149Z" style="fill:url(#_Linear13);"/><path d="M136.102,873.716l254.352,-147.244c0,0 22.542,-11.997 43.728,0.235l43.322,25.012c0.034,0.019 50.087,28.889 54.153,31.265c10.051,5.871 18.544,14.159 0,24.865c-22.095,12.757 -27.951,16.137 -27.951,16.137l-69.799,39.981l-109.023,62.945l-128.512,74.197c-21.081,12.171 -43.785,0.266 -43.785,0.266c0,0 -77.181,-44.56 -97.475,-56.277c-22.48,-12.979 0.462,-25.279 0.462,-25.279l78.744,-45.463c0.595,-0.214 1.19,-0.427 1.784,-0.64Z" style="fill:url(#_Linear14);"/><path d="M446.007,640.532l-147.933,-85.41c0,0 -10.383,-6.511 -26.389,2.73c-20.155,11.637 -21.661,37.518 -21.661,37.518l0,137.567l86.645,50.024l108.306,-62.53l1.032,-79.899Z" style="fill:url(#_Linear15);"/><path d="M195.871,864.251c0,0 -21.401,12.656 -43.322,0c-21.921,-12.656 -97.475,-56.278 -97.475,-56.278c0,0 -22.083,-12.262 0,-25.012c22.082,-12.749 108.306,-62.53 108.306,-62.53c0,0 21.661,-11.857 21.661,-37.518c0,-25.662 0,-50.025 0,-50.025c0,0 0.65,-25.387 21.661,-37.518c17.314,-9.996 29.125,-4.309 29.125,-4.309l124.152,72.908l-5.089,108.472l-159.019,91.81Z" style="fill:url(#_Linear16);"/><path d="M890.424,295.8l0,44.002c0,0 -0.74,12.079 9.473,17.975c21.175,12.226 43.209,0.066 43.209,0.066l43.436,-25.078c0,0 9.246,-4.618 9.246,-19.673c0,-21.697 0,-46.271 0,-43.947" style="fill:url(#_Linear17);"/><path d="M769.93,195.199l0,250.121l-216.664,-125.091l216.664,-125.03Z" style="fill:url(#_Linear18);"/><path d="M844.372,356.625c0,0 -1.002,40.046 -1.333,43.362c-0.303,3.04 0.717,15.216 -8.126,20.321c-21.524,12.427 -43.322,25.012 -43.322,25.012l-43.322,-25.012l86.644,-62.531l9.459,-1.152Z" style="fill:url(#_Linear19);"/><path d="M564.149,564.128l86.645,-50.025l10.83,6.253l43.323,-25.012l-140.798,-81.289l0,150.073Z" style="fill:url(#_Linear20);"/><path d="M222.881,540.413c-5.149,-4.328 -5.31,-13.804 -5.31,-13.804l0,-62.53l43.322,25.012l0,27.908l27.385,6.306l-20.239,43.18c-1.031,-0.368 -44.375,-25.414 -45.158,-26.072l0,0l0,0Z" style="fill:url(#_Linear21);"/><path d="M396.17,465.694c-5.149,-4.328 -5.31,-13.803 -5.31,-13.803l0,-62.531l43.322,25.012l0,27.908l27.385,6.306l-20.238,43.181c-1.031,-0.369 -44.376,-25.414 -45.159,-26.073l0,0l0,0Z" style="fill:url(#_Linear22);"/><path d="M309.419,540.413c-5.148,-4.328 -5.31,-13.804 -5.31,-13.804l0,-62.53l36.576,-21.056l17.683,64.827l16.449,15.455l-20.239,43.18c-1.031,-0.368 -44.375,-25.414 -45.158,-26.072l-0.001,0l0,0Z" style="fill:url(#_Linear23);"/><path d="M867.405,539.116l-43.322,25.012l0,-50.025l43.322,-25.012l0,50.025Z" style="fill:url(#_Linear24);"/><path d="M899.897,282.741c0,0 -21.314,12.707 0,25.012c21.313,12.305 43.322,0 43.322,0l43.323,-25.012c0,0 20.805,-13 0,-25.012c-20.806,-12.012 -43.323,0 -43.323,0l-43.322,25.012Z" style="fill:url(#_Linear25);"/><path d="M864.082,723.703l0,44.003c0,0 -0.74,12.079 9.472,17.975c21.176,12.226 43.21,0.065 43.21,0.065l43.435,-25.077c0,0 9.247,-4.618 9.247,-19.673c0,-21.697 0,-46.272 0,-43.948" style="fill:url(#_Linear26);"/><path d="M873.554,710.645c0,0 -21.313,12.707 0,25.012c21.314,12.305 43.323,0 43.323,0l43.322,-25.012c0,0 20.805,-13 0,-25.012c-20.805,-12.012 -43.322,0 -43.322,0l-43.323,25.012Z" style="fill:url(#_Linear27);"/><path d="M639.963,820.502l-43.322,12.506l0,-62.53l43.322,-25.012l0,75.036Z" style="fill:url(#_Linear28);"/><path d="M638.611,871.307l1.352,225.394l43.322,-25.012l0,-226.175l-44.674,25.793Z" style="fill:url(#_Linear29);"/><path d="M813.283,645.399l-21.692,12.524c-21.195,12.238 -21.661,37.496 -21.661,37.518l0,193.857l-43.322,6.241l0,-150.073c0,0 0,0.989 0,-25.012c0,-23.25 -17.319,-14.921 -20.985,-12.897l-22.338,12.897l0,118.044l-43.322,-17.996l0,-75.036l-75.814,43.771l0,-175.085l173.289,-100.049l32.492,18.759l0,62.531l357.409,-206.35l0,-137.567l-47.595,27.479c0,0 -22.034,12.16 -43.21,-0.065c-10.212,-5.896 -9.472,-17.975 -9.472,-17.975l0,-44.003l100.277,-25.685l0,-14.787l31.196,-0.965l0,535.658c0.002,-0.044 0.005,-0.088 0.006,-0.131c0.004,-0.827 0.005,-0.742 0.005,-0.214c0,0.07 -0.002,0.142 -0.005,0.214l-0.001,0.277l-0.005,1.158l0,57.293c0,0 0.688,12.942 -8.816,19.068c-0.449,0.303 -0.721,0.441 -0.724,0.442l-21.656,12.503l0,0l-119.136,68.783c0,0 -22.034,12.161 -43.21,-0.065c-10.212,-5.896 -9.472,-17.975 -9.472,-17.975l0,-44.003l171.818,-56.764l0,-262.628c0,-25.065 -21.661,-12.506 -21.661,-12.506l0,0l-32.461,18.742c0,0 -0.039,0.022 -21.661,12.506c-21.623,12.484 -21.662,37.518 -21.662,37.518l0,62.53c0,0 -0.034,25.032 -21.661,37.518c-21.627,12.487 -21.661,-12.506 -21.661,-12.506l0,-37.518c0,0 0.343,-25.21 -21.661,-12.506c-22.004,12.704 -21.661,37.518 -21.661,37.518l0,10.738c0,0 -0.373,25.228 -21.661,37.518c-21.288,12.291 -21.662,-12.506 -21.662,-12.506l0,-23.244c0,0 -0.705,-24.605 -21.661,-12.506c-20.956,12.099 -21.661,37.519 -21.661,37.519l0,25.012c0,0 -0.738,25.438 -21.661,37.518c-20.923,12.08 -21.661,-12.506 -21.661,-12.506l0,-62.531Z" style="fill:url(#_Linear30);"/><path d="M868.763,583.439l0,44.003c0,0 -0.74,12.079 9.473,17.975c21.175,12.226 43.209,0.065 43.209,0.065l43.435,-25.077c0,0 9.247,-4.618 9.247,-19.674c0,-21.696 0,-46.271 0,-43.947" style="fill:url(#_Linear31);"/><path d="M878.236,570.381c0,0 -21.314,12.707 0,25.012c21.313,12.305 43.322,0 43.322,0l43.322,-25.012c0,0 20.806,-13 0,-25.012c-20.805,-12.012 -43.322,0 -43.322,0l-43.322,25.012Z" style="fill:url(#_Linear32);"/><path d="M694.116,288.994l43.322,25.012l-43.322,25.012l0,-50.024Z" style="fill:url(#_Linear33);"/><path d="M737.438,263.982l0,50.024l-43.322,-25.012l43.322,-25.012Z" style="fill:url(#_Linear34);"/><path d="M694.792,588.75l43.322,25.012l-43.322,25.012l0,-50.024Z" style="fill:url(#_Linear35);"/><path d="M596.641,645.417l43.322,25.012l-43.322,25.012l0,-50.024Z" style="fill:url(#_Linear36);"/><path d="M738.114,563.737l0,50.025l-43.322,-25.012l43.322,-25.013Z" style="fill:url(#_Linear37);"/><path d="M867.405,489.091l0,50.025l-43.322,-25.013l43.322,-25.012Z" style="fill:#94c7c5;"/><path d="M639.963,620.405l0,50.024l-43.322,-25.012l43.322,-25.012Z" style="fill:url(#_Linear38);"/><path d="M168.566,961.041l0,-50.024l43.322,25.012l-43.322,25.012Z" style="fill:url(#_Linear39);"/><path d="M168.566,911.017l-43.322,25.012l43.322,25.012l0,-50.024Z" style="fill:url(#_Linear40);"/><path d="M255.211,911.017l0,-50.024l43.322,25.012l-43.322,25.012Z" style="fill:url(#_Linear41);"/><path d="M255.211,860.993l-43.323,25.012l43.323,25.012l0,-50.024Z" style="fill:url(#_Linear42);"/><path d="M428.5,760.944l-129.967,75.037l43.322,25.012l87.118,-50.298l-0.473,-49.751Z" style="fill:url(#_Linear43);"/><path d="M428.5,760.944l-129.967,75.037l43.322,25.012l87.118,-50.298l-0.473,-49.751Z" style="fill:url(#_Linear44);"/><path d="M428.5,810.969l0,-50.025l43.322,25.012l-43.322,25.013Z" style="fill:url(#_Linear45);"/><path d="M964.88,795.49c0,0 -21.869,12.386 0,25.012c21.87,12.627 43.323,0 43.323,0l119.136,-68.783l-43.322,-25.012l-119.137,68.783Z" style="fill:url(#_Linear46);"/><path d="M1076.98,180.501l0,0l28.697,-16.568c0,0 21.87,-12.385 43.322,0c21.453,12.386 0,25.013 0,25.013l-30.796,17.78l0,0l-38.538,22.25c0,0 -21.453,12.626 -43.322,0c-21.87,-12.627 0,-25.012 0,-25.012l40.637,-23.463Z" style="fill:url(#_Linear47);"/><path d="M380.014,345.262c-0.655,-0.375 -21.563,-12.552 -21.646,-37.361l0,-0.148l0,175.085l-43.322,-25.012l-10.831,-6.253c0,0 -21.661,-12.162 -21.661,-25.012c0,-12.851 1.422,-356.279 1.422,-356.279l0,-25.836l96.053,38.198l0,143.018l127.414,105.629l316.64,182.812l0,50.025l-162.459,-93.796l0,50.024l-43.322,-25.012l0,-50.024l-54.153,-31.265l0,150.073l-43.322,-25.012l0,-79.772c0,-27.636 -15.164,-40.042 -22.667,-44.709l-118.131,-69.364l-0.015,-0.009Z" style="fill:url(#_Linear48);"/><path d="M217.571,464.079l43.322,25.012l259.934,-150.073l303.256,175.085l43.322,-25.012l-75.814,-43.771c0,0 -43.652,-24.822 0,-50.024c0.182,-0.106 33.079,-19.098 41.418,-23.913c1.211,-0.699 1.904,-1.099 1.904,-1.099c0,0 21.649,-12.514 0,-25.013c0.246,0.142 -21.341,-12.691 -43.322,0c0,-0.84 -86.644,50.025 -86.644,50.025l-140.798,-81.29l205.781,-118.807l-43.322,-25.013l-205.781,118.808l-75.814,-43.771c0,0 -43.323,-22.002 -43.323,-75.037c0,-49.708 0,-100.048 0,-100.048l-43.322,-25.012c0,0 -45.84,-5.685 -43.322,25.012c-0.041,0.023 43.322,25.012 43.322,25.012l0,100.049c0,0 -2.954,48.318 43.322,75.036c42.707,24.657 75.814,43.771 75.814,43.771l-15.956,9.213l-243.977,140.86Z" style="fill:url(#_Linear49);"/><path d="M401.69,70.138l-64.983,-37.518c0,0 -22.152,-12.223 -43.322,0c-21.17,12.222 0,25.012 0,25.012l64.983,37.518l43.322,-25.012Z" style="fill:url(#_Linear50);"/><path d="M260.893,489.091l0,62.531c0,0 0.738,24.586 21.661,12.506c20.923,-12.08 21.661,-37.519 21.661,-37.519l0,-25.012c0,0 0.705,-25.419 21.661,-37.518c20.956,-12.099 21.661,12.506 21.661,12.506l0,75.037c0,0 0.374,24.796 21.662,12.506c21.288,-12.291 21.661,-37.519 21.661,-37.519l0,-62.53c0,0 -0.343,-24.814 21.661,-37.518c22.004,-12.704 21.661,12.506 21.661,12.506l0,37.518c0,0 0.034,24.993 21.661,12.506c21.627,-12.486 21.661,-37.518 21.661,-37.518l0,-62.53c0,0 0.039,-25.035 21.662,-37.519c21.623,-12.484 21.661,-12.506 21.661,-12.506l-259.934,150.073Z" style="fill:url(#_Linear51);"/><path d="M488.374,695.374l-209.06,120.701c0,0 0.038,-0.022 21.661,-12.506c21.623,-12.484 21.661,-37.518 21.661,-37.518l0,-62.53c0,0 0.034,-25.032 21.661,-37.519c21.627,-12.486 21.661,12.506 21.661,12.506l0,37.519c0,0 -0.343,25.21 21.661,12.506c22.005,-12.704 21.662,-37.519 21.662,-37.519l0,-10.737c0,0 0.373,-25.228 21.661,-37.518c21.288,-12.291 21.661,12.506 21.661,12.506l0,23.243c0,0 0.705,24.605 21.661,12.506c20.956,-12.098 21.661,-37.518 21.661,-37.518l0,-25.012c0,0 0.738,-25.438 21.661,-37.518c20.923,-12.08 21.662,12.506 21.662,12.506l0,20.985l-0.259,0.665l0.259,-0.335l0,16.248c0,0 2.894,23.341 -18.421,35.647c-21.315,12.306 -32.492,18.759 -32.492,18.759l0.039,-0.067Z" style="fill:url(#_Linear52);"/><path d="M857.933,864.038l0,44.003c0,0 -0.74,12.079 9.472,17.975c21.176,12.226 43.21,0.065 43.21,0.065l43.435,-25.077c0,0 9.247,-4.618 9.247,-19.673c0,-21.697 0,-46.272 0,-43.948" style="fill:url(#_Linear53);"/><path d="M867.405,850.98c0,0 -21.313,12.707 0,25.012c21.314,12.305 43.322,0 43.322,0l43.323,-25.012c0,0 20.805,-13 0,-25.012c-20.806,-12.012 -43.323,0 -43.323,0l-43.322,25.012Z" style="fill:url(#_Linear54);"/><path d="M596.641,833.008l211.196,98.492l58.676,-35.778c0,0 0,30.113 0,44.634c0,14.521 -9.938,19.282 -9.938,19.282c0,0 -21.546,12.44 -43.323,25.013c-21.776,12.572 -43.322,0 -43.322,0l-129.967,-76.534l0,188.584l-43.322,-25.012l0,-238.681l0,0Z" style="fill:url(#_Linear55);"/><path d="M639.963,807.996l-43.322,25.012l173.289,100.049c0,0 22.26,12.16 43.322,0c21.063,-12.161 21.661,-12.506 21.661,-12.506l21.662,-12.506c0,0 22.361,-12.102 0,-25.012c-22.362,-12.911 -43.323,0 -43.323,0c0,0 -23.346,11.533 -43.322,0c-19.976,-11.534 -129.967,-75.037 -129.967,-75.037Z" style="fill:url(#_Linear56);"/><defs><linearGradient id="_Linear1" x1="0" y1="0" x2="1" y2="0" gradientUnits="userSpaceOnUse" gradientTransform="matrix(10.8306,-81.2895,81.2895,10.8306,369.199,401.549)"><stop offset="0" style="stop-color:#f6e29f;stop-opacity:1"/><stop offset="0.56" style="stop-color:#f1d4af;stop-opacity:1"/><stop offset="1" style="stop-color:#df9fee;stop-opacity:1"/></linearGradient><linearGradient id="_Linear2" x1="0" y1="0" x2="1" y2="0" gradientUnits="userSpaceOnUse" gradientTransform="matrix(-37.6402,-115.835,115.835,-37.6402,363.517,1080.16)"><stop offset="0" style="stop-color:#94c7c5;stop-opacity:1"/><stop offset="0.53" style="stop-color:#a0bbbb;stop-opacity:1"/><stop offset="1" style="stop-color:#c7949a;stop-opacity:1"/></linearGradient><linearGradient id="_Linear3" x1="0" y1="0" x2="1" y2="0" gradientUnits="userSpaceOnUse" gradientTransform="matrix(-32.4917,-81.2895,81.2895,-32.4917,358.368,1033.11)"><stop offset="0" style="stop-color:#94c7c5;stop-opacity:1"/><stop offset="0.53" style="stop-color:#a0bbbb;stop-opacity:1"/><stop offset="1" style="stop-color:#c7949a;stop-opacity:1"/></linearGradient><linearGradient id="_Linear4" x1="0" y1="0" x2="1" y2="0" gradientUnits="userSpaceOnUse" gradientTransform="matrix(-75.8188,-6.25576,6.25576,-75.8188,1149,351.524)"><stop offset="0" style="stop-color:#94c7c5;stop-opacity:1"/><stop offset="1" style="stop-color:#dedfb6;stop-opacity:1"/></linearGradient><linearGradient id="_Linear5" x1="0" y1="0" x2="1" y2="0" gradientUnits="userSpaceOnUse" gradientTransform="matrix(270.764,143.82,-143.82,270.764,834.913,370.284)"><stop offset="0" style="stop-color:#c0bdf5;stop-opacity:1"/><stop offset="0.21" style="stop-color:#f1e4a1;stop-opacity:1"/><stop offset="0.39" style="stop-color:#f0e8a8;stop-opacity:1"/><stop offset="0.58" style="stop-color:#ecf5bd;stop-opacity:1"/><stop offset="0.78" style="stop-color:#b9dcce;stop-opacity:1"/><stop offset="1" style="stop-color:#2b99fe;stop-opacity:1"/></linearGradient><linearGradient id="_Linear6" x1="0" y1="0" x2="1" y2="0" gradientUnits="userSpaceOnUse" gradientTransform="matrix(2.89771,-110.882,110.882,2.89771,794.109,721.907)"><stop offset="0" style="stop-color:#94c7c5;stop-opacity:1"/><stop offset="1" style="stop-color:#b13246;stop-opacity:1"/></linearGradient><linearGradient id="_Linear7" x1="0" y1="0" x2="1" y2="0" gradientUnits="userSpaceOnUse" gradientTransform="matrix(-16.3695,691.032,-691.032,-16.3695,948.634,248.349)"><stop offset="0" style="stop-color:#f3c3b7;stop-opacity:1"/><stop offset="0.23" style="stop-color:#d195f5;stop-opacity:1"/><stop offset="0.4" style="stop-color:#9af9db;stop-opacity:1"/><stop offset="0.62" style="stop-color:#5dcbf8;stop-opacity:1"/><stop offset="0.83" style="stop-color:#eb92bc;stop-opacity:1"/><stop offset="1" style="stop-color:#eda;stop-opacity:1"/></linearGradient><linearGradient id="_Linear8" x1="0" y1="0" x2="1" y2="0" gradientUnits="userSpaceOnUse" gradientTransform="matrix(-54.1529,519.002,-519.002,-54.1529,943.219,245.223)"><stop offset="0" style="stop-color:#f3e7a7;stop-opacity:1"/><stop offset="0.26" style="stop-color:#eded87;stop-opacity:1"/><stop offset="0.55" style="stop-color:#edd992;stop-opacity:1"/><stop offset="0.8" style="stop-color:#c2f5bd;stop-opacity:1"/><stop offset="1" style="stop-color:#ecf5bd;stop-opacity:1"/></linearGradient><linearGradient id="_Linear9" x1="0" y1="0" x2="1" y2="0" gradientUnits="userSpaceOnUse" gradientTransform="matrix(0.865613,-175.585,175.585,0.865613,769.93,820.502)"><stop offset="0" style="stop-color:#94c7c5;stop-opacity:1"/><stop offset="0.46" style="stop-color:#9c9ca1;stop-opacity:1"/><stop offset="1" style="stop-color:#b13246;stop-opacity:1"/></linearGradient><linearGradient id="_Linear10" x1="0" y1="0" x2="1" y2="0" gradientUnits="userSpaceOnUse" gradientTransform="matrix(-75.814,-181.338,181.338,-75.814,407.26,1141.55)"><stop offset="0" style="stop-color:#94c7c5;stop-opacity:1"/><stop offset="0.53" style="stop-color:#a0bbbb;stop-opacity:1"/><stop offset="1" style="stop-color:#c7949a;stop-opacity:1"/></linearGradient><linearGradient id="_Linear11" x1="0" y1="0" x2="1" y2="0" gradientUnits="userSpaceOnUse" gradientTransform="matrix(-75.814,-181.338,181.338,-75.814,407.26,1141.55)"><stop offset="0" style="stop-color:#94c7c5;stop-opacity:1"/><stop offset="0.53" style="stop-color:#a0bbbb;stop-opacity:1"/><stop offset="1" style="stop-color:#c7949a;stop-opacity:1"/></linearGradient><linearGradient id="_Linear12" x1="0" y1="0" x2="1" y2="0" gradientUnits="userSpaceOnUse" gradientTransform="matrix(519.868,-12.5061,12.5061,519.868,33.4501,1070.62)"><stop offset="0" style="stop-color:#94c7c5;stop-opacity:1"/><stop offset="0.14" style="stop-color:#afc6c1;stop-opacity:1"/><stop offset="0.3" style="stop-color:#f3c3b7;stop-opacity:1"/><stop offset="0.46" style="stop-color:#ebbfc5;stop-opacity:1"/><stop offset="0.67" style="stop-color:#dab7e6;stop-opacity:1"/><stop offset="1" style="stop-color:#f3c3b7;stop-opacity:1"/></linearGradient><linearGradient id="_Linear13" x1="0" y1="0" x2="1" y2="0" gradientUnits="userSpaceOnUse" gradientTransform="matrix(46.7169,-76.9963,76.9963,46.7169,412.521,626.658)"><stop offset="0" style="stop-color:#9ac3c5;stop-opacity:1"/><stop offset="1" style="stop-color:#7f9bba;stop-opacity:1"/></linearGradient><linearGradient id="_Linear14" x1="0" y1="0" x2="1" y2="0" gradientUnits="userSpaceOnUse" gradientTransform="matrix(378.678,-218.63,218.63,378.678,109.667,976.596)"><stop offset="0" style="stop-color:#ecf5bd;stop-opacity:1"/><stop offset="0.27" style="stop-color:#ededb9;stop-opacity:1"/><stop offset="0.55" style="stop-color:#f1d4ad;stop-opacity:1"/><stop offset="1" style="stop-color:#ecf5bd;stop-opacity:1"/></linearGradient><linearGradient id="_Linear15" x1="0" y1="0" x2="1" y2="0" gradientUnits="userSpaceOnUse" gradientTransform="matrix(46.4498,-89.8804,89.8804,46.4498,298.761,673.533)"><stop offset="0" style="stop-color:#9ac3c5;stop-opacity:1"/><stop offset="0.62" style="stop-color:#96bdc3;stop-opacity:1"/><stop offset="0.82" style="stop-color:#8cafbf;stop-opacity:1"/><stop offset="1" style="stop-color:#82a0bb;stop-opacity:1"/></linearGradient><linearGradient id="_Linear16" x1="0" y1="0" x2="1" y2="0" gradientUnits="userSpaceOnUse" gradientTransform="matrix(150.157,-249.272,249.272,150.157,118.201,859.114)"><stop offset="0" style="stop-color:#ecf5bd;stop-opacity:1"/><stop offset="0.31" style="stop-color:#dcecbe;stop-opacity:1"/><stop offset="0.56" style="stop-color:#9eccc4;stop-opacity:1"/><stop offset="0.8" style="stop-color:#97c1c2;stop-opacity:1"/><stop offset="1" style="stop-color:#7f9bba;stop-opacity:1"/></linearGradient><linearGradient id="_Linear17" x1="0" y1="0" x2="1" y2="0" gradientUnits="userSpaceOnUse" gradientTransform="matrix(-16.3695,691.032,-691.032,-16.3695,948.634,248.349)"><stop offset="0" style="stop-color:#f3c3b7;stop-opacity:1"/><stop offset="0.1" style="stop-color:#edbbc2;stop-opacity:1"/><stop offset="0.14" style="stop-color:#e0a8db;stop-opacity:1"/><stop offset="0.17" style="stop-color:#d295f5;stop-opacity:1"/><stop offset="0.4" style="stop-color:#f6957d;stop-opacity:1"/><stop offset="0.62" style="stop-color:#5dcbf8;stop-opacity:1"/><stop offset="0.83" style="stop-color:#eb92bc;stop-opacity:1"/><stop offset="1" style="stop-color:#eda;stop-opacity:1"/></linearGradient><linearGradient id="_Linear18" x1="0" y1="0" x2="1" y2="0" gradientUnits="userSpaceOnUse" gradientTransform="matrix(-205.728,368.96,-368.96,-205.728,769.877,195.168)"><stop offset="0" style="stop-color:#f5cfd1;stop-opacity:1"/><stop offset="0.57" style="stop-color:#e89da8;stop-opacity:1"/><stop offset="1" style="stop-color:#f3c3b7;stop-opacity:1"/></linearGradient><linearGradient id="_Linear19" x1="0" y1="0" x2="1" y2="0" gradientUnits="userSpaceOnUse" gradientTransform="matrix(64.9835,-75.0364,75.0364,64.9835,802.422,451.573)"><stop offset="0" style="stop-color:#f3c3b7;stop-opacity:1"/><stop offset="1" style="stop-color:#d0bbf1;stop-opacity:1"/></linearGradient><linearGradient id="_Linear20" x1="0" y1="0" x2="1" y2="0" gradientUnits="userSpaceOnUse" gradientTransform="matrix(-205.728,368.96,-368.96,-205.728,769.877,195.168)"><stop offset="0" style="stop-color:#f5cfd1;stop-opacity:1"/><stop offset="0.57" style="stop-color:#e89da8;stop-opacity:1"/><stop offset="1" style="stop-color:#f3c3b7;stop-opacity:1"/></linearGradient><linearGradient id="_Linear21" x1="0" y1="0" x2="1" y2="0" gradientUnits="userSpaceOnUse" gradientTransform="matrix(313.606,1.31807,-1.31807,313.606,180.77,447.807)"><stop offset="0" style="stop-color:#87c7c4;stop-opacity:1"/><stop offset="0.13" style="stop-color:#91c1ca;stop-opacity:1"/><stop offset="0.26" style="stop-color:#aeaedd;stop-opacity:1"/><stop offset="0.35" style="stop-color:#abafda;stop-opacity:1"/><stop offset="0.39" style="stop-color:#a5b2d4;stop-opacity:1"/><stop offset="0.42" style="stop-color:#9fb5ce;stop-opacity:1"/><stop offset="0.46" style="stop-color:#9ab8c9;stop-opacity:1"/><stop offset="0.51" style="stop-color:#95bac4;stop-opacity:1"/><stop offset="0.68" style="stop-color:#93bbc2;stop-opacity:1"/><stop offset="0.74" style="stop-color:#9eb6cd;stop-opacity:1"/><stop offset="0.82" style="stop-color:#a9b1d8;stop-opacity:1"/><stop offset="1" style="stop-color:#aeaedd;stop-opacity:1"/></linearGradient><linearGradient id="_Linear22" x1="0" y1="0" x2="1" y2="0" gradientUnits="userSpaceOnUse" gradientTransform="matrix(313.606,1.31807,-1.31807,313.606,180.77,447.807)"><stop offset="0" style="stop-color:#70b5b2;stop-opacity:1"/><stop offset="0.13" style="stop-color:#80b3bd;stop-opacity:1"/><stop offset="0.26" style="stop-color:#aeaedd;stop-opacity:1"/><stop offset="0.36" style="stop-color:#abafda;stop-opacity:1"/><stop offset="0.4" style="stop-color:#a5b2d4;stop-opacity:1"/><stop offset="0.43" style="stop-color:#9fb5ce;stop-opacity:1"/><stop offset="0.48" style="stop-color:#9ab8c9;stop-opacity:1"/><stop offset="0.54" style="stop-color:#95bac4;stop-opacity:1"/><stop offset="0.73" style="stop-color:#93bbc2;stop-opacity:1"/><stop offset="0.86" style="stop-color:#a8b1d7;stop-opacity:1"/><stop offset="1" style="stop-color:#aeaedd;stop-opacity:1"/></linearGradient><linearGradient id="_Linear23" x1="0" y1="0" x2="1" y2="0" gradientUnits="userSpaceOnUse" gradientTransform="matrix(313.606,1.31807,-1.31807,313.606,180.77,447.807)"><stop offset="0" style="stop-color:#97c4c7;stop-opacity:1"/><stop offset="0.12" style="stop-color:#9ebdce;stop-opacity:1"/><stop offset="0.26" style="stop-color:#aeaedd;stop-opacity:1"/><stop offset="0.29" style="stop-color:#a4b7d4;stop-opacity:1"/><stop offset="0.33" style="stop-color:#9bc0cb;stop-opacity:1"/><stop offset="0.43" style="stop-color:#97c4c7;stop-opacity:1"/><stop offset="0.51" style="stop-color:#97b4d3;stop-opacity:1"/><stop offset="0.64" style="stop-color:#96b5d0;stop-opacity:1"/><stop offset="0.68" style="stop-color:#95b8c9;stop-opacity:1"/><stop offset="0.72" style="stop-color:#93bbc2;stop-opacity:1"/><stop offset="0.77" style="stop-color:#9fb5ce;stop-opacity:1"/><stop offset="0.83" style="stop-color:#aab0d9;stop-opacity:1"/><stop offset="1" style="stop-color:#aeaedd;stop-opacity:1"/></linearGradient><linearGradient id="_Linear24" x1="0" y1="0" x2="1" y2="0" gradientUnits="userSpaceOnUse" gradientTransform="matrix(-64.9835,-37.5182,37.5182,-64.9835,867.405,551.622)"><stop offset="0" style="stop-color:#ecf4bc;stop-opacity:1"/><stop offset="0.5" style="stop-color:#ddd5c8;stop-opacity:1"/><stop offset="1" style="stop-color:#b078ec;stop-opacity:1"/></linearGradient><linearGradient id="_Linear25" x1="0" y1="0" x2="1" y2="0" gradientUnits="userSpaceOnUse" gradientTransform="matrix(-54.1529,519.002,-519.002,-54.1529,943.219,245.223)"><stop offset="0" style="stop-color:#f3e7a7;stop-opacity:1"/><stop offset="0.26" style="stop-color:#eded87;stop-opacity:1"/><stop offset="0.55" style="stop-color:#edd992;stop-opacity:1"/><stop offset="0.8" style="stop-color:#c2f5bd;stop-opacity:1"/><stop offset="1" style="stop-color:#ecf5bd;stop-opacity:1"/></linearGradient><linearGradient id="_Linear26" x1="0" y1="0" x2="1" y2="0" gradientUnits="userSpaceOnUse" gradientTransform="matrix(-16.3695,691.032,-691.032,-16.3695,948.634,248.349)"><stop offset="0" style="stop-color:#f3c3b7;stop-opacity:1"/><stop offset="0.23" style="stop-color:#f5a895;stop-opacity:1"/><stop offset="0.4" style="stop-color:#f6957d;stop-opacity:1"/><stop offset="0.62" style="stop-color:#5dcbf8;stop-opacity:1"/><stop offset="0.83" style="stop-color:#eb92bc;stop-opacity:1"/><stop offset="1" style="stop-color:#eda;stop-opacity:1"/></linearGradient><linearGradient id="_Linear27" x1="0" y1="0" x2="1" y2="0" gradientUnits="userSpaceOnUse" gradientTransform="matrix(-54.1529,519.002,-519.002,-54.1529,943.219,245.223)"><stop offset="0" style="stop-color:#f3e7a7;stop-opacity:1"/><stop offset="0.26" style="stop-color:#eded87;stop-opacity:1"/><stop offset="0.55" style="stop-color:#edd992;stop-opacity:1"/><stop offset="0.8" style="stop-color:#c4bdf5;stop-opacity:1"/><stop offset="1" style="stop-color:#ecf5bd;stop-opacity:1"/></linearGradient><linearGradient id="_Linear28" x1="0" y1="0" x2="1" y2="0" gradientUnits="userSpaceOnUse" gradientTransform="matrix(20.5355,-119.458,119.458,20.5355,662.75,814.899)"><stop offset="0" style="stop-color:#94c7c5;stop-opacity:1"/><stop offset="1" style="stop-color:#b13246;stop-opacity:1"/></linearGradient><linearGradient id="_Linear29" x1="0" y1="0" x2="1" y2="0" gradientUnits="userSpaceOnUse" gradientTransform="matrix(552.359,-18.7591,18.7591,552.359,564.149,764.225)"><stop offset="0" style="stop-color:#f3c3b7;stop-opacity:1"/><stop offset="0.16" style="stop-color:#f5beb5;stop-opacity:1"/><stop offset="0.23" style="stop-color:#f8b4b1;stop-opacity:1"/><stop offset="0.28" style="stop-color:#fbaaae;stop-opacity:1"/><stop offset="0.41" style="stop-color:#e1b4ba;stop-opacity:1"/><stop offset="0.57" style="stop-color:#9dcfd9;stop-opacity:1"/><stop offset="0.8" style="stop-color:#dbcec5;stop-opacity:1"/><stop offset="1" style="stop-color:#f5cdbd;stop-opacity:1"/></linearGradient><linearGradient id="_Linear30" x1="0" y1="0" x2="1" y2="0" gradientUnits="userSpaceOnUse" gradientTransform="matrix(552.359,-18.7591,18.7591,552.359,564.149,764.225)"><stop offset="0" style="stop-color:#f3c3b7;stop-opacity:1"/><stop offset="0.16" style="stop-color:#f5beb5;stop-opacity:1"/><stop offset="0.23" style="stop-color:#f8b4b1;stop-opacity:1"/><stop offset="0.28" style="stop-color:#fbaaae;stop-opacity:1"/><stop offset="0.43" style="stop-color:#e1b4ba;stop-opacity:1"/><stop offset="0.6" style="stop-color:#9dcfd9;stop-opacity:1"/><stop offset="1" style="stop-color:#f5cdbd;stop-opacity:1"/></linearGradient><linearGradient id="_Linear31" x1="0" y1="0" x2="1" y2="0" gradientUnits="userSpaceOnUse" gradientTransform="matrix(-16.3695,691.032,-691.032,-16.3695,948.634,248.349)"><stop offset="0" style="stop-color:#f3c3b7;stop-opacity:1"/><stop offset="0.23" style="stop-color:#f5a895;stop-opacity:1"/><stop offset="0.4" style="stop-color:#f6957d;stop-opacity:1"/><stop offset="0.62" style="stop-color:#5dcbf8;stop-opacity:1"/><stop offset="0.83" style="stop-color:#eb92bc;stop-opacity:1"/><stop offset="1" style="stop-color:#eda;stop-opacity:1"/></linearGradient><linearGradient id="_Linear32" x1="0" y1="0" x2="1" y2="0" gradientUnits="userSpaceOnUse" gradientTransform="matrix(-54.1529,519.002,-519.002,-54.1529,943.219,245.223)"><stop offset="0" style="stop-color:#f3e7a7;stop-opacity:1"/><stop offset="0.26" style="stop-color:#eded87;stop-opacity:1"/><stop offset="0.55" style="stop-color:#edd992;stop-opacity:1"/><stop offset="0.8" style="stop-color:#c2f5bd;stop-opacity:1"/><stop offset="1" style="stop-color:#ecf5bd;stop-opacity:1"/></linearGradient><linearGradient id="_Linear33" x1="0" y1="0" x2="1" y2="0" gradientUnits="userSpaceOnUse" gradientTransform="matrix(43.3223,37.5182,-37.5182,43.3223,661.624,307.753)"><stop offset="0" style="stop-color:#bdc5f5;stop-opacity:1"/><stop offset="1" style="stop-color:#ecf5bd;stop-opacity:1"/></linearGradient><linearGradient id="_Linear34" x1="0" y1="0" x2="1" y2="0" gradientUnits="userSpaceOnUse" gradientTransform="matrix(63.555,32.2769,-32.2769,63.555,690.291,266.19)"><stop offset="0" style="stop-color:#8870b5;stop-opacity:1"/><stop offset="1" style="stop-color:#60ada9;stop-opacity:1"/></linearGradient><linearGradient id="_Linear35" x1="0" y1="0" x2="1" y2="0" gradientUnits="userSpaceOnUse" gradientTransform="matrix(54.8289,55.887,-55.887,54.8289,683.285,570.381)"><stop offset="0" style="stop-color:#bfbdf5;stop-opacity:1"/><stop offset="1" style="stop-color:#ecf5bd;stop-opacity:1"/></linearGradient><linearGradient id="_Linear36" x1="0" y1="0" x2="1" y2="0" gradientUnits="userSpaceOnUse" gradientTransform="matrix(54.1529,31.2652,-31.2652,54.1529,585.81,639.164)"><stop offset="0" style="stop-color:#bdbff5;stop-opacity:1"/><stop offset="1" style="stop-color:#ecf5bd;stop-opacity:1"/></linearGradient><linearGradient id="_Linear37" x1="0" y1="0" x2="1" y2="0" gradientUnits="userSpaceOnUse" gradientTransform="matrix(-86.6446,-50.0243,50.0243,-86.6446,748.269,607.899)"><stop offset="0" style="stop-color:#94c7c5;stop-opacity:1"/><stop offset="1" style="stop-color:#7332b1;stop-opacity:1"/></linearGradient><linearGradient id="_Linear38" x1="0" y1="0" x2="1" y2="0" gradientUnits="userSpaceOnUse" gradientTransform="matrix(-75.814,-56.2773,56.2773,-75.814,639.963,670.429)"><stop offset="0" style="stop-color:#94c7c5;stop-opacity:1"/><stop offset="1" style="stop-color:#7132b1;stop-opacity:1"/></linearGradient><linearGradient id="_Linear39" x1="0" y1="0" x2="1" y2="0" gradientUnits="userSpaceOnUse" gradientTransform="matrix(30.0057,-226.657,226.657,30.0057,230.887,1065.92)"><stop offset="0" style="stop-color:#94c7c5;stop-opacity:1"/><stop offset="0.14" style="stop-color:#a1abab;stop-opacity:1"/><stop offset="0.34" style="stop-color:#be6d71;stop-opacity:1"/><stop offset="0.47" style="stop-color:#a0aead;stop-opacity:1"/><stop offset="0.58" style="stop-color:#94c7c5;stop-opacity:1"/><stop offset="0.84" style="stop-color:#94c7c5;stop-opacity:1"/><stop offset="0.93" style="stop-color:#94c7c5;stop-opacity:1"/><stop offset="1" style="stop-color:#94c7c5;stop-opacity:1"/></linearGradient><linearGradient id="_Linear40" x1="0" y1="0" x2="1" y2="0" gradientUnits="userSpaceOnUse" gradientTransform="matrix(3.86991,-52.2586,52.2586,3.86991,153.866,969.529)"><stop offset="0" style="stop-color:#cdbae2;stop-opacity:1"/><stop offset="1" style="stop-color:#f3c3b7;stop-opacity:1"/></linearGradient><linearGradient id="_Linear41" x1="0" y1="0" x2="1" y2="0" gradientUnits="userSpaceOnUse" gradientTransform="matrix(7.20034,-76.03,76.03,7.20034,266.738,932.772)"><stop offset="0" style="stop-color:#be6d71;stop-opacity:1"/><stop offset="0.49" style="stop-color:#9eb1b1;stop-opacity:1"/><stop offset="1" style="stop-color:#94c7c5;stop-opacity:1"/></linearGradient><linearGradient id="_Linear42" x1="0" y1="0" x2="1" y2="0" gradientUnits="userSpaceOnUse" gradientTransform="matrix(5.14844,-47.0518,47.0518,5.14844,250.062,920.551)"><stop offset="0" style="stop-color:#cdbae2;stop-opacity:1"/><stop offset="1" style="stop-color:#f3c3b7;stop-opacity:1"/></linearGradient><linearGradient id="_Linear43" x1="0" y1="0" x2="1" y2="0" gradientUnits="userSpaceOnUse" gradientTransform="matrix(-10.8306,-81.2895,81.2895,-10.8306,390.86,864.273)"><stop offset="0" style="stop-color:#beb7f3;stop-opacity:1"/><stop offset="1" style="stop-color:#f3c3b7;stop-opacity:1"/></linearGradient><linearGradient id="_Linear44" x1="0" y1="0" x2="1" y2="0" gradientUnits="userSpaceOnUse" gradientTransform="matrix(-21.048,-82.4775,82.4775,-21.048,401.077,865.461)"><stop offset="0" style="stop-color:#beb7f3;stop-opacity:1"/><stop offset="1" style="stop-color:#f3c3b7;stop-opacity:1"/></linearGradient><linearGradient id="_Linear45" x1="0" y1="0" x2="1" y2="0" gradientUnits="userSpaceOnUse" gradientTransform="matrix(10.8306,-56.2773,56.2773,10.8306,434.182,826.755)"><stop offset="0" style="stop-color:#c79498;stop-opacity:1"/><stop offset="1" style="stop-color:#94c7c5;stop-opacity:1"/></linearGradient><linearGradient id="_Linear46" x1="0" y1="0" x2="1" y2="0" gradientUnits="userSpaceOnUse" gradientTransform="matrix(422.392,-206.35,206.35,422.392,715.777,976.828)"><stop offset="0" style="stop-color:#ecf5bd;stop-opacity:1"/><stop offset="0.25" style="stop-color:#aac5ec;stop-opacity:1"/><stop offset="0.57" style="stop-color:#eeb09b;stop-opacity:1"/><stop offset="1" style="stop-color:#d2baed;stop-opacity:1"/></linearGradient><linearGradient id="_Linear47" x1="0" y1="0" x2="1" y2="0" gradientUnits="userSpaceOnUse" gradientTransform="matrix(230.682,-8.12369,8.12369,230.682,1026.62,197.069)"><stop offset="0" style="stop-color:#f1e99e;stop-opacity:1"/><stop offset="0.45" style="stop-color:#e7b1ba;stop-opacity:1"/><stop offset="1" style="stop-color:#d02bfe;stop-opacity:1"/></linearGradient><linearGradient id="_Linear48" x1="0" y1="0" x2="1" y2="0" gradientUnits="userSpaceOnUse" gradientTransform="matrix(555.6,342.046,-342.046,555.6,279.314,203.322)"><stop offset="0" style="stop-color:#94c7c5;stop-opacity:1"/><stop offset="0.19" style="stop-color:#9bc0cb;stop-opacity:1"/><stop offset="0.38" style="stop-color:#b1a9de;stop-opacity:1"/><stop offset="1" style="stop-color:#9bd3d9;stop-opacity:1"/></linearGradient><linearGradient id="_Linear49" x1="0" y1="0" x2="1" y2="0" gradientUnits="userSpaceOnUse" gradientTransform="matrix(-389.901,-625.304,625.304,-389.901,845.744,501.597)"><stop offset="0" style="stop-color:#ecf5bd;stop-opacity:1"/><stop offset="0.31" style="stop-color:#f7e19c;stop-opacity:1"/><stop offset="0.45" style="stop-color:#ededb0;stop-opacity:1"/><stop offset="0.57" style="stop-color:#e9f2b9;stop-opacity:1"/><stop offset="0.65" style="stop-color:#f6e29e;stop-opacity:1"/><stop offset="0.82" style="stop-color:#eef1b6;stop-opacity:1"/><stop offset="1" style="stop-color:#ecf5bd;stop-opacity:1"/></linearGradient><linearGradient id="_Linear50" x1="0" y1="0" x2="1" y2="0" gradientUnits="userSpaceOnUse" gradientTransform="matrix(144.038,58.1481,-58.1481,144.038,279.314,37.0018)"><stop offset="0" style="stop-color:#ecf5bd;stop-opacity:1"/><stop offset="1" style="stop-color:#dbe4a8;stop-opacity:1"/></linearGradient><linearGradient id="_Linear51" x1="0" y1="0" x2="1" y2="0" gradientUnits="userSpaceOnUse" gradientTransform="matrix(339.153,-83.2105,83.2105,339.153,224.996,584.808)"><stop offset="0" style="stop-color:#f3c3b7;stop-opacity:1"/><stop offset="0.43" style="stop-color:#deaee1;stop-opacity:1"/><stop offset="0.74" style="stop-color:#efc4c7;stop-opacity:1"/><stop offset="1" style="stop-color:#f5cdbd;stop-opacity:1"/></linearGradient><linearGradient id="_Linear52" x1="0" y1="0" x2="1" y2="0" gradientUnits="userSpaceOnUse" gradientTransform="matrix(339.153,-83.2105,83.2105,339.153,224.996,584.808)"><stop offset="0" style="stop-color:#f3c3b7;stop-opacity:1"/><stop offset="0.43" style="stop-color:#deaee1;stop-opacity:1"/><stop offset="0.74" style="stop-color:#efc4c7;stop-opacity:1"/><stop offset="1" style="stop-color:#f5cdbd;stop-opacity:1"/></linearGradient><linearGradient id="_Linear53" x1="0" y1="0" x2="1" y2="0" gradientUnits="userSpaceOnUse" gradientTransform="matrix(-16.3695,691.032,-691.032,-16.3695,948.634,248.349)"><stop offset="0" style="stop-color:#f3c3b7;stop-opacity:1"/><stop offset="0.23" style="stop-color:#f5a895;stop-opacity:1"/><stop offset="0.4" style="stop-color:#f6957d;stop-opacity:1"/><stop offset="0.62" style="stop-color:#5dcbf8;stop-opacity:1"/><stop offset="0.83" style="stop-color:#eb92bc;stop-opacity:1"/><stop offset="1" style="stop-color:#eda;stop-opacity:1"/></linearGradient><linearGradient id="_Linear54" x1="0" y1="0" x2="1" y2="0" gradientUnits="userSpaceOnUse" gradientTransform="matrix(422.392,-206.35,206.35,422.392,715.777,976.828)"><stop offset="0" style="stop-color:#ecf5bd;stop-opacity:1"/><stop offset="0.25" style="stop-color:#aac5ec;stop-opacity:1"/><stop offset="0.57" style="stop-color:#eeb09b;stop-opacity:1"/><stop offset="1" style="stop-color:#d2baed;stop-opacity:1"/></linearGradient><linearGradient id="_Linear55" x1="0" y1="0" x2="1" y2="0" gradientUnits="userSpaceOnUse" gradientTransform="matrix(-286.368,-9.7505,9.7505,-286.368,861.347,967.819)"><stop offset="0" style="stop-color:#eecdbf;stop-opacity:1"/><stop offset="0.2" style="stop-color:#d6cbc1;stop-opacity:1"/><stop offset="0.41" style="stop-color:#94c7c5;stop-opacity:1"/><stop offset="0.46" style="stop-color:#8cc1cf;stop-opacity:1"/><stop offset="0.51" style="stop-color:#85bbd9;stop-opacity:1"/><stop offset="0.66" style="stop-color:#82b8de;stop-opacity:1"/><stop offset="0.73" style="stop-color:#89bed4;stop-opacity:1"/><stop offset="0.81" style="stop-color:#90c4ca;stop-opacity:1"/><stop offset="1" style="stop-color:#94c7c5;stop-opacity:1"/></linearGradient><linearGradient id="_Linear56" x1="0" y1="0" x2="1" y2="0" gradientUnits="userSpaceOnUse" gradientTransform="matrix(422.392,-206.35,206.35,422.392,715.777,976.828)"><stop offset="0" style="stop-color:#ecf5bd;stop-opacity:1"/><stop offset="0.25" style="stop-color:#aac5ec;stop-opacity:1"/><stop offset="0.57" style="stop-color:#eeb09b;stop-opacity:1"/><stop offset="1" style="stop-color:#d2baed;stop-opacity:1"/></linearGradient></defs></svg>